<svg width="111" height="50" viewBox="0 0 111 50" fill="none" xmlns="http://www.w3.org/2000/svg">
<path d="M73.6912 7.69745C72.5937 6.52677 71.585 6.5085 70.2299 7.33506C67.7925 8.82709 67.0979 11.0739 67.0494 13.513C66.7134 16.6218 67.1264 19.3809 68.9769 21.8027C70.7841 24.17 73.0033 24.1585 74.7237 21.7649C77.1578 18.3766 76.5731 10.768 73.6914 7.69408L73.6912 7.69745Z" fill="#F45C6F"/>
<path d="M34.0809 9.28792C31.8023 12.6109 32.516 19.8155 35.4037 22.6521C36.8904 24.1096 38.5226 24.0567 40.0175 22.5723C41.6236 20.9814 41.6591 18.9047 41.823 17.6677C42.1652 14.444 41.9945 12.0547 40.928 9.80945C39.3474 6.47875 36.1583 6.25083 34.0775 9.28764L34.0809 9.28792Z" fill="#F45C6F"/>
<path d="M43.5909 39.3897C43.8978 39.1391 44.191 38.8626 44.4979 38.6077C51.1912 33.0857 58.378 31.8284 66.0414 34.5029C66.7396 34.7449 67.7503 36.0324 68.1296 34.8313C68.6046 33.332 67.1227 33.1764 66.3532 32.6233C66.2306 32.5326 66.0705 32.5197 65.9275 32.4765C58.4408 30.2426 51.3225 31.137 44.7486 36.551C43.995 37.1732 43.0746 37.7392 43.1105 39.394C43.4444 39.394 43.5364 39.4286 43.5875 39.3897L43.5909 39.3897Z" fill="#3048EA" stroke="#F45C6F" stroke-width="2" stroke-linejoin="round"/>
<path opacity="0.12" d="M20.847 24.3956C24.9375 24.6134 27.851 27.7011 27.6379 31.5925C27.426 35.4611 24.1038 38.5561 20.1889 38.3019C16.2087 38.0443 13.1356 35.0138 13.3666 30.8328C13.5964 26.6746 17.0002 23.8744 20.8472 24.3928L20.847 24.3956Z" fill="#F45C6F"/>
<path opacity="0.12" d="M89.847 24.3956C93.9375 24.6134 96.851 27.7011 96.6379 31.5925C96.426 35.4611 93.1038 38.5561 89.1889 38.3019C85.2087 38.0443 82.1356 35.0138 82.3666 30.8328C82.5964 26.6746 86.0002 23.8744 89.8472 24.3928L89.847 24.3956Z" fill="#F45C6F"/>
</svg>
