<svg width="47" height="57" viewBox="0 0 47 57" fill="none" xmlns="http://www.w3.org/2000/svg">
<path d="M43.884 35.4232C44.1198 35.3091 44.2812 35.0346 44.4631 34.8215C45.9658 33.0669 46.6354 30.9506 46.532 28.7268C46.3802 25.4932 45.7161 22.3382 43.8421 19.5793C43.1521 18.5632 42.6235 17.4792 42.4136 16.265C41.8571 13.0433 40.3846 10.2478 38.5676 7.57182C35.7689 3.4502 32.123 0.786057 27.0369 0.310278C24.4094 0.0637775 21.8055 1.40176 20.6312 3.76882C20.4686 4.09605 20.2587 4.16817 19.9218 4.19401C16.7205 4.43728 14.2264 5.93889 12.3664 8.52338C12.0241 8.99808 11.8109 9.53844 11.7022 10.1272C11.502 11.2166 11.4321 12.3027 11.6699 13.392C11.7787 13.8936 11.6301 14.2069 11.0962 14.3005C10.3481 14.434 9.72377 14.8678 9.07469 15.2144C7.92507 15.8269 6.78728 16.4921 5.92076 17.49C4.49343 19.1315 3.28784 20.927 2.3126 22.8775C0.263092 26.9711 0.0327334 31.1993 1.52143 35.4888C2.23294 37.5416 3.51281 39.2273 5.55693 40.1939C5.82173 40.3187 5.96167 40.4727 5.93261 40.7816C5.78729 42.3274 6.07362 43.8451 6.20064 45.3779C6.49881 48.9764 7.93475 52.1755 9.50956 55.3295C11.1274 58.5695 13.6947 60.957 16.6279 62.9871C17.6053 63.6642 18.7614 63.8321 19.8927 64.0312C19.7065 63.6954 19.404 63.6631 19.1123 63.6071C18.1844 63.4295 17.3147 63.1055 16.5408 62.5576C15.3395 61.7094 14.2318 60.7428 13.1608 59.7428C10.4504 57.2143 9.04885 53.8967 7.75068 50.5329C7.36425 49.534 7.09514 48.4899 6.95628 47.4178C6.67964 45.294 6.26307 43.1853 6.41377 41.0195C6.50526 39.7159 6.46866 38.3919 7.0058 37.1691C7.71086 35.561 8.62366 34.0895 9.77543 32.7364C11.29 30.956 13.0628 29.5082 14.9735 28.1993C16.4546 27.1842 17.8927 26.11 19.601 25.4652C20.2081 25.2359 20.6774 25.2574 21.2329 25.5847C23.7732 27.083 26.4481 28.2639 29.2834 29.1218C31.4664 29.7816 33.6279 30.5362 35.7301 31.4383C37.7689 32.3145 39.7947 33.2111 41.5503 34.6115C42.2737 35.1885 42.7796 35.8699 42.9217 36.8074C42.9949 37.2897 43.1262 37.7644 43.2489 38.238C43.8345 40.4953 43.9422 42.8139 43.856 45.111C43.7506 47.9613 43.1553 50.759 42.1865 53.4543C41.0778 56.5383 39.1435 59.0334 36.6408 61.1228C36.1306 61.5479 35.4309 61.6911 34.996 62.2336C35.1833 62.3908 35.2931 62.2616 35.4137 62.2099C36.7678 61.619 37.8313 60.6814 38.7732 59.549C40.2274 57.8009 41.6063 56.0194 42.3921 53.8505C43.0466 52.0442 43.4362 50.1777 43.7947 48.295C44.4987 44.6018 44.2296 40.9603 43.3361 37.3457C43.1413 36.5556 42.9583 35.8753 43.884 35.4232ZM30.4987 1.44913C33.6107 2.45558 35.8658 4.53524 37.7366 7.13157C39.0886 9.00777 40.4373 10.8786 41.221 13.0842C41.687 14.3974 42.0068 15.7376 42.0466 17.3027C40.9971 16.377 40.0434 15.5707 39.137 14.715C38.8873 14.4781 38.6774 14.1918 38.3857 13.997C35.7624 12.2403 33.8378 9.79356 31.9713 7.32532C30.981 6.01424 30.2598 4.49756 29.714 2.92598C29.6236 2.66657 29.5859 2.37808 29.5848 2.10252C29.5827 1.41038 29.8529 1.2403 30.4987 1.44913ZM18.8798 25.1939C16.8099 26.5082 14.7743 27.8721 12.8196 29.35C10.2297 31.3102 8.24046 33.7892 6.75822 36.6654C6.35134 37.4533 6.26953 38.3661 6.07792 39.2294C5.91431 39.9635 5.84649 40.0195 5.18772 39.6212C3.69149 38.7181 2.76469 37.3403 1.99828 35.8171C1.10808 34.0464 0.938006 32.1627 1.05211 30.1767C0.974605 26.1746 2.50528 22.6977 4.81636 19.462C5.85941 18.0024 7.13282 16.8398 8.64196 15.9335C9.47404 15.4351 10.3976 15.0906 11.3545 14.8549C11.7937 14.7462 12.0122 14.8893 12.135 15.2887C12.5591 16.6622 13.3222 17.8657 14.0176 19.1068C15.2081 21.2316 16.9207 22.8473 18.8884 24.2262C19.573 24.7052 19.5989 24.7386 18.8798 25.1939ZM42.8356 35.1702C40.3943 33.1293 37.6311 31.6718 34.6569 30.5427C31.2178 29.237 27.6096 28.406 24.2931 26.7569C22.3491 25.7903 20.3739 24.8689 18.6269 23.5761C16.84 22.2532 15.3276 20.6676 14.1995 18.6945C13.1909 16.9324 12.3599 15.138 12.023 13.1305C11.6721 11.0422 12.0058 9.1886 13.572 7.59012C15.2275 5.90229 17.1694 4.89583 19.4858 4.55568C20.0768 4.46957 20.2953 4.64503 20.2921 5.30165C20.2781 8.09604 21.7937 10.068 23.8787 11.7042C23.9842 11.7871 24.1285 11.9066 24.2436 11.7677C24.4083 11.5707 24.1952 11.4739 24.0725 11.392C22.9778 10.6579 22.2555 9.59227 21.516 8.54276C20.4955 7.09389 20.4126 4.52016 21.3308 3.15203C22.2339 1.80542 24.5633 0.582609 26.3265 0.601984C27.0273 0.659035 27.8615 0.730078 28.6806 0.944286C29.0585 1.04332 29.2415 1.21447 29.1844 1.62674C29.0746 2.41683 29.2953 3.14234 29.6128 3.86354C30.9401 6.87645 32.8755 9.45986 35.2479 11.7074C37.3275 13.6784 39.5073 15.5427 41.6128 17.4857C44.0272 19.7149 45.2188 22.5761 45.8507 25.7429C46.1736 27.364 46.3275 28.9571 46.0326 30.5976C45.7161 32.3575 44.9465 33.857 43.7032 35.1293C43.4147 35.4264 43.2048 35.4781 42.8356 35.1702Z" fill="#3048EA"/>
<path d="M18.8787 25.1945C16.8087 26.5088 14.7732 27.8726 12.8184 29.3506C10.2286 31.3107 8.23934 33.7897 6.75711 36.6659C6.35022 37.4539 6.26841 38.3667 6.07681 39.23C5.91319 39.9641 5.84538 40.0201 5.18661 39.6218C3.69038 38.7187 2.76358 37.3409 1.99717 35.8177C1.10696 34.047 0.936892 32.1633 1.05099 30.1773C0.97349 26.1751 2.50417 22.6983 4.81525 19.4626C5.8583 18.0029 7.1317 16.8404 8.64085 15.934C9.47292 15.4357 10.3965 15.0912 11.3534 14.8555C11.7926 14.7467 12.0111 14.8899 12.1338 15.2893C12.558 16.6628 13.3211 17.8662 14.0165 19.1073C15.207 21.2322 16.9196 22.8479 18.8873 24.2268C19.5719 24.7058 19.5978 24.7392 18.8787 25.1945Z" fill="#B9BCFF"/>
<path d="M42.0457 17.3033C40.9962 16.3776 40.0425 15.5713 39.1362 14.7156C38.8864 14.4788 38.6765 14.1924 38.3848 13.9976C35.7616 12.2409 33.8369 9.79418 31.9704 7.32594C30.9801 6.01486 30.2589 4.49818 29.7132 2.9266C29.6227 2.66718 29.5851 2.3787 29.584 2.10313C29.5818 1.411 29.852 1.24092 30.4979 1.44975C33.6098 2.4562 35.8649 4.53585 37.7357 7.13218C39.0877 9.00839 40.4365 10.8792 41.2201 13.0848C41.6862 14.398 42.0059 15.7382 42.0457 17.3033Z" fill="#B9BCFF"/>
<path d="M46.0329 30.5974C45.7164 32.3573 44.9468 33.8568 43.7035 35.1291C43.415 35.4262 43.2051 35.4779 42.8359 35.17C40.3946 33.1291 37.6314 31.6716 34.6573 30.5425C31.2181 29.2368 27.6099 28.4058 24.2935 26.7567C22.3495 25.7901 20.3742 24.8687 18.6272 23.5759C16.8403 22.253 15.328 20.6674 14.1999 18.6943C13.1913 16.9322 12.3603 15.1378 12.0233 13.1303C11.6724 11.042 12.0061 9.18841 13.5723 7.58992C15.2279 5.90209 17.1697 4.89564 19.4862 4.55549C20.0771 4.46937 20.2957 4.64484 20.2924 5.30145C20.2784 8.09585 21.794 10.0679 23.8791 11.704C23.9846 11.7869 24.1288 11.9064 24.244 11.7675C24.4087 11.5705 24.1955 11.4737 24.0728 11.3918C22.9781 10.6577 22.2558 9.59207 21.5163 8.54256C20.4959 7.0937 20.413 4.51997 21.3312 3.15183C22.2343 1.80523 24.5637 0.582414 26.3268 0.60179C27.0276 0.65884 27.8618 0.729883 28.681 0.944091C29.0588 1.04312 29.2418 1.21428 29.1847 1.62655C29.075 2.41664 29.2956 3.14215 29.6132 3.86335C30.9404 6.87625 32.8758 9.45967 35.2482 11.7072C37.3279 13.6782 39.5076 15.5425 41.6131 17.4855C44.0275 19.7147 45.2191 22.5759 45.851 25.7427C46.1739 27.3638 46.3279 28.9569 46.0329 30.5974Z" fill="#B9BCFF"/>
<path d="M30.0349 37.7121C29.6581 37.3698 29.3395 37.3903 28.9337 37.6874C28.2039 38.2234 28.0435 38.9532 28.0919 39.7272C28.0672 40.7207 28.2695 41.584 28.9165 42.3031C29.5483 43.006 30.248 42.9446 30.7281 42.1416C31.4073 41.0049 31.0241 38.6098 30.0349 37.711V37.7121Z" fill="#3048EA"/>
<path d="M17.5804 39.2463C16.9486 40.3582 17.3619 42.622 18.3468 43.4454C18.8538 43.8685 19.3673 43.8093 19.8 43.3001C20.265 42.7544 20.222 42.0956 20.2413 41.6995C20.265 40.6693 20.1488 39.9169 19.7537 39.2334C19.1681 38.2194 18.1563 38.2302 17.5793 39.2463H17.5804Z" fill="#3048EA"/>
<path d="M29.1747 47.1882C29.0779 47.2506 28.9853 47.3195 28.8884 47.383C26.7754 48.7587 24.5052 49.0719 22.0833 48.4056C21.8626 48.3453 21.5429 48.0246 21.4234 48.3238C21.2738 48.6973 21.742 48.7361 21.9853 48.8739C22.0241 48.8965 22.0747 48.8997 22.1199 48.9105C24.4859 49.467 26.7345 49.2442 28.8098 47.8954C29.0477 47.7404 29.3384 47.5994 29.3265 47.1871C29.221 47.1871 29.192 47.1785 29.1758 47.1882H29.1747Z" fill="#3048EA"/>
<path d="M37.8277 42.799C39.3778 42.8011 40.5392 43.9109 40.5349 45.3856C40.5306 46.8517 39.3358 48.0864 37.8514 48.067C36.3423 48.0476 35.1216 46.9626 35.127 45.3781C35.1324 43.8022 36.3638 42.6773 37.8277 42.7979V42.799Z" fill="#B9BCFF"/>
<path d="M11.8922 44.5529C13.4422 44.555 14.6037 45.6648 14.5994 47.1395C14.5951 48.6056 13.4002 49.8403 11.9158 49.8209C10.4067 49.8015 9.18604 48.7165 9.19142 47.132C9.19681 45.5561 10.4282 44.4313 11.8922 44.5518V44.5529Z" fill="#B9BCFF"/>
<path d="M16.3653 36.3883C17.3247 35.6632 17.8494 34.7406 17.5374 34.3278C17.2253 33.9149 16.1946 34.168 15.2352 34.8931C14.2758 35.6182 13.751 36.5408 14.0631 36.9537C14.3752 37.3666 15.4059 37.1134 16.3653 36.3883Z" fill="#3048EA"/>
<path d="M33.209 35.5064C33.4487 34.998 32.7503 34.1649 31.6491 33.6457C30.5479 33.1265 29.4609 33.1178 29.2212 33.6262C28.9814 34.1347 29.6798 34.9678 30.781 35.487C31.8822 36.0062 32.9692 36.0149 33.209 35.5064Z" fill="#3048EA"/>
</svg>
