<svg width="30" height="30" viewBox="0 0 30 30" fill="none" xmlns="http://www.w3.org/2000/svg">
<path d="M1 15.7257C1 15.7257 7.88071 15.7257 10.1743 11.1245C12.0599 7.34168 10.0884 0.868819 14.3027 1.00202C16.3908 1.06802 17.7646 2.59787 17.9724 4.68296C18.4311 9.28414 14.6164 10.9114 17.9724 11.5846C20.266 12.0447 28.5229 7.833 28.5229 12.5049C28.5229 15.7257 22.1009 15.7257 22.1009 15.7257C22.1009 15.7257 28.6983 14.0889 28.9816 16.6459C29.4403 20.787 21.1834 20.3269 21.1834 20.3269C21.1834 20.3269 28.5229 19.2422 28.5229 22.1673C28.5229 25.3862 19.8073 24.0078 19.8073 24.0078C19.8073 24.0078 24.3944 23.5458 25.3119 26.3065C27.0097 31.4156 1 27.6868 1 27.6868" stroke="#3048EA" stroke-width="2" stroke-linecap="round" stroke-linejoin="round"/>
</svg>
