<svg width="120" height="126" viewBox="0 0 120 126" fill="none" xmlns="http://www.w3.org/2000/svg">
<g clip-path="url(#clip0_728_27843)">
<path d="M39.9549 88.0185C43.5239 88.0234 46.1971 90.5349 46.1873 93.8745C46.1775 97.1917 43.4262 99.9867 40.0103 99.9451C36.5357 99.9018 33.7274 97.4448 33.7388 93.8601C33.7502 90.2946 36.5862 87.7463 39.9565 88.0201L39.9549 88.0185Z" fill="#B9BCFF"/>
<path d="M87.6898 88.2139C91.2588 88.2187 93.9319 90.7302 93.9221 94.0698C93.9124 97.387 91.1611 100.182 87.7451 100.14C84.2706 100.097 81.4623 97.6401 81.4737 94.0554C81.4851 90.4899 84.3211 87.9416 87.6914 88.2155L87.6898 88.2139Z" fill="#B9BCFF"/>
<path d="M100.985 77.1121C100.985 100.246 87.5261 119 63.5883 119C39.6504 119 26.1919 100.246 26.1919 77.1121C26.1919 53.9779 42.9339 35.2246 63.5883 35.2246C84.2426 35.2246 100.985 53.9779 100.985 77.1121Z" stroke="#3048EA" stroke-miterlimit="10"/>
<path d="M56.0259 95.6424C57.4902 96.2005 60.6614 97.3312 63.5899 97.2777C68.2128 97.1933 70.751 94.8783 72.2111 93.9453" stroke="#3048EA" stroke-miterlimit="10" stroke-linecap="round"/>
<path d="M38.1841 22.6271C33.5149 23.1399 25.9255 30.5255 22.8619 33.8682C14.8315 42.6317 12.2616 53.1334 12 59.2957C11.9958 64.8009 13.6035 68.4113 16.0236 71.7108C18.0386 74.3614 23.5624 77.733 26.2462 78.9337C28.7064 63.2068 38.2348 55.78 50.4913 47.3399C41.7393 40.8543 39.0555 26.6473 38.1862 22.625L38.1841 22.6271Z" fill="#B9BCFF" stroke="#3048EA" stroke-miterlimit="10"/>
<path d="M51.1479 86.3188C52.7892 86.2458 54.0147 83.9362 53.8851 81.1603C53.7554 78.3843 52.3198 76.1932 50.6784 76.2662C49.0371 76.3392 47.8116 78.6488 47.9413 81.4247C48.0709 84.2007 49.5066 86.3919 51.1479 86.3188Z" fill="#3048EA"/>
<path d="M73.3974 85.3286C75.0387 85.2556 76.2642 82.946 76.1346 80.17C76.005 77.3941 74.5693 75.2029 72.928 75.276C71.2866 75.349 70.0611 77.6586 70.1908 80.4345C70.3204 83.2105 71.7561 85.4016 73.3974 85.3286Z" fill="#3048EA"/>
<path d="M47.2158 71.4387C49.3682 70.3289 50.766 68.7877 50.3377 67.9962C49.9095 67.2048 47.8174 67.4628 45.665 68.5726C43.5125 69.6824 42.1147 71.2236 42.543 72.0151C42.9712 72.8065 45.0633 72.5484 47.2158 71.4387Z" fill="#3048EA"/>
<path d="M80.6062 71.3876C81.0002 70.6496 79.5698 69.1609 77.4113 68.0626C75.2527 66.9642 73.1833 66.672 72.7892 67.4099C72.3952 68.1479 73.8256 69.6365 75.9841 70.7349C78.1427 71.8333 80.2121 72.1255 80.6062 71.3876Z" fill="#3048EA"/>
<path d="M52.1519 8.73341C49.9787 8.45125 43.1425 9.87647 38.1504 13.7711C32.709 18.018 33.3525 23.4017 33.6922 26.2068C36.9752 53.2799 96.7725 62.6406 100.781 73.1527C120.509 60.8653 110.388 40.77 99.5154 34.2371C92.1412 29.8069 98.5068 23.8465 88.6556 12.2738C87.7948 11.2646 81.9587 4.42272 69.7254 1.58875C66.358 0.808177 62.7268 0.571326 59.1653 2.35697C56.1481 3.87076 52.9726 6.66766 52.1498 8.73135L52.1519 8.73341Z" fill="#B9BCFF" stroke="#3048EA" stroke-miterlimit="10" stroke-linejoin="round"/>
<path d="M52.2339 8.73438L52.8584 12.6352C52.8626 12.6599 52.8669 12.6867 52.8711 12.7114C53.4956 16.534 55.7321 19.9281 59.0004 22.1175L61.3846 23.7157" stroke="#3048EA" stroke-miterlimit="10" stroke-linecap="round" stroke-linejoin="round"/>
<path d="M71.6434 2.03516C71.0822 5.55702 71.7426 9.16127 73.5951 12.3021C75.454 15.4553 78.161 18.2872 81.5073 20.8802L99.5134 34.2366" stroke="#3048EA" stroke-miterlimit="10" stroke-linejoin="round"/>
<path d="M77.8704 90.0164L81.3148 83.1967L89.9259 86.8689L100.833 79L106 83.1967L100.833 104L88.5 112.5L77.8704 106.803L75 100.508L81.3148 96.3115L77.8704 90.0164Z" fill="#EFF5FF"/>
<path d="M95.8699 88.8972C95.8699 88.8972 89.7949 77.075 81.3834 84.1687C74.8411 89.686 81.3834 96.9355 81.3834 96.9355C81.3834 96.9355 72.9719 98.8259 77.1776 104.973C80.0425 109.16 84.6545 105.447 84.6545 105.447C84.6545 105.447 83.976 110.235 86.0564 111.121C87.0656 111.551 88.8603 111.121 88.8603 111.121M93.066 105.447C93.066 105.447 86.2299 114.063 94.468 115.848C101.01 117.266 99.6083 108.284 99.6083 108.284C99.6083 108.284 103.269 109.656 104.749 108.284C106.363 106.786 104.749 102.609 104.749 102.609C104.749 102.609 109.567 104.33 113.16 102.609C117.39 100.584 118.058 92.2892 115.497 89.369C105.625 78.1122 99.6083 94.5713 99.6083 94.5713M104.038 87.088C104.749 83.3052 103.814 81.4513 101.01 80.3859C98.2064 79.3206 96.5615 79.995 94.468 82.8327" stroke="#3048EA" stroke-linecap="round" stroke-linejoin="round"/>
<path d="M94.0003 97.8807C93.0657 101.191 87.3671 102.136 86.5233 97.4077C86.0625 94.825 89.253 92.1835 91.6637 93.1521" stroke="#3048EA" stroke-linecap="round" stroke-linejoin="round"/>
<path d="M106.15 92.2388C107.537 90.7246 109.466 90.3698 111.291 91.2931C113.116 92.2164 113.992 93.9903 113.627 96.0215" stroke="#3048EA" stroke-linecap="round" stroke-linejoin="round"/>
<path d="M34.5 87.5L28.5 84L23 93L34.5 109.5L40 100L34.5 94V87.5Z" fill="#EFF5FF"/>
<path d="M22.7666 96.4166C22.7666 96.4166 16.2666 85.6351 27.7666 84.4181C36.7666 83.4656 34.7666 94.4183 34.7666 94.4183C34.7666 94.4183 39.7666 97.3126 39.7666 100.913C39.7666 103.413 35.7666 105.42 35.7666 105.42C35.7666 105.42 34.2345 113.407 26.7666 111.913C21.7666 110.913 21.7666 105.42 21.7666 105.42C21.7666 105.42 11.7666 107.413 10.2666 99.9131C8.20605 89.6105 18.7666 89.9197 18.7666 89.9197" stroke="#3048EA" stroke-linecap="round" stroke-linejoin="round"/>
<circle cx="23.5" cy="74.5" r="6" fill="#EFF5FF" stroke="#3048EA"/>
<circle cx="5" cy="84" r="4.5" fill="#EFF5FF" stroke="#3048EA"/>
<path d="M9.5 119C11.9853 119 14 116.985 14 114.5C14 112.015 11.9853 110 9.5 110" stroke="#3048EA" stroke-linecap="round"/>
<circle cx="119" cy="71" r="5.5" fill="#EFF5FF" stroke="#3048EA"/>
</g>
<defs>
<clipPath id="clip0_728_27843">
<rect width="120" height="126" fill="white"/>
</clipPath>
</defs>
</svg>
