<svg width="33" height="25" viewBox="0 0 33 25" fill="none" xmlns="http://www.w3.org/2000/svg">
<path d="M1 14.7131L8.87006 23.2434C8.87006 23.2434 13.9836 15.051 18.489 10.8744C22.5754 7.08619 31.6058 1.91748 31.6058 1.91748" stroke="#3048EA" stroke-width="2" stroke-linecap="round" stroke-linejoin="round"/>
<path d="M11.4025 16.5867C11.4025 16.5867 10.9831 7.07455 15.0107 3.56638C15.5051 3.13577 16.0755 2.78771 16.6999 2.50942M15.9441 19.3213C15.9441 19.3213 20.3964 20.549 25.0853 18.3787M16.6999 2.50942C21.8663 0.206671 31.9773 1.64792 31.9773 1.64792C31.9773 1.64792 31.3333 7.22471 30.4564 11.2402M16.6999 2.50942L18.0838 11.0833M30.4564 11.2402C30.0899 12.9182 29.464 14.5038 28.4259 15.627C27.5757 16.5468 26.4107 17.8599 25.0853 18.3787M30.4564 11.2402L20.6747 9.16852M25.0853 18.3787L15.428 14.2868" stroke="#3048EA" stroke-linecap="round" stroke-linejoin="round"/>
</svg>
