<svg width="26" height="32" viewBox="0 0 26 32" fill="none" xmlns="http://www.w3.org/2000/svg">
<path d="M16.273 5.19481C16.273 7.60477 14.8077 8.72727 13.0003 8.72727C11.1928 8.72727 9.72754 7.60477 9.72754 5.19481C9.72754 2.78484 13.0003 0 13.0003 0C13.0003 0 16.273 2.78484 16.273 5.19481Z" fill="currentColor"/>
<path d="M16.273 28.4682C16.273 30.8782 14.8077 32.0007 13.0003 32.0007C11.1928 32.0007 9.72754 30.8782 9.72754 28.4682C9.72754 26.0583 13.0003 23.2734 13.0003 23.2734C13.0003 23.2734 16.273 26.0583 16.273 28.4682Z" fill="currentColor"/>
<path d="M1.72754 18.91L8.1691 13.0918L13.2303 18.91L19.2118 13.0918L24.273 18.91" stroke="currentColor" stroke-width="2" stroke-linecap="round" stroke-linejoin="round"/>
</svg>
