<svg width="20" height="32" viewBox="0 0 20 32" fill="none" xmlns="http://www.w3.org/2000/svg">
<path d="M0.914357 31.9991C0.96872 31.9673 1.02308 31.9354 1.11387 31.8823C0.183351 31.4913 0.0023146 30.7306 0.0017868 29.887C-0.000324412 23.7867 -0.000852214 17.6869 0.0017868 11.5866C0.0017868 11.2184 0.0155097 10.8502 0.452002 10.6651C0.60612 10.5998 0.570757 10.4334 0.570757 10.2999C0.572869 8.93375 0.576563 7.56762 0.571813 6.20199C0.57023 5.83934 0.608759 5.51412 1.00619 5.33912C1.1619 5.27033 1.14289 5.12618 1.13076 4.98406C1.09223 4.54756 1.07428 4.11107 1.14448 3.67458C1.17351 3.49401 1.24846 3.34683 1.42791 3.28866C1.64958 3.21684 1.66753 3.0646 1.67861 2.87391C1.73667 1.88358 2.05494 1.02526 2.96434 0.439563C4.59103 -0.608428 6.83841 0.315139 7.16195 2.17694C7.18676 2.32058 7.23268 2.46625 7.22529 2.60888C7.2084 2.92095 7.27332 3.16474 7.58155 3.34379C7.78687 3.46316 7.80851 3.71403 7.81273 3.93607C7.81959 4.30074 7.82012 4.66592 7.81431 5.0311C7.81168 5.19295 7.85706 5.31181 8.0191 5.38464C8.22389 5.4772 8.31942 5.64714 8.34159 5.85806C8.36006 6.03407 8.38803 6.21059 8.38803 6.38711C8.38909 7.71126 8.38592 9.03541 8.37801 10.3601C8.37695 10.5057 8.38487 10.6312 8.54004 10.701C8.82453 10.8289 8.89948 11.0742 8.91689 11.3453C8.92692 11.5011 8.92375 11.6579 8.92375 11.8142C8.92375 17.831 8.92217 23.8479 8.92164 29.8647C8.92164 29.9689 8.92164 30.0731 8.91848 30.1773C8.89472 30.9603 8.58913 31.5728 7.79478 31.8864C7.80429 31.9713 7.89823 31.9501 7.93096 31.9986L0.914357 31.9991ZM1.1962 21.2082H1.19356C1.19356 24.1792 1.19356 27.1502 1.19356 30.1217C1.19356 30.2259 1.1904 30.3306 1.19937 30.4342C1.21837 30.6553 1.33977 30.7959 1.56355 30.8616C1.73245 30.9112 1.90346 30.9193 2.0771 30.9193C3.61406 30.9178 5.15155 30.9178 6.68851 30.9132C6.85002 30.9132 7.011 30.8808 7.17251 30.8743C7.52402 30.8596 7.70242 30.6709 7.74834 30.3503C7.76734 30.2168 7.77948 30.0812 7.77948 29.9462C7.78053 24.0143 7.7779 18.0824 7.78634 12.1506C7.78634 11.8349 7.69239 11.7404 7.36304 11.7424C5.44712 11.756 3.5312 11.749 1.61528 11.749C1.3366 11.749 1.19708 11.8891 1.19673 12.1693C1.19673 15.1822 1.1962 18.1952 1.1962 21.2082ZM4.43269 10.6039C4.43269 10.5998 4.43269 10.5963 4.43269 10.5922C5.23336 10.5922 6.03404 10.5826 6.83471 10.5973C7.12025 10.6023 7.20734 10.5093 7.20417 10.2361C7.19098 9.10066 7.19942 7.96466 7.19784 6.82866C7.19784 6.42049 7.1952 6.421 6.76029 6.41897C5.15894 6.41088 3.55812 6.40734 1.95677 6.38913C1.72295 6.3866 1.71556 6.50041 1.71556 6.65922C1.71662 7.88879 1.71873 9.11836 1.71345 10.3479C1.71239 10.5507 1.78048 10.613 1.99793 10.6094C2.80917 10.5958 3.62145 10.6039 4.43269 10.6039ZM4.48072 3.14046V3.13895C4.92354 3.13895 5.36637 3.13996 5.80867 3.13844C5.92531 3.13844 6.06623 3.15665 6.08207 2.99277C6.16124 2.17289 5.77172 1.24174 4.75676 1.11024C3.59137 0.959006 2.77961 1.70605 2.81075 2.85014C2.81656 3.06611 2.90048 3.14704 3.12004 3.14299C3.57342 3.13541 4.02681 3.14046 4.48072 3.14046ZM4.42107 4.24106C3.93444 4.24106 3.44781 4.24106 2.96117 4.24106C2.26606 4.24106 2.2782 4.24106 2.27925 4.91679C2.27925 5.18738 2.36634 5.27792 2.65346 5.27387C3.7344 5.2587 4.81587 5.27185 5.89681 5.26426C6.71173 5.2587 6.61937 5.39223 6.62729 4.54251C6.6294 4.30833 6.53756 4.23398 6.30216 4.23802C5.67513 4.24864 5.0481 4.24156 4.42107 4.24106Z" fill="currentColor"/>
<path d="M11.3738 31.9991C11.3786 31.9789 11.3944 31.9501 11.3859 31.9394C11.008 31.4681 11.102 30.9152 11.1009 30.3816C11.0978 28.2983 11.0925 26.2149 11.1036 24.1316C11.1088 23.1989 11.378 22.3426 12.023 21.6229C12.697 20.8713 13.5167 20.3549 14.5649 20.2629C15.6015 20.1713 16.6386 20.1313 17.632 20.5324C19.01 21.0888 19.9823 22.5637 19.9701 24.0006C19.9516 26.136 19.9664 28.2715 19.968 30.4069C19.968 30.8894 20.1131 31.3866 19.7859 31.8327C19.7231 31.9187 19.8345 31.9526 19.8841 32.0001H11.3733L11.3738 31.9991ZM18.8227 27.2619H18.8258C18.8258 26.1674 18.8364 25.0724 18.8232 23.9779C18.809 22.769 18.0025 21.7494 16.8593 21.4767C16.3642 21.3589 15.8606 21.2997 15.3482 21.3169C13.4169 21.3822 12.2753 22.3892 12.2473 24.1458C12.213 26.3035 12.2415 28.4617 12.2368 30.6198C12.2368 30.8373 12.3238 30.9142 12.5445 30.9137C14.5364 30.9092 16.5283 30.9066 18.5202 30.9142C18.7651 30.9152 18.8311 30.8399 18.8285 30.6087C18.8169 29.4935 18.8232 28.3777 18.8232 27.2624L18.8227 27.2619Z" fill="currentColor"/>
</svg>
