<svg width="10" height="32" viewBox="0 0 10 32" fill="none" xmlns="http://www.w3.org/2000/svg">
<g clip-path="url(#clip0_747_9992)">
<path d="M2.69974 5.83071C3.05412 5.75413 3.37511 5.68409 3.80652 5.59069C3.44872 5.36748 3.1731 5.46368 2.91973 5.41418C2.82215 5.3955 2.70402 5.38803 2.71772 5.23487C2.72799 5.11719 2.83071 5.11346 2.91545 5.10038C3.13458 5.06676 3.36655 5.1368 3.60964 5.01633C3.49409 4.77351 3.27753 4.83795 3.12602 4.76323C3.02245 4.7128 2.88463 4.69786 2.89319 4.53723C2.90261 4.36725 3.04641 4.38593 3.15427 4.36444C3.29293 4.33643 3.4316 4.30841 3.64303 4.26545C3.40079 4.16925 3.22702 4.09921 3.05155 4.0329C2.97023 4.00208 2.87094 3.98154 2.89063 3.8592C2.90775 3.75086 3.00361 3.73405 3.09007 3.71817C3.26725 3.68455 3.46584 3.72937 3.64474 3.52204C3.37168 3.39503 3.02758 3.53325 2.80674 3.21665C3.05583 3.08777 3.28352 2.98037 3.5814 2.92433C3.41705 2.73568 3.0798 2.80666 3.10119 2.5517C3.12174 2.30047 3.44444 2.41347 3.5814 2.25751C3.56085 2.23977 3.53774 2.22296 3.51805 2.20241C3.36484 2.03617 3.00361 2.13517 2.99249 1.88581C2.97965 1.60563 3.39736 1.82043 3.47526 1.50103C3.40335 1.41978 3.1517 1.47768 3.13886 1.25167C3.12516 1.00885 3.34087 1.03593 3.46841 0.959351C3.50008 0.940674 3.53945 0.890243 3.53689 0.857552C3.52661 0.703453 3.22018 0.488655 3.5035 0.414871C3.97001 0.291595 4.39799 -0.314522 4.94582 0.211281C5.11359 0.37191 5.51333 0.384987 5.23 0.807121C5.19747 0.856621 5.29505 0.888374 5.34213 0.919189C5.6343 1.10785 5.63373 1.29993 5.34042 1.49543C5.48422 1.64392 5.81549 1.48515 5.8249 1.75972C5.83603 2.09127 5.45084 1.95025 5.31046 2.14917C5.38407 2.39386 5.75129 2.21642 5.76156 2.47698C5.77097 2.7254 5.40719 2.57131 5.37209 2.86176C5.50049 2.9729 5.6888 2.94207 5.86256 2.96822C5.94816 2.9813 6.05088 2.9897 6.06201 3.10178C6.07142 3.20264 5.99267 3.27456 5.90879 3.30257C5.73417 3.36048 5.55527 3.40437 5.28649 3.47909C5.54928 3.54353 5.72218 3.58275 5.89252 3.63038C5.97298 3.65279 6.07142 3.67801 6.06629 3.79755C6.06115 3.90682 5.96956 3.94325 5.88996 3.975C5.71362 4.04598 5.48508 3.98434 5.35754 4.24397C5.44228 4.25144 5.51247 4.24864 5.57753 4.26545C5.77098 4.31588 6.09453 4.14031 6.12963 4.42049C6.15616 4.63249 5.80949 4.6549 5.62888 4.75949C5.5313 4.81553 5.41831 4.83888 5.31303 4.93507C5.56041 4.93507 5.80864 4.9304 6.05601 4.93694C6.16815 4.93975 6.30681 4.94535 6.32222 5.10505C6.33849 5.27129 6.20153 5.29557 6.0894 5.31705C5.85144 5.36375 5.61262 5.40297 5.33443 5.45247C5.64001 5.79429 6.04489 5.54866 6.377 5.72891C6.19896 6.12116 5.73074 5.86153 5.55441 6.20335C5.72646 6.32383 5.94131 6.30141 6.1476 6.33129C6.24262 6.34437 6.37358 6.33783 6.37529 6.48259C6.377 6.61241 6.2546 6.65256 6.15959 6.67031C5.94474 6.7114 5.72647 6.73382 5.51076 6.84589C5.7958 6.9122 6.08084 6.97851 6.36673 7.04481C6.46089 7.0663 6.59185 7.05602 6.59271 7.20171C6.59271 7.37916 6.44719 7.35581 6.33934 7.37542C6.14076 7.41185 5.91563 7.31379 5.71534 7.51832C5.87968 7.67428 6.05944 7.59957 6.21608 7.63319C6.29997 7.65093 6.40183 7.65187 6.41809 7.76488C6.43521 7.88535 6.33763 7.9115 6.2546 7.93765C6.00294 8.01703 5.75129 8.09642 5.49878 8.1758C5.49963 8.21596 5.50134 8.25519 5.5022 8.29535C5.79237 8.29535 6.08255 8.29067 6.37272 8.29721C6.51738 8.30095 6.69457 8.31869 6.69286 8.52042C6.69115 8.72121 6.50711 8.72962 6.36759 8.74269C6.12877 8.76511 5.88824 8.77164 5.64686 8.80714C6.01664 8.83142 6.34876 9.05743 6.7271 9.0266C6.81098 9.02007 6.91028 9.04809 6.9214 9.16389C6.93681 9.31893 6.8204 9.33574 6.72111 9.33947C6.3265 9.35628 5.92591 9.32827 5.53558 9.56642C5.96699 9.60938 6.37444 9.64953 6.78102 9.69156C6.91113 9.70464 7.06778 9.72332 7.06778 9.90076C7.06778 10.1006 6.89572 10.0661 6.77418 10.0791C6.40611 10.1184 6.03804 10.1529 5.66655 10.2146C6.08169 10.2332 6.48999 10.293 6.89059 10.4107C6.9856 10.4387 7.11143 10.4396 7.10287 10.5853C7.09431 10.7273 6.97105 10.732 6.87261 10.7338C6.54734 10.7385 6.22207 10.7357 5.85828 10.7357C5.98754 10.9879 6.16301 10.9757 6.32907 10.9832C6.54306 10.9925 6.75706 10.9925 6.97019 11.0056C7.08318 11.0131 7.21843 11.0252 7.2287 11.1877C7.23897 11.3493 7.10287 11.3848 6.99673 11.4119C6.56189 11.5211 6.11508 11.438 5.67168 11.5333C6.07656 11.5734 6.48143 11.6108 6.88545 11.6537C7.00786 11.6668 7.17734 11.6481 7.17905 11.8405C7.17991 12.0301 7.01299 12.0226 6.88888 12.0348C6.46431 12.074 6.03975 12.1067 5.58352 12.1441C5.65285 12.4018 5.82062 12.3663 5.96357 12.3775C6.30425 12.4046 6.64492 12.2888 6.98646 12.371C7.0926 12.3962 7.24582 12.3682 7.24582 12.5428C7.24582 12.725 7.09003 12.6932 6.9856 12.6988C6.70056 12.7128 6.41552 12.7128 6.12963 12.7212C5.97384 12.7259 5.82319 12.7483 5.70678 12.9136C6.26744 12.9995 6.84351 12.8548 7.42985 13.1471C6.85036 13.5561 6.24946 13.3852 5.69051 13.5748C5.93532 13.5907 6.18099 13.6056 6.4258 13.6225C6.56789 13.6318 6.71255 13.629 6.85121 13.6579C6.96249 13.6813 7.08233 13.7429 7.0635 13.8998C7.04809 14.0278 6.93852 14.0661 6.83666 14.0726C6.49684 14.095 6.15702 14.1081 5.81549 14.1445C6.2255 14.1753 6.60726 14.3836 7.02669 14.3519C7.11999 14.3453 7.25181 14.3416 7.26122 14.4891C7.27406 14.6769 7.12427 14.6591 7.01727 14.6629C6.59271 14.6778 6.16215 14.6432 5.73074 14.8973C5.9961 15.0943 6.25974 15.0131 6.50711 14.9767C6.7485 14.9412 6.98646 14.8991 7.23041 14.9225C7.32713 14.9318 7.44697 14.9384 7.44612 15.0887C7.44526 15.2083 7.33484 15.2064 7.25951 15.2428C6.87004 15.4324 6.44463 15.3717 6.03975 15.4511C5.98839 15.4614 5.93875 15.4838 5.79066 15.5323C6.29141 15.5996 6.68259 15.5557 7.07633 15.5071C7.20302 15.4912 7.42129 15.3801 7.46323 15.6295C7.50775 15.8994 7.32371 15.9582 7.114 15.9713C6.75877 15.9937 6.40354 16.0311 6.04917 16.0656C5.92933 16.0768 5.79237 16.0404 5.68367 16.1982C5.88739 16.3607 6.10481 16.2842 6.30596 16.2982C6.53365 16.3131 6.76219 16.3084 6.98988 16.3206C7.07548 16.3252 7.17734 16.3542 7.1859 16.4635C7.19874 16.6222 7.06606 16.6297 6.97619 16.6213C6.60983 16.5867 6.28627 16.8053 5.92676 16.838C6.34533 16.9061 6.77418 16.8492 7.18847 16.95C7.34425 16.9883 7.60019 16.8912 7.62416 17.1284C7.65326 17.4245 7.34682 17.3068 7.19617 17.4151C7.15851 17.6141 7.49405 17.5944 7.41188 17.7896C7.32713 17.9914 7.10886 17.9166 6.95307 17.9746C6.63551 18.0932 6.2623 17.9241 5.87198 18.2753C6.38557 18.2753 6.80157 18.2669 7.21671 18.2799C7.36993 18.2846 7.62159 18.2043 7.61132 18.4854C7.60361 18.6955 7.3862 18.7432 7.20901 18.746C6.81441 18.7525 6.41895 18.7478 6.02178 18.8179C6.32479 18.9748 6.64321 18.9169 6.95393 18.9346C7.12513 18.9449 7.29718 18.93 7.46751 18.9449C7.62587 18.9589 7.87496 18.8795 7.88951 19.1298C7.90577 19.4072 7.64641 19.3091 7.49576 19.3409C7.00529 19.4427 6.5054 19.4268 5.95159 19.4539C6.43435 19.6902 6.88802 19.6547 7.33741 19.664C7.43156 19.6659 7.56681 19.6444 7.58307 19.7845C7.60361 19.961 7.45382 19.961 7.34597 19.976C6.88289 20.0404 6.40525 19.9255 5.87797 20.1188C6.09881 20.2851 6.29654 20.2272 6.47715 20.2375C6.6766 20.2487 6.87689 20.2375 7.07633 20.2459C7.18761 20.2505 7.33056 20.2505 7.33655 20.4158C7.34254 20.569 7.20302 20.5419 7.11143 20.5653C6.76818 20.6531 6.42494 20.7408 6.08169 20.9052C6.56703 20.9052 7.05322 20.9015 7.53856 20.9071C7.68921 20.909 7.89893 20.88 7.90321 21.1181C7.90749 21.3451 7.69777 21.3498 7.54798 21.361C7.221 21.3843 6.8923 21.3796 6.56446 21.3993C6.43179 21.4067 6.27172 21.3404 6.16301 21.5627C6.51482 21.6804 6.86234 21.5982 7.20216 21.6113C7.31087 21.6159 7.46323 21.5608 7.48121 21.7327C7.49747 21.8905 7.35367 21.9316 7.23983 21.9307C6.86405 21.926 6.52423 22.1062 6.15873 22.1772C6.68858 22.209 7.21158 22.2678 7.83216 22.3743C7.18847 22.718 6.5773 22.6358 6.02263 22.8674C6.41124 22.8674 6.80071 22.8637 7.18932 22.8693C7.34682 22.8721 7.55654 22.8879 7.56424 23.0897C7.5728 23.3073 7.35196 23.2251 7.22699 23.2587C6.87347 23.354 6.49085 23.326 6.11337 23.5968C6.61925 23.5968 7.06863 23.5921 7.51802 23.5996C7.62159 23.6015 7.78508 23.5436 7.80562 23.7079C7.82531 23.8648 7.66696 23.9013 7.55996 23.8966C7.13968 23.876 6.76391 24.1291 6.34533 24.1749C6.71255 24.1749 7.08061 24.1721 7.44783 24.1768C7.5591 24.1786 7.71147 24.1674 7.73629 24.314C7.76967 24.5102 7.59334 24.4551 7.49747 24.4859C7.17135 24.5914 6.84437 24.6914 6.51225 24.8118C6.94965 24.7623 7.35281 24.9697 7.78251 24.9967C7.88095 25.0033 8.00335 25.0108 7.99993 25.1583C7.99651 25.3012 7.87496 25.3133 7.77652 25.3171C7.30659 25.3376 6.85806 25.5188 6.38043 25.5011C6.0971 25.4908 5.9319 25.6169 6.16815 25.9568C6.40782 26.3024 6.60298 26.6591 7.03182 26.8086C7.33569 26.915 7.42044 27.283 7.43328 27.6229C7.47265 28.6484 7.44612 29.6823 7.55996 30.6974C7.66011 31.5968 7.74314 32.4943 7.6738 33.3881C7.49319 35.7285 7.54113 38.0783 7.39733 40.4168C7.27835 42.3566 7.23041 44.2954 7.17306 46.2361C7.16536 46.5051 7.12427 46.8086 7.637 46.7806C6.95051 46.9842 7.05237 47.5305 7.05066 47.9218C7.04894 48.8231 7.00529 49.7215 6.97362 50.62C6.92226 52.0489 6.8204 53.475 6.75963 54.9029C6.70827 56.1152 6.75192 57.3358 6.63123 58.5387C6.48743 59.9788 6.48914 61.4236 6.37872 62.8619C6.34191 63.3382 6.23748 63.8098 6.22208 64.2936C6.20752 64.754 5.91992 64.9473 5.54415 64.9772C5.18977 65.0052 4.82941 65.0099 4.47503 64.9772C3.9546 64.9286 3.81337 64.6709 3.76543 63.7463C3.69096 62.3034 3.68839 60.852 3.61478 59.411C3.43075 55.7771 3.48638 52.1376 3.34087 48.5055C3.26041 46.4985 3.29721 44.4934 3.21419 42.4901C3.10376 39.8144 3.21932 37.1341 3.0952 34.464C2.99334 32.286 3.00447 30.1109 2.96681 27.9339C2.95654 27.3708 3.10548 26.9804 3.62077 26.774C3.9683 26.6349 4.08899 26.2463 4.20797 25.9055C4.29528 25.657 4.10868 25.5833 3.91523 25.5805C3.48724 25.5748 3.05925 25.5804 2.63127 25.5702C2.4712 25.5664 2.22468 25.6299 2.21612 25.3759C2.2067 25.1032 2.46007 25.1172 2.63897 25.1116C3.00704 25.0985 3.3597 24.9557 3.7894 25.0052C3.45471 24.7847 3.14399 24.7651 2.83756 24.7128C2.69461 24.6885 2.46435 24.6811 2.4712 24.4756C2.47805 24.2561 2.70402 24.2888 2.85211 24.2851C3.25014 24.2748 3.64902 24.2814 4.05047 24.2207C3.61221 24.1786 3.17395 24.1403 2.73655 24.0908C2.60901 24.0768 2.39759 24.1497 2.40101 23.9283C2.40443 23.7518 2.60559 23.7387 2.7434 23.7229C3.15255 23.6752 3.57113 23.7322 3.97686 23.5706C3.48724 23.5809 3.03272 23.4081 2.47034 23.2933C3.04128 22.831 3.66614 23.184 4.18486 22.901C3.57968 22.7254 2.92743 22.8907 2.33767 22.5321C2.88463 22.4415 3.4316 22.3519 4.10525 22.2407C3.5814 22.1903 3.17909 22.1529 2.77764 22.1109C2.66208 22.0988 2.52769 22.0736 2.52427 21.9176C2.52085 21.7439 2.66807 21.7551 2.77764 21.7429C3.17395 21.7 3.57027 21.6617 3.9683 21.5636C3.48638 21.5636 3.00533 21.5674 2.52341 21.5618C2.37276 21.5599 2.16134 21.5917 2.14336 21.3656C2.12282 21.0995 2.35564 21.0929 2.51314 21.1023C3.01902 21.134 3.48724 20.9146 3.98199 20.8688C3.63019 20.8296 3.2741 20.8482 2.93086 20.7464C2.82557 20.7156 2.66636 20.7315 2.67064 20.5709C2.67492 20.4 2.829 20.3682 2.95996 20.3598C3.245 20.3411 3.53004 20.3365 3.81508 20.3196C3.88099 20.3159 3.94519 20.2888 4.00682 20.1693C3.59252 20.1693 3.17823 20.1768 2.7648 20.1655C2.62185 20.1618 2.39759 20.2337 2.38218 19.9946C2.36591 19.7481 2.59018 19.7948 2.73655 19.778C3.14656 19.7313 3.55657 19.692 3.96744 19.5987C3.43674 19.5987 2.90518 19.6024 2.37447 19.5968C2.22211 19.5949 2.0124 19.6127 2.00041 19.3895C1.98929 19.1746 2.20414 19.2148 2.33082 19.1896C2.87436 19.0831 3.43674 19.1167 4.04362 18.8637C3.53089 18.8637 3.09178 18.8693 2.65267 18.8599C2.50886 18.8571 2.28203 18.9253 2.27176 18.6881C2.26234 18.4649 2.47805 18.4116 2.64924 18.4004C3.04213 18.3752 3.43588 18.3659 3.9255 18.2174C3.44872 18.1903 3.07552 18.2174 2.7143 18.1193C2.5996 18.0876 2.41898 18.1221 2.4421 17.9176C2.46093 17.7504 2.62185 17.7336 2.74939 17.7299C3.01988 17.7224 3.29122 17.7345 3.56256 17.7252C3.72606 17.7196 3.91266 17.77 4.0479 17.5309C3.62933 17.4347 3.22531 17.4983 2.82557 17.4814C2.69718 17.4758 2.56878 17.487 2.44038 17.4777C2.33424 17.4702 2.17674 17.5067 2.17075 17.3339C2.16476 17.1714 2.31456 17.1564 2.42583 17.1574C2.91545 17.1648 3.36655 16.9043 3.86301 16.9202C3.42475 16.7091 2.93599 16.9239 2.44124 16.7063C2.87607 16.1926 3.5035 16.583 4.02137 16.1581C3.39651 16.0152 2.83584 16.1506 2.28802 15.9872C2.73141 15.5912 3.35799 15.919 3.81679 15.4856C3.36056 15.4856 2.91545 15.4884 2.47034 15.4838C2.36078 15.4828 2.2127 15.5006 2.18702 15.3456C2.15963 15.1774 2.3274 15.1746 2.41984 15.1233C2.66379 14.9888 2.91203 15.0103 3.16454 15.1186C3.4393 15.2372 3.68925 15.1877 3.9332 14.9159C3.51805 14.7796 3.12174 14.8805 2.7357 14.8403C2.5936 14.8254 2.36934 14.8954 2.37105 14.6432C2.37276 14.434 2.57734 14.4779 2.71087 14.4593C3.07637 14.4098 3.44358 14.3668 3.80994 14.2687C3.4744 14.2687 3.138 14.2734 2.80246 14.2669C2.67321 14.2641 2.51999 14.2454 2.51143 14.0651C2.50287 13.8858 2.65438 13.8457 2.78106 13.8298C3.13201 13.784 3.49152 13.785 3.93149 13.5421C3.37425 13.5421 2.93 13.5459 2.48575 13.5393C2.36591 13.5375 2.1913 13.5767 2.18017 13.3815C2.17075 13.2106 2.34109 13.2564 2.43953 13.2134C2.8795 13.0191 3.36655 13.0976 3.80909 12.8828C3.35884 12.8828 2.90946 12.8847 2.45922 12.8809C2.36249 12.8809 2.22981 12.8949 2.20756 12.7642C2.18188 12.6138 2.31113 12.5475 2.41984 12.5223C2.65609 12.4672 2.89576 12.4261 3.14057 12.4653C3.4239 12.5111 3.68754 12.4504 4.01966 12.2767C3.67812 12.1002 3.40592 12.1786 3.14656 12.1627C2.93342 12.1497 2.71857 12.1599 2.50458 12.1534C2.42241 12.1506 2.31456 12.1571 2.29829 12.0395C2.27775 11.8919 2.39587 11.8499 2.49174 11.8499C2.9086 11.8527 3.28437 11.5837 3.70894 11.5753C3.30149 11.5753 2.89405 11.579 2.48746 11.5725C2.36763 11.5706 2.19643 11.6117 2.17931 11.4175C2.16391 11.2456 2.33681 11.2718 2.43268 11.2269C2.8444 11.0345 3.2955 11.0616 3.72434 10.9234C3.3597 10.9234 2.99506 10.9309 2.63127 10.9197C2.48746 10.915 2.26919 10.9757 2.25892 10.731C2.2495 10.5228 2.45322 10.5517 2.5859 10.519C2.96852 10.4256 3.37682 10.449 3.77313 10.1987C3.37168 10.1987 3.0156 10.208 2.66122 10.194C2.52341 10.1884 2.29059 10.2855 2.28288 10.038C2.27689 9.84286 2.49431 9.87461 2.6287 9.86528C3.01389 9.84006 3.36056 9.61685 3.75944 9.67382C3.75773 9.62432 3.75601 9.57483 3.7543 9.52626C3.41534 9.52626 3.07723 9.53279 2.73826 9.52346C2.60559 9.51972 2.40015 9.57483 2.38389 9.3703C2.36506 9.13494 2.57991 9.15549 2.73056 9.12934C3.04384 9.07517 3.35627 9.021 3.66699 8.92294C3.4025 8.73896 3.1166 8.83609 2.84526 8.80247C2.73826 8.78939 2.57734 8.83516 2.56621 8.66985C2.55337 8.47466 2.72799 8.47279 2.84783 8.47653C3.16625 8.4868 3.44701 8.34764 3.80052 8.24491C3.48724 8.19261 3.23473 8.15339 2.98307 8.10482C2.88207 8.08521 2.77678 8.04131 2.79305 7.90123C2.80503 7.79382 2.90004 7.76767 2.98564 7.74899C3.17823 7.70697 3.37083 7.66681 3.55914 7.55381C3.352 7.55381 3.14485 7.56221 2.93856 7.551C2.79133 7.54353 2.56621 7.60144 2.54909 7.37916C2.5294 7.127 2.77592 7.14568 2.93 7.10926C3.20306 7.04482 3.50093 7.09245 3.76115 6.87391C3.42732 6.73475 3.04213 6.93461 2.71515 6.62735C2.99933 6.42842 3.30406 6.38453 3.63361 6.26685C3.33231 6.08007 2.93514 6.26032 2.69974 5.83725L2.69974 5.83071Z" fill="#3048EA"/>
</g>
<defs>
<clipPath id="clip0_747_9992">
<rect width="10" height="32" fill="white"/>
</clipPath>
</defs>
</svg>
