<svg width="12" height="32" viewBox="0 0 12 32" fill="none" xmlns="http://www.w3.org/2000/svg">
<path d="M6.00018 0C7.85467 0 9.70871 0 11.5632 0C11.8985 0 12.0135 0.103119 11.9988 0.424583C11.9629 1.20336 11.9054 1.98034 11.8304 2.75687C11.8037 3.03529 11.7964 3.3182 11.7743 3.59886C11.7265 4.20323 11.675 4.80715 11.6391 5.41242C11.6193 5.74733 11.6271 6.08359 11.5995 6.41895C11.5402 7.1372 11.5117 7.85814 11.4441 8.57594C11.3811 9.24666 11.3466 9.91873 11.3065 10.5904C11.2573 11.4149 11.2021 12.2389 11.129 13.0616C11.0458 14.0005 11.0016 14.9415 10.9391 15.8817C10.8816 16.7421 10.819 17.602 10.7574 18.4624C10.6985 19.2856 10.6562 20.1101 10.5702 20.9305C10.5191 21.4152 10.486 21.9016 10.4561 22.3863C10.434 22.7396 10.3972 23.0938 10.389 23.4498C10.3765 23.9878 10.302 24.524 10.274 25.0616C10.2445 25.6207 10.2381 26.1807 10.2229 26.7406C10.1884 28.0395 10.1549 29.3383 10.1204 30.6367C10.1084 31.0815 9.82553 31.4393 9.38491 31.5482C8.04325 31.8787 6.6878 32.071 5.29693 31.9755C4.65761 31.9316 4.02748 31.8486 3.40196 31.7173C3.15405 31.6653 2.90292 31.6343 2.65915 31.5563C2.21254 31.4133 1.93934 31.0811 1.926 30.6233C1.90024 29.7454 1.87403 28.8676 1.84965 27.9893C1.82757 27.1899 1.81929 26.3896 1.78388 25.5906C1.76318 25.1261 1.67855 24.6643 1.66245 24.2003C1.6459 23.7255 1.6091 23.2525 1.57828 22.7786C1.51113 21.7434 1.46974 20.7059 1.36671 19.6743C1.28116 18.8188 1.27656 17.9593 1.19009 17.1057C1.13996 16.6089 1.15238 16.1086 1.0958 15.6136C0.956899 14.3937 0.938962 13.1656 0.829035 11.9439C0.765563 11.2351 0.724167 10.5249 0.681393 9.81516C0.630339 8.96376 0.560888 8.11325 0.503395 7.26229C0.4597 6.61219 0.38519 5.96478 0.361733 5.31289C0.337816 4.64575 0.282162 3.97951 0.225129 3.31372C0.163957 2.59906 0.112444 1.88484 0.0903662 1.16704C0.0830071 0.924039 0.0112554 0.671621 0.000676662 0.420996C-0.0108219 0.154679 0.124401 0.014347 0.393009 0.0134503C2.17759 0.00672514 3.96217 0.0040351 5.74675 0C5.83092 0 5.91601 0 6.00018 0ZM1.05947 2.16192C0.985415 2.13816 0.940341 2.15744 0.935741 2.23903C0.930222 2.33588 0.904926 2.43586 0.921944 2.52822C1.01439 3.03126 0.999674 3.54237 1.05533 4.04855C1.28349 6.12571 1.27183 8.22375 1.48077 10.2998C1.54241 10.9132 1.5976 11.5296 1.63808 12.1416C1.68913 12.9105 1.7411 13.6808 1.78664 14.4506C1.82711 15.1303 1.87173 15.8091 1.92692 16.4879C2.01891 17.6155 2.081 18.7457 2.16747 19.8738C2.21208 20.4584 2.22956 21.0444 2.28476 21.6291C2.36203 22.4441 2.391 23.2637 2.43286 24.0815C2.43884 24.1972 2.47333 24.2528 2.58786 24.2877C3.40012 24.5343 4.2363 24.6881 5.07845 24.7374C6.03698 24.7939 7.0024 24.789 7.95632 24.6168C8.4457 24.5285 8.93324 24.4339 9.41296 24.3039C9.49897 24.2806 9.56106 24.2622 9.56704 24.1488C9.58544 23.8094 9.61764 23.4709 9.65075 23.1324C9.72434 22.3778 9.74826 21.6201 9.82323 20.8646C9.88164 20.2764 9.88303 19.6796 9.92534 19.0869C9.97179 18.4373 10.0063 17.7867 10.0652 17.1375C10.1236 16.4933 10.1654 15.8472 10.2013 15.2016C10.2399 14.5066 10.2827 13.8122 10.3434 13.1181C10.4051 12.4156 10.4382 11.7108 10.4929 11.0078C10.5555 10.2034 10.5881 9.39731 10.6562 8.59298C10.7118 7.93615 10.7275 7.27664 10.7965 6.61936C10.8563 6.05041 10.8461 5.47429 10.9027 4.90489C10.9285 4.64485 10.9115 4.38302 10.9501 4.12836C11.043 3.51816 11.0163 2.90034 11.1005 2.29059C11.1111 2.21348 11.1092 2.13098 10.9846 2.16057C10.9161 2.15744 10.8471 2.15116 10.7785 2.15116C7.65276 2.15026 4.52698 2.15026 1.40121 2.15071C1.28668 2.15071 1.17261 2.15788 1.05809 2.16192H1.05947ZM9.48333 25.3064C9.48563 25.1185 9.447 25.0804 9.25888 25.1311C8.50503 25.3346 7.73003 25.4534 6.9541 25.4996C6.20945 25.544 5.45745 25.5561 4.7105 25.4615C4.09555 25.3835 3.47923 25.3171 2.88222 25.145C2.57314 25.0562 2.54416 25.0723 2.55428 25.388C2.5805 26.2237 2.67571 29.6863 2.69273 30.5821C2.69503 30.7116 2.72538 30.7838 2.87578 30.8089C3.1007 30.8466 3.31963 30.9197 3.54316 30.9681C5.41973 31.3725 7.28296 31.307 9.13608 30.8206C9.28924 30.7802 9.34351 30.7242 9.34627 30.5677C9.36191 29.6867 9.47275 26.1793 9.48333 25.3064ZM6.02134 0.7586C5.66902 0.7586 5.31624 0.7586 4.96393 0.7586C3.65355 0.7586 2.34271 0.762186 1.03233 0.754564C0.856171 0.753668 0.817537 0.803434 0.818917 0.96708C0.819836 1.14731 0.886988 1.32038 0.867671 1.49702C0.843753 1.71671 0.931143 1.76513 1.14824 1.76424C3.44703 1.75706 5.74583 1.76065 8.04463 1.7611C9.00269 1.7611 9.96076 1.76155 10.9188 1.75796C11.0025 1.75796 11.123 1.80907 11.1295 1.63825C11.1382 1.41677 11.1621 1.19484 11.2008 0.976495C11.2334 0.791329 11.169 0.753219 10.9873 0.754116C9.33201 0.760841 7.67667 0.7586 6.02134 0.7586Z" fill="currentColor"/>
<path d="M9.48333 25.3064C9.48563 25.1185 9.447 25.0804 9.25888 25.1311C8.50503 25.3346 7.73003 25.4534 6.9541 25.4996C6.20945 25.544 5.45745 25.5561 4.7105 25.4615C4.09555 25.3835 3.47923 25.3171 2.88222 25.145C2.57314 25.0562 2.54416 25.0723 2.55428 25.388C2.5805 26.2237 2.67571 29.6863 2.69273 30.5821C2.69503 30.7116 2.72538 30.7838 2.87578 30.8089C3.1007 30.8466 3.31963 30.9197 3.54316 30.9681C5.41973 31.3725 7.28296 31.307 9.13608 30.8206C9.28924 30.7802 9.34351 30.7242 9.34627 30.5677C9.36191 29.6867 9.47275 26.1793 9.48333 25.3064Z" fill="currentColor"/>
</svg>
