<svg width="34" height="12" viewBox="0 0 34 12" fill="none" xmlns="http://www.w3.org/2000/svg">
<path d="M1 5.72016C1 5.72016 3.38781 1.80322 6.33333 1.80322C9.27885 1.80322 8.72115 5.72016 11.6667 5.72016C14.6122 5.72016 14.0545 1.80322 17 1.80322C19.9455 1.80322 19.3878 5.72016 22.3333 5.72016C25.2789 5.72016 24.7211 1.80322 27.6667 1.80322C30.6122 1.80322 33 5.72016 33 5.72016" stroke="#3048EA" stroke-width="2" stroke-linecap="round" stroke-linejoin="round"/>
<path d="M1 10.1967C1 10.1967 3.38781 6.83936 6.33333 6.83936C9.27885 6.83936 8.72115 10.1967 11.6667 10.1967C14.6122 10.1967 14.0545 6.83936 17 6.83936C19.9455 6.83936 19.3878 10.1967 22.3333 10.1967C25.2789 10.1967 24.7211 6.83936 27.6667 6.83936C30.6122 6.83936 33 10.1967 33 10.1967" stroke="#3048EA" stroke-width="2" stroke-linecap="round" stroke-linejoin="round"/>
</svg>
