<svg width="30" height="32" viewBox="0 0 30 32" fill="none" xmlns="http://www.w3.org/2000/svg">
<path d="M8.11002 15.6365C9.1462 15.0204 10.262 14.536 11.4293 14.1266H11.4302L11.5884 14.0721C14.9991 12.8979 17.7422 10.685 20.25 8.33221C21.0524 7.57944 21.8236 6.82048 22.5847 6.07139C24.234 4.44821 25.8362 2.87137 27.6069 1.50414C28.3013 1.11771 28.7155 1.00897 28.9202 1.00052C28.9295 1.00013 28.938 0.999974 28.9455 0.999988C28.9791 1.09838 29.0208 1.32441 28.9881 1.74483C28.9511 2.22144 28.8292 2.82364 28.6291 3.52476C27.823 6.34921 25.9222 10.1935 24.6216 12.345L24.6212 12.3456C24.1859 13.0671 24.3067 13.8867 24.7193 14.4451C25.1351 15.0079 25.9038 15.3717 26.7375 15.1031C27.0622 14.9987 27.4299 14.865 27.7644 14.7433C27.9616 14.6716 28.1473 14.604 28.3058 14.5492C28.4444 14.5013 28.5677 14.461 28.6768 14.4276C28.6143 14.5887 28.5319 14.7784 28.4256 15.0004C20.6096 30.0858 10.4586 32.4777 5.108 30.2994C2.40898 29.2005 0.863177 26.9784 1.00968 24.4469C1.15848 21.8757 3.07403 18.6278 8.10966 15.6367L8.11002 15.6365ZM28.9989 1.00443C28.9988 1.00444 28.9983 1.00432 28.9973 1.00401L28.9989 1.00443ZM29.2877 14.2982C29.2876 14.2983 29.2849 14.2983 29.2802 14.2977C29.2854 14.2978 29.2879 14.2981 29.2877 14.2982Z" stroke="currentColor" stroke-width="2"/>
</svg>
