<svg width="10" height="32" viewBox="0 0 10 32" fill="none" xmlns="http://www.w3.org/2000/svg">
<path d="M3.72718 9.04124C4.34806 9.25969 4.84185 9.42891 5.32838 9.60891C5.5426 9.6889 5.82581 9.75505 5.76227 10.0227C5.70599 10.2612 5.44094 10.3043 5.19767 10.332C4.70932 10.3873 4.17015 10.255 3.7054 10.6473C4.07575 10.9381 4.54957 10.9581 4.93262 11.1304C5.14139 11.2242 5.41008 11.3027 5.40463 11.5473C5.39918 11.7888 5.09964 11.758 4.92536 11.8257C4.52052 11.9826 4.10116 12.1103 3.60192 12.2796C4.06848 12.6549 4.56591 12.5595 5.0125 12.6272C5.28663 12.6688 5.5662 12.7688 5.60069 13.0318C5.63519 13.2934 5.33383 13.3287 5.12143 13.418C4.65305 13.618 4.10116 13.6872 3.60556 14.081C4.20827 14.2456 4.68935 14.3087 5.19585 14.2056C5.41915 14.1595 5.65152 14.1779 5.73503 14.3764C5.8258 14.5933 5.58254 14.7025 5.40826 14.7748C4.97619 14.9533 4.52234 15.0948 4.07938 15.2564C3.91599 15.3164 3.71266 15.3764 3.73989 15.564C3.76713 15.7563 3.9995 15.7671 4.1647 15.7809C4.67483 15.824 5.18678 15.8394 5.69873 15.8686C5.85122 15.8779 6.0255 15.8979 6.06181 16.0425C6.0963 16.1794 5.9783 16.2902 5.83851 16.3455C5.40281 16.5209 4.95985 16.684 4.52052 16.8547C4.35895 16.9178 4.1411 16.9794 4.1883 17.1655C4.2355 17.3486 4.46243 17.3501 4.64034 17.3409C5.06151 17.3193 5.47906 17.2732 5.90024 17.2501C6.11627 17.2393 6.35954 17.267 6.44849 17.4516C6.56105 17.6839 6.3432 17.8347 6.15076 17.9562C5.93291 18.0932 5.69509 18.207 5.46454 18.3301C5.29026 18.4239 5.0361 18.5085 5.13776 18.7208C5.23035 18.9147 5.49722 18.8793 5.70417 18.8624C6.03458 18.8362 6.36135 18.7793 6.69357 18.7531C6.90053 18.7377 7.13653 18.7162 7.23457 18.9316C7.32897 19.1362 7.17647 19.2731 7.00764 19.39C6.72625 19.5839 6.43397 19.7654 6.15803 19.9638C6.0491 20.0423 5.90387 20.1346 5.98193 20.2823C6.05636 20.4223 6.21612 20.4069 6.37224 20.3915C6.86967 20.3423 7.51958 19.8931 7.81187 20.4946C8.08599 21.0623 7.14924 21.1776 6.85877 21.6238C7.3326 21.8253 7.68842 21.6715 8.04968 21.4869C8.40369 21.3053 8.81761 21.1792 9.12259 21.4869C9.42577 21.7945 9.01912 22.0314 8.80672 22.1853C7.86088 22.8622 7.77193 23.7283 7.91716 24.6744C7.93895 24.8144 7.95892 24.9083 8.12593 24.9682C9.37131 25.4098 9.49113 26.3728 9.6291 27.3235C9.85239 28.8527 9.66359 30.3896 9.73076 31.9233C9.75981 32.5879 9.70534 33.2556 9.71987 33.9217C9.72894 34.3355 9.571 34.5278 9.04272 34.5155C8.04605 34.4909 7.04758 34.5048 6.0491 34.5125C5.66242 34.5155 5.40644 34.4371 5.41915 34.0479C5.4954 31.5433 5.13958 29.025 5.74956 26.5359C5.86393 26.0728 6.02732 25.6236 6.49751 25.3436C7.10567 24.9806 6.60643 24.6744 6.47209 24.3544C6.27058 23.8744 5.94744 24.2329 5.6715 24.2898C5.43731 24.339 5.20675 24.4052 4.96893 24.4375C4.65486 24.4821 4.33898 24.4375 4.17015 24.1883C3.99768 23.9298 4.14836 23.696 4.36984 23.496C4.49329 23.3837 4.61674 23.2714 4.73111 23.1514C4.84548 23.0329 5.00342 22.8837 4.91628 22.7437C4.78557 22.533 4.54957 22.6776 4.35713 22.7053C4.32809 22.7099 4.30086 22.7253 4.27181 22.7314C3.86516 22.8237 3.4222 23.1714 3.08998 22.6514C2.81948 22.2284 3.08271 21.9238 3.46032 21.6561C3.5874 21.5653 3.82159 21.4869 3.68543 21.3069C3.61826 21.2192 3.42764 21.1684 3.28786 21.1592C2.8812 21.1284 2.40738 21.2453 2.26941 20.7423C2.13144 20.2392 2.51449 19.9931 2.91933 19.7485C3.0101 19.6931 3.07364 19.6069 3.21342 19.4731C2.72326 19.27 2.27486 19.4193 1.84824 19.4054C1.56685 19.3962 1.28727 19.3916 1.1965 19.1054C1.11843 18.8608 1.32721 18.7362 1.51601 18.6024C1.90633 18.3255 2.28938 18.0424 2.78317 17.6839C2.21495 17.467 1.73749 17.5824 1.28909 17.5455C1.07305 17.527 0.840678 17.5255 0.755353 17.3286C0.67366 17.1363 0.822523 16.9809 0.98228 16.8594C1.35626 16.5748 1.74112 16.2994 2.25125 15.9256C1.57047 15.8133 1.05308 15.7271 0.53569 15.641C0.325102 15.6056 0.0981716 15.5702 0.0727558 15.3425C0.04734 15.101 0.216177 14.9764 0.479412 14.9056C0.795294 14.8195 1.10936 14.7225 1.4089 14.6025C1.71571 14.4795 2.27486 14.4902 2.21676 14.1241C2.1623 13.7826 1.61404 13.8903 1.28364 13.8026C1.11481 13.7564 0.926004 13.7564 0.746278 13.7426C0.495751 13.7226 0.243409 13.6872 0.185316 13.441C0.129038 13.2057 0.341439 13.0703 0.528426 12.938C0.893325 12.6795 1.67032 12.6549 1.63946 12.2596C1.60678 11.8211 0.862462 12.1811 0.499379 11.9596C0.277899 11.8242 0.00740197 11.7365 0.000140313 11.4611C-0.00712134 11.1719 0.268821 11.0704 0.515717 10.9888C0.962309 10.8427 1.42343 10.7289 1.92085 10.5904C1.76291 10.235 1.37986 10.2889 1.10392 10.2012C0.728124 10.0827 0.303313 9.99504 0.345068 9.56275C0.385007 9.13816 0.817077 9.08278 1.20921 9.02278C1.53053 8.97355 1.85368 8.92432 2.24218 8.86586C2.07697 8.4105 1.58863 8.41203 1.25641 8.24589C0.976835 8.10743 0.559292 8.04743 0.577446 7.70899C0.593785 7.389 1.00951 7.41054 1.27456 7.3167C1.3853 7.2767 1.50693 7.25516 1.61586 7.21362C1.88817 7.11055 2.32024 7.12286 2.39649 6.88287C2.49452 6.57519 2.01525 6.56442 1.81011 6.40289C1.56321 6.20751 1.28546 6.02752 1.39983 5.69369C1.53054 5.30909 1.91903 5.31678 2.28575 5.31063C2.43642 5.30755 2.58711 5.32601 2.73779 5.33371C2.88484 5.3414 3.05367 5.37678 3.13355 5.22909C3.21342 5.08141 3.07364 4.98757 2.96108 4.91219C2.74868 4.76911 2.51449 4.64912 2.30027 4.50605C2.02796 4.32452 1.7974 4.10607 1.95171 3.78608C2.1042 3.46763 2.43461 3.43225 2.78862 3.48455C2.93748 3.50609 3.08272 3.54301 3.23158 3.56455C3.44035 3.59686 3.70359 3.64916 3.81614 3.48148C3.95412 3.27533 3.64549 3.19841 3.52931 3.06457C3.26789 2.76612 2.8104 2.48767 3.06638 2.06462C3.32417 1.63848 3.81977 1.91539 4.21553 1.90924C4.44064 1.90616 4.73292 2.08769 4.87271 1.85078C5.00524 1.62617 4.69298 1.50618 4.55501 1.3508C4.37529 1.14773 4.13929 0.966201 4.10479 0.696981C4.07938 0.49699 4.01039 0.270846 4.20827 0.11393C4.40434 -0.0429867 4.67847 -0.0199108 4.88905 0.0754697C6.15621 0.646214 7.56679 1.03389 8.45634 2.09231C8.65241 2.3246 8.93379 2.52767 8.73046 2.83535C8.51262 3.16918 8.15498 3.0015 7.83547 2.96611C7.42518 2.9215 7.0621 2.67228 6.55016 2.75843C6.82065 3.28149 7.50325 3.38456 7.84818 3.77993C7.97162 3.92146 8.20036 4.05068 8.10596 4.23683C7.99522 4.45682 7.73562 4.4522 7.47783 4.40298C7.12564 4.33375 6.768 4.28452 6.41218 4.2276C6.23427 4.19837 6.00553 4.15068 5.91657 4.29837C5.78405 4.51836 6.05818 4.60297 6.21793 4.69835C6.48843 4.85988 6.78434 4.99064 7.05665 5.15217C7.20733 5.24294 7.31081 5.37986 7.25635 5.55062C7.18736 5.77061 6.98041 5.79676 6.7553 5.78138C6.15803 5.7383 5.56257 5.69523 4.90357 5.646C5.01613 6.18598 5.63337 6.15829 5.95107 6.41674C6.18344 6.6075 6.63367 6.74595 6.52111 7.04132C6.37769 7.41515 5.89842 7.22132 5.55894 7.23209C5.4137 7.2367 5.26484 7.1567 5.11779 7.15517C4.86363 7.15209 4.51144 7.04132 4.4243 7.34439C4.3535 7.58899 4.66938 7.65822 4.87816 7.7536C4.90539 7.76591 4.93444 7.7736 4.95985 7.78745C5.3429 8.01205 6.13624 8.08282 6.05092 8.44126C5.94562 8.8874 5.18315 8.71202 4.70388 8.79202C4.42249 8.83971 4.10479 8.74741 3.72356 9.03508L3.72718 9.04124Z" fill="#3048EA"/>
</svg>
