<svg width="36" height="36" viewBox="0 0 36 36" fill="none" xmlns="http://www.w3.org/2000/svg">
<path d="M2 15.3701C2 15.3701 4.34031 16.5183 5.94521 16.4222C7.2586 16.3435 7.785 15.3701 9.10137 15.3701C10.4177 15.3701 12.2575 16.4222 12.2575 16.4222C12.2575 16.4222 9.89041 23.4359 17.7808 24.1372" stroke="currentColor" stroke-width="2" stroke-linecap="round" stroke-linejoin="round"/>
<path d="M34 15.3701C34 15.3701 31.6597 16.5183 30.0548 16.4222C28.7414 16.3435 28.215 15.3701 26.8986 15.3701C25.5823 15.3701 23.7425 16.4222 23.7425 16.4222C23.7425 16.4222 26.1096 23.4359 18.2192 24.1372" stroke="currentColor" stroke-width="2" stroke-linecap="round" stroke-linejoin="round"/>
<path d="M21.2261 17.2486C21.2261 18.6133 20.8582 19.5459 20.3282 20.1317C19.8017 20.7136 19.0675 21.0069 18.2193 21.0069C17.371 21.0069 16.6368 20.7136 16.1103 20.1317C15.5803 19.5459 15.2124 18.6133 15.2124 17.2486C15.2124 15.9666 16.0016 14.5134 16.8698 13.3226C17.2947 12.7399 17.7206 12.2439 18.0406 11.8934C18.1048 11.823 18.1647 11.7586 18.2193 11.7007C18.2738 11.7586 18.3337 11.823 18.3979 11.8934C18.7179 12.2439 19.1438 12.7399 19.5687 13.3226C20.4369 14.5134 21.2261 15.9666 21.2261 17.2486Z" fill="currentColor" stroke="currentColor"/>
<circle cx="5.72583" cy="19.7537" r="0.876712" fill="currentColor"/>
<circle cx="8.3562" cy="24.1375" r="0.876712" fill="currentColor"/>
<circle cx="3.09595" cy="23.2605" r="0.876712" fill="currentColor"/>
<circle cx="0.876712" cy="0.876712" r="0.876712" transform="matrix(-1 0 0 1 31.1509 18.877)" fill="currentColor"/>
<circle cx="0.876712" cy="0.876712" r="0.876712" transform="matrix(-1 0 0 1 28.5205 23.2607)" fill="currentColor"/>
<circle cx="0.876712" cy="0.876712" r="0.876712" transform="matrix(-1 0 0 1 33.7808 22.3838)" fill="currentColor"/>
</svg>
