<svg width="36" height="36" viewBox="0 0 36 36" fill="none" xmlns="http://www.w3.org/2000/svg">
<path d="M32.569 19C32.569 27.8367 27.4282 35 18.2845 35C9.14083 35 4 27.8367 4 19C4 10.1633 10.395 3 18.2845 3C26.174 3 32.569 10.1633 32.569 19Z"  stroke="currentColor" stroke-miterlimit="10"/>
<path d="M15.396 25.0779C15.9553 25.2911 17.1666 25.723 18.2853 25.7026C20.0511 25.6703 21.0206 24.7861 21.5784 24.4297" stroke="currentColor" stroke-miterlimit="10" stroke-linecap="round"/>
<circle cx="12" cy="16" r="3.5"  stroke="currentColor"/>
<circle cx="12.0002" cy="14.1814" r="0.727273" fill="currentColor"/>
<circle cx="12.0002" cy="17.8171" r="0.727273" fill="currentColor"/>
<circle cx="13.8181" cy="15.9997" r="0.727273" transform="rotate(90 13.8181 15.9997)" fill="currentColor"/>
<circle cx="10.1819" cy="15.9997" r="0.727273" transform="rotate(90 10.1819 15.9997)" fill="currentColor"/>
<circle cx="23.6362" cy="16" r="3.5" stroke="currentColor"/>
<circle cx="23.6355" cy="14.1814" r="0.727273" fill="currentColor"/>
<circle cx="23.6355" cy="17.8171" r="0.727273" fill="currentColor"/>
<circle cx="25.4539" cy="15.9997" r="0.727273" transform="rotate(90 25.4539 15.9997)" fill="currentColor"/>
<circle cx="21.8181" cy="15.9997" r="0.727273" transform="rotate(90 21.8181 15.9997)" fill="currentColor"/>
<path fill-rule="evenodd" clip-rule="evenodd" d="M28.398 21.5724C28.6179 21.4387 28.9037 21.509 29.0364 21.7294C29.272 22.1205 29.7712 22.4379 30.3692 22.5809C30.9689 22.7243 31.5506 22.6644 31.9125 22.4443C32.1323 22.3107 32.4182 22.381 32.5509 22.6014C32.6836 22.8218 32.6131 23.1088 32.3932 23.2425C31.7538 23.6313 30.8989 23.6676 30.1519 23.489C29.4032 23.3099 28.6459 22.8869 28.2404 22.2135C28.1076 21.9931 28.1782 21.7061 28.398 21.5724Z" fill="currentColor"/>
<path fill-rule="evenodd" clip-rule="evenodd" d="M27.1515 25.2672C27.2351 25.0745 27.4589 24.9867 27.6513 25.0712C27.9927 25.221 28.4752 25.1975 28.9415 25.0112C29.4091 24.8243 29.7689 24.5103 29.9066 24.1929C29.9903 24.0002 30.2141 23.9124 30.4065 23.9969C30.5988 24.0813 30.687 24.3061 30.6033 24.4988C30.36 25.0595 29.8068 25.4865 29.2244 25.7193C28.6406 25.9526 27.9361 26.0272 27.3484 25.7692C27.156 25.6847 27.0678 25.46 27.1515 25.2672Z" fill="currentColor"/>
<path fill-rule="evenodd" clip-rule="evenodd" d="M3.15147 25.2672C3.23513 25.0745 3.45891 24.9867 3.6513 25.0712C3.99268 25.221 4.47523 25.1975 4.94148 25.0112C5.40909 24.8243 5.76891 24.5103 5.90663 24.1929C5.99028 24.0002 6.21406 23.9124 6.40645 23.9969C6.59885 24.0813 6.68699 24.3061 6.60334 24.4988C6.36001 25.0595 5.80684 25.4865 5.22442 25.7193C4.64064 25.9526 3.93614 26.0272 3.34835 25.7692C3.15596 25.6847 3.06782 25.46 3.15147 25.2672Z" fill="currentColor"/>
<path fill-rule="evenodd" clip-rule="evenodd" d="M7.37077 25.5544C7.57554 25.5073 7.77902 25.6352 7.82525 25.8402C7.9073 26.2039 8.21268 26.5783 8.63942 26.8429C9.0674 27.1082 9.53374 27.2113 9.87085 27.1338C10.0756 27.0867 10.2791 27.2146 10.3253 27.4196C10.3716 27.6246 10.2431 27.8289 10.0383 27.876C9.44268 28.013 8.77063 27.8214 8.23757 27.4909C7.70327 27.1596 7.22498 26.637 7.08372 26.0108C7.03748 25.8058 7.166 25.6015 7.37077 25.5544Z" fill="currentColor"/>
</svg>
