<svg width="36" height="36" viewBox="0 0 36 36" fill="none" xmlns="http://www.w3.org/2000/svg">
<path d="M32.569 19C32.569 27.8367 27.4282 35 18.2845 35C9.14083 35 4 27.8367 4 19C4 10.1633 10.395 3 18.2845 3C26.174 3 32.569 10.1633 32.569 19Z" stroke="currentColor" stroke-miterlimit="10"/>
<path fill-rule="evenodd" clip-rule="evenodd" d="M27.1515 25.2672C27.2351 25.0745 27.4589 24.9867 27.6513 25.0712C27.9927 25.221 28.4752 25.1975 28.9415 25.0112C29.4091 24.8243 29.7689 24.5103 29.9066 24.1929C29.9903 24.0002 30.2141 23.9124 30.4065 23.9969C30.5988 24.0813 30.687 24.3061 30.6033 24.4988C30.36 25.0595 29.8068 25.4865 29.2244 25.7193C28.6406 25.9526 27.9361 26.0272 27.3484 25.7692C27.156 25.6847 27.0678 25.46 27.1515 25.2672Z" fill="currentColor"/>
<path fill-rule="evenodd" clip-rule="evenodd" d="M3.15147 25.2672C3.23513 25.0745 3.45891 24.9867 3.6513 25.0712C3.99268 25.221 4.47523 25.1975 4.94148 25.0112C5.40909 24.8243 5.76891 24.5103 5.90663 24.1929C5.99028 24.0002 6.21406 23.9124 6.40645 23.9969C6.59885 24.0813 6.68699 24.3061 6.60334 24.4988C6.36001 25.0595 5.80684 25.4865 5.22442 25.7193C4.64064 25.9526 3.93614 26.0272 3.34835 25.7692C3.15596 25.6847 3.06782 25.46 3.15147 25.2672Z" fill="currentColor"/>
<path fill-rule="evenodd" clip-rule="evenodd" d="M7.37077 25.5544C7.57554 25.5073 7.77902 25.6352 7.82525 25.8402C7.9073 26.2039 8.21268 26.5783 8.63942 26.8429C9.0674 27.1082 9.53374 27.2113 9.87085 27.1338C10.0756 27.0867 10.2791 27.2146 10.3253 27.4196C10.3716 27.6246 10.2431 27.8289 10.0383 27.876C9.44268 28.013 8.77063 27.8214 8.23757 27.4909C7.70327 27.1596 7.22498 26.637 7.08372 26.0108C7.03748 25.8058 7.166 25.6015 7.37077 25.5544Z" fill="currentColor"/>
<path d="M9.49673 19.7744C10.9302 19.7764 12.0039 20.8276 12 22.2255C11.9961 23.6139 10.891 24.7838 9.51898 24.7664C8.12341 24.7483 6.99543 23.7199 7.00001 22.2194C7.00459 20.7271 8.14369 19.6604 9.49739 19.775L9.49673 19.7744Z" fill="#FFFEFE" />
<path d="M27.4967 20.0078C28.9302 20.0098 30.0039 21.061 30 22.4589C29.9961 23.8473 28.891 25.0172 27.519 24.9998C26.1234 24.9817 24.9954 23.9533 25 22.4528C25.0046 20.9604 26.1437 19.8938 27.4974 20.0084L27.4967 20.0078Z" fill="#FFFEFE" />
<path d="M16 23.2756C16.5428 23.443 17.7184 23.7821 18.8041 23.7661C20.5178 23.7407 21.4587 23.0464 22 22.7666" stroke="currentColor" stroke-miterlimit="10" stroke-linecap="round"/>
<path d="M13.7861 19.1955C14.4506 19.1659 14.9466 18.231 14.8942 17.1073C14.8417 15.9836 14.2605 15.0966 13.5961 15.1262C12.9317 15.1557 12.4356 16.0906 12.4881 17.2144C12.5406 18.3381 13.1217 19.2251 13.7861 19.1955Z" fill="currentColor"/>
<path d="M22.793 18.7951C23.4574 18.7655 23.9535 17.8306 23.901 16.7069C23.8485 15.5832 23.2674 14.6962 22.6029 14.7258C21.9385 14.7553 21.4424 15.6903 21.4949 16.814C21.5474 17.9377 22.1286 18.8247 22.793 18.7951Z" fill="currentColor"/>
<path d="M12.1942 13.1729C13.0656 12.7237 13.6314 12.0998 13.458 11.7794C13.2847 11.459 12.4378 11.5635 11.5664 12.0127C10.6951 12.462 10.1293 13.0859 10.3027 13.4063C10.476 13.7267 11.3229 13.6222 12.1942 13.1729Z" fill="currentColor"/>
<path d="M25.711 13.1513C25.8705 12.8526 25.2915 12.25 24.4177 11.8053C23.5439 11.3607 22.7062 11.2424 22.5467 11.5411C22.3871 11.8399 22.9662 12.4425 23.84 12.8871C24.7138 13.3317 25.5515 13.45 25.711 13.1513Z" fill="currentColor"/>
<path fill-rule="evenodd" clip-rule="evenodd" d="M28.398 21.5724C28.6179 21.4387 28.9037 21.509 29.0364 21.7294C29.272 22.1205 29.7712 22.4379 30.3692 22.5809C30.9689 22.7243 31.5506 22.6644 31.9125 22.4443C32.1323 22.3107 32.4182 22.381 32.5509 22.6014C32.6836 22.8218 32.6131 23.1088 32.3932 23.2425C31.7538 23.6313 30.8989 23.6676 30.1519 23.489C29.4032 23.3099 28.6459 22.8869 28.2404 22.2135C28.1076 21.9931 28.1782 21.7061 28.398 21.5724Z" fill="currentColor"/>
</svg>
