<svg width="36" height="36" viewBox="0 0 36 36" fill="none" xmlns="http://www.w3.org/2000/svg">
<path d="M12.2302 16.0645H11.6021V21.4756H12.2302V16.0645Z" fill="#3048EA"/>
<path d="M14.3444 22.8682H9.48828V25.3682H14.3444V22.8682Z" stroke="#3048EA" stroke-miterlimit="10"/>
<path d="M8.93427 25.2168H14.8987V31.6989C14.8987 32.677 14.0728 33.4994 13.0202 33.4994H10.8128C9.76014 33.4994 8.93427 32.677 8.93427 31.6989V25.2168Z" stroke="#3048EA" stroke-miterlimit="10"/>
<path d="M12.2302 2H11.6021V22.8682H12.2302V2Z" fill="#3048EA"/>
<path d="M13.3457 9.80578V9.19824H10.4859V9.80578H13.3457Z" fill="#3048EA"/>
<path d="M13.3462 8.25988V7.65234H10.4864V8.25988H13.3462Z" fill="#3048EA"/>
<path d="M13.3457 6.71399V6.10645H10.4859V6.71399H13.3457Z" fill="#3048EA"/>
<path d="M13.3457 5.16809V4.56055H10.4859V5.16809H13.3457Z" fill="#3048EA"/>
<path d="M13.3457 3.62121V3.01367H10.4859V3.62121H13.3457Z" fill="#3048EA"/>
<mask id="path-10-inside-1_700_11245" fill="white">
<path d="M26.15 10.1406H19.3838L19.314 20.7419L20.4494 34.0003H25.4209"/>
</mask>
<path d="M19.3838 10.1406V9.14062H18.3904L18.3839 10.134L19.3838 10.1406ZM19.314 20.7419L18.314 20.7354L18.3137 20.7814L18.3176 20.8273L19.314 20.7419ZM20.4494 34.0003L19.4531 34.0856L19.5314 35.0003H20.4494V34.0003ZM26.15 9.14062H19.3838V11.1406H26.15V9.14062ZM18.3839 10.134L18.314 20.7354L20.3139 20.7485L20.3838 10.1472L18.3839 10.134ZM18.3176 20.8273L19.4531 34.0856L21.4458 33.915L20.3103 20.6566L18.3176 20.8273ZM20.4494 35.0003H25.4209V33.0003H20.4494V35.0003Z" fill="#3048EA" mask="url(#path-10-inside-1_700_11245)"/>
<mask id="path-12-inside-2_700_11245" fill="white">
<path d="M20.1049 10.1406H26.871L26.9409 20.7419L25.8055 34.0003H20.834"/>
</mask>
<path d="M26.871 10.1406V9.14062H27.8645L27.871 10.134L26.871 10.1406ZM26.9409 20.7419L27.9409 20.7354L27.9412 20.7814L27.9373 20.8273L26.9409 20.7419ZM25.8055 34.0003L26.8018 34.0856L26.7235 35.0003H25.8055V34.0003ZM20.1049 9.14062H26.871V11.1406H20.1049V9.14062ZM27.871 10.134L27.9409 20.7354L25.9409 20.7485L25.8711 10.1472L27.871 10.134ZM27.9373 20.8273L26.8018 34.0856L24.8091 33.915L25.9446 20.6566L27.9373 20.8273ZM25.8055 35.0003H20.834V33.0003H25.8055V35.0003Z" fill="#3048EA" mask="url(#path-12-inside-2_700_11245)"/>
<path d="M25.5605 8.59473H20.603V10.5947H25.5605V8.59473Z" stroke="#3048EA" stroke-miterlimit="10"/>
<path d="M20.2954 29.457H25.6753" stroke="#3048EA" stroke-miterlimit="10"/>
</svg>
