<svg width="32" height="17" viewBox="0 0 32 17" fill="none" xmlns="http://www.w3.org/2000/svg">
<path d="M6.03137 9.08001C6.04888 9.04713 6.06522 9.01322 6.08273 8.98034C6.22047 8.77278 6.35821 8.56523 6.49478 8.35665C6.62319 8.11416 6.75159 7.87166 6.87999 7.62917C6.90333 7.59937 6.92552 7.57061 6.94886 7.54081C7.00606 7.40518 7.06325 7.26955 7.12162 7.13391C7.1473 7.09795 7.17298 7.06096 7.19866 7.025C7.29204 6.79176 7.38542 6.55954 7.47881 6.3263C7.50565 6.28417 7.5325 6.24204 7.55935 6.19991C7.56168 5.89269 7.56402 5.58444 7.56635 5.27722C7.62355 4.87238 7.68075 4.46652 7.73678 4.06168C7.68425 4.0586 7.63172 4.05654 7.5792 4.05346C7.40644 4.37096 7.23368 4.68949 7.05975 5.00698C7.01773 4.98849 6.97687 4.96999 6.93485 4.9515C6.95119 4.82923 6.96754 4.70798 6.98388 4.58571C6.95703 4.57543 6.93018 4.56618 6.9045 4.55591L6.31152 5.48477C6.2695 5.52074 6.22748 5.55567 6.18545 5.59163C5.99402 5.7735 5.80259 5.95434 5.72321 6.03038C5.52594 5.9492 5.44423 5.91632 5.36252 5.88242C5.2061 6.01907 5.04968 6.15573 4.89327 6.29136C4.82556 6.34377 4.75786 6.3972 4.69016 6.4496C4.61779 6.49481 4.54425 6.54002 4.47188 6.5842C4.43686 6.55954 4.40067 6.53591 4.36565 6.51125C4.66098 6.13313 4.95513 5.75603 5.25046 5.37791C5.27847 5.344 5.30766 5.30907 5.33567 5.27516C5.46524 5.06966 5.59597 4.86519 5.72554 4.65969L5.83877 4.45316C5.89363 4.0103 5.94849 3.56642 6.02087 2.97972C5.43372 3.44518 4.99249 3.79556 4.55125 4.14594C4.5104 4.21272 4.46954 4.27951 4.42869 4.34733C4.24075 4.53741 4.05282 4.7275 3.86489 4.91759C3.78785 5.0039 3.71197 5.08918 3.63493 5.17549C3.59174 5.21454 3.54855 5.25358 3.50537 5.29263C3.47268 5.32243 3.43883 5.35222 3.40615 5.38202L3.39097 5.39538C3.35712 5.42518 3.3221 5.45395 3.28825 5.48374C3.24389 5.51971 3.19837 5.55567 3.15401 5.59266C3.11549 5.62348 3.0758 5.65431 3.03728 5.68514C2.72445 5.90194 2.41162 6.11977 2.09878 6.33657C2.06727 6.36021 2.03575 6.38486 2.00423 6.4085C1.65521 6.58112 1.30503 6.75374 0.956008 6.92739C0.911651 6.89759 0.867295 6.86882 0.821771 6.83902C1.29219 6.48351 1.76261 6.12799 2.23186 5.77247C2.19333 5.72932 2.15365 5.68616 2.11513 5.64301C1.51397 6.02935 0.913988 6.41569 0.312836 6.80203C0.208947 6.83697 0.105056 6.8719 0 6.90684C0 6.80922 0 6.71059 0 6.61297C1.0097 5.64815 2.01941 4.68332 3.02911 3.71849C3.05829 3.68972 3.08631 3.66095 3.11549 3.63218L3.73415 2.71668C3.75983 2.64578 3.78551 2.57488 3.81119 2.50398C3.83921 2.46699 3.86722 2.43103 3.89524 2.39404C4.03765 2.14539 4.18122 1.89776 4.32363 1.6491C4.28044 1.62547 4.23725 1.60184 4.19406 1.57821C3.95594 1.80015 3.71781 2.02106 3.47969 2.243C3.24156 2.41459 3.00226 2.58619 2.76414 2.75675L2.74079 2.7773C2.48749 2.82868 2.23536 2.88108 1.98205 2.93246C1.78828 2.96123 1.59335 2.99102 1.39958 3.01979C1.35989 3.02493 1.31904 3.0311 1.27935 3.03623C1.22799 3.05884 1.1778 3.08042 1.12643 3.10302H0.5603C1.75093 2.58413 2.86336 2.056 3.59291 1.06754C3.44116 0.912384 3.2579 0.790111 3.17969 0.627766C3.09331 0.447953 3.10265 0.23115 3.06997 0.0307868C3.28241 0.0277043 3.53455 -0.0401122 3.7003 0.0359231C4.19523 0.263001 4.67499 0.523986 5.12789 0.811687C7.04925 2.03236 9.05815 3.0948 11.3834 3.61472C11.7172 3.68972 12.0452 3.78836 12.3756 3.8757C12.4433 3.89831 12.5121 3.92194 12.5799 3.94455C12.6686 3.95996 12.7584 3.97537 12.8472 3.99078C12.9149 4.00928 12.9826 4.02777 13.0491 4.04627C14.0506 4.14696 15.051 4.3052 16.056 4.32883C16.886 4.34835 17.7206 4.20964 18.554 4.14183C18.6311 4.12333 18.7081 4.10381 18.784 4.08531C18.9065 4.07196 19.0279 4.05757 19.1505 4.04421C19.224 4.01955 19.2976 3.99592 19.3711 3.97126C19.4528 3.96098 19.5345 3.95071 19.6163 3.94044C19.6898 3.91578 19.7633 3.89214 19.838 3.86748C19.9209 3.85824 20.005 3.84796 20.0878 3.83871L20.3061 3.76062C21.2481 3.47909 22.1901 3.19652 23.1321 2.91499C23.201 2.88827 23.271 2.86156 23.3399 2.83484C24.729 2.06113 26.1157 1.2864 27.5095 0.518851C27.6682 0.431513 27.8608 0.392467 28.0371 0.331845C28.0861 0.400687 28.1339 0.469531 28.183 0.538374C27.6145 1.00383 27.0449 1.46929 26.4507 1.9553C26.599 1.96866 26.739 1.98201 26.8803 1.99434C26.9457 2.01592 27.011 2.0375 27.0764 2.05805C27.1149 2.07346 27.1534 2.0899 27.1919 2.10532C27.1488 2.13511 27.1044 2.16491 27.0612 2.19573H26.3211C26.32 2.21731 26.3188 2.23992 26.3176 2.2615C26.5324 2.30362 26.7484 2.34472 26.9632 2.38685C27.548 2.62831 28.1316 2.87081 28.7164 3.11227C28.7316 3.14104 28.7421 3.16981 28.7491 3.20063C28.6872 3.20988 28.6265 3.2181 28.5647 3.22735C27.9927 3.06295 27.4219 2.89752 26.8499 2.73312C26.8418 2.76292 26.8336 2.79271 26.8254 2.82251C27.6122 3.12152 28.3978 3.41949 29.1845 3.71849C29.251 3.75035 29.3176 3.7822 29.3841 3.81405C29.5078 3.89214 29.6304 3.97023 29.7541 4.04832C29.9899 4.18395 30.2246 4.31856 30.4603 4.45419C30.5806 4.55488 30.6996 4.65455 30.8199 4.75524C30.8957 4.78915 30.9716 4.82306 31.0463 4.858C31.1129 4.92478 31.1794 4.99157 31.2459 5.05836L31.63 5.27105C31.7128 5.33887 31.7957 5.40566 31.8786 5.47347C31.9148 5.50224 31.951 5.53204 31.9872 5.56081L32 5.57314C31.9942 5.64609 31.9895 5.72007 31.9837 5.79302C31.8984 5.75809 31.8121 5.72213 31.7269 5.68719L31.6335 5.6204C31.5121 5.53923 31.3907 5.45806 31.2681 5.37689C31.2343 5.35325 31.1992 5.32962 31.1654 5.30599C30.66 5.01931 30.1545 4.73367 29.6503 4.44699C29.3666 4.32164 29.0923 4.16752 28.7923 4.08634C28.6814 4.05654 28.5121 4.19834 28.3686 4.26204C27.9355 4.10484 27.5024 3.94763 27.0682 3.79042C26.9958 3.76884 26.9235 3.74829 26.8511 3.72672C26.1729 3.60855 25.4935 3.49039 24.7978 3.36914C25.4725 3.7411 26.1075 4.09148 26.7425 4.44289C26.683 4.45008 26.6223 4.45727 26.5628 4.46343C26.0375 4.32472 25.5122 4.18704 24.9858 4.04832C24.9122 3.99181 24.8387 3.93633 24.7652 3.87981C24.7488 3.92708 24.7313 3.97332 24.715 4.02058C24.8072 4.0288 24.8994 4.03599 24.9904 4.04421C25.8869 4.48501 26.7834 4.92581 27.6799 5.36661C27.7779 5.46936 27.8771 5.57108 27.9752 5.67383C27.9519 5.69952 27.9273 5.72521 27.904 5.7509C27.2748 5.48785 26.6457 5.22584 26.0177 4.9628C25.1177 4.6864 24.2177 4.41103 23.3177 4.13463C23.306 4.14697 23.2815 4.16649 23.285 4.17162C23.3014 4.19628 23.3247 4.21683 23.3457 4.23944C24.1593 4.62167 24.9741 5.0039 25.7877 5.38613C26.7566 6.20711 27.7254 7.02808 28.6931 7.84906C28.4631 7.84906 28.2332 7.84906 27.9857 7.84906C28.4491 8.35459 28.9265 8.87451 29.404 9.39545C29.4973 9.52492 29.5896 9.65438 29.6829 9.78282C29.7892 9.93078 29.8954 10.0798 30.0028 10.2277L30.1592 10.3089C30.1965 10.4507 30.2339 10.5935 30.2712 10.7363C30.2537 10.8052 30.2362 10.873 30.2199 10.9418C30.1323 10.8144 30.046 10.686 29.9596 10.5586C29.9748 10.5298 29.9899 10.5021 30.0039 10.4733C29.9829 10.4959 29.9607 10.5185 29.9397 10.5411C29.2977 9.93078 28.6592 9.31839 28.0114 8.71422C27.8678 8.57961 27.6869 8.47583 27.5223 8.35767C27.3355 8.21793 27.1488 8.07922 26.962 7.93948L26.0317 7.32298C25.8741 7.2305 25.7165 7.13803 25.5589 7.04555C25.2029 6.86574 24.8469 6.68592 24.4908 6.50611L24.3975 6.44138C23.8955 6.21944 23.3936 5.9975 22.8928 5.77555C22.4924 5.60602 22.0921 5.43545 21.6929 5.26591C21.6789 5.27722 21.652 5.29366 21.6543 5.29879C21.666 5.32551 21.6859 5.34812 21.7022 5.37278C22.0512 5.59369 22.3991 5.81357 22.7481 6.03449C23.3878 6.67051 24.0274 7.30654 24.6683 7.94256C24.6951 7.97133 24.722 8.00113 24.7488 8.0299L25.1025 8.6577C25.0138 8.6577 24.9251 8.65976 24.8364 8.66079C24.4943 8.35254 24.1535 8.04326 23.8115 7.735C23.7718 7.70212 23.7333 7.66822 23.6936 7.63534C23.6504 7.60143 23.6072 7.56752 23.564 7.53259C23.5302 7.5069 23.4963 7.48121 23.4636 7.45655C23.4286 7.43497 23.3948 7.41237 23.3597 7.39079C23.1473 7.22331 22.9349 7.05685 22.7212 6.88937L22.615 6.96746C22.7376 7.15549 22.8601 7.34455 22.9839 7.53259C23.2605 8.26006 23.5372 8.98753 23.8138 9.71501C23.6901 9.63692 23.5138 9.58246 23.452 9.47662C23.264 9.15502 23.1204 8.81286 22.9605 8.47892C22.936 8.48919 22.9127 8.49844 22.8882 8.50871C23.1555 9.34921 23.4228 10.1897 23.6901 11.0302C23.6784 11.0641 23.6854 11.096 23.7099 11.1237C23.7064 11.2234 23.7029 11.323 23.6994 11.4227L23.7601 11.6303C23.7823 11.6673 23.8056 11.7053 23.8278 11.7423C23.8243 11.9786 23.8197 12.2139 23.8162 12.4502C23.8418 12.4872 23.8675 12.5232 23.8944 12.5602V14.4425C23.871 14.4477 23.8488 14.4518 23.8255 14.4569C23.7718 14.1672 23.7181 13.8784 23.6644 13.5887C23.6691 13.5363 23.6749 13.4839 23.6796 13.4315C23.6597 13.3832 23.6411 13.3349 23.6212 13.2866C23.5593 13.0451 23.4963 12.8037 23.4344 12.5622C23.4064 12.4934 23.3773 12.4235 23.3492 12.3547C23.0866 10.9778 22.5578 9.68212 21.8061 8.45529C21.736 8.35254 21.666 8.24876 21.5948 8.14601C21.5049 8.00832 21.4162 7.87064 21.3263 7.73295C21.2995 7.70007 21.2726 7.66719 21.2446 7.63534C21.1641 7.53259 21.0835 7.42984 21.003 7.32709C20.9119 7.20687 20.8209 7.08665 20.7298 6.96541C20.703 6.97465 20.6762 6.9839 20.6493 6.99315C20.6902 7.10412 20.7322 7.21406 20.773 7.32503C20.7672 7.42675 20.7625 7.52951 20.7567 7.63123C20.5804 7.59732 20.4042 7.56239 20.2279 7.52848C20.159 7.35072 20.089 7.17399 20.0201 6.99623C19.9804 7.00959 19.9408 7.02397 19.8999 7.03733C19.9664 7.30448 20.0318 7.5706 20.0983 7.83776L20.0808 8.13573C20.0727 8.25595 20.0657 8.37617 20.0575 8.49639C20.0633 8.82416 20.0692 9.15296 20.0762 9.48073C20.0808 9.65027 20.0867 9.81878 20.0913 9.98832C20.0913 10.6778 20.0925 11.3672 20.0937 12.0567C20.0808 12.1574 20.0692 12.2581 20.0563 12.3577H19.8649C19.8089 11.6036 19.7517 10.8494 19.6956 10.0952C19.6665 9.99448 19.6373 9.89482 19.6092 9.79412C19.5964 9.68829 19.5847 9.58349 19.5719 9.47765C19.5847 9.44888 19.5964 9.42011 19.6058 9.39031C19.5882 9.35435 19.5696 9.31942 19.5521 9.28345C19.5077 9.17556 19.4633 9.0687 19.419 8.96082C19.4225 8.89711 19.426 8.83238 19.4295 8.76867C19.3653 8.56214 19.3011 8.35562 19.2369 8.14909C19.1645 8.12032 19.0921 8.09052 19.0186 8.06175L19.0361 8.02784C19.0011 7.96414 18.9661 7.90043 18.9322 7.83776C18.9147 7.80282 18.8972 7.76891 18.8785 7.73398C18.8493 7.66719 18.8213 7.6004 18.7921 7.53464C18.7478 7.39696 18.7046 7.25927 18.6602 7.12159C18.5494 6.90684 18.4385 6.69209 18.3276 6.47734C18.3322 6.09922 18.1046 5.93893 17.6319 5.93071C17.7217 6.11463 17.7941 6.26362 17.8653 6.41158C17.9447 6.57906 18.0241 6.74655 18.1035 6.91403C18.156 7.01678 18.2097 7.12056 18.2622 7.22331L18.2704 7.24592C18.2587 7.29421 18.2482 7.3425 18.2377 7.39079C18.268 7.50382 18.2996 7.61581 18.3299 7.72884C18.3381 7.79974 18.3451 7.87064 18.3533 7.94153C18.3824 8.04531 18.4128 8.14909 18.442 8.25287C18.477 9.27729 18.5108 10.3017 18.5459 11.3261C18.4852 11.3241 18.4245 11.322 18.3626 11.3189C18.3462 10.9829 18.3299 10.6459 18.3147 10.3099C18.2435 9.77768 18.1712 9.24544 18.1128 8.80978V12.3649C18.0743 12.74 18.0357 13.114 17.9972 13.489C17.9027 13.9719 17.8093 14.4538 17.7147 14.9368C17.6867 14.9296 17.6587 14.9224 17.6295 14.9152V13.19C17.6587 13.153 17.6891 13.116 17.7183 13.0791L17.7229 12.8735C17.6902 12.0341 17.6587 11.1956 17.626 10.3562C17.556 10.3562 17.4871 10.3562 17.4171 10.3572V12.8735C17.2525 13.8312 17.0879 14.7888 16.9245 15.7465L16.8393 15.954C16.8229 16.0547 16.8066 16.1564 16.7903 16.2571C16.7716 16.2941 16.7517 16.3311 16.7331 16.3681L16.5241 17C16.4856 16.9918 16.4471 16.9846 16.4086 16.9764C16.4307 16.7832 16.4517 16.59 16.4739 16.3979C16.4973 16.3198 16.5194 16.2417 16.5428 16.1636C16.5942 15.5831 16.6455 15.0025 16.6969 14.422C16.7284 14.2483 16.7587 14.0747 16.7903 13.9C16.7074 12.3577 16.6257 10.8165 16.5428 9.27421C16.5159 9.20536 16.4891 9.13652 16.4611 9.06768C16.4132 8.8632 16.3654 8.65976 16.3175 8.45529C16.2883 8.38644 16.258 8.3176 16.2288 8.24773C16.2171 8.17889 16.2043 8.11004 16.1926 8.0412C16.1681 8.00113 16.1436 7.96106 16.1191 7.92098C16.0875 7.82131 16.0549 7.72062 16.0233 7.62095C15.9883 7.52334 15.9545 7.4247 15.9195 7.32709C15.8844 7.32811 15.8506 7.33017 15.8156 7.3312C15.8039 7.43189 15.7922 7.53156 15.7794 7.63225C15.784 8.00935 15.7887 8.38644 15.7946 8.76457C15.7969 8.86526 15.7992 8.96596 15.8004 9.06665C15.7455 9.37079 15.6907 9.67493 15.6358 9.97907C15.5856 9.66568 15.5366 9.3523 15.4712 8.94643C15.3265 9.53108 15.2051 10.0202 15.0837 10.5103C15.0078 10.6891 14.9308 10.8668 14.8549 11.0456C14.8234 11.021 14.7919 10.9973 14.7615 10.9727C14.8 10.7435 14.8385 10.5144 14.8771 10.2863L14.7545 10.2719C14.667 10.5565 14.5794 10.8411 14.4919 11.1258C14.4825 11.1586 14.4732 11.1926 14.4639 11.2254C14.3926 11.3981 14.3203 11.5707 14.2491 11.7433C14.1067 12.0217 13.9643 12.2992 13.823 12.5776C13.7868 12.5674 13.7518 12.5571 13.7156 12.5468C13.8172 12.1851 13.9187 11.8224 14.0203 11.4607C14.0425 11.4186 14.0646 11.3765 14.088 11.3343C14.102 11.2655 14.116 11.1967 14.13 11.1278C14.1685 10.9562 14.2071 10.7846 14.2444 10.613L14.2748 10.5832L14.2607 10.5463C14.3144 10.2781 14.5806 9.98113 14.1323 9.77768C14.1323 9.71398 14.13 9.64924 14.1288 9.58554C14.158 9.5167 14.1872 9.44785 14.2164 9.37799C14.2164 8.85293 14.2164 8.32787 14.2164 7.67644C14.144 7.8881 14.1102 7.98572 14.046 8.17478C13.9759 7.72781 13.9199 7.3723 13.865 7.01678C13.837 6.94691 13.809 6.87807 13.781 6.8082C13.7156 6.63044 13.6503 6.45268 13.5849 6.27389C13.5254 6.28931 13.467 6.30575 13.4075 6.32116C13.4448 6.48659 13.4822 6.65202 13.5195 6.81642C13.5312 6.84519 13.5324 6.87396 13.523 6.90376C13.5008 7.18118 13.4787 7.45861 13.4565 7.735C13.4565 7.83776 13.4553 7.94051 13.4541 8.04326C13.1542 10.3962 12.1526 12.5006 10.5067 14.3758C10.6632 14.0798 10.8184 13.7839 10.9748 13.489C11.0017 13.4551 11.0297 13.4212 11.0565 13.3863C11.0682 13.3513 11.0799 13.3174 11.0904 13.2825C11.8106 12.1522 12.267 10.9531 12.4094 9.63383C11.8398 10.8792 11.2912 12.0813 10.7414 13.2835V13.2846C10.7145 13.3174 10.6877 13.3513 10.6597 13.3842C10.6468 13.4161 10.6328 13.4479 10.62 13.4798C10.5908 13.5168 10.5604 13.5538 10.5313 13.5907C10.3667 13.8281 10.2009 14.0655 10.0363 14.3028C9.99781 14.3388 9.95929 14.3758 9.9196 14.4117H9.92077C9.84607 14.4117 9.77136 14.4107 9.69665 14.4107C10.1671 13.3986 10.6398 12.3875 11.1044 11.3744C11.1651 11.2419 11.1838 11.0939 11.2223 10.9531C11.2398 10.909 11.2585 10.8658 11.276 10.8216C11.297 10.6952 11.318 10.5689 11.339 10.4425C11.3635 10.3623 11.3892 10.2822 11.4137 10.2031C11.4651 9.90304 11.5176 9.60301 11.569 9.30195C11.5935 9.22591 11.618 9.14885 11.6437 9.07282C11.6834 8.52413 11.7219 7.97442 11.7616 7.42573C11.7359 7.38566 11.7091 7.34455 11.6834 7.30448C11.674 7.03733 11.6635 6.76915 11.6542 6.50098C11.611 6.27698 11.5678 6.05298 11.4943 5.67486C11.4219 6.05298 11.3787 6.27698 11.3355 6.50098C11.1383 6.94999 10.9421 7.39901 10.7449 7.84803C10.725 7.8768 10.7052 7.90454 10.6853 7.93331C10.5091 8.24156 10.3317 8.54981 10.1554 8.85807C10.0655 8.99575 9.97563 9.13344 9.88575 9.27215C9.74568 9.38826 9.6056 9.50437 9.46436 9.62047C9.22857 9.84858 8.99278 10.0757 8.75816 10.3038C8.64143 10.4373 8.5247 10.5709 8.40913 10.7035C8.37412 10.7425 8.3391 10.7816 8.30408 10.8206L8.29708 10.8298C8.26789 10.8617 8.23754 10.8925 8.20836 10.9244C8.18151 10.9439 8.1535 10.9624 8.12432 10.9799C8.09747 10.9552 8.06946 10.9305 8.04261 10.9059C8.04261 10.8761 8.03794 10.8473 8.03093 10.8175C8.07763 10.7425 8.12315 10.6675 8.16984 10.5935C8.19319 10.5668 8.21653 10.5391 8.23988 10.5123C8.29824 10.4127 8.35661 10.313 8.41497 10.2144C8.52703 10.0387 8.63792 9.86194 8.74998 9.68624C8.98578 9.20639 9.22157 8.72758 9.45736 8.24773C9.48071 8.20971 9.50522 8.17067 9.52856 8.13265C9.62311 7.82953 9.7165 7.52745 9.81105 7.22434C9.83206 7.19043 9.85307 7.15652 9.87525 7.12159C9.89276 7.01986 9.91144 6.91711 9.92894 6.81539C9.95346 6.74552 9.97914 6.67668 10.0036 6.60681L9.81338 4.85594C9.74801 4.82614 9.68381 4.79737 9.61845 4.76757C9.60911 4.83128 9.60093 4.89601 9.5916 4.95972C9.54607 5.05836 9.49938 5.15803 9.45386 5.25667C9.38032 5.36353 9.30678 5.47039 9.23324 5.57725C9.20172 5.59882 9.19589 5.62451 9.2134 5.65534C9.1562 5.80124 9.10017 5.94715 9.04297 6.09306C8.54571 7.62095 7.49632 8.86937 6.42475 10.1065C6.39206 10.1394 6.35938 10.1722 6.3267 10.2051L6.31502 10.2164C6.28467 10.2442 6.25549 10.2729 6.22514 10.3007C6.13409 10.3993 6.04305 10.498 5.952 10.5966C5.87379 10.6387 5.79441 10.6809 5.7162 10.724C5.91931 10.3603 6.12125 9.99654 6.32436 9.63383C6.29518 9.61534 6.266 9.59787 6.23565 9.57937C5.78974 10.051 5.34384 10.5226 4.89794 10.9942C4.59094 11.2511 4.28395 11.507 3.97578 11.7638C3.93376 11.7587 3.89174 11.7525 3.85088 11.7474C3.96878 11.5707 4.08667 11.3929 4.20457 11.2162C4.23609 11.1843 4.2676 11.1525 4.30029 11.1196L4.31663 11.097C4.34231 11.0734 4.36916 11.0497 4.39484 11.0261C4.91661 10.4096 5.43839 9.7931 5.96017 9.17557C5.98702 9.14063 6.01386 9.10672 6.04071 9.07179L6.03137 9.08001ZM22.2975 7.42573C22.2777 7.4134 22.259 7.40107 22.2391 7.38771C22.2532 7.40518 22.2672 7.42264 22.2812 7.44011C22.301 7.48429 22.3197 7.5295 22.3395 7.57369C22.3535 7.56341 22.3816 7.54697 22.3804 7.54389C22.3547 7.50382 22.3255 7.46477 22.2975 7.42573ZM24.6216 5.59061C24.6403 5.59677 24.6601 5.60396 24.6788 5.61013C24.6636 5.60088 24.6473 5.59061 24.6321 5.58136C24.5924 5.5382 24.5539 5.49402 24.5142 5.45087C24.5002 5.4632 24.4873 5.4745 24.4733 5.48683C24.5224 5.52176 24.5726 5.55567 24.6216 5.59061ZM27.5316 7.44731C27.6028 7.49663 27.6752 7.54697 27.7464 7.59629C27.7663 7.57574 27.7861 7.55519 27.8059 7.53464C27.7487 7.48121 27.6904 7.42675 27.6332 7.37332C27.5503 7.30551 27.4663 7.2377 27.3834 7.16885C27.2667 7.11028 27.1499 7.05171 27.0332 6.99315L26.9795 7.07535C27.0834 7.13186 27.1873 7.1894 27.2912 7.24592C27.3717 7.3127 27.4511 7.37949 27.5316 7.44628V7.44731ZM22.6454 4.65455C22.5648 4.62578 22.4854 4.59701 22.4049 4.56927C22.3967 4.59187 22.3886 4.61448 22.3804 4.63811L22.629 4.6751C22.7481 4.74189 22.866 4.80867 22.985 4.87649C23.0072 4.83231 23.0306 4.7871 23.0527 4.74292C22.9173 4.71415 22.7819 4.68435 22.6465 4.65558L22.6454 4.65455ZM24.4161 3.92194C24.436 3.8829 24.4558 3.84385 24.4768 3.80378C24.3718 3.78426 24.2667 3.76576 24.1617 3.74624C24.1535 3.77192 24.1453 3.79761 24.1372 3.82433C24.2305 3.85721 24.3228 3.88906 24.4161 3.92194ZM26.5721 6.62839C26.5569 6.60167 26.5499 6.56262 26.5278 6.5544C26.5056 6.54618 26.4682 6.56879 26.4379 6.57804C26.4566 6.60989 26.4752 6.64277 26.4939 6.67462C26.5196 6.65921 26.5441 6.64482 26.5721 6.62839ZM26.4577 2.69202C26.4309 2.6725 26.4052 2.65297 26.3783 2.63345C26.3678 2.65811 26.3527 2.68277 26.348 2.70949C26.3468 2.71771 26.3807 2.74134 26.3877 2.73826C26.4134 2.72798 26.4344 2.70846 26.4566 2.69202H26.4577ZM19.8054 7.71856C19.7902 7.71856 19.775 7.71856 19.7598 7.71856V7.87269C19.775 7.87269 19.7902 7.87269 19.8054 7.87269V7.71856ZM27.9624 3.7935C27.9787 3.81919 27.988 3.85413 28.0126 3.86646C28.0301 3.8757 28.0674 3.85618 28.0954 3.85001C28.0814 3.82433 28.0756 3.78734 28.0534 3.77603C28.0336 3.76679 27.995 3.78631 27.9635 3.7935H27.9624ZM26.0632 6.43316C26.0784 6.43316 26.0935 6.43316 26.1075 6.43316V6.27903H26.0632V6.43316ZM28.0511 7.69802C27.9799 7.65692 27.9367 7.61479 27.8865 7.60965C27.8561 7.60554 27.8164 7.65692 27.7803 7.6826C27.8246 7.7124 27.8655 7.75556 27.9157 7.76583C27.9472 7.772 27.9927 7.72884 28.0511 7.69802Z" fill="currentColor"/>
</svg>
