<svg width="32" height="18" viewBox="0 0 32 18" fill="none" xmlns="http://www.w3.org/2000/svg">
<path d="M17.2524 9.97112C17.2419 10.085 17.2314 10.1989 17.2208 10.3128C17.1893 10.4452 17.1577 10.5789 17.1261 10.7114C16.955 11.4467 16.7838 12.182 16.6127 12.9185L16.618 12.9334C16.4772 13.1673 16.31 13.3901 16.2007 13.6365C15.9941 14.0994 15.8203 14.5748 15.536 15.0291C15.536 14.9202 15.536 14.8112 15.536 14.7023C15.561 14.6515 15.5873 14.602 15.6124 14.5513C15.6729 14.3086 15.7335 14.066 15.794 13.8246C15.898 13.4731 16.0007 13.1215 16.1046 12.77C16.0546 12.7563 16.0046 12.7415 15.9546 12.7279C15.8598 13.0052 15.7637 13.2837 15.669 13.561C14.9647 14.9932 14.2619 16.4254 13.5576 17.8576C13.4576 17.8688 13.3576 17.8799 13.2575 17.8911C13.3615 17.6175 13.4642 17.3427 13.5682 17.0691C13.5945 17.0134 13.6195 16.9589 13.6458 16.9032C13.6603 16.8265 13.6761 16.751 13.6906 16.6742C13.713 16.6284 13.7367 16.5814 13.759 16.5356C13.9091 15.8746 14.0592 15.2135 14.2092 14.5525C14.2395 14.4696 14.2711 14.3866 14.3013 14.3049C14.3264 13.6699 14.3106 13.0312 14.3882 12.4036C14.4461 11.9381 14.6791 11.4912 14.7357 11.0258C14.8226 10.2992 14.8318 9.56509 14.8555 8.83351C14.8581 8.74067 14.7423 8.64411 14.6817 8.5488C14.6554 8.61069 14.6291 8.67258 14.6028 8.73324C14.5686 8.81494 14.5356 8.89664 14.5014 8.97834C14.2684 9.549 14.0355 10.1197 13.8038 10.6903C13.7722 10.7386 13.7419 10.7869 13.7103 10.8352C13.6551 10.954 13.5998 11.0741 13.5445 11.1929C13.5129 11.2387 13.4826 11.2845 13.451 11.3303C13.3931 11.4132 13.3339 11.4962 13.276 11.5791C13.1601 11.5903 13.0443 11.6014 12.9285 11.6125C12.9561 11.4764 12.9838 11.3402 13.0101 11.2053C13.0522 11.0827 13.0943 10.9589 13.1364 10.8364C13.1641 10.8005 13.1707 10.7609 13.1562 10.7188C13.1799 10.6779 13.2036 10.6359 13.2259 10.595C13.2431 10.5096 13.2602 10.4254 13.276 10.34C13.38 9.99835 13.4839 9.6567 13.5879 9.3138C13.5419 9.30266 13.4958 9.29029 13.4497 9.27914C13.2944 9.58738 13.1391 9.89437 12.9838 10.2026C12.6033 10.7126 12.2229 11.2226 11.8425 11.7339C11.8136 11.7636 11.7846 11.7945 11.757 11.8242C11.6161 11.953 11.4766 12.0805 11.3358 12.2092C11.245 12.1931 11.1528 12.177 11.062 12.1609C11.1936 11.9307 11.3252 11.6992 11.4569 11.4689C11.4832 11.3922 11.5108 11.3167 11.5372 11.2399C11.4792 11.2808 11.42 11.3204 11.3621 11.3613L9.33503 13.561C8.98359 13.8593 8.63214 14.1589 8.28201 14.4572C8.24516 14.4906 8.20699 14.5228 8.17013 14.5562C8.06219 14.659 7.95426 14.7617 7.84764 14.8645L7.82395 14.888C7.67126 14.9858 7.51857 15.0823 7.36588 15.1801C7.32245 15.1776 7.28164 15.1826 7.24084 15.195C7.2382 15.1083 7.23557 15.0217 7.23162 14.935C7.49488 14.602 7.75945 14.269 8.02271 13.936C8.38468 13.3679 8.74798 12.7997 9.10995 12.2315C9.13233 12.151 9.1547 12.0718 9.1784 11.9913C9.11916 12.0223 9.05993 12.0532 9.0007 12.0829C8.71507 12.3305 8.43075 12.5781 8.14512 12.8257C8.19514 12.6016 8.22015 12.3701 8.29912 12.1572C8.40311 11.875 8.55053 11.6076 8.67953 11.334C8.70717 11.2932 8.73613 11.2523 8.76377 11.2115C8.79536 11.1335 8.82695 11.0555 8.85986 10.9763C8.96779 10.7237 9.07573 10.4712 9.18498 10.2187C9.25342 10.0862 9.32187 9.95379 9.39032 9.82257C9.39558 9.77058 9.40085 9.71859 9.40611 9.6666C9.39163 9.69135 9.37847 9.71612 9.36399 9.74211C9.21657 9.8758 9.07704 10.0194 8.91646 10.1382C8.84801 10.189 8.73744 10.1877 8.64662 10.2113C8.63741 10.1085 8.62688 10.007 8.61635 9.90304C8.65584 9.86342 8.69532 9.82381 8.73481 9.7842C8.75982 9.75573 8.78351 9.72725 8.80852 9.69878C9.06915 9.25562 9.32845 8.81122 9.58908 8.36806C9.67068 8.28017 9.75229 8.19228 9.8339 8.10439C9.77862 8.08335 9.72334 8.06354 9.66674 8.0425C9.64173 8.15267 9.61803 8.26161 9.59303 8.37178C9.24553 8.74066 8.89803 9.10832 8.55053 9.47721L8.5479 9.47968C8.42022 9.60347 8.29386 9.72726 8.16618 9.84981C7.97664 10.0751 7.78709 10.3004 7.59623 10.5257L7.57122 10.5443C7.41327 10.6123 7.254 10.6804 7.09605 10.7485C7.05788 10.7794 7.01839 10.8104 6.98022 10.8426L6.971 10.8488C6.92362 10.8847 6.87623 10.9218 6.82884 10.9577L6.83279 10.9552C6.78277 10.9961 6.73407 11.0369 6.68405 11.0778C6.24705 11.3996 5.81005 11.7215 5.37436 12.0433C5.25326 12.0978 5.13216 12.151 5.01238 12.2055C4.9492 12.1981 4.88602 12.1906 4.82415 12.1832C4.92287 12.0594 5.0216 11.9344 5.12032 11.8106C5.51783 11.3625 5.91403 10.9144 6.31155 10.4675C6.87623 9.61956 7.44091 8.77285 8.00691 7.9249C8.01349 7.86549 8.02139 7.80731 8.02797 7.74789C8.03719 7.72808 8.04508 7.70951 8.0543 7.68971C8.04245 7.7058 8.0306 7.72313 8.01876 7.73922C7.93846 7.72808 7.85949 7.7157 7.7792 7.70456C7.81473 7.61667 7.85159 7.52878 7.91346 7.379C6.99469 8.28018 6.13122 9.12812 5.26774 9.97607L5.26247 9.97978L4.54905 10.5702L3.55 11.3415C3.50261 11.3798 3.45523 11.417 3.40784 11.4553C3.23936 11.5507 3.07087 11.6447 2.90239 11.74C2.89449 11.6794 2.88659 11.6187 2.8787 11.5593C2.92608 11.485 2.97347 11.4095 3.02085 11.3353C3.05508 11.2523 3.0893 11.1706 3.12484 11.0877C3.19065 11.0048 3.25778 10.923 3.3236 10.8401C3.4855 10.7176 3.64872 10.5938 3.81062 10.4712C4.20419 10.0107 4.59644 9.55024 4.99 9.09098C5.0216 9.05509 5.05319 9.02043 5.08478 8.98453C5.27432 8.73819 5.46386 8.49185 5.65472 8.24428C5.68895 8.20219 5.72317 8.15886 5.75739 8.11677C5.79688 8.09821 5.81136 8.0685 5.80215 8.02765C6.26021 7.34805 6.71828 6.66969 7.17634 5.9901C7.11579 5.95296 7.05524 5.91706 6.99601 5.87993C6.80252 6.07303 6.63009 6.2909 6.41158 6.4543C6.13517 6.65979 5.82058 6.82072 5.5231 7.00021C5.53758 6.79843 5.55337 6.59666 5.57312 6.33547C5.09267 6.6895 4.64514 7.02002 4.19892 7.34929C4.1568 7.3691 4.11468 7.3889 4.07256 7.40871C4.03044 7.43842 3.98832 7.46689 3.9462 7.4966C3.59344 7.69961 3.23936 7.90262 2.88659 8.10563C2.6036 8.21828 2.3206 8.33216 2.0376 8.44481C1.97705 8.3792 1.9165 8.3136 1.85595 8.24799L1.88754 8.26903C2.12447 8.02765 2.36008 7.78502 2.5957 7.54364L2.60754 7.53992C2.83263 7.31587 3.05771 7.09181 3.28279 6.86775C3.31833 6.8269 3.35387 6.78729 3.3881 6.74644L3.40784 6.72169C3.4368 6.69321 3.46444 6.6635 3.4934 6.63503C3.98042 6.00371 4.47666 5.37859 4.94262 4.73365C5.00975 4.63957 4.93077 4.45265 4.91893 4.30782C5.05713 4.27316 5.19403 4.2385 5.33224 4.20384C5.30854 4.15804 5.28617 4.111 5.26247 4.0652C5.14664 4.14318 5.03081 4.22117 4.91498 4.29792C4.72017 4.41675 4.52404 4.53559 4.32923 4.65443C4.2055 4.63214 4.04755 4.55416 3.96463 4.59872C3.55395 4.81783 3.1617 5.06912 2.76286 5.30927C2.58517 5.38973 2.40879 5.46895 2.23109 5.54941L2.08893 5.63606C1.82831 5.73509 1.56769 5.83413 1.30706 5.93316C1.23467 5.96039 1.16227 5.98639 1.08988 6.01362C0.810827 6.11265 0.531776 6.21168 0.252725 6.31071C0.171116 6.31442 0.0881904 6.3169 0.00658128 6.32061C0.0355394 6.23768 0.038172 6.1176 0.0987207 6.07551C1.11357 5.37735 2.13632 4.68909 3.15775 3.99835C3.19592 3.96617 3.23278 3.93398 3.27095 3.90056L3.28148 3.89189C3.72638 3.4413 4.17128 2.99072 4.61618 2.54013C4.6583 2.50423 4.70174 2.46833 4.74386 2.4312C4.77677 2.38416 4.80967 2.33835 4.83863 2.29008C4.84127 2.28512 4.81231 2.26284 4.79783 2.24923C4.77019 2.29874 4.74254 2.34826 4.7149 2.39777C4.63461 2.43863 4.55432 2.47947 4.47534 2.51908C4.25157 2.68125 4.04097 2.8595 3.80272 2.99814C3.61055 3.10955 3.24067 3.28657 3.19987 3.23953C2.9274 2.92882 2.71679 3.15536 2.48645 3.25191C2.4022 3.27048 2.31928 3.28904 2.23504 3.30761C2.14685 3.3398 2.05866 3.37075 1.97047 3.40293C1.88359 3.41531 1.7954 3.42645 1.70853 3.43883C1.5769 3.47473 1.44396 3.50939 1.31233 3.54529C1.00432 3.59233 0.697627 3.63936 0.389618 3.6864C0.311958 3.68021 0.234297 3.67403 0.156637 3.66908C0.103986 3.63441 0.0526511 3.60099 0 3.56633C0.0434371 3.54281 0.0868742 3.52053 0.130311 3.49701C0.176381 3.46854 0.223767 3.44007 0.269837 3.41283C0.440953 3.35713 0.612069 3.30266 0.784501 3.24696C0.924026 3.18011 1.06487 3.11327 1.20439 3.04766C2.24162 2.50547 3.27753 1.96328 4.33318 1.41242C4.13706 0.982876 4.01069 0.70683 3.88433 0.430783C3.88696 0.352797 3.8896 0.274812 3.89091 0.196826C4.0436 0.131219 4.19629 0.0656076 4.34898 0C4.3911 0.0222818 4.43454 0.0433256 4.47666 0.0656074C4.74123 0.230245 5.00712 0.394886 5.27169 0.559524C5.31118 0.591709 5.35066 0.622654 5.39015 0.654839C5.87849 1.03487 6.36683 1.41613 6.85517 1.79616C6.89334 1.82587 6.93151 1.85558 6.96969 1.88405C7.1329 1.98556 7.29481 2.08583 7.45802 2.18733C7.73181 2.35569 8.00428 2.52404 8.27806 2.69239C8.58212 2.86817 8.8875 3.04519 9.19156 3.22096C9.28633 3.27295 9.3811 3.32494 9.47588 3.37693C9.7444 3.50939 10.0129 3.64308 10.2828 3.77553C10.3183 3.79905 10.3538 3.82381 10.3907 3.84733C10.4381 3.8659 10.4855 3.88446 10.5328 3.90303C10.5737 3.93027 10.6158 3.95626 10.6566 3.9835C10.7553 4.03673 10.854 4.08995 10.9527 4.14318C11.0291 4.17041 11.1041 4.19641 11.1805 4.22365C11.2305 4.23974 11.2805 4.25583 11.3305 4.27192C11.3687 4.29544 11.4069 4.31896 11.445 4.34372C11.7122 4.45761 11.9794 4.57149 12.248 4.68537C12.4191 4.75593 12.5902 4.82649 12.7613 4.89581C13.1062 4.98123 13.451 5.0654 13.7959 5.15082C13.8472 5.17805 13.8986 5.20528 13.9499 5.23128C14.0302 5.24613 14.1092 5.25975 14.1895 5.2746L14.3448 5.35259C14.8726 5.47886 15.4004 5.60512 15.9283 5.73138C16.0151 5.73138 16.1007 5.72891 16.1876 5.72767C16.6285 5.75119 17.0695 5.77347 17.5104 5.79699C17.5525 5.79328 17.5934 5.7908 17.6355 5.78708C18.8649 5.72519 20.0956 5.66454 21.325 5.60264C21.4527 5.57169 21.5817 5.54075 21.7094 5.5098C22.6794 5.23004 23.6522 4.96142 24.6157 4.66309C24.9369 4.56406 25.2304 4.38705 25.5358 4.24593C25.5818 4.21498 25.6266 4.18403 25.6727 4.15309L25.67 4.15556C25.7608 4.12338 25.853 4.09243 25.9438 4.06025C26.548 3.7582 27.1522 3.45616 27.7563 3.15412C27.8063 3.11822 27.8577 3.08232 27.9077 3.04766C27.9498 3.03528 27.9933 3.0229 28.0354 3.01052C28.0828 2.97958 28.1301 2.94739 28.1775 2.91645C28.4382 2.78152 28.6988 2.64535 28.9581 2.51042C28.9989 2.47947 29.041 2.44852 29.0818 2.41758C29.1292 2.38168 29.1766 2.34578 29.2253 2.30865C29.3122 2.26285 29.399 2.21704 29.4859 2.17124C29.9361 1.88405 30.3849 1.59811 30.8351 1.31092C30.868 1.31339 30.893 1.30101 30.9101 1.27626C31.0141 1.28121 31.1181 1.28616 31.2221 1.29111C31.1668 1.45699 31.1128 1.62162 31.0575 1.7875C31.0141 1.83206 30.9707 1.87786 30.9286 1.92243C30.839 1.99917 30.7495 2.07593 30.66 2.15391C30.4758 2.32474 30.2915 2.49556 30.1072 2.66515C30.0598 2.67382 30.0124 2.68249 29.965 2.69115C29.9361 2.72457 29.9071 2.758 29.8782 2.79142C29.8413 2.90159 29.8045 3.01052 29.7676 3.1207L29.7386 3.43017C29.7057 3.41779 29.6715 3.40788 29.636 3.40045C29.5662 3.29771 29.4964 3.19497 29.4267 3.09222C29.3977 3.1046 29.3701 3.11822 29.3411 3.1306C29.3753 3.22715 29.4109 3.32371 29.4451 3.42026C29.8176 3.92408 30.1914 4.42666 30.5639 4.93047C30.5995 5.0456 30.635 5.16196 30.6706 5.27708C30.4231 5.11492 30.1756 4.95152 29.9269 4.78935C29.9137 4.76088 29.8913 4.73984 29.8597 4.7287C29.7663 4.65195 29.6728 4.57644 29.5781 4.49969C29.5544 4.52321 29.5307 4.54797 29.507 4.57149L29.7268 4.78935C29.7663 4.83516 29.8045 4.88096 29.8439 4.92676C30.2941 5.36992 30.7443 5.81432 31.1931 6.25748C31.4616 6.46173 31.7315 6.66598 32 6.87147C31.921 6.9086 31.842 6.9445 31.7631 6.98164C31.7052 6.94574 31.6472 6.91108 31.5893 6.87518C31.4564 6.84176 31.3234 6.80958 31.1905 6.77615C30.9299 6.63627 30.6706 6.49639 30.4099 6.35651C30.1533 6.1894 29.8979 6.02228 29.6412 5.85517C29.6083 5.89107 29.5767 5.92821 29.5438 5.9641C29.8321 6.25996 30.1204 6.55581 30.4086 6.85166C30.843 7.23169 31.2774 7.61172 31.7104 7.99051C31.7183 8.02641 31.7249 8.06231 31.7315 8.09821C31.7012 8.13534 31.6709 8.17248 31.6393 8.20961C31.4893 8.13534 31.3392 8.06231 31.1892 7.98803L31.0602 7.89519L28.9449 6.29709C28.8936 6.3268 28.8409 6.35775 28.7896 6.38746C28.9397 6.67341 29.0897 6.95936 29.2411 7.24655C29.2332 7.32948 29.2253 7.41118 29.2161 7.49288C29.1239 7.41118 29.0318 7.33072 28.9397 7.24902C28.6672 6.8888 28.3947 6.52982 28.1209 6.16959C28.088 6.1894 28.0551 6.2092 28.0222 6.22901C28.2433 6.61275 28.4632 6.99649 28.6843 7.379C29.1713 8.03508 29.6583 8.69115 30.1454 9.34846C29.8189 9.15288 29.4925 8.95606 29.1661 8.75923C29.1002 8.70848 29.0344 8.65773 28.9699 8.60574C28.9476 8.62802 28.9239 8.6503 28.9015 8.67135L29.0726 8.86322C29.3438 9.2222 29.6149 9.57995 29.8861 9.93893C30.1401 10.2063 30.3941 10.4749 30.6482 10.7423C30.5692 10.8067 30.4889 10.8711 30.4099 10.9354C29.4833 9.99464 28.5579 9.05261 27.6313 8.11182C27.3325 7.68475 27.0337 7.25769 26.7336 6.83185C26.6783 6.85909 26.623 6.88632 26.5664 6.91479L27.0916 8.36435C27.1127 8.44605 27.135 8.52775 27.1561 8.60821C27.1837 8.6503 27.2101 8.69363 27.2377 8.73571C27.5036 9.27172 27.7708 9.80772 28.0367 10.3437C27.9446 10.3474 27.8537 10.3511 27.7616 10.3549C27.7103 10.267 27.6576 10.1803 27.6063 10.0924C27.2851 9.53662 26.9652 8.98205 26.6441 8.42624C26.5848 8.45348 26.5256 8.48071 26.4664 8.50671L26.9863 10.09C27.1758 10.5863 27.3654 11.0815 27.5549 11.5779C27.5826 11.6175 27.6115 11.6559 27.6392 11.6955C27.784 11.9851 27.9301 12.2736 28.0749 12.5632C28.1499 12.6808 28.2262 12.7997 28.3013 12.9173C28.4052 13.0906 28.5092 13.2626 28.6145 13.4359C28.6106 13.4619 28.6066 13.4879 28.604 13.5127C28.5645 13.561 28.525 13.608 28.4869 13.6563C27.526 12.2587 26.5651 10.8624 25.6042 9.46483C25.5792 9.43017 25.5542 9.39551 25.5292 9.36084L24.9724 7.61048C24.9395 7.52135 24.9066 7.43223 24.8737 7.34434C24.2853 7.31711 24.7552 7.70332 24.646 7.86177C24.646 7.94347 24.6433 8.02517 24.642 8.10563C24.6855 8.35445 24.7289 8.60326 24.7723 8.85084C24.8065 8.97339 24.8408 9.09717 24.875 9.21972C24.9211 9.46359 24.9685 9.70745 25.0145 9.95131C24.9763 10.0342 24.9369 10.1159 24.8987 10.1989C24.7736 9.91293 24.6486 9.62822 24.5249 9.34227C24.4459 9.37446 24.3669 9.40788 24.2893 9.44007C24.925 10.7658 25.5608 12.0928 26.1965 13.4186C26.4269 13.7528 26.6586 14.0858 26.8889 14.4201C26.9218 14.4572 26.9534 14.4943 26.9863 14.5327L26.9916 14.5401C27.0311 14.5859 27.0692 14.633 27.1087 14.6788C27.1232 15.1343 26.8955 14.8038 26.7599 14.7741C26.6954 14.6986 26.6296 14.6243 26.5651 14.5488C26.2505 14.217 25.9372 13.8865 25.6226 13.5548L24.1787 11.7017C24.1247 11.7339 24.0721 11.7673 24.0181 11.7995C24.3906 12.4283 24.7618 13.0572 25.1343 13.686C25.154 13.7244 25.1725 13.764 25.1922 13.8024C25.2212 13.8345 25.2488 13.868 25.2778 13.9001C25.337 13.9905 25.3949 14.0821 25.4542 14.1725C25.4831 14.2059 25.5121 14.2381 25.541 14.2715C25.7082 14.4869 25.8767 14.7011 26.0438 14.9164C26.0491 15.0798 26.0557 15.2445 26.061 15.4079C25.7398 15.0774 25.4173 14.7469 25.0961 14.4151L25.0014 14.3161L24.9869 14.3C24.9487 14.2604 24.9119 14.2195 24.8737 14.1799C24.1747 13.3505 23.4771 12.5212 22.7782 11.6905C22.4333 11.1013 22.0884 10.5133 21.7436 9.92408C21.6936 9.94388 21.6435 9.96493 21.5935 9.98473C21.7633 10.7262 21.9331 11.4689 22.1016 12.2117C22.1174 12.328 22.1319 12.4456 22.1477 12.562C22.1358 12.6041 22.124 12.6462 22.1121 12.6883C21.9871 12.4184 21.8713 12.1448 21.7317 11.8824C21.6936 11.8094 21.5896 11.7673 21.5145 11.7116C21.4711 11.8069 21.4277 11.9034 21.3842 11.9988C21.4027 12.1547 21.4224 12.3095 21.4408 12.4654C21.4579 12.6635 21.4751 12.8603 21.4908 13.0584C21.5172 13.15 21.5448 13.2416 21.5711 13.3332C21.5869 13.4892 21.6027 13.6451 21.6185 13.8011C21.6488 13.8878 21.6791 13.9744 21.7094 14.0598C21.7225 14.1799 21.7344 14.2987 21.7475 14.4188C21.7752 14.5129 21.8041 14.607 21.8318 14.7011C21.8476 14.8137 21.8634 14.9251 21.8792 15.0378C21.9081 15.1306 21.9371 15.2234 21.9647 15.3163C21.9831 15.4302 22.0016 15.5441 22.0187 15.6579C22.049 15.7396 22.0792 15.8213 22.1095 15.9043C22.174 16.1531 22.2372 16.4031 22.3017 16.6519C22.3241 16.694 22.3464 16.7374 22.3701 16.7795L22.3583 17.136C22.3214 17.1397 22.2846 17.136 22.2477 17.1273C22.2464 17.084 22.2293 17.0468 22.1977 17.0147C22.1687 16.975 22.1385 16.9342 22.1095 16.8946C22.099 16.8525 22.0884 16.8104 22.0766 16.7683L21.9884 16.621C21.9687 16.5455 21.9489 16.47 21.9279 16.3957C21.9002 16.3549 21.8739 16.314 21.8462 16.2744C21.787 16.1085 21.7265 15.9426 21.6672 15.778C21.6396 15.7347 21.6133 15.6926 21.5856 15.6493C21.4053 15.1974 21.2263 14.7469 21.0459 14.295C20.7195 13.3815 20.3918 12.4667 20.0271 11.4479C19.7823 12.281 20.5129 12.8962 20.064 13.6649C19.9008 13.9447 20.2654 14.4993 20.3904 14.9276C20.4036 15.0043 20.4155 15.0823 20.4286 15.1591C20.5036 15.3707 20.5787 15.5824 20.6537 15.7941L20.7024 16.0293L20.7801 16.1816C20.7972 16.2546 20.8156 16.3276 20.8327 16.4007C20.8617 16.4452 20.8906 16.491 20.9196 16.5356C21.092 17.0233 21.2658 17.5123 21.4382 18L21.4421 17.9963C20.9972 17.339 20.551 16.6829 20.1061 16.0256C20.0745 15.9785 20.0416 15.9327 20.01 15.8857C20.0193 15.8424 20.0061 15.8065 19.9719 15.7768C19.9403 15.7322 19.9074 15.6876 19.8758 15.6431C19.5085 14.8199 19.14 13.9979 18.7727 13.1748C18.7451 13.1302 18.7188 13.0856 18.6911 13.0423C18.7082 13.0002 18.699 12.9631 18.6661 12.9297C18.6148 12.7526 18.5621 12.5744 18.4595 12.2241C18.3765 12.5793 18.3357 12.7551 18.2962 12.9297C18.1159 13.4595 17.9356 13.9893 17.7566 14.5191C17.7289 14.5661 17.7 14.6132 17.6723 14.6602C17.5723 14.9523 17.4736 15.2457 17.3735 15.5379C17.3367 15.6171 17.2998 15.6963 17.2643 15.7755C17.2103 15.9365 17.155 16.0961 17.1011 16.2571C17.0761 16.3029 17.051 16.3474 17.026 16.3932C16.8799 16.7188 16.7338 17.0444 16.5877 17.3687C16.5482 17.3303 16.5101 17.2932 16.4706 17.2548C16.5087 16.9131 16.5482 16.5702 16.5864 16.2286C16.6509 16.2014 16.7167 16.1729 16.7812 16.1457C16.8023 16.0219 16.822 15.8981 16.8431 15.7743C16.8747 15.6938 16.9063 15.6134 16.9365 15.5329L16.9813 15.1727C17.0116 15.086 17.0405 14.9994 17.0708 14.9127C17.0853 14.7518 17.0997 14.5921 17.1142 14.4312C17.1445 14.3025 17.1748 14.1737 17.2064 14.0462C17.2208 13.8469 17.234 13.6464 17.2485 13.4471C17.2788 13.275 17.3077 13.1042 17.338 12.9321C17.3419 11.9418 17.3459 10.9515 17.3498 9.95997C17.3498 9.8659 17.3498 9.77306 17.3498 9.67898H17.2603V9.95997L17.2524 9.97112ZM13.6853 8.86445C13.7169 8.81742 13.7498 8.77161 13.7788 8.72333C13.7801 8.72086 13.7485 8.70105 13.7327 8.68867C13.7117 8.7419 13.6906 8.79513 13.6695 8.84836C13.6616 8.8694 13.6551 8.89045 13.6472 8.91149C13.6603 8.8954 13.6722 8.87931 13.6853 8.86322V8.86445ZM21.529 11.2944C21.5027 11.2214 21.4751 11.1496 21.4487 11.0765C21.4658 11.0345 21.4593 10.9973 21.4277 10.9639C21.375 10.7324 21.321 10.5009 21.2684 10.2682C21.2052 10.2855 21.1407 10.3029 21.0775 10.3214C21.1947 10.6903 21.3132 11.0592 21.4303 11.4281C21.4632 11.3835 21.4974 11.339 21.5303 11.2944H21.529ZM28.7633 6.05695L28.6488 5.86631C28.6132 5.88983 28.5777 5.91335 28.5421 5.93811C28.5816 6.0099 28.6224 6.0817 28.6619 6.1535C28.7119 6.26367 28.7633 6.37508 28.8133 6.48525L28.9923 6.37879C28.916 6.2711 28.8396 6.1634 28.7646 6.05695H28.7633ZM24.692 6.49887C24.6157 6.5162 24.5393 6.53353 24.4643 6.55086C24.5157 6.7972 24.5683 7.04353 24.6196 7.28987C24.7052 7.2713 24.7908 7.25273 24.875 7.23417C24.8144 6.98907 24.7526 6.74397 24.692 6.5001V6.49887ZM12.2243 10.2063C12.1663 10.1964 12.1084 10.1865 12.0505 10.1766C12.0268 10.3115 12.0018 10.4477 11.9781 10.5826C12.0189 10.5901 12.0584 10.5975 12.0992 10.6062C12.1413 10.4725 12.1821 10.3388 12.2243 10.2051V10.2063ZM29.3122 4.08624C29.2779 4.09862 29.2424 4.111 29.2082 4.12338C29.245 4.19889 29.2806 4.27564 29.3227 4.34743C29.3253 4.35239 29.3925 4.32268 29.4293 4.30906C29.3898 4.23479 29.3503 4.16051 29.3122 4.08624ZM14.6699 8.28389C14.7041 8.26656 14.7383 8.24799 14.7726 8.23066C14.7541 8.20467 14.7383 8.17743 14.7147 8.15515C14.7107 8.15143 14.666 8.16877 14.6646 8.17991C14.6607 8.21333 14.6673 8.24923 14.6699 8.28389ZM10.0511 7.68847C10.0155 7.67733 9.97211 7.65009 9.94973 7.66124C9.92341 7.67361 9.9142 7.71942 9.89708 7.75036C9.92867 7.76027 9.97079 7.7875 9.99054 7.77636C10.0195 7.7615 10.0313 7.71941 10.0511 7.68723V7.68847ZM11.7438 10.9144C11.7412 10.9008 11.7438 10.8822 11.7346 10.876C11.7214 10.8673 11.7017 10.8686 11.6859 10.8661C11.6899 10.8884 11.6951 10.9094 11.6991 10.9317C11.7149 10.9255 11.7293 10.9206 11.7451 10.9144H11.7438ZM3.33544 2.96472C3.34729 2.92759 3.35519 2.90407 3.36309 2.88055C3.34598 2.8855 3.33018 2.88921 3.31307 2.89416C3.31833 2.91273 3.32491 2.93006 3.33544 2.96472ZM3.84221 2.71343C3.82642 2.70848 3.81194 2.70229 3.79614 2.69734C3.79351 2.71838 3.79219 2.74067 3.78956 2.76171C3.80536 2.75924 3.8251 2.75923 3.83695 2.75057C3.84484 2.74562 3.84089 2.72581 3.84221 2.71343Z" fill="currentColor"/>
</svg>
