<svg width="32" height="16" viewBox="0 0 32 16" fill="none" xmlns="http://www.w3.org/2000/svg">
<path d="M12.3485 12.3646C12.3791 12.2852 12.4109 12.2047 12.4415 12.1241L12.4449 12.1358C12.5664 11.7889 12.6867 11.4409 12.807 11.0941C12.8388 11.0135 12.8695 10.9329 12.9012 10.8523C12.9455 10.711 12.9898 10.5709 13.0318 10.4389C13.16 10.5055 13.2645 10.5604 13.3689 10.6141C13.8944 9.63083 14.42 8.64871 14.9455 7.66542L15.6549 6.66813C15.6833 6.68564 15.7128 6.70316 15.7412 6.72068C15.5596 7.16677 15.3791 7.61404 15.1986 8.06014C14.9103 9.7079 14.5403 11.3487 14.8638 13.0396C14.8865 13.1296 14.9081 13.2195 14.9296 13.3094L15.0965 14.4749C15.1566 14.399 15.2179 14.3219 15.2792 14.246C15.3166 12.9641 15.4163 11.7687 15.6674 10.5114C15.7083 10.3327 15.748 10.1528 15.7889 9.97299C15.8229 9.98117 15.8581 9.99051 15.8933 9.99869C15.8502 10.1704 15.8082 10.342 15.7662 10.5137C15.8228 11.888 15.9498 13.1765 16.1226 14.5239C16.1419 14.587 16.1612 14.6489 16.1805 14.7119L16.1807 14.713C16.2022 14.8154 16.2238 14.9182 16.269 15.1312C16.3121 14.9618 16.328 14.8964 16.3451 14.831C16.3371 14.6757 16.328 14.5192 16.319 14.3639L16.2928 14.3277L16.3121 14.2868C16.2883 14.1187 16.2656 13.9505 16.2418 13.7823C16.2882 12.6508 16.4631 11.5095 16.4631 10.3934C16.5006 10.3152 16.5392 10.2369 16.5766 10.1587C16.6152 10.0419 16.6549 9.92628 16.6935 9.8095C16.7242 9.73243 16.7548 9.65419 16.7855 9.57711L17.2452 8.29137C17.3496 7.96555 17.4756 7.6444 17.5528 7.31158C17.6413 6.93088 17.832 6.79541 18.193 6.93205C18.0556 7.42486 17.9183 7.9165 17.7809 8.40931C17.7954 9.69582 17.971 10.918 18.1385 12.1941C18.1839 12.1895 18.2281 12.186 18.2736 12.1813V11.212C18.3587 10.7309 18.4427 10.2486 18.5482 9.65185C18.6027 10.2533 18.6447 10.7321 18.6879 11.212C18.7086 11.3937 18.7316 11.576 18.7616 11.7562C18.9421 12.381 19.1226 13.0069 19.3031 13.6317C19.3292 13.6247 19.3541 13.6189 19.3802 13.613V13.105C18.9832 11.7906 19.0478 10.3996 19.2656 9.06678L19.3587 9.08664L19.4767 10.2766C19.4904 10.4179 19.5051 10.5604 19.5187 10.7029C19.538 10.7543 19.5585 10.8045 19.5778 10.8558C19.5948 11.0018 19.6129 11.1478 19.63 11.2938C19.6481 11.3417 19.6663 11.3907 19.6844 11.4386C19.7787 11.901 19.8717 12.3623 19.9659 12.8248C19.9875 12.8691 20.0079 12.9135 20.0295 12.9579L20.084 13.2814C20.1044 13.3304 20.1249 13.3783 20.1453 13.4262L20.3076 14.1082C20.3292 14.1537 20.3496 14.1981 20.3712 14.2436C20.3871 14.3569 20.4018 14.4713 20.4177 14.5846C20.4586 14.5508 20.5006 14.5157 20.5414 14.4807C20.546 14.441 20.5516 14.4013 20.5562 14.3616C20.5607 14.2623 20.5653 14.1631 20.5687 14.0626C20.5516 13.9493 20.5358 13.8349 20.5187 13.7216C20.4983 13.6656 20.4767 13.6083 20.4563 13.5523C20.412 13.3561 20.3689 13.1587 20.3246 12.9626V12.7325C20.2736 12.2303 20.2213 11.7294 20.1703 11.2272C20.1249 10.3418 20.0785 9.45736 20.0321 8.57201L20.025 8.43617L20.1203 8.42216C20.1748 8.60433 20.2281 8.78768 20.2826 8.96986C20.3303 8.51091 20.3791 8.05197 20.4268 7.59302C20.454 7.33611 20.4824 7.07919 20.5096 6.82228L20.5902 6.82461C20.6368 7.08153 20.6822 7.33844 20.7276 7.59536L20.891 8.86709C20.9149 8.94767 20.9376 9.02942 20.9603 9.10999L21.4438 11.0719C21.6308 11.7297 21.8766 12.371 22.0999 13.0163C22.0999 12.4333 21.9574 11.8195 21.8218 11.2529C21.6617 10.4249 21.5028 9.59696 21.3428 8.77016C21.3053 8.54244 21.2667 8.31355 21.2293 8.08583C21.2815 8.07299 21.3326 8.05897 21.3848 8.04496C21.5837 8.9526 21.8711 9.83695 22.1215 10.7321C22.5383 11.8041 22.9887 12.8297 23.5187 13.8454C23.5459 13.8198 23.5743 13.7953 23.6026 13.7708L23.6027 13.7707C23.5494 13.5827 23.4972 13.3958 23.4438 13.2078C23.2828 12.7905 23.1349 12.3775 23.0091 11.9477C22.7877 11.1758 22.5664 10.4027 22.3451 9.63083C22.3882 9.61215 22.4325 9.59229 22.4767 9.57361L22.8002 10.2778C22.849 10.1213 22.8978 9.96599 22.9467 9.8095L22.9444 9.80717C22.8127 9.34355 22.6799 8.87994 22.5482 8.41632C22.5074 8.20495 22.4654 7.99475 22.4245 7.78454L22.5471 7.75652C22.5902 7.97373 22.6322 8.1921 22.6754 8.40931C22.7514 8.52609 22.8286 8.6417 22.9058 8.75848C22.9183 8.68258 22.9319 8.6055 22.9444 8.5296C22.8452 7.90506 22.7451 7.28052 22.6442 6.65069L22.597 6.35632C22.9557 6.23604 23.2157 6.14962 23.5324 6.04335C23.5948 6.26524 23.6504 6.45909 23.7049 6.65295C23.7264 6.69255 23.749 6.73214 23.7717 6.77175L23.7718 6.77206L23.8229 7.00679C23.8536 7.0862 23.8831 7.16444 23.9126 7.24385C23.9955 7.47391 24.0772 7.70513 24.16 7.93519L24.2361 8.05897C24.2474 8.09751 24.2599 8.13722 24.2713 8.17575C24.3087 8.254 24.3473 8.33224 24.3848 8.41048L24.4665 8.52609C24.7821 9.02708 25.0976 9.52689 25.4132 10.0279C25.5119 10.1505 25.6095 10.2743 25.7083 10.3981C25.7367 10.4261 25.7514 10.46 25.7514 10.4997C25.7957 10.4658 25.84 10.4308 25.8842 10.3957C25.723 10.0886 25.563 9.78148 25.4018 9.47435C25.0499 8.79702 24.6969 8.12087 24.3451 7.44354C24.4075 7.40384 24.4699 7.3653 24.5323 7.3256C24.9001 7.92118 25.269 8.51558 25.6368 9.11116L27.1578 10.9598C27.1896 10.9166 27.2202 10.8745 27.252 10.8325C27.2508 10.8045 27.2531 10.7776 27.2577 10.7496C27.0136 10.4121 26.7696 10.0758 26.5255 9.73827C25.8456 8.41865 25.1669 7.10021 24.4869 5.7806C24.5607 5.71637 24.6356 5.65331 24.7106 5.59025C24.8116 5.68718 24.9432 5.76542 25.0091 5.88337C25.3019 6.4042 25.5755 6.93672 25.8558 7.46457C25.8592 7.38749 25.8615 7.31158 25.8638 7.23451C25.8434 7.19948 25.8218 7.16561 25.8002 7.13174C25.63 6.66813 25.4586 6.20334 25.2883 5.73973C25.2894 5.62501 25.2916 5.51143 25.2939 5.39675L25.294 5.39056C25.5573 5.25859 25.8195 5.12547 26.0749 4.99701C26.5482 5.77359 26.9977 6.51281 27.4484 7.25203C27.4779 7.28823 27.5074 7.32326 27.5369 7.35946C27.6913 7.57784 27.8468 7.79505 28.0011 8.01343C28.0624 7.95971 28.1249 7.90716 28.1862 7.85461L28.1067 7.60353C27.8581 7.19363 27.6107 6.78491 27.3621 6.37501C27.2633 6.17064 27.1657 5.96628 27.067 5.76191C27.1056 5.7444 27.1442 5.72571 27.1827 5.70703L27.4869 6.27691C28.0491 6.99408 28.4703 7.85016 29.3224 8.17575C29.2089 7.98424 29.1373 7.86395 29.0658 7.74367C28.7106 7.22984 28.3553 6.71484 28 6.20101C27.4895 5.39079 27.5028 3.03845 28.941 3.96934C29.7985 4.96919 30.8753 5.47018 32 6.08423C31.8978 5.95577 31.8059 5.8168 31.6913 5.70236C31.2656 5.27494 30.8331 4.8557 30.4041 4.43413L30.3121 4.32552C30.0522 3.85724 29.7934 3.38895 29.5335 2.92066C29.692 2.74984 29.8877 2.60621 30.0568 2.4442C30.4078 2.63158 30.4714 2.72265 30.7616 2.4442C30.714 2.29823 30.6674 2.15225 30.6209 2.00628C30.6232 1.9619 30.6266 1.91752 30.6288 1.87315C30.9103 1.56251 31.1873 1.24838 31.4745 0.943581C31.7106 0.692504 31.9444 0.379535 31.6561 0.0969274C31.5028 -0.0537185 31.1373 0.0245238 30.8672 0C30.8241 0.0350339 30.7809 0.0712355 30.7378 0.107437L30.7299 0.114444C30.6958 0.145974 30.6629 0.178673 30.6288 0.210204C30.5142 0.296621 30.4007 0.383038 30.2872 0.469455L30.2838 0.474126C30.2463 0.511495 30.2077 0.548864 30.1703 0.585066L30.1532 0.599446C30.1217 0.625902 30.0909 0.651777 30.0602 0.67849L28.9398 1.52631L28.3644 1.88366L28.37 1.87899C28.3269 1.90818 28.2849 1.93855 28.2429 1.96774C27.6345 2.24568 27.0272 2.52361 26.4188 2.80155C26.3587 2.82957 26.2985 2.85643 26.2384 2.88446C25.7707 3.05262 25.3042 3.21962 24.8365 3.38778C24.8002 3.40763 24.7639 3.42865 24.7276 3.44851L24.4972 3.50456L24.3848 3.57463C23.0011 3.90745 21.6175 4.23911 20.2338 4.57193L19.958 4.63966C19.7196 4.65403 19.4821 4.66944 19.2438 4.6849L19.2032 4.68754C19.1158 4.70622 19.0272 4.72608 18.9387 4.74476L16.4359 4.76578L15.8593 4.70389C15.7106 4.67937 15.5607 4.65601 15.412 4.63149C15.361 4.61047 15.3087 4.59061 15.2577 4.57076C15.0829 4.53105 14.9103 4.47734 14.7333 4.45398C13.5017 4.29282 12.3167 3.97635 11.2168 3.36676C11.067 3.29436 10.916 3.22312 10.765 3.15072C9.77979 2.63572 8.79455 2.11955 7.80931 1.60456L7.68672 1.52047C6.78207 1.04635 5.87855 0.571053 4.97389 0.0969274L4.6311 0.0759062C4.042 0.478796 4.58343 0.740385 4.74574 1.04985C4.96141 1.22852 5.17821 1.4072 5.43927 1.62324L4.91373 1.88599C4.92281 1.91636 4.93076 1.94672 4.93984 1.97708C5.12145 1.93854 5.3076 1.85797 5.48354 1.87548C5.62202 1.8895 5.74915 2.02496 5.88195 2.10671C5.79682 2.33209 5.71169 2.55865 5.6277 2.7852C4.54257 3.32589 3.51192 3.93198 2.70602 4.89891C2.33485 5.34384 1.83541 5.67316 1.40295 6.06554C1.25085 6.20451 1.12713 6.37501 0.989784 6.53033C1.09762 6.52682 1.20431 6.52449 1.31101 6.52098L2.5891 5.4758L3.67425 4.8312C3.394 5.08772 3.11464 5.34424 2.83428 5.60076C2.51484 5.95155 2.1954 6.30351 1.87596 6.65547L1.87401 6.65762C1.84683 6.68791 1.81965 6.71704 1.79247 6.74617L1.79228 6.74637C1.6084 6.95774 1.42565 7.16911 1.24177 7.38048C1.1941 7.44822 1.14642 7.51478 1.09875 7.58251L0.888763 7.82308C0.854711 7.86395 0.821793 7.90483 0.787741 7.9457L0.562997 8.21196C0.375709 8.43617 0.187287 8.65922 0 8.88227C0.0510783 9.28633 0.253121 9.08663 0.407491 8.9792C0.651532 8.8087 0.880817 8.61952 1.11691 8.43851C1.19183 8.38362 1.26561 8.3299 1.33939 8.27501C2.729 6.50457 4.68673 5.86982 6.58116 4.92927C6.61634 4.98416 6.65267 5.04022 6.68785 5.0951C4.71737 6.54901 3.34052 8.55062 1.88309 10.4787C1.9126 10.5219 1.94098 10.5662 1.97049 10.6094C3.13053 9.47318 4.28944 8.33574 5.44949 7.19947C5.81612 6.80709 6.18275 6.41588 6.59137 5.97913C6.68899 5.99664 6.6559 5.93358 6.89881 5.97913C6.83086 6.88795 4.01152 9.54663 3.38479 10.502C3.59206 10.7261 5.54605 8.96853 5.98184 8.51208C6.74592 7.77318 7.15741 7.29583 7.51419 6.28859C7.57889 6.51865 7.63451 6.7125 7.68899 6.90752C8.67196 6.21969 9.6538 5.53069 10.6368 4.84286L10.6947 4.93745C9.89103 6.09357 9.08627 7.24969 8.28263 8.40581C8.26788 8.44318 8.25426 8.48172 8.2395 8.51909C8.21112 8.55879 8.18388 8.59967 8.1555 8.63937C7.84903 9.26064 7.54256 9.88307 7.23609 10.5055C7.40967 10.456 7.52902 10.4141 7.66742 10.2976C7.46771 11.2154 6.87765 12.0869 6.52781 12.9579C6.57889 13.0011 6.6311 13.0431 6.68218 13.0863C6.87514 12.7699 7.06697 12.4522 7.25993 12.1358C8.17303 10.7788 9.171 9.54691 10.2145 8.28903C10.2701 8.25517 10.3258 8.22013 10.3814 8.18626C10.3598 8.26217 10.3383 8.33924 10.3167 8.41515C9.4864 10.345 8.7226 12.2033 8.1521 14.232H8.37457L9.99887 10.8488C10.2384 10.51 10.4527 10.1513 10.6765 9.80133C10.8343 9.5701 10.9909 9.33888 11.1487 9.10766C11.1816 9.12517 11.2145 9.14152 11.2474 9.15904C10.879 9.95393 10.6466 10.8591 10.4824 11.7189C10.2327 13.028 9.74461 14.2868 9.71169 15.6403C9.68445 15.7209 9.65721 15.8026 9.62997 15.8832C9.63337 15.9159 9.63905 15.9474 9.64586 15.979C9.67991 15.972 9.71056 15.979 9.73893 16C10.1828 14.5842 10.6469 13.1865 11.1351 11.7889C11.2463 11.4911 11.3587 11.1922 11.4711 10.8932L11.6005 10.9353C11.1993 12.2551 10.935 13.7099 11.0193 15.0973C11.0533 15.102 11.0885 15.1055 11.1226 15.1101C11.249 14.6665 11.3364 14.2179 11.4268 13.7648C11.8359 12.147 12.3719 10.6143 13.0454 9.09831C13.0908 9.11817 13.1373 9.13802 13.1839 9.15787C12.9875 9.66119 12.7923 10.1645 12.5959 10.6678C12.504 11.0007 12.412 11.3346 12.3201 11.6675C12.2974 11.7189 12.2736 11.7691 12.2497 11.8205C12.244 12.0131 12.2372 12.2058 12.2304 12.3985C12.2701 12.3868 12.3087 12.3763 12.3485 12.3646Z" fill="#3048EA"/>
</svg>
