<svg width="20" height="32" viewBox="0 0 20 32" fill="none" xmlns="http://www.w3.org/2000/svg">
<g clip-path="url(#clip0_700_6361)">
<path d="M8.32559 21.1631H1.41351C0.701394 24.2481 0.188528 27.7695 0 31.9996H9.7391C9.55057 27.7695 9.03771 24.2481 8.32559 21.1631Z" fill="#3048EA"/>
<path d="M6.30802 0H3.43097C3.19598 7.94614 2.62414 14.6603 1.71545 20.1405H8.02353C7.11485 14.6593 6.54301 7.94614 6.30802 0Z" fill="#3048EA"/>
<path d="M15.4074 31.9999H18.2845C18.5194 24.0538 19.0913 17.3397 20 11.8594H16.9219H16.77H13.6919C14.6006 17.3406 15.1724 24.0538 15.4074 31.9999Z" fill="#3048EA"/>
<path d="M17.2623 3.75586H16.4296V11.2702H17.2623V3.75586Z" fill="#3048EA"/>
<path d="M16.8459 0L16.4296 3.16651H17.2623L16.8459 0Z" fill="#3048EA"/>
</g>
<defs>
<clipPath id="clip0_700_6361">
<rect width="20" height="32" fill="white"/>
</clipPath>
</defs>
</svg>
