<svg width="32" height="18" viewBox="0 0 32 18" fill="none" xmlns="http://www.w3.org/2000/svg">
<path d="M9.05199 12.703C8.90607 12.7585 8.75886 12.8139 8.49699 12.9127C8.74322 12.5921 8.90477 12.381 9.06632 12.1699C9.16664 12.0387 9.26696 11.9061 9.36597 11.7748C9.39463 11.7329 9.4246 11.691 9.45326 11.6477C9.49104 11.5935 9.53013 11.5381 9.56791 11.4839L9.57572 11.4664C9.72294 11.2323 9.87146 10.9996 10.0578 10.7033C9.82065 10.6911 9.69949 10.6843 9.57833 10.6789C9.62263 10.5883 9.66562 10.4963 9.70991 10.4056C9.86755 10.1215 10.0252 9.83735 10.1828 9.55322C10.1255 9.51398 10.0695 9.47339 10.0122 9.43415C9.7972 9.71422 9.58093 9.99429 9.36597 10.2744C8.89826 10.7073 8.43055 11.1403 7.96283 11.5732C7.92635 11.5327 7.88987 11.4921 7.8534 11.4515C7.8573 11.3744 7.86121 11.2972 7.86512 11.2188C7.87554 11.1728 7.88597 11.1281 7.89639 11.0821C8.02537 10.959 8.15435 10.8345 8.28463 10.7114C8.3172 10.6099 8.34977 10.5084 8.38234 10.407C8.52305 10.2257 8.66245 10.0457 8.80315 9.86441C8.89956 9.69393 8.99597 9.5221 9.09107 9.35162C9.16534 9.23526 9.23829 9.1189 9.31255 9.00255C9.2878 8.98766 9.26435 8.97278 9.2396 8.9579C9.15491 9.0499 9.07153 9.14326 8.98685 9.23526C8.83833 9.40168 8.69111 9.56675 8.54259 9.73317C7.97716 10.2365 7.41174 10.7384 6.84632 11.2418C6.80202 11.2783 6.75772 11.3148 6.71343 11.3514C6.62744 11.4095 6.54015 11.4664 6.45417 11.5245C6.41248 11.5584 6.36948 11.5908 6.32779 11.6247C6.08156 11.7072 5.83533 11.7884 5.5891 11.8709C5.5891 11.8506 5.58128 11.8263 5.5904 11.8127C5.61255 11.7803 5.64121 11.7532 5.66857 11.7248C5.81448 11.6071 5.9617 11.4894 6.10762 11.373C6.61442 10.7804 7.12121 10.1864 7.62801 9.59381C7.95632 9.09049 8.28333 8.58582 8.61164 8.0825L8.454 7.97426C8.05664 8.42752 7.65928 8.88078 7.26192 9.33403C7.03132 9.54104 6.79942 9.74805 6.56882 9.95506C6.43853 10.0579 6.30695 10.1621 6.17667 10.2649C5.77931 10.4692 5.38325 10.6735 4.98589 10.8778C4.97547 10.848 4.96635 10.8169 4.95593 10.7872C5.30378 10.4733 5.65293 10.1594 6.00079 9.84682C6.3291 9.40574 6.65741 8.96331 6.98572 8.52223C7.03392 8.45458 7.08213 8.38693 7.13033 8.31928L6.99744 8.19751C6.96487 8.27463 6.9323 8.35175 6.89973 8.42887C6.56751 8.7333 6.23529 9.03637 5.90308 9.3408C5.1774 9.79811 4.45043 10.2541 3.72476 10.7114C3.68047 10.7019 3.63747 10.6911 3.59318 10.6816C3.86677 10.4164 4.13906 10.1499 4.41265 9.8847C4.50124 9.7954 4.58983 9.70611 4.67843 9.61816C5.30769 8.81312 5.93565 8.00809 6.56491 7.20305C6.50889 7.14893 6.45287 7.09346 6.39684 7.03934C6.11283 7.27882 5.82751 7.51966 5.5435 7.75914C5.50962 7.7889 5.47575 7.81867 5.44318 7.84843L5.42364 7.86061C5.37674 7.8985 5.32853 7.93773 5.28163 7.97562C5.11878 8.07439 4.95593 8.17451 4.79177 8.27328C4.74617 8.2381 4.70057 8.20428 4.65367 8.1691C4.79959 7.97426 4.9455 7.77943 5.09142 7.5846C5.04973 7.53454 5.00804 7.48312 4.96635 7.43306C4.42047 7.80785 3.87459 8.18263 3.33001 8.55741C3.28962 8.58853 3.24793 8.621 3.20754 8.65212C2.92744 8.79012 2.64733 8.92813 2.41543 9.04313C2.92483 8.48029 3.45638 7.89444 3.98793 7.30723C4.22114 7.01093 4.45434 6.71462 4.68755 6.41831C4.64455 6.38178 4.60156 6.3439 4.55857 6.30737C4.31233 6.54144 4.0661 6.77686 3.81856 7.01093C3.743 7.02716 3.66874 7.04205 3.59318 7.05828C3.57363 7.04881 3.55149 7.0434 3.53585 7.03122C3.52152 7.01905 3.50198 6.98793 3.50589 6.98387C3.62314 6.84451 3.7417 6.70786 3.86025 6.56985C3.82638 6.52655 3.79251 6.48461 3.75863 6.44132C3.44987 6.63885 3.1398 6.83639 2.83103 7.03393C2.6812 7.14758 2.53008 7.26123 2.38025 7.37488L2.36331 7.39247C2.0324 7.51424 1.70279 7.63601 1.37187 7.75914C1.33278 7.7862 1.2937 7.81461 1.25462 7.84167C0.949756 7.92962 0.644896 8.01891 0.340036 8.10686C0.340036 8.06356 0.340036 8.02027 0.340036 7.97562C0.510705 7.8755 0.682678 7.77402 0.853347 7.6739C0.94715 7.61166 1.03965 7.55078 1.13345 7.48854C1.47609 7.23147 1.81874 6.9744 2.16007 6.71733C2.19655 6.68621 2.23303 6.65374 2.26821 6.62262C2.31772 6.57526 2.36853 6.52791 2.41803 6.48055C2.46884 6.4359 2.51965 6.39125 2.57177 6.3466L2.61997 6.32766C2.73201 6.20183 2.84405 6.076 2.95479 5.95018C3.16846 5.68363 3.38342 5.41709 3.59708 5.15055C3.63356 5.09914 3.67004 5.04908 3.70652 4.99766C3.72997 4.95978 3.75212 4.92054 3.77557 4.88266C4.0674 4.37664 4.35793 3.87061 4.65758 3.35106C4.23937 3.74208 3.85635 4.10198 3.47332 4.46187C3.29483 4.60123 3.11634 4.74195 2.93916 4.8813C2.89226 4.91919 2.84536 4.95572 2.79846 4.9936C2.71508 5.05043 2.63039 5.1059 2.54701 5.16273C2.50402 5.19791 2.45972 5.23309 2.41673 5.26826C2.15617 5.31291 1.8943 5.35891 1.63374 5.40356C1.76532 5.34674 1.8956 5.28991 2.02719 5.23308C2.00504 5.18979 1.98159 5.14649 1.95944 5.1032C1.80831 5.20332 1.65588 5.30344 1.50476 5.40221C1.46437 5.41709 1.42398 5.43062 1.38359 5.44551C1.25201 5.52127 1.11912 5.5984 0.987537 5.67416C0.89634 5.71611 0.805142 5.7594 0.715248 5.80135H0.717854C0.478135 5.85547 0.239719 5.91229 0 5.96776C1.23247 5.08831 2.31641 4.09656 3.13068 2.8058C3.20754 2.6678 3.28441 2.53114 3.44987 2.23213C3.21666 2.39314 3.13458 2.44861 3.05251 2.50543C2.80497 2.62856 2.55743 2.75168 2.3086 2.87616L2.31511 2.89916C2.30338 2.81798 2.29166 2.7368 2.28124 2.65562C2.31902 2.62179 2.3568 2.58797 2.39458 2.55279L2.41282 2.53926C2.45581 2.50002 2.49881 2.46214 2.5418 2.4229C2.5874 2.37961 2.6343 2.33496 2.6799 2.29166C2.72941 2.24566 2.78022 2.1983 2.82972 2.1523C2.8636 2.12118 2.89747 2.09142 2.93134 2.0603C3.06293 1.93853 3.19321 1.81676 3.37691 1.64493C3.13458 1.62328 2.97564 1.6084 2.8167 1.59351C3.0512 1.46227 3.28441 1.33103 3.38342 1.27556C3.43163 0.820949 3.35215 0.375812 3.52804 0.18098C3.88631 -0.215449 4.2524 0.125507 4.59244 0.385283C6.0998 1.53804 7.57329 2.74627 9.1484 3.79214C9.9809 4.34552 10.9945 4.60529 11.926 4.99766C11.9677 5.02202 12.0107 5.04637 12.0524 5.07072C12.5722 5.22767 13.0933 5.38462 13.6132 5.54157C13.7018 5.57404 13.7916 5.60787 13.8802 5.64034C14.9017 5.79187 15.9244 5.94476 16.9458 6.0963C17.0956 6.12201 17.2454 6.14907 17.3965 6.17477C17.833 6.22213 18.2694 6.26813 18.7059 6.31549C18.8349 6.31549 18.9625 6.31549 19.0915 6.31549H22.4841C22.6182 6.28437 22.7524 6.25189 22.8853 6.22078C23.056 6.20589 23.2254 6.19236 23.396 6.17748C23.4924 6.14907 23.5875 6.12065 23.684 6.09224C23.8051 6.07736 23.9263 6.06247 24.0461 6.04759L24.3106 5.94747C25.0923 5.74723 25.874 5.54698 26.6557 5.34674C26.6987 5.32103 26.743 5.29668 26.786 5.27097C27.0048 5.19926 27.2237 5.12755 27.4426 5.05584C27.4778 5.03555 27.5142 5.01525 27.5494 4.9936C27.9468 4.83801 28.3441 4.68241 28.7415 4.52817C28.7832 4.50517 28.8262 4.48082 28.8679 4.45782C29.6066 4.18992 30.3453 3.92338 31.084 3.65549C31.2169 3.60948 31.351 3.56213 31.4839 3.51613C31.7862 3.4823 32.035 3.51883 31.9959 3.9342C31.9647 3.97615 31.9334 4.01809 31.9021 4.05868L31.8696 4.08845C31.8305 4.12227 31.7914 4.1561 31.7523 4.18992C31.6572 4.2481 31.5621 4.30628 31.467 4.36446C31.4253 4.39558 31.3849 4.42534 31.3432 4.45646C31.2546 4.50652 31.166 4.55658 31.0775 4.60665C31.0253 4.64318 30.9745 4.67835 30.9224 4.71489C30.9068 4.81095 30.8456 4.95031 30.8846 4.99496C31.2038 5.36568 31.5413 5.71881 31.8735 6.07736C31.738 6.03677 31.6012 5.99482 31.4657 5.95288L31.4579 5.94747L31.3341 5.83246C31.1973 5.73505 31.0605 5.63628 30.9237 5.53886C30.8195 5.49963 30.7166 5.46039 30.6124 5.4225C30.6306 5.4631 30.6488 5.50368 30.6671 5.54292C30.8625 5.892 31.0579 6.23972 31.2533 6.58879L31.3471 6.75521C31.4383 7.25041 31.5282 7.74561 31.6194 8.24216C31.5986 8.28004 31.5908 8.32199 31.596 8.36528C31.3055 7.91338 31.0162 7.46148 30.7257 7.00957C30.5798 6.85939 30.4339 6.70786 30.2879 6.55767C30.2502 6.59962 30.2111 6.64021 30.1733 6.68215L30.4169 7.02987C30.43 7.07452 30.443 7.11781 30.456 7.16246C30.486 7.21794 30.5159 7.27341 30.5459 7.32753C30.5681 7.40871 30.5902 7.48989 30.6137 7.57107C30.6397 7.61301 30.6658 7.65496 30.6905 7.6969L30.9863 8.78742C30.9863 8.87672 30.9863 8.96466 30.9863 9.05396C30.9758 9.15814 30.9641 9.26367 30.9537 9.36786C30.9094 9.35297 30.8638 9.33809 30.8195 9.32321C30.8039 9.23391 30.7882 9.14326 30.7726 9.05396C30.7452 9.0066 30.7179 8.95925 30.6905 8.91325C30.3557 8.27869 30.0209 7.64413 29.6847 7.00822C29.4085 6.65915 29.1336 6.31143 28.8575 5.96235C28.8106 6.0043 28.7623 6.04624 28.7154 6.08818C28.9747 6.50897 29.234 6.92975 29.4932 7.35053C29.6926 7.92014 29.8906 8.49111 30.0899 9.06073C30.1121 9.11079 30.1355 9.16085 30.1577 9.21226C30.2124 9.4761 30.2684 9.74128 30.3231 10.0051C30.3518 10.1012 30.3804 10.1972 30.4091 10.2933L30.4065 10.2852C30.4221 10.4218 30.4378 10.5585 30.4534 10.6951C30.4378 10.8467 30.4221 10.9982 30.3896 11.3189C30.3114 11.055 30.2749 10.9333 30.2397 10.8115C30.215 10.7655 30.1915 10.7195 30.1668 10.6749C29.9909 10.2257 29.8163 9.77781 29.6404 9.32862C29.4633 8.81177 29.2535 8.31928 28.7806 8.01756C28.9812 8.54523 29.1819 9.0729 29.3825 9.60057C29.3955 9.69122 29.4072 9.78052 29.4203 9.87117C29.4463 9.928 29.4724 9.98347 29.4997 10.0403C29.5167 10.1648 29.5336 10.2892 29.5506 10.4124C29.5818 10.5003 29.6131 10.5896 29.6444 10.6776C29.6587 10.8156 29.6743 10.9536 29.6887 11.0902C29.716 11.1795 29.7447 11.2702 29.772 11.3595C29.7825 11.4934 29.7929 11.6274 29.8046 11.76C29.789 11.8493 29.7733 11.9372 29.7577 12.0265C29.5844 11.534 29.4098 11.0402 29.2366 10.5477C28.9408 9.84411 28.6438 9.1392 28.348 8.43564C28.2933 8.45864 28.2373 8.48299 28.1826 8.50599C28.4106 9.1852 28.6373 9.86576 28.8653 10.545C28.9239 10.9076 28.9812 11.2702 29.0398 11.6328C29.0672 11.7667 29.0959 11.9007 29.1232 12.036V13.6839L29.0568 13.6975C29.0216 13.5486 28.9877 13.3984 28.9526 13.2496C28.9239 13.1576 28.8952 13.0656 28.8666 12.9722C28.5174 12.0279 28.1696 11.0848 27.8204 10.1404C27.2237 9.30968 26.627 8.47893 25.9587 7.54942C26.1802 8.35175 26.3534 8.97954 26.5267 9.60734C26.3652 9.33538 26.2036 9.06343 26.0421 8.79283L25.9365 8.83613L26.2336 9.87658C26.2531 10.0105 26.2727 10.1445 26.2909 10.2784C26.3196 10.3745 26.3495 10.4706 26.3782 10.5666C26.4407 11.0334 26.5033 11.4988 26.5671 11.9656C26.5619 12.1239 26.558 12.2822 26.5528 12.4392V14.0019C26.5202 14.0059 26.4876 14.01 26.4551 14.0154C26.2935 13.2699 26.132 12.5258 25.9691 11.7816C25.9443 11.7275 25.9209 11.6734 25.8961 11.6192C25.5561 10.8169 25.2148 10.0159 24.8747 9.21361L24.8539 9.19197C24.8122 9.13243 24.7705 9.07425 24.7288 9.01472C24.7002 8.94437 24.6715 8.87266 24.6441 8.8023C24.6181 8.81583 24.592 8.82801 24.566 8.84154C24.6064 8.91595 24.6454 8.99037 24.6858 9.06478C24.6806 9.07967 24.6689 9.0959 24.6715 9.10943C24.6767 9.13785 24.6897 9.16626 24.7002 9.19332C24.7184 9.30426 24.7366 9.41656 24.7562 9.52751C24.8839 10.411 25.0102 11.2932 25.1379 12.1767C25.1327 12.2633 25.1288 12.3499 25.1236 12.4365C25.1184 12.5271 25.1118 12.6191 25.1066 12.7098C25.0962 12.9276 25.0858 13.1454 25.0767 13.3633C24.8526 12.4703 24.6285 11.5773 24.4044 10.6843C24.2976 10.4029 24.1908 10.1215 24.0852 9.84005C24.0292 9.8617 23.9719 9.88335 23.9159 9.905L24.1777 10.8142C24.1842 10.9049 24.1908 10.9955 24.1973 11.0862C24.1999 11.2201 24.2012 11.3554 24.2038 11.4894C24.252 11.852 24.3015 12.2159 24.3497 12.5785C24.3458 12.7558 24.3432 12.9344 24.3393 13.1116C24.3393 13.7002 24.3393 14.2874 24.3393 14.8759C24.3393 15.1452 24.3367 15.4144 24.3354 15.6823C24.3132 15.9245 24.2924 16.1667 24.2702 16.4102C24.2403 16.4102 24.209 16.4129 24.179 16.4143C24.1191 15.7635 24.0592 15.114 24.0005 14.4633C23.9784 14.401 23.9562 14.3388 23.9341 14.2765C23.7335 13.481 23.5315 12.6854 23.3309 11.8898C23.3074 11.8506 23.2827 11.8114 23.2592 11.7721C23.1693 11.5435 23.0794 11.3148 22.9896 11.0862C22.8905 10.8345 22.7902 10.5829 22.6287 10.1715V11.0605C22.6547 11.2526 22.6821 11.4434 22.7081 11.6355C22.7107 12.0806 22.7121 12.5244 22.7147 12.9695C22.6417 12.9709 22.5687 12.9722 22.4958 12.975C22.4033 12.2944 22.3121 11.6152 22.2196 10.9346C22.1479 10.9427 22.075 10.9509 22.0033 10.959C22.0437 11.8127 22.0841 12.6651 22.1258 13.5189C22.0828 13.9721 22.0385 14.4254 21.9955 14.8773C21.989 15.1019 21.9838 15.3265 21.9773 15.5511C21.9668 15.6268 21.9564 15.7026 21.946 15.7784C21.9173 15.8826 21.8887 15.9854 21.86 16.0896C21.8431 16.2086 21.8274 16.3277 21.8105 16.4468C21.7675 16.5956 21.7245 16.7458 21.6802 16.8946C21.6294 16.8405 21.5356 16.7864 21.5356 16.7322C21.533 15.9773 21.5434 15.2223 21.5512 14.4673C21.5499 14.3767 21.5486 14.286 21.5473 14.1954C21.5434 14.1494 21.5395 14.1047 21.5356 14.0587C21.5043 14.0127 21.4731 13.9681 21.4418 13.9221C21.391 13.5622 21.3415 13.2036 21.2907 12.8437C21.2438 12.7571 21.1969 12.6719 21.15 12.5853C21.1239 12.6719 21.0979 12.7585 21.0718 12.8437C21.0523 12.9668 21.034 13.0913 20.9988 13.3146C20.9037 13.0047 20.8373 12.7882 20.7722 12.5718C20.7239 12.3242 20.6757 12.0779 20.6275 11.8303C20.6015 11.8357 20.5767 11.8425 20.5507 11.8479V12.4392C20.5376 13.0507 20.5233 13.6623 20.5103 14.2725C20.4868 14.3807 20.4647 14.489 20.4412 14.5972C20.4191 14.7325 20.3982 14.8678 20.3761 15.0031C20.307 15.0031 20.238 15.0031 20.1676 15.0018C20.0973 14.01 20.0256 13.0183 19.9553 12.0265C19.9357 11.9751 19.9175 11.9237 19.898 11.8723L19.9006 11.8804C19.8354 11.5665 19.7703 11.2526 19.7051 10.9387L19.5084 10.9671V11.898L19.1267 15.1465C19.1267 15.2345 19.1267 15.3238 19.1267 15.4117C19.0681 15.8568 19.0081 16.3033 18.9495 16.7485C18.8818 16.762 18.814 16.7742 18.7463 16.7864C18.7658 16.6484 18.7867 16.5103 18.8062 16.3737C18.8075 15.6904 18.8127 15.0058 18.801 14.3225C18.801 14.2847 18.6525 14.2495 18.573 14.213L18.1027 12.3106C18.0336 12.3147 17.9646 12.3201 17.8955 12.3242C17.8955 13.2902 17.8955 14.2576 17.8955 15.2236C17.8343 15.4185 17.7731 15.6133 17.7483 15.6918C17.6363 14.6229 17.5138 13.462 17.3913 12.3012C17.3783 12.1956 17.3666 12.0901 17.3536 11.9846C17.3314 11.9873 17.308 11.9886 17.2858 11.9913V12.3012C17.205 12.7071 17.1243 13.1143 17.0435 13.5202C17.0435 13.6082 17.0461 13.6975 17.0474 13.7854C16.9914 14.1453 16.934 14.5052 16.878 14.8651C16.8481 14.9557 16.8181 15.0464 16.7881 15.1371C16.7738 15.2683 16.7582 15.3995 16.7438 15.5308C16.7139 15.6255 16.6839 15.7202 16.6539 15.8136C16.5979 16.1261 16.5406 16.44 16.4846 16.7525C16.4624 16.7985 16.4403 16.8459 16.4168 16.8919C16.3934 17.0191 16.3686 17.1449 16.3452 17.2721C16.3191 17.3276 16.2918 17.383 16.2657 17.4372C16.1849 17.6252 16.1055 17.8119 16.0247 18C15.9869 17.9892 15.9478 17.9784 15.91 17.9689C15.9348 17.7632 15.9595 17.5576 15.983 17.3533C16.0064 17.2491 16.0312 17.1436 16.0546 17.0394C16.0612 16.4522 16.0677 15.8636 16.0742 15.2764C16.0742 15.1858 16.0742 15.0951 16.0742 15.0045C16.069 14.8678 16.0651 14.7325 16.0599 14.5959C16.0299 14.5498 15.9986 14.5038 15.9687 14.4565C15.9582 14.0073 15.9478 13.5581 15.9374 13.1089C15.9048 13.0602 15.8736 13.0101 15.841 12.9614C15.8306 12.6949 15.8214 12.4283 15.811 12.1618C15.7771 12.0251 15.742 11.8885 15.7081 11.7518C15.699 11.6666 15.6899 11.5814 15.6912 11.5895C15.2795 12.5542 14.8417 13.5784 14.4053 14.6026C14.348 14.5566 14.2919 14.5106 14.2346 14.466C14.3336 14.1047 14.4326 13.7421 14.5316 13.3809C14.6385 12.8924 14.7453 12.4053 14.8521 11.9169C14.8026 11.9047 14.7531 11.8926 14.7036 11.8804C14.559 12.3323 14.4131 12.7828 14.2685 13.2347C14.0535 13.738 13.8385 14.24 13.6249 14.7433C13.6001 14.7839 13.5754 14.8232 13.5493 14.8637C13.5311 14.9138 13.5115 14.9625 13.4933 15.0126C13.4633 15.0545 13.4321 15.0965 13.4021 15.1371C13.3878 15.1831 13.3747 15.2291 13.3604 15.2737C13.3318 15.3184 13.3018 15.3616 13.2731 15.4063C12.9917 15.8623 12.7103 16.3169 12.4289 16.7728C12.4028 16.7579 12.3755 16.7431 12.3494 16.7295C12.4315 16.4725 12.5149 16.214 12.597 15.957C12.6647 15.7743 12.7312 15.5903 12.7989 15.4077C12.8966 14.9125 12.993 14.4173 13.0907 13.9221V13.4296C13.0608 13.4214 13.0295 13.4133 12.9995 13.4052C12.9474 13.5324 12.894 13.6596 12.8419 13.7881V13.7895C12.8132 13.8328 12.7859 13.8761 12.7572 13.9194C12.61 14.2332 12.4641 14.5471 12.3169 14.861C12.2856 14.9084 12.2543 14.9557 12.2218 15.0031C12.167 15.0924 12.1123 15.1803 12.0563 15.2696C11.9755 15.2696 11.8934 15.2696 11.8127 15.2696C11.9898 14.6621 12.167 14.056 12.3442 13.4485C12.369 13.3809 12.3937 13.3146 12.4185 13.2469C12.4237 13.2023 12.4276 13.1563 12.4328 13.1116C12.438 13.0656 12.4419 13.021 12.4471 12.975C12.455 12.933 12.4615 12.8897 12.4693 12.8478C12.5162 12.4622 12.5618 12.0766 12.6087 11.691C12.5657 11.6883 12.5227 11.6855 12.4797 11.6828C12.3208 11.9156 12.1618 12.1469 12.0029 12.3796C11.9625 12.3377 11.9221 12.2957 11.883 12.2538C12.1501 11.5665 12.4172 10.8792 12.6829 10.1918C12.6308 10.1729 12.5787 10.1539 12.5266 10.1337L11.2381 12.4297C11.2082 12.4771 11.1769 12.5231 11.1469 12.5704C11.1131 12.6151 11.0792 12.6597 11.0453 12.7044C10.6532 13.1874 10.2597 13.6704 9.86756 14.1534C9.81414 14.1196 9.75942 14.0858 9.70601 14.0519C10.0135 13.3321 10.3196 12.6137 10.6271 11.8939C10.7795 11.5164 10.932 11.1403 11.0844 10.7628L10.9085 10.6667C10.6857 10.9455 10.4616 11.2255 10.2389 11.5042C9.8897 11.8601 9.54055 12.2159 9.1927 12.5718C9.14449 12.6151 9.09759 12.6584 9.04938 12.7016L9.05199 12.703ZM5.30899 7.47365C5.25557 7.39653 5.21128 7.30453 5.19174 7.30994C5.11878 7.32888 5.03409 7.36677 4.9924 7.4263C4.97416 7.45336 5.04843 7.54942 5.07969 7.61301C5.14744 7.57107 5.21649 7.53048 5.30899 7.47365Z" fill="currentColor"/>
</svg>
