<svg width="14" height="32" viewBox="0 0 14 32" fill="none" xmlns="http://www.w3.org/2000/svg">
<path d="M3.44446 23.1113H10.5556V30.0002C10.5556 31.1048 9.66014 32.0002 8.55557 32.0002H5.44446C4.33989 32.0002 3.44446 31.1048 3.44446 30.0002V23.1113Z" fill="currentColor"/>
<path d="M3.88809 21.7222L1.34142 0.5H12.6587L10.112 21.7222H3.88809Z" stroke="currentColor"/>
<path d="M3.88892 9.5647C4.07725 9.20753 4.32304 8.91011 4.61534 8.66662C5.3422 8.06096 6.14955 7.87755 7.02458 8.0776C7.56497 8.2011 8.10378 8.33441 8.64402 8.45874C8.90637 8.51916 9.17247 8.52748 9.43942 8.5115C9.62863 8.50018 9.81797 8.49069 10.0075 8.48787C10.0406 8.48737 10.0888 8.51433 10.1039 8.54545C10.1278 8.59488 10.0877 8.6285 10.0507 8.65447C9.72438 8.88298 9.37549 9.03377 8.99248 9.07156C8.96642 9.07405 8.93143 9.09486 8.91861 9.11965C8.53056 9.86878 7.95259 10.3202 7.23178 10.5362C7.01277 10.6018 6.78368 10.6229 6.55891 10.6628C6.51212 10.6712 6.45999 10.6722 6.4551 10.5984C6.45035 10.5254 6.50463 10.5207 6.5497 10.5126C6.94149 10.442 7.31471 10.3083 7.65899 10.0773C8.01839 9.83616 8.30968 9.51411 8.52077 9.09868C8.52667 9.0872 8.53128 9.07472 8.53963 9.05524C7.96339 8.95405 7.44128 8.6553 6.88087 8.51233C5.75963 8.22606 4.82211 8.5854 4.07409 9.59333C3.99633 9.69818 3.94666 9.69602 3.88892 9.58118V9.56454V9.5647Z" fill="currentColor"/>
</svg>
