<svg width="22" height="34" viewBox="0 0 22 34" fill="none" xmlns="http://www.w3.org/2000/svg">
<path d="M19.2853 18.1426H2.71387C1.6093 18.1426 0.713867 19.038 0.713867 20.1426V30.9997C0.713867 32.1043 1.6093 32.9997 2.71387 32.9997H19.2853C20.3899 32.9997 21.2853 32.1043 21.2853 30.9997V20.1426C21.2853 19.038 20.3899 18.1426 19.2853 18.1426Z" stroke="#3048EA" stroke-miterlimit="10"/>
<path d="M19.2853 1H2.71387C1.6093 1 0.713867 1.89543 0.713867 3V13.8571C0.713867 14.9617 1.6093 15.8571 2.71387 15.8571H19.2853C20.3899 15.8571 21.2853 14.9617 21.2853 13.8571V3C21.2853 1.89543 20.3899 1 19.2853 1Z" stroke="#3048EA" stroke-miterlimit="10"/>
<path d="M17.9998 3.28613H3.99976C3.44747 3.28613 2.99976 3.73385 2.99976 4.28613V12.5718C2.99976 13.1241 3.44747 13.5718 3.99976 13.5718H17.9998C18.552 13.5718 18.9998 13.1241 18.9998 12.5718V4.28613C18.9998 3.73385 18.552 3.28613 17.9998 3.28613Z" stroke="#3048EA" stroke-miterlimit="10"/>
<path d="M2.99976 22.562C2.99976 23.7403 3.95488 24.6954 5.13309 24.6954C6.3113 24.6954 7.26642 23.7403 7.26642 22.562C7.26642 21.3838 6.3113 20.4287 5.13309 20.4287C3.95488 20.4287 2.99976 21.3838 2.99976 22.562Z" stroke="#3048EA" stroke-miterlimit="10"/>
<path d="M2.99976 28.9624C2.99976 30.1406 3.95488 31.0958 5.13309 31.0958C6.3113 31.0958 7.26642 30.1406 7.26642 28.9624C7.26642 27.7842 6.3113 26.8291 5.13309 26.8291C3.95488 26.8291 2.99976 27.7842 2.99976 28.9624Z" stroke="#3048EA" stroke-miterlimit="10"/>
<path d="M9.39966 22.562C9.39966 23.7403 10.3548 24.6954 11.533 24.6954C12.7112 24.6954 13.6663 23.7403 13.6663 22.562C13.6663 21.3838 12.7112 20.4287 11.533 20.4287C10.3548 20.4287 9.39966 21.3838 9.39966 22.562Z" stroke="#3048EA" stroke-miterlimit="10"/>
<path d="M9.39966 28.9624C9.39966 30.1406 10.3548 31.0958 11.533 31.0958C12.7112 31.0958 13.6663 30.1406 13.6663 28.9624C13.6663 27.7842 12.7112 26.8291 11.533 26.8291C10.3548 26.8291 9.39966 27.7842 9.39966 28.9624Z" stroke="#3048EA" stroke-miterlimit="10"/>
<rect x="16.7139" y="20.4287" width="2.28538" height="10.6667" rx="1.14269" stroke="#3048EA"/>
<line x1="16.7141" y1="23.3418" x2="18.9995" y2="23.3418" stroke="#3048EA"/>
<line x1="16.7141" y1="27.6084" x2="18.9995" y2="27.6084" stroke="#3048EA"/>
<line x1="3.49976" y1="15.8574" x2="3.49976" y2="18.1431" stroke="#3048EA"/>
<line x1="16.071" y1="15.8574" x2="16.071" y2="18.1431" stroke="#3048EA"/>
<line x1="5.78516" y1="15.8574" x2="5.78516" y2="18.1431" stroke="#3048EA"/>
<line x1="18.3567" y1="15.8574" x2="18.3567" y2="18.1431" stroke="#3048EA"/>
<path d="M3.73828 13.167L11.7383 5.16699" stroke="#3048EA" stroke-linecap="round"/>
<path d="M13.2852 9L17.8566 4.42857" stroke="#3048EA" stroke-linecap="round"/>
<path d="M10.9998 11.2861L12.1426 10.1433" stroke="#3048EA" stroke-linecap="round"/>
</svg>
