<svg width="120" height="120" viewBox="0 0 120 120" fill="none" xmlns="http://www.w3.org/2000/svg">
<path d="M98.9846 77.1123C98.9846 100.247 85.5261 119 61.5883 119C37.6504 119 24.1919 100.247 24.1919 77.1123C24.1919 53.978 40.9339 35.2246 61.5883 35.2246C82.2427 35.2246 98.9846 53.978 98.9846 77.1123Z" stroke="#3048EA" stroke-miterlimit="10"/>
<path d="M36.1841 22.6271C31.5149 23.1399 23.9255 30.5255 20.8619 33.8682C12.8315 42.6318 10.2616 53.1336 10 59.2958C9.99579 64.8011 11.6035 68.4115 14.0236 71.711C16.0386 74.3617 21.5624 77.7332 24.2462 78.9339C26.7064 63.207 36.2348 55.7801 48.4913 47.34C39.7393 40.8543 37.0555 26.6474 36.1862 22.625L36.1841 22.6271Z" fill="#B9BCFF" stroke="#3048EA" stroke-miterlimit="10"/>
<path d="M49.1479 86.3189C50.7892 86.2458 52.0147 83.9363 51.8851 81.1603C51.7554 78.3843 50.3198 76.1932 48.6784 76.2662C47.0371 76.3392 45.8116 78.6488 45.9413 81.4248C46.0709 84.2007 47.5066 86.3919 49.1479 86.3189Z" fill="#3048EA"/>
<path d="M71.3974 85.3286C73.0387 85.2556 74.2642 82.946 74.1346 80.1701C74.005 77.3941 72.5693 75.2029 70.928 75.276C69.2866 75.349 68.0611 77.6586 68.1908 80.4345C68.3204 83.2105 69.7561 85.4017 71.3974 85.3286Z" fill="#3048EA"/>
<path d="M50.1519 8.73344C47.9787 8.45128 41.1425 9.87651 36.1504 13.7712C30.709 18.018 31.3525 23.4018 31.6922 26.2069C34.9752 53.2801 94.7725 62.6409 98.7813 73.153C118.509 60.8655 108.388 40.7702 97.5154 34.2372C90.1412 29.8071 96.5069 23.8466 86.6556 12.2739C85.7948 11.2647 79.9587 4.42274 67.7254 1.58876C64.358 0.808176 60.7268 0.571324 57.1653 2.35698C54.1481 3.87077 50.9726 6.66768 50.1498 8.73138L50.1519 8.73344Z" fill="#B9BCFF" stroke="#3048EA" stroke-miterlimit="10" stroke-linejoin="round"/>
<path d="M50.2339 8.73438L50.8584 12.6352C50.8626 12.6599 50.8669 12.6867 50.8711 12.7114C51.4956 16.534 53.7321 19.9282 57.0004 22.1175L59.3846 23.7158" stroke="#3048EA" stroke-miterlimit="10" stroke-linecap="round" stroke-linejoin="round"/>
<path d="M69.6434 2.03516C69.0822 5.55704 69.7426 9.1613 71.5951 12.3022C73.454 15.4554 76.161 18.2873 79.5073 20.8803L97.5134 34.2367" stroke="#3048EA" stroke-miterlimit="10" stroke-linejoin="round"/>
</svg>
