<svg width="120" height="121" viewBox="0 0 120 121" fill="none" xmlns="http://www.w3.org/2000/svg">
<path d="M38.9549 88.0185C42.5239 88.0234 45.1971 90.5349 45.1873 93.8745C45.1775 97.1917 42.4262 99.9867 39.0103 99.9451C35.5357 99.9019 32.7274 97.4448 32.7388 93.8601C32.7502 90.2946 35.5862 87.7462 38.9565 88.0201L38.9549 88.0185Z" fill="#B9BCFF"/>
<path d="M84.6898 88.2139C88.2588 88.2187 90.9319 90.7302 90.9221 94.0698C90.9124 97.387 88.1611 100.182 84.7451 100.14C81.2706 100.097 78.4623 97.6401 78.4737 94.0554C78.4851 90.4899 81.3211 87.9416 84.6914 88.2155L84.6898 88.2139Z" fill="#B9BCFF"/>
<path d="M98.9846 77.1123C98.9846 100.247 85.5261 119 61.5883 119C37.6504 119 24.1919 100.247 24.1919 77.1123C24.1919 53.978 40.9339 35.2246 61.5883 35.2246C82.2427 35.2246 98.9846 53.978 98.9846 77.1123Z" stroke="#3048EA" stroke-miterlimit="10"/>
<path d="M36.1841 22.6271C31.5149 23.1399 23.9255 30.5255 20.8619 33.8682C12.8315 42.6318 10.2616 53.1336 10 59.2958C9.99579 64.8011 11.6035 68.4115 14.0236 71.711C16.0386 74.3617 21.5624 77.7332 24.2462 78.9339C26.7064 63.207 36.2348 55.7801 48.4913 47.34C39.7393 40.8543 37.0555 26.6474 36.1862 22.625L36.1841 22.6271Z" fill="#B9BCFF" stroke="#3048EA" stroke-miterlimit="10"/>
<path d="M50.1519 8.73344C47.9787 8.45128 41.1425 9.87651 36.1504 13.7712C30.709 18.018 31.3525 23.4018 31.6922 26.2069C34.9752 53.2801 94.7725 62.6409 98.7813 73.153C118.509 60.8655 108.388 40.7702 97.5154 34.2372C90.1412 29.8071 96.5069 23.8466 86.6556 12.2739C85.7948 11.2647 79.9587 4.42274 67.7254 1.58876C64.358 0.808176 60.7268 0.571324 57.1653 2.35698C54.1481 3.87077 50.9726 6.66768 50.1498 8.73138L50.1519 8.73344Z" fill="#B9BCFF" stroke="#3048EA" stroke-miterlimit="10" stroke-linejoin="round"/>
<path d="M50.2339 8.73438L50.8584 12.6352C50.8626 12.6599 50.8669 12.6867 50.8711 12.7114C51.4956 16.534 53.7321 19.9282 57.0004 22.1175L59.3846 23.7158" stroke="#3048EA" stroke-miterlimit="10" stroke-linecap="round" stroke-linejoin="round"/>
<path d="M69.6434 2.03516C69.0822 5.55704 69.7426 9.1613 71.5951 12.3022C73.454 15.4554 76.161 18.2873 79.5073 20.8803L97.5134 34.2367" stroke="#3048EA" stroke-miterlimit="10" stroke-linejoin="round"/>
</svg>
