<svg width="14" height="32" viewBox="0 0 14 32" fill="none" xmlns="http://www.w3.org/2000/svg">
<path d="M7.00697 0C9.08356 0 11.1601 0 13.2367 0C13.3711 0 13.5056 0 13.6354 0.0446675C13.8801 0.126558 14.019 0.305228 13.9979 0.558343C13.9375 1.33258 13.865 2.10682 13.7985 2.88105C13.7125 3.8816 13.6309 4.88364 13.5418 5.88271C13.3802 7.67536 13.2624 9.47099 13.0857 11.2622C12.8984 13.1546 12.7097 15.0455 12.5541 16.9409C12.4287 18.4581 12.2868 19.9738 12.1841 21.4925C12.1071 22.6524 11.9817 23.8078 11.8715 24.9647C11.8292 25.4173 11.6736 25.5662 11.2115 25.5811C10.7252 25.596 10.2374 25.5915 9.75108 25.5855C9.58344 25.5826 9.50944 25.6421 9.45658 25.8029C8.85702 27.606 8.24839 29.4076 7.64278 31.2092C7.60503 31.3223 7.57633 31.4399 7.53706 31.5531C7.44494 31.8241 7.21236 32.0072 6.97978 31.9998C6.76382 31.9923 6.54936 31.8003 6.46026 31.5293C6.20956 30.7744 5.97396 30.0136 5.70514 29.2646C5.28378 28.0944 4.94397 26.8958 4.50902 25.73C4.46674 25.6183 4.41237 25.5855 4.30061 25.587C3.80072 25.5915 3.30083 25.59 2.80094 25.59C2.35088 25.59 2.18023 25.456 2.1319 25.0138C2.06243 24.3736 2.03222 23.7289 1.95671 23.0901C1.8223 21.9347 1.78454 20.7719 1.66372 19.6165C1.57764 18.7931 1.53233 17.9667 1.45984 17.1434C1.37225 16.1428 1.27257 15.1438 1.18044 14.1432C1.07926 13.0489 0.994685 11.953 0.875376 10.8602C0.737943 9.59755 0.671492 8.329 0.558224 7.06491C0.479691 6.18347 0.419282 5.30203 0.342259 4.42059C0.236542 3.21308 0.123274 2.00706 0.00849507 0.799548C-0.0458737 0.227804 0.156499 0 0.737943 0C2.82812 0 4.91679 0 7.00697 0ZM6.99942 4.77346C6.99942 4.77346 6.99942 4.77942 6.99942 4.7824C6.21107 4.7824 5.42272 4.7824 4.63437 4.7824C3.63459 4.7824 2.63481 4.78538 1.63503 4.77495C1.45078 4.77346 1.40245 4.83153 1.42057 5.00127C1.44927 5.26481 1.44776 5.53132 1.47947 5.79486C1.62597 7.03662 1.69393 8.28582 1.84193 9.52906C1.92349 10.2184 1.94614 10.9152 2.01712 11.6061C2.147 12.8761 2.24064 14.1477 2.34786 15.4192C2.42187 16.2873 2.48681 17.1568 2.56383 18.0248C2.64085 18.8929 2.73147 19.7594 2.80547 20.6274C2.81906 20.7808 2.87796 20.815 3.01841 20.815C5.67795 20.8136 8.339 20.815 10.9985 20.8195C11.1435 20.8195 11.1858 20.7674 11.1949 20.6349C11.2221 20.2373 11.2583 19.8413 11.2961 19.4452C11.4018 18.3137 11.5166 17.1821 11.6162 16.0505C11.6963 15.1319 11.7552 14.2117 11.8307 13.293C11.9228 12.1793 12.021 11.0656 12.1222 9.95191C12.2022 9.07196 12.2974 8.19202 12.3744 7.31058C12.4438 6.52443 12.5616 5.74275 12.5843 4.95065C12.5888 4.81069 12.5541 4.76751 12.4061 4.76751C10.6044 4.77198 8.80416 4.77049 7.00244 4.77049L6.99942 4.77346ZM6.9964 1.0616C5.10557 1.0616 3.21474 1.0616 1.32241 1.0616C1.2771 1.0616 1.2333 1.06309 1.188 1.0616C1.10342 1.05713 1.0853 1.0884 1.09285 1.17475C1.16383 1.98621 1.23179 2.79916 1.2922 3.61062C1.30126 3.7342 1.33902 3.77142 1.46437 3.76696C1.87365 3.75505 2.28443 3.74909 2.69522 3.75058C4.79748 3.75653 6.89974 3.76994 9.002 3.7744C10.1679 3.77589 11.3353 3.75951 12.5012 3.76398C12.6538 3.76398 12.6945 3.73569 12.7051 3.58531C12.7589 2.831 12.8245 2.07815 12.8903 1.32387C12.891 1.31585 12.8917 1.30784 12.8924 1.29982C12.9135 1.0616 12.9181 1.0616 12.6704 1.0616C10.7796 1.0616 8.88873 1.0616 6.9964 1.0616ZM6.99942 21.8484C5.68701 21.8618 4.3731 21.8722 3.0607 21.8424C2.92025 21.8394 2.9278 21.899 2.93837 22.0032C3.01388 22.7953 3.08637 23.5874 3.15131 24.3795C3.16189 24.5076 3.19209 24.5492 3.32952 24.5492C5.36684 24.5478 7.40416 24.5507 9.44148 24.5537C9.83264 24.5537 10.2223 24.5507 10.6134 24.5582C10.7584 24.5612 10.8234 24.5061 10.8354 24.3646C10.9019 23.5844 10.9668 22.8042 11.0423 22.0255C11.0574 21.8722 10.9985 21.8454 10.8611 21.8454C9.57438 21.8498 8.28615 21.8484 6.99942 21.8484ZM7.00546 25.593V25.5974C6.58259 25.5974 6.15972 25.5974 5.73685 25.5974C5.62358 25.5974 5.56468 25.6079 5.61301 25.7582C6.01927 27.0268 6.5252 28.2626 6.87709 29.549C6.89219 29.6026 6.89823 29.6726 6.96921 29.6771C7.04926 29.6815 7.09607 29.6279 7.12024 29.555C7.13836 29.5014 7.15648 29.4478 7.1746 29.3942C7.35583 28.8358 7.52498 28.273 7.72131 27.7206C7.94785 27.0834 8.16382 26.4431 8.37072 25.7999C8.41905 25.651 8.39941 25.5855 8.21667 25.5915C7.81344 25.6019 7.40869 25.5945 7.00546 25.5945V25.593Z" fill="#3048EA"/>
<path d="M7.00546 25.5945V25.5974H5.73685C5.62358 25.5974 5.56468 25.6079 5.61301 25.7582C6.01927 27.0268 6.5252 28.2626 6.87709 29.549C6.89219 29.6026 6.89823 29.6726 6.96921 29.6771C7.04926 29.6815 7.09607 29.6279 7.12024 29.555L7.1746 29.3942C7.35583 28.8358 7.52498 28.273 7.72131 27.7206C7.94785 27.0834 8.16382 26.4431 8.37072 25.7999C8.41905 25.651 8.39941 25.5855 8.21667 25.5915C7.81344 25.6019 7.40869 25.5945 7.00546 25.5945Z" fill="#3048EA"/>
<path d="M6.9964 1.0616H1.32241C1.2771 1.0616 1.2333 1.06309 1.188 1.0616C1.10342 1.05713 1.0853 1.0884 1.09285 1.17475C1.16383 1.98621 1.23179 2.79916 1.2922 3.61062C1.30126 3.7342 1.33902 3.77142 1.46437 3.76696C1.87365 3.75505 2.28443 3.74909 2.69522 3.75058C4.79748 3.75653 6.89974 3.76994 9.002 3.7744C10.1679 3.77589 11.3353 3.75951 12.5012 3.76398C12.6538 3.76398 12.6945 3.73569 12.7051 3.58531C12.7589 2.831 12.8245 2.07815 12.8903 1.32387L12.8924 1.29982C12.9135 1.0616 12.9181 1.0616 12.6704 1.0616H6.9964Z" fill="#B9BCFF"/>
</svg>
