<svg width="36" height="36" viewBox="0 0 36 36" fill="none" xmlns="http://www.w3.org/2000/svg">
<path d="M4.48812 18.2085C4.21322 18.5029 3.96792 18.7549 3.734 19.0185C3.32707 19.4769 3.29349 20.0684 3.64351 20.4702C3.99922 20.8784 4.53194 20.8379 4.95197 20.368C5.33557 19.9385 5.71974 19.5097 6.09708 19.0732C6.1944 18.9607 6.28034 18.9304 6.42092 18.9748C6.70321 19.0629 6.99177 19.133 7.28203 19.1799C7.4579 19.2088 7.47155 19.2757 7.42773 19.4518C7.23422 20.233 7.0447 21.016 6.87282 21.8036C6.71858 22.5095 7.25244 23.1228 7.88134 22.9704C8.2416 22.883 8.44649 22.604 8.53983 22.2118C8.74302 21.3561 8.95303 20.5023 9.14483 19.6434C9.19036 19.439 9.26321 19.374 9.44989 19.3747C10.1522 19.3773 10.1533 19.3689 10.3395 20.1481C10.5022 20.8283 10.6605 21.5098 10.8244 22.1893C10.9689 22.7904 11.4026 23.1048 11.8904 22.9685C12.3622 22.8373 12.6126 22.3018 12.4737 21.7013C12.2939 20.9266 12.1106 20.1532 11.9194 19.3824C11.871 19.1876 11.8938 19.0873 12.0907 19.0597C12.2683 19.0346 12.4538 19.0031 12.6143 18.9214C12.9262 18.7639 13.1277 18.8752 13.3434 19.1477C13.69 19.5862 14.073 19.988 14.4447 20.4008C14.8385 20.8379 15.3621 20.8681 15.7122 20.4811C16.0696 20.0864 16.0423 19.4853 15.6439 19.0295C15.4042 18.7556 15.1669 18.4785 14.9176 18.2149C14.7919 18.0825 14.797 18.0188 14.9501 17.9198C15.3394 17.6691 15.7025 17.3778 15.9068 16.9021C16.0525 16.5646 16.0257 16.2373 15.8379 15.9326C15.6484 15.6259 15.3786 15.498 15.0497 15.5314C14.8323 15.5539 14.6336 15.6523 14.5113 15.8503C14.3337 16.1383 14.0855 16.3048 13.8158 16.436C12.0099 17.3142 10.13 17.6228 8.17558 17.365C6.40498 17.1316 4.79716 16.4508 3.38 15.2113C2.97989 14.8615 2.44661 14.9625 2.16773 15.3926C1.88429 15.8297 1.96511 16.4032 2.37205 16.7536C3.01404 17.3058 3.7027 17.7752 4.48812 18.2078V18.2085Z" fill="currentColor"/>
<path d="M31.5119 18.2085C31.7868 18.5029 32.0321 18.7549 32.266 19.0185C32.6729 19.4769 32.7065 20.0684 32.3565 20.4702C32.0008 20.8784 31.4681 20.8379 31.048 20.368C30.6644 19.9385 30.2803 19.5097 29.9029 19.0732C29.8056 18.9607 29.7197 18.9304 29.5791 18.9748C29.2968 19.0629 29.0082 19.133 28.718 19.1799C28.5421 19.2088 28.5284 19.2757 28.5723 19.4518C28.7658 20.233 28.9553 21.016 29.1272 21.8036C29.2814 22.5095 28.7476 23.1228 28.1187 22.9704C27.7584 22.883 27.5535 22.604 27.4602 22.2118C27.257 21.3561 27.047 20.5023 26.8552 19.6434C26.8096 19.439 26.7368 19.374 26.5501 19.3747C25.8478 19.3773 25.8467 19.3689 25.6605 20.1481C25.4978 20.8283 25.3395 21.5098 25.1756 22.1893C25.0311 22.7904 24.5974 23.1048 24.1096 22.9685C23.6378 22.8373 23.3874 22.3018 23.5263 21.7013C23.7061 20.9266 23.8894 20.1532 24.0806 19.3824C24.129 19.1876 24.1062 19.0873 23.9093 19.0597C23.7317 19.0346 23.5462 19.0031 23.3857 18.9214C23.0738 18.7639 22.8723 18.8752 22.6566 19.1477C22.31 19.5862 21.927 19.988 21.5553 20.4008C21.1615 20.8379 20.6379 20.8681 20.2878 20.4811C19.9304 20.0864 19.9577 19.4853 20.3561 19.0295C20.5958 18.7556 20.8331 18.4785 21.0824 18.2149C21.2081 18.0825 21.203 18.0188 21.0499 17.9198C20.6606 17.6691 20.2975 17.3778 20.0932 16.9021C19.9475 16.5646 19.9743 16.2373 20.1621 15.9326C20.3516 15.6259 20.6214 15.498 20.9503 15.5314C21.1677 15.5539 21.3664 15.6523 21.4887 15.8503C21.6663 16.1383 21.9145 16.3048 22.1842 16.436C23.9901 17.3142 25.87 17.6228 27.8244 17.365C29.595 17.1316 31.2028 16.4508 32.62 15.2113C33.0201 14.8615 33.5534 14.9625 33.8323 15.3926C34.1157 15.8297 34.0349 16.4032 33.628 16.7536C32.986 17.3058 32.2973 17.7752 31.5119 18.2078V18.2085Z" fill="currentColor"/>
</svg>
