<svg width="30" height="32" viewBox="0 0 30 32" fill="none" xmlns="http://www.w3.org/2000/svg">
<path d="M18.6003 31.4166C18.1911 31.4479 17.735 31.4343 17.3442 31.2685C16.6607 30.9776 16.0381 31.0725 15.3578 31.2842C14.5905 31.5219 13.7785 31.4875 12.9915 31.3082C12.6541 31.231 12.3798 31.2602 12.0642 31.4187C8.78792 33.0629 4.89562 31.0475 4.54514 27.5296C4.51357 27.2179 4.39711 27.0876 4.07493 27.0115C1.67707 26.4411 0.169563 24.7479 0.00956027 22.3874C-0.0535699 21.4563 0.197862 20.5544 0.707258 19.7474C0.852022 19.517 0.841137 19.3637 0.713789 19.1385C-0.748002 16.5517 0.137998 13.6813 2.81994 12.2717C3.22158 12.06 3.65587 11.938 4.09887 11.8411C4.38187 11.7796 4.50487 11.6346 4.55058 11.3448C5.17318 7.39424 9.68481 5.6791 12.9458 8.15015C13.5521 8.60995 14.0016 9.20113 14.2998 9.88405C14.4228 10.1645 14.5447 10.2281 14.868 10.1228C18.2945 9.00303 21.4891 10.9851 21.8537 14.4425C21.8929 14.8084 21.8624 15.1734 21.7742 15.5299C21.6817 15.9053 21.7938 16.0273 22.2238 16.0659C24.1579 16.2389 25.6078 17.1596 26.4622 18.8382C27.3025 20.4866 27.1327 22.109 26.1302 23.651C25.672 24.3569 25.0494 24.9241 24.2668 25.2848C23.8369 25.4829 23.6997 25.7405 23.7378 26.1815C23.9381 28.5108 22.424 30.5116 20.2363 31.1966C19.7138 31.3603 19.1805 31.4395 18.6003 31.4176V31.4166ZM25.6665 20.4898C25.6208 19.6233 25.0755 18.589 23.9196 17.8686C22.9857 17.2868 21.9745 17.1512 20.9013 17.3764C20.6129 17.4369 20.3582 17.4265 20.159 17.1982C19.9424 16.951 19.9783 16.6883 20.122 16.4203C20.2972 16.093 20.4191 15.7458 20.4833 15.3861C20.7642 13.8242 20.209 12.5501 18.8746 11.6649C17.5935 10.8162 16.1948 10.7661 14.8179 11.5085C13.908 11.9985 13.6435 11.9151 13.3616 10.9621C12.8174 9.11667 11.0432 8.02086 9.02194 8.27944C7.20096 8.51194 5.76965 10.1468 5.77944 11.9829C5.7838 12.8232 5.71305 12.8775 4.84882 12.9692C3.36199 13.1267 2.24851 13.8492 1.63897 15.1546C1.05012 16.4162 1.15897 17.6684 2.03626 18.7996C2.38456 19.248 2.38239 19.6181 2.02864 20.0633C1.34183 20.9277 1.14917 21.9244 1.37557 22.9764C1.72714 24.605 3.08879 25.7238 4.84446 25.8739C5.63794 25.9417 5.81427 26.1158 5.79033 26.7716C5.7359 28.2407 6.30299 29.4314 7.62219 30.2092C9.00344 31.0235 10.4152 30.9568 11.7801 30.1404C12.1327 29.9298 12.4669 29.8547 12.8566 29.9976C13.9254 30.3896 14.9605 30.2561 15.9586 29.7765C16.2841 29.6201 16.5693 29.6358 16.886 29.7911C18.3434 30.5064 19.7508 30.3646 21.0134 29.4085C22.2945 28.4388 22.7332 27.1355 22.3762 25.5966C22.2009 24.8407 22.2749 24.7291 23.0641 24.4591C24.6989 23.9013 25.6742 22.5771 25.6665 20.4918V20.4898Z" fill="currentColor"/>
<path d="M26.4481 15C24.5254 14.9949 22.9923 13.4304 23 11.4801C23.0077 9.54787 24.5664 7.99616 26.4955 8.00001C28.4144 8.00513 29.9961 9.57991 30 11.4891C30.0038 13.4457 28.4259 15.0038 26.4468 14.9987L26.4481 15ZM26.5212 8.89823C25.0163 8.88798 23.8499 10.0373 23.8512 11.5288C23.8524 12.9306 25.0317 14.1159 26.4519 14.1441C27.8786 14.1723 29.0912 12.9896 29.1014 11.5583C29.1117 10.0463 28.0068 8.90848 26.5199 8.89823H26.5212Z" fill="currentColor"/>
<path d="M22.9989 3.99472C22.9979 6.19213 21.2076 7.9926 19.0153 7.99997C16.8071 8.00839 14.9937 6.19319 15 3.98209C15.0063 1.75835 16.7871 -0.00210392 19.0311 1.8872e-06C21.2497 0.0021077 23.0011 1.76467 23 3.99472H22.9989ZM19.0111 6.97549C20.6645 6.97234 22.0307 5.61725 22.0149 3.99577C21.9991 2.32376 20.6424 0.967621 18.99 0.972886C17.3355 0.97815 15.9757 2.36061 15.9936 4.01894C16.0115 5.67937 17.3376 6.97865 19.01 6.97549H19.0111Z" fill="currentColor"/>
<path d="M4.00015 17.8188C4.12025 16.8435 4.57872 15.8806 5.67349 15.2317C6.10078 14.9792 6.56848 14.9053 7.03388 15.1506C7.2914 15.2861 7.42074 15.4217 7.02464 15.6075C5.6042 16.2727 4.8963 17.5745 5.19655 18.9399C5.27277 19.2869 5.13303 19.3362 4.80622 19.2571C4.30964 19.137 3.99207 18.635 4.00015 17.8188Z" fill="currentColor"/>
<path d="M14.2158 13.608C15.567 13.6347 17.0937 14.7629 17.3673 15.9477C17.4655 16.3696 17.4239 16.772 16.9909 17.0533C16.7772 17.1919 16.634 17.2012 16.5613 16.9045C16.2079 15.4641 15.0692 14.575 13.3601 14.4046C13.0575 14.3749 13.0495 14.2773 13.1499 14.0782C13.3093 13.762 13.6777 13.5967 14.2158 13.608Z" fill="currentColor"/>
<path d="M20.1493 25.4728C20.0661 26.6791 18.7358 28.0332 17.4701 28.2652C17.0671 28.3391 16.6941 28.2909 16.3869 28.0568C16.1617 27.8843 16.0046 27.6862 16.4816 27.5671C18.1145 27.1575 19.0476 26.2048 19.2 24.6884C19.2312 24.3794 19.3883 24.3866 19.61 24.5108C20.028 24.7449 20.1447 25.1145 20.1493 25.4728Z" fill="currentColor"/>
<path d="M20.9976 3.43552C21.0084 3.60996 20.9829 3.71551 20.911 3.81226C20.8381 3.91047 20.7308 4.00356 20.5822 3.9999C20.3962 3.9955 20.4473 3.8555 20.4227 3.76828C20.2485 3.14087 19.2001 2.50833 18.2837 2.47975C18.1872 2.47681 18.0523 2.52959 18.009 2.42551C17.9716 2.33462 18.0573 2.2562 18.14 2.19243C18.3142 2.0561 18.5436 2.00552 18.7847 2.00039C19.6657 1.9806 20.849 2.70989 20.9888 3.35343C20.9996 3.4018 21.0006 3.45091 20.9986 3.43552H20.9976Z" fill="currentColor"/>
</svg>
