<svg width="12" height="34" viewBox="0 0 12 34" fill="none" xmlns="http://www.w3.org/2000/svg">
<path d="M10.9991 16.7062C10.9991 21.4286 11.0028 26.1505 10.9951 30.8729C10.9938 31.5425 10.6972 32.0491 10.0999 32.3265C9.8852 32.4262 9.66437 32.511 9.43661 32.5738C8.82138 32.7445 8.19556 32.8455 7.56362 32.9191C6.59636 33.0322 5.62707 33.0107 4.66063 32.9518C3.8262 32.901 3.00888 32.7079 2.20215 32.4705C1.54414 32.2774 1.17949 31.8053 1.00592 31.1382C0.987991 31.0694 1.01651 30.9882 1.01651 30.9129C1.01651 29.8524 1.0157 28.7923 1.01529 27.7318C1.01529 22.68 1.01529 17.6283 1.01529 12.5765C1.01529 9.80694 1.01529 7.03743 1.01529 4.26791C1.01529 3.64993 1.02222 3.03195 1.02099 2.41397C1.01977 1.65493 1.64722 1.03222 2.34109 1.01416C2.97873 0.997816 3.61881 0.987065 4.25401 1.03179C4.68141 1.06189 5.10066 1.00341 5.52399 1.00556C6.86894 1.01201 8.21389 1.00556 9.55884 1.01287C9.72345 1.01373 9.89335 1.0477 10.051 1.09974C10.6178 1.28638 10.9983 1.84544 10.9987 2.47547C10.9999 3.8727 10.9995 5.26993 10.9995 6.66716C10.9995 10.0134 10.9991 13.36 10.9991 16.7062ZM1.70345 21.6819H1.70549C1.70549 24.7344 1.70875 27.7873 1.70223 30.8398C1.70141 31.2832 1.96177 31.595 2.28894 31.7167C2.93921 31.9584 3.61229 32.1024 4.29394 32.179C5.04892 32.2637 5.80879 32.2869 6.56866 32.2568C7.59336 32.2164 8.60462 32.0882 9.58573 31.7567C10.0999 31.5829 10.3049 31.3748 10.3073 30.7005C10.313 29.2387 10.3142 27.777 10.3138 26.3148C10.313 22.1803 10.3102 18.0454 10.3085 13.9109C10.3085 13.431 10.2983 12.9502 10.3146 12.4707C10.322 12.2539 10.2609 12.2329 10.0791 12.2767C9.22963 12.4814 8.36546 12.5739 7.49599 12.6122C6.34579 12.6625 5.1956 12.6724 4.04622 12.5782C3.33809 12.5201 2.63322 12.4384 1.93936 12.2724C1.70345 12.2161 1.70345 12.2174 1.70345 12.4806C1.70345 15.5472 1.70345 18.6152 1.70345 21.6819ZM6.38165 11.9021C6.6913 11.8811 7.00136 11.8841 7.31142 11.8475C8.14137 11.7499 8.96317 11.6054 9.77886 11.4179C9.93531 11.3818 10.005 11.3242 9.99113 11.1362C9.95854 10.7023 9.93898 10.268 9.86646 9.83834C9.65378 8.58131 9.13592 7.5036 8.20574 6.66329C7.89691 6.38418 7.53551 6.19668 7.18633 5.9894C6.85346 5.79201 6.48432 5.68492 6.11803 5.56924C5.32068 5.31637 4.50458 5.23165 3.67871 5.22262C3.28471 5.21832 3.29246 5.22907 3.28227 5.64751C3.27779 5.83415 3.31894 5.93865 3.49903 6.01821C3.80746 6.15497 4.04336 6.40698 4.15459 6.74069C4.2589 7.05506 4.30535 7.36685 4.10489 7.69884C3.95006 7.95515 3.78179 8.1762 3.54425 8.32844C2.51099 8.99286 1.88802 9.94542 1.68715 11.2068C1.66637 11.3366 1.71201 11.3968 1.82568 11.4106C2.26857 11.4644 2.69475 11.6114 3.13885 11.6648C3.63959 11.725 4.13504 11.8501 4.63659 11.8789C5.21678 11.912 5.79982 11.9434 6.38246 11.9013L6.38165 11.9021ZM1.70101 9.16574C1.91002 8.87761 2.08563 8.6428 2.28853 8.43208C2.47758 8.23598 2.68374 8.06095 2.90009 7.89968C3.04759 7.79001 3.20119 7.68809 3.34298 7.57026C3.60252 7.3548 3.6127 7.03227 3.37068 6.80133C3.19223 6.63103 2.96773 6.5433 2.74119 6.49858C2.61122 6.47277 2.59085 6.4302 2.59166 6.31322C2.59533 5.82598 2.59329 5.33873 2.59329 4.85149C2.59329 4.54701 2.5937 4.55131 2.87361 4.52594C4.08248 4.41628 5.2669 4.56421 6.4338 4.89836C6.98588 5.05662 7.50169 5.31035 7.99021 5.6187C8.92039 6.20571 9.60407 7.03141 10.0665 8.06525C10.1362 8.22135 10.1659 8.39982 10.2747 8.54905C10.3387 8.47121 10.3163 8.39681 10.3163 8.32973C10.3155 6.41644 10.313 4.50358 10.3102 2.59029C10.3093 2.03036 10.0384 1.74051 9.51239 1.74051C7.18389 1.73965 4.85539 1.74008 2.52688 1.73965C1.97195 1.73965 1.7063 2.01746 1.70549 2.60878C1.70345 4.70828 1.70304 6.80778 1.70182 8.90728C1.70182 8.97609 1.70182 9.0449 1.70182 9.1666L1.70101 9.16574Z" fill="#3048EA"/>
<path d="M6.38165 11.9021C6.6913 11.8811 7.00136 11.8841 7.31142 11.8475C8.14137 11.7499 8.96317 11.6054 9.77886 11.4179C9.93531 11.3818 10.005 11.3242 9.99113 11.1362C9.95854 10.7023 9.93898 10.268 9.86646 9.83834C9.65378 8.58131 9.13592 7.5036 8.20574 6.66329C7.89691 6.38418 7.53551 6.19668 7.18633 5.9894C6.85346 5.79201 6.48432 5.68492 6.11803 5.56924C5.32068 5.31637 4.50458 5.23165 3.67871 5.22262C3.28471 5.21832 3.29246 5.22907 3.28227 5.64751C3.27779 5.83415 3.31894 5.93865 3.49903 6.01821C3.80746 6.15497 4.04336 6.40698 4.15459 6.74069C4.2589 7.05506 4.30535 7.36685 4.10489 7.69884C3.95006 7.95515 3.78179 8.1762 3.54425 8.32844C2.51099 8.99286 1.88802 9.94542 1.68715 11.2068C1.66637 11.3366 1.71201 11.3968 1.82568 11.4106C2.26857 11.4644 2.69475 11.6114 3.13885 11.6648C3.63959 11.725 4.13504 11.8501 4.63659 11.8789C5.21678 11.912 5.79982 11.9434 6.38246 11.9013L6.38165 11.9021Z" fill="#B9BCFF"/>
<path d="M10.9991 16.7062C10.9991 21.4286 11.0028 26.1505 10.9951 30.8729C10.9938 31.5425 10.6972 32.0491 10.0999 32.3265C9.8852 32.4262 9.66437 32.511 9.43661 32.5738C8.82138 32.7445 8.19556 32.8455 7.56362 32.9191C6.59636 33.0322 5.62707 33.0107 4.66063 32.9518C3.8262 32.901 3.00888 32.7079 2.20215 32.4705C1.54414 32.2774 1.17949 31.8053 1.00592 31.1382C0.987991 31.0694 1.01651 30.9882 1.01651 30.9129C1.01651 29.8524 1.0157 28.7923 1.01529 27.7318C1.01529 22.68 1.01529 17.6283 1.01529 12.5765C1.01529 9.80694 1.01529 7.03743 1.01529 4.26791C1.01529 3.64993 1.02222 3.03195 1.02099 2.41397C1.01977 1.65493 1.64722 1.03222 2.34109 1.01416C2.97873 0.997816 3.61881 0.987065 4.25401 1.03179C4.68141 1.06189 5.10066 1.00341 5.52399 1.00556C6.86894 1.01201 8.21389 1.00556 9.55884 1.01287C9.72345 1.01373 9.89335 1.0477 10.051 1.09974C10.6178 1.28638 10.9983 1.84544 10.9987 2.47547C10.9999 3.8727 10.9995 5.26993 10.9995 6.66716C10.9995 10.0134 10.9991 13.36 10.9991 16.7062ZM1.70345 21.6819H1.70549C1.70549 24.7344 1.70875 27.7873 1.70223 30.8398C1.70141 31.2832 1.96177 31.595 2.28894 31.7167C2.93921 31.9584 3.61229 32.1024 4.29394 32.179C5.04892 32.2637 5.80879 32.2869 6.56866 32.2568C7.59336 32.2164 8.60462 32.0882 9.58573 31.7567C10.0999 31.5829 10.3049 31.3748 10.3073 30.7005C10.313 29.2387 10.3142 27.777 10.3138 26.3148C10.313 22.1803 10.3102 18.0454 10.3085 13.9109C10.3085 13.431 10.2983 12.9502 10.3146 12.4707C10.322 12.2539 10.2609 12.2329 10.0791 12.2767C9.22963 12.4814 8.36546 12.5739 7.49599 12.6122C6.34579 12.6625 5.1956 12.6724 4.04622 12.5782C3.33809 12.5201 2.63322 12.4384 1.93936 12.2724C1.70345 12.2161 1.70345 12.2174 1.70345 12.4806C1.70345 15.5472 1.70345 18.6152 1.70345 21.6819ZM6.38165 11.9021C6.6913 11.8811 7.00136 11.8841 7.31142 11.8475C8.14137 11.7499 8.96317 11.6054 9.77886 11.4179C9.93531 11.3818 10.005 11.3242 9.99113 11.1362C9.95854 10.7023 9.93898 10.268 9.86646 9.83834C9.65378 8.58131 9.13592 7.5036 8.20574 6.66329C7.89691 6.38418 7.53551 6.19668 7.18633 5.9894C6.85346 5.79201 6.48432 5.68492 6.11803 5.56924C5.32068 5.31637 4.50458 5.23165 3.67871 5.22262C3.28471 5.21832 3.29246 5.22907 3.28227 5.64751C3.27779 5.83415 3.31894 5.93865 3.49903 6.01821C3.80746 6.15497 4.04336 6.40698 4.15459 6.74069C4.2589 7.05506 4.30535 7.36685 4.10489 7.69884C3.95006 7.95515 3.78179 8.1762 3.54425 8.32844C2.51099 8.99286 1.88802 9.94542 1.68715 11.2068C1.66637 11.3366 1.71201 11.3968 1.82568 11.4106C2.26857 11.4644 2.69475 11.6114 3.13885 11.6648C3.63959 11.725 4.13504 11.8501 4.63659 11.8789C5.21678 11.912 5.79982 11.9434 6.38246 11.9013L6.38165 11.9021ZM1.70101 9.16574C1.91002 8.87761 2.08563 8.6428 2.28853 8.43208C2.47758 8.23598 2.68374 8.06095 2.90009 7.89968C3.04759 7.79001 3.20119 7.68809 3.34298 7.57026C3.60252 7.3548 3.6127 7.03227 3.37068 6.80133C3.19223 6.63103 2.96773 6.5433 2.74119 6.49858C2.61122 6.47277 2.59085 6.4302 2.59166 6.31322C2.59533 5.82598 2.59329 5.33873 2.59329 4.85149C2.59329 4.54701 2.5937 4.55131 2.87361 4.52594C4.08248 4.41628 5.2669 4.56421 6.4338 4.89836C6.98588 5.05662 7.50169 5.31035 7.99021 5.6187C8.92039 6.20571 9.60407 7.03141 10.0665 8.06525C10.1362 8.22135 10.1659 8.39982 10.2747 8.54905C10.3387 8.47121 10.3163 8.39681 10.3163 8.32973C10.3155 6.41644 10.313 4.50358 10.3102 2.59029C10.3093 2.03036 10.0384 1.74051 9.51239 1.74051C7.18389 1.73965 4.85539 1.74008 2.52688 1.73965C1.97195 1.73965 1.7063 2.01746 1.70549 2.60878C1.70345 4.70828 1.70304 6.80778 1.70182 8.90728C1.70182 8.97609 1.70182 9.0449 1.70182 9.1666L1.70101 9.16574Z" stroke="#3048EA" stroke-width="0.3"/>
<path d="M6.38165 11.9021C6.6913 11.8811 7.00136 11.8841 7.31142 11.8475C8.14137 11.7499 8.96317 11.6054 9.77886 11.4179C9.93531 11.3818 10.005 11.3242 9.99113 11.1362C9.95854 10.7023 9.93898 10.268 9.86646 9.83834C9.65378 8.58131 9.13592 7.5036 8.20574 6.66329C7.89691 6.38418 7.53551 6.19668 7.18633 5.9894C6.85346 5.79201 6.48432 5.68492 6.11803 5.56924C5.32068 5.31637 4.50458 5.23165 3.67871 5.22262C3.28471 5.21832 3.29246 5.22907 3.28227 5.64751C3.27779 5.83415 3.31894 5.93865 3.49903 6.01821C3.80746 6.15497 4.04336 6.40698 4.15459 6.74069C4.2589 7.05506 4.30535 7.36685 4.10489 7.69884C3.95006 7.95515 3.78179 8.1762 3.54425 8.32844C2.51099 8.99286 1.88802 9.94542 1.68715 11.2068C1.66637 11.3366 1.71201 11.3968 1.82568 11.4106C2.26857 11.4644 2.69475 11.6114 3.13885 11.6648C3.63959 11.725 4.13504 11.8501 4.63659 11.8789C5.21678 11.912 5.79982 11.9434 6.38246 11.9013L6.38165 11.9021Z" stroke="#3048EA" stroke-width="0.3"/>
</svg>
