<svg width="32" height="32" viewBox="0 0 32 32" fill="none" xmlns="http://www.w3.org/2000/svg">
<path d="M27.2 1.06641L24 2.84418M28.8 5.86641H25.6M27.2 10.6664L24 8.71085" stroke="currentColor" stroke-width="2" stroke-linecap="round" stroke-linejoin="round"/>
<path d="M30.4665 21.3327C30.4665 23.8875 29.0707 26.2811 26.6536 28.0716C24.2367 29.8619 20.8504 30.9993 17.0665 30.9993C13.2826 30.9993 9.89635 29.8619 7.47939 28.0716C5.06228 26.2811 3.6665 23.8875 3.6665 21.3327C3.6665 18.7779 5.06228 16.3842 7.47939 14.5938C9.89635 12.8034 13.2826 11.666 17.0665 11.666C20.8504 11.666 24.2367 12.8034 26.6536 14.5938C29.0707 16.3842 30.4665 18.7779 30.4665 21.3327Z" stroke="currentColor" stroke-width="2"/>
<path d="M14.333 8.4668H20.8663V10.7335H14.333V8.4668Z" fill="currentColor" stroke="currentColor" stroke-width="2"/>
<path d="M16.4663 2.06641H18.733V6.46641H16.4663V2.06641Z" fill="currentColor" stroke="currentColor" stroke-width="2"/>
<path d="M12.0392 4.26667C12.0378 4.26822 12.0364 4.26978 12.035 4.27134C11.7052 4.64471 11.2288 5.14152 10.6432 5.63589C9.44247 6.64959 7.92498 7.53333 6.35138 7.53333C4.57915 7.53333 3.3658 7.09408 2.61809 6.50046C1.88872 5.92141 1.5332 5.14523 1.5332 4.26667C1.5332 3.38811 1.88872 2.61192 2.61809 2.03287C3.3658 1.43926 4.57915 1 6.35138 1C7.92498 1 9.44247 1.88375 10.6432 2.89744C11.2288 3.39182 11.7052 3.88862 12.035 4.262C12.0364 4.26356 12.0378 4.26511 12.0392 4.26667Z" stroke="currentColor" stroke-width="2"/>
<path d="M15.4666 4.26758H12.2666" stroke="currentColor" stroke-width="2" stroke-linecap="round" stroke-linejoin="round"/>
</svg>
