<svg width="32" height="27" viewBox="0 0 32 27" fill="none" xmlns="http://www.w3.org/2000/svg">
<path d="M22.8518 12.0215C22.1359 12.1415 21.425 12.2857 20.7258 12.4891C18.5564 13.1218 16.5702 14.1474 14.7355 15.5032C14.4591 15.7066 14.1878 15.9222 13.8781 16.0699C13.5418 16.2298 13.4086 16.1846 13.3004 15.8179C12.9841 14.7541 12.9241 13.6711 13.1222 12.5743C13.4669 10.6639 14.5291 9.2768 16.0591 8.23037C17.2278 7.43077 18.4948 6.83455 19.7868 6.29222C21.5582 5.54998 23.3413 4.83382 25.0511 3.94209C26.5379 3.16683 27.948 2.27684 29.1717 1.08961C29.7078 0.569874 30.3438 0.481223 31.0047 0.787156C31.6874 1.10178 31.9737 1.70496 31.9937 2.45241C32.0237 3.54925 31.9437 4.64087 31.8638 5.73424C31.7806 6.86236 31.669 7.98702 31.5025 9.10298C31.2445 10.8395 30.8982 12.5552 30.4137 14.2413C30.0091 15.6527 29.498 17.0173 28.7588 18.2775C28.2144 19.2075 27.5568 20.0418 26.7177 20.7041C25.8836 21.3612 24.9246 21.7227 23.9107 21.9365C21.9245 22.3537 20.0765 21.8809 18.3 20.9701C17.9304 20.7806 17.9271 20.7736 17.689 21.1126C16.7517 22.4545 15.8726 23.833 15.1517 25.314C14.9037 25.825 14.5657 26.2265 14.0013 26.3482C13.3287 26.4942 12.7826 26.2422 12.3647 25.7033C11.9585 25.1784 11.9002 24.5908 12.1949 23.9842C12.8642 22.6058 13.62 21.2847 14.4974 20.0366C16.5969 17.052 19.1774 14.6028 22.1409 12.576C22.3856 12.4074 22.6321 12.2405 22.8768 12.0719C22.8685 12.0528 22.8601 12.0337 22.8518 12.0146V12.0215Z" fill="#3048EA"/>
<path d="M4.07546 18.2045C4.07546 17.9411 4.18268 17.7894 4.44255 17.7117C5.04407 17.5336 5.61106 17.2853 6.11082 16.8891C6.87589 16.2807 7.37565 15.4865 7.62098 14.5217C7.65551 14.3834 7.69004 14.2469 7.79907 14.1502C8.04804 13.9304 8.4224 14.0289 8.54416 14.353C8.63502 14.5938 8.69136 14.8477 8.78768 15.0847C9.34195 16.4551 10.3742 17.2606 11.6971 17.7155C11.8353 17.7629 11.9697 17.8046 12.0479 17.9487C12.2114 18.2538 12.0951 18.5647 11.7662 18.6727C11.2028 18.8585 10.6522 19.0745 10.1833 19.465C9.39465 20.1189 8.80948 20.915 8.57324 21.9556C8.5169 22.2058 8.34608 22.3555 8.11528 22.3726C7.90448 22.3877 7.72457 22.2589 7.64642 22.0049C7.50104 21.5329 7.33021 21.0742 7.06671 20.6572C6.44701 19.6811 5.60925 19.0158 4.51342 18.7163C4.20267 18.631 4.07364 18.4813 4.07546 18.2045Z" fill="#3048EA"/>
<path d="M3.30921 12.782C3.16383 12.7744 3.04389 12.6759 2.98574 12.5053C2.92577 12.3271 2.88942 12.1413 2.82218 11.967C2.39148 10.8581 1.6155 10.1303 0.528768 9.74931C0.414279 9.70951 0.294339 9.67539 0.192571 9.61284C-0.0727528 9.44605 -0.0618491 9.10297 0.212561 8.94945C0.317963 8.89069 0.436087 8.85657 0.550576 8.81676C1.70092 8.41304 2.47326 7.61128 2.88579 6.43043C2.93122 6.29775 2.97302 6.16317 3.02026 6.03049C3.07842 5.86938 3.20926 5.80873 3.3601 5.80304C3.5073 5.79735 3.6236 5.87128 3.68721 6.01154C3.72901 6.10252 3.7599 6.20108 3.79261 6.29585C4.22876 7.55252 5.00474 8.44905 6.26593 8.8433C6.35861 8.87173 6.45493 8.90585 6.53489 8.96082C6.80021 9.14088 6.78568 9.46121 6.50945 9.62043C6.44403 9.65833 6.37315 9.68676 6.30046 9.71141C5.04108 10.1436 4.21422 11.0249 3.78534 12.3195C3.6763 12.6493 3.55455 12.7763 3.3074 12.7801L3.30921 12.782Z" fill="#3048EA"/>
<path d="M10.6842 6.68627C10.5842 6.69196 10.477 6.61804 10.4207 6.47019C10.3661 6.32425 10.3243 6.17261 10.268 6.02856C9.8791 5.02019 9.20125 4.33215 8.18358 4.03078C8.05091 3.99098 7.92189 3.95496 7.85647 3.80523C7.78014 3.62516 7.83284 3.43751 8.00185 3.34274C8.06727 3.30673 8.14178 3.28209 8.21265 3.25934C9.28667 2.93333 9.95543 2.17895 10.3225 1.10804C10.3552 1.01137 10.3789 0.910912 10.4225 0.819932C10.5515 0.554572 10.875 0.539409 11.0276 0.791501C11.0749 0.869213 11.1058 0.962089 11.133 1.05117C11.4729 2.11072 12.1525 2.82719 13.1557 3.21954C13.2483 3.25555 13.341 3.28778 13.4319 3.32379C13.5682 3.37876 13.6736 3.47163 13.6754 3.63085C13.6754 3.80144 13.5882 3.92843 13.4355 3.99666C13.3465 4.03647 13.2502 4.063 13.1575 4.09712C12.1398 4.45725 11.4783 5.17562 11.1421 6.22947C11.0731 6.44555 11.0276 6.68438 10.6805 6.68627H10.6842Z" fill="#3048EA"/>
</svg>
