<svg width="32" height="33" viewBox="0 0 32 33" fill="none" xmlns="http://www.w3.org/2000/svg">
<path d="M22.6212 15.5771L22.6212 15.5771L22.6183 15.5483C22.5392 14.7509 22.4527 13.8801 22.4839 12.9879L22.4839 12.9867C22.5301 11.704 22.7887 10.4691 23.3037 9.26768L23.3041 9.26673C24.1226 7.36297 25.3541 5.75993 26.9751 4.46113L26.9765 4.46005C27.8226 3.78452 28.7443 3.23436 29.7095 2.77969L22.6212 15.5771ZM22.6212 15.5771L22.6254 15.62M22.6212 15.5771L22.6254 15.62M22.6254 15.62L22.6254 15.62L22.6255 15.6205C22.7457 16.8256 22.8497 17.9358 22.7611 19.0264L22.7611 19.0271C22.6058 20.9552 21.9487 22.7208 20.8182 24.3389C19.6184 26.0558 18.02 27.3914 16.1569 28.521C14.2462 29.6784 12.1534 30.4727 9.93833 31.0821L9.93807 31.0822C8.59622 31.4518 7.2372 31.723 5.86381 31.8738L5.86324 31.8739C4.58064 32.0154 3.37645 32.0737 2.21063 31.8626L22.6254 15.62ZM30.1746 2.22311L30.172 2.2225C27.5418 1.59227 24.4558 2.14165 21.662 2.91723L21.6617 2.9173C19.4116 3.54131 17.3099 4.49661 15.3267 5.73596L14.7967 4.88793L15.3267 5.73596C13.5769 6.8294 12.0634 8.09669 10.8966 9.6986L10.8966 9.69862C8.96412 12.3514 8.27773 15.2675 8.72976 18.4947L30.1746 2.22311ZM30.1746 2.22311C30.3141 2.25614 30.4418 2.2889 30.5601 2.32369M30.1746 2.22311L30.5601 2.32369M30.5601 2.32369C30.3137 2.48248 30.0316 2.62784 29.7098 2.77955L30.5601 2.32369ZM1.29445 31.6492C1.61179 31.4096 2.00943 31.218 2.51587 30.9957L2.51594 30.9956C4.57562 30.0912 6.18753 28.6672 7.33838 26.7875C8.18861 25.3998 8.73646 23.8721 8.87342 22.2099L1.29445 31.6492ZM1.29445 31.6492C1.55275 31.7356 1.84913 31.7968 2.20983 31.8624L1.29445 31.6492ZM8.87346 22.2094C8.9782 20.9441 8.89979 19.7025 8.7298 18.4949L8.87346 22.2094Z" stroke="currentColor" stroke-width="2"/>
</svg>
