<svg width="36" height="16" viewBox="0 0 36 16" fill="none" xmlns="http://www.w3.org/2000/svg">
<path d="M7.375 13.0087H1C1 13.0087 9.01602 5.87054 15.5208 4.94128C18 4.58712 18.7083 4.50865 22.25 5.57128M23.3125 14.0712L31.1042 7.69615C31.1042 7.69615 25.7078 6.27855 22.25 5.57128M5.99619 2.06802C5.99619 2.06802 14.4962 1.08408 20.517 2.50056C26.8427 3.98876 35 9.46699 35 9.46699M11.625 6.08947C9.5 11.3163 14.2312 14.33 17.6458 14.0712C21.3032 13.7939 24.0208 9.11295 22.25 5.57128" stroke="#3048EA" stroke-width="2" stroke-linecap="round" stroke-linejoin="round"/>
<path d="M19.7709 8.83724C19.7709 10.402 18.5024 11.6706 16.9376 11.6706C15.3728 11.6706 14.1042 10.402 14.1042 8.83724C14.1042 7.27243 15.3728 6.00391 16.9376 6.00391C18.5024 6.00391 19.7709 7.27243 19.7709 8.83724Z" fill="#3048EA"/>
</svg>
