<svg width="34" height="21" viewBox="0 0 34 21" fill="none" xmlns="http://www.w3.org/2000/svg">
<path d="M20.3618 8.50287C20.3618 10.2433 19.8924 11.4512 19.1982 12.2184C18.5076 12.9818 17.5467 13.3625 16.448 13.3625C15.3493 13.3625 14.3884 12.9818 13.6977 12.2184C13.0036 11.4512 12.5342 10.2433 12.5342 8.50287C12.5342 6.84521 13.5501 4.98713 14.6451 3.48537C15.1833 2.7472 15.7226 2.11915 16.1276 1.67554C16.2476 1.54408 16.3556 1.42907 16.448 1.33246C16.5404 1.42907 16.6484 1.54408 16.7684 1.67554C17.1734 2.11915 17.7126 2.7472 18.2509 3.48537C19.3458 4.98713 20.3618 6.84521 20.3618 8.50287Z" fill="#3048EA" stroke="#3048EA"/>
<path d="M1 18.8179C1 18.8179 3.01253 19.3681 4.36842 19.3612C7.01971 19.3476 7.61587 17.2829 10.2632 17.1881C13.2001 17.0828 14.0586 19.3612 17 19.3612C19.9414 19.3612 20.8181 16.9527 23.7368 17.1881C26.09 17.3778 26.4363 19.1714 28.7895 19.3612C30.4534 19.4954 33 18.8179 33 18.8179" stroke="#3048EA" stroke-width="2" stroke-linecap="round" stroke-linejoin="round"/>
</svg>
