<svg width="34" height="21" viewBox="0 0 34 21" fill="none" xmlns="http://www.w3.org/2000/svg">
<path d="M20.3623 8.50238C20.3623 10.2428 19.8929 11.4507 19.1987 12.2179C18.5081 12.9813 17.5472 13.362 16.4485 13.362C15.3498 13.362 14.3888 12.9813 13.6982 12.2179C13.0041 11.4507 12.5347 10.2428 12.5347 8.50238C12.5347 6.84472 13.5506 4.98665 14.6456 3.48488C15.1838 2.74672 15.7231 2.11866 16.1281 1.67505C16.2481 1.54359 16.3561 1.42858 16.4485 1.33198C16.5409 1.42858 16.6488 1.54359 16.7689 1.67505C17.1738 2.11866 17.7131 2.74672 18.2513 3.48488C19.3463 4.98665 20.3623 6.84472 20.3623 8.50238Z" fill="#3048EA" stroke="#3048EA"/>
<path d="M1 18.8184C1 18.8184 3.01253 19.3686 4.36842 19.3617C7.01971 19.3481 7.61587 17.2834 10.2632 17.1886C13.2001 17.0833 14.0586 19.3617 17 19.3617C19.9414 19.3617 20.8181 16.9532 23.7368 17.1886C26.09 17.3783 26.4363 19.1719 28.7895 19.3617C30.4534 19.4959 33 18.8184 33 18.8184" stroke="#3048EA" stroke-width="2" stroke-linecap="round" stroke-linejoin="round"/>
</svg>
