<svg width="12" height="32" viewBox="0 0 12 32" fill="none" xmlns="http://www.w3.org/2000/svg">
<path d="M10.6366 13.2327C11.2167 13.6584 11.4019 14.3326 11.4292 15.0868C11.5054 17.2295 11.5817 19.3722 11.6634 21.5148C11.7696 24.2831 11.8813 27.0543 11.9957 29.8226C12.0175 30.3568 11.9657 30.8682 11.6389 31.3025C11.2521 31.8167 10.7156 31.9995 10.1109 31.9995C8.29427 31.9995 6.4749 31.9995 4.65825 31.9967C3.69953 31.9967 2.7381 32.0052 1.77938 31.991C0.725344 31.9738 -0.0290982 31.1482 0.00086163 30.0483C0.0662284 27.7628 0.145213 25.4802 0.216027 23.1975C0.295012 20.6777 0.371273 18.1551 0.458429 15.6354C0.474771 15.1754 0.472047 14.7012 0.586439 14.2641C0.842459 13.2899 1.58873 12.7471 2.62915 12.7385C4.35592 12.7242 6.08542 12.7328 7.81219 12.7299C8.24253 12.7299 8.67013 12.7214 9.10046 12.7242C9.63974 12.7299 10.1572 12.8242 10.6366 13.2356V13.2327ZM2.47663 19.5664C0.981364 21.5062 1.2619 24.5031 3.07855 26.0515C5.01232 27.6942 7.81492 27.46 9.3238 25.583C11.1323 23.3346 10.5957 20.3664 8.75729 18.8179C6.82624 17.1924 4.05633 17.5152 2.47391 19.5664H2.47663Z" fill="#3048EA"/>
<path d="M3.49763 11.8332C3.50853 11.6332 3.51125 11.4703 3.52759 11.3104C3.63926 10.2762 3.75638 9.24484 3.86805 8.21065C3.91162 7.79926 4.05053 7.43358 4.31744 7.12504C4.85127 6.50796 5.11546 5.77374 5.22168 4.95096C5.42323 3.39396 5.65746 1.83983 5.8808 0.285687C5.89442 0.188554 5.938 0.0971337 5.96523 0C5.99519 0 6.02787 0 6.05783 0C6.08507 0.199981 6.11231 0.399962 6.14227 0.597086C6.38467 2.16265 6.62435 3.72822 6.86675 5.29664C6.9648 5.93658 7.18269 6.51653 7.54765 7.05362C7.73831 7.33359 7.89355 7.67927 7.94258 8.01638C8.12506 9.26484 8.25579 10.5219 8.41104 11.8246C6.76053 11.8275 5.14815 11.8303 3.49219 11.8332H3.49763Z" fill="#3048EA"/>
<path d="M9.00192 1.14824C8.99375 0.6567 9.06729 0.576682 9.50307 0.731002C10.0478 0.922474 10.6007 1.09966 11.1127 1.35972C11.5866 1.59977 11.731 2.19991 11.5322 2.71145C11.3606 3.15155 11.0392 3.36588 10.5952 3.40875C10.1649 3.45162 9.80811 3.28587 9.6338 2.89435C9.38323 2.33136 9.20892 1.73123 9.00465 1.14824H9.00192Z" fill="#3048EA"/>
<path d="M8.65635 24.5772C7.51243 26.0284 5.63041 26.517 4.0262 25.2714C2.47102 24.0629 2.12512 22.0603 3.31534 20.3918C4.52735 18.692 6.45839 18.5206 7.95093 19.6976C9.65047 21.0375 9.59055 23.1287 8.65635 24.5743V24.5772Z" fill="#3048EA"/>
</svg>
