<svg width="23" height="32" viewBox="0 0 23 32" fill="none" xmlns="http://www.w3.org/2000/svg">
<path d="M13.3422 24.5414C13.3422 22.7881 13.3422 21.0348 13.3422 19.2801C13.3422 19.1774 13.3407 19.0747 13.3494 18.9734C13.3755 18.6884 13.5158 18.5221 13.8225 18.5235C14.54 18.5235 15.2575 18.5091 15.975 18.5235C16.2195 18.5293 16.3236 18.4888 16.3222 18.214C16.3149 15.3425 16.3178 12.471 16.3222 9.59948C16.3222 9.41431 16.2658 9.35066 16.0762 9.34777C15.5309 9.34198 15.3906 9.18431 15.3906 8.64762C15.3906 6.9146 15.3906 5.18158 15.3891 3.44856C15.3862 1.83705 16.3627 0.543794 17.9163 0.108369C18.479 -0.0493099 19.0562 0.00855389 19.6276 0.0186801C19.8692 0.0230198 20.0226 0.176359 20.05 0.42662C20.0631 0.538008 20.0689 0.650842 20.0689 0.763676C20.0717 3.38925 20.0746 6.01482 20.0775 8.63894C20.0775 9.20022 19.9387 9.34777 19.3701 9.34488C19.1777 9.34488 19.1257 9.40708 19.1257 9.59225C19.1315 12.4536 19.1329 15.315 19.1271 18.1749C19.1271 18.4497 19.2284 18.525 19.4917 18.5192C20.1889 18.5047 20.8862 18.5091 21.582 18.5192C21.9798 18.525 22.1346 18.687 22.1346 19.092C22.1375 22.6912 22.1433 26.2903 22.1317 29.8909C22.1274 31.0756 21.1639 32 19.9777 32C18.4906 32 17.005 32 15.5179 31.9942C14.2463 31.9884 13.348 31.1002 13.3422 29.8287C13.3335 28.0653 13.3393 26.3004 13.3393 24.537L13.3422 24.5414ZM14.323 24.8321C14.323 26.5029 14.3201 28.1738 14.3244 29.8446C14.3259 30.5288 14.7989 31.0264 15.4687 31.0308C16.9847 31.0395 18.5022 31.0308 20.0182 31.0308C20.2526 31.0308 20.458 30.957 20.6489 30.8254C21.0554 30.5462 21.1654 30.1397 21.1654 29.6739C21.1625 26.4147 21.1654 23.1541 21.1654 19.8949C21.1654 19.4754 21.1668 19.4783 20.7444 19.4797C18.725 19.4841 16.707 19.4942 14.6875 19.4783C14.3722 19.4754 14.3157 19.5651 14.3172 19.85C14.3288 21.5107 14.323 23.1714 14.323 24.8321ZM19.0895 4.67093H19.091C19.091 3.53246 19.0852 2.39399 19.0953 1.25697C19.0967 1.04287 19.0447 0.980666 18.8233 0.980666C17.4303 0.985005 16.3771 2.0063 16.3685 3.39359C16.3598 4.96169 16.367 6.53125 16.3569 8.09936C16.3569 8.31346 16.4162 8.38579 16.6346 8.38289C17.342 8.37277 18.0494 8.37132 18.7568 8.38579C19.0099 8.39157 19.0967 8.3149 19.0938 8.05451C19.0823 6.92617 19.0881 5.79927 19.0881 4.67093H19.0895ZM18.1738 13.9581C18.1738 13.9581 18.1651 13.9581 18.1608 13.9581C18.1608 12.565 18.1637 11.1719 18.1608 9.77886C18.1608 9.29569 18.2187 9.34777 17.7051 9.35066C17.4303 9.35066 17.2928 9.48954 17.2928 9.76728C17.2928 12.4927 17.2928 15.2166 17.2972 17.942C17.2972 18.6147 17.1612 18.525 17.9395 18.5221C18.1102 18.5221 18.1839 18.4584 18.1825 18.2602C18.1724 16.8267 18.1767 15.3916 18.1767 13.9581H18.1738Z" fill="#3048EA"/>
<path d="M0 21.9193C0 19.4587 0 16.9966 0 14.5359C0 13.5059 0.517881 12.7754 1.49578 12.46C1.70264 12.3935 1.7012 12.2676 1.69975 12.1114C1.69686 11.1161 1.69252 10.1223 1.69396 9.12708C1.69396 8.66127 1.74893 8.20704 2.01221 7.80199C2.34638 7.28701 2.81941 7.03096 3.42988 7.02951C4.56835 7.02662 5.70537 7.02662 6.84384 7.02951C7.96206 7.03241 8.7085 7.76583 8.72297 8.89562C8.73599 9.96176 8.73165 11.0293 8.72007 12.0955C8.71718 12.3168 8.78372 12.4137 9.00071 12.4817C9.81659 12.7392 10.3808 13.4611 10.3909 14.316C10.414 16.049 10.4039 17.7821 10.4054 19.5151C10.4054 22.7554 10.4025 25.9973 10.4083 29.2376C10.4097 30.2445 10.0249 31.0227 9.13814 31.5305C8.80108 31.7229 8.43799 31.8184 8.05175 31.8198C6.15526 31.8227 4.25733 31.8343 2.36084 31.8169C1.04155 31.8039 0.00289319 30.7247 0.00144659 29.3953C-0.00144659 26.9028 0.00144659 24.4104 0.00144659 21.9193H0ZM9.42167 21.9396C9.42167 20.5971 9.42167 19.2532 9.42167 17.9108C9.42167 16.7622 9.42601 15.6136 9.42312 14.4665C9.42167 13.843 8.98191 13.3439 8.40182 13.341C6.26954 13.3338 4.13726 13.341 2.00643 13.341C1.76629 13.341 1.5739 13.4379 1.39162 13.5811C0.976452 13.911 0.975005 14.3739 0.975005 14.8411C0.976452 19.6192 0.976452 24.3973 0.979345 29.1754C0.979345 30.2792 1.54786 30.8448 2.64293 30.8448C4.3962 30.8448 6.14803 30.8448 7.9013 30.8448C8.81121 30.8448 9.42312 30.2329 9.42312 29.323C9.42312 26.8623 9.42312 24.4017 9.42312 21.941L9.42167 21.9396ZM5.19328 8.97518C5.19328 8.97518 5.19328 8.98242 5.19328 8.98676C5.95129 8.98676 6.71075 8.97952 7.46877 8.9911C7.71469 8.99544 7.78124 8.91587 7.72192 8.68297C7.59173 8.17377 7.39065 8.00452 6.85541 8.00307C5.75889 8.00163 4.66093 8.00307 3.56441 8.00597C3.05232 8.00597 2.84835 8.16943 2.69501 8.65404C2.614 8.90864 2.69501 8.98242 2.94961 8.97952C3.6975 8.9694 4.44683 8.97518 5.19472 8.97518H5.19328ZM5.22655 10.6084V10.6026C5.95274 10.6026 6.67893 10.5896 7.40512 10.6098C7.67419 10.6171 7.75664 10.5418 7.76098 10.2713C7.76532 9.99359 7.63802 9.94296 7.41091 9.94296C5.92815 9.9473 4.44539 9.95163 2.96263 9.94585C2.73551 9.94585 2.64582 10.024 2.6574 10.2453C2.66897 10.4435 2.64872 10.6243 2.95684 10.6156C3.71341 10.5954 4.46998 10.6084 5.22655 10.6084Z" fill="#3048EA"/>
</svg>
