<svg width="32" height="19" viewBox="0 0 32 19" fill="none" xmlns="http://www.w3.org/2000/svg">
<path d="M2.54736 7.35946C4.28814 5.07594 6.34387 3.10415 9.04551 1.75989C10.8951 0.839044 12.7077 0.883376 14.5217 1.73075C15.5926 2.23107 16.5789 2.15887 17.6233 1.67122C18.8555 1.09617 20.1446 0.736447 21.509 1.2393C24.9412 2.50334 27.5947 4.85167 29.7545 7.75373M3.99532 13.9468C9.5 18.5 21.509 19 27.4674 14.1829" stroke="#03052B" stroke-linecap="round" stroke-linejoin="round"/>
<path d="M17.1005 15.5184C13.4912 15.4918 10.6011 15.2499 7.79027 14.4785C5.35363 13.8097 3.07432 12.8319 1.30535 11.0067C1.01977 10.7115 0.639006 10.7115 0.296581 10.5849C0.124707 10.5215 -0.0233683 10.4265 0.00307376 10.2175C0.0215832 10.0769 0.123385 9.96422 0.259562 9.96422C1.45342 9.96549 2.26652 9.14724 3.1986 8.64439C5.232 7.55002 7.25482 6.44425 9.35828 5.47274C11.1365 4.65196 12.9227 4.65956 14.6414 5.46768C15.7269 5.97813 16.6907 5.8312 17.6664 5.40434C19.6429 4.5405 21.4939 4.84196 23.3713 5.7286C25.8819 6.91544 28.2789 8.28466 30.6666 9.67543C30.9628 9.84769 31.247 9.95535 31.5921 9.94142C31.7799 9.93382 31.9464 9.99842 31.9914 10.1998C32.0363 10.405 31.8988 10.5532 31.7283 10.5823C31.0884 10.69 30.7301 11.1726 30.2859 11.5361C27.8135 13.5653 24.8745 14.5304 21.7213 15.0358C19.9602 15.3183 18.1966 15.5412 17.1019 15.5159L17.1005 15.5184Z" fill="#03052B"/>
<g opacity="0.4">
<mask id="path-3-inside-1_1214_11403" fill="white">
<ellipse cx="15.9071" cy="10.5848" rx="8.97744" ry="0.152139"/>
</mask>
<ellipse cx="15.9071" cy="10.5848" rx="8.97744" ry="0.152139" fill="#FFFEFE"/>
<path d="M23.8846 10.5848C23.8846 10.0568 24.2663 9.7972 24.3256 9.75749C24.4332 9.68557 24.5284 9.65336 24.5558 9.64418C24.5957 9.63084 24.6268 9.62354 24.641 9.62038C24.6572 9.61677 24.6688 9.61476 24.6736 9.61395C24.6851 9.61204 24.6729 9.61442 24.6196 9.61883C24.5219 9.62693 24.3627 9.63582 24.139 9.64478C23.6963 9.66252 23.048 9.67875 22.2382 9.69248C20.6208 9.71989 18.3824 9.7369 15.9071 9.7369V11.7369C18.39 11.7369 20.6402 11.7198 22.2721 11.6922C23.0869 11.6784 23.7533 11.6618 24.2191 11.6432C24.4497 11.6339 24.6433 11.6237 24.7847 11.612C24.8511 11.6065 24.9301 11.5988 25.0028 11.5867C25.0319 11.5818 25.1059 11.5691 25.19 11.541C25.2252 11.5292 25.3262 11.4944 25.4376 11.4199C25.5009 11.3776 25.8846 11.1153 25.8846 10.5848H23.8846ZM15.9071 9.7369C13.4319 9.7369 11.1934 9.71989 9.57606 9.69248C8.76624 9.67875 8.11792 9.66252 7.67521 9.64478C7.45156 9.63582 7.29236 9.62693 7.19461 9.61883C7.14137 9.61442 7.12918 9.61204 7.14063 9.61395C7.14546 9.61476 7.15706 9.61677 7.17326 9.62038C7.18744 9.62354 7.21853 9.63084 7.25844 9.64418C7.28588 9.65336 7.38109 9.68557 7.48861 9.75749C7.54797 9.7972 7.92969 10.0568 7.92969 10.5848H5.92969C5.92969 11.1153 6.31337 11.3776 6.37663 11.4199C6.48805 11.4944 6.5891 11.5292 6.6243 11.541C6.70835 11.5691 6.78232 11.5818 6.81144 11.5867C6.88419 11.5988 6.9632 11.6065 7.02954 11.612C7.17097 11.6237 7.36451 11.6339 7.59514 11.6432C8.061 11.6618 8.7274 11.6784 9.54217 11.6922C11.174 11.7198 13.4243 11.7369 15.9071 11.7369V9.7369ZM7.92969 10.5848C7.92969 11.1127 7.54797 11.3723 7.48861 11.412C7.38109 11.4839 7.28588 11.5162 7.25844 11.5253C7.21853 11.5387 7.18744 11.546 7.17326 11.5491C7.15706 11.5527 7.14546 11.5548 7.14063 11.5556C7.12918 11.5575 7.14137 11.5551 7.19461 11.5507C7.29236 11.5426 7.45156 11.5337 7.67521 11.5247C8.11792 11.507 8.76624 11.4908 9.57606 11.477C11.1934 11.4496 13.4319 11.4326 15.9071 11.4326V9.43262C13.4243 9.43262 11.174 9.44967 9.54217 9.47732C8.7274 9.49113 8.061 9.50767 7.59514 9.52634C7.36451 9.53558 7.17097 9.54579 7.02954 9.55751C6.9632 9.563 6.88419 9.5707 6.81144 9.58284C6.78232 9.5877 6.70835 9.60043 6.6243 9.62853C6.5891 9.64029 6.48805 9.67511 6.37663 9.74964C6.31337 9.79196 5.92969 10.0542 5.92969 10.5848H7.92969ZM15.9071 11.4326C18.3824 11.4326 20.6208 11.4496 22.2382 11.477C23.048 11.4908 23.6963 11.507 24.139 11.5247C24.3627 11.5337 24.5219 11.5426 24.6196 11.5507C24.6729 11.5551 24.6851 11.5575 24.6736 11.5556C24.6688 11.5548 24.6572 11.5527 24.641 11.5491C24.6268 11.546 24.5957 11.5387 24.5558 11.5253C24.5284 11.5162 24.4332 11.4839 24.3256 11.412C24.2663 11.3723 23.8846 11.1127 23.8846 10.5848H25.8846C25.8846 10.0542 25.5009 9.79196 25.4376 9.74964C25.3262 9.67511 25.2252 9.64029 25.19 9.62853C25.1059 9.60043 25.0319 9.5877 25.0028 9.58284C24.9301 9.5707 24.8511 9.563 24.7847 9.55751C24.6433 9.54579 24.4497 9.53558 24.2191 9.52634C23.7533 9.50767 23.0869 9.49113 22.2721 9.47732C20.6402 9.44967 18.39 9.43262 15.9071 9.43262V11.4326Z" fill="#03052B" mask="url(#path-3-inside-1_1214_11403)"/>
</g>
</svg>
