<svg width="120" height="121" viewBox="0 0 120 121" fill="none" xmlns="http://www.w3.org/2000/svg">
<path d="M69.7998 97.7631V97.2806C69.2013 96.8528 68.603 96.4247 68.0048 95.9966L67.9991 95.9926C66.9598 95.2489 65.9204 94.5052 64.8795 93.7624C63.6156 92.8603 62.2054 92.7507 60.7793 93.4765C60.4743 93.6311 60.2848 93.6016 60.0033 93.457C58.6682 92.7717 57.2035 92.8611 56.0138 93.7026C54.4938 94.7771 52.9869 95.8649 51.4829 96.9551C50.8599 97.4057 50.8561 97.5751 51.3769 98.1104C52.7177 99.4881 54.2583 100.671 56.147 101.538C59.3578 103.012 62.4428 102.755 65.4593 101.15C67.1642 100.243 68.5331 99.0491 69.7998 97.7631Z" fill="#3048EA"/>
<path d="M98.9846 77.1123C98.9846 100.247 85.5261 119 61.5883 119C37.6504 119 24.1919 100.247 24.1919 77.1123C24.1919 53.978 40.9339 35.2246 61.5883 35.2246C82.2427 35.2246 98.9846 53.978 98.9846 77.1123Z" stroke="#3048EA" stroke-miterlimit="10"/>
<path d="M36.1841 22.6271C31.5149 23.1399 23.9255 30.5255 20.8619 33.8682C12.8315 42.6318 10.2616 53.1336 10 59.2958C9.99579 64.8011 11.6035 68.4115 14.0236 71.711C16.0386 74.3617 21.5624 77.7332 24.2462 78.9339C26.7064 63.207 36.2348 55.7801 48.4913 47.34C39.7393 40.8543 37.0555 26.6474 36.1862 22.625L36.1841 22.6271Z" fill="#B9BCFF" stroke="#3048EA" stroke-miterlimit="10"/>
<path d="M50.1519 8.73344C47.9787 8.45128 41.1425 9.87651 36.1504 13.7712C30.709 18.018 31.3525 23.4018 31.6922 26.2069C34.9752 53.2801 94.7725 62.6409 98.7813 73.153C118.509 60.8655 108.388 40.7702 97.5154 34.2372C90.1412 29.8071 96.5069 23.8466 86.6556 12.2739C85.7948 11.2647 79.9587 4.42274 67.7254 1.58876C64.358 0.808176 60.7268 0.571324 57.1653 2.35698C54.1481 3.87077 50.9726 6.66768 50.1498 8.73138L50.1519 8.73344Z" fill="#B9BCFF" stroke="#3048EA" stroke-miterlimit="10" stroke-linejoin="round"/>
<path d="M50.2344 8.73438L50.8589 12.6352C50.8631 12.6599 50.8673 12.6867 50.8716 12.7114C51.4961 16.534 53.7326 19.9282 57.0009 22.1175L59.3851 23.7158" stroke="#3048EA" stroke-miterlimit="10" stroke-linecap="round" stroke-linejoin="round"/>
<path d="M69.6434 2.03516C69.0822 5.55704 69.7426 9.1613 71.5951 12.3022C73.454 15.4554 76.161 18.2873 79.5073 20.8803L97.5134 34.2367" stroke="#3048EA" stroke-miterlimit="10" stroke-linejoin="round"/>
</svg>
