<svg width="12" height="32" viewBox="0 0 12 32" fill="none" xmlns="http://www.w3.org/2000/svg">
<path d="M7.09168 31.9996H4.55967C4.57631 31.8988 4.51231 31.8913 4.4355 31.8862C4.1206 31.8661 3.8057 31.8484 3.4908 31.822C2.68178 31.754 1.87917 31.6356 1.10088 31.4038C0.674606 31.2766 0.238096 31.1443 0 30.7135V19.4527C0.113928 19.4174 0.138249 19.2927 0.229136 19.2284C0.464672 19.0622 0.720689 18.9463 0.994628 18.8606C1.23272 18.7851 1.23016 18.7851 1.23016 18.5357C1.22888 15.6877 1.2276 12.8385 1.22632 9.99049C1.22632 9.80281 1.24296 9.78014 1.43754 9.79147C1.82284 9.81541 2.20687 9.79147 2.59218 9.79147C4.67616 9.79399 6.75886 9.79147 8.84284 9.79273C9.30112 9.79273 9.76067 9.79273 10.2189 9.79651C10.425 9.79903 10.4263 9.80407 10.4263 10.0144C10.4263 11.2954 10.4263 12.5752 10.4238 13.8562C10.4225 15.4244 10.4238 16.9926 10.4148 18.5596C10.4148 18.7322 10.4673 18.8153 10.6362 18.8569C10.8359 18.906 11.0216 18.9954 11.2059 19.0861C11.5131 19.2373 11.6373 19.4602 11.636 19.8116C11.6258 23.3398 11.6296 26.8667 11.6296 30.3949C11.6296 30.473 11.6296 30.551 11.627 30.6304C11.6232 30.7753 11.5656 30.8911 11.4491 30.9818C11.2648 31.1267 11.0587 31.2287 10.8385 31.3081C10.0794 31.5789 9.28703 31.6935 8.49082 31.7892C8.03511 31.8447 7.57812 31.8787 7.11985 31.8888C7.08016 31.8888 7.02384 31.8787 7.0136 31.9316C7.00592 31.9731 7.06608 31.9744 7.0904 31.9996H7.09168Z" fill="currentColor"/>
<path d="M2.55627 5.45153C2.55627 4.36449 2.55883 3.27745 2.55371 2.18915C2.55371 1.95738 2.60363 1.74703 2.71116 1.54297C2.9467 1.09959 3.23216 0.695257 3.63282 0.380355C3.76211 0.279587 3.9042 0.200231 4.04629 0.119617C4.34455 -0.0516899 4.58777 -0.0453918 4.88987 0.180078C6.22244 1.17139 7.57805 2.13247 8.92855 3.10111C9.04631 3.1855 9.10008 3.27619 9.10008 3.42482C9.09496 5.21724 9.09496 7.01092 9.09368 8.80334C9.09368 9.04897 9.0924 9.04897 8.84918 9.04897C6.83432 9.04897 4.81819 9.04897 2.80333 9.04897C2.56011 9.04897 2.55755 9.04897 2.55755 8.8046C2.55755 7.68607 2.55755 6.56754 2.55755 5.44901L2.55627 5.45153Z" fill="currentColor"/>
</svg>
