<svg width="23" height="33" viewBox="0 0 23 33" fill="none" xmlns="http://www.w3.org/2000/svg">
<path d="M13.1663 31.9967C13.224 31.9717 13.2798 31.9467 13.3375 31.9198C13.3279 31.9024 13.324 31.8813 13.3163 31.8794C12.7546 31.7832 12.718 31.7467 12.6661 31.1641C12.6488 30.9737 12.6392 30.7834 12.6392 30.5911C12.6392 24.7304 12.6392 18.8679 12.6392 13.0072C12.6392 12.8957 12.6411 12.7842 12.6603 12.6746C12.7103 12.3727 12.8681 12.2265 13.1701 12.2035C13.3202 12.1919 13.4722 12.1939 13.6222 12.1977C13.7665 12.2015 13.8204 12.1343 13.8184 11.9958C13.8146 11.717 13.8184 11.4382 13.8204 11.1594C13.8261 10.6902 14.0147 10.496 14.4898 10.4864C14.8881 10.4787 15.2844 10.4845 15.6826 10.4845C17.3197 10.4845 18.9569 10.4845 20.5959 10.4845C20.6671 10.4845 20.7383 10.4845 20.8114 10.4845C21.3924 10.4941 21.5617 10.646 21.604 11.2248C21.6213 11.4786 21.6194 11.7343 21.6136 11.9881C21.6098 12.1458 21.6752 12.2035 21.8252 12.1958C21.9599 12.19 22.0965 12.19 22.2312 12.2015C22.562 12.2304 22.7313 12.4034 22.7621 12.7361C22.7698 12.8226 22.7679 12.9111 22.7679 12.9995C22.7679 19.0448 22.7679 25.0881 22.7679 31.1333C22.7679 31.6833 22.6198 31.8409 22.0715 31.8698C22.0407 31.8698 22.0118 31.8813 21.9253 31.8967C22.0696 31.964 22.1888 31.9255 22.2754 31.9928H13.1644L13.1663 31.9967ZM20.2131 21.0272H20.2112C20.2112 18.5506 20.2093 16.076 20.215 13.5994C20.215 13.3802 20.1496 13.3129 19.9303 13.3148C18.4682 13.3225 17.0062 13.3187 15.5441 13.3206C15.1882 13.3206 15.1843 13.3225 15.1843 13.6744C15.1843 16.0394 15.1824 18.4025 15.1824 20.7676C15.1824 23.2672 15.1805 25.7668 15.1863 28.2665C15.1863 29.074 15.6306 29.499 16.4348 29.497C17.3005 29.497 18.1681 29.497 19.0338 29.497C19.7879 29.497 20.215 29.0683 20.215 28.3126C20.215 25.8841 20.215 23.4556 20.215 21.0272H20.2131ZM13.755 22.0347C13.755 24.0248 13.755 26.0168 13.755 28.0069C13.755 28.8356 13.7646 29.6643 13.7492 30.4911C13.7453 30.7392 13.8261 30.8122 14.0628 30.7988C14.3802 30.7815 14.6976 30.7911 15.017 30.7892C15.2401 30.7892 15.4614 30.7853 15.6845 30.7815C15.7634 30.7815 15.8269 30.7449 15.8423 30.6642C15.8596 30.5738 15.7788 30.5623 15.723 30.5469C14.7765 30.2912 14.0935 29.4586 14.1012 28.1934C14.1262 23.496 14.1128 18.7967 14.1128 14.0993C14.1128 13.8763 14.1051 13.6533 14.0993 13.4302C14.0974 13.3148 14.0224 13.2879 13.9223 13.286C13.8165 13.286 13.755 13.3225 13.7569 13.436C13.7569 13.5148 13.7569 13.5956 13.7569 13.6744C13.7569 16.4605 13.7569 19.2486 13.7569 22.0347H13.755ZM21.6482 22.0482H21.6521C21.6521 19.2928 21.6521 16.5374 21.6521 13.7821C21.6521 13.6783 21.6598 13.5744 21.6617 13.4725C21.6656 13.3533 21.6021 13.2956 21.4905 13.2879C21.377 13.2802 21.3366 13.3495 21.3347 13.4533C21.3347 13.5014 21.3347 13.5494 21.3347 13.5975C21.3347 18.5025 21.3212 23.4076 21.3501 28.3126C21.3578 29.4182 20.4728 30.3969 19.634 30.5642C19.5648 30.5777 19.4494 30.5603 19.4648 30.6815C19.4801 30.8026 19.5898 30.7815 19.6744 30.7834C20.2227 30.7853 20.771 30.7872 21.3193 30.7872C21.6482 30.7872 21.6482 30.7853 21.6482 30.4584C21.6482 27.655 21.6482 24.8516 21.6482 22.0501V22.0482ZM17.691 12.2015C18.5336 12.1996 19.3743 12.19 20.217 12.2035C20.4651 12.2073 20.4997 12.0996 20.5017 11.8881C20.5036 11.6709 20.4343 11.5997 20.215 11.5997C18.5471 11.6055 16.8792 11.5997 15.2132 11.5978C14.9419 11.5978 14.9112 11.6459 14.9015 11.9977C14.8938 12.2304 15.0516 12.1996 15.192 12.1996C16.025 12.1996 16.8599 12.1996 17.6929 12.1996L17.691 12.2015Z" fill="currentColor"/>
<path d="M0.00192379 18.9026C0.0442471 18.9314 0.0865704 18.9584 0.115427 18.8911C0.240473 18.5911 0.505956 18.5642 0.773362 18.5623C1.65446 18.5565 2.53747 18.5623 3.42049 18.5603C3.75715 18.5603 3.75908 18.5603 3.75908 18.2162C3.75908 14.4417 3.761 10.6692 3.76677 6.89477C3.76677 6.72365 3.7283 6.61789 3.55516 6.54867C3.34739 6.46599 3.23581 6.28333 3.23581 6.05836C3.23196 4.95083 3.23388 3.84523 3.23581 2.7377C3.23581 2.51466 3.34931 2.34738 3.51091 2.20509C4.16307 1.6321 4.84409 1.09756 5.52127 0.557261C5.71364 0.403438 5.90025 0.240001 6.10417 0.105405C6.46007 -0.131098 6.87369 0.0477216 6.95833 0.468813C6.9795 0.568798 6.9795 0.674551 6.9795 0.778382C6.98142 2.51466 6.9795 4.24902 6.98527 5.9853C6.98527 6.29871 6.91793 6.55444 6.57935 6.65635C6.46392 6.69096 6.45623 6.78518 6.45623 6.88708C6.45623 7.14089 6.45623 7.39662 6.45623 7.65043C6.45623 11.1768 6.45623 14.7051 6.45623 18.2315C6.45623 18.5603 6.45623 18.5623 6.78327 18.5623C7.64897 18.5623 8.5166 18.5623 9.3823 18.5623C9.9479 18.5623 10.1672 18.7738 10.1672 19.3371C10.1691 23.2693 10.1691 27.2033 10.1691 31.1354C10.1691 31.6411 9.95367 31.9295 9.46695 31.8776C9.44002 31.8757 9.41116 31.893 9.3573 31.9083C9.43617 31.9468 9.49004 31.9718 9.5439 31.9987C6.42737 31.9987 3.31084 31.9987 0.196226 32.0026C0.0327043 32.0026 0 31.9699 0 31.8064C0.00577136 27.5052 0.00384757 23.2058 0.00384757 18.9045L0.00192379 18.9026ZM1.16197 25.2363C1.16197 26.9879 1.16581 28.7396 1.15812 30.4893C1.15812 30.7143 1.21198 30.7912 1.44861 30.7893C3.86489 30.7816 6.27924 30.7854 8.69551 30.7854C9.05334 30.7854 9.05334 30.7816 9.05334 30.4316C9.05334 26.9533 9.05334 23.475 9.05334 19.9967C9.05334 19.6813 9.05334 19.6794 8.73976 19.6794C6.31579 19.6794 3.89374 19.6832 1.46977 19.6736C1.23122 19.6736 1.15812 19.7352 1.16004 19.9794C1.16966 21.731 1.16581 23.4827 1.16581 25.2324L1.16197 25.2363ZM5.32696 12.6439C5.32696 10.7327 5.32696 8.82141 5.32696 6.91016C5.32696 6.7621 5.32889 6.65058 5.11919 6.66404C4.93451 6.67558 4.81331 6.69096 4.83447 6.92362C4.85948 7.20819 4.87103 7.49661 4.87103 7.78118C4.8691 11.3172 4.86333 14.8532 4.85564 18.3873C4.85564 18.4546 4.84794 18.5103 4.92297 18.5469C5.17498 18.6699 5.32696 18.5796 5.32696 18.3027C5.32696 16.4145 5.32696 14.5282 5.32696 12.6401V12.6439ZM5.8637 3.56835C5.88486 3.10303 5.82522 2.49736 5.89256 1.8936C5.89833 1.84745 5.90795 1.78977 5.85985 1.76285C5.80021 1.72824 5.75212 1.78208 5.71364 1.81476C5.31734 2.13203 4.92489 2.45698 4.52474 2.77039C4.37277 2.8896 4.30543 3.02997 4.30928 3.22032C4.32275 3.92791 4.33429 4.6355 4.34198 5.34308C4.34198 5.49498 4.40162 5.55844 4.5536 5.55651C4.88642 5.55267 5.22115 5.54305 5.55397 5.56228C5.7906 5.57574 5.87717 5.5046 5.86947 5.25656C5.85216 4.73933 5.8637 4.2221 5.8637 3.56643V3.56835Z" fill="currentColor"/>
<path d="M17.5622 18.0778C17.5622 19.1527 17.5622 20.2275 17.5622 21.3023C17.5622 21.71 17.366 21.9542 17.0351 21.9638C16.7023 21.9753 16.4407 21.6908 16.4407 21.2966C16.4387 19.1315 16.4387 16.9645 16.4407 14.7995C16.4407 14.4668 16.5522 14.2861 16.7831 14.2034C17.0313 14.115 17.2833 14.1746 17.4372 14.3572C17.5468 14.488 17.5661 14.6418 17.5661 14.8052C17.5661 15.8955 17.5661 16.9876 17.5661 18.0778H17.5622Z" fill="currentColor"/>
<path d="M17.5603 23.8286C17.5603 24.0747 17.5661 24.3208 17.5603 24.5669C17.5526 24.8996 17.3622 25.113 17.0698 25.1303C16.7312 25.1496 16.4715 24.9727 16.4561 24.6419C16.4311 24.0882 16.433 23.5306 16.4599 22.9768C16.4753 22.6595 16.735 22.4884 17.064 22.5096C17.3603 22.5288 17.5507 22.7268 17.5603 23.0422C17.568 23.3037 17.5603 23.5652 17.5623 23.8286H17.5603Z" fill="currentColor"/>
</svg>
