<svg width="34" height="31" viewBox="0 0 34 31" fill="none" xmlns="http://www.w3.org/2000/svg">
<circle cx="21" cy="17.709" r="11.5" stroke="currentColor" stroke-width="2"/>
<circle cx="20.9999" cy="28.1247" r="1.04167" fill="currentColor"/>
<circle cx="20.9999" cy="7.29167" r="1.04167" fill="currentColor"/>
<circle cx="31.4167" cy="17.7083" r="1.04167" transform="rotate(-90 31.4167 17.7083)" fill="currentColor"/>
<circle cx="10.5834" cy="17.7083" r="1.04167" transform="rotate(-90 10.5834 17.7083)" fill="currentColor"/>
<circle cx="28.3657" cy="10.3433" r="1.04167" transform="rotate(-135 28.3657 10.3433)" fill="currentColor"/>
<circle cx="13.6343" cy="25.0747" r="1.04167" transform="rotate(-135 13.6343 25.0747)" fill="currentColor"/>
<circle cx="28.3657" cy="25.0752" r="1.04167" transform="rotate(-45 28.3657 25.0752)" fill="currentColor"/>
<circle cx="13.6343" cy="10.3438" r="1.04167" transform="rotate(-45 13.6343 10.3438)" fill="currentColor"/>
<path d="M21.0001 7.81348V17.7093H14.2292" stroke="currentColor" stroke-width="2" stroke-linecap="round" stroke-linejoin="round"/>
<path d="M29.3332 2.23242L30.0534 4.13358L31.9998 4.83707L30.0534 5.54057L29.3332 7.44172L28.6129 5.54057L26.6665 4.83707L28.6129 4.13358L29.3332 2.23242Z" fill="currentColor"/>
<path d="M3.42857 5.95312L4.3546 8.39747L6.85714 9.30196L4.3546 10.2065L3.42857 12.6508L2.50255 10.2065L0 9.30196L2.50255 8.39747L3.42857 5.95312Z" fill="currentColor"/>
<path d="M14.0952 0L14.6097 1.35797L16 1.86047L14.6097 2.36296L14.0952 3.72093L13.5807 2.36296L12.1904 1.86047L13.5807 1.35797L14.0952 0Z" fill="currentColor"/>
</svg>
