<svg width="149" height="144" viewBox="0 0 149 144" fill="none" xmlns="http://www.w3.org/2000/svg">
<g clip-path="url(#clip0_728_27812)">
<path d="M45.9999 103.354C50.1908 103.359 53.3297 106.309 53.3182 110.23C53.3068 114.125 50.0761 117.407 46.065 117.358C41.985 117.308 38.6873 114.422 38.7007 110.213C38.7141 106.026 42.0443 103.034 46.0018 103.356L45.9999 103.354Z" fill="#B9BCFF"/>
<path d="M102.053 103.584C106.244 103.59 109.382 106.539 109.371 110.461C109.36 114.356 106.129 117.638 102.118 117.589C98.0377 117.538 94.7401 114.653 94.7535 110.444C94.7668 106.257 98.097 103.265 102.055 103.586L102.053 103.584Z" fill="#B9BCFF"/>
<path d="M117.664 90.5493C117.664 117.714 101.861 139.735 73.7518 139.735C45.6429 139.735 29.8394 117.714 29.8394 90.5493C29.8394 63.3842 49.4985 41.3633 73.7518 41.3633C98.005 41.3633 117.664 63.3842 117.664 90.5493Z" stroke="#3048EA" stroke-width="1.17424" stroke-miterlimit="10"/>
<path d="M64.8711 112.305C66.5905 112.961 70.3143 114.288 73.7531 114.226C79.1815 114.126 82.162 111.408 83.8764 110.312" stroke="#3048EA" stroke-width="1.17424" stroke-miterlimit="10" stroke-linecap="round"/>
<path d="M43.9208 26.5688C38.438 27.171 29.5262 35.8435 25.9288 39.7686C16.4992 50.0591 13.4815 62.3907 13.1743 69.6267C13.1694 76.0911 15.0573 80.3307 17.899 84.205C20.2651 87.3175 26.7513 91.2765 29.9028 92.6865C32.7916 74.2193 43.9803 65.4984 58.3724 55.5876C48.0955 47.972 44.9441 31.2896 43.9233 26.5664L43.9208 26.5688Z" fill="#B9BCFF" stroke="#3048EA" stroke-width="1.17424" stroke-miterlimit="10"/>
<path d="M59.1435 101.358C61.0708 101.272 62.5098 98.5602 62.3576 95.3005C62.2054 92.0409 60.5196 89.4679 58.5923 89.5537C56.6649 89.6395 55.2259 92.3514 55.3782 95.6111C55.5304 98.8707 57.2162 101.444 59.1435 101.358Z" fill="#3048EA"/>
<path d="M85.2695 100.196C87.1968 100.11 88.6358 97.3981 88.4836 94.1384C88.3314 90.8788 86.6456 88.3058 84.7183 88.3916C82.7909 88.4774 81.3519 91.1893 81.5041 94.449C81.6564 97.7086 83.3422 100.282 85.2695 100.196Z" fill="#3048EA"/>
<path d="M54.5264 83.8868C57.0539 82.5836 58.6952 80.7738 58.1924 79.8445C57.6895 78.9151 55.2329 79.2182 52.7054 80.5213C50.1779 81.8244 48.5366 83.6342 49.0394 84.5636C49.5423 85.4929 51.9989 85.1899 54.5264 83.8868Z" fill="#3048EA"/>
<path d="M93.7346 83.8244C94.1974 82.9578 92.5177 81.2098 89.983 79.92C87.4483 78.6302 85.0184 78.2871 84.5557 79.1537C84.0929 80.0202 85.7725 81.7682 88.3072 83.058C90.8419 84.3478 93.2719 84.6909 93.7346 83.8244Z" fill="#3048EA"/>
<path d="M60.3226 10.2547C57.7707 9.9234 49.7434 11.597 43.8815 16.1702C37.4919 21.157 38.2475 27.4788 38.6464 30.7727C42.5015 62.5631 112.718 73.5549 117.425 85.8986C140.591 71.4702 128.706 47.8735 115.939 40.2022C107.28 35.0002 114.755 28.0012 103.187 14.412C102.176 13.227 95.3231 5.19294 80.9582 1.86517C77.004 0.948582 72.7401 0.670461 68.558 2.76725C65.0151 4.5448 61.2864 7.82903 60.3201 10.2523L60.3226 10.2547Z" fill="#B9BCFF" stroke="#3048EA" stroke-width="1.17424" stroke-miterlimit="10" stroke-linejoin="round"/>
<path d="M60.4189 10.2539L61.1523 14.8344C61.1573 14.8634 61.1622 14.8949 61.1672 14.9239C61.9005 19.4125 64.5267 23.3981 68.3645 25.9689L71.1641 27.8456" stroke="#3048EA" stroke-width="1.17424" stroke-miterlimit="10" stroke-linecap="round" stroke-linejoin="round"/>
<path d="M83.2099 2.39062C82.5509 6.52615 83.3264 10.7584 85.5017 14.4465C87.6844 18.1492 90.8631 21.4745 94.7925 24.5193L115.936 40.2029" stroke="#3048EA" stroke-width="1.17424" stroke-miterlimit="10" stroke-linejoin="round"/>
<path d="M107.535 100L111.633 115.575L105.895 122.133L89.5 118.035C89.5 118.035 90.5503 108.787 94.4185 104.919C98.2867 101.05 107.535 100 107.535 100Z" fill="#3048EA"/>
<path d="M105.895 122.133L111.633 116.395L116.552 121.313L130.078 134.839C131.662 136.424 131.662 138.993 130.078 140.577C128.493 142.162 125.924 142.162 124.339 140.577L110.814 127.051L105.895 122.133Z" fill="#EFF5FF"/>
<path d="M116.552 121.313L130.078 134.839C131.662 136.424 131.662 138.993 130.078 140.577V140.577C128.493 142.162 125.924 142.162 124.339 140.577L110.814 127.051M116.552 121.313L111.633 116.395L105.895 122.133L110.814 127.051M116.552 121.313L110.814 127.051" stroke="#3048EA" stroke-width="1.17424" stroke-linejoin="round"/>
<path d="M109.523 89L110.474 91.5713L113.045 92.5227L110.474 93.4742L109.523 96.0455L108.571 93.4742L106 92.5227L108.571 91.5713L109.523 89Z" fill="#3048EA"/>
<path d="M90.6741 123.295L91.6256 125.866L94.1968 126.818L91.6256 127.769L90.6741 130.34L89.7226 127.769L87.1514 126.818L89.7226 125.866L90.6741 123.295Z" fill="#3048EA"/>
<path d="M124.845 104L126.272 107.857L130.129 109.284L126.272 110.711L124.845 114.568L123.417 110.711L119.561 109.284L123.417 107.857L124.845 104Z" fill="#3048EA"/>
</g>
<defs>
<clipPath id="clip0_728_27812">
<rect width="124.47" height="143.258" fill="white" transform="translate(12)"/>
</clipPath>
</defs>
</svg>
