<svg width="32" height="12" viewBox="0 0 32 12" fill="none" xmlns="http://www.w3.org/2000/svg">
<g clip-path="url(#clip0_747_10497)">
<path d="M3.09841 8.25425C3.09841 8.25425 4.41183 7.97018 4.48374 7.87684C4.55565 7.7835 4.84117 6.96781 5.64488 6.47271C6.44858 5.97762 7.45109 5.38107 7.94388 5.65296C8.43668 5.92486 9.56186 4.93061 9.72895 5.10917C9.89603 5.28773 12.5313 5.53933 13.2927 5.49064C14.0541 5.44194 24.2273 7.35739 24.6291 7.49943C25.2552 7.72263 25.987 8.34353 25.987 8.34353C25.3969 7.64147 24.1723 7.17478 24.1723 7.17478C24.1723 7.17478 23.3813 7.02868 22.6135 6.89882C21.9135 6.78113 19.9 6.53359 19.7139 6.4159C19.5278 6.30227 13.6375 5.03206 13.2229 5.09699C12.8084 5.16193 8.87449 4.70335 8.75604 4.66277C8.6376 4.61813 7.81698 4.86568 7.64355 4.40305C7.47012 3.94042 5.90925 4.91844 5.38261 5.36889C4.85598 5.81935 3.87039 6.57417 3.1809 6.77708C2.73886 6.90694 1.78711 7.61306 1.78711 7.61306C1.78711 7.61306 2.12762 7.63741 2.47237 7.66987C2.58658 7.67799 2.21434 8.13656 2.28625 8.12439C2.82769 8.03105 2.85942 8.30295 3.0963 8.25019L3.09841 8.25425Z" fill="#DDD7D4"/>
<path d="M3.63141 1.38757C3.63141 1.38757 1.32606 1.78527 1.11456 2.11398C0.903058 2.44269 0.977083 2.58879 1.37682 2.69024C1.77655 2.7917 2.15091 3.12446 2.4174 3.14881C2.68389 3.17316 4.98924 2.64154 5.22401 2.36965C5.45877 2.09775 7.13386 2.2479 7.53359 2.48327C7.93333 2.71865 9.01832 2.1505 9.2827 1.91107C9.54708 1.67164 10.5475 1.80556 10.9599 1.59454C11.3723 1.38351 13.2399 1.55395 13.5508 1.69193C13.8617 1.82991 16.9559 2.35341 17.1822 2.64966C17.4085 2.94591 18.8467 3.11635 19.0244 3.30708C19.2042 3.49782 19.8323 4.05784 20.01 4.1106C20.7756 4.34597 20.7883 3.69261 21.0569 3.98074C21.3255 4.26887 21.9854 4.4312 21.9854 4.4312C21.9854 4.4312 22.8272 4.27698 23.2523 4.50424C24.8407 5.35646 26.7209 6.65913 26.7209 6.65913C26.7209 6.65913 23.7387 4.28104 22.952 4.16336C22.1652 4.04567 21.3361 3.56681 21.1288 3.47347C20.9216 3.38013 18.8869 2.57661 18.5316 2.45487C18.1763 2.33312 14.8113 1.8015 14.5575 1.59859C14.3037 1.39569 10.7019 0.604343 10.2873 0.685506C9.87279 0.762612 4.70372 1.17249 3.63353 1.39163L3.63141 1.38757Z" fill="#DDD7D4"/>
<path d="M2.64811 8.37636C2.64811 8.37636 3.69503 8.46564 4.15822 8.09635C4.6214 7.72706 5.65141 7.38211 6.37686 7.34965C7.1023 7.31718 7.22709 6.63947 7.48935 6.47308C7.58241 6.41221 8.05617 6.66382 9.11579 6.66382C10.0675 6.66382 11.2921 6.31887 12.4342 6.09162C13.5975 5.8603 14.6782 6.61918 15.1964 6.76527C15.7061 6.90731 16.66 6.52178 17.8613 6.87078C20.4649 7.62966 22.6095 7.5972 24.8028 8.42912C27.2773 9.37061 28.3623 9.92658 28.3623 9.92658C28.3623 9.92658 26.4778 8.6442 25.7376 8.48188C25.1517 8.35607 22.3219 6.93166 21.3532 7.22384C20.3845 7.51603 13.3585 5.11766 12.2714 5.75885C11.1843 6.39598 9.15597 6.37163 8.90217 6.37569C8.65049 6.37975 5.74024 6.09162 5.74024 6.09162L2.97593 7.24414C2.97593 7.24414 1.76615 7.723 2.64811 8.38042V8.37636Z" fill="#DDD7D4"/>
<path d="M3.20403 9.84902C3.20403 9.84902 4.46246 9.65829 4.5238 9.59336C4.58513 9.52842 4.90027 9.48379 5.6384 9.15102C6.37865 8.8223 7.19293 7.93357 7.70053 8.11212C8.20813 8.29068 9.21487 7.6292 9.39465 7.74689C9.57442 7.86458 12.3895 7.63732 13.1297 7.6008C13.87 7.56427 20.7945 8.27039 21.6384 8.76955C22.4823 9.2687 24.0305 9.26059 24.2589 9.51219C24.4873 9.7638 25.5892 9.45132 25.8325 9.50813C26.0757 9.56495 26.5664 10.1534 26.3147 9.83685C26.063 9.52031 26.1603 9.17942 25.5194 9.32146C24.8786 9.45944 23.7069 9.05362 23.7069 9.05362C23.7069 9.05362 23.2225 9.0942 22.4886 8.66809C21.7526 8.24199 19.6143 8.06343 19.4219 7.99038C19.2294 7.91733 13.1509 6.95149 12.7533 6.99613C12.3535 7.04077 8.52961 7.49123 8.40906 7.46282C8.2885 7.43441 7.51018 7.6008 7.29657 7.29643C7.08295 6.99207 5.64898 7.64544 5.17733 7.94168C4.70357 8.24199 3.3119 8.2988 2.9735 8.58693C2.63298 8.871 1.87158 9.43915 1.87158 9.43915C1.87158 9.43915 2.20787 9.45538 2.54627 9.47161C2.88467 9.48784 2.86986 9.90584 3.20826 9.85308L3.20403 9.84902Z" fill="#DDD7D4"/>
<path d="M20.2554 5.43009C20.2554 5.43009 19.2655 5.16225 19.6018 5.02022C19.9381 4.87818 21.3996 5.14196 21.6047 5.17037C21.8099 5.19878 22.8864 5.62082 23.4892 5.75069C24.092 5.87649 20.2554 4.65498 20.2554 4.65498L17.9077 4.36279L18.6353 4.81731C18.6353 4.81731 18.1425 4.91065 18.3921 5.16631C18.6395 5.42197 20.2554 5.43009 20.2554 5.43009Z" fill="#DDD7D4"/>
<path d="M1.71706 5.48679C1.71706 5.48679 3.40906 5.42998 3.71362 5.12156C4.01818 4.81314 4.0203 4.35862 4.51521 4.42761C5.01012 4.4966 8.02612 3.57134 8.47238 3.81077C8.91865 4.0502 9.51296 3.62815 9.51296 3.62815C9.51296 3.62815 9.20629 3.72961 9.07304 3.68091C8.9398 3.63221 8.69446 3.62815 8.26088 3.59569C7.82731 3.56322 4.89168 4.08673 4.89168 4.08673L3.13623 4.20441C3.13623 4.20441 2.09142 4.47225 1.85665 4.31804C1.62189 4.16383 0.574959 4.83749 0.574959 4.83749C0.574959 4.83749 -0.0637717 5.1175 0.00179341 5.17837C0.0673585 5.23925 0.684939 4.96735 0.89221 5.15808C1.09948 5.34882 1.28983 5.50709 1.71495 5.48274L1.71706 5.48679Z" fill="#DDD7D4"/>
<path d="M10.245 3.37636C10.245 3.37636 9.86849 3.77 10.1815 3.93233C10.4945 4.09871 11.0339 3.98508 11.2665 3.92421C11.497 3.86334 12.5736 3.77 12.9691 3.87146C13.3646 3.97291 17.73 4.18393 18.2312 4.43148C18.2312 4.43148 17.0468 4.10683 16.0337 3.87146C15.0206 3.63608 12.9818 3.48999 12.9818 3.48999C12.9818 3.48999 10.5157 3.06388 10.2471 3.3723L10.245 3.37636Z" fill="#DDD7D4"/>
<path d="M3.29933 5.6404C3.29933 5.6404 1.16317 6.10303 0.985514 6.34652C0.807854 6.59001 0.888224 6.68334 1.27104 6.72393C1.65386 6.76045 2.02398 6.9593 2.27567 6.95524C2.52735 6.95118 4.65293 6.39521 4.85597 6.18825C5.05901 5.98128 6.79331 5.29951 7.18459 5.42937C7.57586 5.55923 8.36053 5.56329 8.59318 5.37661C8.82583 5.18994 9.81142 5.3685 10.1837 5.18994C10.5559 5.01138 12.3177 4.97486 12.6201 5.0479C12.9226 5.12095 15.8561 5.22646 16.0888 5.41314C16.3214 5.59981 17.6792 5.59981 17.8611 5.71344C18.0409 5.83113 18.6669 6.1639 18.8383 6.18825C19.57 6.2897 19.5404 5.83519 19.8112 6.01375C20.0819 6.18825 20.7121 6.24912 20.7121 6.24912C20.7121 6.24912 21.4884 6.13143 21.905 6.19636C23.8656 6.49261 25.2975 7.40164 25.2975 7.40164C25.2975 7.40164 23.5209 6.09085 21.5983 5.98534C20.8539 5.94476 20.0438 5.70533 19.8429 5.65663C19.642 5.61199 17.6813 5.2224 17.3408 5.16559C17.0003 5.10878 13.8088 5.0195 13.5592 4.89775C13.3075 4.77601 9.8791 4.52846 9.49417 4.61368C9.11136 4.70296 4.28915 5.40502 3.29933 5.6404Z" fill="#DDD7D4"/>
<path d="M2.57184 0.645702C2.57184 0.645702 0.429346 0.974414 0.247456 1.20573C0.0655654 1.43704 0.143821 1.5385 0.524521 1.59937C0.905222 1.66024 1.27323 1.88344 1.52492 1.89562C1.7766 1.90779 3.91064 1.48574 4.11791 1.29095C4.32307 1.10022 6.07006 0.523957 6.45922 0.678168C6.84838 0.832378 7.63305 0.885134 7.86781 0.714691C8.10258 0.544248 9.08605 0.78368 9.46041 0.625411C9.83477 0.467143 11.5966 0.548306 11.8969 0.633528C12.1972 0.722807 15.1286 1.015 15.357 1.2179C15.5855 1.41675 16.9433 1.50198 17.1231 1.63184C17.3028 1.7617 17.9204 2.13505 18.0917 2.16752C18.8214 2.31361 18.8003 1.85909 19.0668 2.05389C19.3354 2.24868 19.9614 2.34607 19.9614 2.34607C19.9614 2.34607 20.7397 2.27709 21.1543 2.36637C23.1085 2.78436 24.5256 3.78267 24.5256 3.78267C24.5256 3.78267 22.7722 2.36231 20.8539 2.13505C20.1095 2.04577 19.3058 1.75764 19.1069 1.69677C18.906 1.6359 16.9539 1.12457 16.6134 1.05152C16.2728 0.974414 13.0855 0.682226 12.8381 0.544248C12.5906 0.40627 9.16642 -0.0563607 8.78149 0.00451179C8.39656 0.0694425 3.5659 0.471201 2.57184 0.641644V0.645702Z" fill="#DDD7D4"/>
<path d="M4.02279 11.1845C4.02279 11.1845 7.08532 9.95486 7.49563 10.0482C7.90594 10.1415 9.03324 9.13917 9.55776 9.5247C10.0823 9.91428 11.402 8.23826 11.7362 8.59538C12.0704 8.9525 12.6076 9.15946 13.2336 9.19193C13.8618 9.22439 17.4594 8.89162 19.217 9.28121C20.9745 9.67079 27.8758 10.9856 29.3542 11.6552C29.3542 11.6552 29.3775 11.5132 26.8564 10.7908C24.4093 10.0928 22.5206 9.69108 22.0172 9.50441C21.5139 9.31773 18.9949 9.08642 18.3794 8.73336C17.7661 8.3803 16.4421 8.41276 16.1185 8.43711C15.7928 8.46146 13.4282 8.65625 13.149 8.52233C12.8699 8.38841 11.4591 8.31536 9.48373 8.67248C7.51043 9.0296 6.29854 9.22439 5.82689 9.48412C5.35525 9.73978 2.8109 9.86964 2.81936 10.3931C2.82782 10.9126 3.4179 11.4158 4.02491 11.1764L4.02279 11.1845Z" fill="#DDD7D4"/>
<path d="M1.38542 3.7944C1.38542 3.7944 3.15568 3.72541 3.29104 3.67265C3.4264 3.61989 4.84768 2.99494 5.14589 3.04769C5.44411 3.10045 7.65217 2.62159 8.20207 2.64593C8.20207 2.64593 7.30954 2.29287 6.71523 2.42274C6.12091 2.5526 4.15607 2.87725 3.97418 2.68246C3.79018 2.49172 0.898969 2.76768 0.645168 2.93001C0.391368 3.09233 0.382908 3.83092 1.38542 3.78628V3.7944Z" fill="#DDD7D4"/>
<path d="M4.04611 11.9966C4.04611 11.9966 5.48643 12.0372 5.78676 11.7206C6.08709 11.4041 7.98213 10.9009 8.50243 10.7872C9.02272 10.6736 10.3044 10.3205 10.6597 10.4707C11.0172 10.6209 11.6221 9.8498 11.8124 9.88632C12.0028 9.92285 13.3987 10.3571 13.4219 10.0892C13.4452 9.82139 21.8164 10.2719 25.3611 11.4163C25.3611 11.4163 21.8735 10.2962 13.6059 9.50486C12.3708 9.38717 10.5032 9.55761 9.62761 9.90256C8.752 10.2475 5.96019 10.6574 5.4822 10.8968C5.00421 11.1362 3.59562 11.12 3.52582 11.2133C3.45603 11.3067 3.34182 12.0128 4.04611 11.9966Z" fill="#DDD7D4"/>
<path d="M9.37146 2.32482C9.37146 2.32482 8.97807 2.72658 9.24668 2.75905C9.51528 2.79151 10.7378 2.55614 10.7378 2.55614C10.7378 2.55614 14.3058 2.76311 14.4982 2.84427C14.6907 2.92137 13.5169 2.58049 12.6984 2.37758C11.882 2.17467 9.84311 2.21119 9.37146 2.32482Z" fill="#DDD7D4"/>
<path d="M15.8311 3.14525C15.8311 3.14525 15.444 2.96669 15.1944 2.97481C14.9449 2.98293 14.4415 3.1209 14.34 2.98698C14.2385 2.85306 14.1391 2.54464 14.5282 2.6461C14.9174 2.75161 15.021 2.85306 15.8332 3.14525H15.8311Z" fill="#DDD7D4"/>
<path d="M18.7898 3.78208C18.7898 3.78208 17.8846 3.78613 17.7619 3.63598C17.6392 3.48583 16.2031 2.87305 16.2031 2.87305C16.2031 2.87305 16.2877 3.44931 16.6282 3.43713C16.9688 3.42496 18.7898 3.78208 18.7898 3.78208Z" fill="#DDD7D4"/>
<path d="M32.0002 11.8417C32.0002 11.8417 31.6301 11.5414 31.444 11.3466C31.2578 11.1559 30.9512 11.1519 30.9512 11.1519C30.9512 11.1519 31.0189 11.4725 31.1098 11.5171C31.2007 11.5658 32.0002 11.8417 32.0002 11.8417Z" fill="#DDD7D4"/>
<path d="M29.6564 8.78609L29.1213 8.34375C29.1213 8.34375 28.9351 8.87537 29.1699 8.72522C29.4047 8.57912 29.6542 8.78609 29.6542 8.78609H29.6564Z" fill="#DDD7D4"/>
<path d="M28.7408 8.15633C27.9392 7.68964 27.6304 7.64095 26.262 7.00381C24.8936 6.36668 23.7346 6.1516 23.7832 5.85129C23.7938 5.78636 24.9126 6.24899 26.281 6.88613C27.6494 7.52326 28.8423 8.2172 28.7408 8.15633Z" fill="#DDD7D4"/>
</g>
<defs>
<clipPath id="clip0_747_10497">
<rect width="32" height="12" fill="white"/>
</clipPath>
</defs>
</svg>
