<svg width="36" height="36" viewBox="0 0 36 36" fill="none" xmlns="http://www.w3.org/2000/svg">
<path d="M12.2301 16.0645H11.6019V21.4756H12.2301V16.0645Z" fill="currentColor"/>
<path d="M14.3446 22.8682H9.4884V25.3682H14.3446V22.8682Z" stroke="currentColor" stroke-miterlimit="10"/>
<path d="M8.93415 25.2168H14.8986V31.6989C14.8986 32.677 14.0727 33.4994 13.02 33.4994H10.8127C9.76001 33.4994 8.93415 32.677 8.93415 31.6989V25.2168Z" stroke="currentColor" stroke-miterlimit="10"/>
<path d="M12.2301 2H11.6019V22.8682H12.2301V2Z" fill="currentColor"/>
<path d="M13.3457 9.80578V9.19824H10.4859V9.80578H13.3457Z" fill="currentColor"/>
<path d="M13.3461 8.25988V7.65234H10.4863V8.25988H13.3461Z" fill="currentColor"/>
<path d="M13.3457 6.71399V6.10645H10.4859V6.71399H13.3457Z" fill="currentColor"/>
<path d="M13.3457 5.16809V4.56055H10.4859V5.16809H13.3457Z" fill="currentColor"/>
<path d="M13.3457 3.62121V3.01367H10.4859V3.62121H13.3457Z" fill="currentColor"/>
<mask id="path-10-inside-1_557_11618" fill="white">
<path d="M26.1501 10.1406H19.384L19.3141 20.7419L20.4495 34.0003H25.421"/>
</mask>
<path d="M19.384 10.1406V9.14062H18.3905L18.384 10.134L19.384 10.1406ZM19.3141 20.7419L18.3141 20.7354L18.3138 20.7814L18.3177 20.8273L19.3141 20.7419ZM20.4495 34.0003L19.4532 34.0856L19.5315 35.0003H20.4495V34.0003ZM26.1501 9.14062H19.384V11.1406H26.1501V9.14062ZM18.384 10.134L18.3141 20.7354L20.3141 20.7485L20.3839 10.1472L18.384 10.134ZM18.3177 20.8273L19.4532 34.0856L21.4459 33.915L20.3104 20.6566L18.3177 20.8273ZM20.4495 35.0003H25.421V33.0003H20.4495V35.0003Z" fill="currentColor" mask="url(#path-10-inside-1_557_11618)"/>
<mask id="path-12-inside-2_557_11618" fill="white">
<path d="M20.1052 10.1406H26.8713L26.9412 20.7419L25.8057 34.0003H20.8342"/>
</mask>
<path d="M26.8713 10.1406V9.14062H27.8647L27.8713 10.134L26.8713 10.1406ZM26.9412 20.7419L27.9411 20.7354L27.9414 20.7814L27.9375 20.8273L26.9412 20.7419ZM25.8057 34.0003L26.8021 34.0856L26.7237 35.0003H25.8057V34.0003ZM20.1052 9.14062H26.8713V11.1406H20.1052V9.14062ZM27.8713 10.134L27.9411 20.7354L25.9412 20.7485L25.8713 10.1472L27.8713 10.134ZM27.9375 20.8273L26.8021 34.0856L24.8094 33.915L25.9448 20.6566L27.9375 20.8273ZM25.8057 35.0003H20.8342V33.0003H25.8057V35.0003Z" fill="currentColor" mask="url(#path-12-inside-2_557_11618)"/>
<path d="M25.5606 8.59473H20.6031V10.5947H25.5606V8.59473Z" stroke="currentColor" stroke-miterlimit="10"/>
<path d="M20.2955 29.457H25.6754" stroke="currentColor" stroke-miterlimit="10"/>
</svg>
