<svg width="32" height="12" viewBox="0 0 32 12" fill="none" xmlns="http://www.w3.org/2000/svg">
<g clip-path="url(#clip0_747_10811)">
<path d="M3.09841 8.25474C3.09841 8.25474 4.41183 7.97067 4.48374 7.87733C4.55565 7.78399 4.84117 6.9683 5.64488 6.4732C6.44858 5.97811 7.45109 5.38155 7.94388 5.65345C8.43668 5.92535 9.56186 4.9311 9.72895 5.10966C9.89603 5.28822 12.5313 5.53982 13.2927 5.49113C14.0541 5.44243 24.2273 7.35788 24.6291 7.49992C25.2552 7.72312 25.987 8.34402 25.987 8.34402C25.3969 7.64195 24.1723 7.17526 24.1723 7.17526C24.1723 7.17526 23.3813 7.02917 22.6135 6.89931C21.9135 6.78162 19.9 6.53407 19.7139 6.41639C19.5278 6.30276 13.6375 5.03255 13.2229 5.09748C12.8084 5.16241 8.87449 4.70384 8.75604 4.66326C8.6376 4.61862 7.81698 4.86617 7.64355 4.40354C7.47012 3.94091 5.90925 4.91892 5.38261 5.36938C4.85598 5.81984 3.87039 6.57466 3.1809 6.77756C2.73886 6.90743 1.78711 7.61355 1.78711 7.61355C1.78711 7.61355 2.12762 7.6379 2.47237 7.67036C2.58658 7.67848 2.21434 8.13705 2.28625 8.12488C2.82769 8.03154 2.85942 8.30343 3.0963 8.25068L3.09841 8.25474Z" fill="#3048EA"/>
<path d="M3.63141 1.38757C3.63141 1.38757 1.32606 1.78527 1.11456 2.11398C0.903058 2.44269 0.977083 2.58879 1.37682 2.69024C1.77655 2.7917 2.15091 3.12446 2.4174 3.14881C2.68389 3.17316 4.98924 2.64154 5.22401 2.36965C5.45877 2.09775 7.13386 2.2479 7.53359 2.48327C7.93333 2.71865 9.01832 2.1505 9.2827 1.91107C9.54708 1.67164 10.5475 1.80556 10.9599 1.59454C11.3723 1.38351 13.2399 1.55395 13.5508 1.69193C13.8617 1.82991 16.9559 2.35341 17.1822 2.64966C17.4085 2.94591 18.8467 3.11635 19.0244 3.30708C19.2042 3.49782 19.8323 4.05784 20.01 4.1106C20.7756 4.34597 20.7883 3.69261 21.0569 3.98074C21.3255 4.26887 21.9854 4.4312 21.9854 4.4312C21.9854 4.4312 22.8272 4.27698 23.2523 4.50424C24.8407 5.35646 26.7209 6.65913 26.7209 6.65913C26.7209 6.65913 23.7387 4.28104 22.952 4.16336C22.1652 4.04567 21.3361 3.56681 21.1288 3.47347C20.9216 3.38013 18.8869 2.57661 18.5316 2.45487C18.1763 2.33312 14.8113 1.8015 14.5575 1.59859C14.3037 1.39569 10.7019 0.604343 10.2873 0.685506C9.87279 0.762612 4.70372 1.17249 3.63353 1.39163L3.63141 1.38757Z" fill="#3048EA"/>
<path d="M2.64811 8.37636C2.64811 8.37636 3.69503 8.46564 4.15822 8.09635C4.6214 7.72706 5.65141 7.38211 6.37686 7.34965C7.1023 7.31718 7.22709 6.63947 7.48935 6.47308C7.58241 6.41221 8.05617 6.66382 9.11579 6.66382C10.0675 6.66382 11.2921 6.31887 12.4342 6.09162C13.5975 5.8603 14.6782 6.61918 15.1964 6.76527C15.7061 6.90731 16.66 6.52178 17.8613 6.87078C20.4649 7.62966 22.6095 7.5972 24.8028 8.42912C27.2773 9.37061 28.3623 9.92658 28.3623 9.92658C28.3623 9.92658 26.4778 8.6442 25.7376 8.48188C25.1517 8.35607 22.3219 6.93166 21.3532 7.22384C20.3845 7.51603 13.3585 5.11766 12.2714 5.75885C11.1843 6.39598 9.15597 6.37163 8.90217 6.37569C8.65049 6.37975 5.74024 6.09162 5.74024 6.09162L2.97593 7.24414C2.97593 7.24414 1.76615 7.723 2.64811 8.38042V8.37636Z" fill="#3048EA"/>
<path d="M3.20428 9.84951C3.20428 9.84951 4.4627 9.65877 4.52404 9.59384C4.58538 9.52891 4.90051 9.48427 5.63865 9.1515C6.3789 8.82279 7.19317 7.93405 7.70077 8.11261C8.20838 8.29117 9.21512 7.62969 9.39489 7.74738C9.57467 7.86507 12.3897 7.63781 13.13 7.60128C13.8702 7.56476 20.7948 8.27088 21.6386 8.77004C22.4825 9.26919 24.0307 9.26107 24.2591 9.51268C24.4876 9.76429 25.5895 9.45181 25.8327 9.50862C26.0759 9.56544 26.5666 10.1539 26.3149 9.83733C26.0632 9.5208 26.1605 9.17991 25.5197 9.32195C24.8788 9.45992 23.7071 9.05411 23.7071 9.05411C23.7071 9.05411 23.2228 9.09469 22.4889 8.66858C21.7529 8.24248 19.6146 8.06392 19.4221 7.99087C19.2297 7.91782 13.1511 6.95198 12.7535 6.99662C12.3538 7.04126 8.52986 7.49171 8.4093 7.46331C8.28875 7.4349 7.51042 7.60128 7.29681 7.29692C7.08319 6.99256 5.64922 7.64592 5.17758 7.94217C4.70382 8.24247 3.31214 8.29929 2.97374 8.58742C2.63323 8.87149 1.87183 9.43963 1.87183 9.43963C1.87183 9.43963 2.20811 9.45587 2.54651 9.4721C2.88491 9.48833 2.87011 9.90632 3.20851 9.85357L3.20428 9.84951Z" fill="#3048EA"/>
<path d="M20.2554 5.43058C20.2554 5.43058 19.2655 5.16274 19.6018 5.0207C19.9381 4.87867 21.3996 5.14245 21.6047 5.17086C21.8099 5.19926 22.8864 5.62131 23.4892 5.75117C24.092 5.87698 20.2554 4.65547 20.2554 4.65547L17.9077 4.36328L18.6353 4.8178C18.6353 4.8178 18.1425 4.91113 18.3921 5.1668C18.6395 5.42246 20.2554 5.43058 20.2554 5.43058Z" fill="#3048EA"/>
<path d="M1.71706 5.48631C1.71706 5.48631 3.40906 5.42949 3.71362 5.12107C4.01818 4.81265 4.0203 4.35814 4.51521 4.42712C5.01012 4.49611 8.02612 3.57085 8.47238 3.81028C8.91865 4.04971 9.51296 3.62767 9.51296 3.62767C9.51296 3.62767 9.20629 3.72912 9.07304 3.68042C8.9398 3.63172 8.69446 3.62767 8.26088 3.5952C7.82731 3.56273 4.89168 4.08624 4.89168 4.08624L3.13623 4.20392C3.13623 4.20392 2.09142 4.47176 1.85665 4.31755C1.62189 4.16334 0.574959 4.837 0.574959 4.837C0.574959 4.837 -0.0637717 5.11701 0.00179341 5.17789C0.0673585 5.23876 0.684939 4.96686 0.89221 5.15759C1.09948 5.34833 1.28983 5.5066 1.71495 5.48225L1.71706 5.48631Z" fill="#3048EA"/>
<path d="M10.245 3.37685C10.245 3.37685 9.86849 3.77049 10.1815 3.93282C10.4945 4.0992 11.0339 3.98557 11.2665 3.9247C11.497 3.86383 12.5736 3.77049 12.9691 3.87194C13.3646 3.9734 17.73 4.18442 18.2312 4.43197C18.2312 4.43197 17.0468 4.10732 16.0337 3.87194C15.0206 3.63657 12.9818 3.49048 12.9818 3.49048C12.9818 3.49048 10.5157 3.06437 10.2471 3.37279L10.245 3.37685Z" fill="#3048EA"/>
<path d="M3.29957 5.63991C3.29957 5.63991 1.16342 6.10254 0.985758 6.34603C0.808098 6.58952 0.888468 6.68286 1.27128 6.72344C1.6541 6.75996 2.02422 6.95881 2.27591 6.95475C2.5276 6.95069 4.65317 6.39473 4.85621 6.18776C5.05925 5.98079 6.79356 5.29902 7.18483 5.42888C7.57611 5.55874 8.36077 5.5628 8.59342 5.37613C8.82608 5.18945 9.81167 5.36801 10.1839 5.18945C10.5561 5.01089 12.3179 4.97437 12.6204 5.04741C12.9228 5.12046 15.8563 5.22597 16.089 5.41265C16.3216 5.59933 17.6795 5.59933 17.8614 5.71295C18.0411 5.83064 18.6672 6.16341 18.8385 6.18776C19.5703 6.28921 19.5407 5.8347 19.8114 6.01326C20.0821 6.18776 20.7124 6.24863 20.7124 6.24863C20.7124 6.24863 21.4886 6.13095 21.9053 6.19588C23.8659 6.49212 25.2977 7.40115 25.2977 7.40115C25.2977 7.40115 23.5211 6.09036 21.5986 5.98485C20.8541 5.94427 20.0441 5.70484 19.8431 5.65614C19.6422 5.6115 17.6816 5.22192 17.3411 5.1651C17.0006 5.10829 13.809 5.01901 13.5595 4.89726C13.3078 4.77552 9.87935 4.52797 9.49442 4.61319C9.1116 4.70247 4.28939 5.40453 3.29957 5.63991Z" fill="#3048EA"/>
<path d="M2.57184 0.645702C2.57184 0.645702 0.429346 0.974414 0.247456 1.20573C0.0655654 1.43704 0.143821 1.5385 0.524521 1.59937C0.905222 1.66024 1.27323 1.88344 1.52492 1.89562C1.7766 1.90779 3.91064 1.48574 4.11791 1.29095C4.32307 1.10022 6.07006 0.523957 6.45922 0.678168C6.84838 0.832378 7.63305 0.885134 7.86781 0.714691C8.10258 0.544248 9.08605 0.78368 9.46041 0.625411C9.83477 0.467143 11.5966 0.548306 11.8969 0.633528C12.1972 0.722807 15.1286 1.015 15.357 1.2179C15.5855 1.41675 16.9433 1.50198 17.1231 1.63184C17.3028 1.7617 17.9204 2.13505 18.0917 2.16752C18.8214 2.31361 18.8003 1.85909 19.0668 2.05389C19.3354 2.24868 19.9614 2.34607 19.9614 2.34607C19.9614 2.34607 20.7397 2.27709 21.1543 2.36637C23.1085 2.78436 24.5256 3.78267 24.5256 3.78267C24.5256 3.78267 22.7722 2.36231 20.8539 2.13505C20.1095 2.04577 19.3058 1.75764 19.1069 1.69677C18.906 1.6359 16.9539 1.12457 16.6134 1.05152C16.2728 0.974414 13.0855 0.682226 12.8381 0.544248C12.5906 0.40627 9.16642 -0.0563607 8.78149 0.00451179C8.39656 0.0694425 3.5659 0.471201 2.57184 0.641644V0.645702Z" fill="#3048EA"/>
<path d="M4.02279 11.1845C4.02279 11.1845 7.08532 9.95486 7.49563 10.0482C7.90594 10.1415 9.03324 9.13917 9.55776 9.5247C10.0823 9.91428 11.402 8.23826 11.7362 8.59538C12.0704 8.9525 12.6076 9.15946 13.2336 9.19193C13.8618 9.22439 17.4594 8.89162 19.217 9.28121C20.9745 9.67079 27.8758 10.9856 29.3542 11.6552C29.3542 11.6552 29.3775 11.5132 26.8564 10.7908C24.4093 10.0928 22.5206 9.69108 22.0172 9.50441C21.5139 9.31773 18.9949 9.08642 18.3794 8.73336C17.7661 8.3803 16.4421 8.41276 16.1185 8.43711C15.7928 8.46146 13.4282 8.65625 13.149 8.52233C12.8699 8.38841 11.4591 8.31536 9.48373 8.67248C7.51043 9.0296 6.29854 9.22439 5.82689 9.48412C5.35525 9.73978 2.8109 9.86964 2.81936 10.3931C2.82782 10.9126 3.4179 11.4158 4.02491 11.1764L4.02279 11.1845Z" fill="#3048EA"/>
<path d="M1.38542 3.79391C1.38542 3.79391 3.15568 3.72492 3.29104 3.67216C3.4264 3.61941 4.84768 2.99445 5.14589 3.0472C5.44411 3.09996 7.65217 2.6211 8.20207 2.64545C8.20207 2.64545 7.30954 2.29239 6.71523 2.42225C6.12091 2.55211 4.15607 2.87676 3.97418 2.68197C3.79018 2.49124 0.898969 2.76719 0.645168 2.92952C0.391368 3.09184 0.382908 3.83043 1.38542 3.78579V3.79391Z" fill="#3048EA"/>
<path d="M4.04611 11.9966C4.04611 11.9966 5.48643 12.0372 5.78676 11.7206C6.08709 11.4041 7.98213 10.9009 8.50243 10.7872C9.02272 10.6736 10.3044 10.3205 10.6597 10.4707C11.0172 10.6209 11.6221 9.8498 11.8124 9.88632C12.0028 9.92285 13.3987 10.3571 13.4219 10.0892C13.4452 9.82139 21.8164 10.2719 25.3611 11.4163C25.3611 11.4163 21.8735 10.2962 13.6059 9.50486C12.3708 9.38717 10.5032 9.55761 9.62761 9.90256C8.752 10.2475 5.96019 10.6574 5.4822 10.8968C5.00421 11.1362 3.59562 11.12 3.52582 11.2133C3.45603 11.3067 3.34182 12.0128 4.04611 11.9966Z" fill="#3048EA"/>
<path d="M9.37171 2.32482C9.37171 2.32482 8.97832 2.72658 9.24692 2.75905C9.51553 2.79151 10.738 2.55614 10.738 2.55614C10.738 2.55614 14.306 2.76311 14.4985 2.84427C14.6909 2.92137 13.5171 2.58049 12.6986 2.37758C11.8822 2.17467 9.84335 2.21119 9.37171 2.32482Z" fill="#3048EA"/>
<path d="M15.8308 3.14525C15.8308 3.14525 15.4438 2.96669 15.1942 2.97481C14.9446 2.98293 14.4413 3.1209 14.3397 2.98698C14.2382 2.85306 14.1388 2.54464 14.528 2.6461C14.9171 2.75161 15.0208 2.85306 15.8329 3.14525H15.8308Z" fill="#3048EA"/>
<path d="M18.7898 3.78208C18.7898 3.78208 17.8846 3.78613 17.7619 3.63598C17.6392 3.48583 16.2031 2.87305 16.2031 2.87305C16.2031 2.87305 16.2877 3.44931 16.6282 3.43713C16.9688 3.42496 18.7898 3.78208 18.7898 3.78208Z" fill="#3048EA"/>
<path d="M32 11.8413C32 11.8413 31.6298 11.541 31.4437 11.3462C31.2576 11.1554 30.9509 11.1514 30.9509 11.1514C30.9509 11.1514 31.0186 11.472 31.1096 11.5166C31.2005 11.5653 32 11.8413 32 11.8413Z" fill="#3048EA"/>
<path d="M29.6566 8.78609L29.1215 8.34375C29.1215 8.34375 28.9354 8.87537 29.1702 8.72522C29.4049 8.57912 29.6545 8.78609 29.6545 8.78609H29.6566Z" fill="#3048EA"/>
<path d="M28.7408 8.15682C27.9392 7.69013 27.6304 7.64143 26.262 7.0043C24.8936 6.36717 23.7346 6.15209 23.7832 5.85178C23.7938 5.78685 24.9126 6.24948 26.281 6.88661C27.6494 7.52375 28.8423 8.21769 28.7408 8.15682Z" fill="#3048EA"/>
</g>
<defs>
<clipPath id="clip0_747_10811">
<rect width="32" height="12" fill="white"/>
</clipPath>
</defs>
</svg>
