<svg width="120" height="126" viewBox="0 0 120 126" fill="none" xmlns="http://www.w3.org/2000/svg">
<path d="M98.9849 77.1121C98.9849 100.246 85.5264 119 61.5885 119C37.6507 119 24.1921 100.246 24.1921 77.1121C24.1921 53.9779 40.9341 35.2246 61.5885 35.2246C82.2429 35.2246 98.9849 53.9779 98.9849 77.1121Z" fill="#B9BCFF" stroke="#3048EA" stroke-miterlimit="10"/>
<path d="M54.0256 95.6424C55.4899 96.2005 58.6611 97.3312 61.5897 97.2777C66.2125 97.1933 68.7508 94.8783 70.2108 93.9453" stroke="#3048EA" stroke-miterlimit="10" stroke-linecap="round"/>
<path d="M36.1841 22.6271C31.5149 23.1399 23.9255 30.5255 20.8619 33.8682C12.8315 42.6317 10.2616 53.1334 10 59.2957C9.99579 64.8009 11.6035 68.4113 14.0236 71.7108C16.0386 74.3614 21.5624 77.733 24.2462 78.9337C26.7064 63.2068 36.2348 55.78 48.4913 47.3399C39.7393 40.8543 37.0555 26.6473 36.1862 22.625L36.1841 22.6271Z" fill="#EFF5FF" stroke="#3048EA" stroke-miterlimit="10"/>
<path d="M50.1519 8.73341C47.9787 8.45125 41.1425 9.87647 36.1504 13.7711C30.709 18.018 31.3525 23.4017 31.6922 26.2068C34.9752 53.2799 94.7725 62.6406 98.7813 73.1527C118.509 60.8653 108.388 40.77 97.5154 34.2371C90.1412 29.8069 96.5068 23.8465 86.6556 12.2738C85.7948 11.2646 79.9587 4.42272 67.7254 1.58875C64.358 0.808177 60.7268 0.571326 57.1653 2.35697C54.1481 3.87076 50.9726 6.66766 50.1498 8.73135L50.1519 8.73341Z" fill="#EFF5FF" stroke="#3048EA" stroke-miterlimit="10" stroke-linejoin="round"/>
<path d="M50.2341 8.73438L50.8587 12.6352C50.8629 12.6599 50.8671 12.6867 50.8713 12.7114C51.4959 16.534 53.7324 19.9281 57.0006 22.1175L59.3849 23.7157" stroke="#3048EA" stroke-miterlimit="10" stroke-linecap="round" stroke-linejoin="round"/>
<path d="M69.6434 2.03516C69.0822 5.55702 69.7426 9.16127 71.5951 12.3021C73.454 15.4553 76.161 18.2872 79.5073 20.8802L97.5134 34.2366" stroke="#3048EA" stroke-miterlimit="10" stroke-linejoin="round"/>
<circle cx="45" cy="77" r="10.5" fill="#EFF5FF" stroke="#3048EA"/>
<circle cx="45" cy="72" r="2" fill="#3048EA"/>
<circle cx="45" cy="82" r="2" fill="#3048EA"/>
<circle cx="50" cy="77" r="2" transform="rotate(90 50 77)" fill="#3048EA"/>
<circle cx="40" cy="77" r="2" transform="rotate(90 40 77)" fill="#3048EA"/>
<circle cx="77" cy="77" r="10.5" fill="#EFF5FF" stroke="#3048EA"/>
<circle cx="77" cy="72" r="2" fill="#3048EA"/>
<circle cx="77" cy="82" r="2" fill="#3048EA"/>
<circle cx="82" cy="77" r="2" transform="rotate(90 82 77)" fill="#3048EA"/>
<circle cx="72" cy="77" r="2" transform="rotate(90 72 77)" fill="#3048EA"/>
</svg>
