<svg width="32" height="32" viewBox="0 0 32 32" fill="none" xmlns="http://www.w3.org/2000/svg">
<mask id="mask0_1229_11885" style="mask-type:alpha" maskUnits="userSpaceOnUse" x="0" y="0" width="32" height="32">
<circle cx="16" cy="16" r="16" fill="#D9D9D9"/>
</mask>
<g mask="url(#mask0_1229_11885)">
<rect x="17.6108" y="-0.779785" width="3.79221" height="3.79221" fill="#03052B"/>
<rect x="25.1948" y="-0.779785" width="3.79221" height="3.79221" fill="#03052B"/>
<rect x="28.9873" y="10.5972" width="3.79221" height="3.79221" fill="#03052B"/>
<rect x="25.1948" y="14.3896" width="3.79221" height="3.79221" fill="#03052B"/>
<rect x="28.9873" y="18.1821" width="3.79221" height="3.79221" fill="#03052B"/>
<rect x="21.4023" y="18.1821" width="3.79221" height="3.79221" fill="#03052B"/>
<rect x="25.1948" y="21.9741" width="3.79221" height="3.79221" fill="#03052B"/>
<rect x="28.9873" y="25.7661" width="3.79221" height="3.79221" fill="#03052B"/>
<rect x="17.6108" y="21.9741" width="3.79221" height="3.79221" fill="#03052B"/>
<rect x="21.4023" y="25.7661" width="3.79221" height="3.79221" fill="#03052B"/>
<rect x="25.1948" y="29.5581" width="3.79221" height="3.79221" fill="#03052B"/>
<rect x="13.8184" y="25.7661" width="3.79221" height="3.79221" fill="#03052B"/>
<rect x="17.6108" y="29.5581" width="3.79221" height="3.79221" fill="#03052B"/>
<rect x="10.0264" y="29.5581" width="3.79221" height="3.79221" fill="#03052B"/>
<rect x="10.0264" y="6.80518" width="3.79221" height="3.79221" fill="#03052B"/>
<rect x="6.23389" y="3.01318" width="3.79221" height="3.79221" fill="#03052B"/>
<rect x="2.44189" y="-0.779785" width="3.79221" height="3.79221" fill="#03052B"/>
<rect x="-1.35059" y="3.01318" width="3.79221" height="3.79221" fill="#03052B"/>
<rect x="17.6108" y="6.80518" width="3.79221" height="3.79221" fill="#03052B"/>
<rect x="25.1948" y="6.80518" width="3.79221" height="3.79221" fill="#03052B"/>
<rect x="2.44189" y="14.3896" width="3.79221" height="3.79221" fill="#03052B"/>
<rect x="-1.35059" y="10.5972" width="3.79221" height="3.79221" fill="#03052B"/>
<rect x="10.0264" y="14.3896" width="3.79221" height="3.79221" fill="#03052B"/>
<rect x="17.6108" y="14.3896" width="3.79221" height="3.79221" fill="#03052B"/>
<rect x="13.8184" y="3.01318" width="3.79221" height="3.79221" fill="#03052B"/>
<rect x="10.0264" y="-0.779785" width="3.79221" height="3.79221" fill="#03052B"/>
<rect x="21.4023" y="3.01318" width="3.79221" height="3.79221" fill="#03052B"/>
<rect x="28.9873" y="3.01318" width="3.79221" height="3.79221" fill="#03052B"/>
<rect x="6.23389" y="10.5972" width="3.79221" height="3.79221" fill="#03052B"/>
<rect x="2.44189" y="6.80518" width="3.79221" height="3.79221" fill="#03052B"/>
<rect x="13.8184" y="10.5972" width="3.79221" height="3.79221" fill="#03052B"/>
<rect x="21.4023" y="10.5972" width="3.79221" height="3.79221" fill="#03052B"/>
<rect x="-1.35059" y="18.1821" width="3.79221" height="3.79221" fill="#03052B"/>
<rect x="6.23389" y="18.1821" width="3.79221" height="3.79221" fill="#03052B"/>
<rect x="2.44189" y="21.9741" width="3.79221" height="3.79221" fill="#03052B"/>
<rect x="-1.35059" y="25.7661" width="3.79221" height="3.79221" fill="#03052B"/>
<rect x="13.8184" y="18.1821" width="3.79221" height="3.79221" fill="#03052B"/>
<rect x="10.0264" y="21.9741" width="3.79221" height="3.79221" fill="#03052B"/>
<rect x="6.23389" y="25.7661" width="3.79221" height="3.79221" fill="#03052B"/>
<rect x="2.44189" y="29.5581" width="3.79221" height="3.79221" fill="#03052B"/>
</g>
</svg>
