<svg width="32" height="32" viewBox="0 0 32 32" fill="none" xmlns="http://www.w3.org/2000/svg">
<mask id="mask0_747_9918" style="mask-type:alpha" maskUnits="userSpaceOnUse" x="0" y="0" width="32" height="32">
<circle cx="16" cy="16" r="16" fill="#D9D9D9"/>
</mask>
<g mask="url(#mask0_747_9918)">
<rect x="17.6106" y="-0.779297" width="3.79221" height="3.79221" fill="#3048EA"/>
<rect x="25.1948" y="-0.779297" width="3.79221" height="3.79221" fill="#3048EA"/>
<rect x="28.9868" y="10.5967" width="3.79221" height="3.79221" fill="#3048EA"/>
<rect x="25.1948" y="14.3896" width="3.79221" height="3.79221" fill="#3048EA"/>
<rect x="28.9868" y="18.1816" width="3.79221" height="3.79221" fill="#3048EA"/>
<rect x="21.4023" y="18.1816" width="3.79221" height="3.79221" fill="#3048EA"/>
<rect x="25.1948" y="21.9746" width="3.79221" height="3.79221" fill="#3048EA"/>
<rect x="28.9868" y="25.7666" width="3.79221" height="3.79221" fill="#3048EA"/>
<rect x="17.6106" y="21.9746" width="3.79221" height="3.79221" fill="#3048EA"/>
<rect x="21.4023" y="25.7666" width="3.79221" height="3.79221" fill="#3048EA"/>
<rect x="25.1948" y="29.5576" width="3.79221" height="3.79221" fill="#3048EA"/>
<rect x="13.8181" y="25.7666" width="3.79221" height="3.79221" fill="#3048EA"/>
<rect x="17.6106" y="29.5576" width="3.79221" height="3.79221" fill="#3048EA"/>
<rect x="10.0259" y="29.5576" width="3.79221" height="3.79221" fill="#3048EA"/>
<rect x="10.0259" y="6.80566" width="3.79221" height="3.79221" fill="#3048EA"/>
<rect x="6.23364" y="3.01367" width="3.79221" height="3.79221" fill="#3048EA"/>
<rect x="2.44165" y="-0.779297" width="3.79221" height="3.79221" fill="#3048EA"/>
<rect x="-1.35083" y="3.01367" width="3.79221" height="3.79221" fill="#3048EA"/>
<rect x="17.6106" y="6.80566" width="3.79221" height="3.79221" fill="#3048EA"/>
<rect x="25.1948" y="6.80566" width="3.79221" height="3.79221" fill="#3048EA"/>
<rect x="2.44165" y="14.3896" width="3.79221" height="3.79221" fill="#3048EA"/>
<rect x="-1.35083" y="10.5967" width="3.79221" height="3.79221" fill="#3048EA"/>
<rect x="10.0259" y="14.3896" width="3.79221" height="3.79221" fill="#3048EA"/>
<rect x="17.6106" y="14.3896" width="3.79221" height="3.79221" fill="#3048EA"/>
<rect x="13.8181" y="3.01367" width="3.79221" height="3.79221" fill="#3048EA"/>
<rect x="10.0259" y="-0.779297" width="3.79221" height="3.79221" fill="#3048EA"/>
<rect x="21.4023" y="3.01367" width="3.79221" height="3.79221" fill="#3048EA"/>
<rect x="28.9868" y="3.01367" width="3.79221" height="3.79221" fill="#3048EA"/>
<rect x="6.23364" y="10.5967" width="3.79221" height="3.79221" fill="#3048EA"/>
<rect x="2.44165" y="6.80566" width="3.79221" height="3.79221" fill="#3048EA"/>
<rect x="13.8181" y="10.5967" width="3.79221" height="3.79221" fill="#3048EA"/>
<rect x="21.4023" y="10.5967" width="3.79221" height="3.79221" fill="#3048EA"/>
<rect x="-1.35083" y="18.1816" width="3.79221" height="3.79221" fill="#3048EA"/>
<rect x="6.23364" y="18.1816" width="3.79221" height="3.79221" fill="#3048EA"/>
<rect x="2.44165" y="21.9746" width="3.79221" height="3.79221" fill="#3048EA"/>
<rect x="-1.35083" y="25.7666" width="3.79221" height="3.79221" fill="#3048EA"/>
<rect x="13.8181" y="18.1816" width="3.79221" height="3.79221" fill="#3048EA"/>
<rect x="10.0259" y="21.9746" width="3.79221" height="3.79221" fill="#3048EA"/>
<rect x="6.23364" y="25.7666" width="3.79221" height="3.79221" fill="#3048EA"/>
<rect x="2.44165" y="29.5576" width="3.79221" height="3.79221" fill="#3048EA"/>
</g>
</svg>
