<svg width="36" height="36" viewBox="0 0 36 36" fill="none" xmlns="http://www.w3.org/2000/svg">
<path d="M23.1111 10.8889C23.1111 15.1896 19.3883 18.7778 14.6666 18.7778C9.9449 18.7778 6.22217 15.1896 6.22217 10.8889C6.22217 6.58822 9.9449 3 14.6666 3C19.3883 3 23.1111 6.58822 23.1111 10.8889Z" stroke="currentColor" stroke-width="2"/>
<path d="M14.2222 28.0744C14.2222 30.7661 11.9631 33.0003 9.11111 33.0003C6.25909 33.0003 4 30.7661 4 28.0744C4 25.3826 6.25909 23.1484 9.11111 23.1484C11.9631 23.1484 14.2222 25.3826 14.2222 28.0744Z" stroke="currentColor" stroke-width="2"/>
<path d="M32.5001 20.3702C32.5001 21.7613 31.4504 22.8332 30.2224 22.8332C28.9943 22.8332 27.9446 21.7613 27.9446 20.3702C27.9446 18.979 28.9943 17.9072 30.2224 17.9072C31.4504 17.9072 32.5001 18.979 32.5001 20.3702Z" stroke="currentColor"/>
<path d="M31.389 11.4817C31.389 12.5456 30.5881 13.3521 29.6668 13.3521C28.7456 13.3521 27.9446 12.5456 27.9446 11.4817C27.9446 10.4178 28.7456 9.61133 29.6668 9.61133C30.5881 9.61133 31.389 10.4178 31.389 11.4817Z" stroke="currentColor"/>
<path d="M22.5001 28.0745C22.5001 29.1383 21.6991 29.9448 20.7779 29.9448C19.8566 29.9448 19.0557 29.1383 19.0557 28.0745C19.0557 27.0106 19.8566 26.2041 20.7779 26.2041C21.6991 26.2041 22.5001 27.0106 22.5001 28.0745Z" stroke="currentColor"/>
<path d="M15.5608 6.00077C17.4378 6.03848 19.5586 7.63252 19.9388 9.30634C20.0752 9.90247 20.0174 10.471 19.4158 10.8685C19.119 11.0643 18.9201 11.0773 18.819 10.6582C18.3281 8.62318 16.7463 7.36709 14.372 7.12631C13.9517 7.08425 13.9405 6.94646 14.0801 6.66507C14.3015 6.21833 14.8132 5.98481 15.5608 6.00077Z" fill="currentColor"/>
</svg>
