<svg width="120" height="126" viewBox="0 0 120 126" fill="none" xmlns="http://www.w3.org/2000/svg">
<g clip-path="url(#clip0_728_27844)">
<path d="M37.9549 88.0185C41.5239 88.0234 44.1971 90.5349 44.1873 93.8745C44.1775 97.1917 41.4262 99.9867 38.0103 99.9451C34.5357 99.9018 31.7274 97.4448 31.7388 93.8601C31.7502 90.2946 34.5862 87.7463 37.9565 88.0201L37.9549 88.0185Z" fill="#B9BCFF"/>
<path d="M85.6898 88.2139C89.2588 88.2187 91.9319 90.7302 91.9221 94.0698C91.9124 97.387 89.1611 100.182 85.7451 100.14C82.2706 100.097 79.4623 97.6401 79.4737 94.0554C79.4851 90.4899 82.3211 87.9416 85.6914 88.2155L85.6898 88.2139Z" fill="#B9BCFF"/>
<path d="M98.9849 77.1121C98.9849 100.246 85.5264 119 61.5885 119C37.6507 119 24.1921 100.246 24.1921 77.1121C24.1921 53.9779 40.9341 35.2246 61.5885 35.2246C82.2429 35.2246 98.9849 53.9779 98.9849 77.1121Z" stroke="#3048EA" stroke-miterlimit="10"/>
<path d="M54.0256 95.6424C55.4899 96.2005 58.6611 97.3312 61.5897 97.2777C66.2125 97.1933 68.7508 94.8783 70.2108 93.9453" stroke="#3048EA" stroke-miterlimit="10" stroke-linecap="round"/>
<path d="M36.1841 22.6271C31.5149 23.1399 23.9255 30.5255 20.8619 33.8682C12.8315 42.6317 10.2616 53.1334 10 59.2957C9.99579 64.8009 11.6035 68.4113 14.0236 71.7108C16.0386 74.3614 21.5624 77.733 24.2462 78.9337C26.7064 63.2068 36.2348 55.78 48.4913 47.3399C39.7393 40.8543 37.0555 26.6473 36.1862 22.625L36.1841 22.6271Z" fill="#B9BCFF" stroke="#3048EA" stroke-miterlimit="10"/>
<path d="M49.1479 86.3188C50.7892 86.2458 52.0147 83.9362 51.8851 81.1603C51.7554 78.3843 50.3198 76.1932 48.6784 76.2662C47.0371 76.3392 45.8116 78.6488 45.9413 81.4247C46.0709 84.2007 47.5066 86.3919 49.1479 86.3188Z" fill="#3048EA"/>
<path d="M71.3974 85.3286C73.0387 85.2556 74.2642 82.946 74.1346 80.17C74.005 77.3941 72.5693 75.2029 70.928 75.276C69.2866 75.349 68.0611 77.6586 68.1908 80.4345C68.3204 83.2105 69.7561 85.4016 71.3974 85.3286Z" fill="#3048EA"/>
<path d="M45.216 71.4387C47.3685 70.3289 48.7662 68.7877 48.338 67.9962C47.9097 67.2048 45.8177 67.4628 43.6652 68.5726C41.5127 69.6824 40.115 71.2236 40.5432 72.0151C40.9715 72.8065 43.0636 72.5484 45.216 71.4387Z" fill="#3048EA"/>
<path d="M78.6064 71.3876C79.0005 70.6496 77.5701 69.1609 75.4115 68.0626C73.2529 66.9642 71.1836 66.672 70.7895 67.4099C70.3954 68.1479 71.8258 69.6365 73.9844 70.7349C76.143 71.8333 78.2123 72.1255 78.6064 71.3876Z" fill="#3048EA"/>
<path d="M50.1519 8.73341C47.9787 8.45125 41.1425 9.87647 36.1504 13.7711C30.709 18.018 31.3525 23.4017 31.6922 26.2068C34.9752 53.2799 94.7725 62.6406 98.7813 73.1527C118.509 60.8653 108.388 40.77 97.5154 34.2371C90.1412 29.8069 96.5068 23.8465 86.6556 12.2738C85.7948 11.2646 79.9587 4.42272 67.7254 1.58875C64.358 0.808177 60.7268 0.571326 57.1653 2.35697C54.1481 3.87076 50.9726 6.66766 50.1498 8.73135L50.1519 8.73341Z" fill="#B9BCFF" stroke="#3048EA" stroke-miterlimit="10" stroke-linejoin="round"/>
<path d="M50.2341 8.73438L50.8587 12.6352C50.8629 12.6599 50.8671 12.6867 50.8713 12.7114C51.4959 16.534 53.7324 19.9281 57.0006 22.1175L59.3849 23.7157" stroke="#3048EA" stroke-miterlimit="10" stroke-linecap="round" stroke-linejoin="round"/>
<path d="M69.6434 2.03516C69.0822 5.55702 69.7426 9.16127 71.5951 12.3021C73.454 15.4553 76.161 18.2872 79.5073 20.8802L97.5134 34.2366" stroke="#3048EA" stroke-miterlimit="10" stroke-linejoin="round"/>
<path d="M86.8965 81.8137C93.7466 74.4194 93.906 109.934 85.6936 111.483C78.1255 112.911 69.9625 89.6483 77.5253 88.0205C79.5879 87.5765 80.7043 89.8359 82.698 88.783C85.023 87.5552 84.8887 83.981 86.8965 81.8137Z" fill="#3048EA"/>
<path d="M98.5 106.138C97.3012 114.359 96.492 87.8715 88.5 90.1382C82.0116 91.9784 82 99.3939 82 106.138C82 120.011 91 130.011 91 130.011L108 128.011C107 115.011 99.0774 90.6883 98.5 101.138C98.3923 103.088 98.7818 104.206 98.5 106.138Z" fill="#EFF5FF" stroke="#3048EA" stroke-linecap="round"/>
<path d="M10.5 96.5H44.5V115.5C44.5 117.433 42.933 119 41 119H14C12.067 119 10.5 117.433 10.5 115.5V96.5Z" fill="#EFF5FF" stroke="#3048EA"/>
<path d="M44.5 96.5C44.5 96.8423 44.2203 97.3044 43.365 97.8244C42.5394 98.3263 41.3114 98.7962 39.7498 99.1977C36.6343 99.9989 32.3031 100.5 27.5 100.5C22.6969 100.5 18.3657 99.9989 15.2502 99.1977C13.6886 98.7962 12.4606 98.3263 11.635 97.8244C10.7797 97.3044 10.5 96.8423 10.5 96.5C10.5 96.1577 10.7797 95.6956 11.635 95.1756C12.4606 94.6737 13.6886 94.2038 15.2502 93.8023C18.3657 93.0011 22.6969 92.5 27.5 92.5C32.3031 92.5 36.6343 93.0011 39.7498 93.8023C41.3114 94.2038 42.5394 94.6737 43.365 95.1756C44.2203 95.6956 44.5 96.1577 44.5 96.5Z" fill="#EFF5FF" stroke="#3048EA"/>
<path d="M16.267 91.6001C13.1345 94.8866 9.9812 94.7621 10.0001 96.4269C10.0467 100.542 22.0745 101.052 27.2342 100.996C31.9919 100.945 45.4053 100.207 44.9906 96.4269C44.8577 95.2148 40.8126 92.3653 38.7236 92.3653C37.3251 92.3653 35.2306 92.8481 34.0107 92.125C32.5069 91.2335 32.7058 89.9864 31.4012 88.9138C29.3154 87.1989 23.5785 83.373 23.5785 85.7653C23.5785 86.7809 25.975 87.7221 25.6675 88.9138C24.7504 92.4673 18.2347 89.5356 16.267 91.6001Z" fill="#EFF5FF" stroke="#3048EA" stroke-linecap="round"/>
<path d="M21 95.5C23.5 97 25.0209 96.8571 27 96C28.5204 95.3416 28.8416 94.5204 29.5 93" stroke="#3048EA" stroke-linecap="round"/>
</g>
<defs>
<clipPath id="clip0_728_27844">
<rect width="120" height="126" fill="white"/>
</clipPath>
</defs>
</svg>
