<svg width="10" height="32" viewBox="0 0 10 32" fill="none" xmlns="http://www.w3.org/2000/svg">
<g clip-path="url(#clip0_747_11626)">
<path d="M4.19092 0.557354C3.64887 1.23905 3.1614 1.96017 2.63936 2.65676C2.44291 2.91875 2.5666 3.009 2.82489 3.07997C3.0177 3.13342 3.23688 3.12553 3.44878 3.27625C3.12501 3.45149 2.80215 3.44185 2.50112 3.5102C2.35015 3.54437 2.19462 3.59606 2.17553 3.76868C2.15643 3.94304 2.32923 3.98247 2.44746 4.01489C2.78669 4.10777 3.1332 4.17437 3.47971 4.25235C3.12411 4.453 2.71848 4.43636 2.34105 4.52924C2.19553 4.56516 2 4.56516 2 4.75092C2 4.96033 2.21282 4.96296 2.37015 4.99801C2.77396 5.08738 3.17776 5.17413 3.6807 5.28366C3.18777 5.36952 2.82034 5.50709 2.42381 5.5325C2.27284 5.54214 2.04183 5.55703 2.02637 5.75418C2.00909 5.97236 2.24465 5.95922 2.39471 5.99864C2.73212 6.08802 3.07227 6.16513 3.52518 6.27465C3.05408 6.38418 2.70575 6.46742 2.3556 6.54628C2.22645 6.57519 2.04274 6.55855 2.03274 6.72415C2.02001 6.92393 2.20827 6.96949 2.37288 7.00892C2.74394 7.0983 3.13683 7.11757 3.50426 7.31998C3.17685 7.36992 2.87218 7.39183 2.58206 7.46981C2.41108 7.51538 2.12733 7.52063 2.12551 7.74845C2.12369 8.00343 2.39653 8.01744 2.60116 8.05775C2.90219 8.11646 3.22051 8.1112 3.50154 8.24438C3.4788 8.34427 3.42423 8.36355 3.36148 8.37231C3.0468 8.417 2.73212 8.45555 2.41926 8.50725C2.28284 8.53003 2.13915 8.59049 2.11914 8.73681C2.09458 8.91556 2.25556 8.92783 2.39198 8.96025C2.7876 9.05225 3.18049 9.15302 3.5752 9.25028C3.24688 9.49036 2.82762 9.41588 2.45655 9.51927C2.32559 9.55608 2.16371 9.56835 2.15643 9.7357C2.14825 9.92847 2.32195 9.953 2.46928 9.98893C2.83853 10.0774 3.20778 10.1659 3.57702 10.2544C3.17595 10.2763 2.84035 10.4971 2.46019 10.5199C2.32832 10.5278 2.16461 10.576 2.1537 10.7328C2.14097 10.9256 2.32377 10.9493 2.46928 10.9834C2.84035 11.0719 3.21232 11.1552 3.69161 11.2647C3.22869 11.3707 2.88128 11.4531 2.53113 11.5302C2.40108 11.5582 2.21918 11.539 2.20827 11.7063C2.19553 11.8877 2.39744 11.9219 2.52658 11.9648C2.7394 12.0349 2.96767 12.0647 3.1914 12.1032C3.3451 12.1304 3.50972 12.1286 3.58612 12.3109C3.18413 12.3941 2.79306 12.4406 2.42291 12.5781C2.32559 12.6141 2.19735 12.6114 2.18826 12.7429C2.17917 12.8752 2.30831 12.8945 2.40017 12.9383C2.69575 13.0793 3.02497 13.096 3.3542 13.1486C3.09682 13.2336 2.81579 13.3378 2.64754 13.3781C2.54568 13.4027 2.41926 13.3965 2.39198 13.521C2.35924 13.6708 2.49839 13.7181 2.59843 13.7742C2.90856 13.9477 3.30691 13.9117 3.62977 14.1702C3.26325 14.2088 2.93312 14.2438 2.60298 14.2789C2.44473 14.2955 2.27739 14.3385 2.2592 14.5067C2.24101 14.6688 2.40926 14.6986 2.54114 14.7389C2.91675 14.8554 3.29054 14.9763 3.65251 15.1787C3.33055 15.2261 3.00951 15.2734 2.68756 15.3198C2.53295 15.3417 2.36106 15.3671 2.35378 15.5503C2.34742 15.7106 2.50658 15.7448 2.63936 15.7833C2.95676 15.8745 3.27235 15.9691 3.64341 16.0777C3.26053 16.1662 2.94676 16.2942 2.59752 16.2942C2.45928 16.2942 2.30922 16.3318 2.29921 16.5018C2.28921 16.6639 2.42745 16.7183 2.56114 16.7612C2.89946 16.8698 3.37421 17.1616 3.71344 17.2966C3.34511 17.3465 3.01224 17.3877 2.68483 17.4385C2.59298 17.4709 2.49839 17.4981 2.40107 17.52C2.34378 17.5568 2.30285 17.6094 2.29558 17.6812C2.27921 17.8547 2.45019 17.8635 2.58206 17.8968C2.96677 17.994 3.35057 18.0965 3.85532 18.228C3.43969 18.419 3.09682 18.3725 2.7876 18.4584C2.60752 18.5084 2.31831 18.4523 2.32741 18.7011C2.33559 18.9228 2.61844 18.9009 2.80397 18.9473C3.1232 19.0271 3.4406 19.1165 3.75801 19.2023C3.36784 19.2864 3.02133 19.4608 2.63572 19.4556C2.50112 19.4538 2.33559 19.4888 2.31649 19.6457C2.29376 19.835 2.47292 19.8726 2.61844 19.9094C2.95949 19.9953 3.30691 20.061 3.62886 20.2555C3.27417 20.2704 2.96495 20.4273 2.62844 20.4851C2.5193 20.5035 2.41563 20.5368 2.40835 20.6656C2.40107 20.7918 2.50476 20.847 2.60207 20.8794C2.74395 20.9267 2.89856 20.939 3.04134 20.9854C3.30782 21.073 3.63886 20.9845 3.85259 21.2316C3.44333 21.3999 2.99223 21.3026 2.6057 21.5068C2.5284 21.5471 2.42018 21.5497 2.42108 21.6645C2.42108 21.7714 2.50748 21.8064 2.59752 21.8362C2.91947 21.9422 3.24052 22.05 3.65887 22.1902C3.29508 22.376 2.97404 22.3567 2.68028 22.4277C2.5575 22.4575 2.43018 22.4873 2.42017 22.6292C2.41017 22.772 2.53477 22.8237 2.65209 22.8605C2.99041 22.9665 3.32965 23.0682 3.67161 23.1725C3.36784 23.3319 3.03497 23.3679 2.71393 23.445C2.60025 23.4721 2.45019 23.4861 2.44109 23.6325C2.43018 23.8068 2.59206 23.8314 2.72212 23.8629C3.03862 23.94 3.35693 24.011 3.69798 24.195C3.39422 24.2896 3.14048 24.3659 2.88946 24.45C2.77942 24.4868 2.6148 24.4982 2.61207 24.6357C2.60934 24.761 2.77032 24.7961 2.86854 24.8548C3.08227 24.9836 3.37967 24.952 3.59066 25.2298C3.36966 25.3279 3.17776 25.4059 2.99314 25.4971C2.81306 25.5856 2.75577 25.6889 2.98405 25.7958C3.07954 25.8405 3.16867 25.9141 3.26871 25.929C3.71617 25.9974 3.78984 26.2681 3.77529 26.6537C3.70799 28.4035 3.81621 30.1524 3.78711 31.9031C3.75983 33.5906 3.74891 35.2791 3.74527 36.9667C4.64383 37.0342 5.54148 36.9413 6.44004 37C6.46823 33.6388 6.41275 30.4503 6.41639 27.0883C6.417 26.4013 6.7435 25.9381 7.39589 25.6986C7.5023 25.6592 7.67146 25.6732 7.66145 25.5155C7.65145 25.356 7.48774 25.342 7.35951 25.2955C7.12396 25.2114 6.82747 25.2543 6.63102 25.0046C6.96662 24.8837 7.26402 24.7794 7.55959 24.6699C7.68419 24.6235 7.84517 24.5937 7.8288 24.4211C7.81243 24.2546 7.64872 24.2318 7.5214 24.2099C7.25128 24.1643 6.97753 24.1407 6.7056 24.1074C7.04392 23.8874 7.39316 23.7665 7.73876 23.6395C7.87063 23.5913 8.00069 23.5142 7.9734 23.3573C7.94794 23.2101 7.79788 23.2241 7.67964 23.211C7.3204 23.1716 6.96207 23.133 6.50097 23.0831C6.9748 22.9113 7.34132 22.7782 7.70966 22.6458C7.83153 22.602 8.01615 22.6055 7.99887 22.4277C7.98068 22.2305 7.79606 22.1911 7.62689 22.1753C7.33223 22.1473 7.03574 22.1315 6.67195 22.1052C7.02664 21.8143 7.40771 21.8047 7.72694 21.6557C7.82425 21.6102 7.9825 21.5664 7.9534 21.4183C7.92611 21.2798 7.78787 21.2632 7.66236 21.2606C7.29585 21.2544 6.9748 21.038 6.59646 21.0704C6.94297 20.9302 7.28584 20.8198 7.62962 20.7112C7.78423 20.6621 8.0116 20.6533 7.98977 20.4492C7.96613 20.2301 7.73239 20.2406 7.55323 20.2231C7.25401 20.1933 6.93115 20.2538 6.6483 20.0067C7.05029 19.9629 7.38316 19.8183 7.7233 19.6991C7.83698 19.6597 7.96976 19.6124 7.94612 19.4652C7.92429 19.3311 7.79969 19.2882 7.67419 19.2724C7.31586 19.226 6.95752 19.183 6.56554 19.1349C6.94752 18.8624 7.41135 18.8641 7.79696 18.6775C7.87973 18.6372 7.97158 18.6118 7.97977 18.5084C7.98795 18.4067 7.90337 18.355 7.83061 18.3051C7.6851 18.2052 7.51321 18.2236 7.3486 18.2113C7.0894 18.192 6.81747 18.2411 6.54826 18.1062C6.87567 17.8845 7.23582 17.8749 7.55959 17.761C7.68419 17.7171 7.83698 17.6663 7.8388 17.5104C7.84062 17.3272 7.67055 17.3439 7.54049 17.3141C7.22945 17.2414 6.92479 17.138 6.59556 17.1143C6.93752 16.9776 7.28039 16.8672 7.62235 16.7577C7.75604 16.7148 7.89337 16.6604 7.88428 16.4983C7.87427 16.3292 7.72421 16.2907 7.58597 16.2907C7.23673 16.2907 6.92296 16.1627 6.54007 16.0742C6.91114 15.9647 7.22764 15.871 7.54413 15.7798C7.67692 15.7413 7.83698 15.708 7.8297 15.5468C7.82243 15.3628 7.65054 15.3382 7.49593 15.3163C7.17398 15.2707 6.85293 15.2226 6.53098 15.1752C6.89295 14.9737 7.26674 14.8528 7.64235 14.7354C7.77332 14.6942 7.94157 14.6644 7.92429 14.5032C7.9061 14.335 7.73876 14.292 7.58051 14.2754C7.25037 14.2403 6.92024 14.2053 6.55372 14.1667C6.87658 13.9082 7.27493 13.945 7.58506 13.7707C7.6851 13.7146 7.82334 13.6673 7.79151 13.5174C7.76422 13.393 7.63781 13.3992 7.53595 13.3746C7.22945 13.3019 6.92387 13.2239 6.49733 13.1188C6.95389 12.9856 7.28402 12.8857 7.61598 12.7937C7.75513 12.7551 7.89064 12.7096 7.877 12.544C7.86245 12.3766 7.71056 12.3354 7.57414 12.3416C7.17125 12.3591 6.80746 12.1935 6.37182 12.133C6.7438 12.0226 7.07212 11.9271 7.39953 11.8263C7.55232 11.779 7.77514 11.7747 7.78241 11.5784C7.7906 11.3523 7.5505 11.4093 7.4068 11.3523C7.12578 11.2419 6.78473 11.3584 6.42458 11.0912C6.89113 11.0281 7.24128 10.9107 7.59052 10.7889C7.70693 10.7486 7.84153 10.7258 7.84062 10.5786C7.84062 10.4156 7.70693 10.3622 7.56596 10.3377C7.18944 10.2719 6.8111 10.2124 6.35909 10.2202C6.7538 9.96439 7.14669 9.96264 7.49866 9.83997C7.61052 9.80142 7.78696 9.75849 7.75877 9.58412C7.73603 9.43954 7.57869 9.46144 7.47228 9.415C7.13305 9.2678 6.74562 9.30899 6.34181 9.15565C6.78108 9.02246 7.15852 8.92082 7.52503 8.78939C7.63599 8.74996 7.82243 8.71491 7.80697 8.54843C7.7906 8.37407 7.61598 8.39509 7.48502 8.37669C7.1476 8.32762 6.83292 8.17866 6.47823 8.1664C6.75562 8.04548 7.03756 7.95874 7.31495 7.86323C7.47774 7.80715 7.73694 7.80803 7.7142 7.58284C7.68965 7.34276 7.42772 7.35064 7.23946 7.34714C6.94388 7.34188 6.67923 7.25251 6.33909 7.11933C6.77381 7.09742 7.09667 6.93882 7.43591 6.8328C7.58415 6.78636 7.81424 6.78548 7.79696 6.57344C7.78059 6.36753 7.55141 6.40521 7.40226 6.35264C7.12123 6.25363 6.77472 6.37367 6.49824 6.12219C6.86567 6.00566 7.19217 5.90051 7.51958 5.79887C7.6087 5.77083 7.70147 5.74104 7.70602 5.63677C7.71056 5.52724 7.60416 5.51235 7.52594 5.46941C7.15397 5.26438 6.7056 5.35901 6.30634 5.1899C6.40274 5.1382 6.47641 5.07862 6.56009 5.05671C6.85203 4.98136 7.15124 4.93054 7.44045 4.84642C7.56141 4.81137 7.71966 4.75968 7.71966 4.5967C7.71966 4.44073 7.55504 4.45651 7.455 4.40306C7.1285 4.22957 6.73925 4.30843 6.39729 4.15334C6.66103 4.06046 6.91478 3.97108 7.16852 3.88084C7.29676 3.83527 7.45227 3.79934 7.44954 3.63724C7.44682 3.47339 7.2913 3.44448 7.15852 3.40943C6.87567 3.33495 6.59282 3.26135 6.26723 3.17548C6.58464 3.04405 7.26129 3.26398 7.33677 3.01952C7.41408 2.77242 6.2827 0.93325 6.06533 0.61869C5.51419 -0.176037 4.80117 -0.212837 4.19182 0.552975L4.19092 0.557354Z" fill="currentColor"/>
</g>
<defs>
<clipPath id="clip0_747_11626">
<rect width="10" height="32" fill="white"/>
</clipPath>
</defs>
</svg>
