<svg width="36" height="36" viewBox="0 0 36 36" fill="none" xmlns="http://www.w3.org/2000/svg">
<path d="M28 20.5C28 24.2924 26.8403 26.8797 25.0927 28.5249C23.3333 30.1813 20.8533 31 18 31C15.1467 31 12.6667 30.1813 10.9073 28.5249C9.1597 26.8797 8 24.2924 8 20.5C8 18.7164 8.61637 16.7832 9.60903 14.8426C10.5976 12.9101 11.9269 11.0329 13.2751 9.37874C14.621 7.7275 15.9696 6.3181 16.9827 5.32094C17.3818 4.92816 17.7279 4.60027 18 4.34777C18.2721 4.60027 18.6182 4.92816 19.0173 5.32094C20.0304 6.3181 21.379 7.7275 22.7249 9.37874C24.0731 11.0329 25.4024 12.9101 26.391 14.8426C27.3836 16.7832 28 18.7164 28 20.5Z" stroke="currentColor" stroke-width="2"/>
<path d="M24.0741 20.7811C24.5915 22.9339 23.4355 25.8211 21.6709 26.7457C21.0428 27.076 20.3877 27.1768 19.7624 26.6069C19.4542 26.3257 19.3803 26.1025 19.8204 25.8643C21.9571 24.7076 22.8947 22.5344 22.4569 19.7547C22.3788 19.2628 22.53 19.2096 22.8873 19.2863C23.4546 19.408 23.8691 19.9234 24.0741 20.7811Z" fill="currentColor"/>
</svg>
