<svg width="34" height="16" viewBox="0 0 34 16" fill="none" xmlns="http://www.w3.org/2000/svg">
<path d="M1 5.36914C1 5.36914 3.34031 6.51737 4.94521 6.4212C6.2586 6.34249 6.785 5.36914 8.10137 5.36914C9.41774 5.36914 11.2575 6.4212 11.2575 6.4212C11.2575 6.4212 8.89041 13.4349 16.7808 14.1363" stroke="#3048EA" stroke-width="2" stroke-linecap="round" stroke-linejoin="round"/>
<path d="M33 5.36914C33 5.36914 30.6597 6.51737 29.0548 6.4212C27.7414 6.34249 27.215 5.36914 25.8986 5.36914C24.5823 5.36914 22.7425 6.4212 22.7425 6.4212C22.7425 6.4212 25.1096 13.4349 17.2192 14.1363" stroke="#3048EA" stroke-width="2" stroke-linecap="round" stroke-linejoin="round"/>
<path d="M20.2256 7.24856C20.2256 8.61332 19.8577 9.54588 19.3277 10.1317C18.8012 10.7136 18.067 11.0069 17.2188 11.0069C16.3705 11.0069 15.6363 10.7136 15.1098 10.1317C14.5798 9.54588 14.2119 8.61332 14.2119 7.24856C14.2119 5.96657 15.0011 4.51338 15.8693 3.32258C16.2942 2.7399 16.7201 2.24386 17.0401 1.89338C17.1043 1.82302 17.1642 1.75865 17.2188 1.70074C17.2734 1.75865 17.3332 1.82302 17.3974 1.89338C17.7174 2.24386 18.1433 2.7399 18.5682 3.32258C19.4364 4.51338 20.2256 5.96657 20.2256 7.24856Z" fill="#3048EA" stroke="#3048EA"/>
<circle cx="4.72535" cy="9.75367" r="0.876712" fill="#3048EA"/>
<circle cx="7.35523" cy="14.1365" r="0.876712" fill="#3048EA"/>
<circle cx="2.09546" cy="13.2595" r="0.876712" fill="#3048EA"/>
<circle cx="0.876712" cy="0.876712" r="0.876712" transform="matrix(-1 0 0 1 30.1514 8.87695)" fill="#3048EA"/>
<circle cx="0.876712" cy="0.876712" r="0.876712" transform="matrix(-1 0 0 1 27.5215 13.2598)" fill="#3048EA"/>
<circle cx="0.876712" cy="0.876712" r="0.876712" transform="matrix(-1 0 0 1 32.7812 12.3828)" fill="#3048EA"/>
</svg>
