<svg width="36" height="36" viewBox="0 0 36 36" fill="none" xmlns="http://www.w3.org/2000/svg">
<path d="M32.569 18C32.569 26.8367 27.4282 34 18.2845 34C9.14083 34 4 26.8367 4 18C4 9.16331 10.395 2 18.2845 2C26.174 2 32.569 9.16331 32.569 18Z"  stroke="currentColor" stroke-miterlimit="10"/>
<path d="M15.396 25.0779C15.9553 25.2911 17.1666 25.723 18.2853 25.7026C20.0511 25.6703 21.0206 24.7861 21.5784 24.4297" stroke="currentColor" stroke-miterlimit="10" stroke-linecap="round"/>
<circle cx="12" cy="16" r="3.5"  stroke="currentColor"/>
<circle cx="12.0002" cy="14.1814" r="0.727273" fill="currentColor"/>
<circle cx="12.0002" cy="17.8171" r="0.727273" fill="currentColor"/>
<circle cx="13.8181" cy="15.9997" r="0.727273" transform="rotate(90 13.8181 15.9997)" fill="currentColor"/>
<circle cx="10.1819" cy="15.9997" r="0.727273" transform="rotate(90 10.1819 15.9997)" fill="currentColor"/>
<circle cx="23.6362" cy="16" r="3.5"  stroke="currentColor"/>
<circle cx="23.6355" cy="14.1814" r="0.727273" fill="currentColor"/>
<circle cx="23.6355" cy="17.8171" r="0.727273" fill="currentColor"/>
<circle cx="25.4539" cy="15.9997" r="0.727273" transform="rotate(90 25.4539 15.9997)" fill="currentColor"/>
<circle cx="21.8181" cy="15.9997" r="0.727273" transform="rotate(90 21.8181 15.9997)" fill="currentColor"/>
<path d="M31.981 27.7435C32.0436 29.6754 30.9522 30.5541 29.5722 30.5989C28.1922 30.6436 27.0462 29.8375 26.9836 27.9055C26.9209 25.9735 29.3454 23.6026 29.3454 23.6026C29.3454 23.6026 31.9183 25.8115 31.981 27.7435Z" fill="currentColor"/>
<path d="M9.36231 24.675C9.35852 25.7796 8.6853 26.2589 7.85688 26.2561C7.02846 26.2533 6.35854 25.7693 6.36233 24.6648C6.36612 23.5602 7.8706 22.2561 7.8706 22.2561C7.8706 22.2561 9.3661 23.5705 9.36231 24.675Z" fill="currentColor"/>
</svg>
