<svg width="34" height="29" viewBox="0 0 34 29" fill="none" xmlns="http://www.w3.org/2000/svg">
<path d="M11.7908 8.69928C12.063 8.49251 12.4246 8.44089 12.7482 8.56258L20.4414 11.4555C20.7841 11.5844 21.0318 11.8877 21.0881 12.2473L22.2876 19.9069C22.3439 20.2665 22.2 20.6257 21.9118 20.8447L15.4414 25.76C15.1692 25.9668 14.8077 26.0184 14.484 25.8967L6.79085 23.0038C6.44817 22.8749 6.20047 22.5716 6.14415 22.212L4.94462 14.5524C4.88829 14.1927 5.03225 13.8335 5.32047 13.6146L11.7908 8.69928Z" stroke="currentColor" stroke-width="2" stroke-linejoin="round"/>
<path d="M1 27.3514L5.99606 23.4227M21.1144 11.5393L27.4497 7.70792M27.4497 7.70792L33 9.75596M27.4497 7.70792L27.9722 1.28516" stroke="currentColor" stroke-width="2" stroke-linecap="round" stroke-linejoin="round"/>
<path d="M17.7515 13.8804L18.6332 19.7734M8.34717 15.5641L12.7555 11.916M9.22883 20.6153L14.5188 22.5796" stroke="currentColor" stroke-width="2" stroke-linecap="round" stroke-linejoin="round"/>
</svg>
