<svg width="32" height="32" viewBox="0 0 32 32" fill="none" xmlns="http://www.w3.org/2000/svg">
<path d="M17.8202 2.75865C17.8202 3.70905 17.0261 4.51729 15.9995 4.51729C14.9728 4.51729 14.1787 3.70905 14.1787 2.75865C14.1787 1.80824 14.9728 1 15.9995 1C17.0261 1 17.8202 1.80824 17.8202 2.75865Z" fill="#FFFEFE" stroke="currentColor" stroke-width="2"/>
<path d="M17.8202 29.2411C17.8202 30.1915 17.0261 30.9997 15.9995 30.9997C14.9728 30.9997 14.1787 30.1915 14.1787 29.2411C14.1787 28.2907 14.9728 27.4824 15.9995 27.4824C17.0261 27.4824 17.8202 28.2907 17.8202 29.2411Z" fill="#FFFEFE" stroke="currentColor" stroke-width="2"/>
<path d="M28.6274 10.9057C27.75 11.4011 26.6461 11.1002 26.1533 10.2654C25.6604 9.43057 25.946 8.34524 26.8233 7.84984C27.7007 7.35443 28.8046 7.65527 29.2974 8.49011C29.7903 9.32494 29.5047 10.4103 28.6274 10.9057Z" fill="#FFFEFE" stroke="currentColor" stroke-width="2"/>
<path d="M5.17618 24.1479C4.29879 24.6433 3.19495 24.3424 2.70211 23.5076C2.20927 22.6728 2.49478 21.5874 3.37217 21.092C4.24956 20.5966 5.35339 20.8975 5.84624 21.7323C6.33908 22.5671 6.05357 23.6525 5.17618 24.1479Z" fill="#FFFEFE" stroke="currentColor" stroke-width="2"/>
<path d="M26.8234 24.149C25.946 23.6536 25.6605 22.5682 26.1533 21.7334C26.6462 20.8986 27.75 20.5977 28.6274 21.0931C29.5048 21.5886 29.7903 22.6739 29.2975 23.5087C28.8046 24.3435 27.7008 24.6444 26.8234 24.149Z" fill="#FFFEFE" stroke="currentColor" stroke-width="2"/>
<path d="M3.37222 10.9068C2.49483 10.4114 2.20931 9.32606 2.70216 8.49123C3.195 7.65639 4.29884 7.35555 5.17623 7.85096C6.05362 8.34636 6.33913 9.43169 5.84629 10.2665C5.35344 11.1014 4.24961 11.4022 3.37222 10.9068Z" fill="#FFFEFE" stroke="currentColor" stroke-width="2"/>
</svg>
