<svg width="32" height="32" viewBox="0 0 32 32" fill="none" xmlns="http://www.w3.org/2000/svg">
<path d="M3.76393 15.4433C5.48545 11.2548 11.1134 14.511 14.7207 11.7588C17.9855 9.26791 17.4537 1.13805 20.8809 3.22957C23.404 4.76938 20.6098 8.28088 22.2627 10.7334C23.2545 12.2049 25.3648 12.0025 25.6334 13.7714C25.9692 15.9825 22.8147 16.0912 21.743 18.0879C20.3948 20.5995 23.0743 24.2656 20.402 25.2238C18.4294 25.9312 17.5058 23.6597 15.4537 23.3715C12.3006 22.9288 10.3032 26.2244 7.39292 24.9724C3.74403 23.4027 2.22501 19.1875 3.76393 15.4433Z" fill="#3048EA"/>
<path d="M3.8912 8.80241C6.19472 10.9723 9.99903 9.23294 12.142 6.93181C13.1658 5.83247 14.3618 4.90777 13.7922 3.56474C13.2226 2.22171 11.6173 1.7144 10.0793 2.06826C8.51772 2.42756 9.03807 4.39529 7.60407 5.06122C5.87731 5.8631 3.83514 3.29174 2.65357 4.6871C1.53479 6.00831 2.6172 7.60234 3.8912 8.80241Z" fill="#3048EA"/>
</svg>
