<svg width="32" height="32" viewBox="0 0 32 32" fill="none" xmlns="http://www.w3.org/2000/svg">
<ellipse cx="16.0303" cy="15.9996" rx="2.29004" ry="2.28571" fill="#3048EA"/>
<ellipse cx="22.9004" cy="15.9996" rx="2.29004" ry="2.28571" fill="#3048EA"/>
<ellipse cx="9.16016" cy="15.9996" rx="2.29004" ry="2.28571" fill="#3048EA"/>
<ellipse cx="2.2868" cy="2.28896" rx="2.2868" ry="2.28896" transform="matrix(0.50071 0.865615 -0.866435 0.49929 20.3042 18.8154)" fill="#3048EA"/>
<ellipse cx="2.2868" cy="2.28896" rx="2.2868" ry="2.28896" transform="matrix(0.50071 0.865615 -0.866435 0.49929 13.4331 6.93945)" fill="#3048EA"/>
<ellipse cx="2.2868" cy="2.28896" rx="2.2868" ry="2.28896" transform="matrix(-0.50071 0.865615 -0.866435 -0.49929 15.7241 21.1016)" fill="#3048EA"/>
<ellipse cx="2.2868" cy="2.28896" rx="2.2868" ry="2.28896" transform="matrix(-0.50071 0.865615 -0.866435 -0.49929 22.5933 9.22461)" fill="#3048EA"/>
<ellipse cx="25.16" cy="27.4283" rx="2.25965" ry="2.28571" fill="#3048EA"/>
<ellipse cx="29.7401" cy="20.5718" rx="2.25965" ry="2.28571" fill="#3048EA"/>
<ellipse cx="29.7401" cy="12.5718" rx="2.25965" ry="2.28571" fill="#3048EA"/>
<ellipse cx="25.16" cy="5.71443" rx="2.25965" ry="2.28571" fill="#3048EA"/>
<ellipse cx="2.25965" cy="2.28571" rx="2.25965" ry="2.28571" transform="matrix(-1 0 0 1 18.2593 0)" fill="#3048EA"/>
<ellipse cx="2.25965" cy="2.28571" rx="2.25965" ry="2.28571" transform="matrix(-1 0 0 1 18.2593 27.4287)" fill="#3048EA"/>
<ellipse cx="2.25965" cy="2.28571" rx="2.25965" ry="2.28571" transform="matrix(-1 0 0 1 9.09912 25.1426)" fill="#3048EA"/>
<ellipse cx="2.25965" cy="2.28571" rx="2.25965" ry="2.28571" transform="matrix(-1 0 0 1 4.51904 18.2861)" fill="#3048EA"/>
<ellipse cx="2.25965" cy="2.28571" rx="2.25965" ry="2.28571" transform="matrix(-1 0 0 1 4.51904 10.2861)" fill="#3048EA"/>
<ellipse cx="2.25965" cy="2.28571" rx="2.25965" ry="2.28571" transform="matrix(-1 0 0 1 9.09912 3.42871)" fill="#3048EA"/>
</svg>
