<svg width="32" height="32" viewBox="0 0 32 32" fill="none" xmlns="http://www.w3.org/2000/svg">
<path d="M31.999 22.0565C31.9852 22.7907 31.2717 23.2465 30.5479 22.9593C28.8217 22.2744 27.1016 21.5757 25.378 20.8821C24.5763 20.5595 23.7746 20.2396 22.9747 19.9135C22.3088 19.6429 22.0225 19.0808 22.2552 18.5169C22.4904 17.947 23.0837 17.7395 23.7418 18.005C26.2385 19.0107 28.7343 20.0173 31.2302 21.0257C31.7586 21.2393 32.0068 21.5783 31.9982 22.0556L31.999 22.0565Z" fill="#3048EA"/>
<path d="M9.87647 19.1445C9.86176 19.5103 9.62826 19.8225 9.20278 20.0041C6.85826 21.002 4.51462 22.0017 2.17011 23.0006C1.9712 23.0853 1.77489 23.1761 1.57338 23.2522C0.993959 23.4719 0.43183 23.2479 0.203519 22.7126C-0.021333 22.1877 0.212167 21.6074 0.782079 21.3618C2.58003 20.5861 4.38403 19.8233 6.1863 19.0563C6.92831 18.7406 7.666 18.4146 8.4132 18.1111C9.15262 17.8101 9.87214 18.2762 9.87733 19.1445H9.87647Z" fill="#3048EA"/>
<path d="M19.052 22.127C19.5691 22.1304 19.8606 22.4288 20.0499 22.8759C20.8585 24.7819 21.6697 26.6861 22.4809 28.5904C22.7343 29.1854 22.9964 29.7769 23.2411 30.3753C23.4954 30.9954 23.2679 31.5765 22.6963 31.8083C22.1549 32.0279 21.6006 31.7676 21.342 31.1606C20.2817 28.6743 19.2275 26.1863 18.1621 23.7017C17.9701 23.2538 17.9493 22.8439 18.284 22.4564C18.4872 22.2221 18.7484 22.1278 19.0511 22.127H19.052Z" fill="#3048EA"/>
<path d="M8.80377 14.1096C8.62994 14.1078 8.46562 14.0689 8.30217 14.0032C5.79335 12.9896 3.28279 11.9813 0.773969 10.9678C0.127088 10.7066 -0.142734 10.1661 0.0743342 9.5988C0.299186 9.01161 0.874287 8.79974 1.54106 9.06782C4.05161 10.077 6.56303 11.0845 9.07099 12.1015C9.86835 12.4249 10.075 13.2768 9.50686 13.8328C9.31055 14.0248 9.07445 14.1104 8.8029 14.1104L8.80377 14.1096Z" fill="#3048EA"/>
<path d="M14.1214 23.1975C14.1171 23.3722 14.0747 23.5365 14.009 23.6991C12.9972 26.2087 11.9897 28.72 10.9778 31.2296C10.7219 31.8661 10.1641 32.1437 9.60538 31.9241C9.03201 31.6984 8.80024 31.1276 9.05363 30.4937C10.0767 27.9408 11.105 25.3914 12.1384 22.8429C12.3356 22.356 12.8164 22.0949 13.2774 22.1874C13.7721 22.2868 14.1154 22.6985 14.1206 23.1966L14.1214 23.1975Z" fill="#3048EA"/>
<path d="M22.1325 12.8683C22.1524 12.4437 22.4222 12.147 22.859 11.962C24.6457 11.2062 26.4306 10.4443 28.2156 9.68499C28.93 9.38145 29.6417 9.07358 30.3586 8.77523C30.9813 8.51579 31.5754 8.7268 31.8081 9.27854C32.0424 9.83287 31.7847 10.3967 31.1525 10.6665C28.6541 11.7337 26.1548 12.7982 23.6529 13.8567C22.8641 14.1906 22.1187 13.7296 22.1325 12.8683Z" fill="#3048EA"/>
<path d="M12.9889 9.86759C12.4734 9.87364 12.1621 9.59778 11.9701 9.14463C11.3007 7.56725 10.6279 5.9916 9.95683 4.41509C9.55123 3.46122 9.13698 2.51082 8.74349 1.55176C8.54199 1.06056 8.70285 0.556389 9.10845 0.290033C9.51837 0.0202184 10.007 0.0625932 10.3849 0.394673C10.5086 0.502772 10.5838 0.638544 10.647 0.785558C11.7176 3.30296 12.7753 5.82642 13.8684 8.33432C14.2273 9.1576 13.6314 9.88748 12.9897 9.86846L12.9889 9.86759Z" fill="#3048EA"/>
<path d="M17.8887 8.78796C17.9025 8.64008 17.9233 8.47231 17.9899 8.308C19.0086 5.78627 20.0213 3.26108 21.0418 0.739352C21.2597 0.201452 21.6307 -0.0355005 22.1349 0.00427987C22.5665 0.0380067 22.9202 0.358844 23.0412 0.808535C23.1018 1.03165 23.0594 1.23747 22.9772 1.4407C21.9447 4.0048 20.9129 6.56891 19.8743 9.13042C19.6667 9.64324 19.1894 9.90181 18.7042 9.79544C18.2251 9.6908 17.8965 9.29473 17.8887 8.7871V8.78796Z" fill="#3048EA"/>
<path d="M11.5308 10.4705C11.5169 10.9383 11.3301 11.2687 10.9375 11.4365C10.5198 11.6155 10.1133 11.5558 9.7821 11.2289C8.89135 10.352 8.00924 9.46647 7.12367 8.58438C6.92995 8.39153 6.73277 8.20301 6.54511 8.00497C6.098 7.5328 6.0833 6.92225 6.50359 6.5011C6.92476 6.07908 7.54829 6.08514 8.00491 6.53915C9.06604 7.5916 10.1168 8.65443 11.1753 9.70948C11.4002 9.93346 11.5299 10.192 11.5316 10.4714L11.5308 10.4705Z" fill="#3048EA"/>
<path d="M25.7984 24.6803C25.7984 25.1759 25.615 25.5019 25.2276 25.6844C24.8307 25.872 24.4216 25.8539 24.1033 25.5417C22.9644 24.4252 21.8332 23.2993 20.7202 22.156C20.3483 21.7746 20.3916 21.1598 20.7513 20.7853C21.1284 20.3927 21.758 20.3218 22.1515 20.7032C23.3069 21.8239 24.4372 22.9698 25.5709 24.113C25.737 24.2808 25.8062 24.5056 25.7992 24.6795L25.7984 24.6803Z" fill="#3048EA"/>
<path d="M14.9771 5.88133C14.9771 5.13329 14.9711 4.38524 14.9788 3.63806C14.9858 3.01801 15.4052 2.5761 15.9786 2.56659C16.5805 2.55621 17.0293 2.99552 17.0328 3.63114C17.0406 5.15577 17.0397 6.6804 17.0319 8.20416C17.0285 8.81124 16.5831 9.25401 16.0097 9.25142C15.4216 9.24796 14.9884 8.82248 14.9797 8.21194C14.9693 7.43536 14.9771 6.65878 14.978 5.88219L14.9771 5.88133Z" fill="#3048EA"/>
<path d="M14.9762 26.0692C14.9762 25.3211 14.971 24.5739 14.978 23.8259C14.984 23.1825 15.4104 22.7414 16.0088 22.7432C16.6081 22.7449 17.0302 23.1859 17.0328 23.8319C17.038 25.3272 17.0388 26.8224 17.0328 28.3176C17.0302 28.9723 16.6159 29.4159 16.0218 29.4254C15.4078 29.4349 14.9832 28.9878 14.978 28.3116C14.9719 27.5635 14.9762 26.8163 14.9762 26.0683V26.0692Z" fill="#3048EA"/>
<path d="M25.7975 7.23732C25.8044 7.54605 25.6713 7.79165 25.4585 8.00353C24.4 9.05857 23.3458 10.1179 22.2829 11.1678C21.8142 11.6305 21.2036 11.6521 20.7825 11.243C20.3483 10.8219 20.3587 10.1906 20.8318 9.71149C21.8816 8.6478 22.9402 7.59189 23.9987 6.53684C24.3351 6.20217 24.7347 6.08975 25.1826 6.28605C25.5908 6.4642 25.7941 6.79109 25.7975 7.23732Z" fill="#3048EA"/>
<path d="M5.92581 14.9684C6.67301 14.9684 7.42108 14.9615 8.16828 14.9702C8.83332 14.978 9.26486 15.4112 9.25967 16.0425C9.25448 16.5847 8.78489 17.0154 8.16828 17.0189C6.66177 17.0275 5.1544 17.0301 3.64789 17.0258C3.03647 17.024 2.59455 16.6107 2.59109 16.0667C2.58763 15.4017 2.93615 15.0074 3.60033 14.9892C4.3752 14.9676 5.15094 14.984 5.92668 14.984C5.92668 14.9788 5.92668 14.9736 5.92668 14.9684H5.92581Z" fill="#3048EA"/>
<path d="M26.1254 14.9699C26.8605 14.9699 27.5947 14.9665 28.3298 14.9708C28.9896 14.9743 29.422 15.3773 29.4264 15.9861C29.4316 16.594 28.9966 17.0229 28.3497 17.0255C26.8388 17.0307 25.328 17.0307 23.8172 17.0247C23.166 17.0221 22.7725 16.5957 22.7708 15.9186C22.769 15.3937 23.1988 14.9812 23.7912 14.9717C24.5687 14.9587 25.347 14.9682 26.1254 14.9682V14.9699Z" fill="#3048EA"/>
<path d="M11.534 21.5022C11.5245 21.7789 11.4242 22.034 11.2071 22.2502C10.1278 23.3243 9.05633 24.407 7.97531 25.4785C7.54636 25.9039 6.91937 25.9005 6.50685 25.4932C6.1099 25.1014 6.07791 24.4762 6.48869 24.0559C7.58355 22.936 8.6931 21.8308 9.81131 20.7342C10.1252 20.4264 10.5334 20.3771 10.9347 20.5543C11.3239 20.7264 11.5107 21.0559 11.5332 21.5022H11.534Z" fill="#3048EA"/>
</svg>
