<svg width="32" height="32" viewBox="0 0 32 32" fill="none" xmlns="http://www.w3.org/2000/svg">
<path d="M30.2842 16.7455C30.8497 12.7105 25.6501 12.3913 22.6808 9.60134C19.8105 6.90439 19.255 2.35853 15.3308 2.69536C11.8126 2.99735 11.9401 7.13458 9.13927 9.28499C6.88991 11.012 4.0101 10.3348 2.85584 12.9251C1.24608 16.5376 4.11372 21.2097 8.04726 21.6205C10.5306 21.8799 11.3913 19.2818 13.8697 18.9789C17.5518 18.5289 19.1585 22.7044 22.8254 22.1444C26.38 21.6015 29.7851 20.3065 30.2842 16.7455Z" stroke="#F45C6F" stroke-width="2" stroke-linecap="round" stroke-linejoin="round"/>
<path d="M14.3262 8.98288L16.4128 7.5918" stroke="#F45C6F" stroke-width="2" stroke-linecap="round" stroke-linejoin="round"/>
<path d="M7.37109 15.938L9.45772 14.5469" stroke="#F45C6F" stroke-width="2" stroke-linecap="round" stroke-linejoin="round"/>
<path d="M12.9351 13.4956L14.7933 15.1798" stroke="#F45C6F" stroke-width="2" stroke-linecap="round" stroke-linejoin="round"/>
<path d="M23.3683 16.6873L25.6647 17.6951" stroke="#F45C6F" stroke-width="2" stroke-linecap="round" stroke-linejoin="round"/>
<path d="M19.1947 13.5071L21.6815 13.831" stroke="#F45C6F" stroke-width="2" stroke-linecap="round" stroke-linejoin="round"/>
</svg>
