<svg width="34" height="16" viewBox="0 0 34 16" fill="none" xmlns="http://www.w3.org/2000/svg">
<path d="M33 6.49913C33 6.49913 31.1392 7.01238 28.661 7.56212M6.9661 7.67424C6.9661 7.67424 15.2201 9.1411 20.5254 8.84935M20.5254 8.84935C20.5254 8.84935 16.1867 13.9744 13.4746 13.9747C10.7624 13.9749 1.00026 10.0245 1 6.49913C0.999735 2.97381 16.1864 2.97381 16.1864 2.97381L20.5254 5.32403L18.3559 1.7987C18.3559 1.7987 21.6688 0.890471 23.7797 1.21114C27.2857 1.74376 28.661 7.56212 28.661 7.56212M20.5254 8.84935C23.0099 8.71273 26.1519 8.11872 28.661 7.56212M28.661 7.56212C28.661 7.56212 27.1086 11.2595 25.4068 12.9622C21 17.3715 16.4286 12.7029 16.4286 12.7029" stroke="#3048EA" stroke-width="2" stroke-linecap="round" stroke-linejoin="round"/>
</svg>
