<svg width="10" height="32" viewBox="0 0 10 32" fill="none" xmlns="http://www.w3.org/2000/svg">
<g clip-path="url(#clip0_747_11407)">
<path d="M4.53809 13.7703C4.11838 13.7345 3.69952 13.7003 3.28066 13.6611C3.16665 13.6508 3.03491 13.6269 3.03491 13.481C3.03491 13.324 3.17763 13.3317 3.28657 13.3223C3.54498 13.2992 3.81268 13.3453 4.05842 13.1558C3.74174 13.1558 3.42506 13.1601 3.10839 13.1541C2.96989 13.1516 2.78664 13.1541 2.77566 12.9715C2.76215 12.7522 2.9682 12.7513 3.11345 12.7471C3.534 12.7351 3.9554 12.7428 4.37932 12.7027C4.02295 12.6702 3.67756 12.6003 3.33639 12.503C3.24519 12.4765 3.11514 12.4936 3.12443 12.3545C3.13288 12.229 3.25279 12.2154 3.35075 12.2145C3.82873 12.2111 4.3067 12.2128 4.78636 12.177C4.20283 12.2213 3.65729 11.9551 3.07714 11.9798C2.96229 11.9849 2.78579 12.0046 2.79931 11.8142C2.80944 11.664 2.96482 11.6871 3.07207 11.6845C3.35328 11.676 3.63534 11.6803 3.91655 11.6734C4.06687 11.67 4.22985 11.6939 4.3599 11.5155C3.92922 11.4072 3.46053 11.5625 2.98678 11.2663C3.57369 11.07 4.08545 10.9949 4.61409 10.9787C4.21381 10.9608 3.81015 10.9651 3.41324 10.9139C3.2207 10.8891 2.8618 10.9881 2.88037 10.6749C2.89558 10.412 3.22492 10.517 3.42 10.5102C3.82535 10.4948 4.23238 10.5059 4.63942 10.4701C4.25434 10.4308 3.86841 10.3967 3.48418 10.3514C3.34146 10.3344 3.11007 10.3847 3.11683 10.1722C3.12358 9.92985 3.36679 10.0024 3.52049 9.99471C3.78143 9.98191 4.04322 9.9913 4.41057 9.9913C4.06011 9.80781 3.79157 9.84792 3.52978 9.83171C3.37608 9.82232 3.21985 9.82146 3.06954 9.79074C2.95807 9.76855 2.85082 9.696 2.86011 9.56116C2.87024 9.41181 2.99776 9.39645 3.11261 9.39559C3.58974 9.39218 4.06771 9.39389 4.54822 9.36487C4.18425 9.32988 3.82028 9.30599 3.47404 9.17627C3.39888 9.1481 3.28657 9.16516 3.28235 9.05422C3.27728 8.92108 3.39466 8.89719 3.49093 8.89548C3.8701 8.88865 4.24928 8.89292 4.63014 8.85195C4.11331 8.88012 3.63787 8.61726 3.12274 8.64798C3.0138 8.65481 2.86602 8.64116 2.8694 8.49095C2.87362 8.33392 3.02731 8.35526 3.13372 8.3544C3.69276 8.35013 4.25181 8.35269 4.85392 8.35269C4.44773 8.16494 4.05927 8.15043 3.66912 8.11971C3.48418 8.1052 3.15905 8.15384 3.17256 7.87733C3.18439 7.63836 3.48502 7.70578 3.6725 7.69981C3.99171 7.68957 4.31177 7.69725 4.63182 7.59569C4.22563 7.59569 3.81859 7.60678 3.4124 7.58972C3.25617 7.58289 3.01465 7.58801 3.01549 7.36782C3.01634 7.12289 3.2587 7.18433 3.41409 7.18092C3.87686 7.17239 4.33963 7.1775 4.80325 7.15531C4.34977 7.10496 3.8929 7.10667 3.44533 7.0145C3.3195 6.9889 3.16328 6.97524 3.16919 6.81223C3.17594 6.63813 3.34315 6.65435 3.46475 6.65264C3.91317 6.64752 4.36244 6.65093 4.81339 6.60826C4.35568 6.57241 3.89797 6.53572 3.44026 6.49987C3.25955 6.48536 3.00789 6.50158 2.99945 6.27457C2.98847 6.00317 3.25617 6.07486 3.42337 6.06974C3.80086 6.05864 4.18003 6.06632 4.56089 6.0356C4.18087 6.04414 3.83041 5.90161 3.46475 5.84357C3.37524 5.82907 3.23843 5.8615 3.24519 5.71386C3.2511 5.59182 3.37102 5.56706 3.46898 5.56535C3.85997 5.55938 4.25181 5.5628 4.64449 5.5261C4.17665 5.53122 3.7485 5.28202 3.27728 5.31957C3.16919 5.3281 3.0214 5.31189 3.03154 5.15741C3.04167 5.00123 3.19452 5.02684 3.29924 5.02598C3.83041 5.02172 4.36244 5.02428 4.94766 5.02428C4.46715 4.86212 4.02802 4.80323 3.57876 4.79556C3.46222 4.79385 3.28488 4.78872 3.30599 4.61206C3.32288 4.46698 3.48671 4.51136 3.58974 4.50965C4.02464 4.50367 4.46039 4.50709 4.93921 4.50709C4.41817 4.33128 3.92162 4.29202 3.42506 4.23911C3.27559 4.22289 3.01971 4.25532 3.02985 4.02404C3.03998 3.78593 3.28488 3.85762 3.43942 3.85421C3.88868 3.84482 4.33879 3.8508 4.79143 3.82007C4.40213 3.79191 4.01451 3.76545 3.63196 3.6895C3.50698 3.66475 3.35244 3.6528 3.37439 3.47784C3.39213 3.33702 3.534 3.33788 3.64632 3.33702C4.03393 3.33361 4.42239 3.33617 4.81085 3.28667C4.39283 3.24827 3.97482 3.21242 3.5568 3.17146C3.45969 3.16207 3.35666 3.15439 3.26884 3.11684C3.17256 3.07587 3.02056 3.0443 3.04336 2.90348C3.07038 2.73364 3.22999 2.75242 3.35159 2.76863C3.86757 2.83435 4.38355 2.79765 4.9789 2.80704C4.43084 2.53906 3.8321 2.8335 3.34653 2.39482C3.9005 2.20195 4.42915 2.2284 4.95441 2.18147C4.4055 2.22073 3.88277 2.05345 3.34568 2.00054C3.22577 1.98859 3.04589 2.02358 3.04082 1.85374C3.03491 1.63868 3.23675 1.6933 3.36173 1.69159C3.97398 1.68391 4.58707 1.68818 5.26518 1.68818C5.09291 1.4697 4.9181 1.50127 4.76103 1.48847C4.25603 1.44921 3.75103 1.41337 3.24688 1.37582C3.11936 1.36643 2.97665 1.36301 2.915 1.23073C2.83815 1.06602 3.01296 1.0242 3.08643 0.93203C3.3575 0.589798 3.75103 0.466904 4.13949 0.345714C4.63351 0.190388 5.1174 -0.00419628 5.65026 7.23415e-05C6.55639 0.00690061 7.17877 0.578701 7.1965 1.49615C7.21086 2.23352 7.23535 2.9726 7.1281 3.70998C7.02508 4.41492 7.05632 5.12925 7.04619 5.83931C7.01916 7.71603 6.93894 9.59359 6.97948 11.4678C7.05126 14.838 6.9913 18.2082 7.06815 21.5767C7.10868 23.3792 7.14837 25.1894 7.33753 26.979C7.58074 29.2808 7.5039 31.5825 7.40847 33.8731C7.32571 35.848 7.38398 37.8228 7.27758 39.7943C7.18722 41.4713 7.28602 43.1526 7.18215 44.8253C6.99468 47.8209 7.09686 50.8241 6.91868 53.8163C6.82916 55.3201 6.83169 56.8272 6.69236 58.3276C6.64929 58.7919 6.45252 58.989 5.99566 58.9958C5.64351 59.001 5.29221 59.0018 4.94006 58.9958C4.47053 58.9873 4.33795 58.8593 4.33541 58.3805C4.32697 57.1003 4.32697 55.821 4.32528 54.5409C4.32021 51.0563 4.36413 47.5717 4.29826 44.0879C4.19354 38.5568 4.26617 33.0256 4.21128 27.4945C4.19523 25.8969 3.79157 24.3854 3.12274 22.9431C2.9378 22.5445 2.75624 22.1451 2.57467 21.7449C2.42182 21.4078 2.49445 21.3079 2.87784 21.2524C3.52387 21.1603 4.19354 21.2217 4.87926 20.9443C4.23914 20.9443 3.66405 20.9469 3.08896 20.9426C2.96905 20.9418 2.80099 20.981 2.76299 20.8223C2.71232 20.6115 2.92936 20.6294 3.03998 20.5774C3.33133 20.44 3.64969 20.5074 3.95624 20.4835C4.16145 20.4673 4.37679 20.5193 4.56849 20.3205C4.25519 20.3205 3.94188 20.3256 3.62943 20.3188C3.44871 20.3154 3.1903 20.329 3.17932 20.1088C3.16665 19.8519 3.43858 19.9091 3.60663 19.898C3.85828 19.8818 4.11163 19.8938 4.36666 19.8033C3.99171 19.8033 3.61761 19.8084 3.24266 19.8007C3.08558 19.7982 2.88882 19.77 2.88206 19.5823C2.87362 19.3646 3.08558 19.3843 3.23421 19.3817C3.6421 19.3749 4.04998 19.3791 4.46124 19.345C4.09642 19.3177 3.77214 19.1129 3.39635 19.1368C3.04674 19.1598 2.94033 18.8039 2.76806 18.6127C2.61774 18.4463 2.8922 18.3482 3.0594 18.3507C3.56778 18.3601 4.06096 18.2765 4.57018 18.1485C4.19692 18.099 3.8321 18.1604 3.48164 18.0597C3.37693 18.029 3.24181 18.006 3.25955 17.8532C3.27559 17.7107 3.39973 17.6851 3.51542 17.6833C3.92077 17.6791 4.32612 17.6816 4.73232 17.6134C4.18763 17.6134 3.64294 17.6185 3.09825 17.61C2.95722 17.6074 2.73597 17.6825 2.71063 17.47C2.68361 17.243 2.92851 17.2114 3.07292 17.2029C3.53485 17.1773 3.99846 17.1935 4.46293 17.1517C4.12767 17.0194 3.77975 17.01 3.43266 16.9827C3.3043 16.9724 3.14554 16.94 3.14723 16.7881C3.14976 16.6072 3.32795 16.6532 3.44449 16.6422C3.84561 16.602 4.24674 16.5679 4.64703 16.4962C4.12852 16.4962 3.60916 16.5022 3.09065 16.4919C2.93695 16.4885 2.69037 16.5705 2.66757 16.3417C2.64477 16.1079 2.89389 16.1497 3.05012 16.1164C3.49262 16.0234 3.94526 16.0593 4.39452 16.0046C4.01366 16.0055 3.65054 15.9116 3.28572 15.8263C3.19452 15.8049 3.06194 15.828 3.06869 15.6863C3.07461 15.5617 3.19452 15.5412 3.29248 15.5404C3.79832 15.5361 4.30332 15.5387 4.81001 15.5037C4.23239 15.5113 3.68939 15.2442 3.10754 15.2963C2.98087 15.3074 2.7765 15.3279 2.78157 15.1299C2.78495 14.96 2.97411 14.9984 3.08896 15.0036C3.50191 15.0232 3.88193 14.8141 4.29741 14.832C3.9858 14.7928 3.67081 14.8064 3.36848 14.7159C3.26968 14.6861 3.10838 14.7117 3.13119 14.5461C3.14807 14.4207 3.27981 14.3771 3.39382 14.372C3.71725 14.3592 4.04069 14.3584 4.36412 14.3541C4.45702 14.3524 4.55076 14.3541 4.64449 14.3293C4.0998 14.2611 3.54836 14.314 3.00789 14.2047C2.89895 14.1825 2.75286 14.1817 2.7537 14.0366C2.7537 13.871 2.90317 13.8454 3.03238 13.8446C3.53822 13.8403 4.04322 13.8429 4.54907 13.8429C4.54738 13.8181 4.54653 13.7925 4.54484 13.7678L4.53809 13.7703Z" fill="#3048EA"/>
</g>
<defs>
<clipPath id="clip0_747_11407">
<rect width="10" height="32" fill="white"/>
</clipPath>
</defs>
</svg>
