<svg width="120" height="126" viewBox="0 0 120 126" fill="none" xmlns="http://www.w3.org/2000/svg">
<g clip-path="url(#clip0_728_27845)">
<path d="M28.9549 88.0185C32.5239 88.0234 35.1971 90.5349 35.1873 93.8745C35.1775 97.1917 32.4262 99.9867 29.0103 99.9451C25.5357 99.9018 22.7274 97.4448 22.7388 93.8601C22.7502 90.2946 25.5862 87.7463 28.9565 88.0201L28.9549 88.0185Z" fill="#B9BCFF"/>
<path d="M76.6898 88.2139C80.2588 88.2187 82.9319 90.7302 82.9221 94.0698C82.9124 97.387 80.1611 100.182 76.7451 100.14C73.2706 100.097 70.4623 97.6401 70.4737 94.0554C70.4851 90.4899 73.3211 87.9416 76.6914 88.2155L76.6898 88.2139Z" fill="#B9BCFF"/>
<path d="M89.9846 77.1121C89.9846 100.246 76.5261 119 52.5883 119C28.6504 119 15.1919 100.246 15.1919 77.1121C15.1919 53.9779 31.9339 35.2246 52.5883 35.2246C73.2426 35.2246 89.9846 53.9779 89.9846 77.1121Z" stroke="#3048EA" stroke-miterlimit="10"/>
<path d="M45.0259 95.6424C46.4902 96.2005 49.6614 97.3312 52.5899 97.2777C57.2128 97.1933 59.751 94.8783 61.2111 93.9453" stroke="#3048EA" stroke-miterlimit="10" stroke-linecap="round"/>
<path d="M27.1841 22.6271C22.5149 23.1399 14.9255 30.5255 11.8619 33.8682C3.83152 42.6317 1.26164 53.1334 1.00001 59.2957C0.995788 64.8009 2.60355 68.4113 5.02363 71.7108C7.0386 74.3614 12.5624 77.733 15.2462 78.9337C17.7064 63.2068 27.2348 55.78 39.4913 47.3399C30.7393 40.8543 28.0555 26.6473 27.1862 22.625L27.1841 22.6271Z" fill="#B9BCFF" stroke="#3048EA" stroke-miterlimit="10"/>
<path d="M40.1479 86.3188C41.7892 86.2458 43.0147 83.9362 42.8851 81.1603C42.7554 78.3843 41.3198 76.1932 39.6784 76.2662C38.0371 76.3392 36.8116 78.6488 36.9413 81.4247C37.0709 84.2007 38.5066 86.3919 40.1479 86.3188Z" fill="#3048EA"/>
<path d="M62.3974 85.3286C64.0387 85.2556 65.2642 82.946 65.1346 80.17C65.005 77.3941 63.5693 75.2029 61.928 75.276C60.2866 75.349 59.0611 77.6586 59.1908 80.4345C59.3204 83.2105 60.7561 85.4016 62.3974 85.3286Z" fill="#3048EA"/>
<path d="M36.2158 71.4387C38.3682 70.3289 39.766 68.7877 39.3377 67.9962C38.9095 67.2048 36.8174 67.4628 34.665 68.5726C32.5125 69.6824 31.1147 71.2236 31.543 72.0151C31.9712 72.8065 34.0633 72.5484 36.2158 71.4387Z" fill="#3048EA"/>
<path d="M69.6062 71.3876C70.0002 70.6496 68.5698 69.1609 66.4113 68.0626C64.2527 66.9642 62.1833 66.672 61.7892 67.4099C61.3952 68.1479 62.8256 69.6365 64.9841 70.7349C67.1427 71.8333 69.2121 72.1255 69.6062 71.3876Z" fill="#3048EA"/>
<path d="M41.1519 8.73341C38.9787 8.45125 32.1425 9.87647 27.1504 13.7711C21.709 18.018 22.3525 23.4017 22.6922 26.2068C25.9752 53.2799 85.7725 62.6406 89.7813 73.1527C109.509 60.8653 99.3878 40.77 88.5154 34.2371C81.1412 29.8069 87.5068 23.8465 77.6556 12.2738C76.7948 11.2646 70.9587 4.42272 58.7254 1.58875C55.358 0.808177 51.7268 0.571326 48.1653 2.35697C45.1481 3.87076 41.9726 6.66766 41.1498 8.73135L41.1519 8.73341Z" fill="#B9BCFF" stroke="#3048EA" stroke-miterlimit="10" stroke-linejoin="round"/>
<path d="M41.2339 8.73438L41.8584 12.6352C41.8626 12.6599 41.8669 12.6867 41.8711 12.7114C42.4956 16.534 44.7321 19.9281 48.0004 22.1175L50.3846 23.7157" stroke="#3048EA" stroke-miterlimit="10" stroke-linecap="round" stroke-linejoin="round"/>
<path d="M60.6434 2.03516C60.0822 5.55702 60.7426 9.16127 62.5951 12.3021C64.454 15.4553 67.161 18.2872 70.5073 20.8802L88.5134 34.2366" stroke="#3048EA" stroke-miterlimit="10" stroke-linejoin="round"/>
<path d="M77.5 92.5C77.5 93.9365 77.1298 94.9347 76.5939 95.5653C76.0639 96.1889 75.3333 96.5 74.5 96.5C73.6667 96.5 72.9361 96.1889 72.4061 95.5653C71.8702 94.9347 71.5 93.9365 71.5 92.5C71.5 91.1655 72.2764 89.9069 73.1255 88.941C73.543 88.4662 73.9618 88.0805 74.2766 87.8135C74.3591 87.7435 74.4342 87.6819 74.5 87.6292C74.5658 87.6819 74.6409 87.7435 74.7234 87.8135C75.0382 88.0805 75.457 88.4662 75.8745 88.941C76.7236 89.9069 77.5 91.1655 77.5 92.5Z" fill="#EFF5FF" stroke="#3048EA"/>
<path d="M90.5 110.5C90.5 111.937 90.1298 112.935 89.5939 113.565C89.0639 114.189 88.3333 114.5 87.5 114.5C86.6667 114.5 85.9361 114.189 85.4061 113.565C84.8702 112.935 84.5 111.937 84.5 110.5C84.5 109.165 85.2764 107.907 86.1255 106.941C86.543 106.466 86.9618 106.08 87.2766 105.814C87.3591 105.743 87.4342 105.682 87.5 105.629C87.5658 105.682 87.6409 105.743 87.7234 105.814C88.0382 106.08 88.457 106.466 88.8745 106.941C89.7236 107.907 90.5 109.165 90.5 110.5Z" fill="#EFF5FF" stroke="#3048EA"/>
</g>
<rect x="95.5" y="87.166" width="19" height="32.3336" rx="3.5" fill="#EFF5FF" stroke="#3048EA"/>
<path d="M99.5 82C99.5 81.1716 100.172 80.5 101 80.5H109C109.828 80.5 110.5 81.1716 110.5 82V87.5H99.5V82Z" fill="#EFF5FF" stroke="#3048EA"/>
<rect x="95.5" y="98" width="12.913" height="11.5001" rx="1.5" fill="#EFF5FF" stroke="#3048EA"/>
<path d="M111.812 50.9824C112.907 50.141 114.476 50.3464 115.317 51.4411C116.159 52.5359 115.953 54.1054 114.859 54.9468L109.705 58.9077L106.658 54.9433L111.812 50.9824Z" fill="#EFF5FF" stroke="#3048EA" stroke-linejoin="round"/>
<rect x="74.2666" y="79.8378" width="37" height="5" rx="2.5" transform="rotate(-37.5445 74.2666 79.8378)" fill="#EFF5FF" stroke="#3048EA"/>
<path d="M99.86 55.123C102.706 52.9354 106.787 53.4695 108.975 56.3158C111.162 59.1621 110.628 63.2429 107.782 65.4305L104.214 68.1727L96.292 57.8652L99.86 55.123Z" fill="#EFF5FF" stroke="#3048EA" stroke-linejoin="round"/>
<rect x="95.165" y="55.5781" width="18" height="2" rx="1" transform="rotate(52.4555 95.165 55.5781)" fill="#3048EA"/>
<defs>
<clipPath id="clip0_728_27845">
<rect width="101" height="120" fill="white"/>
</clipPath>
</defs>
</svg>
