<svg width="149" height="141" viewBox="0 0 149 141" fill="none" xmlns="http://www.w3.org/2000/svg">
<path d="M48.1057 103.422C52.2979 103.428 55.4377 106.379 55.4263 110.303C55.4148 114.201 52.1831 117.485 48.1707 117.436C44.0895 117.385 40.7908 114.498 40.8042 110.286C40.8176 106.097 44.1488 103.102 48.1076 103.424L48.1057 103.422Z" fill="#B9BCFF"/>
<path d="M104.176 103.651C108.368 103.656 111.508 106.607 111.496 110.531C111.485 114.429 108.253 117.713 104.241 117.664C100.159 117.614 96.8607 114.726 96.8741 110.514C96.8875 106.325 100.219 103.331 104.177 103.653L104.176 103.651Z" fill="#B9BCFF"/>
<path d="M119.792 90.6084C119.792 117.791 103.983 139.826 75.8658 139.826C47.7484 139.826 31.9399 117.791 31.9399 90.6084C31.9399 63.4257 51.6051 41.3906 75.8658 41.3906C100.127 41.3906 119.792 63.4257 119.792 90.6084Z" stroke="#3048EA" stroke-width="1.17424" stroke-miterlimit="10"/>
<path d="M66.9824 112.381C68.7024 113.037 72.4273 114.365 75.8672 114.302C81.2972 114.203 84.2786 111.483 85.9936 110.387" stroke="#3048EA" stroke-width="1.17424" stroke-miterlimit="10" stroke-linecap="round"/>
<path d="M46.026 26.5884C40.5415 27.1909 31.6269 35.869 28.0284 39.7967C18.5959 50.0938 15.5773 62.4333 15.27 69.674C15.2651 76.1426 17.1536 80.3849 19.9962 84.2617C22.363 87.3762 28.8512 91.3378 32.0036 92.7486C34.8934 74.2696 46.0855 65.543 60.482 55.6259C50.2019 48.0053 47.0495 31.3122 46.0285 26.5859L46.026 26.5884Z" fill="#B9BCFF" stroke="#3048EA" stroke-width="1.17424" stroke-miterlimit="10"/>
<path d="M61.2532 101.424C63.1811 101.338 64.6205 98.6245 64.4683 95.3627C64.316 92.101 62.6297 89.5264 60.7017 89.6122C58.7738 89.698 57.3344 92.4117 57.4866 95.6735C57.6389 98.9352 59.3252 101.51 61.2532 101.424Z" fill="#3048EA"/>
<path d="M87.3874 100.262C89.3154 100.176 90.7548 97.4624 90.6025 94.2006C90.4503 90.9389 88.7639 88.3643 86.836 88.4501C84.9081 88.5359 83.4687 91.2496 83.6209 94.5114C83.7732 97.7731 85.4595 100.348 87.3874 100.262Z" fill="#3048EA"/>
<path d="M56.6348 83.9421C59.1631 82.6381 60.8049 80.8272 60.3019 79.8972C59.7989 78.9673 57.3415 79.2705 54.8132 80.5745C52.2849 81.8785 50.6431 83.6894 51.1462 84.6194C51.6492 85.5493 54.1065 85.2461 56.6348 83.9421Z" fill="#3048EA"/>
<path d="M95.8554 83.8791C96.3183 83.012 94.6381 81.2628 92.1026 79.9722C89.5672 78.6816 87.1365 78.3383 86.6736 79.2054C86.2107 80.0725 87.8909 81.8216 90.4263 83.1123C92.9618 84.4029 95.3925 84.7462 95.8554 83.8791Z" fill="#3048EA"/>
<path d="M62.4328 10.2625C59.8802 9.931 51.8504 11.6056 45.9867 16.1818C39.5951 21.1719 40.351 27.4977 40.75 30.7938C44.6063 62.6046 114.844 73.6035 119.553 85.9552C142.725 71.5175 130.837 47.9056 118.066 40.2294C109.404 35.0239 116.882 28.0205 105.31 14.4225C104.299 13.2367 97.4441 5.19748 83.0748 1.86757C79.1194 0.950389 74.8542 0.67209 70.6708 2.77023C67.1268 4.54892 63.3969 7.83528 62.4304 10.2601L62.4328 10.2625Z" fill="#B9BCFF" stroke="#3048EA" stroke-width="1.17424" stroke-miterlimit="10" stroke-linejoin="round"/>
<path d="M62.5293 10.2617L63.2629 14.8452C63.2678 14.8742 63.2728 14.9057 63.2777 14.9347C64.0113 19.4262 66.6384 23.4144 70.4773 25.9869L73.2778 27.8648" stroke="#3048EA" stroke-width="1.17424" stroke-miterlimit="10" stroke-linecap="round" stroke-linejoin="round"/>
<path d="M85.3272 2.39258C84.6679 6.53077 85.4437 10.7658 87.6196 14.4563C89.803 18.1613 92.9827 21.4888 96.9133 24.5355L118.063 40.2292" stroke="#3048EA" stroke-width="1.17424" stroke-miterlimit="10" stroke-linejoin="round"/>
<path d="M96.8751 107.445L100.398 99.8122L109.205 103.922L120.36 95.1152L125.644 99.8122L109.205 130.93L96.8751 126.233L93.9395 119.187L100.398 114.49L96.8751 107.445Z" fill="#EFF5FF"/>
<path d="M118.904 104.993C118.904 104.993 111.271 90.3141 100.703 99.1222C92.4834 105.973 100.703 114.974 100.703 114.974C100.703 114.974 90.1349 117.322 95.419 124.954C99.0184 130.153 104.813 125.543 104.813 125.543C104.813 125.543 103.96 131.488 106.574 132.588C107.842 133.122 110.097 132.588 110.097 132.588M115.381 125.543C115.381 125.543 106.792 136.242 117.142 138.458C125.362 140.218 123.601 129.065 123.601 129.065C123.601 129.065 128.2 130.77 130.059 129.065C132.087 127.206 130.059 122.02 130.059 122.02C130.059 122.02 136.113 124.156 140.627 122.02C145.941 119.505 146.78 109.205 143.563 105.579C131.161 91.6019 123.601 112.039 123.601 112.039M129.167 102.747C130.059 98.05 128.885 95.748 125.362 94.4252C121.839 93.1024 119.773 93.9398 117.142 97.4633" stroke="#3048EA" stroke-width="1.17424" stroke-linecap="round" stroke-linejoin="round"/>
<path d="M116.555 116.147C115.381 120.257 108.221 121.431 107.161 115.56C106.582 112.353 110.591 109.073 113.62 110.276" stroke="#3048EA" stroke-width="1.17424" stroke-linecap="round" stroke-linejoin="round"/>
<path d="M131.82 109.142C133.563 107.262 135.986 106.822 138.279 107.968C140.571 109.115 141.673 111.317 141.214 113.839" stroke="#3048EA" stroke-width="1.17424" stroke-linecap="round" stroke-linejoin="round"/>
<path d="M37.5761 98.6367L28.1821 100.985V109.205L41.6859 128.58L48.1443 117.425L44.6215 112.728L37.5761 98.6367Z" fill="#EFF5FF"/>
<path d="M27.9075 113.217C27.9075 113.217 20.275 100.557 33.7788 99.1275C44.3469 98.0091 41.9985 110.87 41.9985 110.87C41.9985 110.87 47.8697 114.269 47.8697 118.497C47.8697 121.432 43.1727 123.789 43.1727 123.789C43.1727 123.789 41.3737 133.167 32.6046 131.413C26.7333 130.239 26.7333 123.789 26.7333 123.789C26.7333 123.789 14.9909 126.129 13.2295 117.322C10.81 105.225 23.2106 105.588 23.2106 105.588" stroke="#3048EA" stroke-width="1.17424" stroke-linecap="round" stroke-linejoin="round"/>
<circle cx="28.7688" cy="87.4822" r="7.04545" fill="#EFF5FF" stroke="#3048EA" stroke-width="1.17424"/>
<circle cx="7.04553" cy="98.6368" r="5.28409" fill="#EFF5FF" stroke="#3048EA" stroke-width="1.17424"/>
<path d="M12.3296 139.736C15.2479 139.736 17.6137 137.37 17.6137 134.452C17.6137 131.534 15.2479 129.168 12.3296 129.168" stroke="#3048EA" stroke-width="1.17424" stroke-linecap="round"/>
<circle cx="140.909" cy="83.3736" r="6.45833" fill="#EFF5FF" stroke="#3048EA" stroke-width="1.17424"/>
</svg>
