<svg width="36" height="36" viewBox="0 0 36 36" fill="none" xmlns="http://www.w3.org/2000/svg">
<path d="M32.569 18C32.569 26.8367 27.4282 34 18.2845 34C9.14083 34 4 26.8367 4 18C4 9.16331 10.395 2 18.2845 2C26.174 2 32.569 9.16331 32.569 18Z" fill="#FFFEFE" stroke="currentColor" stroke-miterlimit="10"/>
<path d="M15.396 25.0779C15.9553 25.2911 17.1666 25.723 18.2853 25.7026C20.0511 25.6703 21.0206 24.7861 21.5784 24.4297" stroke="currentColor" stroke-miterlimit="10" stroke-linecap="round"/>
<circle cx="24.2447" cy="16.1334" r="3.70173" fill="#FFFEFE" stroke="currentColor"/>
<circle cx="4.20173" cy="4.20173" r="3.70173" transform="matrix(-1 0 0 1 16.2236 11.9316)" fill="#FFFEFE" stroke="currentColor"/>
<path d="M26.0971 18.0029C25.9845 18.0564 25.876 18.0573 25.7736 17.9696C25.7253 17.9283 25.6946 17.8703 25.6688 17.8083C25.5753 17.5841 25.481 17.3599 25.3886 17.1348C25.3707 17.0913 25.3542 17.0791 25.3108 17.0935C25.1492 17.1461 24.9865 17.1892 24.8189 17.2103C24.676 17.2283 24.5331 17.2472 24.3906 17.266C24.3869 17.2665 24.3835 17.2719 24.3798 17.2746C24.3734 17.2746 24.3708 17.2786 24.373 17.2863C24.373 17.5132 24.3734 17.7405 24.3734 17.9674C24.3734 18.0725 24.3644 18.1745 24.3109 18.2644C24.293 18.2945 24.2713 18.3183 24.2492 18.343C24.2425 18.339 24.241 18.3448 24.2395 18.3506C24.162 18.4234 24.0689 18.4383 23.9806 18.4144C23.8751 18.3852 23.794 18.3053 23.7543 18.175C23.7322 18.1031 23.7319 18.0303 23.7322 17.9566C23.7322 17.7558 23.733 17.5549 23.733 17.3537C23.733 17.3388 23.7311 17.3244 23.73 17.3096C23.733 17.293 23.7367 17.2759 23.7173 17.2692C23.6335 17.2602 23.5493 17.2539 23.4655 17.2418C23.3439 17.2238 23.2216 17.2099 23.1012 17.1775C22.9901 17.1479 22.8778 17.1263 22.7686 17.0868C22.7409 17.0769 22.7305 17.1002 22.7204 17.125C22.6268 17.351 22.5318 17.5761 22.4391 17.803C22.3975 17.9049 22.3403 17.9858 22.249 18.0245C22.0788 18.0963 21.9202 17.98 21.8518 17.8232C21.8009 17.7068 21.8076 17.5972 21.8566 17.4831C21.9382 17.2934 22.0164 17.1011 22.0957 16.9102C22.1054 16.8873 22.1129 16.863 22.1215 16.8392C22.129 16.8212 22.1536 16.7983 22.1121 16.7952C21.9876 16.7201 21.8622 16.6456 21.7504 16.5445C21.5779 16.3886 21.4171 16.2178 21.2734 16.0224C21.11 15.7995 21.2027 15.4873 21.3898 15.3965C21.4829 15.3511 21.6277 15.3682 21.7081 15.4518C21.7235 15.4675 21.7384 15.4841 21.7511 15.503C21.9771 15.8427 22.2756 16.0561 22.6059 16.2133C22.803 16.3077 23.0062 16.3796 23.2153 16.4272C23.3552 16.4591 23.4958 16.4775 23.6372 16.4937C23.8067 16.5135 23.9765 16.5171 24.1463 16.5112C24.3607 16.5036 24.5731 16.4802 24.7856 16.4389C25.0875 16.3796 25.3811 16.2893 25.6587 16.1338C25.9228 15.986 26.1641 15.7991 26.344 15.5147C26.4974 15.2725 26.8116 15.3507 26.8946 15.6158C26.9373 15.7523 26.9242 15.8817 26.8456 15.9959C26.6822 16.2331 26.4914 16.4344 26.2759 16.602C26.182 16.6748 26.0863 16.7431 25.9845 16.7988C25.98 16.7979 25.9778 16.8001 25.9785 16.8055C25.9662 16.8226 25.9774 16.8361 25.9834 16.8509C26.0721 17.0634 26.1618 17.2755 26.2486 17.4889C26.3204 17.6655 26.2864 17.8793 26.1057 17.997C26.0982 17.9917 26.0975 17.9979 26.0971 18.0042V18.0029Z" fill="currentColor"/>
<path d="M10.169 18.0029C10.2816 18.0564 10.3901 18.0573 10.4926 17.9696C10.5408 17.9283 10.5715 17.8703 10.5973 17.8083C10.6908 17.5841 10.7851 17.3599 10.8775 17.1348C10.8954 17.0913 10.9119 17.0791 10.9553 17.0935C11.1169 17.1461 11.2796 17.1892 11.4472 17.2103C11.5901 17.2283 11.733 17.2472 11.8755 17.266C11.8793 17.2665 11.8826 17.2719 11.8864 17.2746C11.8927 17.2746 11.8953 17.2786 11.8931 17.2863C11.8931 17.5132 11.8927 17.7405 11.8927 17.9674C11.8927 18.0725 11.9017 18.1745 11.9552 18.2644C11.9731 18.2945 11.9948 18.3183 12.0169 18.343C12.0236 18.339 12.0251 18.3448 12.0266 18.3506C12.1041 18.4234 12.1972 18.4383 12.2855 18.4144C12.391 18.3852 12.4722 18.3053 12.5118 18.175C12.5339 18.1031 12.5343 18.0303 12.5339 17.9566C12.5339 17.7558 12.5331 17.5549 12.5331 17.3537C12.5331 17.3388 12.535 17.3244 12.5361 17.3096C12.5331 17.293 12.5294 17.2759 12.5488 17.2692C12.6326 17.2602 12.7168 17.2539 12.8006 17.2418C12.9222 17.2238 13.0445 17.2099 13.1649 17.1775C13.276 17.1479 13.3883 17.1263 13.4975 17.0868C13.5252 17.0769 13.5357 17.1002 13.5458 17.125C13.6393 17.351 13.7343 17.5761 13.8271 17.803C13.8686 17.9049 13.9258 17.9858 14.0171 18.0245C14.1873 18.0963 14.3459 17.98 14.4144 17.8232C14.4652 17.7068 14.4585 17.5972 14.4095 17.4831C14.3279 17.2934 14.2498 17.1011 14.1705 16.9102C14.1607 16.8873 14.1532 16.863 14.1446 16.8392C14.1372 16.8212 14.1125 16.7983 14.154 16.7952C14.2786 16.7201 14.4039 16.6456 14.5157 16.5445C14.6882 16.3886 14.849 16.2178 14.9927 16.0224C15.1561 15.7995 15.0634 15.4873 14.8763 15.3965C14.7832 15.3511 14.6384 15.3682 14.558 15.4518C14.5427 15.4675 14.5277 15.4841 14.515 15.503C14.289 15.8427 13.9905 16.0561 13.6602 16.2133C13.4631 16.3077 13.26 16.3796 13.0509 16.4272C12.9109 16.4591 12.7703 16.4775 12.6289 16.4937C12.4594 16.5135 12.2896 16.5171 12.1198 16.5112C11.9054 16.5036 11.693 16.4802 11.4805 16.4389C11.1786 16.3796 10.885 16.2893 10.6074 16.1338C10.3433 15.986 10.102 15.7991 9.9221 15.5147C9.76873 15.2725 9.45451 15.3507 9.37146 15.6158C9.32882 15.7523 9.34191 15.8817 9.42047 15.9959C9.58394 16.2331 9.77471 16.4344 9.99018 16.602C10.0841 16.6748 10.1798 16.7431 10.2816 16.7988C10.2861 16.7979 10.2883 16.8001 10.2876 16.8055C10.2999 16.8226 10.2887 16.8361 10.2827 16.8509C10.1941 17.0634 10.1043 17.2755 10.0175 17.4889C9.94567 17.6655 9.97971 17.8793 10.1604 17.997C10.1679 17.9917 10.1686 17.9979 10.169 18.0042V18.0029Z" fill="currentColor"/>
</svg>
