<svg width="34" height="22" viewBox="0 0 34 22" fill="none" xmlns="http://www.w3.org/2000/svg">
<path d="M33.1439 16.5572C33.16 16.5025 33.1436 16.4434 33.1016 16.4047C33.0597 16.3661 32.9994 16.3546 32.9461 16.375C32.4795 16.5546 32.13 16.847 31.8215 17.1539C31.7094 17.2654 31.605 17.376 31.503 17.4842C31.3168 17.6816 31.1382 17.8709 30.9344 18.0424C28.7219 19.904 26.2043 20.8278 23.3042 20.3418C21.1491 19.9804 19.1312 19.1955 17.0906 18.4017L17.0513 18.3864C15.2267 17.6767 13.3837 16.9623 11.4257 16.5559C14.2258 15.91 16.8499 14.97 19.3898 13.772C20.417 13.2875 21.4219 12.7597 22.4237 12.2335C22.7587 12.0575 23.0933 11.8818 23.4283 11.7079C24.7674 11.0127 26.116 10.3455 27.5327 9.80477C27.6019 9.77837 27.6415 9.70543 27.6259 9.63304C27.6103 9.56066 27.5442 9.51048 27.4703 9.5149C25.5066 9.63231 23.8514 10.4543 22.2207 11.2881C22.0879 11.356 21.9552 11.424 21.8225 11.4919C18.3187 13.2856 14.8322 15.0704 10.8363 15.4939C10.0309 15.5791 9.26138 15.566 8.57464 15.3118C7.9602 15.0844 7.40098 14.6598 6.94009 13.9147C6.98266 13.9199 7.02303 13.925 7.06151 13.9298C7.27665 13.9569 7.43292 13.9766 7.5853 13.9803L7.58532 13.9803C10.0465 14.0404 12.3527 12.3258 12.6424 10.0832C12.6817 9.78001 12.817 9.60007 12.9944 9.45989C13.0861 9.38738 13.1897 9.32518 13.3021 9.2621C13.3297 9.24658 13.3582 9.23085 13.3872 9.21484C13.4727 9.16766 13.5623 9.11816 13.6464 9.06526C15.4005 7.96221 17.165 6.87611 18.9303 5.78954C19.7914 5.25954 20.6526 4.72942 21.513 4.19716L21.513 4.19715C22.6319 3.50469 23.748 2.80774 24.8639 2.11096C25.2702 1.85725 25.6764 1.60357 26.0828 1.35013C26.3624 1.17582 26.3292 0.767801 26.0284 0.637529L26.0285 0.637194L26.0211 0.634559L26.021 0.634549L26.0191 0.633716L26.0179 0.633242C26.0175 0.633105 26.0172 0.632968 26.0169 0.632831C25.8455 0.558972 25.6473 0.572693 25.4882 0.670381C23.255 2.04067 21.0232 3.41273 18.7914 4.78474C14.6239 7.34683 10.4565 9.90877 6.28125 12.4588C5.91593 12.6819 5.70562 12.9205 5.64941 13.2171C5.59516 13.5034 5.6935 13.8059 5.84127 14.1332C6.14388 14.8039 6.61955 15.2687 7.22338 15.6608C7.70939 15.9764 8.28547 16.2489 8.92517 16.544C5.30011 17.134 2.70369 18.5758 0.877225 21.178C0.839013 21.2324 0.841215 21.3055 0.882633 21.3575C0.924052 21.4096 0.994795 21.4281 1.05642 21.4031C1.74775 21.1225 2.30605 20.6577 2.84522 20.2089C2.89924 20.1639 2.95308 20.1191 3.00684 20.0746L3.00687 20.0746C5.88834 17.6903 9.14818 16.908 12.7871 17.9991L12.8302 17.8554L12.7871 17.9991C14.3117 18.4561 15.8079 18.9995 17.3081 19.5445C17.7874 19.7185 18.2671 19.8928 18.7482 20.0644C20.9878 20.8635 23.2723 21.491 25.7262 21.3252C27.259 21.2215 28.9455 20.5857 30.3279 19.7057C31.7052 18.829 32.8119 17.6894 33.1439 16.5572Z" fill="#3048EA" stroke="#3048EA" stroke-width="0.3" stroke-linejoin="round"/>
</svg>
