<svg width="32" height="18" viewBox="0 0 32 18" fill="none" xmlns="http://www.w3.org/2000/svg">
<path d="M16.0009 16.475C18.2419 16.475 20.4815 16.472 22.7225 16.475C23.8922 16.478 25.0029 16.2469 26.0622 15.7523C28.3668 14.6757 29.7862 12.9031 30.3249 10.4848C30.744 8.60404 30.4142 6.80031 29.3958 5.158C28.1655 3.17508 26.3527 1.99036 24.0027 1.60533C23.5609 1.53277 23.1175 1.50315 22.6696 1.50315C20.9067 1.50315 12.5054 1.50315 10.7425 1.50315C10.2825 1.50315 9.94807 1.16402 9.95715 0.715313C9.96472 0.346571 10.2689 0.0415061 10.6668 0.00744554C10.7349 0.00152196 10.8045 0.00300285 10.8742 0.00300285C12.637 0.00300285 21.0383 -0.00440163 22.8012 0.00448375C25.1164 0.01485 27.1517 0.770107 28.8964 2.25544C30.6063 3.71116 31.6066 5.5608 31.9062 7.74364C32.292 10.547 31.4855 13.0171 29.5274 15.1067C28.1217 16.6053 26.3663 17.5013 24.322 17.8448C23.5972 17.9663 22.8633 18.0373 22.1248 17.9796C22.0628 17.9751 21.9992 17.9781 21.9357 17.9781C17.8894 17.9781 13.8415 17.9692 9.79524 17.984C8.60283 17.9885 7.4301 17.8996 6.30276 17.5057C2.9722 16.3358 0.92181 14.036 0.198499 10.6669C-0.343228 8.14645 0.237842 5.79775 1.77072 3.72005C3.22793 1.74305 5.23142 0.549453 7.69642 0.127398C8.22151 0.0370634 8.75567 -0.00143983 9.29285 4.10611e-05C10.6457 0.00596464 11.9985 0.00152196 13.3528 0.00152196C13.6524 0.00152196 13.9142 0.0829712 14.0821 0.34509C14.2456 0.601285 14.2547 0.869327 14.0973 1.13145C13.9429 1.38912 13.7008 1.50019 13.4027 1.50019C11.9924 1.50167 10.5836 1.50019 9.17331 1.50019C8.966 1.50019 8.75869 1.50907 8.55138 1.52536C7.30753 1.62014 6.16809 2.0111 5.12246 2.6701C3.27787 3.8326 2.09908 5.46751 1.69354 7.57038C1.26379 9.80061 1.76769 11.8413 3.22491 13.6391C4.28415 14.9467 5.65057 15.7879 7.28332 16.2158C7.9688 16.3965 8.67395 16.478 9.39273 16.475C11.596 16.4632 13.7977 16.4706 16.0009 16.4706V16.475Z" fill="currentColor"/>
<path d="M17.974 13.6665C19.5856 13.6665 21.1957 13.6473 22.8057 13.671C24.7275 13.7006 26.6719 12.3485 27.2999 10.6692C27.5027 10.1257 27.6177 9.56594 27.6177 8.99135C27.6177 8.57078 27.9975 8.24646 28.3667 8.23758C28.7708 8.22721 29.0931 8.51598 29.1248 8.92915C29.1899 9.78955 28.9932 10.61 28.6376 11.3845C27.6979 13.4385 26.0818 14.6691 23.818 15.0852C23.5638 15.1311 23.3096 15.1608 23.0508 15.1637C19.8292 15.2096 16.6076 15.1756 13.3875 15.1845C13.1999 15.1845 13.0107 15.1696 12.8216 15.1608C12.3994 15.14 12.0756 14.8364 12.068 14.4559C12.0604 14.0308 12.3646 13.7021 12.8034 13.6695C12.9351 13.6591 13.0682 13.6651 13.1999 13.6651C14.7918 13.6651 16.3837 13.6651 17.9756 13.6651L17.974 13.6665Z" fill="currentColor"/>
</svg>
