<svg width="26" height="34" viewBox="0 0 26 34" fill="none" xmlns="http://www.w3.org/2000/svg">
<path d="M0.616211 12.3613H10.686V30.3381H0.616211V12.3613Z" stroke="#3048EA"/>
<path d="M0.616211 30.5459H10.686V31.9994C10.686 32.8278 10.0144 33.4994 9.18598 33.4994H2.11621C1.28778 33.4994 0.616211 32.8278 0.616211 31.9994V30.5459Z" fill="#3048EA" stroke="#3048EA"/>
<path d="M24.9185 33.5L14.8487 33.5L14.8487 17.0233C14.8487 16.1948 15.5203 15.5233 16.3487 15.5233L23.4185 15.5233C24.2469 15.5233 24.9185 16.1948 24.9185 17.0233L24.9185 33.5Z" stroke="#3048EA"/>
<g clip-path="url(#clip0_753_13797)">
<path d="M4.26394 2.68048C4.85996 1.81353 6.14004 1.81353 6.73606 2.68048L10.0495 7.5H0.950515L4.26394 2.68048Z" fill="#3048EA" stroke="#3048EA"/>
</g>
<rect x="1.40674" y="6.03516" width="8.48837" height="6.11628" stroke="#3048EA"/>
<defs>
<clipPath id="clip0_753_13797">
<rect width="9.48837" height="6.32558" fill="white" transform="translate(0.906738)"/>
</clipPath>
</defs>
</svg>
