<svg width="28" height="34" viewBox="0 0 28 34" fill="none" xmlns="http://www.w3.org/2000/svg">
<path d="M10.0197 11.8503V3C10.0197 1.89543 10.9151 1 12.0197 1H17.6864C18.7909 1 19.6864 1.89543 19.6864 3V11.9229C19.6864 12.1683 19.7315 12.4116 19.8196 12.6406L26.6023 30.2823C27.1059 31.5922 26.1389 33 24.7355 33H3.49396C2.03058 33 1.06268 31.4799 1.68173 30.1539L9.83193 12.6963C9.9556 12.4314 10.0197 12.1426 10.0197 11.8503Z" stroke="#3048EA" stroke-width="2" stroke-linecap="round" stroke-linejoin="round"/>
<path d="M6.03906 21.7051H12.5446C13.1092 21.7051 13.6475 21.9437 14.0266 22.362L15.7804 24.2972C16.4031 24.9844 17.4165 25.1533 18.2285 24.7054L23.6665 21.7051" stroke="#3048EA" stroke-width="2"/>
<ellipse cx="8.15124" cy="27.3531" rx="1.94958" ry="1.88235" fill="#3048EA"/>
<ellipse cx="14.0002" cy="30.1756" rx="0.97479" ry="0.941176" fill="#3048EA"/>
<ellipse cx="21.3113" cy="27.8239" rx="1.46218" ry="1.41176" fill="#3048EA"/>
</svg>
