<svg width="10" height="32" viewBox="0 0 10 32" fill="none" xmlns="http://www.w3.org/2000/svg">
<g clip-path="url(#clip0_747_10493)">
<path d="M1.93543 19.1272C1.92363 19.0398 1.84429 19.0343 1.78211 19.0106C1.65345 18.9605 1.46475 18.9196 1.48619 18.7848C1.51514 18.6054 1.73386 18.6464 1.88289 18.6436C2.3289 18.6354 2.77492 18.6409 3.32065 18.6409C3.00758 18.4151 2.95504 18.253 3.13517 17.9534C3.40857 17.4954 3.00115 17.0273 2.37608 16.9554C2.19917 16.9344 1.93971 16.9945 1.85716 16.9144C1.64487 16.7086 1.39935 16.5201 1.21923 16.2988C1.11308 16.1686 1.3511 16.0803 1.4937 16.0247C1.71885 15.9364 1.95043 15.8599 2.18738 15.7761C2.09196 15.655 1.94078 15.6149 1.78532 15.5849C1.6438 15.5576 1.44974 15.5312 1.47226 15.3909C1.50228 15.197 1.7285 15.2826 1.8711 15.2771C2.19167 15.2653 2.51439 15.2744 2.83603 15.2725C3.01187 15.2716 3.21772 15.2297 3.10836 15.0485C2.89608 14.697 3.0569 14.3674 3.13088 14.0378C3.19521 13.7509 3.07941 13.6726 2.76206 13.6362C2.26994 13.5797 1.77567 13.5342 1.2932 13.4113C1.01016 13.3393 0.890075 13.2901 1.1238 13.0661C1.32108 12.8776 1.56982 12.7137 1.51621 12.4068C1.49799 12.3003 1.6363 12.2702 1.7478 12.2648C1.90862 12.2575 2.06945 12.2539 2.23027 12.2511C3.33459 12.2356 3.41285 12.1391 3.04618 11.2413C2.94468 10.9924 3.05011 10.7878 3.36246 10.6275C2.89822 10.5428 2.47686 10.4636 2.05336 10.3907C1.83464 10.3525 1.53658 10.3853 1.81749 10.0647C1.91398 9.95456 1.69955 9.9154 1.61378 9.88535C1.25782 9.75969 1.28892 9.51018 1.33502 9.26978C1.39077 8.97474 1.66631 9.06762 1.88932 9.07217C2.10375 9.07673 2.32354 9.09767 2.53047 9.0658C2.92181 9.0057 3.1802 8.82267 3.14482 8.44567C3.10193 7.99856 3.25739 7.49681 2.47043 7.32835C2.15522 7.26096 2.49187 7.1271 2.59265 7.02967C2.31389 6.97594 2.01584 7.03149 1.7671 6.89308C1.65881 6.83298 1.44116 6.87942 1.45081 6.70549C1.45939 6.55615 1.65881 6.56252 1.76924 6.49423C1.72635 6.3203 1.33287 6.30209 1.43687 6.13727C1.63844 5.81855 2.06623 6.07535 2.40396 5.93875C2.27315 5.87774 2.15843 5.81855 2.03835 5.77029C1.92149 5.72385 1.70598 5.75298 1.76173 5.56995C1.80569 5.42698 1.98796 5.45066 2.12841 5.44156C2.16379 5.43883 2.20025 5.44155 2.23563 5.43974C2.85319 5.42517 3.14481 5.16777 3.11051 4.66754C3.0955 4.45172 3.11265 4.24137 3.34209 4.03011C2.67843 4.01918 2.52725 3.57207 2.27101 3.2488C2.05872 2.98017 2.3214 2.59771 2.74812 2.55491C3.07084 2.52304 3.10193 2.40193 3.10943 2.17336C3.13088 1.56781 3.19306 0.963158 3.22523 0.357601C3.24453 -0.00937662 3.42465 -0.0594598 3.76988 0.120842C4.0733 0.280201 4.40031 0.409508 4.68872 0.585255C5.06504 0.81382 5.24302 0.659015 5.32557 0.365799C5.42528 0.00975017 5.55931 -0.148701 5.93885 0.178211C6.15864 0.367618 6.32053 0.200973 6.48886 0.0907896C6.68936 -0.0403407 6.85232 -0.0476229 6.89735 0.210079C6.9188 0.3321 6.9263 0.490551 7.10106 0.491462C7.81726 0.494194 7.78403 0.976818 7.8505 1.3529C7.97273 2.04497 7.94806 2.0477 6.88127 2.39829C7.21256 2.44837 7.56745 2.49299 7.64464 2.81444C7.78509 3.39905 7.1729 3.59483 6.76226 3.92356C7.13001 4.14849 7.53314 4.04103 7.90517 4.06926C8.31903 4.10113 8.8283 4.45901 8.7747 4.78228C8.71573 5.13742 8.34369 5.26672 7.96951 5.36051C7.67574 5.43427 7.19756 5.19569 7.11178 5.59818C7.01851 6.03528 7.69289 6.82842 8.1239 6.86758C8.5206 6.90309 8.62459 7.08067 8.62995 7.38299C8.63638 7.71445 8.60422 8.04774 8.70608 8.3792C8.79078 8.65512 8.55276 8.66513 8.31796 8.66422C7.73042 8.66058 7.14395 8.66331 6.48886 8.66331C6.8223 8.96017 7.3766 8.99022 7.38304 9.54205C7.38947 10.0948 6.96382 10.2086 6.45133 10.4417C7.15574 10.4636 7.73363 10.459 8.31474 10.3907C8.91943 10.3197 9.07382 10.5055 8.84331 10.9881C8.48843 11.7312 7.7926 12.018 6.78263 12.0271C7.36374 12.3149 7.48168 12.6882 7.31442 13.1372C7.21471 13.4049 7.37768 13.4021 7.61891 13.3748C8.41981 13.2847 8.90014 13.6325 8.93552 14.3137C8.95696 14.7225 8.75968 14.9811 8.2547 15.0412C7.97165 15.0749 7.69396 15.1441 7.41091 15.1678C7.14609 15.1897 6.87698 15.1724 6.51031 15.1724C7.04746 15.614 7.60926 16.0029 7.01421 16.6685C7.29297 16.6558 7.53314 16.6321 7.77223 16.6385C7.98452 16.6448 8.13569 16.7951 8.28258 16.8652C8.70822 17.0701 8.6396 17.4425 8.82294 17.6283C9.21749 18.029 8.86261 18.0272 8.62781 18.0873C7.94807 18.263 7.2576 18.4087 6.4835 18.5863C7.24473 18.8312 7.51706 19.3202 7.62213 19.8976C7.66287 20.1197 7.82691 20.0041 7.93949 19.995C8.23004 19.9722 8.62459 19.7664 8.77791 20.0223C8.95589 20.3192 8.44233 20.3711 8.27507 20.5614C8.24398 20.5969 8.20324 20.627 8.16464 20.6625C8.19037 20.6825 8.2086 20.7098 8.2354 20.7162C8.41981 20.7654 8.74575 20.6397 8.75218 20.9029C8.75754 21.1296 8.45734 21.1597 8.23111 21.2098C7.63392 21.3409 7.03995 21.4811 6.30445 21.6487C6.76762 21.9064 7.35088 21.8126 7.46667 22.2724C7.5771 22.7123 7.13001 22.888 6.8609 23.1758C7.36374 23.0155 7.84942 22.9481 8.28793 23.2559C8.50558 23.408 8.80686 23.5701 8.34691 23.7868C8.21825 23.8478 8.22361 23.927 8.34691 23.9926C8.45198 24.049 8.59565 24.0937 8.51309 24.2284C8.44447 24.3386 8.29544 24.3159 8.17536 24.3168C7.69289 24.3213 7.21042 24.3195 6.72795 24.3231C6.56391 24.3241 6.38272 24.3341 6.33555 24.498C6.28623 24.6737 6.47492 24.7402 6.61323 24.7839C6.91665 24.8786 7.05174 25.0243 6.95418 25.3039C6.93059 25.3703 6.93381 25.4669 6.97562 25.5233C6.98741 26.5 7.00885 26.8428 7.01421 27.5185C7.02494 28.8689 7.09542 30.6541 7 32C6.87992 33.6992 7.31549 34.9664 7.19648 36.661C6.92308 40.5685 7.01315 44.4832 6.84589 48.3907C6.74297 50.7865 6.78049 53.1832 6.64969 55.5763C6.54891 57.4267 6.63468 59.278 6.51888 61.1265C6.49101 61.5763 6.33447 62.0134 6.43097 62.4815C6.48243 62.7301 6.27121 62.9896 5.88846 62.9951C5.28162 63.0042 4.67371 62.9996 4.06687 62.9896C3.7345 62.9842 3.5769 62.8503 3.54044 62.5407C3.43966 61.6938 3.48576 60.8415 3.40964 59.9964C3.11373 56.7428 3.24882 53.4792 3.05368 50.2274C2.93039 48.1794 3.0108 46.1332 2.89393 44.0907C2.74383 41.4518 2.92288 38.8064 2.73954 36.1739C2.60231 34.2015 2.54119 32.2309 2.63018 30.2658C2.69987 28.7433 2.83603 27.2198 2.91859 25.6945C2.93574 25.3767 2.86177 25.1636 2.48759 25.0635C2.3675 25.0316 2.25064 24.9724 2.25064 24.8449C2.25064 24.7074 2.37823 24.6737 2.50474 24.6564C2.8607 24.6063 2.91645 24.3787 2.88214 24.1447C2.84247 23.8742 2.74597 23.6211 2.96576 23.3615C3.08692 23.2186 2.86177 23.1967 2.76849 23.1612C2.39645 23.0164 2.01262 22.8944 1.64058 22.7496C1.37576 22.6467 1.31143 22.5056 1.62557 22.3854C1.92363 22.2715 2.1134 22.1595 2.00833 21.8171C1.95472 21.6414 2.20454 21.4784 2.42969 21.3955C2.82638 21.2489 3.17591 20.7936 3.08156 20.4913C2.95505 20.0888 2.56478 19.9841 2.13163 19.9577C1.90004 19.944 1.66739 19.9476 1.4358 19.9349C1.28356 19.9267 1.15061 19.8693 1.11201 19.7355C1.07127 19.5943 1.18813 19.5105 1.31465 19.4468C1.52479 19.3412 1.77782 19.2929 1.9365 19.1254L1.93543 19.1272Z" fill="#3048EA"/>
</g>
<defs>
<clipPath id="clip0_747_10493">
<rect width="10" height="32" fill="white"/>
</clipPath>
</defs>
</svg>
