<svg width="28" height="32" viewBox="0 0 28 32" fill="none" xmlns="http://www.w3.org/2000/svg">
<path d="M16.1658 31.6729C21.2476 30.6419 27.818 26.9415 27.818 17.3729C27.818 8.66529 21.5213 2.86691 16.9935 0.202624C15.9888 -0.388574 14.8127 0.388926 14.8127 1.56526V4.57412C14.8127 6.94677 13.8271 11.2776 11.0888 13.079C9.69069 13.9987 8.18078 12.6222 8.01086 10.9432L7.87134 9.5645C7.70913 7.96171 6.0965 6.98873 4.83098 7.96594C2.5575 9.72147 0.181641 12.7956 0.181641 17.3729C0.181641 29.0746 8.77962 32 13.0786 32C13.3287 32 13.5914 31.9924 13.865 31.9765C11.7423 31.7928 8.30998 30.4597 8.30998 26.1487C8.30998 22.7764 10.7405 20.495 12.5872 19.3861C13.0838 19.0878 13.6651 19.4751 13.6651 20.0596V21.0292C13.6651 21.7712 13.9486 22.9311 14.6235 23.7251C15.3871 24.6235 16.5081 23.6823 16.5985 22.5006C16.627 22.1278 16.9974 21.8903 17.3163 22.079C18.3589 22.6957 19.6897 24.0133 19.6897 26.1487C19.6897 29.5188 17.8543 31.069 16.1658 31.6729Z" fill="#F45C6F"/>
</svg>
