<svg width="10" height="32" viewBox="0 0 10 32" fill="none" xmlns="http://www.w3.org/2000/svg">
<g clip-path="url(#clip0_747_10742)">
<path d="M3.68692 4.98262C3.41584 4.9379 3.14476 4.89075 2.8728 4.8501C2.52642 4.79889 2.2456 4.66556 2.17562 4.32248C2.10563 3.9794 2.27218 3.71355 2.57249 3.52006C2.8161 3.36315 3.08807 3.25502 3.38395 3.21112C3.59036 3.18104 3.78082 3.116 4.00937 2.99731C3.72855 2.88268 3.48139 2.77455 3.22892 2.68187C2.94013 2.57537 2.72132 2.41602 2.63361 2.12822C2.53971 1.81929 2.70005 1.56645 3.04289 1.57214C3.47076 1.57864 3.80474 1.53312 3.83131 1.04208C3.8384 0.904682 3.98723 0.780292 4.13783 0.786796C4.48332 0.80143 4.61885 0.587616 4.78717 0.377052C5.13709 -0.061146 5.58977 -0.123749 6.04157 0.222584C6.39326 0.492496 6.82999 0.73883 6.6351 1.28434C6.58461 1.42662 6.66256 1.55182 6.85568 1.5697C6.89998 1.57377 6.94604 1.57214 6.98768 1.58434C7.32963 1.68433 7.71144 1.78677 7.76725 2.15831C7.82217 2.52252 7.43327 2.61683 7.16751 2.76886C7.15511 2.77618 7.14005 2.77943 7.12853 2.78756C6.91858 2.93796 6.43667 2.9095 6.46147 3.07698C6.50045 3.33551 6.9363 3.31274 7.19674 3.39242C7.64588 3.52981 7.98251 3.74119 8.19069 4.13386C8.34306 4.42329 8.33421 4.62084 7.92936 4.69482C7.68486 4.73954 7.44568 4.81433 7.21092 4.89157C6.97616 4.9688 6.75027 5.06717 6.47653 5.17368C6.64662 5.30375 6.80696 5.35497 6.98768 5.39318C7.27382 5.45253 7.56261 5.48993 7.84432 5.58423C8.13931 5.68423 8.41393 5.78504 8.45203 6.09723C8.49101 6.41429 8.21373 6.57688 7.97277 6.72973C7.68575 6.91265 7.38012 7.06956 7.00894 7.27931C7.27824 7.33947 7.42796 7.22647 7.59007 7.22078C7.77788 7.21346 7.9772 7.15167 7.92759 7.47443C7.89038 7.71995 8.25182 7.67117 8.38736 7.82157C8.5167 7.96547 8.73816 8.07035 8.67261 8.28579C8.59908 8.52968 8.42811 8.7183 8.12071 8.74919C8.03301 8.75813 7.94531 8.7752 7.85761 8.78252C7.3314 8.82561 6.81936 8.92398 6.28252 9.08902C6.41718 9.25162 6.58372 9.22153 6.73078 9.22723C7.20206 9.24511 7.67423 9.24755 8.14551 9.276C8.29966 9.28576 8.54859 9.18901 8.58136 9.42803C8.60883 9.6264 8.37939 9.66136 8.19069 9.75567C8.48303 9.79469 8.84801 9.68575 8.85244 10.1053C8.85687 10.5012 8.58668 10.65 8.22259 10.7158C7.60956 10.8264 6.98679 10.7727 6.34719 10.8052C6.5979 10.9686 6.86277 10.9979 7.14094 10.993C7.69904 10.9825 8.22613 11.0394 8.70716 11.3605C9.07037 11.6028 9.11466 12.0288 8.73285 12.2548C8.31206 12.5036 7.81154 12.5174 7.35 12.6466C7.14359 12.7044 6.91061 12.6962 6.72812 12.8905C6.89023 12.9767 7.05323 12.9263 7.20117 12.9491C7.47934 12.9914 7.82394 12.8174 8.01352 13.1678C8.0339 13.2052 8.18184 13.1987 8.26688 13.1897C8.66375 13.1483 8.86662 13.2718 8.87813 13.6718C8.89319 14.1767 8.78157 14.3377 8.33775 14.4604C7.85141 14.5946 7.35266 14.5921 6.7166 14.6279C7.0302 14.7604 7.33406 14.8141 7.07981 15.1124C7.50414 15.1344 7.8895 15.1303 8.26599 15.1807C8.57694 15.2222 8.89496 15.3376 8.92863 15.6799C8.95963 15.9937 8.61591 16.275 8.18538 16.3027C7.6512 16.3376 7.14536 16.4856 6.62802 16.5864C6.49956 16.6116 6.36668 16.6449 6.27987 16.8327C6.94604 16.9498 7.59716 17.0726 8.25182 17.175C8.50784 17.2156 8.77537 17.227 8.82144 17.5205C8.87193 17.8408 8.84535 18.1473 8.48126 18.3311C7.96657 18.5896 7.39872 18.5465 6.84417 18.592C6.64485 18.6083 6.30113 18.4871 6.2843 18.7327C6.27189 18.9156 6.6289 18.9879 6.85214 19.031C7.28268 19.1132 7.73181 19.1148 8.13931 19.2944C8.21904 19.3294 8.31029 19.3514 8.37584 19.4018C8.55302 19.5367 8.8365 19.653 8.78866 19.8871C8.73462 20.1521 8.42545 20.0326 8.22524 20.0635C7.67512 20.1481 7.12322 20.2261 6.57221 20.3034C6.43135 20.3229 6.28252 20.3717 6.26215 20.4944C6.23912 20.6367 6.41541 20.6847 6.5288 20.7237C7.10904 20.9204 7.69549 21.0993 8.27751 21.2911C8.42191 21.3391 8.65312 21.3505 8.62832 21.5391C8.6044 21.7212 8.36964 21.6911 8.2217 21.7139C7.55464 21.8147 6.88403 21.8976 6.2152 21.9895C6.04865 22.0123 5.8325 22.0456 6.01676 22.2553C6.80962 23.1561 6.91327 24.2407 6.94516 25.3203C6.98502 26.6715 7.24547 28.0145 7.13208 29.3698C6.93364 31.7486 7.0302 34.1339 6.93896 36.5143C6.89821 37.5704 6.90441 38.6265 6.87695 39.6817C6.81671 41.9678 6.68914 44.2523 6.67142 46.5401C6.66522 47.3368 6.64219 48.1368 6.61118 48.9343C6.5226 51.205 6.43047 53.4749 6.33214 55.7455C6.31973 56.0415 6.21254 56.3276 6.15319 56.6179C6.08675 56.9536 5.72531 57.0113 5.41526 56.9983C5.10697 56.9853 4.80135 56.9609 4.48952 56.9731C4.06607 56.9894 3.79057 56.7853 3.78791 56.4016C3.78082 55.587 3.61073 54.7862 3.59036 53.974C3.55315 52.4846 3.57441 50.992 3.45925 49.5075C3.25638 46.8864 3.32105 44.2605 3.1864 41.641C3.0296 38.5842 3.07301 35.5225 2.90824 32.4705C2.77978 30.0877 2.81522 27.7097 2.80459 25.3301C2.80193 24.6764 2.96493 24.0187 3.08895 23.3683C3.174 22.9204 3.5691 22.683 4.0705 22.4375C3.78171 22.4114 3.59744 22.4009 3.41584 22.3773C3.28119 22.3594 3.13325 22.3155 3.13147 22.1692C3.1297 22.0074 3.29448 22.0017 3.42558 21.9862C3.52746 21.9741 3.63022 21.9708 3.73475 21.9334C3.06503 21.9911 2.43429 21.7375 1.769 21.7586C1.59803 21.7643 1.37213 21.7806 1.36062 21.5513C1.34998 21.3375 1.57234 21.3196 1.73977 21.2798C1.85316 21.2529 1.97452 21.2513 2.0888 21.2269C2.15879 21.2123 2.28281 21.1659 2.28015 21.1481C2.17385 20.5212 2.84711 20.7172 3.13059 20.4399C2.69563 20.5221 2.24826 20.4147 1.95681 20.2554C1.68307 20.1058 1.40137 20.0554 1.13295 19.9416C1.08954 19.9229 1.0417 19.8603 1.0417 19.8188C1.0417 19.7091 1.13383 19.6554 1.23925 19.6286C1.50767 19.5603 1.77432 19.4839 2.04717 19.4318C2.26421 19.3904 2.34571 19.3083 2.27484 19.101C2.227 18.9611 2.19422 18.8091 2.19865 18.6628C2.20308 18.488 2.15967 18.4636 1.97187 18.4985C1.49172 18.5872 1.18433 18.3652 1.12232 17.9164C1.10637 17.7994 1.15243 17.6758 1.04436 17.5693C0.969059 17.4953 0.99032 17.3912 1.10283 17.388C1.63878 17.3734 1.99401 16.9652 2.48922 16.8652C2.5716 16.8482 2.66285 16.8278 2.68588 16.6961C2.29698 16.5839 1.88417 16.5579 1.50767 16.4092C1.05056 16.2287 0.976146 15.849 1.36327 15.5653C1.60866 15.3856 1.90986 15.3043 2.19334 15.1913C2.27838 15.1572 2.50073 15.1783 2.3776 15.01C2.29698 14.9002 2.41303 14.6377 2.11095 14.6824C2.0826 14.6864 2.0516 14.6832 2.02236 14.6824C1.22951 14.6555 1.0169 14.3856 1.21179 13.6686C1.24899 13.5328 1.34024 13.4735 1.46869 13.4174C2.02059 13.1783 2.57072 13.1596 3.13325 13.4263C3.08187 13.1458 3.00657 13.0409 2.72132 12.9905C2.20485 12.8987 1.81773 12.6052 1.41642 12.3337C1.18433 12.1767 1.17547 11.9385 1.23039 11.7044C1.28974 11.4491 1.53425 11.5158 1.72559 11.467C2.38025 11.2987 3.05883 11.3532 3.82068 11.3036C3.38661 10.9727 2.9357 10.9288 2.5406 10.7727C2.25712 10.6605 1.95946 10.5776 1.66535 10.4906C1.36504 10.402 1.31632 10.2305 1.44654 9.98818C1.59448 9.71177 1.79381 9.48331 2.12955 9.39226C2.27484 9.35324 2.43075 9.33698 2.41392 9.14756C2.39974 8.98577 2.26775 8.89959 2.12512 8.87601C1.85493 8.8313 1.60069 8.82561 1.61752 8.46302C1.63435 8.10368 1.59891 7.7671 2.08083 7.60369C2.48833 7.46548 2.86748 7.25492 3.27056 7.07118C3.02871 6.91509 2.75675 6.88989 2.51579 6.79396C2.24029 6.6842 1.96832 6.53787 1.92846 6.23625C1.88771 5.9265 2.13664 5.75089 2.38823 5.59642C2.79041 5.34928 3.2803 5.27855 3.68957 4.98181L3.68692 4.98262Z" fill="currentColor"/>
</g>
<defs>
<clipPath id="clip0_747_10742">
<rect width="10" height="32" fill="white"/>
</clipPath>
</defs>
</svg>
