<svg width="32" height="22" viewBox="0 0 32 22" fill="none" xmlns="http://www.w3.org/2000/svg">
<path d="M31.0298 21.2945C31.0368 21.4294 31.0757 21.5494 31.0608 21.6712C31.0568 21.7037 31.0737 21.7475 31.0308 21.7642C30.9949 21.7781 30.9729 21.7419 30.948 21.7233C30.8991 21.687 30.8512 21.6498 30.8052 21.6117C30.6635 21.4936 30.5288 21.3736 30.3162 21.3726C30.2174 21.3726 30.1305 21.3113 30.0427 21.2666C29.9768 21.2331 29.9099 21.2034 29.8351 21.1913C29.7373 21.1764 29.6614 21.1969 29.6025 21.2834C29.5107 21.4182 29.4179 21.4284 29.2841 21.3299C29.2192 21.2824 29.1583 21.2294 29.0955 21.1792C29.0046 21.1057 28.9358 21.0322 28.9867 20.902C29.0186 20.8174 28.9647 20.7514 28.8559 20.7495C28.795 20.7486 28.7451 20.73 28.6962 20.6956C28.5964 20.6267 28.4806 20.6481 28.3728 20.6695C28.272 20.6891 28.1802 20.6984 28.0824 20.6593C27.9975 20.6258 27.9037 20.6333 27.8119 20.6305C27.6632 20.6267 27.5963 20.5477 27.6442 20.4175C27.6701 20.3459 27.6502 20.2947 27.6162 20.2333C27.5354 20.0855 27.4615 19.9348 27.3188 19.825C27.235 19.7609 27.1651 19.7404 27.0513 19.7878C26.9465 19.8316 26.8327 19.9311 26.69 19.825C26.6271 19.7776 26.5383 19.8725 26.5632 19.9655C26.5842 20.0436 26.6211 20.118 26.6441 20.1961C26.656 20.2361 26.666 20.2854 26.6291 20.317C26.5852 20.3542 26.5413 20.317 26.5053 20.2956C26.3346 20.1961 26.163 20.0985 25.9993 19.9897C25.8496 19.8901 25.608 19.9162 25.5092 20.0603C25.4503 20.1459 25.4064 20.1078 25.3535 20.0603C25.103 19.8399 24.8914 19.5907 24.6937 19.3275C24.2955 18.7927 23.8244 18.3146 23.3193 17.8664C23.1097 17.6803 22.9051 17.4878 22.6705 17.3269C22.6426 17.3074 22.6077 17.2627 22.5767 17.2897C22.5358 17.3251 22.5887 17.3595 22.6096 17.3874C22.7504 17.5641 22.9051 17.7315 23.0698 17.8887C23.4211 18.2235 23.7226 18.5983 24.0749 18.9313C24.2615 19.108 24.3863 19.3312 24.5889 19.4949C24.6508 19.5451 24.6937 19.6148 24.7147 19.692C24.7207 19.7144 24.7307 19.7395 24.7057 19.7562C24.6818 19.772 24.6568 19.7599 24.6368 19.7451C24.4202 19.5869 24.1398 19.5553 23.9062 19.4288C23.7844 19.3628 23.6487 19.3702 23.5249 19.4381C23.459 19.4735 23.4032 19.4688 23.3373 19.4409C23.2215 19.3916 23.1237 19.3247 23.0458 19.2298C22.9251 19.081 22.7713 18.9722 22.5777 18.9192C22.448 18.8838 22.3571 18.815 22.3162 18.6941C22.2693 18.5555 22.1365 18.5444 22.0158 18.5285C21.897 18.5127 21.7942 18.5462 21.7443 18.6643C21.7063 18.7555 21.6445 18.7611 21.5576 18.7108C21.4009 18.6206 21.3879 18.6253 21.2642 18.7611C21.2143 18.8159 21.1704 18.8224 21.1344 18.749C21.1324 18.7453 21.1314 18.7415 21.1294 18.7387C21.0975 18.6606 21.0296 18.5992 20.9508 18.6383C20.8569 18.6839 20.9198 18.7666 20.9538 18.8308C20.9717 18.8652 21.0027 18.895 21.0156 18.9303C21.0316 18.9778 21.0476 19.0419 21.0047 19.0726C20.9558 19.1061 20.9338 19.0364 20.9019 19.0131C20.7741 18.9238 20.6364 18.8429 20.4836 18.8141C20.1463 18.7508 19.8498 18.5844 19.5234 18.4979C19.209 18.4142 18.9286 18.2616 18.6361 18.1342C18.5054 18.0765 18.3746 18.0142 18.2229 18.0189C18.183 18.0198 18.1341 18.0114 18.1191 18.0607C18.1061 18.1026 18.1281 18.1398 18.163 18.1621C18.2209 18.1993 18.2808 18.2347 18.3447 18.2616C18.691 18.4095 19.0134 18.603 19.3767 18.7201C19.5484 18.775 19.7311 18.8048 19.8868 18.8996C19.9277 18.9247 19.9786 18.9368 20.0065 19.014C19.6472 18.829 19.246 18.8438 18.8966 18.6792C18.6361 18.5564 18.3526 18.4662 18.0662 18.403C17.6789 18.3174 17.3376 18.1482 17.0162 17.9389C16.6678 17.711 16.2815 17.6013 15.8563 17.6255C15.6956 17.6348 15.5369 17.672 15.3762 17.6887C15.0708 17.7213 14.7834 17.6534 14.5039 17.5446C13.92 17.3186 13.3171 17.1437 12.6963 17.0377C12.2771 16.9661 11.8499 16.9326 11.4267 16.8824C11.257 16.8619 11.0963 16.8126 10.9346 16.7624C10.5264 16.634 10.1251 16.4815 9.69392 16.4285C9.55019 16.4108 9.40446 16.4099 9.25974 16.4071C8.94133 16.4006 8.6429 16.2918 8.32948 16.2574C8.17278 16.2397 8.01707 16.2192 7.85937 16.2267C7.47709 16.2462 7.11177 16.1485 6.74147 16.0816C6.21146 15.9849 5.72737 15.7654 5.22232 15.6045C4.66138 15.4259 4.14734 15.158 3.62732 14.9004C3.28297 14.7302 3.00449 14.4772 2.71903 14.2373C2.10019 13.7193 1.60412 13.1091 1.19888 12.4311C1.00126 12.1 0.803628 11.7699 0.649917 11.4192C0.510179 11.1012 0.400386 10.7738 0.315545 10.438C0.220723 10.0614 0.139875 9.68376 0.0959578 9.29872C0.0680103 9.05691 0.0570309 8.81416 0.0320778 8.57235C0.00313221 8.29147 -0.00884528 8.00874 0.00712471 7.72786C0.0630197 6.77456 0.21174 5.83614 0.614982 4.9498C0.80762 4.52663 1.04617 4.12391 1.31666 3.73794C1.7219 3.15945 2.18004 2.62281 2.70306 2.13546C3.45065 1.43978 4.33299 0.939417 5.31914 0.587858C5.86911 0.392547 6.43105 0.239089 7.01595 0.195376C7.6318 0.148874 8.24165 0.0577286 8.85749 0.0130861C9.58313 -0.0399268 10.2858 0.0781897 10.9935 0.187006C11.5704 0.275361 12.1204 0.4437 12.6723 0.611109C13.4399 0.843622 14.1745 1.14682 14.8941 1.4835C15.1087 1.58394 15.3193 1.69462 15.521 1.81646C16.0739 2.15127 16.6488 2.45168 17.1818 2.81626C17.5551 3.07203 17.9784 3.26269 18.3377 3.53984C18.8038 3.89977 19.2609 4.26993 19.7311 4.62428C20.1303 4.92562 20.5455 5.20928 20.9488 5.50597C21.3001 5.76452 21.6694 6.00355 22.0178 6.26396C22.3242 6.49368 22.5987 6.76061 22.8412 7.05171C23.0129 7.25726 23.2035 7.44513 23.4062 7.61998C24.1218 8.23846 24.8115 8.87648 25.4114 9.59634C25.7617 10.0167 26.1111 10.4399 26.4774 10.8482C26.8367 11.2481 27.192 11.6508 27.5394 12.0591C27.9406 12.5316 28.3219 13.018 28.6673 13.5286C28.8928 13.8625 29.1404 14.1824 29.361 14.5182C29.6704 14.9888 29.9628 15.4696 30.2433 15.956C30.4998 16.3997 30.6865 16.8693 30.8661 17.3437C30.9629 17.5985 31.1087 17.8347 31.2464 18.0728C31.5988 18.6857 31.8343 19.3284 31.8872 20.0287C31.9152 20.397 31.8972 20.7681 32 21.1494C31.8972 21.1104 31.8603 21.0406 31.8153 20.983C31.6646 20.7876 31.6017 20.5561 31.5199 20.3347C31.3333 19.826 31.0528 19.3647 30.7573 18.9061C30.3691 18.3035 30.0377 17.671 29.6863 17.0488C29.5057 16.7298 29.2831 16.4369 29.0456 16.1532C28.6723 15.7096 28.267 15.2892 27.9207 14.826C27.5743 14.3619 27.1351 13.9648 26.8127 13.4867C26.4025 12.8794 25.8326 12.4125 25.2836 11.9261C25.069 11.7364 24.8934 11.516 24.7037 11.3067C24.2795 10.837 23.8663 10.3571 23.4012 9.92092C22.8911 9.44195 22.3491 9.00203 21.7193 8.6607C21.5037 8.54352 21.3211 8.38634 21.1344 8.23195C20.3579 7.58649 19.5783 6.94383 18.6481 6.48531C18.3257 6.32627 18.0332 6.12073 17.7318 5.92728C17.3835 5.70407 17.0172 5.50411 16.6419 5.32275C15.9522 4.99072 15.2784 4.63637 14.6336 4.22994C14.3182 4.03091 13.9948 3.84118 13.6555 3.67656C13.4149 3.55937 13.1584 3.48218 12.8989 3.41242C12.3689 3.2692 11.8449 3.11016 11.3229 2.94461C11.2879 2.93345 11.251 2.92415 11.2141 2.92136C10.8587 2.89718 10.5024 2.88415 10.1491 2.84974C9.89854 2.82463 9.651 2.77162 9.40147 2.72977C9.24975 2.70465 9.09804 2.68512 8.94433 2.68884C8.60896 2.69814 8.27259 2.62932 7.93822 2.68698C7.54396 2.75488 7.14371 2.80231 6.76642 2.94275C6.6207 2.99669 6.50292 3.09063 6.38614 3.18177C6.25937 3.28129 6.14858 3.39661 6.0308 3.50636C6.01084 3.52496 5.9819 3.54542 5.99986 3.57518C6.01883 3.60773 6.05176 3.5882 6.07772 3.57983C6.12862 3.56309 6.17553 3.57797 6.22344 3.59192C6.26437 3.60401 6.30828 3.61518 6.34122 3.58262C6.40809 3.51566 6.47397 3.5324 6.55382 3.56402C6.65264 3.60308 6.76343 3.60494 6.86324 3.64587C6.90117 3.66168 6.9371 3.63843 6.96605 3.61611C7.09281 3.51845 7.25251 3.47753 7.39025 3.39847C7.44315 3.36778 7.50603 3.35569 7.56991 3.35569C7.83142 3.35755 8.09093 3.3343 8.35144 3.31849C8.6389 3.30082 8.93135 3.32686 9.21881 3.3622C9.41544 3.38638 9.61108 3.41335 9.8127 3.38452C10.0183 3.35476 10.2109 3.44777 10.4146 3.45893C10.6651 3.47288 10.9017 3.54635 11.1382 3.6189C11.2759 3.66075 11.4167 3.69795 11.5624 3.70632C11.8579 3.72306 12.1313 3.82165 12.3988 3.92209C12.7292 4.04672 13.0646 4.16111 13.392 4.29225C13.8551 4.47919 14.2653 4.7517 14.6905 4.99909C15.2086 5.30043 15.7515 5.55805 16.2995 5.80731C16.8195 6.04447 17.2996 6.34116 17.7628 6.66295C18.3546 7.07404 18.9366 7.49721 19.5274 7.90922C19.9097 8.17522 20.301 8.43191 20.7292 8.63001C21.0266 8.76673 21.2332 8.99087 21.4398 9.2178C21.5297 9.31639 21.5576 9.46892 21.4967 9.5024C21.38 9.56657 21.3021 9.47543 21.2243 9.4187C20.7262 9.0597 20.2411 8.68674 19.7331 8.34077C19.3298 8.0664 18.8807 7.86179 18.4065 7.71391C18.2528 7.66648 18.1331 7.56975 17.9913 7.50651C17.7348 7.39211 17.4503 7.36235 17.1828 7.28144C16.9333 7.2061 16.6858 7.1317 16.4632 6.9987C16.3544 6.93453 16.2326 6.90012 16.1059 6.87036C15.9172 6.82571 15.7445 6.73829 15.5729 6.65272C15.4621 6.59785 15.3383 6.61552 15.2585 6.69923C15.2016 6.75782 15.2155 6.8564 15.2924 6.86942C15.505 6.90663 15.6537 7.05265 15.8404 7.13449C16.3843 7.37351 16.8784 7.69531 17.4004 7.97061C17.7498 8.15476 18.1261 8.29333 18.4784 8.47376C18.8497 8.66442 19.2021 8.88113 19.5414 9.11736C19.6642 9.20292 19.75 9.31546 19.8289 9.43451C19.8947 9.53495 19.9796 9.61866 20.0824 9.68655C20.5605 10.0009 21.0406 10.3115 21.5796 10.5329C21.9808 10.6984 22.2723 10.9905 22.5677 11.2797C22.8193 11.5262 22.979 11.8136 23.0917 12.1363C23.2105 12.4767 23.495 12.6878 23.8403 12.8208C24.0889 12.9166 24.3194 13.0292 24.5091 13.2105C24.6099 13.3072 24.7366 13.3779 24.8744 13.4263C25.102 13.5053 25.2746 13.6402 25.4214 13.8262C25.619 14.0755 25.7907 14.3275 25.8436 14.6391C25.8585 14.7265 25.9035 14.8056 25.9554 14.8827C26.0242 14.9851 26.1141 15.0446 26.2418 15.066C26.4624 15.1022 26.67 15.185 26.8916 15.2204C27.0613 15.2473 27.189 15.3589 27.2769 15.4947C27.4845 15.8174 27.745 16.102 27.9905 16.3978C28.0364 16.4527 28.0864 16.5057 28.1432 16.5494C28.6134 16.9121 28.9467 17.3781 29.2781 17.8459C29.342 17.9361 29.3999 18.031 29.4727 18.1147C29.866 18.5611 30.0836 19.1033 30.394 19.5944C30.5068 19.773 30.6306 19.9385 30.7733 20.0929C31.0997 20.4454 31.2933 20.862 31.451 21.2955C31.491 21.4052 31.5528 21.4982 31.6217 21.5884C31.6986 21.6907 31.6916 21.8014 31.6656 21.9111C31.6427 22.0116 31.5748 22.0283 31.4999 21.9539C31.3492 21.8033 31.2434 21.6238 31.1596 21.434C31.1336 21.3745 31.1117 21.3224 31.0248 21.2908L31.0298 21.2945ZM14.6316 17.0488C14.6227 16.9772 14.5728 16.9214 14.5139 16.8814C14.2304 16.6908 13.9629 16.4899 13.5866 16.4471C13.1394 16.3959 12.6943 16.3225 12.2531 16.2257C11.9996 16.1699 11.7481 16.1048 11.4915 16.0565C11.241 16.0081 10.9815 15.9839 10.7469 15.876C10.5723 15.7961 10.3886 15.7682 10.195 15.7589C9.94445 15.7468 9.69891 15.7635 9.45337 15.8035C9.35655 15.8193 9.26573 15.8137 9.1729 15.7784C8.94034 15.6891 8.69779 15.6519 8.44427 15.6491C8.14184 15.6463 7.83641 15.6519 7.53997 15.5952C7.30142 15.5496 7.06985 15.4687 6.83529 15.4045C6.68158 15.3627 6.54883 15.2882 6.42407 15.1934C6.23742 15.052 6.07572 14.879 5.85613 14.7814C5.62157 14.6772 5.40897 14.547 5.21434 14.3889C5.03767 14.2457 4.84004 14.1368 4.63143 14.0373C4.30804 13.8839 4.03855 13.6783 3.87785 13.3584C3.77105 13.1463 3.67124 12.9203 3.49557 12.7511C3.22208 12.4879 3.04142 12.1633 2.80287 11.8778C2.55933 11.5857 2.38066 11.25 2.20998 10.9142C2.03731 10.5766 1.92053 10.2251 1.86962 9.85489C1.84367 9.66702 1.78279 9.48566 1.76682 9.29593C1.75584 9.1713 1.62708 9.1899 1.54523 9.16851C1.47437 9.14991 1.4584 9.22431 1.44542 9.27733C1.42047 9.37591 1.38354 9.47078 1.33363 9.55913C1.21286 9.77212 1.2418 10.0083 1.20986 10.2353C1.20188 10.2902 1.22184 10.3534 1.26476 10.398C1.31966 10.4548 1.32066 10.5208 1.33263 10.5906C1.39452 10.9449 1.4035 11.316 1.69296 11.6015C1.73188 11.6397 1.75384 11.6927 1.77979 11.741C2.07823 12.2935 2.38765 12.8394 2.7879 13.3361C2.83781 13.3975 2.88472 13.4495 2.97854 13.4421C3.04541 13.4365 3.07935 13.4663 3.03643 13.5249C2.98453 13.5946 3.00549 13.656 3.04641 13.7193C3.12327 13.8392 3.19214 13.9629 3.23506 14.0969C3.27498 14.2215 3.35384 14.3173 3.46463 14.3907C3.83293 14.6335 4.18727 14.8995 4.61546 15.0511C4.65738 15.066 4.69531 15.0929 4.73025 15.119C4.88995 15.239 5.0756 15.3022 5.27223 15.3394C5.54871 15.3924 5.81721 15.4659 6.07372 15.5803C6.27834 15.6724 6.48196 15.7775 6.71053 15.8044C6.9361 15.8314 7.16667 15.8379 7.38626 15.8974C7.72362 15.9886 8.06398 16.0369 8.41632 16.0211C8.52711 16.0165 8.6399 16.0351 8.74969 16.0528C9.30066 16.1392 9.85162 16.2304 10.4026 16.316C10.8198 16.3811 11.243 16.4155 11.6482 16.5345C12.0195 16.6433 12.4018 16.6768 12.7861 16.7131C13.372 16.768 13.9569 16.8359 14.4759 17.1325C14.5558 17.1781 14.6326 17.1353 14.6306 17.0488H14.6316ZM15.1407 17.0433C15.1407 17.0433 15.1407 17.0377 15.1407 17.0358C15.0708 17.0451 14.9999 17.0479 14.9321 17.0646C14.8592 17.0832 14.7334 17.0665 14.7484 17.1744C14.7604 17.2618 14.8702 17.2637 14.953 17.2646C15.0688 17.2665 15.1866 17.2572 15.2964 17.3027C15.4471 17.366 15.6088 17.3725 15.7695 17.3827C16.0639 17.4013 16.3524 17.4469 16.6329 17.5399C16.8115 17.5994 16.9872 17.6738 17.1769 17.7008C17.2258 17.7082 17.2956 17.7361 17.3186 17.6729C17.3376 17.6227 17.2797 17.5901 17.2377 17.5678C16.9623 17.4171 16.6858 17.2674 16.3674 17.206C15.9861 17.1325 15.5918 17.14 15.2135 17.0433C15.1906 17.0377 15.1636 17.0433 15.1387 17.0433H15.1407ZM28.82 20.4231C28.818 20.4119 28.819 20.3821 28.806 20.3598C28.6852 20.132 28.6104 19.8846 28.4587 19.6707C28.4277 19.6269 28.3888 19.599 28.3349 19.6279C28.279 19.6586 28.273 19.7069 28.3049 19.7581C28.4577 20.0055 28.5894 20.2612 28.6723 20.5384C28.6792 20.5607 28.6882 20.584 28.7172 20.5886C28.7511 20.5942 28.7701 20.5709 28.786 20.5486C28.81 20.5161 28.82 20.4789 28.82 20.424V20.4231ZM17.5611 17.7492C17.6639 17.8868 17.7538 18.0012 17.9125 18.0477C17.9484 18.0579 17.9873 18.0598 18.0143 18.0273C18.0352 18.0012 18.0273 17.9742 18.0043 17.9547C17.8845 17.8561 17.7598 17.765 17.5611 17.7492Z" fill="#3048EA"/>
</svg>
