<svg width="34" height="28" viewBox="0 0 34 28" fill="none" xmlns="http://www.w3.org/2000/svg">
<path d="M6 14L1 21.7037H7.2069L8.03448 27L12 22" stroke="#3048EA" stroke-width="2" stroke-linecap="round" stroke-linejoin="round"/>
<path d="M28 14L33 21.7037H26.7931L25.9655 27L21.5 22" stroke="#3048EA" stroke-width="2" stroke-linecap="round" stroke-linejoin="round"/>
<circle cx="17" cy="12" r="11" stroke="#3048EA" stroke-width="2"/>
<path d="M17 5.85039L18.6754 8.45876C18.9462 8.88043 19.3655 9.18505 19.8502 9.31233L22.8486 10.0997L20.8856 12.4991C20.5683 12.887 20.4082 13.3798 20.4369 13.8802L20.6147 16.9751L17.7261 15.8497C17.2591 15.6677 16.7409 15.6677 16.2739 15.8497L13.3853 16.9751L13.5631 13.8802C13.5918 13.3798 13.4317 12.887 13.1144 12.4991L11.1514 10.0997L14.1498 9.31233C14.6345 9.18505 15.0538 8.88043 15.3246 8.45876L17 5.85039Z" stroke="#3048EA" stroke-width="2"/>
</svg>
