<svg width="35" height="25" viewBox="0 0 35 25" fill="none" xmlns="http://www.w3.org/2000/svg">
<path d="M24 9.35714C24 11.8424 22.6569 13 21 13C19.3431 13 18 11.8424 18 9.35714C18 6.87186 21 4 21 4C21 4 24 6.87186 24 9.35714Z" fill="#3048EA"/>
<path d="M16 3.57143C16 5.22828 15.1046 6 14 6C12.8954 6 12 5.22828 12 3.57143C12 1.91457 14 0 14 0C14 0 16 1.91457 16 3.57143Z" fill="#3048EA"/>
<path d="M28 3.57143C28 5.22828 27.1046 6 26 6C24.8954 6 24 5.22828 24 3.57143C24 1.91457 26 0 26 0C26 0 28 1.91457 28 3.57143Z" fill="#3048EA"/>
<path d="M31.847 9.33398L21.1401 20.461L10 9.33398" stroke="#B9BCFF" stroke-width="2" stroke-miterlimit="10" stroke-linecap="round" stroke-linejoin="round"/>
<path d="M31.5617 12.4972L32.0504 9.06934" stroke="#B9BCFF" stroke-width="2" stroke-miterlimit="10" stroke-linecap="round" stroke-linejoin="round"/>
<path d="M28.5984 9.47949L32.0506 9.07032" stroke="#B9BCFF" stroke-width="2" stroke-miterlimit="10" stroke-linecap="round" stroke-linejoin="round"/>
<path d="M10.7944 17.9722C11.4506 17.9442 12.1082 18.0044 12.7477 18.1593C16.7282 19.1231 20.2636 21.3901 24.2794 22.1064C27.2313 22.6327 29.792 21.6291 32.031 19.6249C32.6723 19.0509 33.1233 18.2368 34 17.8779C33.3665 20.1761 29.721 22.6198 26.7161 22.836C24.2937 23.0102 22.0329 22.3517 19.7986 21.5036C17.8157 20.7512 15.8468 19.9469 13.8302 19.3039C10.1399 18.1267 6.82855 18.9738 3.91124 21.5418C3.31413 22.0671 2.73434 22.6131 2 22.9303C3.80935 20.188 6.38632 18.6696 10.0172 18.0546C10.2744 18.0111 10.5342 17.9834 10.7947 17.9722H10.7944Z" fill="#3048EA" stroke="#3048EA"/>
</svg>
