<svg width="35" height="16" viewBox="0 0 35 16" fill="none" xmlns="http://www.w3.org/2000/svg">
<path d="M27 8.16618C27 10.0992 25.8807 10.9995 24.5 10.9995C23.1193 10.9995 22 10.0992 22 8.16618C22 6.23318 24.5 3.99951 24.5 3.99951C24.5 3.99951 27 6.23318 27 8.16618Z" fill="#3048EA"/>
<path d="M19 2.9757C19 4.35641 18.1046 4.99951 17 4.99951C15.8954 4.99951 15 4.35641 15 2.9757C15 1.59499 17 -0.000488281 17 -0.000488281C17 -0.000488281 19 1.59499 19 2.9757Z" fill="#3048EA"/>
<path d="M34 2.9757C34 4.35641 33.1046 4.99951 32 4.99951C30.8954 4.99951 30 4.35641 30 2.9757C30 1.59499 32 -0.000488281 32 -0.000488281C32 -0.000488281 34 1.59499 34 2.9757Z" fill="#3048EA"/>
<path d="M10.7944 9.33363C11.4506 9.30542 12.1082 9.36607 12.7477 9.52193C16.7282 10.4917 20.2636 12.7728 24.2794 13.4936C27.2313 14.0233 29.792 13.0133 32.031 10.9966C32.6723 10.419 33.1233 9.59986 34 9.23877C33.3665 11.5513 29.721 14.0102 26.7161 14.2278C24.2937 14.4031 22.0329 13.7405 19.7986 12.8871C17.8157 12.13 15.8468 11.3207 13.8302 10.6736C10.1399 9.48914 6.82855 10.3415 3.91124 12.9255C3.31413 13.4541 2.73434 14.0035 2 14.3227C3.80935 11.5633 6.38632 10.0354 10.0172 9.4165C10.2744 9.37277 10.5342 9.34491 10.7947 9.33363H10.7944Z" fill="#3048EA" stroke="#3048EA"/>
</svg>
