<svg width="32" height="16" viewBox="0 0 32 16" fill="none" xmlns="http://www.w3.org/2000/svg">
<path d="M31.1866 12.6351H29.3765C29.1054 12.6351 28.8343 12.6328 28.5655 12.6328C27.0195 12.4994 25.4735 12.3683 23.9275 12.2373C22.2483 11.5984 20.5548 11.7739 18.8565 12.139C18.2453 12.1554 17.634 12.1741 17.0204 12.1905C15.2532 12.2232 13.4764 12.2466 11.7402 12.5977C10.7388 12.7989 9.57098 12.6679 8.87171 13.6788C8.16055 14.1422 7.35187 14.2171 6.52891 14.2335C6.31009 14.182 6.12695 14.2241 6.00803 14.43C5.70834 14.5213 5.40865 14.6149 5.10896 14.7062C4.49294 14.7974 3.90783 14.9542 3.47733 15.4433C2.9945 15.991 2.40939 16.1337 1.72202 15.8763C1.64115 15.7967 1.56028 15.7195 1.48179 15.6399C1.36524 15.2351 1.39141 14.8302 1.48417 14.423C2.50929 13.7795 3.53441 13.1336 4.55954 12.4877C4.92582 12.2583 5.29211 12.0266 5.75591 12.0594C5.84391 11.9962 5.93192 11.933 6.0223 11.8699C6.16976 11.7739 6.31961 11.678 6.46707 11.582C6.92374 11.6382 7.12829 11.3573 7.26862 10.9946C8.70284 10.5874 9.88494 9.50624 11.4595 9.4805C11.5427 9.23478 12.2563 8.82758 11.293 8.85332C10.9862 8.86034 10.677 8.87438 10.3702 8.88608C10.2108 8.90247 10.0538 8.92119 9.89445 8.93757C8.91452 9.08734 7.71102 8.62164 7.14494 9.90876C6.62405 10.0679 6.09127 10.0328 5.5585 10.0024C5.15416 9.97662 4.69273 9.83387 4.59046 10.447L4.57856 10.4564C4.09811 10.55 3.67237 10.7325 3.4036 11.1678C3.17051 11.3761 2.94693 11.596 2.70433 11.7903C2.19771 12.1951 1.75769 12.4643 1.19875 11.7458C0.734949 11.1467 0.616025 10.8285 1.26297 10.2317C3.6795 8.00617 6.42902 6.24867 9.21897 4.54032C9.44254 4.40459 9.73985 4.38587 10.0015 4.31332C10.4201 4.11908 10.8506 3.94357 11.2526 3.72125C11.4452 3.61594 11.6783 3.44744 11.5737 3.17364C11.488 2.94898 11.2407 3.00046 11.0575 3.00748C9.86116 3.04961 8.73614 3.27661 7.94173 4.27588C7.8014 4.28992 7.66107 4.30396 7.52074 4.31566C7.02364 4.3063 6.47421 4.19397 6.34815 4.90305C6.18403 4.94986 6.0223 4.99432 5.86056 5.03878C5.32065 4.78604 5.19697 5.17452 5.05426 5.53959C3.8127 6.00763 2.76379 6.81032 1.6459 7.48664C1.27486 7.7113 0.946633 7.76747 0.556563 7.7464C0.487587 7.45154 0.292552 7.27602 0 7.19646C0.0380556 6.02167 0.90382 5.38981 1.78861 4.9639C3.96016 3.9225 6.20068 3.02152 8.41504 2.06204C8.5078 2.01055 8.60056 1.95673 8.69333 1.90291C9.00253 1.80462 9.31411 1.70633 9.62331 1.60804C9.70893 1.55889 9.79694 1.50975 9.88256 1.46061C10.1014 1.42316 10.3202 1.38572 10.539 1.34828C11.2145 1.36934 11.9114 1.48635 12.4608 0.936399C12.6796 0.903636 12.9008 0.870874 13.122 0.838111C14.435 0.622811 15.8264 0.788966 17.0394 0.0728627C17.8909 -0.0722302 18.7329 0.0166978 19.5701 0.199234C20.0363 0.657915 20.16 1.21956 20.0815 1.84206C20.0553 1.89354 20.0291 1.94503 20.0054 1.99651C19.2847 2.16267 18.5592 2.31478 17.8433 2.49732C15.7003 3.04259 13.6049 3.69316 11.9281 5.22132C11.7806 5.2494 11.6331 5.27983 11.4857 5.30791C11.3953 5.37109 11.3049 5.43194 11.2145 5.49278C11.1503 5.51151 11.0885 5.53257 11.0266 5.55831C10.3202 5.69872 9.69704 6.01933 9.16189 6.48035C8.95734 6.65587 8.5197 6.80564 8.71235 7.19411C8.91452 7.59429 9.2594 7.30644 9.54244 7.25496C12.7605 6.65587 15.9834 6.08252 19.2704 6.01933C20.8592 5.98891 21.1827 6.47333 20.707 8.06233C20.4977 8.09509 20.2884 8.12552 20.0791 8.15828C19.651 8.15828 19.1824 7.98276 18.8565 8.42974C17.9123 8.71759 16.9704 9.00543 16.0262 9.29328C15.7003 9.43837 15.4981 9.83153 15.0629 9.75898L15.0534 9.766C14.9392 9.78472 14.7941 9.76132 14.7204 9.82451C14.4159 10.0866 13.5692 9.92046 13.8213 10.5266C13.964 10.8682 14.699 10.8425 15.1009 10.4025C15.7289 10.454 16.3425 10.3768 16.9514 10.2247C17.3605 10.2153 17.7696 10.2036 18.1787 10.1943C18.8732 10.1428 19.5677 10.0936 20.2598 10.0421C20.4026 10.2294 20.5905 10.2481 20.7998 10.1779C21.9724 10.1896 23.1426 10.2036 24.3151 10.2153C24.7837 10.5313 25.2927 10.5125 25.8136 10.3979C26.2679 10.4213 26.7222 10.4423 27.1765 10.4657C27.3858 10.8706 27.7544 10.9642 28.1659 10.9291C29.034 10.8519 29.8665 11.0859 30.7156 11.1818C31.1723 11.2357 31.8121 11.2544 31.9667 11.6546C32.1498 12.1343 31.5053 12.3379 31.1866 12.6351Z" fill="#F2F2F1"/>
</svg>
