<svg width="22" height="24" viewBox="0 0 22 24" fill="none" xmlns="http://www.w3.org/2000/svg">
<path d="M18.0397 12.7638C18.0525 11.8439 18.3153 10.942 18.8037 10.1419C19.292 9.34183 19.9902 8.66961 20.833 8.1878C20.2976 7.47676 19.5912 6.89161 18.77 6.47881C17.9487 6.06602 17.0353 5.83695 16.1022 5.80981C14.1117 5.61554 12.1821 6.91724 11.1677 6.91724C10.1338 6.91724 8.57214 5.82909 6.89047 5.86126C5.80272 5.89393 4.74262 6.18804 3.81347 6.71491C2.88431 7.24178 2.11778 7.98346 1.58857 8.86767C-0.703806 12.558 1.00611 17.9815 3.20205 20.9645C4.30074 22.4252 5.58477 24.0568 7.26493 23.999C8.90906 23.9355 9.52311 23.0242 11.5077 23.0242C13.4739 23.0242 14.05 23.999 15.7642 23.9622C17.5285 23.9355 18.64 22.495 19.7002 21.0205C20.4896 19.9797 21.097 18.8294 21.5 17.6122C20.475 17.2091 19.6003 16.5344 18.985 15.6723C18.3697 14.8101 18.0409 13.7986 18.0397 12.7638Z" fill="#252525"/>
<path d="M14.8014 3.84705C15.7633 2.77337 16.2372 1.39333 16.1225 0C14.6528 0.143516 13.2953 0.79658 12.3204 1.82907C11.8437 2.33347 11.4787 2.92027 11.246 3.55593C11.0134 4.1916 10.9178 4.86366 10.9647 5.53369C11.6998 5.54073 12.427 5.39259 13.0916 5.10043C13.7561 4.80828 14.3407 4.37973 14.8014 3.84705Z" fill="#252525"/>
</svg>
