<svg width="16" height="13" viewBox="0 0 16 13" fill="none" xmlns="http://www.w3.org/2000/svg">
<path d="M0.866211 6.69657C0.866211 6.92257 0.964146 7.14858 1.13742 7.31431L6.10951 12.2789C6.29032 12.4521 6.48619 12.535 6.70466 12.535C7.17927 12.535 7.52581 12.196 7.52581 11.7365C7.52581 11.4954 7.43541 11.292 7.2772 11.1413L5.58217 9.42369L3.39746 7.42732L5.15276 7.53278H14.2833C14.7806 7.53278 15.1271 7.18624 15.1271 6.69657C15.1271 6.19936 14.7806 5.85282 14.2833 5.85282H5.15276L3.40499 5.95829L5.58217 3.96191L7.2772 2.24428C7.43541 2.09361 7.52581 1.89021 7.52581 1.64914C7.52581 1.18959 7.17927 0.850586 6.70466 0.850586C6.48619 0.850586 6.28278 0.933454 6.08691 1.12179L1.13742 6.07129C0.964146 6.23703 0.866211 6.46303 0.866211 6.69657Z" />
</svg>
