<svg width="25" height="24" viewBox="0 0 25 24" fill="none" xmlns="http://www.w3.org/2000/svg">
<path d="M8.09961 12H7.34961H8.09961ZM16.0996 12H16.8496H16.0996ZM12.0996 16V16.75V16ZM14.169 21.7856L14.3235 22.5195L14.169 21.7856ZM10.0302 21.7856L9.87577 22.5195L10.0302 21.7856ZM2.83822 8.22119L2.1439 7.93761H2.1439L2.83822 8.22119ZM2.31399 14.0694L1.58006 14.2238L2.31399 14.0694ZM10.0302 2.21438L9.87577 1.48045L10.0302 2.21438ZM14.169 2.21438L14.3235 1.48046L14.169 2.21438ZM21.2805 8.25728L21.4981 8.97499L21.2805 8.25728ZM2.83822 8.22119L2.1439 7.93761L1.90268 8.5282L2.44692 8.86103L2.83822 8.22119ZM2.91758 8.25692L3.13528 7.53921L2.91758 8.25692ZM20.6677 8.50731C21.1071 9.58399 21.3496 10.7627 21.3496 12H22.8496C22.8496 10.5651 22.5681 9.19407 22.0565 7.94055L20.6677 8.50731ZM21.3496 12C21.3496 12.6573 21.2812 13.2978 21.1513 13.915L22.6192 14.2238C22.7703 13.5057 22.8496 12.7617 22.8496 12H21.3496ZM21.1513 13.915C20.3998 17.4862 17.5858 20.3002 14.0146 21.0517L14.3235 22.5195C18.4766 21.6456 21.7453 18.377 22.6192 14.2238L21.1513 13.915ZM14.0146 21.0517C13.3974 21.1816 12.7569 21.25 12.0996 21.25V22.75C12.8613 22.75 13.6053 22.6707 14.3235 22.5195L14.0146 21.0517ZM12.0996 21.25C11.4423 21.25 10.8019 21.1816 10.1846 21.0517L9.87577 22.5195C10.5939 22.6707 11.3379 22.75 12.0996 22.75V21.25ZM2.84961 12C2.84961 10.7618 3.0925 9.58215 3.53254 8.50478L2.1439 7.93761C1.63159 9.19193 1.34961 10.564 1.34961 12H2.84961ZM10.1846 21.0517C6.61343 20.3002 3.79937 17.4862 3.04792 13.915L1.58006 14.2238C2.45396 18.377 5.72265 21.6456 9.87577 22.5195L10.1846 21.0517ZM3.04792 13.915C2.91804 13.2978 2.84961 12.6573 2.84961 12H1.34961C1.34961 12.7617 1.42895 13.5057 1.58006 14.2238L3.04792 13.915ZM3.53254 8.50478C4.67785 5.70064 7.16047 3.58466 10.1846 2.94831L9.87577 1.48045C6.35697 2.22088 3.47447 4.6799 2.1439 7.93761L3.53254 8.50478ZM10.1846 2.94831C10.8019 2.81844 11.4423 2.75 12.0996 2.75V1.25C11.3379 1.25 10.5939 1.32934 9.87577 1.48045L10.1846 2.94831ZM12.0996 2.75C12.7569 2.75 13.3974 2.81844 14.0146 2.94831L14.3235 1.48046C13.6053 1.32934 12.8613 1.25 12.0996 1.25V2.75ZM14.0146 2.94831C17.0397 3.58485 19.5229 5.70192 20.6677 8.50731L22.0565 7.94055C20.7265 4.68138 17.8433 2.22111 14.3235 1.48046L14.0146 2.94831ZM13.4545 2.44237C13.7304 3.30712 14.7518 6.63305 15.1704 9.68885L16.6566 9.48526C16.2193 6.29348 15.1636 2.86407 14.8835 1.9864L13.4545 2.44237ZM15.1704 9.68885C15.2826 10.5078 15.3496 11.2943 15.3496 12H16.8496C16.8496 11.2056 16.7747 10.3476 16.6566 9.48526L15.1704 9.68885ZM21.0628 7.53956C19.9653 7.87243 17.9039 8.45704 15.7774 8.84951L16.0496 10.3246C18.2552 9.91754 20.3769 9.31505 21.4981 8.97499L21.0628 7.53956ZM15.7774 8.84951C14.4874 9.0876 13.1993 9.25 12.0996 9.25V10.75C13.3288 10.75 14.7175 10.5705 16.0496 10.3246L15.7774 8.84951ZM15.3496 12C15.3496 13.0455 15.2028 14.2621 14.9833 15.4899L16.4598 15.7539C16.687 14.4833 16.8496 13.1698 16.8496 12H15.3496ZM14.9833 15.4899C14.5021 18.1811 13.6937 20.808 13.4545 21.5576L14.8835 22.0136C15.129 21.2443 15.9611 18.5432 16.4598 15.7539L14.9833 15.4899ZM21.6572 13.3549C20.9076 13.5941 18.2807 14.4025 15.5895 14.8836L15.8536 16.3602C18.6428 15.8615 21.3439 15.0294 22.1132 14.7839L21.6572 13.3549ZM15.5895 14.8836C14.3617 15.1032 13.1451 15.25 12.0996 15.25V16.75C13.2694 16.75 14.5829 16.5874 15.8536 16.3602L15.5895 14.8836ZM12.0996 15.25C11.0541 15.25 9.83748 15.1032 8.60968 14.8836L8.34567 16.3602C9.61632 16.5874 10.9298 16.75 12.0996 16.75V15.25ZM8.60968 14.8836C5.91847 14.4025 3.29158 13.5941 2.54198 13.3549L2.08601 14.7839C2.85529 15.0294 5.55645 15.8615 8.34567 16.3602L8.60968 14.8836ZM7.34961 12C7.34961 13.1698 7.51219 14.4833 7.73938 15.7539L9.21597 15.4899C8.99644 14.2621 8.84961 13.0455 8.84961 12H7.34961ZM7.73938 15.7539C8.23809 18.5432 9.07024 21.2443 9.3157 22.0136L10.7447 21.5576C10.5055 20.808 9.69715 18.1811 9.21597 15.4899L7.73938 15.7539ZM9.3157 1.9864C9.03565 2.86407 7.97991 6.29348 7.54265 9.48526L9.02877 9.68885C9.4474 6.63305 10.4688 3.30712 10.7447 2.44237L9.3157 1.9864ZM7.54265 9.48526C7.42452 10.3476 7.34961 11.2056 7.34961 12H8.84961C8.84961 11.2943 8.91658 10.5078 9.02877 9.68885L7.54265 9.48526ZM12.0996 9.25C11 9.25 9.71185 9.0876 8.42183 8.84951L8.14959 10.3246C9.48172 10.5705 10.8704 10.75 12.0996 10.75V9.25ZM8.42183 8.84951C6.29451 8.4569 4.23247 7.87202 3.13528 7.53921L2.69988 8.97463C3.82076 9.31462 5.94321 9.9174 8.14959 10.3246L8.42183 8.84951ZM21.0165 7.55831C21.0298 7.55142 21.0456 7.54476 21.0628 7.53956L21.4981 8.97499C21.5721 8.95255 21.6417 8.92382 21.7077 8.88955L21.0165 7.55831ZM2.44692 8.86103C2.52464 8.90856 2.609 8.94706 2.69988 8.97463L3.13528 7.53921C3.16994 7.54972 3.2019 7.56448 3.22951 7.58136L2.44692 8.86103Z" fill="#C2C3CC"/>
</svg>
