<svg width="299" height="396" viewBox="0 0 299 396" fill="none" xmlns="http://www.w3.org/2000/svg">
<path d="M291.899 206.726C290.686 205.032 288.895 204.634 286.756 205.159C284.797 205.643 283.26 206.708 281.76 207.868C270.853 216.311 250.185 214.863 241.424 202.142C240.303 200.512 240.103 199.463 241.805 198.256C248.259 193.673 251.982 187.222 255.586 180.922C264.731 164.928 270.516 148.019 271.499 129.912C272.552 110.409 267.199 92.9309 252.136 78.3677C251.679 77.9297 251.225 77.4157 250.674 77.0363L242.572 69.7792C242.572 69.7792 240.612 67.4735 240.394 64.5786C240.349 63.9459 239.344 61.0693 239.113 60.4421C234.071 46.7389 223.739 36.7174 211.281 28.1232C202.234 21.8831 191.547 18.4559 181.458 14.0118C175.876 11.5545 170.145 9.38061 164.516 7.02113C157.094 3.90818 148.734 3.31848 140.733 4.89419C129.976 7.01296 121.982 12.8998 117.564 22.0337C116.359 24.5192 114.911 26.175 112.418 27.5929C104.244 32.2322 97.0173 37.8733 92.3071 45.5803C87.3128 53.7472 83.9427 62.3885 84.5777 71.9258C84.6456 72.9078 84.4728 73.8056 83.2072 74.3706C76.8399 77.2066 71.7588 81.3842 67.2464 86.2906C62.3245 91.6352 56.887 96.64 52.6137 102.407C43.7586 114.35 40.4802 127.452 41.4197 141.875C42.1218 152.699 50.8313 164.249 63.8093 165.139C65.3868 165.244 65.9016 165.726 65.6132 167.211C63.6833 177.229 63.6131 187.33 64.1322 197.444C64.1362 197.561 64.1402 197.677 64.1441 197.789C64.1447 199.447 63.4786 200.649 62.0147 201.702C61.8379 201.829 61.6555 201.956 61.473 202.083C58.5025 204.098 55.089 205.416 51.8428 206.988C46.982 209.349 46.8502 209.302 45.3175 204.427C42.7292 196.195 40.4102 187.895 37.0473 179.858C35.8817 177.088 34.545 176.25 31.3508 177.526C23.8457 180.528 16.5957 184.029 8.83448 186.5C5.45799 187.579 5.98333 189.349 7.0786 193.197C9.37222 201.255 12.6 207.348 14.6836 214.078C15.5947 217.018 17.3805 218.401 13.7637 220.881C13.4041 221.125 12.9935 221.695 12.6819 222.344C11.4157 224.532 11.4905 228.009 11.8715 230.027C12.1278 231.384 14.5594 234.091 18.0281 234.207C18.182 234.238 22.5727 235.315 23.3782 237.493C25.3335 242.801 27.541 248.036 29.3448 253.385C30.1203 255.68 31.0883 255.677 33.2382 254.817C39.2858 252.396 45.419 250.16 51.5456 247.9C60.2383 244.696 60.7193 246.33 57.3705 237.06C56.2814 234.049 55.4614 230.959 54.5182 227.908C57.3635 229.807 59.7846 230.735 62.8632 228.899C65.3926 227.389 67.8005 228.428 68.4079 231.099C69.3357 235.18 70.1792 239.279 71.2308 243.336C74.3577 255.361 79.0275 266.818 85.7876 277.655C91.6251 287.023 98.6669 295.524 106.59 303.481C107.833 304.728 108.074 305.639 107.382 307.227C104.826 313.069 103.105 319.141 101.471 325.246C99.0038 334.469 101.427 342.675 107.61 350.07C111.212 354.381 115.919 357.727 121.793 358.989C131.877 361.15 142.123 361.77 152.431 359.934C156.285 359.247 160.215 359.105 164.114 358.751C172.162 358.011 180.188 357.312 188.262 357.682C190.12 357.871 191.974 357.953 192.342 357.957C192.871 358.007 197.467 358.485 201.83 358.752C206.104 359.229 210.499 359.799 213.05 360.063C228.329 361.661 239.898 368.8 249.2 379.324C251.044 381.405 252.243 383.819 252.557 386.529C252.662 387.454 252.266 388.764 253.838 388.875C255.234 388.98 255.974 387.944 256.447 386.88C257.938 383.509 259.886 380.23 260.801 376.734C263.641 365.841 264.872 355.112 253.949 346.67C250.436 343.959 246.392 342.258 242.013 341.038C236.588 339.525 231.622 337.364 227.422 333.755C221.43 328.606 221.697 322.892 228.46 318.573C245.814 307.49 253.401 291.927 252.822 273.375C252.448 261.552 248.929 250.31 237.891 242.297C237.136 241.752 236.522 241.039 235.811 240.436C234.598 239.407 234.852 238.578 236.156 237.794C238.957 236.113 242.162 235.491 245.302 236.083C249.969 236.964 252.941 235.01 255.207 231.925C256.64 229.975 258.052 229.406 260.631 229.801C265.622 230.557 268.382 229.354 269.497 225.882C270.356 223.209 271.959 222.259 274.849 222.68C275.72 222.812 276.569 222.802 277.353 222.404C282.911 219.561 288.387 216.655 291.99 211.649C293.243 209.907 293.029 208.306 291.905 206.726L291.899 206.726ZM162.081 9.31983C162.825 8.56743 163.702 9.0487 164.448 9.33098C169.879 11.3464 175.374 13.2432 180.687 15.4751C190.976 19.8017 201.737 23.3789 210.811 29.7501C223.657 38.7691 234.371 49.1952 238.29 63.9916C238.427 64.5252 238.565 65.0588 238.695 65.5469C238.675 66.1207 238.947 66.7771 238.185 67.0076C237.355 67.2604 236.851 66.5855 236.284 66.2269C231.174 63.0101 226.27 59.5285 220.786 56.8046C214.577 53.7217 208.308 50.7268 202.18 47.5198C190.223 41.2694 178.67 34.6012 170.017 24.5301C166.407 20.3305 164.27 15.6512 162.163 10.8644C161.942 10.3587 161.616 9.79515 162.081 9.31983ZM88.3403 59.4028C89.5028 55.0317 91.4111 51.1102 93.5622 47.1714C97.8053 39.3818 104.652 33.8839 112.76 29.4848C114.9 28.331 115.956 28.7462 116.204 31.1836C117.144 40.3619 123.138 46.8699 130.657 52.4958C131.488 53.1154 132.389 54.1133 133.697 53.2986C133.798 52.4587 133.25 52.1503 132.747 51.8608C127.537 48.8549 124.055 44.4081 121.047 39.7849C116.754 33.176 115.806 25.8797 120.987 19.5079C130.485 7.82974 140.53 3.95167 156.707 6.47602C158.511 6.75743 159.087 7.53672 159.67 9.15783C161.623 14.5679 163.754 19.8916 167.725 24.5573C177.072 35.5412 189.211 43.2876 202.633 49.6469C217.614 56.7462 237.177 68.483 249.789 78.782L249.795 78.7818C250.272 79.3155 250.766 79.8436 251.287 80.3405C269.202 97.3099 272.144 117.918 268.751 139.854C267.085 150.631 263.532 161.017 258.642 171.058C254.402 179.765 249.998 188.285 242.236 195.017C241.187 195.931 240.242 197.262 239.001 195.093C233.928 186.24 225.365 180.244 217.059 174.144C202.097 163.164 184.869 155.441 167.884 147.387C155.89 141.695 143.056 137.444 131.997 130.137C121.244 123.035 110.415 116.026 101.631 106.902C88.355 93.1124 83.539 77.4244 88.3403 59.4028ZM62.0797 163.414C54.132 162.285 45.1549 154.136 43.987 146.871C43.4823 143.731 42.6381 140.596 43.0136 137.699C41.9612 120.338 50.1399 106.512 62.1325 94.1111C67.8119 88.2419 72.8887 81.8073 80.4119 77.527C84.1484 75.3978 84.348 75.2752 84.9108 79.1134C87.0515 93.7292 95.7235 105.012 107.294 114.824C109.224 116.456 109.754 117.196 107.001 118.794C94.9911 125.774 84.3628 134.239 75.4483 144.298C71.4814 148.772 68.5699 153.808 67.6214 159.624C67.2346 162.029 64.7536 163.792 62.0797 163.414ZM36.6236 184.639C38.4792 187.389 38.9508 190.063 39.7974 192.61C40.6503 195.177 41.2396 197.817 42.7905 200.267C42.2644 200.115 41.7988 199.91 41.418 199.704C40.5239 199.223 32.0394 196.649 33.4048 194.549C35.0495 192.01 35.3799 187.805 36.6236 184.639ZM14.9733 209.677C12.7725 203.98 10.2638 198.383 8.48862 192.552C7.93326 190.732 8.27776 189.56 10.2993 188.917C13.3403 187.96 15.7049 186.105 19.6943 186.545C22.5131 186.857 26.8591 185.166 28.5526 181.743C29.5053 179.823 31.489 179.232 33.3013 179.254C35.1759 179.275 34.9057 181.286 35.0647 182.448C35.4772 185.54 34.7425 188.529 33.3639 191.395C32.4286 193.33 29.7016 197.478 27.7034 200.763C27.0176 201.89 26.1879 202.944 25.2183 203.885C22.9398 206.103 20.4761 208.367 17.995 210.292C16.3962 211.537 15.6695 211.477 14.9733 209.677ZM19.7792 233.11C17.6082 233.687 15.1953 232.997 13.8317 231.379C13.4952 230.978 13.2246 230.519 13.0364 229.987C12.5332 228.531 12.53 226.634 12.8857 224.803C13.0882 223.782 13.5474 222.815 14.2491 221.988C14.2926 221.936 14.3306 221.889 14.369 221.853C15.602 220.507 16.7214 220.464 17.7938 222.01C18.6934 223.307 19.6322 224.426 21.5003 224.913C24.5108 225.697 25.2086 228.527 23.2721 230.811C22.233 232.033 21.0863 232.762 19.7792 233.11ZM57.0003 240.769C57.6879 242.646 57.5113 243.762 55.4582 244.801C48.4753 248.335 40.8445 250.483 33.5374 253.317C32.1241 253.866 31.2401 253.349 30.6764 252.108C27.8526 245.912 25.9478 239.44 23.6003 233.104C23.1194 231.799 24.2949 231.085 24.7885 230.132C26.482 226.876 25.5878 224.752 21.925 223.932C20.8008 223.676 20.2351 223.196 19.8379 222.35C19.6917 222.05 19.5678 221.739 19.427 221.434C16.9714 216.117 18.0632 211.557 22.7024 207.754C24.4973 206.286 26.1068 204.696 27.4034 202.898C28.2571 201.716 29.2785 200.636 30.5228 199.782C32.3036 198.563 34.1214 197.759 35.2133 198.228C36.288 198.694 42.309 199.439 45.9821 209.738C49.6679 220.078 53.2304 230.452 57.0003 240.769ZM66.8803 226.701C63.7129 225.471 61.2697 229.641 58.7496 228.143C56.0215 226.52 52.4682 225.265 51.5957 221.639C50.8812 218.653 49.6267 215.768 48.5076 212.869C47.8986 211.3 48.0007 210.323 49.9413 209.469C53.6886 207.816 57.3036 205.939 60.9545 204.117C61.3664 203.912 61.7839 203.707 62.1957 203.502C62.513 203.345 62.8126 203.169 63.1017 203.014C64.2602 202.954 64.2141 203.752 64.2858 204.353C64.7444 208.123 65.1465 211.901 65.6445 215.665C66.0812 218.969 66.5857 222.266 67.2651 225.548C67.3338 225.896 67.0143 226.316 66.8803 226.701ZM229.863 338.217C234.054 341.04 238.874 342.095 243.717 343.646C247.346 344.806 250.861 346.442 253.569 348.939C262.264 356.944 261.553 366.861 258.598 376.535C258.003 378.48 256.917 383.453 255.195 385.867C254.957 386.204 254.383 386.13 254.274 385.747C252.603 379.999 248.612 375.887 245.684 372.9C235.49 362.489 217.566 358.038 201.622 356.658C190.623 355.705 178.635 355.629 149.867 357.986C140.62 358.741 131.488 359.072 122.533 356.633C112.372 353.87 102.87 342.992 103.028 334.279C103.188 325.474 106.198 317.208 109.481 309.006C110.231 307.127 111.128 307.177 112.596 308.371C114.413 309.844 116.318 311.233 118.211 312.623C129.717 321.057 142.212 328.291 156.786 331.127C172.739 334.236 188.904 333.951 204.655 328.91C209.907 327.227 215.871 325.002 221.223 322.936C219.852 330.778 223.847 334.17 229.863 338.217ZM241.591 254.371C241.323 258.427 240.987 263.763 236.112 267.853C230.264 272.763 224.609 271.652 221.584 264.874C218.437 257.826 223.36 244.802 230.627 240.808C231.61 240.266 232.416 240.324 233.349 240.788C237.831 243.035 241.542 248.535 241.591 254.371ZM288.94 211.85C284.619 216.564 280.023 221.016 272.506 221.228C270.012 221.302 268.583 222.536 268.074 224.514C267.24 227.755 264.955 228.943 261.575 228.287C258.093 227.614 255.691 228.73 253.675 231.158C251.854 233.348 249.322 234.462 246.284 234.03C235.781 232.525 229.473 238.042 224.073 244.806C221.658 247.834 219.492 251.175 218.726 254.88C217.556 260.515 218.515 265.827 223.293 270.078C226.961 273.348 231.596 273.318 235.851 270.453C241.649 266.548 242.968 260.965 243.584 255.048C243.673 254.168 243.671 253.285 243.714 252.401C244.202 252.28 244.197 252.286 244.685 252.165C246.843 255.144 247.936 258.591 248.975 261.974C256.675 287.067 242.856 312.979 215.393 323.307C207.904 326.125 200.335 328.9 192.375 330.054C174.214 332.676 156.478 331.542 139.889 323.485C114.607 311.203 95.9446 293.251 83.4236 270.183C76.4225 257.283 72.5873 243.438 69.7297 229.376C68.8905 225.236 68.2151 221.087 67.675 216.923C66.787 210.061 66.2603 203.169 65.965 196.254C65.8121 192.647 65.7215 189.038 65.6703 185.423C65.535 175.44 67.5774 165.727 70.5046 156.226C72.2913 150.422 76.2079 145.31 80.9923 140.903C88.7945 133.718 96.786 126.766 106.538 121.623C111.698 118.909 111.716 118.614 116.31 122.136C129.953 132.602 145.778 139.707 161.786 146.71C181.462 155.319 201.036 164.245 217.938 176.979C223.617 181.259 229.782 185.196 233.7 191.09C234.9 192.896 236.533 198.868 237.411 200.379C243.19 210.328 253.499 215.896 266.466 214.843C273.619 214.261 279.42 212.249 284.746 208.262C286.075 207.264 287.724 205.825 289.575 207.439C291.355 208.994 290.064 210.625 288.94 211.85Z" fill="#3048EA"/>
<path d="M89.2162 205.619C89.4319 212.521 83.3549 218.519 75.5529 218.658C72.6674 218.708 69.9627 218.093 67.6748 216.923C66.7868 210.061 66.2601 203.169 65.9647 196.254C68.3254 194.612 71.3234 193.721 74.5779 193.864C82.7221 193.633 88.9991 198.677 89.2162 205.619Z" fill="#B9BCFF"/>
<path d="M241.592 254.371C241.324 258.427 240.988 263.763 236.113 267.853C230.264 272.763 224.61 271.652 221.585 264.874C218.438 257.825 223.36 244.801 230.627 240.808C231.611 240.266 232.417 240.324 233.35 240.788C237.832 243.034 241.543 248.535 241.592 254.371Z" fill="#B9BCFF"/>
<path d="M258.598 376.535C258.003 378.48 256.917 383.453 255.195 385.867C254.957 386.204 254.383 386.13 254.274 385.748C252.603 379.999 248.612 375.887 245.683 372.9C235.49 362.489 217.566 358.038 201.622 356.658C190.623 355.705 178.635 355.629 149.867 357.986C140.62 358.741 131.488 359.072 122.533 356.634C112.372 353.871 102.87 342.993 103.028 334.279C103.188 325.474 106.198 317.209 109.481 309.006C110.231 307.127 111.128 307.177 112.595 308.371C114.413 309.844 116.317 311.233 118.211 312.623C129.717 321.058 142.212 328.291 156.786 331.127C172.739 334.236 188.904 333.951 204.655 328.91C209.907 327.228 215.871 325.002 221.223 322.937C219.852 330.778 223.847 334.17 229.863 338.217C234.053 341.041 238.874 342.095 243.717 343.646C247.346 344.807 250.861 346.442 253.569 348.939C262.263 356.945 261.553 366.861 258.598 376.535Z" fill="#B9BCFF"/>
<path d="M42.7906 200.267C42.2645 200.115 41.7989 199.911 41.4181 199.704C40.524 199.223 32.0395 196.649 33.405 194.549C35.0496 192.01 35.38 187.805 36.6237 184.639C38.4793 187.389 38.951 190.063 39.7975 192.61C40.6504 195.177 41.2398 197.817 42.7906 200.267Z" fill="#B9BCFF"/>
<path d="M33.3636 191.396C32.4284 193.331 29.7014 197.479 27.7032 200.764C27.0174 201.89 26.1876 202.944 25.2181 203.886C22.9396 206.104 20.4759 208.368 17.9947 210.293C16.3959 211.537 15.6692 211.477 14.973 209.677C12.7722 203.98 10.2635 198.384 8.48838 192.552C7.93302 190.733 8.27753 189.561 10.299 188.918C13.3401 187.961 15.7047 186.105 19.6941 186.545C22.5128 186.857 26.8589 185.167 28.5523 181.744C29.5051 179.823 31.4887 179.232 33.3011 179.255C35.1757 179.275 34.9055 181.287 35.0645 182.449C35.4769 185.541 34.7423 188.53 33.3636 191.396Z" fill="#B9BCFF"/>
<path d="M107.001 118.794C94.9906 125.774 84.3623 134.239 75.4478 144.297C71.4809 148.772 68.5694 153.808 67.621 159.624C67.2341 162.029 64.7531 163.792 62.0793 163.414C54.1315 162.285 45.1544 154.135 43.9865 146.871C43.4818 143.731 42.6376 140.596 43.0131 137.699C41.9607 120.337 50.1394 106.512 62.1321 94.1108C67.8115 88.2416 72.8882 81.807 80.4114 77.5267C84.148 75.3975 84.3475 75.2749 84.9103 79.1132C87.0511 93.7289 95.723 105.012 107.294 114.824C109.224 116.456 109.753 117.196 107.001 118.794Z" fill="#B9BCFF"/>
<path d="M238.185 67.0075C237.356 67.2603 236.852 66.5854 236.284 66.2268C231.174 63.01 226.27 59.5284 220.787 56.8045C214.578 53.7216 208.309 50.7267 202.18 47.5197C190.223 41.2693 178.67 34.6011 170.018 24.53C166.408 20.3304 164.271 15.6511 162.164 10.8644C161.942 10.3586 161.617 9.79507 162.082 9.31975C162.826 8.56735 163.703 9.04862 164.449 9.3309C169.879 11.3463 175.374 13.2431 180.688 15.475C190.977 19.8016 201.738 23.3789 210.812 29.75C223.657 38.769 234.372 49.1951 238.291 63.9915C238.428 64.5251 238.565 65.0587 238.695 65.5469C238.675 66.1206 238.947 66.7771 238.185 67.0075Z" fill="#B9BCFF"/>
<path d="M268.751 139.853C267.085 150.63 263.531 161.017 258.641 171.057C254.402 179.765 249.997 188.285 242.236 195.017C241.186 195.931 240.241 197.262 239 195.092C233.928 186.239 225.365 180.243 217.058 174.144C202.096 163.164 184.868 155.441 167.884 147.386C155.889 141.695 143.055 137.444 131.996 130.137C121.243 123.034 110.415 116.025 101.63 106.901C88.3542 93.112 83.5383 77.424 88.3395 59.4024C89.502 55.0312 91.4103 51.1098 93.5615 47.171C97.8046 39.3813 104.652 33.8834 112.76 29.4844C114.899 28.3306 115.955 28.7457 116.204 31.1832C117.143 40.3615 123.137 46.8694 130.657 52.4953C131.488 53.1149 132.388 54.1129 133.696 53.2981C133.797 52.4582 133.249 52.1498 132.746 51.8604C127.536 48.8545 124.054 44.4077 121.047 39.7845C116.754 33.1755 115.805 25.8793 120.986 19.5075C130.485 7.82931 140.53 3.95124 156.706 6.47559C158.51 6.75699 159.086 7.53629 159.669 9.1574C161.622 14.5675 163.753 19.8912 167.724 24.5568C177.071 35.5408 189.21 43.2872 202.632 49.6464C217.613 56.7458 237.176 68.4826 249.788 78.7815L249.794 78.7814C250.271 79.3151 250.765 79.8432 251.286 80.3401C269.201 97.3094 272.143 117.917 268.751 139.853Z" fill="#B9BCFF"/>
<path d="M145.07 179.855C144.186 177.517 142.873 175.243 139.708 175.083C136.623 174.926 134.741 176.808 133.563 179.084C131.79 182.51 131.028 186.184 131.311 189.945C131.424 191.432 131.937 192.99 132.685 194.332C135.008 198.488 139.444 198.92 142.412 195.17C143.806 193.41 144.775 191.484 145.377 189.397C146.176 186.634 146.166 183.723 145.419 180.95C145.322 180.583 145.207 180.216 145.07 179.855Z" fill="#3048EA"/>
<path d="M103.237 172.252C101.078 169.571 98.2203 169.286 95.3957 171.428C90.8887 174.854 89.4434 185.462 92.8991 189.793C95.3608 192.88 98.6048 193.21 101.398 190.312C104.273 187.336 105.699 183.733 105.626 180.469C105.419 177.077 105.035 174.481 103.237 172.252Z" fill="#3048EA"/>
<path d="M130.236 217.032C123.221 220.947 115.36 220.677 108.999 216.315C108.291 215.829 107.598 214.597 106.623 215.397C105.511 216.307 106.629 217.192 107.399 217.874C111.143 221.203 115.945 221.882 120.109 222.155C124.454 222.052 129.898 220.699 131.749 219.376C132.705 218.693 133.967 217.854 133.083 216.679C132.217 215.527 131.136 216.528 130.236 217.032Z" fill="#3048EA"/>
<path d="M141.979 157.882C140.545 157.981 139.7 158.756 139.19 159.73C138.637 160.786 139.515 161.602 140.347 162.267C142.943 164.331 146.318 164.5 148.784 165.259C150.525 165.187 151.697 165.503 152.335 164.312C152.904 163.245 152.486 162.304 151.732 161.601C149.093 159.138 145.978 157.607 141.979 157.882Z" fill="#3048EA"/>
<path d="M96.129 161.682C98.5694 161.037 101.053 160.497 103.431 159.696C104.528 159.324 105.508 158.529 105.394 157.183C105.28 155.857 104.372 155.291 103.067 155.03C99.418 154.296 96.4375 155.368 93.9326 157.75C93.1708 158.478 92.3168 159.157 93.0075 160.308C93.6862 161.435 94.7666 161.738 96.1349 161.687L96.129 161.682Z" fill="#3048EA"/>
<path d="M35.9814 247.199C36.2707 247.87 36.7891 248.291 37.7587 248.171C41.5522 246.709 45.3696 245.283 49.1326 243.756C49.8974 243.445 50.3773 242.751 49.9096 241.831C49.4543 240.942 48.7692 240.775 47.8412 241.116C44.1354 242.494 40.4294 243.867 36.7359 245.274C35.7692 245.643 35.6311 246.398 35.9758 247.199L35.9814 247.199Z" fill="#3048EA"/>
<path d="M25.5046 212.18C25.6851 211.506 24.9125 210.935 24.191 211.19C22.7757 211.683 21.8417 212.507 21.6611 213.998C21.5913 214.599 22.2627 215.025 22.8651 214.764C24.1312 214.214 25.164 213.464 25.5048 212.186L25.5046 212.18Z" fill="#3048EA"/>
<path d="M36.227 208.227C37.5596 208.619 38.8822 208.722 40.1201 208.011C40.7696 207.636 40.6594 206.742 39.9482 206.474C38.5486 205.947 37.2414 205.96 35.9555 206.921C35.4366 207.307 35.5864 208.038 36.2268 208.222L36.227 208.227Z" fill="#3048EA"/>
<path d="M26.462 215.276C26.1894 215.356 25.9632 215.518 25.775 215.731C25.4928 215.74 25.087 215.739 24.9068 215.764C24.3658 215.831 22.7939 216.254 22.7939 216.254C22.7939 216.254 24.0103 216.446 24.378 216.604C24.5693 216.689 24.9328 216.938 25.2005 217.137C25.1885 217.209 25.1765 217.281 25.172 217.359C24.1135 217.546 23.0658 218.044 22.0295 218.873C22.0295 218.873 23.9331 218.616 24.5262 218.799C24.7313 218.865 25.0427 219.07 25.3404 219.301C25.4084 219.591 25.4981 219.881 25.6097 220.176C26.4647 222.487 28.2281 224.045 29.5546 223.649C30.8812 223.252 31.2619 221.06 30.4069 218.749C29.552 216.438 27.7885 214.88 26.462 215.276Z" fill="#3048EA"/>
<path d="M39.3611 210.805C39.0619 210.743 38.7724 210.751 38.5076 210.843C37.2046 211.291 36.9331 213.499 37.9099 215.774C38.8796 218.05 40.7272 219.527 42.0302 219.08C43.3332 218.632 43.6047 216.424 42.6279 214.149C42.502 213.86 42.3693 213.585 42.2154 213.323C42.2829 212.971 42.3728 212.637 42.4903 212.472C42.8143 211.995 44.4716 211.108 44.4716 211.108C43.0862 211.058 41.9199 211.268 40.9721 211.725C40.9122 211.668 40.8525 211.618 40.7928 211.568C40.8619 211.261 40.9641 210.862 41.0523 210.69C41.2293 210.36 42.0331 209.512 42.0331 209.512C42.0331 209.512 40.5242 210.083 40.0549 210.337C39.8984 210.419 39.5803 210.649 39.3611 210.805Z" fill="#3048EA"/>
<path d="M38.8781 225.809C40.6492 224.636 40.8847 222.767 40.9169 222.224C40.9299 221.944 40.6897 221.708 40.3777 221.692C40.0601 221.676 39.8017 221.897 39.783 222.176C39.7654 222.486 39.6104 224.063 38.2047 224.997C36.7492 225.963 34.5886 225.86 32.9594 224.747C32.7101 224.576 32.3548 224.617 32.1644 224.841C31.974 225.065 32.0189 225.383 32.2683 225.553C33.4047 226.331 34.7594 226.707 36.0545 226.669C37.0725 226.639 38.0535 226.356 38.8726 225.814L38.8781 225.809Z" fill="#3048EA"/>
<path d="M168.308 202.576C176.456 202.586 182.562 207.813 182.539 214.758C182.516 221.663 176.236 227.478 168.433 227.387C160.5 227.296 154.083 222.185 154.111 214.723C154.14 207.301 160.613 202.003 168.308 202.571V202.576Z" fill="#B9BCFF"/>
</svg>
