<svg width="14" height="14" viewBox="0 0 14 14" fill="none" xmlns="http://www.w3.org/2000/svg">
<path fill-rule="evenodd" clip-rule="evenodd" d="M3.22501 13.1285C3.03689 13.1285 2.85314 13.0707 2.70001 12.9622C2.40251 12.7522 2.27126 12.3786 2.36489 12.0278L3.38339 8.31513L0.332264 5.8975C0.0435143 5.67438 -0.0702357 5.29375 0.0435143 4.949C0.159014 4.6025 0.476639 4.36275 0.842389 4.34525L4.76676 4.14663L6.16676 0.559125C6.30501 0.2205 6.63227 0 6.99976 0C7.36464 0 7.69276 0.221375 7.82926 0.56L9.23539 4.1475L13.1589 4.34613C13.5238 4.36363 13.8414 4.6025 13.9586 4.94987C14.0724 5.29462 13.9586 5.6735 13.6716 5.89838L10.6223 8.3125L11.6416 12.0243C11.7361 12.3743 11.6023 12.7479 11.3056 12.9579C11.0081 13.1696 10.61 13.1801 10.2994 12.9841L7.00414 10.8841L3.70889 12.9841C3.56539 13.0769 3.39739 13.1267 3.22589 13.1276L3.22501 13.1285ZM7.00326 8.97575C7.17476 8.97575 7.34276 9.02475 7.48714 9.11575L9.32201 10.2839L8.75589 8.22412C8.66401 7.88812 8.78214 7.53113 9.05514 7.31588L10.7465 5.97712L8.57039 5.86513C8.22214 5.84938 7.91589 5.63063 7.78726 5.30688L6.99976 3.3075V8.98012L7.00326 8.97575Z" fill="#3048EA"/>
</svg>
