<svg width="29" height="33" viewBox="0 0 29 33" fill="none" xmlns="http://www.w3.org/2000/svg">
<path d="M7.95832 0.34668C3.77724 0.34668 0.373047 3.73675 0.373047 7.91783C0.373047 9.61286 0.966309 11.2938 1.94095 12.565C2.20933 12.9323 2.56246 13.0877 2.9156 13.0877C3.76311 13.0877 4.427 12.1272 3.77724 11.2796C3.05685 10.3615 2.60484 9.17498 2.60484 7.91783C2.60484 4.96565 5.00614 2.5926 7.95832 2.5926C10.7975 2.5926 13.114 4.81027 13.2553 7.63532C13.2553 7.72008 13.2694 7.80483 13.2694 7.93195C13.3259 8.59584 13.7638 8.9631 14.3288 8.9631C14.9503 8.9631 15.4447 8.55347 15.473 7.94608C15.4871 7.81895 15.4871 7.64945 15.473 7.4517C15.247 3.46837 11.9417 0.34668 7.95832 0.34668ZM21.9988 31.8602C27.9597 29.699 29.9938 24.7269 27.6772 18.3705L26.7167 15.7291C25.8409 13.3278 24.1176 12.2119 22.7475 12.7204C22.4085 12.8334 22.2955 13.1018 22.4085 13.4267L22.8181 14.5708C23.0017 15.0652 22.8464 15.4184 22.5497 15.5172C22.239 15.6302 21.9 15.4749 21.7163 14.9663L21.4338 14.2177C20.9112 12.7769 19.6258 12.1554 18.3687 12.6215C17.7754 12.8334 17.5918 13.2007 17.7754 13.7092L18.3404 15.2771C18.524 15.7856 18.3687 16.1246 18.072 16.2235C17.7471 16.3506 17.4223 16.1952 17.2245 15.6726L16.7019 14.2318C16.1227 12.6357 14.908 12.1695 13.6508 12.6215C13.0858 12.8334 12.8739 13.2148 13.0575 13.7092L14.1734 16.7885C14.3571 17.297 14.2017 17.636 13.9051 17.749C13.5943 17.862 13.2553 17.7066 13.0717 17.1981L9.37085 7.04206C8.98947 5.99679 8.04307 5.54478 7.13906 5.86966C6.17854 6.2228 5.7689 7.15506 6.15029 8.21446L11.5179 22.9471C11.645 23.2861 11.5038 23.5404 11.2919 23.6251C11.08 23.6958 10.8681 23.6251 10.6139 23.3568L7.01193 19.4864C6.44692 18.879 5.8254 18.6672 5.11914 18.9355C4.13037 19.2887 3.72074 20.2068 4.03149 21.0685C4.1445 21.3792 4.314 21.6335 4.46938 21.8454L9.15897 27.665C13.0575 32.4958 17.5353 33.4846 21.9988 31.8602Z" fill="#FFFEFE"/>
</svg>
