<svg width="25" height="24" viewBox="0 0 25 24" fill="none" xmlns="http://www.w3.org/2000/svg">
<path d="M12.5059 3.80113C15.1793 3.80113 15.4959 3.81285 16.5473 3.85974C17.5244 3.90272 18.0521 4.06681 18.4038 4.20356C18.869 4.38328 19.2051 4.60207 19.553 4.9498C19.9047 5.30143 20.1197 5.63352 20.2995 6.09846C20.4363 6.45009 20.6004 6.98144 20.6434 7.95429C20.6903 9.00918 20.7021 9.32565 20.7021 11.9941C20.7021 14.6665 20.6903 14.983 20.6434 16.034C20.6004 17.0107 20.4363 17.5382 20.2995 17.8898C20.1197 18.3548 19.9008 18.6908 19.553 19.0385C19.2012 19.3901 18.869 19.605 18.4038 19.7847C18.0521 19.9215 17.5205 20.0856 16.5473 20.1285C15.492 20.1754 15.1754 20.1871 12.5059 20.1871C9.83242 20.1871 9.51583 20.1754 8.46443 20.1285C7.4873 20.0856 6.95964 19.9215 6.60788 19.7847C6.14276 19.605 5.80662 19.3862 5.45876 19.0385C5.107 18.6869 4.89203 18.3548 4.71223 17.8898C4.57543 17.5382 4.41128 17.0068 4.36828 16.034C4.32138 14.9791 4.30965 14.6626 4.30965 11.9941C4.30965 9.32174 4.32138 9.00527 4.36828 7.95429C4.41128 6.97753 4.57543 6.45009 4.71223 6.09846C4.89203 5.63352 5.1109 5.29752 5.45876 4.9498C5.81053 4.59816 6.14276 4.38328 6.60788 4.20356C6.95964 4.06681 7.49121 3.90272 8.46443 3.85974C9.51583 3.81285 9.83242 3.80113 12.5059 3.80113ZM12.5059 2C9.78943 2 9.44938 2.01172 8.38235 2.05861C7.31923 2.10549 6.58833 2.2774 5.95515 2.52354C5.29461 2.7814 4.73569 3.12131 4.18067 3.68002C3.62175 4.23481 3.28171 4.79351 3.02374 5.44989C2.77751 6.08674 2.60553 6.81344 2.55863 7.87615C2.51173 8.94667 2.5 9.28658 2.5 12.002C2.5 14.7173 2.51173 15.0572 2.55863 16.1239C2.60553 17.1866 2.77751 17.9172 3.02374 18.5501C3.28171 19.2104 3.62175 19.7691 4.18067 20.3239C4.73569 20.8787 5.29461 21.2225 5.95124 21.4765C6.58833 21.7226 7.31532 21.8945 8.37844 21.9414C9.44548 21.9883 9.78552 22 12.502 22C15.2184 22 15.5584 21.9883 16.6255 21.9414C17.6886 21.8945 18.4195 21.7226 19.0527 21.4765C19.7093 21.2225 20.2682 20.8787 20.8232 20.3239C21.3782 19.7691 21.7222 19.2104 21.9763 18.554C22.2225 17.9172 22.3945 17.1905 22.4414 16.1278C22.4883 15.0611 22.5 14.7212 22.5 12.0059C22.5 9.29049 22.4883 8.95058 22.4414 7.88396C22.3945 6.82125 22.2225 6.09064 21.9763 5.45771C21.73 4.79351 21.39 4.23481 20.8311 3.68002C20.276 3.12522 19.7171 2.7814 19.0605 2.52745C18.4234 2.2813 17.6964 2.1094 16.6333 2.06251C15.5623 2.01172 15.2223 2 12.5059 2Z" fill="#03052B"/>
<path d="M12.5059 6.86328C9.66834 6.86328 7.36621 9.16451 7.36621 12.001C7.36621 14.8375 9.66834 17.1387 12.5059 17.1387C15.3435 17.1387 17.6457 14.8375 17.6457 12.001C17.6457 9.16451 15.3435 6.86328 12.5059 6.86328ZM12.5059 15.3337C10.665 15.3337 9.17196 13.8412 9.17196 12.001C9.17196 10.1608 10.665 8.66832 12.5059 8.66832C14.3469 8.66832 15.8399 10.1608 15.8399 12.001C15.8399 13.8412 14.3469 15.3337 12.5059 15.3337Z" fill="#03052B"/>
<path d="M19.0488 6.66039C19.0488 7.32459 18.5094 7.85985 17.8488 7.85985C17.1844 7.85985 16.6489 7.32068 16.6489 6.66039C16.6489 5.9962 17.1883 5.46094 17.8488 5.46094C18.5094 5.46094 19.0488 6.00011 19.0488 6.66039Z" fill="#03052B"/>
</svg>
