<svg width="120" height="120" viewBox="0 0 120 120" fill="none" xmlns="http://www.w3.org/2000/svg">
<path fill-rule="evenodd" clip-rule="evenodd" d="M60 120C93.1371 120 120 93.1371 120 60C120 26.8629 93.1371 0 60 0C26.8629 0 0 26.8629 0 60C0 72.6963 3.94346 84.4715 10.6724 94.1677L3.29803 115.553C2.72303 117.221 4.43116 118.762 6.031 118.019L25.4014 109.026C35.1787 115.938 47.115 120 60 120Z" fill="#FCF0F0"/>

<path d="M98.2938 104.227C97.9172 100.396 97.1153 96.6353 95.4856 93.1615C94.7583 91.6093 94.9161 90.815 96.0483 89.6093C99.0567 86.4131 100.876 82.47 102.539 78.4463C105.878 70.3567 107.681 62.0861 106.409 53.2444C105.58 47.4728 102.998 42.7472 99.0474 38.633C98.8122 38.3859 98.0678 37.7307 97.314 37.1553C95.512 35.2462 93.8963 32.073 93.2666 30.2798C93.2345 30.1928 93.1969 30.1111 93.1669 30.0245C91.864 26.3723 89.583 23.4347 86.7632 20.8023C83.0907 17.3738 78.9631 14.7198 74.3702 12.7237C71.026 11.2683 67.6338 9.93987 64.213 8.68048C59.6241 6.99139 55.0736 6.421 50.4884 8.83012C47.6423 10.3236 45.3039 12.242 44.106 15.2757C43.7237 16.2434 43.1727 16.8798 42.2926 17.3601C39.3589 18.9652 37.0443 21.3222 35.052 23.9223C32.1877 27.664 30.5722 31.9269 30.6967 36.7313C30.7116 37.267 30.568 37.6549 30.0299 37.9472C24.6633 40.8675 21.0086 45.5709 17.5571 50.3763C13.8437 55.5493 12.4233 61.4209 12.8979 67.8347C13.2345 72.368 16.2205 76.2213 21.144 76.9729C22.0188 77.1079 22.3085 77.419 22.147 78.3158C21.8804 79.7924 21.7005 81.2864 21.5271 82.7797C20.8389 88.7305 20.7778 94.672 21.5999 100.625C22.0588 103.93 22.9608 107.142 23.4823 110.418C24.5996 117.431 27.5987 123.68 30.9063 129.832C31.1177 130.223 31.3169 130.744 32.1506 130.555C31.0018 128.97 30.4067 127.243 29.4944 125.671C28.3047 123.617 27.3885 121.432 26.5865 119.199C24.8654 114.411 24.1108 109.4 23.1421 104.439C21.515 96.123 21.3838 87.7586 22.7633 79.4141C23.5052 74.9346 24.9018 70.6482 28.0724 67.1632C31.5919 63.2978 35.4885 59.9099 40.0286 57.2708C40.8722 56.7801 41.4173 56.7523 42.1944 57.3868C47.1676 61.4409 52.6316 64.6768 58.486 67.3197C64.5382 70.0504 70.7088 72.5816 76.306 76.2204C80.0837 78.6769 83.803 81.1913 87.1623 84.2602C92.2032 88.8641 95.8243 94.1626 96.9893 101.012C97.248 102.53 97.3825 104.101 97.8114 105.696C98.511 105.223 98.3392 104.695 98.2938 104.227ZM62.1668 8.95135C62.4734 8.64338 62.85 8.87497 63.0392 8.91552C69.7246 11.2762 76.2378 13.7122 82.0015 17.6064C86.7156 20.7937 90.7672 24.7388 92.6642 30.3702C92.9115 31.0985 93.0443 31.8656 93.2014 32.6209C93.2564 32.8834 93.2538 33.191 92.9589 33.3421C92.6665 33.4916 92.4423 33.3009 92.2301 33.1237C88.3769 29.9131 83.8641 27.8295 79.4162 25.6399C76.4324 24.1731 73.309 22.8472 70.7115 20.8145C67.039 17.94 63.3787 14.8871 62.2167 9.97133C62.1344 9.62944 61.8517 9.26818 62.1668 8.95135ZM39.3634 56.8663C33.7979 59.9421 29.5107 64.4682 25.5642 69.3278C24.34 70.836 23.5837 72.687 23.0548 74.6001C22.4922 76.6436 22.1697 76.7928 20.1647 76.241C16.5732 75.2513 14.105 72.2736 13.6117 68.6446C12.6148 61.2982 14.6857 54.8556 19.1878 49.1106C21.8825 45.6712 24.5582 42.2017 28.2003 39.655C28.2746 39.6028 28.3457 39.5456 28.4184 39.4909C30.3953 37.9995 30.5276 38.0057 30.8695 40.3482C31.4215 44.1563 33.091 47.4063 35.3193 50.4915C36.5832 52.2447 37.9698 53.8359 39.5693 55.2574C40.3551 55.9586 40.2449 56.3798 39.3634 56.8663ZM93.2442 89.2845C92.7535 88.5271 92.1417 87.8286 91.5102 87.1795C86.8098 82.3464 81.412 78.3495 75.6461 74.9614C70.8264 72.1275 65.7031 69.7789 60.602 67.4655C55.9818 65.3706 51.4469 63.1937 47.3139 60.2109C43.2902 57.3066 39.3493 54.4275 36.1634 50.4666C28.2799 40.658 30.3844 26.5435 40.6833 19.1134C41.1986 18.7404 41.767 18.4377 42.3283 18.1376C43.0857 17.7331 43.5546 17.9187 43.5884 18.8381C43.7237 22.3539 45.6691 24.8687 48.1681 27.0602C48.7761 27.594 49.3794 28.2346 50.3589 28.2876C50.2948 27.5597 49.6973 27.4851 49.3373 27.1991C46.8922 25.2461 44.9549 22.953 44.3237 19.7822C43.8855 17.5796 44.1372 15.4336 45.5422 13.6687C49.2073 9.06251 53.9772 7.07658 59.8682 7.98193C60.5786 8.09059 60.9946 8.3677 61.166 9.1263C62.3658 14.4472 66.1031 17.942 70.0683 21.2103C72.4359 23.163 75.3098 24.3335 78.0504 25.6462C83.6326 28.3204 89.9278 31.9702 95.0091 35.8892C95.1428 36.0703 97.5388 38.107 97.6377 38.194C102.176 42.2254 104.893 47.2142 105.759 53.2486C106.321 57.1581 106.434 61.089 105.847 64.957C104.961 70.7919 102.931 76.3257 100.513 81.6918C99.2148 84.5672 97.4573 87.1772 95.1621 89.4006C94.4066 90.131 93.8871 90.2745 93.2442 89.2845Z" fill="#3048EA"/>
<path d="M39.3636 56.8664C33.7981 59.9422 29.5109 64.4683 25.5644 69.3279C24.3402 70.8362 23.5839 72.6872 23.055 74.6003C22.4924 76.6437 22.1699 76.7929 20.1649 76.2411C16.5734 75.2514 14.1052 72.2737 13.6119 68.6448C12.615 61.2984 14.6859 54.8558 19.188 49.1108C21.8827 45.6714 24.5584 42.2018 28.2005 39.6552C28.2747 39.603 28.3459 39.5458 28.4186 39.491C30.3955 37.9997 30.5278 38.0058 30.8697 40.3483C31.4217 44.1565 33.0912 47.4065 35.3195 50.4917C36.5834 52.2448 37.97 53.836 39.5695 55.2575C40.3553 55.9587 40.2451 56.38 39.3636 56.8664Z" fill="#B9BCFF"/>
<path d="M92.9586 33.3423C92.6662 33.4918 92.442 33.3011 92.2298 33.1238C88.3766 29.9132 83.8638 27.8296 79.4159 25.64C76.4321 24.1732 73.3087 22.8473 70.7112 20.8147C67.0387 17.9401 63.3784 14.8873 62.2164 9.97148C62.1341 9.62959 61.8514 9.26833 62.1665 8.9515C62.4731 8.64353 62.8497 8.87512 63.0389 8.91567C69.7243 11.2763 76.2375 13.7124 82.0012 17.6065C86.7153 20.7938 90.7669 24.739 92.6639 30.3703C92.9112 31.0986 93.044 31.8657 93.2011 32.6211C93.2561 32.8835 93.2535 33.1912 92.9586 33.3423Z" fill="#B9BCFF"/>
<path d="M100.513 81.6919C99.2148 84.5673 97.4573 87.1772 95.1621 89.4007C94.4066 90.1311 93.8871 90.2746 93.2442 89.2846C92.7535 88.5272 92.1417 87.8286 91.5102 87.1796C86.8098 82.3465 81.412 78.3496 75.6461 74.9615C70.8264 72.1275 65.7031 69.779 60.602 67.4656C55.9818 65.3707 51.4469 63.1938 47.3139 60.2109C43.2902 57.3067 39.3493 54.4276 36.1634 50.4666C28.2799 40.6581 30.3844 26.5435 40.6834 19.1134C41.1986 18.7405 41.767 18.4377 42.3283 18.1377C43.0857 17.7332 43.5546 17.9188 43.5884 18.8381C43.7237 22.3539 45.6691 24.8687 48.1681 27.0602C48.7761 27.5941 49.3794 28.2346 50.3589 28.2876C50.2948 27.5597 49.6973 27.4852 49.3373 27.1992C46.8922 25.2462 44.9549 22.953 44.3237 19.7822C43.8855 17.5797 44.1372 15.4337 45.5422 13.6688C49.2073 9.06257 53.9772 7.07664 59.8682 7.98199C60.5786 8.09066 60.9946 8.36777 61.166 9.12636C62.3658 14.4473 66.1031 17.9421 70.0683 21.2104C72.4359 23.1631 75.3098 24.3335 78.0504 25.6463C83.6326 28.3204 89.9278 31.9703 95.0091 35.8893C95.1428 36.0703 97.5388 38.1071 97.6377 38.1941C102.176 42.2255 104.893 47.2142 105.759 53.2487C106.321 57.1581 106.434 61.0891 105.847 64.957C104.961 70.792 102.931 76.3257 100.513 81.6919Z" fill="#B9BCFF"/>
<path d="M52.5023 86.7564C52.5586 85.909 52.4697 84.7611 53.1209 83.739C54.0557 82.2752 55.4033 82.0916 56.6381 83.2872C58.5102 85.1027 58.8153 89.4883 57.2101 91.5285C56.2583 92.7379 55.041 92.7575 53.8525 91.5913C52.5567 90.32 52.5222 88.678 52.5023 86.7543L52.5023 86.7564Z" fill="#3048EA"/>
<path d="M33.5668 84.1876C33.685 83.2481 33.6117 82.0372 34.3441 81.0024C35.2589 79.7111 36.5869 79.5774 37.7014 80.6859C39.5501 82.5219 39.715 87.0871 38.0041 89.0711C37.0968 90.125 36.1938 90.1591 35.0571 89.1952C33.5469 87.9157 33.6252 86.1426 33.5648 84.1854L33.5668 84.1876Z" fill="#3048EA"/>
<path d="M56.2636 74.5191C58.1244 75.0125 59.5339 75.7768 60.5996 77.0994C61.2464 77.9007 60.9852 78.4086 60.0697 78.7019C58.2647 79.2794 54.8144 77.6254 54.0959 75.8531C53.7623 75.0299 54.1676 74.6192 54.8911 74.498C55.4129 74.4111 55.9661 74.5101 56.2636 74.5191Z" fill="#3048EA"/>
<path d="M33.0875 76.8096C31.9836 76.5819 31.6426 75.9251 32.0767 75.1955C32.923 73.7765 35.8418 72.7435 37.3998 73.356C37.8728 73.5425 38.5093 73.6733 38.5124 74.3853C38.5139 75.0279 38.193 75.5137 37.6343 75.8208C36.1559 76.6315 34.5153 76.662 33.0854 76.8091L33.0875 76.8096Z" fill="#3048EA"/>
<path d="M43.539 100.344C42.0496 100.096 40.8615 99.4208 40.0823 98.1176C39.9259 97.856 39.6107 97.5908 39.9645 97.2935C40.2197 97.0796 40.4816 97.2465 40.6827 97.4535C43.1835 100.01 46.0266 99.4359 48.9251 98.3595C49.1815 98.2644 49.4329 98.153 49.6911 98.069C50.0283 97.9598 50.4551 97.7307 50.6667 98.1492C50.8959 98.604 50.5274 98.9476 50.1503 99.1189C48.0404 100.082 45.9525 101.206 43.5349 100.343L43.539 100.344Z" fill="#3048EA"/>
<path d="M67.3366 90.1317C70.2889 90.8026 72.0244 93.4166 71.3819 96.2244C70.7431 99.0158 67.9356 100.854 65.1158 100.179C62.2489 99.4927 60.3899 96.9004 61.0817 93.8839C61.7698 90.8838 64.5998 89.2703 67.3371 90.1297L67.3366 90.1317Z" fill="#B9BCFF"/>
<path d="M29.4372 88.5771C32.3895 89.2479 34.125 91.8619 33.4825 94.6697C32.8437 97.4611 30.0362 99.2995 27.2164 98.6241C24.3495 97.938 22.4905 95.3457 23.1823 92.3292C23.8704 89.3291 26.7004 87.7156 29.4377 88.575L29.4372 88.5771Z" fill="#B9BCFF"/>
</svg>
