<svg width="141" height="36" viewBox="0 0 141 36" fill="none" xmlns="http://www.w3.org/2000/svg">
<path d="M23.2211 13.8289C22.5066 12.5124 21.5242 11.5101 20.2738 10.8219C19.0234 10.1337 17.5647 9.78962 15.8975 9.78962C14.0517 9.78962 12.4144 10.2085 10.9854 11.0463C9.55638 11.8841 8.43998 13.0809 7.63617 14.6367C6.83236 16.1926 6.43046 17.9878 6.43046 20.0224C6.43046 22.1169 6.83236 23.942 7.63617 25.4979C8.46975 27.0538 9.61592 28.2506 11.0747 29.0884C12.5334 29.9261 14.2304 30.345 16.1655 30.345C18.5471 30.345 20.4971 29.7167 22.0154 28.46C23.5337 27.1734 24.531 25.3932 25.0073 23.1192H14.2899V18.317H31.1699V23.7924C30.7531 25.9766 29.86 27.9963 28.4905 29.8513C27.1211 31.7064 25.3497 33.2024 23.1764 34.3394C21.033 35.4465 18.6215 36 15.9422 36C12.9353 36 10.2113 35.3268 7.77014 33.9804C5.35872 32.604 3.45339 30.7041 2.05417 28.2805C0.684725 25.8569 0 23.1043 0 20.0224C0 16.9406 0.684725 14.1879 2.05417 11.7644C3.45339 9.31089 5.35872 7.41094 7.77014 6.06452C10.2113 4.68817 12.9205 4 15.8975 4C19.4105 4 22.462 4.86769 25.052 6.60308C27.642 8.30855 29.4283 10.7172 30.4107 13.8289H23.2211Z" fill="#3048EA"/>
<path d="M42.0471 9.47545V17.3296H52.5412V22.3114H42.0471V30.6143H53.8809V35.7307H35.7952V4.35904H53.8809V9.47545H42.0471Z" fill="#3048EA"/>
<path d="M86.222 35.7307H79.9701L65.8142 14.2328V35.7307H59.5623V4.35904H65.8142L79.9701 25.9018V4.35904H86.222V35.7307Z" fill="#3048EA"/>
<path d="M129.166 9.47545V17.3296H139.66V22.3114H129.166V30.6143H141V35.7307H122.914V4.35904H141V9.47545H129.166Z" fill="#3048EA"/>
<path d="M104.781 33.9851C106.937 33.9156 108.655 33.4589 109.997 32.6381C111.465 31.7402 112.666 30.2965 113.48 28.0021L104.781 33.9851ZM104.781 33.9851L104.748 33.9533L103.889 33.9913C99.8787 34.1683 96.7267 31.6366 95.2766 27.7591C94.7184 26.2611 94.4478 24.7425 94.4214 23.1359L94.4213 23.1338C94.4162 22.8408 94.4588 22.7511 94.4627 22.7431L94.4627 22.743C94.4652 22.7378 94.4715 22.7247 94.4949 22.6988C94.5207 22.6703 94.576 22.6169 94.6842 22.5439L94.6862 22.5426C96.0579 21.6147 97.3253 20.5782 98.5129 19.6069C98.5618 19.5669 98.6106 19.527 98.6592 19.4872C99.9136 18.4617 101.088 17.5102 102.343 16.684L102.346 16.6823C102.386 16.6557 102.424 16.6304 102.46 16.6065C102.477 16.5953 102.494 16.5844 102.51 16.5738C102.54 16.6018 102.571 16.6312 102.604 16.6622C106.001 19.8564 109.857 22.4427 114.272 24.2324C114.131 25.5774 113.902 26.8092 113.48 28.0017L104.781 33.9851ZM114.722 24.4158C114.722 24.4158 114.721 24.4149 114.717 24.4129C114.721 24.4148 114.723 24.4158 114.722 24.4158ZM114.313 23.7623C114.313 23.757 114.313 23.7542 114.313 23.7541C114.313 23.7541 114.313 23.7567 114.313 23.7623ZM103.081 16.2141C103.081 16.2141 103.081 16.2145 103.079 16.2151C103.081 16.2144 103.081 16.2141 103.081 16.2141ZM102.008 16.1295C102.008 16.1295 102.009 16.1301 102.011 16.1315C102.009 16.1302 102.008 16.1295 102.008 16.1295Z" stroke="#3048EA" stroke-width="4"/>
<path d="M117.94 12.5071L116.173 13.4444C116.613 14.2739 116.786 15.2191 116.775 16.1746L116.775 16.2051L116.776 16.2355C116.801 17.5387 116.595 18.2756 116.104 18.8652L116.103 18.8664C116.032 18.9515 115.974 19.017 115.927 19.0672C115.858 19.0444 115.771 19.0126 115.662 18.9686L115.66 18.9678C112.932 17.8727 110.494 16.2622 108.19 14.3258L108.189 14.3251C105.079 11.7143 102.494 8.65095 100.325 5.22003C100.317 5.20705 100.311 5.19609 100.306 5.18714C100.328 5.14015 100.383 5.04222 100.521 4.89769L100.521 4.8977L100.526 4.89326C101.241 4.13932 102.227 3.75697 103.621 3.63991L103.621 3.63993L103.629 3.63927C103.653 3.63711 103.683 3.63504 103.717 3.63264C104.125 3.60422 105.189 3.53005 106.079 2.73087C106.638 2.23107 107.16 2.0441 107.67 2.00708C108.222 1.96713 108.896 2.09461 109.718 2.44935L109.719 2.44988C112.93 3.83289 114.44 6.42904 115.114 9.98065L115.114 9.98335C115.122 10.0266 115.131 10.0704 115.139 10.1149C115.318 11.0529 115.549 12.2716 116.174 13.4464L117.94 12.5071ZM117.94 12.5071C117.46 11.6052 117.278 10.6515 117.089 9.66153L117.079 9.60801L117.64 20.1456C118.574 19.0248 118.805 17.718 118.775 16.1961C118.788 14.9967 118.574 13.7023 117.94 12.5071Z" stroke="#3048EA" stroke-width="4"/>
<path d="M96.6143 9.05096C97.2889 10.3708 98.1993 11.557 98.9928 12.574C96.7794 14.2322 94.5822 15.9142 92.4056 17.6199C92.1972 17.1356 92.0782 16.5973 92.0001 16.0114C92.0095 14.6351 92.5294 13.1292 93.4436 11.8016C94.3148 10.5364 95.4546 9.56306 96.6143 9.05096ZM99.9377 11.8681C99.9415 11.8649 99.9435 11.8633 99.9436 11.8634C99.9437 11.8634 99.9418 11.865 99.9377 11.8681Z" fill="#3048EA" stroke="#3048EA" stroke-width="4"/>
</svg>
