<svg width="22" height="22" viewBox="0 0 22 22" fill="none" xmlns="http://www.w3.org/2000/svg">
<path d="M18.0944 18.0711C15.8228 20.3427 11.0054 22.3067 7.09562 19.8906C6.87804 19.7561 6.76925 19.6889 6.68699 19.6563C6.52971 19.594 6.41043 19.576 6.24178 19.589C6.15356 19.5958 6.05362 19.6217 5.85373 19.6736C4.59593 19.9996 3.96704 20.1626 3.51396 20.0704C2.72759 19.9103 2.11302 19.2958 1.95298 18.5094C1.86078 18.0563 2.02378 17.4274 2.34979 16.1696C2.40161 15.9697 2.42752 15.8697 2.43431 15.7812C2.44725 15.6126 2.42886 15.4919 2.36627 15.3347C2.33344 15.2523 2.2663 15.1442 2.13203 14.9282C-0.292444 11.0269 1.58389 6.29732 3.95228 3.92893C7.85752 0.023689 14.1892 0.023689 18.0944 3.92893C21.9997 7.83418 21.9997 14.1658 18.0944 18.0711Z" stroke="#C2C3CC" stroke-width="1.5"/>
<path d="M8.05273 10.8574C8.05273 11.4097 7.60502 11.8574 7.05273 11.8574C6.50045 11.8574 6.05273 11.4097 6.05273 10.8574C6.05273 10.3051 6.50045 9.85742 7.05273 9.85742C7.60502 9.85742 8.05273 10.3051 8.05273 10.8574Z" fill="#C2C3CC"/>
<path d="M12.0527 10.8574C12.0527 11.4097 11.605 11.8574 11.0527 11.8574C10.5004 11.8574 10.0527 11.4097 10.0527 10.8574C10.0527 10.3051 10.5004 9.85742 11.0527 9.85742C11.605 9.85742 12.0527 10.3051 12.0527 10.8574Z" fill="#C2C3CC"/>
<path d="M16.0527 10.8574C16.0527 11.4097 15.605 11.8574 15.0527 11.8574C14.5005 11.8574 14.0527 11.4097 14.0527 10.8574C14.0527 10.3051 14.5005 9.85742 15.0527 9.85742C15.605 9.85742 16.0527 10.3051 16.0527 10.8574Z" fill="#C2C3CC"/>
</svg>
