<svg width="25" height="24" viewBox="0 0 25 24" fill="none" xmlns="http://www.w3.org/2000/svg">
<path d="M15.9497 6C15.9497 7.79493 14.4946 9.25 12.6997 9.25V10.75C15.3231 10.75 17.4497 8.62335 17.4497 6H15.9497ZM12.6997 9.25C10.9048 9.25 9.44971 7.79493 9.44971 6H7.94971C7.94971 8.62335 10.0764 10.75 12.6997 10.75V9.25ZM9.44971 6C9.44971 4.20507 10.9048 2.75 12.6997 2.75V1.25C10.0764 1.25 7.94971 3.37665 7.94971 6H9.44971ZM12.6997 2.75C14.4946 2.75 15.9497 4.20507 15.9497 6H17.4497C17.4497 3.37665 15.3231 1.25 12.6997 1.25V2.75ZM9.69971 13.75H15.6997V12.25H9.69971V13.75ZM15.6997 20.25H9.69971V21.75H15.6997V20.25ZM9.69971 20.25C7.90478 20.25 6.44971 18.7949 6.44971 17H4.94971C4.94971 19.6234 7.07635 21.75 9.69971 21.75V20.25ZM18.9497 17C18.9497 18.7949 17.4946 20.25 15.6997 20.25V21.75C18.3231 21.75 20.4497 19.6234 20.4497 17H18.9497ZM15.6997 13.75C17.4946 13.75 18.9497 15.2051 18.9497 17H20.4497C20.4497 14.3766 18.3231 12.25 15.6997 12.25V13.75ZM9.69971 12.25C7.07635 12.25 4.94971 14.3766 4.94971 17H6.44971C6.44971 15.2051 7.90478 13.75 9.69971 13.75V12.25Z" fill="#C2C3CC"/>
</svg>
