<svg width="25" height="24" viewBox="0 0 25 24" fill="none" xmlns="http://www.w3.org/2000/svg">
<path d="M22.8999 10.5V12C22.8999 16.714 22.8999 19.0711 21.4354 20.5355C19.971 22 17.6139 22 12.8999 22C8.18586 22 5.82883 22 4.36437 20.5355C2.8999 19.0711 2.8999 16.714 2.8999 12C2.8999 7.28595 2.8999 4.92893 4.36437 3.46447C5.82883 2 8.18586 2 12.8999 2H14.3999" stroke="#C2C3CC" stroke-width="1.5" stroke-linecap="round"/>
<path d="M18.2008 2.80624L17.5519 3.45506L11.5871 9.41993C11.1831 9.82394 10.9811 10.0259 10.8073 10.2487C10.6024 10.5114 10.4267 10.7957 10.2833 11.0965C10.1618 11.3515 10.0715 11.6225 9.89079 12.1646L9.31232 13.9L8.93802 15.0229C8.8491 15.2897 8.91853 15.5837 9.11734 15.7826C9.31616 15.9814 9.61025 16.0508 9.87699 15.9619L10.9999 15.5876L12.7353 15.0091C13.2774 14.8284 13.5484 14.7381 13.8034 14.6166C14.1042 14.4732 14.3885 14.2975 14.6512 14.0926C14.874 13.9188 15.076 13.7168 15.48 13.3128L21.4448 7.34795L22.0937 6.69914C23.1687 5.62415 23.1687 3.88124 22.0937 2.80624C21.0187 1.73125 19.2758 1.73125 18.2008 2.80624Z" stroke="#C2C3CC" stroke-width="1.5"/>
<path d="M17.5521 3.45508C17.5521 3.45508 17.6332 4.83381 18.8498 6.05034C20.0663 7.26687 21.445 7.34797 21.445 7.34797M11.0001 15.5876L9.3125 13.9" stroke="#C2C3CC" stroke-width="1.5"/>
</svg>
