<svg width="17" height="16" viewBox="0 0 17 16" fill="none" xmlns="http://www.w3.org/2000/svg">
<path d="M11.8861 8.46731C11.5919 8.75889 11.5898 9.23376 11.8814 9.52796C12.173 9.82215 12.6478 9.82427 12.942 9.53269L11.8861 8.46731ZM13.8244 7.60215L14.3524 8.13484L13.8244 7.60215ZM13.8244 2.39785L14.3524 1.86516V1.86516L13.8244 2.39785ZM12.942 0.467309C12.6478 0.175726 12.173 0.177844 11.8814 0.472041C11.5898 0.766238 11.5919 1.24111 11.8861 1.53269L12.942 0.467309ZM15.5982 5.25067L16.3421 5.3455L16.3421 5.34549L15.5982 5.25067ZM15.5982 4.74933L16.3421 4.65451L16.3421 4.6545L15.5982 4.74933ZM14 15.75C14.4142 15.75 14.75 15.4142 14.75 15C14.75 14.5858 14.4142 14.25 14 14.25V15.75ZM12.942 9.53269L14.3524 8.13484L13.2965 7.06946L11.8861 8.46731L12.942 9.53269ZM14.3524 1.86516L12.942 0.467309L11.8861 1.53269L13.2965 2.93054L14.3524 1.86516ZM14.3524 8.13484C14.9022 7.58988 15.3604 7.13735 15.6854 6.73276C16.0198 6.31633 16.2742 5.87869 16.3421 5.3455L14.8542 5.15584C14.8355 5.302 14.7654 5.48272 14.5158 5.79351C14.2567 6.11614 13.8714 6.49967 13.2965 7.06946L14.3524 8.13484ZM13.2965 2.93054C13.8714 3.50033 14.2567 3.88386 14.5158 4.20649C14.7654 4.51728 14.8355 4.69801 14.8542 4.84416L16.3421 4.6545C16.2742 4.12131 16.0198 3.68366 15.6854 3.26724C15.3604 2.86265 14.9022 2.41011 14.3524 1.86516L13.2965 2.93054ZM15 4.25H6V5.75H15V4.25ZM6 15.75H14V14.25H6V15.75ZM0.25 10C0.25 13.1756 2.82436 15.75 6 15.75V14.25C3.65279 14.25 1.75 12.3472 1.75 10H0.25ZM6 4.25C2.82436 4.25 0.25 6.82436 0.25 10H1.75C1.75 7.65279 3.65279 5.75 6 5.75V4.25ZM16.3421 5.34549C16.3568 5.23079 16.3641 5.1154 16.3641 5L14.8641 5C14.8641 5.05205 14.8608 5.10409 14.8542 5.15584L16.3421 5.34549ZM16.3641 5C16.3641 4.88461 16.3568 4.76921 16.3421 4.65451L14.8542 4.84416C14.8608 4.89591 14.8641 4.94795 14.8641 5L16.3641 5ZM15 5.75H15.6141V4.25H15V5.75Z" fill="#717275"/>
</svg>
