<svg width="281" height="302" viewBox="0 0 281 302" fill="none" xmlns="http://www.w3.org/2000/svg">
<path d="M280 114.691L280 52.0045C280 47.5862 276.418 44.0045 272 44.0045L236 44.0045" stroke="#3048EA" stroke-width="2" stroke-linecap="round"/>
<path d="M1 114.691L0.999994 52.0045C0.999994 47.5862 4.58172 44.0045 8.99999 44.0045L45 44.0045" stroke="#3048EA" stroke-width="2" stroke-linecap="round"/>
<path d="M1 192.347L0.999986 284.901C0.999985 289.32 4.58171 292.901 8.99998 292.901L45 292.901" stroke="#3048EA" stroke-width="2" stroke-linecap="round"/>
<path d="M280 192.347L280 284.901C280 289.32 276.418 292.901 272 292.901L236 292.901" stroke="#3048EA" stroke-width="2" stroke-linecap="round"/>
<path d="M200.456 209.122C210.565 209.519 217.871 216.787 217.488 226.071C217.108 235.292 209.018 242.767 199.346 242.285C189.509 241.792 181.815 234.66 182.228 224.696C182.638 214.785 190.942 208.004 200.46 209.127L200.456 209.122Z" fill="#BBC1FB" fill-opacity="0.6"/>
<path d="M75.7039 209.498C85.8133 209.894 93.1186 217.163 92.7364 226.447C92.3565 235.668 84.2662 243.143 74.5944 242.661C64.7568 242.168 57.0626 235.036 57.4756 225.072C57.8864 215.161 66.1905 208.38 75.7083 209.503L75.7039 209.498Z" fill="#BBC1FB" fill-opacity="0.6"/>
<path d="M230.997 199.271C228.74 258.37 195.768 298.414 134.433 296.238C85.6402 294.506 43.2869 251.349 45.5441 192.25C47.8012 133.152 91.1436 86.8157 142.357 88.7544C193.571 90.6932 233.254 140.172 230.997 199.271Z" stroke="#3048EA" stroke-width="2" stroke-miterlimit="10" stroke-linejoin="round"/>
<path d="M118.189 234.375C121.664 236.124 129.211 239.722 136.473 240.384C147.937 241.429 154.837 236.504 158.7 234.638" stroke="#3048EA" stroke-width="4" stroke-miterlimit="10" stroke-linecap="round" stroke-linejoin="round"/>
<path d="M80.4947 56.2077C68.8299 57.0176 49.2602 74.2994 41.3269 82.156C20.5267 102.754 13.1555 128.101 11.9311 143.092C11.4082 156.506 15.0723 165.455 20.7864 173.723C25.553 180.372 38.9823 189.108 45.5479 192.286C53.1324 154.196 80.6463 134.514 111.926 115.102C90.7547 98.4744 82.2833 66.0859 80.4949 56.2027L80.4947 56.2077Z" fill="#FCF0F0" stroke="#3048EA" stroke-width="2" stroke-miterlimit="10" stroke-linejoin="round"/>
<path d="M117.407 197.177C117.438 200.49 116.655 203.469 115.389 205.607C114.118 207.754 112.414 208.976 110.612 208.987C108.81 208.997 107.083 207.794 105.771 205.662C104.465 203.539 103.625 200.569 103.594 197.256C103.562 193.944 104.346 190.964 105.611 188.827C106.883 186.68 108.587 185.457 110.389 185.447C112.191 185.437 113.918 186.639 115.229 188.772C116.535 190.894 117.375 193.865 117.407 197.177Z" fill="#3048EA" stroke="#3048EA" stroke-linejoin="round"/>
<path d="M174.761 196.927C174.792 200.24 174.009 203.219 172.743 205.357C171.472 207.504 169.768 208.726 167.966 208.737C166.164 208.747 164.437 207.544 163.125 205.412C161.819 203.289 160.98 200.319 160.948 197.006C160.917 193.694 161.7 190.714 162.966 188.577C164.237 186.43 165.941 185.207 167.743 185.197C169.545 185.187 171.272 186.389 172.584 188.522C173.89 190.644 174.73 193.615 174.761 196.927Z" fill="#3048EA" stroke="#3048EA" stroke-linejoin="round"/>
<path d="M101.841 176.163C107.12 173.252 110.101 168.693 108.5 165.981C106.898 163.268 101.321 163.43 96.0423 166.341C90.7636 169.252 87.7824 173.811 89.3837 176.523C90.9849 179.236 96.5622 179.075 101.841 176.163Z" fill="#3048EA"/>
<path d="M183.727 174.211C185.194 171.434 182.005 166.984 176.603 164.272C171.201 161.56 165.633 161.613 164.166 164.39C162.698 167.167 165.888 171.617 171.289 174.329C176.691 177.041 182.259 176.988 183.727 174.211Z" fill="#3048EA"/>
<path d="M116.54 23.6676C111.159 22.7753 94.0181 25.6043 81.2355 34.6243C67.3019 44.4601 68.4019 57.6393 68.986 64.5066C72.073 100.727 143.219 138.199 173.22 136.642C203.222 135.085 232.89 175.927 231.534 185.219C281.76 157.136 268.713 104.363 242.27 87.4201C224.336 75.9306 230.464 64.8599 207.031 35.7326C204.983 33.1925 191.1 15.9711 160.927 7.91329C152.622 5.69409 143.61 4.77495 134.582 8.79061C126.935 12.1951 118.774 18.7112 116.535 23.6624L116.54 23.6676Z" fill="#FCF0F0" stroke="#3048EA" stroke-width="2" stroke-miterlimit="10" stroke-linejoin="round"/>
<path d="M116.743 23.6748L117.934 33.2388C117.942 33.2994 117.95 33.3651 117.958 33.4257C119.156 42.799 124.405 51.2803 132.333 56.9229L138.116 61.0418" stroke="#3048EA" stroke-width="2" stroke-miterlimit="10" stroke-linecap="round" stroke-linejoin="round"/>
<path d="M165.658 9.18329C163.934 17.7122 165.241 26.5569 169.558 34.3847C173.889 42.2433 180.361 49.3988 188.445 56.0323C188.445 56.0323 200.518 67.4333 209.519 72.9557C220.439 79.6549 239.79 85.6471 239.79 85.6471" stroke="#3048EA" stroke-width="2" stroke-miterlimit="10" stroke-linecap="round" stroke-linejoin="round"/>
</svg>
