<svg width="12" height="18" viewBox="0 0 12 18" fill="none" xmlns="http://www.w3.org/2000/svg">
<path d="M5.25 17C5.25 17.4142 5.58579 17.75 6 17.75C6.41421 17.75 6.75 17.4142 6.75 17H5.25ZM6.75 1C6.75 0.585787 6.41421 0.25 6 0.25C5.58579 0.25 5.25 0.585787 5.25 1L6.75 1ZM0.467309 4.47204C0.175726 4.76624 0.177844 5.24111 0.472041 5.53269C0.766238 5.82427 1.24111 5.82216 1.53269 5.52796L0.467309 4.47204ZM2.74731 3.23703L2.21462 2.70907L2.74731 3.23703ZM9.25269 3.23703L8.72 3.76499L9.25269 3.23703ZM10.4673 5.52796C10.7589 5.82216 11.2338 5.82428 11.528 5.53269C11.8222 5.24111 11.8243 4.76624 11.5327 4.47204L10.4673 5.52796ZM5.68667 1.01989L5.59184 0.275909L5.59184 0.275909L5.68667 1.01989ZM6.31333 1.01989L6.40816 0.275909L6.40816 0.275909L6.31333 1.01989ZM6.75 17L6.75 1L5.25 1L5.25 17H6.75ZM1.53269 5.52796L3.28 3.76499L2.21462 2.70907L0.467309 4.47204L1.53269 5.52796ZM8.72 3.76499L10.4673 5.52796L11.5327 4.47204L9.78538 2.70907L8.72 3.76499ZM3.28 3.76499C3.98914 3.0495 4.47718 2.55869 4.89071 2.22659C5.2924 1.904 5.55042 1.79332 5.7815 1.76387L5.59184 0.275909C4.97372 0.354695 4.45878 0.649627 3.95146 1.05706C3.45597 1.45498 2.89892 2.01863 2.21462 2.70907L3.28 3.76499ZM9.78538 2.70907C9.10108 2.01863 8.54403 1.45498 8.04854 1.05706C7.54122 0.649628 7.02628 0.354695 6.40816 0.275909L6.2185 1.76387C6.44958 1.79332 6.7076 1.904 7.10929 2.22659C7.52282 2.55869 8.01086 3.0495 8.72 3.76499L9.78538 2.70907ZM5.7815 1.76387C5.92659 1.74538 6.07341 1.74538 6.2185 1.76387L6.40816 0.275909C6.13714 0.241364 5.86286 0.241364 5.59184 0.275909L5.7815 1.76387Z" fill="#FFFEFE"/>
</svg>
