<svg width="120" height="120" viewBox="0 0 120 120" fill="none" xmlns="http://www.w3.org/2000/svg">
<path fill-rule="evenodd" clip-rule="evenodd" d="M60 120C93.1371 120 120 93.1371 120 60C120 26.8629 93.1371 0 60 0C26.8629 0 0 26.8629 0 60C0 72.6963 3.94347 84.4715 10.6724 94.1677L3.29806 115.553C2.72306 117.221 4.43119 118.762 6.03103 118.019L25.4014 109.026C35.1787 115.938 47.115 120 60 120Z" fill="#FCF0F0"/>
<mask id="mask0_651_27211" style="mask-type:alpha" maskUnits="userSpaceOnUse" x="0" y="0" width="120" height="120">
<path fill-rule="evenodd" clip-rule="evenodd" d="M60 120C93.1371 120 120 93.1371 120 60C120 26.8629 93.1371 0 60 0C26.8629 0 0 26.8629 0 60C0 72.6963 3.94347 84.4715 10.6724 94.1677L3.29806 115.553C2.72306 117.221 4.43119 118.762 6.03103 118.019L25.4014 109.026C35.1787 115.938 47.115 120 60 120Z" fill="#3048EA"/>
</mask>
<g mask="url(#mask0_651_27211)">
<path d="M99.7681 76.8463C100.24 76.6181 100.562 76.0692 100.926 75.6429C103.932 72.1338 105.271 67.9013 105.064 63.4535C104.76 56.9864 103.432 50.6764 99.6841 45.1586C98.3041 43.1263 97.2471 40.9584 96.8273 38.53C95.7142 32.0865 92.7692 26.4956 89.1352 21.1436C83.5378 12.9004 76.2461 7.57211 66.0739 6.62056C60.8188 6.12755 55.6111 8.80353 53.2623 13.5376C52.9372 14.1921 52.5174 14.3363 51.8436 14.388C45.441 14.8746 40.4529 17.8778 36.7328 23.0468C36.0482 23.9962 35.6219 25.0769 35.4045 26.2545C35.004 28.4332 34.8641 30.6054 35.3399 32.7841C35.5573 33.7873 35.2602 34.4138 34.1924 34.6011C32.6962 34.868 31.4475 35.7356 30.1494 36.4288C27.8501 37.6538 25.5746 38.9843 23.8415 40.98C20.9869 44.263 18.5757 47.854 16.6252 51.755C12.5262 59.9422 12.0655 68.3986 15.0429 76.9777C16.4659 81.0831 19.0256 84.4545 23.1139 86.3878C23.6435 86.6375 23.9233 86.9454 23.8652 87.5632C23.5746 90.6547 24.1472 93.6902 24.4013 96.7559C24.9976 103.953 27.8695 110.351 31.0191 116.659C34.2548 123.139 39.3894 127.914 45.2559 131.974C47.2107 133.328 49.5228 133.664 51.7855 134.062C51.413 133.391 50.8081 133.326 50.2246 133.214C48.3689 132.859 46.6294 132.211 45.0815 131.115C42.6789 129.419 40.4636 127.486 38.3216 125.486C32.9007 120.429 30.0977 113.793 27.5014 107.066C26.7285 105.068 26.1903 102.98 25.9126 100.836C25.3593 96.5879 24.5261 92.3705 24.8275 88.039C25.0105 85.4319 24.9373 82.7839 26.0116 80.3383C27.4217 77.1219 29.2473 74.179 31.5509 71.4729C34.5799 67.912 38.1257 65.0165 41.947 62.3986C44.9093 60.3685 47.7855 58.2199 51.202 56.9304C52.4162 56.4718 53.3549 56.5149 54.4657 57.1693C59.5465 60.1661 64.8963 62.5278 70.5669 64.2436C74.9328 65.5633 79.2557 67.0724 83.4603 68.8765C87.5377 70.6289 91.5894 72.4222 95.1007 75.2231C96.5474 76.377 97.5592 77.7398 97.8434 79.6149C97.9898 80.5794 98.2525 81.5288 98.4979 82.476C99.669 86.9906 99.8843 91.6278 99.7121 96.2219C99.5011 101.923 98.3106 107.518 96.373 112.909C94.1556 119.077 90.2869 124.067 85.2816 128.246C84.2611 129.096 82.8618 129.382 81.992 130.467C82.3666 130.782 82.5862 130.523 82.8273 130.42C85.5356 129.238 87.6626 127.363 89.5463 125.098C92.4548 121.602 95.2126 118.039 96.7842 113.701C98.0931 110.088 98.8725 106.355 99.5894 102.59C100.997 95.2037 100.459 87.9206 98.6723 80.6913C98.2826 79.1111 97.9166 77.7505 99.7681 76.8463ZM72.9974 8.89826C79.2213 10.9112 83.7315 15.0705 87.4732 20.2631C90.1771 24.0155 92.8746 27.7572 94.4419 32.1684C95.3741 34.7948 96.0135 37.4751 96.0932 40.6054C93.9941 38.7539 92.0867 37.1414 90.274 35.4299C89.7746 34.9563 89.3548 34.3836 88.7713 33.994C83.5248 30.4805 79.6756 25.5871 75.9425 20.6506C73.9619 18.0285 72.5195 14.9951 71.428 11.852C71.2472 11.3331 71.1718 10.7562 71.1697 10.205C71.1654 8.82076 71.7057 8.4806 72.9974 8.89826ZM49.7596 56.3879C45.6197 59.0165 41.5487 61.7442 37.6391 64.7C32.4594 68.6203 28.4809 73.5783 25.5164 79.3307C24.7027 80.9066 24.5391 82.7322 24.1558 84.4588C23.8286 85.927 23.693 86.039 22.3754 85.2424C19.383 83.4362 17.5294 80.6806 15.9966 77.6343C14.2162 74.0929 13.876 70.3254 14.1042 66.3534C13.9492 58.3491 17.0106 51.3954 21.6327 44.924C23.7188 42.0047 26.2656 39.6796 29.2839 37.8669C30.9481 36.8702 32.7952 36.1813 34.7091 35.7098C35.5875 35.4924 36.0245 35.7787 36.2699 36.5774C37.1181 39.3244 38.6445 41.7313 40.0352 44.2135C42.4163 48.4632 45.8415 51.6947 49.7769 54.4524C51.1461 55.4105 51.1977 55.4772 49.7596 56.3879ZM97.6712 76.3404C92.7885 72.2586 87.2622 69.3437 81.3139 67.0854C74.4355 64.474 67.2192 62.8119 60.5863 59.5138C56.6982 57.5805 52.7478 55.7377 49.2537 53.1521C45.68 50.5063 42.6552 47.3352 40.3991 43.389C38.3818 39.8648 36.7198 36.276 36.046 32.2609C35.3442 28.0844 36.0116 24.3772 39.144 21.1802C42.455 17.8046 46.3388 15.7917 50.9717 15.1114C52.1536 14.9391 52.5906 15.2901 52.5842 16.6033C52.5562 22.1921 55.5874 26.1361 59.7574 29.4084C59.9684 29.5742 60.2569 29.8131 60.4873 29.5354C60.8166 29.1415 60.3904 28.9477 60.1449 28.7841C57.9555 27.3158 56.5109 25.1845 55.0319 23.0855C52.991 20.1878 52.8253 15.0403 54.6617 12.3041C56.4679 9.61085 61.1266 7.16522 64.653 7.20397C66.0545 7.31807 67.723 7.46016 69.3613 7.88857C70.1169 8.08663 70.4829 8.42894 70.3688 9.25348C70.1492 10.8337 70.5906 12.2847 71.2256 13.7271C73.8801 19.7529 77.7509 24.9197 82.4958 29.4149C86.6551 33.3567 91.0146 37.0855 95.2256 40.9713C100.054 45.4299 102.438 51.1522 103.701 57.4858C104.347 60.728 104.655 63.9142 104.065 67.1952C103.432 70.7151 101.893 73.714 99.4064 76.2586C98.8294 76.8528 98.4096 76.9561 97.6712 76.3404Z" fill="#3048EA"/>
<path d="M49.7603 56.388C45.6204 59.0166 41.5494 61.7443 37.6398 64.7002C32.4601 68.6205 28.4816 73.5785 25.5171 79.3309C24.7034 80.9068 24.5398 82.7324 24.1565 84.459C23.8293 85.9272 23.6937 86.0392 22.3761 85.2426C19.3837 83.4364 17.5301 80.6807 15.9973 77.6345C14.2169 74.093 13.8767 70.3255 14.1049 66.3535C13.9499 58.3493 17.0113 51.3956 21.6334 44.9241C23.7195 42.0049 26.2663 39.6798 29.2846 37.8671C30.9488 36.8703 32.7959 36.1814 34.7098 35.71C35.5882 35.4925 36.0252 35.7788 36.2706 36.5775C37.1188 39.3246 38.6452 41.7315 40.0359 44.2137C42.417 48.4634 45.8422 51.6948 49.7776 54.4526C51.1468 55.4106 51.1984 55.4774 49.7603 56.388Z" fill="#B9BCFF"/>
<path d="M96.0934 40.6056C93.9944 38.7542 92.087 37.1417 90.2743 35.4302C89.7748 34.9565 89.355 34.3839 88.7716 33.9942C83.5251 30.4808 79.6758 25.5874 75.9428 20.6509C73.9622 18.0287 72.5198 14.9954 71.4283 11.8522C71.2475 11.3334 71.1721 10.7564 71.1699 10.2053C71.1656 8.82101 71.706 8.48086 72.9977 8.89852C79.2216 10.9114 83.7318 15.0707 87.4734 20.2634C90.1774 24.0158 92.8749 27.7574 94.4422 32.1686C95.3744 34.7951 96.0138 37.4754 96.0934 40.6056Z" fill="#B9BCFF"/>
<path d="M104.066 67.1948C103.433 70.7147 101.894 73.7136 99.4071 76.2582C98.8301 76.8524 98.4103 76.9558 97.6719 76.34C92.7892 72.2582 87.2629 69.3433 81.3146 67.085C74.4362 64.4736 67.2199 62.8116 60.587 59.5134C56.6989 57.5801 52.7485 55.7373 49.2544 53.1518C45.6807 50.5059 42.6559 47.3348 40.3998 43.3886C38.3825 39.8644 36.7205 36.2756 36.0467 32.2605C35.3449 28.084 36.0123 24.3768 39.1446 21.1798C42.4557 17.8042 46.3394 15.7913 50.9724 15.111C52.1543 14.9387 52.5913 15.2897 52.5848 16.6029C52.5569 22.1917 55.5881 26.1357 59.7581 29.408C59.9691 29.5738 60.2576 29.8128 60.4879 29.535C60.8173 29.1411 60.3911 28.9473 60.1456 28.7837C57.9562 27.3155 56.5116 25.1841 55.0326 23.0851C52.9917 20.1874 52.826 15.0399 54.6623 12.3037C56.4686 9.61046 61.1273 7.16483 64.6537 7.20358C66.0552 7.31768 67.7236 7.45977 69.362 7.88818C70.1176 8.08624 70.4836 8.42855 70.3695 9.25309C70.1499 10.8333 70.5912 12.2843 71.2263 13.7267C73.8808 19.7525 77.7516 24.9193 82.4965 29.4145C86.6558 33.3563 91.0153 37.0851 95.2262 40.971C100.055 45.4295 102.438 51.1518 103.702 57.4854C104.348 60.7276 104.656 63.9138 104.066 67.1948Z" fill="#B9BCFF"/>
<path d="M72.0678 81.4242C71.3143 80.7396 70.677 80.7805 69.8654 81.3747C68.4058 82.4468 68.085 83.9065 68.1819 85.4543C68.1324 87.4414 68.5371 89.168 69.831 90.6061C71.0947 92.0119 72.494 91.8892 73.4542 90.2832C74.8126 88.0098 74.0462 83.2197 72.0678 81.4221V81.4242Z" fill="#3048EA"/>
<path d="M47.1638 84.4926C45.9001 86.7165 46.7268 91.2439 48.6966 92.8908C49.7106 93.7369 50.7375 93.6185 51.6029 92.6002C52.533 91.5087 52.4469 90.1912 52.4856 89.3989C52.533 87.3387 52.3005 85.8338 51.5104 84.4668C50.3392 82.4388 48.3155 82.4603 47.1616 84.4926H47.1638Z" fill="#3048EA"/>
<path d="M70.3475 100.376C70.1538 100.501 69.9686 100.639 69.7749 100.766C65.5488 103.517 61.0085 104.144 56.1646 102.811C55.7233 102.691 55.0839 102.049 54.8449 102.648C54.5457 103.395 55.4821 103.472 55.9687 103.748C56.0462 103.793 56.1474 103.799 56.2378 103.821C60.9697 104.934 65.467 104.488 69.6177 101.791C70.0935 101.481 70.6748 101.199 70.6511 100.374C70.4401 100.374 70.382 100.357 70.3497 100.376H70.3475Z" fill="#3048EA"/>
<path d="M87.6564 91.5989C90.7565 91.6033 93.0794 93.8228 93.0708 96.7722C93.0622 99.7044 90.6725 102.174 87.7038 102.135C84.6855 102.096 82.2442 99.9261 82.2549 96.7572C82.2657 93.6054 84.7285 91.3557 87.6564 91.5968V91.5989Z" fill="#B9BCFF"/>
<path d="M35.7853 95.1058C38.8854 95.1101 41.2083 97.3297 41.1997 100.279C41.1911 103.211 38.8014 105.681 35.8327 105.642C32.8144 105.603 30.3731 103.433 30.3838 100.264C30.3946 97.1122 32.8574 94.8625 35.7853 95.1036V95.1058Z" fill="#B9BCFF"/>
<path d="M44.7316 78.7757C46.6503 77.3254 47.6998 75.4803 47.0757 74.6545C46.4515 73.8287 44.3901 74.335 42.4713 75.7852C40.5525 77.2355 39.503 79.0806 40.1272 79.9064C40.7513 80.7321 42.8128 80.2259 44.7316 78.7757Z" fill="#3048EA"/>
<path d="M78.4169 77.0119C78.8964 75.995 77.4997 74.3288 75.2973 73.2904C73.0949 72.252 70.9208 72.2346 70.4414 73.2515C69.9619 74.2684 71.3586 75.9346 73.561 76.9729C75.7634 78.0113 77.9375 78.0288 78.4169 77.0119Z" fill="#3048EA"/>
</g>
</svg>
