<svg width="14" height="14" viewBox="0 0 14 14" fill="none" xmlns="http://www.w3.org/2000/svg">
<path d="M3.13362 12.3503L3.13253 12.3495C3.09702 12.3245 3.0756 12.2757 3.08916 12.2226L4.10667 8.51355L4.23787 8.03529L3.84917 7.72729L0.798046 5.30967L0.798081 5.30962L0.79085 5.30404C0.756953 5.27784 0.740717 5.23103 0.755402 5.18506C0.77275 5.13454 0.820499 5.09716 0.878233 5.0944L0.880301 5.09429L4.80468 4.89567L5.28911 4.87115L5.46545 4.41928L6.86246 0.839446C6.88621 0.784709 6.93825 0.75 6.99976 0.75C7.05809 0.75 7.11034 0.784792 7.13287 0.83849L8.53711 4.42119L8.71383 4.87206L9.19747 4.89654L13.121 5.09517L13.123 5.09526C13.1793 5.09797 13.2282 5.13419 13.2472 5.18731C13.2608 5.23173 13.246 5.27906 13.2091 5.30801L13.2091 5.308L13.2061 5.31034L10.1567 7.72447L9.76761 8.03253L9.89904 8.51112L10.9176 12.2197C10.9176 12.22 10.9177 12.2203 10.9178 12.2206C10.93 12.2674 10.9116 12.3179 10.8723 12.3457L10.8707 12.3468C10.823 12.3808 10.7554 12.3845 10.7005 12.3504C10.7002 12.3502 10.6999 12.35 10.6996 12.3498L7.40721 10.2516L7.00414 9.99477L6.60107 10.2516L3.30582 12.3516L3.30581 12.3516L3.30177 12.3542C3.2791 12.3689 3.25116 12.3775 3.22206 12.3776L3.20863 12.3777C3.18011 12.3749 3.1543 12.365 3.13362 12.3503Z" stroke="#3048EA" stroke-width="1.5"/>
</svg>
