<svg width="23" height="24" viewBox="0 0 23 24" fill="none" xmlns="http://www.w3.org/2000/svg">
<path d="M11.3053 5.807C12.6901 4.66654 13.3824 4.09631 14.0792 3.83113C15.536 3.27667 17.1754 3.50783 18.4222 4.44352C19.0184 4.89102 19.5261 5.63047 20.5415 7.10938C20.9359 7.68375 21.1331 7.97093 21.2809 8.27428C21.5868 8.90222 21.7439 9.59226 21.7398 10.2908C21.7378 10.6282 21.6843 10.9724 21.5774 11.6609L20.9079 15.9705C20.6651 17.5333 20.5437 18.3146 20.2508 18.9225C19.6024 20.2679 18.3343 21.2087 16.8587 21.4391C16.192 21.5431 15.409 21.4327 13.843 21.2119C12.2771 20.9911 11.4941 20.8807 10.8821 20.5963C9.52776 19.967 8.56923 18.7122 8.31821 17.24C8.20478 16.5747 8.30419 15.7903 8.50299 14.2214L9.05126 9.89462C9.13885 9.20343 9.18264 8.85783 9.27405 8.53301C9.46328 7.86061 9.805 7.2409 10.2727 6.72204C10.4986 6.4714 10.7675 6.24993 11.3053 5.807Z" fill="#3048EA" stroke="#3048EA" stroke-width="1.5"/>
<path d="M8.87182 1.87493C10.7548 1.28121 11.6963 0.984347 12.5166 1.00064C14.2319 1.0347 15.8099 1.94576 16.697 3.41418C17.1213 4.11646 17.3349 5.08025 17.7623 7.00783C17.9282 7.75645 18.0112 8.13076 18.0371 8.50123C18.0908 9.26813 17.9669 10.0371 17.6751 10.7483C17.5341 11.0919 17.3378 11.4212 16.9451 12.0798L14.4869 16.2027C13.5956 17.6976 13.1499 18.4451 12.6006 18.9449C11.3849 20.0511 9.70312 20.4891 8.10226 20.1165C7.37889 19.9481 6.62522 19.513 5.11788 18.6427C3.61054 17.7725 2.85687 17.3373 2.34938 16.7951C1.22628 15.595 0.764722 13.9196 1.1148 12.3136C1.27299 11.588 1.6975 10.8283 2.54651 9.30885L4.88793 5.11862C5.26197 4.44924 5.44899 4.11455 5.67605 3.82067C6.14608 3.21233 6.75007 2.72056 7.44106 2.3836C7.77486 2.22082 8.14052 2.10552 8.87182 1.87493Z" fill="#B9BCFF" stroke="#B9BCFF" stroke-width="1.5"/>
<path d="M9.3353 6.25021C8.64506 7.44574 9.05468 8.97446 10.2502 9.6647C11.4457 10.3549 12.9745 9.94532 13.6647 8.74979C14.3549 7.55426 13.9453 6.02554 12.7498 5.3353C11.5543 4.64506 10.0255 5.05468 9.3353 6.25021Z" fill="#3048EA"/>
</svg>
