<svg width="108" height="127" viewBox="0 0 108 127" fill="none" xmlns="http://www.w3.org/2000/svg">
<path d="M94.9811 81.5601C94.9811 106.028 80.7467 125.862 55.4288 125.862C30.1109 125.862 15.8765 106.028 15.8765 81.5601C15.8765 57.0922 33.5836 37.2578 55.4288 37.2578C77.2739 37.2578 94.9811 57.0922 94.9811 81.5601Z" fill="#FFFEFE" stroke="#3048EA" stroke-miterlimit="10"/>
<path d="M47.4299 101.156C48.9786 101.747 52.3327 102.942 55.4301 102.886C60.3194 102.797 63.004 100.348 64.5482 99.3613" stroke="#3048EA" stroke-miterlimit="10" stroke-linecap="round"/>
<path d="M28.5599 23.9319C23.6214 24.4743 15.5945 32.2857 12.3543 35.8211C3.86097 45.0898 1.14293 56.197 0.86622 62.7145C0.861757 68.5371 2.56221 72.3556 5.1218 75.8453C7.25294 78.6488 13.0952 82.2147 15.9337 83.4846C18.5357 66.8511 28.6134 58.9961 41.5766 50.0694C32.3201 43.2099 29.4815 28.1839 28.5621 23.9297L28.5599 23.9319Z" fill="#B9BCFF" stroke="#3048EA" stroke-miterlimit="10"/>
<path d="M42.2709 91.295C44.0068 91.2178 45.3029 88.7751 45.1658 85.8391C45.0287 82.9031 43.5103 80.5856 41.7743 80.6629C40.0384 80.7401 38.7423 83.1828 38.8794 86.1188C39.0165 89.0548 40.5349 91.3723 42.2709 91.295Z" fill="#3048EA"/>
<path d="M65.8031 90.2482C67.539 90.1709 68.8352 87.7282 68.6981 84.7922C68.561 81.8562 67.0425 79.5388 65.3066 79.616C63.5706 79.6932 62.2745 82.136 62.4116 85.0719C62.5487 88.0079 64.0671 90.3254 65.8031 90.2482Z" fill="#3048EA"/>
<path d="M38.1124 75.5584C40.389 74.3846 41.8673 72.7545 41.4143 71.9175C40.9614 71.0804 38.7487 71.3533 36.4722 72.5271C34.1956 73.7008 32.7173 75.3309 33.1702 76.168C33.6232 77.0051 35.8358 76.7321 38.1124 75.5584Z" fill="#3048EA"/>
<path d="M73.4275 75.5027C73.8443 74.7222 72.3315 73.1478 70.0485 71.986C67.7654 70.8243 65.5768 70.5153 65.16 71.2958C64.7432 72.0763 66.256 73.6507 68.539 74.8125C70.8221 75.9742 73.0107 76.2832 73.4275 75.5027Z" fill="#3048EA"/>
<path d="M43.3328 9.23784C41.0343 8.93941 33.8041 10.4468 28.5242 14.566C22.769 19.0576 23.4496 24.7517 23.8089 27.7186C27.2812 56.3524 90.5259 66.2529 94.7658 77.3709C115.631 64.3752 104.926 43.1214 93.4269 36.2118C85.6276 31.5263 92.3602 25.2223 81.941 12.9823C81.0306 11.915 74.8581 4.67864 61.9195 1.68129C58.3579 0.855712 54.5174 0.605207 50.7505 2.4938C47.5594 4.09485 44.2009 7.053 43.3306 9.23566L43.3328 9.23784Z" fill="#B9BCFF" stroke="#3048EA" stroke-miterlimit="10" stroke-linejoin="round"/>
<path d="M43.4199 9.23633L44.0805 13.362C44.0849 13.3882 44.0894 13.4165 44.0939 13.4426C44.7544 17.4856 47.1198 21.0754 50.5765 23.391L53.0982 25.0813" stroke="#3048EA" stroke-miterlimit="10" stroke-linecap="round" stroke-linejoin="round"/>
<path d="M63.9481 2.1543C63.3545 5.8792 64.053 9.69124 66.0123 13.0132C67.9783 16.3481 70.8414 19.3433 74.3806 22.0858L93.4247 36.2121" stroke="#3048EA" stroke-miterlimit="10" stroke-linejoin="round"/>
<path d="M30.4326 93.0938C34.2074 93.0989 37.0347 95.7552 37.0243 99.2874C37.014 102.796 34.1041 105.752 30.4912 105.708C26.8164 105.662 23.8461 103.063 23.8582 99.2721C23.8703 95.5011 26.8698 92.8058 30.4344 93.0955L30.4326 93.0938Z" fill="#B9BCFF"/>
<path d="M80.9197 93.3009C84.6945 93.306 87.5217 95.9623 87.5114 99.4944C87.5011 103.003 84.5911 105.959 80.9783 105.915C77.3034 105.869 74.3332 103.271 74.3453 99.4792C74.3573 95.7081 77.3568 93.0129 80.9214 93.3026L80.9197 93.3009Z" fill="#B9BCFF"/>
</svg>
