<svg width="42" height="47" viewBox="0 0 42 47" fill="none" xmlns="http://www.w3.org/2000/svg">
<path d="M19.3571 15.381C21.169 15.381 22.6436 13.9147 22.6436 12.1119C22.6436 10.309 21.1695 8.84277 19.3571 8.84277C17.5446 8.84277 16.0706 10.309 16.0706 12.1119C16.0706 13.9147 17.5446 15.381 19.3571 15.381ZM19.3571 9.91461C20.5752 9.91461 21.566 10.9002 21.566 12.1119C21.566 13.3236 20.5752 14.3091 19.3571 14.3091C18.1389 14.3091 17.1481 13.3236 17.1481 12.1119C17.1481 10.9002 18.1389 9.91461 19.3571 9.91461Z" fill="#3048EA"/>
<path d="M23.7292 33.3341H25.8223H32.3953C32.5451 33.3341 32.6884 33.2719 32.7902 33.1626C32.892 33.0533 32.9438 32.9059 32.9324 32.7575L32.016 20.7974C31.7709 18.181 29.6422 16.1311 27.1692 16.1311H25.8223C25.812 16.1311 25.804 16.1365 25.7937 16.137L25.4446 5.87634C25.3261 2.58098 22.6521 0 19.357 0C16.0613 0 13.3874 2.58098 13.2694 5.87688L12.9198 16.1472C12.8918 16.1435 12.867 16.1311 12.8379 16.1311H11.4909C9.01798 16.1311 6.88876 18.181 6.64362 20.8065L5.7277 32.7575C5.71639 32.9059 5.76757 33.0533 5.86994 33.1626C5.97177 33.2719 6.11508 33.3341 6.26486 33.3341H12.8918H14.9849C14.9558 33.4 14.9391 33.4718 14.9391 33.5485C14.9391 34.3014 15.0797 35.0281 15.3319 35.705C13.3869 35.7747 11.645 36.6343 10.4172 37.9741C9.98239 37.9285 9.5379 37.8894 9.12035 37.8894C4.3673 37.8894 0.5 41.7362 0.5 46.4641C0.5 46.7604 0.74137 47 1.03877 47C1.33617 47 1.57754 46.7604 1.57754 46.4641C1.57754 42.3268 4.96103 38.9612 9.12035 38.9612C9.28683 38.9612 9.46678 38.9736 9.64565 38.9848C8.97542 40.0529 8.58158 41.3096 8.58158 42.6591C8.58158 42.9554 8.82295 43.195 9.12035 43.195C9.41775 43.195 9.65912 42.9554 9.65912 42.6591C9.65912 39.4087 12.318 36.764 15.5856 36.764C15.6675 36.764 15.7429 36.7431 15.8124 36.7104C16.557 37.9569 17.7348 38.9344 19.1868 39.4157C19.1873 39.4157 19.1884 39.4157 19.1889 39.4162C19.2428 39.4339 19.2994 39.4436 19.357 39.4436C19.4147 39.4436 19.4712 39.4339 19.5251 39.4162C19.5262 39.4157 19.5267 39.4162 19.5278 39.4157C22.0687 38.5743 23.7755 36.2157 23.7755 33.5485C23.7749 33.4718 23.7582 33.4 23.7292 33.3341ZM14.3481 5.8951H24.3665C24.3665 5.90099 24.3676 5.90689 24.3681 5.91332L25.1537 28.9932H20.7153L20.9195 24.2235C20.9733 23.366 20.219 22.6157 19.2493 22.5621C18.3872 22.5621 17.6329 23.3124 17.6868 24.2235L17.891 28.9932H13.5609L14.3464 5.91439C14.3464 5.90796 14.3475 5.90153 14.3481 5.8951ZM27.1692 17.203C29.091 17.203 30.7493 18.8252 30.9422 20.8879L31.814 32.2623H26.3427L25.8298 17.203H27.1692ZM7.71739 20.897C7.91081 18.8257 9.56861 17.203 11.4909 17.203H12.8379C12.854 17.203 12.868 17.1949 12.8842 17.1939L12.3708 32.2623H6.84619L7.71739 20.897ZM19.357 38.3353C17.3522 37.592 16.0166 35.6927 16.0166 33.5485C16.0166 33.4718 15.9994 33.4 15.9708 33.3346H18.0769L18.1178 34.2987C18.1717 34.9418 18.6566 35.4242 19.3031 35.4242C19.9497 35.4242 20.4884 34.9418 20.4884 34.2987L20.5299 33.3341H22.7437C22.7146 33.4 22.6974 33.4718 22.6974 33.5485C22.6974 35.6927 21.3612 37.592 19.357 38.3353Z" fill="#3048EA"/>
<path d="M35.7356 39.4428C35.3116 39.4428 34.901 39.4884 34.5056 39.5709C33.4867 37.2316 31.1803 35.6914 28.6238 35.6914C25.0884 35.6914 22.2124 38.5527 22.2124 42.0688C22.2124 42.3652 22.4532 42.6047 22.7512 42.6047C23.0491 42.6047 23.2899 42.3652 23.2899 42.0688C23.2899 39.1433 25.6826 36.7632 28.6238 36.7632C30.7094 36.7632 32.594 38.0007 33.4663 39.8887C31.3931 40.7489 29.9707 42.7671 29.9707 45.1772C29.9707 45.4735 30.2115 45.7131 30.5095 45.7131C30.8074 45.7131 31.0483 45.4735 31.0483 45.1772C31.0483 42.5624 33.1069 40.5147 35.7356 40.5147C38.3637 40.5147 40.4224 42.5624 40.4224 45.1772C40.4224 45.4735 40.6632 45.7131 40.9611 45.7131C41.2591 45.7131 41.4999 45.4735 41.4999 45.1772C41.5004 41.9616 38.9682 39.4428 35.7356 39.4428Z" fill="#3048EA"/>
<path d="M34 10L34.6752 11.8248L36.5 12.5L34.6752 13.1752L34 15L33.3248 13.1752L31.5 12.5L33.3248 11.8248L34 10Z" fill="#B9BCFF"/>
<path d="M4.5 7L5.58036 9.91964L8.5 11L5.58036 12.0804L4.5 15L3.41964 12.0804L0.5 11L3.41964 9.91964L4.5 7Z" fill="#B9BCFF"/>
</svg>
