<svg width="45" height="51" viewBox="0 0 45 51" fill="none" xmlns="http://www.w3.org/2000/svg">
<path d="M44.4171 45.6726L37.019 33.767C36.9405 33.6408 36.8145 33.5505 36.6677 33.5167C36.5214 33.4818 36.3667 33.5073 36.2385 33.5848L34.9944 34.3429L32.7111 28.6963C32.2853 27.6741 32.5841 26.5046 33.4526 25.7881L38.0897 22.0165C38.6437 21.5508 38.8115 20.8165 38.5167 20.1454C38.2213 19.472 37.5515 19.0888 36.8094 19.1636C35.9324 19.2649 34.751 19.8015 33.8107 20.2644L37.7565 15.145C38.2721 14.5547 38.2716 13.63 37.7684 13.0546C37.4589 12.6753 36.9969 12.4582 36.5005 12.4582C36.5005 12.4582 36.5005 12.4582 36.5 12.4582C35.9708 12.4582 35.4738 12.6958 35.1356 13.1105L33.159 15.5398L35.131 10.8053C35.3242 10.3894 35.3225 9.94089 35.126 9.54274C34.9114 9.10694 34.4878 8.783 33.949 8.65176C33.1776 8.48342 32.3096 8.88101 31.9544 9.57873L30.058 13.8083L30.4268 11.1386C30.5341 10.7721 30.4827 10.3723 30.2816 10.0339C30.0614 9.6618 29.6852 9.39932 29.2617 9.31626C28.484 9.14515 27.6335 9.57597 27.3676 10.2715C27.3596 10.2925 27.3529 10.3141 27.3478 10.3357L26.181 15.0608L25.8055 13.3343C25.7688 12.6432 25.1639 12.0717 24.4524 12.0717C23.8357 12.0717 23.267 12.4776 23.0693 13.0596C23.049 13.1194 23.0394 13.182 23.0405 13.2445L23.1535 19.3358C23.1591 19.6381 23.411 19.8796 23.7182 19.8796C23.7216 19.8796 23.7255 19.8796 23.7289 19.8796C24.0407 19.874 24.2892 19.6215 24.2835 19.3158L24.1717 13.3453C24.2282 13.2556 24.3338 13.1792 24.4524 13.1792C24.5828 13.1792 24.6777 13.3116 24.6777 13.4007C24.6777 13.4395 24.6822 13.4782 24.6901 13.5159L25.5943 17.669C25.5999 17.6961 25.6174 17.7172 25.627 17.7426C25.6417 17.7814 25.6536 17.8202 25.6762 17.8545C25.6965 17.885 25.7242 17.9082 25.7501 17.9337C25.775 17.9586 25.797 17.9857 25.8264 18.0057C25.8614 18.0295 25.9015 18.0428 25.9416 18.0583C25.9664 18.0682 25.9868 18.0849 26.0133 18.091C26.019 18.0921 26.024 18.0915 26.0297 18.0926C26.041 18.0948 26.0517 18.0948 26.063 18.0965C26.0907 18.1004 26.1189 18.1065 26.1466 18.1065C26.1703 18.1065 26.1923 18.0982 26.2155 18.0948C26.2319 18.0926 26.2477 18.0976 26.264 18.0943C26.2748 18.0921 26.2827 18.0849 26.2929 18.0821C26.3392 18.0699 26.3815 18.05 26.4233 18.0267C26.4419 18.0162 26.4628 18.009 26.4798 17.9968C26.534 17.9581 26.582 17.911 26.6193 17.8551C26.6221 17.8512 26.6227 17.8462 26.6249 17.8418C26.6554 17.7936 26.6803 17.741 26.6949 17.6828L28.4349 10.6369C28.5134 10.4786 28.7726 10.3429 29.0285 10.3983C29.1459 10.4215 29.247 10.4908 29.3046 10.5888C29.3328 10.6364 29.3746 10.7333 29.3374 10.8435C29.3261 10.8762 29.3187 10.9099 29.3136 10.9443L28.4101 17.4785C28.4067 17.5051 28.4151 17.5295 28.4151 17.5555C28.392 17.7869 28.5134 18.0168 28.7427 18.1153C29.0296 18.2388 29.3617 18.1109 29.4865 17.8312L32.976 10.0483C33.0861 9.8318 33.4492 9.67509 33.6898 9.7288C33.8847 9.77642 34.0411 9.88662 34.1089 10.0239C34.158 10.1236 34.1557 10.2322 34.0942 10.3667L30.8187 18.2299C30.7763 18.3313 30.7769 18.4354 30.7955 18.5362C30.7481 18.7377 30.813 18.9565 30.9887 19.0943C31.2332 19.2859 31.5884 19.2461 31.7821 19.0069L36.0177 13.8022C36.138 13.6543 36.3187 13.5663 36.5 13.5663C36.609 13.5663 36.7643 13.5978 36.8981 13.7617C37.0551 13.9417 37.0551 14.2457 36.8767 14.4517L31.4546 21.4843C31.2965 21.6898 31.3032 21.9744 31.471 22.1721C31.6381 22.3698 31.9233 22.429 32.1577 22.3133L34.2839 21.2706C34.7425 21.0446 36.1368 20.3563 36.9337 20.2644C37.2912 20.2223 37.4408 20.4992 37.4787 20.5834C37.5543 20.7556 37.5611 21.0015 37.3612 21.1703L32.7275 24.9386C31.48 25.9691 31.0525 27.6475 31.6624 29.11L34.0185 34.9376L28.5179 38.2895L24.5512 31.1334C24.5433 31.119 24.5292 31.1101 24.5201 31.0968C25.6875 27.9881 27.0807 23.4828 27.4709 22.1593C27.6612 21.6012 27.4206 20.9926 26.8875 20.6786L26.6052 20.5125C24.951 19.5396 23.8758 21.1975 23.5149 21.7546L22.5616 23.3122L21.6812 12.1874C21.5982 11.2909 20.7234 10.6059 19.7187 10.6962C18.7355 10.8712 18.0883 11.7345 18.2396 12.6105L18.4 14.7502L16.7194 10.2366C16.5268 9.82128 16.1479 9.48958 15.6802 9.32733C15.1759 9.1529 14.6174 9.18502 14.165 9.40818C13.7285 9.60255 13.3942 9.97743 13.2479 10.437C13.1073 10.8784 13.153 11.3513 13.3716 11.7444L14.4926 15.0426L13.2874 13.2612C13.2739 13.2407 13.2581 13.2213 13.2417 13.203C12.6595 12.5501 11.6542 12.4416 10.9528 12.9583C10.2554 13.4716 10.1017 14.3532 10.5863 15.0254L12.254 18.0655C11.8688 17.7753 11.452 17.4929 11.0031 17.2371C9.98823 16.68 9.37831 16.8611 9.04455 17.1097C8.59558 17.4458 8.49618 18.0306 8.59219 18.442C8.67069 18.8407 9.12135 19.39 10.0204 20.3746C10.139 20.5042 10.2361 20.6105 10.2808 20.6631C11.94 22.7541 12.7814 24.7692 12.9311 27.0163C13.1141 29.0806 12.9221 31.4806 12.3692 34.148L11.504 33.5483C11.3786 33.4619 11.2228 33.4292 11.0725 33.4564C10.9217 33.4846 10.7896 33.5715 10.7054 33.6972L3.64619 44.2738C3.4779 44.5269 3.5468 44.8652 3.8015 45.0352L12.6114 50.905C12.7108 50.9687 12.821 51.0002 12.9311 51.0002C13.1016 51.0002 13.2705 50.9244 13.3812 50.7815L21.0617 40.8699C21.1543 40.7498 21.1932 40.5986 21.1701 40.4502C21.1464 40.3012 21.0628 40.1689 20.938 40.0825L20.0214 39.4474L23.3602 33.7781C23.5414 33.4697 23.7566 33.0067 23.9921 32.4413L27.5579 38.8748L26.2426 39.6761C25.9805 39.8361 25.8981 40.1728 26.0574 40.4325L30.8576 48.2403C30.9638 48.4131 31.1508 48.5078 31.3416 48.5078C31.441 48.5078 31.5415 48.4823 31.633 48.4281C31.9002 48.2702 31.986 47.9302 31.825 47.6678L27.3128 40.3278L36.3514 34.8202L43.4531 46.2491C43.6146 46.5104 43.9625 46.5935 44.229 46.4335C44.4956 46.2745 44.5797 45.934 44.4171 45.6726ZM22.3815 33.2249L19.0947 38.8056L13.3795 34.8463C14.0329 31.8821 14.2616 29.2152 14.0594 26.9315C13.8951 24.4651 12.9785 22.2574 11.1623 19.9682C11.1002 19.8951 10.994 19.7782 10.8636 19.6354C10.5987 19.3452 9.79283 18.4625 9.70642 18.2504C9.7036 18.2316 9.70021 18.2133 9.69513 18.1945C9.67762 18.1253 9.70247 18.0112 9.73184 17.9891C9.75894 17.9691 9.9758 17.9403 10.4445 18.1978C12.7255 19.4986 14.1989 21.6078 14.2136 21.6289C14.2193 21.6372 14.2289 21.641 14.2345 21.6493C14.2695 21.6953 14.3102 21.7346 14.3559 21.7667C14.365 21.7734 14.3729 21.7811 14.3825 21.7867C14.4373 21.8204 14.4971 21.8432 14.5598 21.8564C14.5739 21.8598 14.588 21.8598 14.6022 21.862C14.6287 21.8659 14.6547 21.8725 14.6812 21.8725C14.7106 21.8725 14.7405 21.8664 14.7699 21.862C14.7795 21.8603 14.7885 21.8603 14.7981 21.8587C14.8489 21.8481 14.8998 21.8321 14.9478 21.8066C14.9568 21.8016 14.9619 21.7933 14.9704 21.7878C14.9788 21.7828 14.9884 21.7828 14.9963 21.7773C15.0201 21.7618 15.0336 21.7385 15.0539 21.7202C15.0828 21.6942 15.1121 21.6704 15.1341 21.6399C15.155 21.6111 15.168 21.5801 15.1833 21.5486C15.1985 21.5159 15.2149 21.4849 15.2239 21.45C15.2324 21.4157 15.233 21.3813 15.2347 21.3464C15.2364 21.311 15.2397 21.2767 15.2347 21.2407C15.2296 21.2047 15.2149 21.1715 15.2025 21.1366C15.1929 21.11 15.1917 21.0823 15.1776 21.0568L11.5633 14.4672C11.5514 14.4434 11.5362 14.4202 11.5192 14.3975C11.3493 14.1748 11.4662 13.9655 11.6322 13.8437C11.8524 13.6826 12.1766 13.7136 12.372 13.909L15.8632 19.0705L15.8965 19.1691C15.9756 19.4011 16.1959 19.5479 16.4325 19.5479C16.4539 19.5479 16.4754 19.5401 16.4969 19.5373C16.6019 19.5362 16.7069 19.5163 16.8013 19.4554C17.061 19.2865 17.1322 18.9426 16.9599 18.6879L16.8877 18.581L14.4271 11.343C14.4141 11.3048 14.3966 11.2682 14.3757 11.2333C14.2938 11.0993 14.2763 10.9288 14.3283 10.7665C14.3576 10.6735 14.4367 10.504 14.653 10.4077C14.8523 10.3102 15.0895 10.2975 15.3053 10.3723C15.4854 10.4348 15.6272 10.5528 15.6769 10.6563L18.7265 18.8518C18.8332 19.1392 19.1574 19.287 19.4505 19.1824C19.6905 19.0966 19.826 18.8679 19.8119 18.6303C19.813 18.6082 19.8221 18.5888 19.8204 18.5661L19.3624 12.4798C19.3019 12.1243 19.6063 11.8436 19.8729 11.7937C20.0333 11.7788 20.2044 11.8292 20.3399 11.9311C20.4139 11.987 20.541 12.1071 20.5573 12.2816L21.5739 25.1285C21.5931 25.3689 21.7682 25.5693 22.0076 25.6247C22.2476 25.6801 22.495 25.5776 22.6215 25.3711L24.4772 22.3377C25.3164 21.0452 25.7089 21.2767 26.0257 21.4627L26.3081 21.6289C26.3527 21.6549 26.4301 21.7269 26.3945 21.831C25.6716 24.2785 23.3782 31.5282 22.3815 33.2249Z" fill="#3048EA"/>
<path d="M19.4501 7.42819C19.5562 7.60096 19.7432 7.69676 19.9346 7.69676C20.0334 7.69676 20.134 7.67129 20.2249 7.61757C20.4926 7.46031 20.579 7.12031 20.4186 6.85783L18.0467 2.98159C17.8863 2.71912 17.5395 2.63495 17.2718 2.79166C17.0042 2.94892 16.9178 3.28892 17.0781 3.5514L19.4501 7.42819Z" fill="#3048EA"/>
<path d="M25.6705 8.65906C25.7343 8.68232 25.7998 8.69284 25.8642 8.69284C26.0946 8.69284 26.3115 8.55329 26.3945 8.32847L28.8229 1.79424C28.9296 1.50685 28.7788 1.18899 28.4857 1.08434C28.1915 0.979677 27.8679 1.12808 27.7617 1.41492L25.3334 7.94915C25.2266 8.23655 25.3774 8.5544 25.6705 8.65906Z" fill="#3048EA"/>
<path d="M22.8134 4.76242C22.8253 4.76242 22.8366 4.76242 22.8484 4.76132C23.1596 4.74304 23.3968 4.48057 23.3781 4.1749L23.1523 0.520158C23.1336 0.214489 22.8676 -0.0147629 22.5542 0.000742099C22.243 0.0190158 22.0058 0.281493 22.0245 0.587162L22.2504 4.2419C22.2684 4.53594 22.5175 4.76242 22.8134 4.76242Z" fill="#3048EA"/>
<path d="M39.4458 24.6779C39.3165 24.7615 39.2278 24.8933 39.2002 25.0423L38.6919 27.8116C38.6366 28.1122 38.841 28.4002 39.1482 28.4545C39.1821 28.4606 39.2154 28.4633 39.2487 28.4633C39.517 28.4633 39.7547 28.2756 39.8039 28.0076L40.2071 25.812L42.7908 26.4001C42.9427 26.4344 43.1008 26.4067 43.2302 26.3225C43.3595 26.2384 43.4481 26.106 43.4753 25.9565L44.04 22.8001C44.0936 22.4989 43.8881 22.2121 43.5814 22.1589C43.2753 22.1057 42.9817 22.3073 42.9275 22.6085L42.4661 25.189L39.8852 24.6009C39.7327 24.5671 39.5746 24.5948 39.4458 24.6779Z" fill="#3048EA"/>
<path d="M5.47647 13.2342C6.22532 13.2342 6.83185 12.6394 6.83185 11.9052C6.83185 11.1709 6.22532 10.5762 5.47647 10.5762C4.72762 10.5762 4.12109 11.1709 4.12109 11.9052C4.12109 12.6394 4.72819 13.2342 5.47647 13.2342Z" fill="#3048EA"/>
<path d="M5 23L6.21541 26.2846L9.5 27.5L6.21541 28.7154L5 32L3.78459 28.7154L0.5 27.5L3.78459 26.2846L5 23Z" fill="#B9BCFF"/>
<path d="M41 6L41.6752 7.82477L43.5 8.5L41.6752 9.17523L41 11L40.3248 9.17523L38.5 8.5L40.3248 7.82477L41 6Z" fill="#B9BCFF"/>
</svg>
