<svg width="43" height="55" viewBox="0 0 43 55" fill="none" xmlns="http://www.w3.org/2000/svg">
<path d="M39.4654 18.3858C39.4355 22.2651 37.8214 25.3786 35.3105 28.1824C34.9764 28.553 35.005 28.7431 35.4346 28.9807C36.3569 29.4901 37.344 29.7752 38.4057 29.7828C39.2725 29.7885 40.1432 29.8303 41.0082 29.7885C41.5352 29.7638 42.0412 29.5452 42.5911 29.6726C43.0264 29.7733 43.1161 29.9045 42.8507 30.239C41.9858 31.3282 41.1304 32.4192 39.8091 33.0236C38.44 33.6509 37.1283 34.3979 35.6981 34.8959C35.2761 35.0423 35.3582 35.3293 35.5721 35.5859C35.9368 36.0231 36.3607 36.4108 36.6566 36.9031C37.9976 39.1253 38.0374 42.3621 36.2881 44.4492C35.5304 45.3556 34.1684 46.0862 33.5844 47.059C33.1491 47.7812 33.256 48.4218 33.9033 48.9635C36.0561 50.7633 38.1573 52.2981 39.6792 54.7001C39.7193 54.7647 39.7384 54.8768 39.7098 54.9396C39.6659 55.0327 39.5608 55.0004 39.4826 54.9605C38.5336 54.4777 37.4681 54.5575 36.4657 54.3389C28.0501 52.5169 20.0083 54.3916 12.8922 48.3135C9.17724 45.1361 7.62293 40.6736 7.21172 35.966C7.19072 35.7265 7.17545 35.5631 6.89285 35.4661C4.87382 34.7681 1.79454 34.2684 0.280589 32.6074C-0.135661 32.1512 -0.110838 32.0466 0.50399 31.8775C2.56002 31.3115 4.3613 31.3337 6.20929 29.9615C7.61389 28.9277 7.52961 26.529 6.04699 25.5802C3.80535 24.1451 2.97476 22.4629 3.20198 19.8817C3.49348 16.5852 6.19704 12.7767 9.18223 11.5031C9.56411 11.3415 9.7245 11.0583 9.71113 10.6953C9.5631 6.56056 13.0297 2.91919 16.3177 0.967104C18.807 -0.513971 22.8135 -0.0179179 25.4293 0.63827C28.6639 1.44785 32.3112 4.22666 33.5138 7.42403C33.8232 8.24556 33.8781 8.98693 34.6976 9.48067C36.4218 10.5147 37.8042 11.8395 38.5336 13.7536C39.1045 15.2495 39.5857 16.7644 39.4654 18.3877V18.3858Z" fill="#B9BCFF"/>
</svg>
