<svg width="91" height="80" viewBox="0 0 91 80" fill="none" xmlns="http://www.w3.org/2000/svg">
<rect x="15.1743" y="22" width="43.115" height="58" rx="8" fill="#3048EA"/>
<path d="M46.0399 61.7648C46.0519 61.7656 46.0638 61.7655 46.0755 61.7647C47.3089 61.7606 48.1878 62.5787 48.196 63.6332C48.2042 64.7005 47.2899 65.6278 46.1243 65.6266C44.9143 65.625 43.9769 64.8226 43.9684 63.6746C43.9598 62.5238 44.896 61.6875 46.0399 61.7648Z" fill="#3048EA" stroke="#EFF5FF" stroke-width="0.5" stroke-linejoin="round"/>
<path d="M29.3485 62.6124C29.3605 62.6132 29.3724 62.6132 29.3841 62.6123C30.6175 62.6083 31.4964 63.4264 31.5046 64.4808C31.5128 65.5482 30.5985 66.4755 29.4328 66.4743C28.2229 66.4727 27.2855 65.6703 27.277 64.5223C27.2684 63.3715 28.2046 62.5352 29.3485 62.6124Z" fill="#3048EA" stroke="#EFF5FF" stroke-width="0.5" stroke-linejoin="round"/>
<path d="M50.0801 60.025C50.1636 67.8 46.0126 73.2696 37.7905 73.3765C31.2497 73.4616 25.3003 68.0656 25.2168 60.2906C25.1332 52.5156 30.631 46.1534 37.4971 46.0801C44.3632 46.0068 49.9965 52.25 50.0801 60.025Z" stroke="#EFF5FF" stroke-width="0.5" stroke-miterlimit="10" stroke-linejoin="round"/>
<path d="M35.2123 65.3575C35.6887 65.5649 36.7221 65.9891 37.6982 66.0295C39.2391 66.0934 40.1304 65.4024 40.6352 65.1326" stroke="#EFF5FF" stroke-width="0.5" stroke-miterlimit="10" stroke-linecap="round" stroke-linejoin="round"/>
<path d="M29.0052 42.2023C27.4495 42.3833 24.9434 44.778 23.933 45.8605C21.2839 48.6984 20.4629 52.0742 20.3969 54.0505C20.4144 55.8154 20.9632 56.9671 21.7818 58.0161C22.463 58.8587 24.3172 59.9198 25.2165 60.2952C25.9829 55.2448 29.5364 52.4841 33.5956 49.7348C30.654 47.6868 29.309 43.488 29.0052 42.2016L29.0052 42.2023Z" fill="#3048EA" stroke="#EFF5FF" stroke-width="0.5" stroke-miterlimit="10" stroke-linejoin="round"/>
<path d="M34.6816 60.4866C34.7058 60.8928 34.6251 61.254 34.4883 61.5082C34.3492 61.7666 34.1757 61.8789 34.0213 61.8872C33.8668 61.8954 33.6811 61.8023 33.5124 61.5604C33.3463 61.3224 33.2234 60.972 33.1993 60.5659C33.1752 60.1597 33.2559 59.7985 33.3927 59.5442C33.5317 59.2858 33.7052 59.1736 33.8597 59.1653C34.0141 59.157 34.1998 59.2501 34.3686 59.4921C34.5346 59.7301 34.6575 60.0804 34.6816 60.4866Z" fill="#EFF5FF" stroke="#EFF5FF" stroke-width="0.5" stroke-linejoin="round"/>
<path d="M42.356 60.0862C42.3801 60.4924 42.2994 60.8536 42.1626 61.1078C42.0235 61.3662 41.8501 61.4785 41.6956 61.4868C41.5411 61.495 41.3555 61.402 41.1867 61.16C41.0207 60.922 40.8977 60.5717 40.8736 60.1655C40.8495 59.7593 40.9302 59.3981 41.067 59.1439C41.2061 58.8854 41.3795 58.7732 41.534 58.7649C41.6885 58.7566 41.8741 58.8497 42.0429 59.0917C42.2089 59.3297 42.3318 59.68 42.356 60.0862Z" fill="#EFF5FF" stroke="#EFF5FF" stroke-width="0.5" stroke-linejoin="round"/>
<path d="M33.2543 56.5675C33.292 56.6239 33.3109 56.7561 33.1787 56.9773C33.0536 57.1867 32.8212 57.4187 32.5048 57.6103C32.1883 57.8019 31.8688 57.9039 31.6161 57.9232C31.3493 57.9435 31.2311 57.8714 31.1933 57.8151C31.1555 57.7587 31.1366 57.6265 31.2688 57.4053C31.394 57.1959 31.6263 56.9638 31.9428 56.7723C32.2593 56.5807 32.5787 56.4787 32.8315 56.4594C33.0983 56.439 33.2165 56.5112 33.2543 56.5675Z" fill="#EFF5FF" stroke="#EFF5FF" stroke-width="0.5" stroke-linejoin="round"/>
<path d="M42.4636 56.0044C42.8053 56.1528 43.0697 56.3526 43.2247 56.5443C43.389 56.7475 43.3881 56.8804 43.3604 56.9385C43.3327 56.9966 43.2284 57.0845 42.96 57.0998C42.7067 57.1143 42.3752 57.0554 42.0335 56.907C41.6919 56.7587 41.4274 56.5589 41.2724 56.3671C41.1082 56.1639 41.109 56.0311 41.1367 55.973C41.1644 55.9148 41.2687 55.8269 41.5372 55.8116C41.7904 55.7971 42.122 55.8561 42.4636 56.0044Z" fill="#EFF5FF" stroke="#EFF5FF" stroke-width="0.5" stroke-linejoin="round"/>
<path d="M33.6167 37.6977C32.8908 37.615 30.6154 38.0963 28.9637 39.3626C27.1633 40.7434 27.3965 42.467 27.5195 43.365C28.1689 48.1015 37.9342 52.5666 41.9389 52.1701C45.9436 51.7735 50.1803 56.9467 50.0595 58.1756C56.5975 54.1663 54.5072 47.3199 50.858 45.2644C48.3831 43.8704 49.1309 42.3775 45.805 38.7027C45.5144 38.3822 43.5442 36.2097 39.4539 35.3448C38.3279 35.1065 37.1159 35.0435 35.9341 35.6286C34.9329 36.1247 33.8833 37.0326 33.616 37.6971L33.6167 37.6977Z" fill="#3048EA" stroke="#EFF5FF" stroke-width="0.5" stroke-miterlimit="10" stroke-linejoin="round"/>
<path d="M33.6436 37.6973L33.8653 38.9455C33.8668 38.9534 33.8683 38.962 33.8698 38.9699C34.0913 40.1931 34.849 41.2732 35.9467 41.9634L36.7475 42.4673" stroke="#EFF5FF" stroke-width="0.5" stroke-miterlimit="10" stroke-linecap="round" stroke-linejoin="round"/>
<path d="M40.0949 35.4817C39.9198 36.6127 40.1525 37.7658 40.7813 38.7661C41.4122 39.7703 42.3249 40.6685 43.45 41.4878C43.45 41.4878 45.14 42.9076 46.3806 43.5752C47.8857 44.3849 50.5142 45.0479 50.5142 45.0479" stroke="#EFF5FF" stroke-width="0.5" stroke-miterlimit="10" stroke-linecap="round" stroke-linejoin="round"/>
<rect x="38.5" y="9.5" width="42.115" height="58" rx="7.5" fill="#B9BCFF" stroke="#3048EA"/>
<path d="M70.5507 45.5148C71.9061 45.5021 72.9312 46.4098 72.9406 47.6313C72.9499 48.8446 71.9161 49.878 70.6186 49.8766C69.2989 49.8749 68.2228 48.9876 68.213 47.6765C68.2033 46.3724 69.2703 45.4288 70.5513 45.5154L70.5507 45.5148Z" fill="#B9BCFF"/>
<path d="M53.8583 46.3624C55.2138 46.3497 56.2388 47.2574 56.2482 48.4789C56.2575 49.6922 55.2237 50.7256 53.9262 50.7243C52.6065 50.7225 51.5304 49.8353 51.5206 48.5241C51.5109 47.2201 52.5779 46.2765 53.859 46.363L53.8583 46.3624Z" fill="#B9BCFF"/>
<path d="M74.5737 44.025C74.6573 51.8 70.5063 57.2696 62.2842 57.3765C55.7434 57.4616 49.794 52.0656 49.7104 44.2906C49.6268 36.5156 55.1246 30.1534 61.9907 30.0801C68.8569 30.0068 74.4901 36.25 74.5737 44.025Z" stroke="#3048EA" stroke-width="0.5" stroke-miterlimit="10" stroke-linejoin="round"/>
<path d="M59.7059 49.3575C60.1823 49.5649 61.2157 49.9891 62.1919 50.0295C63.7328 50.0934 64.6241 49.4024 65.1288 49.1326" stroke="#3048EA" stroke-width="0.5" stroke-miterlimit="10" stroke-linecap="round" stroke-linejoin="round"/>
<path d="M53.4998 26.2025C51.9441 26.3835 49.438 28.7781 48.4276 29.8606C45.7784 32.6985 44.9573 36.0742 44.8913 38.0505C44.9088 39.8154 45.4575 40.9671 46.2761 42.0162C46.9573 42.8588 48.8114 43.9199 49.7108 44.2953C50.4773 39.245 54.0309 36.4843 58.0901 33.7351C55.1485 31.6871 53.8036 27.4882 53.4998 26.2018L53.4998 26.2025Z" fill="#B9BCFF" stroke="#3048EA" stroke-width="0.5" stroke-miterlimit="10" stroke-linejoin="round"/>
<path d="M59.1763 44.4866C59.2004 44.8928 59.1197 45.254 58.9829 45.5082C58.8438 45.7666 58.6704 45.8789 58.5159 45.8872C58.3614 45.8954 58.1758 45.8023 58.007 45.5604C57.841 45.3224 57.718 44.972 57.6939 44.5659C57.6698 44.1597 57.7505 43.7985 57.8873 43.5442C58.0264 43.2858 58.1998 43.1736 58.3543 43.1653C58.5088 43.157 58.6944 43.2501 58.8632 43.4921C59.0292 43.7301 59.1522 44.0804 59.1763 44.4866Z" fill="#3048EA" stroke="#3048EA" stroke-width="0.5" stroke-linejoin="round"/>
<path d="M66.8506 44.0862C66.8747 44.4924 66.794 44.8536 66.6572 45.1078C66.5181 45.3662 66.3447 45.4785 66.1902 45.4868C66.0357 45.495 65.8501 45.402 65.6813 45.16C65.5153 44.922 65.3924 44.5717 65.3682 44.1655C65.3441 43.7593 65.4248 43.3981 65.5616 43.1439C65.7007 42.8854 65.8741 42.7732 66.0286 42.7649C66.1831 42.7566 66.3687 42.8497 66.5375 43.0917C66.7036 43.3297 66.8265 43.68 66.8506 44.0862Z" fill="#3048EA" stroke="#3048EA" stroke-width="0.5" stroke-linejoin="round"/>
<path d="M57.1384 41.8176C57.8258 41.4015 58.195 40.7838 57.9631 40.4379C57.7311 40.092 56.9858 40.1489 56.2984 40.5649C55.611 40.981 55.2418 41.5988 55.4737 41.9447C55.7057 42.2906 56.451 42.2337 57.1384 41.8176Z" fill="#3048EA"/>
<path d="M68.0841 41.0379C68.2623 40.6639 67.8065 40.1 67.0659 39.7784C66.3254 39.4569 65.5805 39.4995 65.4023 39.8735C65.2241 40.2476 65.6799 40.8114 66.4205 41.133C67.161 41.4545 67.9059 41.412 68.0841 41.0379Z" fill="#3048EA"/>
<path d="M58.1113 21.6977C57.3854 21.615 55.1101 22.0963 53.4583 23.3626C51.6579 24.7434 51.8911 26.467 52.0141 27.365C52.6635 32.1015 62.4288 36.5666 66.4335 36.1701C70.4382 35.7735 74.6749 40.9467 74.5541 42.1756C81.0922 38.1663 79.0018 31.3199 75.3527 29.2644C72.8777 27.8704 73.6255 26.3775 70.2997 22.7027C70.0091 22.3822 68.0388 20.2097 63.9485 19.3448C62.8226 19.1065 61.6105 19.0435 60.4287 19.6286C59.4275 20.1247 58.3779 21.0326 58.1106 21.6971L58.1113 21.6977Z" fill="#B9BCFF" stroke="#3048EA" stroke-width="0.5" stroke-miterlimit="10" stroke-linejoin="round"/>
<path d="M58.1382 21.6973L58.3599 22.9455C58.3614 22.9534 58.3629 22.962 58.3644 22.9699C58.5859 24.1931 59.3436 25.2732 60.4413 25.9634L61.2421 26.4673" stroke="#3048EA" stroke-width="0.5" stroke-miterlimit="10" stroke-linecap="round" stroke-linejoin="round"/>
<path d="M64.5895 19.4817C64.4145 20.6127 64.6472 21.7658 65.2759 22.7661C65.9068 23.7703 66.8195 24.6685 67.9447 25.4878C67.9447 25.4878 69.6346 26.9076 70.8753 27.5752C72.3803 28.3849 75.0088 29.0479 75.0088 29.0479" stroke="#3048EA" stroke-width="0.5" stroke-miterlimit="10" stroke-linecap="round" stroke-linejoin="round"/>
<rect x="10.5" y="0.5" width="42.115" height="57" rx="7.5" fill="#EFF5FF" stroke="#3048EA"/>
<path d="M39.9351 36.362C41.2895 36.4141 42.2683 37.3697 42.2171 38.5902C42.1662 39.8025 41.0822 40.7853 39.7864 40.7219C38.4684 40.6571 37.4375 39.7195 37.4928 38.4094C37.5479 37.1064 38.6604 36.215 39.9356 36.3626L39.9351 36.362Z" fill="#B9BCFF"/>
<path d="M23.2212 36.4128C24.5756 36.4648 25.5544 37.4205 25.5032 38.641C25.4523 39.8533 24.3684 40.8361 23.0725 40.7727C21.7545 40.7079 20.7236 39.7702 20.779 38.4602C20.834 37.1572 21.9466 36.2658 23.2218 36.4134L23.2212 36.4128Z" fill="#B9BCFF"/>
<path d="M44.0275 35.0674C43.7251 42.8372 39.3075 48.1018 31.0898 47.8157C24.5526 47.5881 18.8781 41.9142 19.1805 34.1444C19.4829 26.3746 25.2899 20.2828 32.1515 20.5377C39.0131 20.7926 44.3299 27.2976 44.0275 35.0674Z" stroke="#3048EA" stroke-width="0.5" stroke-miterlimit="10" stroke-linejoin="round"/>
<path d="M28.9129 39.6834C29.3785 39.9133 30.3895 40.3864 31.3625 40.4734C32.8985 40.6108 33.823 39.9633 34.3405 39.7179" stroke="#3048EA" stroke-width="0.5" stroke-miterlimit="10" stroke-linecap="round" stroke-linejoin="round"/>
<path d="M23.8632 16.2585C22.3003 16.365 19.6784 18.637 18.6155 19.67C15.8287 22.3779 14.8411 25.7104 14.677 27.6813C14.607 29.4449 15.0979 30.6214 15.8635 31.7084C16.5021 32.5825 18.3014 33.731 19.181 34.1489C20.1972 29.1411 23.8835 26.5535 28.0743 24.0014C25.2378 21.8153 24.1028 17.5572 23.8632 16.2578L23.8632 16.2585Z" fill="#FCF0F0" stroke="#3048EA" stroke-width="0.5" stroke-miterlimit="10" stroke-linejoin="round"/>
<path d="M28.6248 34.7928C28.6288 35.1996 28.5303 35.5565 28.381 35.8038C28.2294 36.0551 28.0505 36.1592 27.8955 36.16C27.7406 36.1609 27.5597 36.0589 27.4032 35.8093C27.2492 35.5636 27.1439 35.2079 27.1399 34.8012C27.136 34.3944 27.2345 34.0376 27.3837 33.7902C27.5354 33.5389 27.7143 33.4349 27.8692 33.434C28.0242 33.4331 28.205 33.5351 28.3616 33.7848C28.5155 34.0304 28.6209 34.3861 28.6248 34.7928Z" fill="#3048EA" stroke="#3048EA" stroke-width="0.5" stroke-linejoin="round"/>
<path d="M36.3094 34.7596C36.3133 35.1664 36.2148 35.5233 36.0656 35.7706C35.9139 36.0219 35.7351 36.126 35.5801 36.1268C35.4251 36.1277 35.2443 36.0257 35.0878 35.7761C34.9338 35.5304 34.8284 35.1747 34.8245 34.768C34.8206 34.3612 34.9191 34.0044 35.0683 33.757C35.22 33.5057 35.3988 33.4017 35.5538 33.4008C35.7088 33.3999 35.8896 33.5019 36.0461 33.7516C36.2001 33.9972 36.3055 34.3529 36.3094 34.7596Z" fill="#3048EA" stroke="#3048EA" stroke-width="0.5" stroke-linejoin="round"/>
<path d="M26.7225 32.03C27.4297 31.6472 27.8292 31.0478 27.6146 30.6912C27.4001 30.3346 26.6529 30.3559 25.9456 30.7386C25.2384 31.1214 24.839 31.7207 25.0535 32.0773C25.268 32.4339 26.0153 32.4127 26.7225 32.03Z" fill="#3048EA"/>
<path d="M37.6945 31.7727C37.8911 31.4076 37.4638 30.8226 36.7401 30.4661C36.0164 30.1095 35.2703 30.1164 35.0737 30.4815C34.8771 30.8466 35.3045 31.4316 36.0282 31.7882C36.7519 32.1447 37.4979 32.1378 37.6945 31.7727Z" fill="#3048EA"/>
<path d="M28.6921 11.9802C27.9712 11.8629 25.6747 12.2348 23.9621 13.4207C22.0953 14.7138 22.2426 16.4465 22.3209 17.3493C22.7345 22.1113 32.2666 27.0378 36.2862 26.8331C40.3058 26.6284 44.2807 31.9979 44.0991 33.2195C50.8284 29.5275 49.0803 22.5893 45.5375 20.3618C43.1346 18.8513 43.9557 17.3958 40.8162 13.5664C40.5418 13.2324 38.6817 10.9683 34.6392 9.90897C33.5264 9.61721 32.319 9.49636 31.1095 10.0243C30.0849 10.4719 28.9915 11.3286 28.6915 11.9795L28.6921 11.9802Z" fill="#FCF0F0" stroke="#3048EA" stroke-width="0.5" stroke-miterlimit="10" stroke-linejoin="round"/>
<path d="M28.7192 11.9805L28.8788 13.2379C28.8799 13.2458 28.881 13.2545 28.8821 13.2624C29.0426 14.4947 29.7458 15.6098 30.8079 16.3516L31.5828 16.8931" stroke="#3048EA" stroke-width="0.5" stroke-miterlimit="10" stroke-linecap="round" stroke-linejoin="round"/>
<path d="M35.2726 10.0766C35.0416 11.1979 35.2168 12.3607 35.7951 13.3899C36.3755 14.423 37.2425 15.3638 38.3257 16.2359C38.3257 16.2359 39.9431 17.7348 41.1492 18.4608C42.6122 19.3416 45.2048 20.1294 45.2048 20.1294" stroke="#3048EA" stroke-width="0.5" stroke-miterlimit="10" stroke-linecap="round" stroke-linejoin="round"/>
</svg>
