<svg width="120" height="142" viewBox="0 0 120 142" fill="none" xmlns="http://www.w3.org/2000/svg">
<path d="M34.4389 102.635C38.6298 102.641 41.7687 105.569 41.7572 109.463C41.7457 113.331 38.515 116.59 34.5039 116.542C30.4239 116.491 27.1263 113.626 27.1397 109.446C27.1531 105.289 30.4832 102.317 34.4408 102.637L34.4389 102.635Z" fill="#B9BCFF"/>
<path d="M90.4916 102.861C94.6825 102.867 97.8214 105.796 97.8099 109.69C97.7985 113.558 94.5678 116.817 90.5567 116.768C86.4767 116.718 83.179 113.853 83.1924 109.673C83.2058 105.515 86.536 102.544 90.4935 102.863L90.4916 102.861Z" fill="#B9BCFF"/>
<path d="M106.103 89.9183C106.103 116.893 90.2996 138.76 62.1907 138.76C34.0819 138.76 18.2783 116.893 18.2783 89.9183C18.2783 62.9431 37.9375 41.0762 62.1907 41.0762C86.444 41.0762 106.103 62.9431 106.103 89.9183Z" stroke="#3048EA" stroke-width="1.17424" stroke-miterlimit="10"/>
<path d="M53.3105 111.522C55.03 112.173 58.7537 113.491 62.1926 113.429C67.6209 113.33 70.6014 110.631 72.3159 109.543" stroke="#3048EA" stroke-width="1.17424" stroke-miterlimit="10" stroke-linecap="round"/>
<path d="M32.3598 26.3852C26.877 26.9832 17.9652 35.5951 14.3678 39.4927C4.93817 49.7112 1.92051 61.9566 1.61329 69.1419C1.60834 75.5612 3.49624 79.7711 6.338 83.6183C8.70406 86.7091 15.1903 90.6404 18.3418 92.0405C21.2306 73.7024 32.4193 65.0425 46.8114 55.2011C36.5345 47.6387 33.383 31.073 32.3623 26.3828L32.3598 26.3852Z" fill="#B9BCFF" stroke="#3048EA" stroke-width="1.17424" stroke-miterlimit="10"/>
<path d="M47.582 100.651C49.5093 100.566 50.9483 97.8733 50.7961 94.6364C50.6439 91.3996 48.9581 88.8446 47.0308 88.9298C45.1034 89.0149 43.6644 91.708 43.8166 94.9448C43.9689 98.1817 45.6547 100.737 47.582 100.651Z" fill="#3048EA"/>
<path d="M73.709 99.4972C75.6363 99.412 77.0753 96.719 76.9231 93.4821C76.7708 90.2453 75.085 87.6903 73.1577 87.7755C71.2304 87.8607 69.7914 90.5537 69.9436 93.7905C70.0958 97.0274 71.7816 99.5823 73.709 99.4972Z" fill="#3048EA"/>
<path d="M42.9649 83.3016C45.4924 82.0076 47.1337 80.2104 46.6308 79.2876C46.128 78.3647 43.6714 78.6656 41.1438 79.9597C38.6163 81.2537 36.975 83.0509 37.4779 83.9737C37.9808 84.8965 40.4374 84.5956 42.9649 83.3016Z" fill="#3048EA"/>
<path d="M82.1741 83.2402C82.6368 82.3797 80.9572 80.6439 78.4225 79.3631C75.8878 78.0824 73.4579 77.7417 72.9951 78.6021C72.5324 79.4626 74.212 81.1984 76.7467 82.4792C79.2814 83.7599 81.7113 84.1007 82.1741 83.2402Z" fill="#3048EA"/>
<path d="M48.7613 10.1854C46.2094 9.85635 38.1821 11.5182 32.3202 16.0595C25.9306 21.0114 26.6863 27.289 27.0851 30.5599C30.9402 62.1279 101.157 73.0428 105.864 85.3002C129.029 70.9727 117.144 47.5411 104.378 39.9234C95.7185 34.7578 103.193 27.8077 91.6255 14.3136C90.6147 13.1368 83.7618 5.15897 69.3969 1.85447C65.4427 0.944297 61.1788 0.668122 56.9967 2.75024C53.4538 4.51536 49.7251 7.77663 48.7588 10.183L48.7613 10.1854Z" fill="#B9BCFF" stroke="#3048EA" stroke-width="1.17424" stroke-miterlimit="10" stroke-linejoin="round"/>
<path d="M48.8574 10.1855L49.5908 14.734C49.5957 14.7629 49.6007 14.7941 49.6056 14.8229C50.339 19.2801 52.9652 23.2378 56.803 25.7906L59.6026 27.6542" stroke="#3048EA" stroke-width="1.17424" stroke-miterlimit="10" stroke-linecap="round" stroke-linejoin="round"/>
<path d="M71.6494 2.375C70.9903 6.48161 71.7658 10.6843 73.9411 14.3466C76.1238 18.0233 79.3026 21.3254 83.232 24.3489L104.375 39.9228" stroke="#3048EA" stroke-width="1.17424" stroke-miterlimit="10" stroke-linejoin="round"/>
</svg>
