<svg width="75" height="80" viewBox="0 0 75 80" fill="none" xmlns="http://www.w3.org/2000/svg">
<mask id="path-1-inside-1_450_4256" fill="white">
<path d="M0.827074 69.2852C0.827074 69.2852 0.844033 69.2852 0.853724 69.2897C0.880374 69.2988 0.904601 69.3306 0.931252 69.3806C0.885219 69.3374 0.848878 69.3079 0.829497 69.2874H0.817383C0.817383 69.2874 0.824651 69.2852 0.827074 69.2852Z"/>
</mask>
<path d="M0.827074 69.2852C0.827074 69.2852 0.844033 69.2852 0.853724 69.2897C0.880374 69.2988 0.904601 69.3306 0.931252 69.3806C0.885219 69.3374 0.848878 69.3079 0.829497 69.2874H0.817383C0.817383 69.2874 0.824651 69.2852 0.827074 69.2852Z" fill="#FFFEFE"/>
<path d="M0.827074 69.2852V69.7852H0.827147L0.827074 69.2852ZM0.853724 69.2897L0.641353 69.7424L0.666241 69.754L0.692259 69.7629L0.853724 69.2897ZM0.931252 69.3806L0.589119 69.7453L1.37251 69.1455L0.931252 69.3806ZM0.829497 69.2874L1.19248 68.9436L1.04457 68.7874H0.829497V69.2874ZM0.817383 69.2874L0.667993 68.8103L0.817383 69.7874V69.2874ZM0.827074 69.2852C0.827147 69.7852 0.827082 69.7852 0.827017 69.7852C0.826995 69.7852 0.826929 69.7852 0.826886 69.7852C0.826798 69.7852 0.826711 69.7852 0.826624 69.7852C0.826449 69.7852 0.826275 69.7852 0.8261 69.7852C0.825751 69.7852 0.825403 69.7852 0.825053 69.7852C0.824355 69.7851 0.823656 69.7851 0.822954 69.7851C0.821553 69.7851 0.820134 69.7851 0.818694 69.7851C0.815839 69.785 0.81279 69.7849 0.809561 69.7848C0.803458 69.7846 0.79507 69.7841 0.784973 69.783C0.775537 69.7821 0.759605 69.7801 0.739692 69.7758C0.722351 69.772 0.68546 69.7631 0.641353 69.7424L1.0661 68.837C0.981184 68.7972 0.903935 68.79 0.888557 68.7884C0.873008 68.7868 0.859775 68.786 0.85019 68.7856C0.845219 68.7854 0.84077 68.7853 0.836949 68.7852C0.835027 68.7852 0.833233 68.7852 0.831579 68.7852C0.830751 68.7852 0.829955 68.7852 0.829192 68.7852C0.828811 68.7852 0.828437 68.7852 0.828072 68.7852C0.827889 68.7852 0.827709 68.7852 0.82753 68.7852C0.827441 68.7852 0.827352 68.7852 0.827264 68.7852C0.827219 68.7852 0.827154 68.7852 0.827132 68.7852C0.827066 68.7852 0.827 68.7852 0.827074 69.2852ZM0.692259 69.7629C0.582625 69.7255 0.523774 69.6585 0.507524 69.6389C0.488937 69.6165 0.483233 69.6031 0.489988 69.6158L1.37251 69.1455C1.35262 69.1082 1.32148 69.0539 1.27745 69.0008C1.23576 68.9505 1.15147 68.863 1.01519 68.8165L0.692259 69.7629ZM1.27338 69.016C1.2445 68.9889 1.21854 68.966 1.20258 68.9518C1.19379 68.944 1.1892 68.9399 1.18618 68.9371C1.18277 68.934 1.18617 68.9369 1.19248 68.9436L0.466509 69.6313C0.482514 69.6482 0.49772 69.6625 0.508016 69.672C0.518703 69.6819 0.529713 69.6917 0.538184 69.6992C0.556748 69.7157 0.57197 69.7292 0.589119 69.7453L1.27338 69.016ZM0.829497 68.7874H0.817383V69.7874H0.829497V68.7874ZM0.817383 69.2874C0.966773 69.7646 0.966751 69.7646 0.966728 69.7646C0.966721 69.7646 0.966699 69.7646 0.966684 69.7646C0.966655 69.7646 0.966625 69.7646 0.966596 69.7646C0.966537 69.7647 0.966478 69.7647 0.966419 69.7647C0.966301 69.7647 0.966183 69.7648 0.966066 69.7648C0.96583 69.7649 0.965594 69.765 0.965358 69.765C0.964886 69.7652 0.964405 69.7653 0.963916 69.7655C0.96295 69.7658 0.961888 69.7661 0.960736 69.7664C0.958672 69.767 0.955268 69.768 0.950912 69.7692C0.947413 69.7701 0.938539 69.7725 0.926696 69.775C0.926004 69.7751 0.882656 69.7852 0.827074 69.7852V68.7852C0.77028 68.7852 0.725115 68.7955 0.722379 68.7961C0.708492 68.799 0.697347 68.8019 0.691727 68.8034C0.685251 68.8051 0.679879 68.8067 0.676377 68.8077C0.674506 68.8083 0.672856 68.8088 0.671484 68.8092C0.670791 68.8094 0.670152 68.8096 0.669572 68.8098C0.669282 68.8099 0.669005 68.81 0.668742 68.81C0.66861 68.8101 0.668482 68.8101 0.668357 68.8102C0.668295 68.8102 0.668233 68.8102 0.668173 68.8102C0.668142 68.8102 0.668112 68.8102 0.668082 68.8102C0.668067 68.8102 0.668045 68.8103 0.668037 68.8103C0.668015 68.8103 0.667993 68.8103 0.817383 69.2874Z" fill="#3048EA" mask="url(#path-1-inside-1_450_4256)"/>
<path d="M21.0494 71.6156L21.0494 71.6156C21.6144 70.9611 22.0881 70.3001 22.2758 69.5093C22.2683 69.3814 22.2589 69.2515 22.2494 69.1199C22.1991 68.4243 22.1454 67.6814 22.3357 66.9475C22.3356 65.7478 22.335 64.5482 22.3344 63.3484L22.3344 63.3373C22.3338 62.1472 22.3332 60.957 22.3332 59.7668C22.1388 59.2836 22.146 58.7465 22.1524 58.2698L22.1528 58.2463C22.1595 57.7434 22.1619 57.3042 22.013 56.9265C20.5781 55.5537 18.1017 54.3356 16.0426 53.8703C16.0425 53.8703 16.0425 53.8703 16.0425 53.8702L21.0494 71.6156ZM21.0494 71.6156C20.9915 71.6826 20.9335 71.7496 20.8754 71.8168C20.0275 72.7964 19.1591 73.7997 18.5937 75.0251L18.5936 75.0255M21.0494 71.6156L18.5936 75.0255M18.5936 75.0255C17.7159 76.935 17.7231 78.9036 17.859 80.8474H4.89045C4.88417 80.8461 4.87947 80.8453 4.87688 80.8449L4.87551 80.8447C4.85455 80.8411 4.83218 80.8388 4.81131 80.837C4.76883 80.8335 4.71486 80.8311 4.65369 80.8295C4.53041 80.8263 4.36355 80.8258 4.16986 80.8269C3.78247 80.8292 3.27778 80.8383 2.77755 80.8474H0.805432C0.802506 80.8447 0.798826 80.8411 0.794404 80.8362C0.770282 80.8095 0.737614 80.76 0.701012 80.677C0.627829 80.5112 0.558847 80.2586 0.498562 79.9189C0.378634 79.2433 0.302343 78.2791 0.269187 77.1109C0.202967 74.7778 0.309626 71.6678 0.566236 68.51C0.822874 65.3518 1.22878 62.1546 1.75887 59.6459C2.0241 58.3907 2.31874 57.316 2.63798 56.5073C2.79763 56.1029 2.96085 55.7717 3.12557 55.5199C3.28731 55.2726 3.4399 55.1183 3.5766 55.0388C3.88792 54.913 4.20092 54.764 4.50549 54.6189C4.69811 54.5272 4.88737 54.4371 5.07069 54.3555C5.56417 54.1358 6.05899 53.9551 6.60567 53.8834C6.86649 53.8504 7.18045 53.7605 7.44573 53.5789C7.71698 53.3933 7.94148 53.1073 7.98754 52.6997L7.98761 52.699M18.5936 75.0255L7.98761 52.699M7.98761 52.699C8.01741 52.4291 8.19941 52.3095 8.51706 52.118M7.98761 52.699L7.73912 52.6716C7.78421 52.2633 8.08948 52.0814 8.39913 51.8969C8.42222 51.8831 8.44533 51.8693 8.46836 51.8555M8.46836 51.8555L8.4236 52.1014C8.45476 52.1071 8.48591 52.1126 8.51706 52.118M8.46836 51.8555C9.74103 52.087 11.0201 52.0496 12.3 52.0121C12.9424 51.9932 13.5851 51.9744 14.2272 51.9896L8.46836 51.8555ZM8.51706 52.118C9.46585 52.2811 10.4131 52.3011 11.3482 52.2859C11.6738 52.2806 11.996 52.2711 12.3163 52.2617C12.9367 52.2435 13.5501 52.2255 14.1677 52.2383M8.51706 52.118L14.1677 52.2383M14.1677 52.2383C14.2314 52.2675 14.2976 52.2934 14.3562 52.3162C14.3653 52.3198 14.3742 52.3233 14.3829 52.3267C14.4698 52.3607 14.5404 52.3899 14.5986 52.4228C14.6565 52.4556 14.6849 52.4829 14.6988 52.5034C14.7087 52.5182 14.7189 52.5401 14.7148 52.5874C14.7147 52.5876 14.7147 52.5877 14.7147 52.5879L14.9637 52.6102L14.1677 52.2383Z" fill="#FFFEFE" stroke="#3048EA" stroke-width="0.5"/>
<mask id="path-4-inside-2_450_4256" fill="white">
<path d="M0.829597 69.2852H0.83265L0.817383 69.2874C0.817383 69.2852 0.826543 69.2852 0.829597 69.2852Z"/>
</mask>
<path d="M0.829597 69.2852H0.83265L0.817383 69.2874C0.817383 69.2852 0.826543 69.2852 0.829597 69.2852Z" fill="#FFFEFE"/>
<path d="M0.83265 69.2852L0.904992 69.7799L0.83265 68.7852V69.2852ZM0.817383 69.2874H0.317383V69.8658L0.889724 69.7821L0.817383 69.2874ZM0.829597 69.7852H0.83265V68.7852H0.829597V69.7852ZM0.760309 68.7904L0.745041 68.7926L0.889724 69.7821L0.904992 69.7799L0.760309 68.7904ZM1.31738 69.2874C1.31738 69.4816 1.2107 69.6101 1.13769 69.6709C1.0716 69.7259 1.00775 69.7498 0.982437 69.7586C0.927911 69.7775 0.883129 69.7818 0.874334 69.7827C0.847159 69.7856 0.824864 69.7852 0.829597 69.7852V68.7852C0.828676 68.7852 0.821532 68.7851 0.8128 68.7854C0.804902 68.7856 0.789417 68.7862 0.770355 68.7881C0.758888 68.7893 0.711626 68.7941 0.655287 68.8136C0.629068 68.8227 0.564475 68.8469 0.49787 68.9024C0.424352 68.9636 0.317383 69.0926 0.317383 69.2874H1.31738Z" fill="#3048EA" mask="url(#path-4-inside-2_450_4256)"/>
<mask id="path-6-inside-3_450_4256" fill="white">
<path d="M0.929331 69.3813C0.883768 69.3386 0.847798 69.3093 0.828613 69.2891H0.852594C0.878972 69.3003 0.902953 69.3318 0.929331 69.3813Z"/>
</mask>
<path d="M0.929331 69.3813C0.883768 69.3386 0.847798 69.3093 0.828613 69.2891H0.852594C0.878972 69.3003 0.902953 69.3318 0.929331 69.3813Z" fill="#FFFEFE"/>
<path d="M0.929331 69.3813L0.587199 69.7459L1.37059 69.1462L0.929331 69.3813ZM0.828613 69.2891V68.7891H-0.333769L0.465626 69.6329L0.828613 69.2891ZM0.852594 69.2891L1.04875 68.8291L0.95477 68.7891H0.852594V69.2891ZM1.27146 69.0167C1.24282 68.9898 1.21706 68.9671 1.20128 68.9531C1.19257 68.9453 1.18807 68.9413 1.18512 68.9386C1.18178 68.9355 1.18524 68.9385 1.1916 68.9452L0.465626 69.6329C0.481581 69.6498 0.496728 69.664 0.506953 69.6735C0.51757 69.6833 0.528501 69.693 0.536884 69.7004C0.555272 69.7168 0.570284 69.7301 0.587199 69.7459L1.27146 69.0167ZM0.828613 69.7891H0.852594V68.7891H0.828613V69.7891ZM0.656434 69.749C0.566903 69.7108 0.518246 69.655 0.503155 69.6364C0.486715 69.6162 0.481854 69.6048 0.488068 69.6165L1.37059 69.1462C1.35043 69.1083 1.32039 69.0564 1.27877 69.0052C1.2385 68.9558 1.16466 68.8786 1.04875 68.8291L0.656434 69.749Z" fill="#3048EA" mask="url(#path-6-inside-3_450_4256)"/>
<path d="M68.6421 81.1163L68.6469 80.8663C68.7383 80.8681 68.8266 80.8286 68.8956 80.7336C68.9673 80.6349 69.0252 80.4638 69.008 80.2056C68.9779 79.7535 68.7179 79.0755 67.9984 78.2175C67.9633 78.3136 67.9134 78.4015 67.8422 78.4768C67.6388 78.6919 67.3298 78.7373 66.9728 78.7268L68.6421 81.1163ZM68.6421 81.1163C69.3229 81.1294 69.8031 79.892 68.0652 77.9116L66.9727 78.7268C65.8022 78.6927 64.6337 78.6971 63.4603 78.7014C63.0126 78.7031 62.5642 78.7047 62.1148 78.7043C61.9603 78.7701 61.8851 78.8504 61.8418 78.9357C61.7895 79.0385 61.7671 79.1808 61.7716 79.3895C61.7744 79.4979 61.7826 79.6068 61.7913 79.7234C61.7934 79.7517 61.7956 79.7805 61.7977 79.8099C61.8083 79.9562 61.8177 80.1127 61.8127 80.2708C61.8068 80.4593 61.7804 80.6543 61.7102 80.8478C62.2547 80.8471 62.7998 80.8451 63.3452 80.8431C65.1107 80.8367 66.8803 80.8303 68.6472 80.8663L68.6421 81.1163Z" fill="#3048EA" stroke="#3048EA" stroke-width="0.5"/>
<mask id="path-9-inside-4_450_4256" fill="white">
<path d="M23.2084 64.8949C23.8196 59.3181 28.8293 58.2867 29.5125 58.1753C31.659 57.8229 33.8104 58.0503 35.9594 57.998C36.6547 57.9821 37.4469 58.0434 37.9751 58.4435C39.5087 59.6007 41.207 60.6146 42.2827 62.2355C42.1858 62.4787 42.3578 62.6583 42.4426 62.8652C43.2034 64.7498 43.5045 74.9665 45.622 76.5555C47.3664 77.865 47.9406 79.3926 48.006 81.2954L38.1447 81.0973C36.7443 80.8973 36.2186 80.1539 36.4367 78.8353C36.5336 78.242 35.9109 77.9919 35.4918 77.6759C35.4918 77.1849 35.533 76.6916 35.4772 76.2074C35.3997 75.5185 35.7026 75.1275 36.3155 74.7502C38.5687 73.3634 39.5111 70.8832 38.8715 68.3962C38.7528 67.9324 38.3821 67.9188 38.0817 67.8347C37.0181 67.5323 36.1072 67.0095 35.4603 66.1729C35.0266 65.6136 34.7383 65.7273 34.2077 66.066C32.1969 67.3527 30.0527 68.2598 27.5258 67.6119C27.1479 67.5141 26.8668 67.5119 26.845 67.9415C26.7287 70.299 26.5979 72.7496 28.9286 74.3C30.0745 75.0616 30.3192 75.8868 30.1908 77.0212C30.1666 77.244 30.1908 77.4736 30.1957 77.6987C29.3477 77.8283 29.0861 78.3557 29.2314 79.0718C29.4277 80.0493 28.8753 80.463 28.0031 80.7586C27.6881 80.8654 27.2666 80.7427 27.0534 81.0973H17.0669C16.9143 79.0695 16.8731 77.0621 17.7622 75.1298C18.3461 73.859 19.2692 72.8315 20.1777 71.7789C20.7567 71.1083 22.0989 66.7321 23.1915 65.1362C23.3078 63.4221 23.5017 61.3534 24.7906 60.1008C25.0982 60.0235 25.8226 60.1804 25.9244 59.8757C31.4507 49.7458 26.0916 59.728 26.1739 59.653"/>
</mask>
<path d="M23.2084 64.8949C23.8196 59.3181 28.8293 58.2867 29.5125 58.1753C31.659 57.8229 33.8104 58.0503 35.9594 57.998C36.6547 57.9821 37.4469 58.0434 37.9751 58.4435C39.5087 59.6007 41.207 60.6146 42.2827 62.2355C42.1858 62.4787 42.3578 62.6583 42.4426 62.8652C43.2034 64.7498 43.5045 74.9665 45.622 76.5555C47.3664 77.865 47.9406 79.3926 48.006 81.2954L38.1447 81.0973C36.7443 80.8973 36.2186 80.1539 36.4367 78.8353C36.5336 78.242 35.9109 77.9919 35.4918 77.6759C35.4918 77.1849 35.533 76.6916 35.4772 76.2074C35.3997 75.5185 35.7026 75.1275 36.3155 74.7502C38.5687 73.3634 39.5111 70.8832 38.8715 68.3962C38.7528 67.9324 38.3821 67.9188 38.0817 67.8347C37.0181 67.5323 36.1072 67.0095 35.4603 66.1729C35.0266 65.6136 34.7383 65.7273 34.2077 66.066C32.1969 67.3527 30.0527 68.2598 27.5258 67.6119C27.1479 67.5141 26.8668 67.5119 26.845 67.9415C26.7287 70.299 26.5979 72.7496 28.9286 74.3C30.0745 75.0616 30.3192 75.8868 30.1908 77.0212C30.1666 77.244 30.1908 77.4736 30.1957 77.6987C29.3477 77.8283 29.0861 78.3557 29.2314 79.0718C29.4277 80.0493 28.8753 80.463 28.0031 80.7586C27.6881 80.8654 27.2666 80.7427 27.0534 81.0973H17.0669C16.9143 79.0695 16.8731 77.0621 17.7622 75.1298C18.3461 73.859 19.2692 72.8315 20.1777 71.7789C20.7567 71.1083 22.0989 66.7321 23.1915 65.1362C23.3078 63.4221 23.5017 61.3534 24.7906 60.1008C25.0982 60.0235 25.8226 60.1804 25.9244 59.8757C31.4507 49.7458 26.0916 59.728 26.1739 59.653" fill="#FCF0F0"/>
<path d="M29.5125 58.1753L29.5929 58.6688L29.5935 58.6687L29.5125 58.1753ZM35.9594 57.998L35.9479 57.4981L35.9472 57.4981L35.9594 57.998ZM37.9751 58.4435L37.6732 58.8421L37.6739 58.8427L37.9751 58.4435ZM42.2827 62.2355L42.7472 62.4205L42.8442 62.1772L42.6993 61.959L42.2827 62.2355ZM42.4426 62.8652L42.9063 62.678L42.9053 62.6755L42.4426 62.8652ZM45.622 76.5555L45.9222 76.1556L45.9221 76.1556L45.622 76.5555ZM48.006 81.2954L47.9959 81.7953L48.5238 81.8059L48.5057 81.2782L48.006 81.2954ZM38.1447 81.0973L38.074 81.5923L38.1042 81.5966L38.1346 81.5972L38.1447 81.0973ZM36.4367 78.8353L36.93 78.9169L36.9301 78.9159L36.4367 78.8353ZM35.4918 77.6759H34.9918V77.9252L35.1908 78.0752L35.4918 77.6759ZM35.4772 76.2074L34.9804 76.2633L34.9805 76.2645L35.4772 76.2074ZM36.3155 74.7502L36.0534 74.3243L36.0534 74.3244L36.3155 74.7502ZM38.8715 68.3962L38.3871 68.5202L38.3873 68.5207L38.8715 68.3962ZM38.0817 67.8347L37.945 68.3156L37.9469 68.3162L38.0817 67.8347ZM35.4603 66.1729L35.8558 65.867L35.8554 65.8665L35.4603 66.1729ZM34.2077 66.066L33.9387 65.6446L33.9382 65.6449L34.2077 66.066ZM27.5258 67.6119L27.4006 68.096L27.4016 68.0962L27.5258 67.6119ZM26.845 67.9415L26.3457 67.9162L26.3456 67.9169L26.845 67.9415ZM28.9286 74.3L28.6517 74.7163L28.6518 74.7165L28.9286 74.3ZM30.1908 77.0212L29.694 76.965L29.6938 76.9672L30.1908 77.0212ZM30.1957 77.6987L30.2712 78.1929L30.705 78.1266L30.6956 77.6879L30.1957 77.6987ZM29.2314 79.0718L29.7217 78.9734L29.7214 78.9723L29.2314 79.0718ZM28.0031 80.7586L27.8426 80.285L27.8425 80.2851L28.0031 80.7586ZM27.0534 81.0973V81.5973H27.3362L27.4819 81.3549L27.0534 81.0973ZM17.0669 81.0973L16.5683 81.1348L16.6031 81.5973H17.0669V81.0973ZM17.7622 75.1298L18.2165 75.3388L18.2166 75.3386L17.7622 75.1298ZM20.1777 71.7789L19.7993 71.4521L19.7992 71.4522L20.1777 71.7789ZM23.1915 65.1362L23.6041 65.4187L23.6812 65.3062L23.6904 65.1701L23.1915 65.1362ZM24.7906 60.1008L24.6687 59.6159L24.5384 59.6486L24.4421 59.7422L24.7906 60.1008ZM25.9244 59.8757L25.4855 59.6363L25.4642 59.6752L25.4502 59.7173L25.9244 59.8757ZM23.7054 64.9494C23.9928 62.3275 25.3028 60.7977 26.616 59.898C27.9458 58.987 29.2886 58.7184 29.5929 58.6688L29.432 57.6818C29.0532 57.7436 27.5495 58.0463 26.0508 59.0731C24.5356 60.1112 23.0352 61.8855 22.7114 64.8404L23.7054 64.9494ZM29.5935 58.6687C30.6252 58.4993 31.6667 58.4679 32.7321 58.4741C33.7815 58.4802 34.8892 58.5242 35.9715 58.4978L35.9472 57.4981C34.8806 57.5241 33.8381 57.4805 32.7379 57.4741C31.6537 57.4678 30.5463 57.4989 29.4315 57.6819L29.5935 58.6687ZM35.9708 58.4978C36.6658 58.4819 37.2958 58.5562 37.6732 58.8421L38.277 58.045C37.5981 57.5307 36.6436 57.4822 35.9479 57.4981L35.9708 58.4978ZM37.6739 58.8427C38.4781 59.4494 39.2372 59.955 39.9882 60.556C40.7188 61.1406 41.3684 61.762 41.8661 62.5119L42.6993 61.959C42.1214 61.0881 41.3839 60.392 40.613 59.7752C39.8626 59.1747 39.0057 58.5948 38.2762 58.0444L37.6739 58.8427ZM41.8182 62.0504C41.7058 62.3325 41.7605 62.5795 41.8319 62.7537C41.864 62.8318 41.903 62.9038 41.9271 62.9491C41.9556 63.0025 41.97 63.0304 41.98 63.0548L42.9053 62.6755C42.8729 62.5965 42.8339 62.5244 42.8094 62.4783C42.7804 62.4241 42.7666 62.3973 42.7571 62.3742C42.7491 62.3546 42.7526 62.3567 42.7537 62.3722C42.7551 62.392 42.7512 62.4105 42.7472 62.4205L41.8182 62.0504ZM41.979 63.0523C42.0536 63.2372 42.1344 63.5597 42.2191 64.0198C42.302 64.4706 42.3832 65.0209 42.4671 65.6427C42.6333 66.8752 42.8111 68.3984 43.0288 69.8932C43.247 71.3922 43.5105 72.9029 43.8573 74.1454C44.0307 74.7667 44.2287 75.3351 44.4593 75.8076C44.6862 76.2725 44.9651 76.6877 45.3219 76.9554L45.9221 76.1556C45.7495 76.0261 45.5558 75.7744 45.358 75.369C45.1639 74.9713 44.985 74.4661 44.8205 73.8766C44.4915 72.6977 44.2352 71.2385 44.0183 69.7491C43.8009 68.2556 43.6284 66.7719 43.4581 65.509C43.3737 64.8832 43.2899 64.3138 43.2025 63.8388C43.1169 63.3734 43.0218 62.9642 42.9063 62.678L41.979 63.0523ZM45.3218 76.9554C46.1375 77.5676 46.6607 78.2156 46.9914 78.9164C47.3238 79.6205 47.4751 80.4063 47.5063 81.3126L48.5057 81.2782C48.4714 80.2818 48.303 79.3523 47.8958 78.4896C47.487 77.6234 46.8509 76.8528 45.9222 76.1556L45.3218 76.9554ZM48.016 80.7955L38.1547 80.5974L38.1346 81.5972L47.9959 81.7953L48.016 80.7955ZM38.2154 80.6023C37.5821 80.5119 37.2526 80.3129 37.0851 80.0875C36.9188 79.8637 36.8324 79.5066 36.93 78.9169L35.9434 78.7538C35.8228 79.4826 35.8903 80.1564 36.2825 80.684C36.6734 81.21 37.3069 81.4827 38.074 81.5923L38.2154 80.6023ZM36.9301 78.9159C37.0163 78.3882 36.7585 78.0194 36.4921 77.7798C36.3651 77.6657 36.2249 77.5694 36.1071 77.4909C35.979 77.4055 35.8822 77.3441 35.7928 77.2767L35.1908 78.0752C35.311 78.1658 35.4492 78.2541 35.5526 78.3231C35.6664 78.3989 35.7544 78.4614 35.8234 78.5234C35.9489 78.6362 35.9539 78.6891 35.9432 78.7547L36.9301 78.9159ZM35.9918 77.6759C35.9918 77.2423 36.0339 76.6713 35.974 76.1502L34.9805 76.2645C35.032 76.7118 34.9918 77.1275 34.9918 77.6759H35.9918ZM35.9741 76.1514C35.9455 75.8972 35.9893 75.7439 36.0629 75.6246C36.1458 75.4903 36.2985 75.3478 36.5777 75.1759L36.0534 74.3244C35.7196 74.5299 35.4144 74.7716 35.212 75.0993C35.0004 75.4421 34.9315 75.8287 34.9804 76.2633L35.9741 76.1514ZM36.5776 75.176C39.0221 73.6715 40.0486 70.9657 39.3558 68.2717L38.3873 68.5207C38.9736 70.8008 38.1152 73.0554 36.0534 74.3243L36.5776 75.176ZM39.3559 68.2722C39.2585 67.8916 39.035 67.658 38.7668 67.5251C38.6482 67.4663 38.5309 67.432 38.4401 67.4086C38.3199 67.3775 38.2958 67.3754 38.2165 67.3532L37.9469 68.3162C37.9946 68.3295 38.0414 68.3409 38.081 68.3503C38.1234 68.3604 38.1565 68.3681 38.1902 68.3768C38.2571 68.3941 38.2963 68.408 38.3227 68.4211C38.3451 68.4322 38.3519 68.4396 38.3551 68.4435C38.3582 68.4473 38.3733 68.4661 38.3871 68.5202L39.3559 68.2722ZM38.2184 67.3537C37.2283 67.0723 36.4209 66.5978 35.8558 65.867L35.0647 66.4787C35.7934 67.4211 36.8079 67.9924 37.945 68.3156L38.2184 67.3537ZM35.8554 65.8665C35.6066 65.5457 35.2962 65.2808 34.8681 65.2827C34.5067 65.2843 34.1802 65.4904 33.9387 65.6446L34.4768 66.4875C34.6073 66.4042 34.6998 66.3499 34.7741 66.3159C34.847 66.2826 34.8734 66.2827 34.8726 66.2827C34.8297 66.2829 34.8803 66.2408 35.0652 66.4793L35.8554 65.8665ZM33.9382 65.6449C31.9669 66.9063 29.9741 67.7235 27.65 67.1276L27.4016 68.0962C30.1314 68.7961 32.4268 67.7992 34.4772 66.4872L33.9382 65.6449ZM27.651 67.1278C27.472 67.0815 27.1694 67.0108 26.8908 67.1056C26.7252 67.162 26.5786 67.2719 26.4791 67.4372C26.3869 67.5902 26.3536 67.7599 26.3457 67.9162L27.3444 67.9669C27.3474 67.9083 27.3573 67.9172 27.3358 67.9529C27.324 67.9725 27.3058 67.9948 27.2806 68.0147C27.2557 68.0345 27.2314 68.046 27.213 68.0523C27.1814 68.063 27.1749 68.0558 27.2179 68.0597C27.2584 68.0634 27.3169 68.0743 27.4006 68.096L27.651 67.1278ZM26.3456 67.9169C26.232 70.2198 26.0517 72.9868 28.6517 74.7163L29.2055 73.8837C27.1442 72.5125 27.2254 70.3781 27.3444 67.9662L26.3456 67.9169ZM28.6518 74.7165C29.1682 75.0596 29.4375 75.387 29.5774 75.7164C29.7192 76.05 29.7531 76.4434 29.694 76.965L30.6877 77.0775C30.757 76.4647 30.7328 75.8783 30.4978 75.3253C30.261 74.768 29.8349 74.302 29.2053 73.8836L28.6518 74.7165ZM29.6938 76.9672C29.6649 77.2325 29.6922 77.5423 29.6958 77.7094L30.6956 77.6879C30.6895 77.4049 30.6683 77.2555 30.6879 77.0753L29.6938 76.9672ZM30.1202 77.2044C29.6061 77.283 29.1761 77.4986 28.9209 77.8942C28.6711 78.2816 28.6541 78.7413 28.7414 79.1712L29.7214 78.9723C29.6634 78.6862 29.7046 78.5241 29.7612 78.4363C29.8125 78.3568 29.9373 78.244 30.2712 78.1929L30.1202 77.2044ZM28.7412 79.1702C28.8163 79.5444 28.7392 79.7265 28.6365 79.8476C28.5057 80.0019 28.2597 80.1437 27.8426 80.285L28.1636 81.2321C28.6187 81.0779 29.0849 80.8651 29.3993 80.4942C29.7419 80.0902 29.8428 79.5766 29.7217 78.9734L28.7412 79.1702ZM27.8425 80.2851C27.8189 80.2931 27.7794 80.3011 27.7001 80.3094C27.6399 80.3156 27.5148 80.325 27.4123 80.3411C27.1746 80.3786 26.8413 80.4797 26.6249 80.8397L27.4819 81.3549C27.4862 81.3479 27.4879 81.3469 27.4861 81.3485C27.4844 81.3502 27.4831 81.3508 27.4843 81.3501C27.4891 81.3475 27.5098 81.3381 27.5679 81.3289C27.6368 81.3181 27.6894 81.3159 27.8035 81.304C27.8985 81.2942 28.0298 81.2775 28.1637 81.2321L27.8425 80.2851ZM27.0534 80.5973H17.0669V81.5973H27.0534V80.5973ZM17.5655 81.0598C17.4134 79.0383 17.3853 77.1451 18.2165 75.3388L17.308 74.9208C16.3609 76.9791 16.4152 79.1007 16.5683 81.1348L17.5655 81.0598ZM18.2166 75.3386C18.7647 74.1455 19.6332 73.1749 20.5562 72.1056L19.7992 71.4522C18.9051 72.488 17.9275 73.5725 17.3079 74.9211L18.2166 75.3386ZM20.5562 72.1057C20.6716 71.972 20.7788 71.7826 20.8751 71.5915C20.9766 71.3902 21.0857 71.1464 21.1996 70.8775C21.4271 70.3407 21.6868 69.6718 21.957 68.9884C22.5096 67.5906 23.0968 66.1596 23.6041 65.4187L22.779 64.8538C22.1936 65.7087 21.5635 67.2637 21.027 68.6207C20.7527 69.3146 20.5001 69.9653 20.2789 70.4874C20.1685 70.748 20.0692 70.9687 19.9822 71.1413C19.89 71.3241 19.8286 71.4182 19.7993 71.4521L20.5562 72.1057ZM23.6904 65.1701C23.7486 64.3124 23.8242 63.4074 24.0361 62.5678C24.2476 61.7298 24.5854 60.9974 25.139 60.4594L24.4421 59.7422C23.7069 60.4568 23.3032 61.3851 23.0665 62.3231C22.8302 63.2595 22.7508 64.246 22.6927 65.1024L23.6904 65.1701ZM24.9124 60.5857C24.9123 60.5858 24.926 60.5826 24.9608 60.58C24.9941 60.5775 25.0353 60.5763 25.0873 60.5758C25.1763 60.5751 25.3294 60.5777 25.453 60.5732C25.5793 60.5685 25.7489 60.5558 25.9073 60.5024C26.0702 60.4474 26.3035 60.319 26.3986 60.0342L25.4502 59.7173C25.4944 59.5848 25.599 59.551 25.5878 59.5548C25.5722 59.56 25.5224 59.57 25.4164 59.5739C25.3077 59.5778 25.2157 59.5748 25.0791 59.5759C24.9695 59.5768 24.8108 59.5802 24.6687 59.6159L24.9124 60.5857ZM26.3633 60.1152C27.7455 57.5815 28.4449 56.3095 28.7188 55.8233C28.7529 55.7629 28.7798 55.7156 28.8003 55.6801C28.8217 55.643 28.8334 55.6235 28.8381 55.616C28.839 55.6146 28.8383 55.6157 28.8365 55.6184C28.8358 55.6195 28.8292 55.6295 28.8188 55.6426C28.8142 55.6486 28.8022 55.6638 28.7847 55.6817C28.7758 55.6906 28.7529 55.7116 28.7389 55.7232C28.7166 55.7399 28.6533 55.7781 28.6114 55.797C28.5341 55.8205 28.326 55.8216 28.2049 55.7796C28.0952 55.7054 27.9684 55.5294 27.9415 55.4482C27.9325 55.4002 27.928 55.3221 27.9295 55.2929C27.9313 55.2739 27.9362 55.242 27.9387 55.2291C27.9441 55.2039 27.9503 55.1849 27.9527 55.1776C27.9558 55.1683 27.9585 55.1613 27.96 55.1575C27.9629 55.15 27.965 55.1453 27.965 55.1451C27.9653 55.1445 27.9639 55.1477 27.9595 55.1569C27.9416 55.1941 27.9047 55.2669 27.8499 55.3734C27.796 55.4779 27.7273 55.6097 27.6477 55.7618C27.3288 56.3709 26.8403 57.2932 26.4351 58.0617C26.2328 58.4451 26.0512 58.7905 25.9226 59.038C25.8585 59.1613 25.8065 59.2624 25.7714 59.3323C25.7544 59.3661 25.7389 59.3976 25.7276 59.422C25.7246 59.4285 25.7212 59.4361 25.7177 59.4441C25.7148 59.4509 25.7093 59.4639 25.7037 59.4795C25.701 59.487 25.696 59.5013 25.691 59.5193C25.6888 59.5279 25.6841 59.548 25.6817 59.5597C25.6789 59.5761 25.6742 59.6175 25.6731 59.6426C25.6739 59.6833 25.6933 59.7942 25.7185 59.8616C25.7828 59.9659 25.9954 60.1207 26.1348 60.1519C26.2319 60.1499 26.3777 60.1097 26.4263 60.0847C26.4533 60.0676 26.4951 60.0362 26.5106 60.0226L25.8373 59.2833C25.8524 59.27 25.8939 59.2388 25.9207 59.2219C25.9691 59.197 26.1147 59.1568 26.2116 59.1549C26.3509 59.186 26.5633 59.3407 26.6275 59.4449C26.6527 59.5122 26.6721 59.6227 26.6729 59.6632C26.6716 59.7276 26.6574 59.7766 26.6555 59.7837C26.6509 59.8005 26.6464 59.8132 26.6443 59.8189C26.6376 59.8376 26.6319 59.849 26.6357 59.8409C26.6396 59.8325 26.6488 59.8134 26.6652 59.7808C26.6968 59.7176 26.7461 59.6219 26.8099 59.4992C26.937 59.2547 27.1173 58.9116 27.3196 58.5281C27.7233 57.7626 28.2138 56.8365 28.5336 56.2257C28.6914 55.9242 28.8135 55.6885 28.8609 55.5899C28.8672 55.5768 28.8741 55.5621 28.8803 55.548C28.8833 55.5412 28.8877 55.5309 28.8923 55.519C28.8938 55.5151 28.9075 55.4811 28.9168 55.4376C28.9194 55.4243 28.9244 55.3919 28.9263 55.3725C28.9278 55.343 28.9233 55.2646 28.9142 55.2163C28.8872 55.1349 28.7604 54.9588 28.6506 54.8845C28.5292 54.8425 28.321 54.8435 28.2435 54.8671C28.2014 54.8861 28.1378 54.9245 28.1152 54.9415C28.1009 54.9533 28.0777 54.9746 28.0684 54.9839C28.0502 55.0026 28.0372 55.0188 28.0315 55.0262C28.0112 55.0521 27.9951 55.0779 27.9908 55.0848C27.9635 55.1284 27.915 55.2128 27.8476 55.3325C27.5695 55.826 26.8664 57.1049 25.4855 59.6363L26.3633 60.1152Z" fill="#3048EA" mask="url(#path-9-inside-4_450_4256)"/>
<path d="M42.9628 60.839L43.0514 61.0728C43.5391 60.8881 44.005 60.907 44.5147 60.9702C44.6083 60.9818 44.7043 60.9951 44.8024 61.0087C45.2075 61.0649 45.6495 61.1262 46.112 61.093C48.0104 61.8979 50.4996 62.3303 52.4498 61.5802C54.381 61.4723 56.1499 61.9243 57.7822 62.8682C57.513 63.2391 57.3005 63.5702 57.1491 63.873C56.9678 64.2357 56.8669 64.5721 56.8709 64.8986C56.8785 65.525 57.2681 66.0159 57.9024 66.5237C57.7918 66.8937 57.6868 67.26 57.5822 67.6248C57.416 68.2047 57.2509 68.7807 57.0661 69.3616C56.4958 71.1525 56.5396 72.8047 57.1728 74.1558C57.8073 75.5095 59.0186 76.5287 60.7188 77.0773L60.7189 77.0773C61.2056 77.234 61.4936 77.39 61.6544 77.5813C61.7856 77.7374 61.8554 77.9466 61.8329 78.284C61.6338 78.3862 61.489 78.5267 61.3967 78.7085C61.2884 78.9216 61.2673 79.1633 61.2724 79.4L61.2724 79.4009C61.2768 79.5721 61.3127 79.74 61.3508 79.8915C61.3652 79.9491 61.3795 80.0026 61.3933 80.0541C61.4181 80.147 61.441 80.233 61.4601 80.324C61.5063 80.5446 61.5105 80.7165 61.4369 80.8683L45.3416 80.8478C45.3592 80.4898 45.4401 80.1277 45.5464 79.7593C45.6035 79.5616 45.6668 79.3659 45.7305 79.1687C45.7395 79.1411 45.7484 79.1135 45.7573 79.0858C45.8294 78.8623 45.901 78.6366 45.9595 78.414C46.0757 77.9717 46.1479 77.5157 46.0605 77.0737C45.9709 76.6208 45.7193 76.2089 45.2401 75.8486L45.2401 75.8486C45.0223 75.685 44.816 75.401 44.6263 74.9969C44.4381 74.5958 44.2752 74.096 44.1334 73.5231C43.8496 72.3773 43.6573 70.9698 43.5061 69.5413C43.4178 68.7066 43.3446 67.8765 43.2752 67.0893C43.2253 66.5233 43.1773 65.9795 43.1271 65.472C43.0675 64.8706 43.0052 64.3248 42.9333 63.8686C42.8623 63.4176 42.7793 63.0359 42.6729 62.7721C42.6465 62.7059 42.6138 62.6446 42.5882 62.5965L42.5881 62.5964C42.5601 62.544 42.54 62.5061 42.5246 62.4691C42.5013 62.4127 42.4975 62.3787 42.5082 62.3426C42.5773 62.2235 42.629 62.0831 42.6719 61.9516C42.695 61.8806 42.7171 61.8073 42.7384 61.7368L42.7393 61.7339C42.7611 61.6615 42.7822 61.5918 42.8042 61.5244C42.8489 61.3872 42.8928 61.275 42.9419 61.1918C42.9915 61.1076 43.0303 61.0808 43.0519 61.0726L42.9628 60.839ZM42.9628 60.839C42.7202 60.9315 42.6082 61.303 42.4994 61.6633C42.4345 61.8786 42.3707 62.09 42.281 62.2354L52.3959 61.3329C50.5086 62.0763 48.0432 61.6526 46.1534 60.8388C45.6991 60.88 45.27 60.8208 44.848 60.7625C44.2237 60.6762 43.6149 60.5921 42.9628 60.839Z" fill="#3048EA" stroke="#3048EA" stroke-width="0.5"/>
<path d="M36.1878 78.7928L36.1878 78.7929C36.0744 79.4867 36.1466 80.0811 36.4818 80.5327C36.5688 80.6498 36.6708 80.7537 36.7871 80.8452H28.4675C28.7593 80.7163 29.0181 80.5538 29.2066 80.3312C29.4891 79.9976 29.584 79.5665 29.4744 79.0205L29.4743 79.0199C29.4089 78.6978 29.4441 78.4614 29.549 78.2987C29.6492 78.1434 29.8441 78.0073 30.2081 77.9474C31.9368 78.0183 33.6761 78.0608 35.4163 77.9302C35.4849 77.9792 35.5562 78.0265 35.6236 78.0713C35.6455 78.0858 35.6669 78.1 35.6877 78.1139C35.8026 78.1908 35.9039 78.262 35.9877 78.3373C36.1493 78.4824 36.2172 78.6136 36.1878 78.7928Z" fill="#EFF5FF" stroke="#3048EA" stroke-width="0.5"/>
<path d="M35.9935 32.6229C35.9634 32.8328 35.8534 32.9965 35.7522 33.1245C35.7209 33.1641 35.6882 33.203 35.6583 33.2387L35.6483 33.2506C35.6146 33.2907 35.5842 33.3273 35.5561 33.3638C35.4997 33.4373 35.4612 33.5001 35.4393 33.5623L35.439 33.5632C35.2863 33.9903 34.9567 34.2528 34.5679 34.257C34.1878 34.2611 33.834 34.0171 33.6189 33.6124C33.2125 32.8519 32.6096 32.3154 31.8252 31.9099C31.7906 31.9127 31.7565 31.9158 31.7208 31.9192C31.6827 31.9227 31.6428 31.9264 31.5981 31.93C31.4942 31.9383 31.3791 31.9441 31.261 31.9345L31.2606 31.9345C30.2751 31.8532 29.5821 32.0883 29.1407 32.5242C28.6972 32.9621 28.464 33.6456 28.4905 34.5511C28.4905 34.5512 28.4905 34.5514 28.4905 34.5515L28.2406 34.5588C28.2434 34.6433 28.2382 34.7284 28.2311 34.8284L35.9935 32.6229ZM35.9935 32.6229C36.0267 32.614 36.0626 32.601 36.0979 32.5813L36.0992 32.5806C37.2291 31.9438 38.113 31.7886 38.813 32.0284C39.5123 32.268 40.1078 32.929 40.5954 34.117C40.5954 34.1171 40.5954 34.1172 40.5955 34.1172L40.8267 34.0223C40.8652 34.1178 40.9412 34.1987 41.0179 34.2802C41.0763 34.3424 41.1351 34.4049 41.178 34.4747M35.9935 32.6229L45.5597 21.1444C45.5369 21.3494 45.4623 21.5178 45.3467 21.6525C45.2338 21.7842 45.092 21.8716 44.9516 21.9343C44.8122 21.9965 44.6628 22.0392 44.5275 22.0746C44.4877 22.085 44.4496 22.0947 44.413 22.104C44.3184 22.128 44.2332 22.1496 44.1514 22.1755C42.6949 22.642 41.3355 23.1287 40.3505 24.1897C41.0166 24.895 41.5661 25.6728 41.7859 26.6975L41.7859 26.6976C41.8651 27.0671 42.085 27.3814 42.3803 27.6982C42.5148 27.8425 42.6596 27.9819 42.81 28.1268C42.8247 28.1409 42.8394 28.1551 42.8542 28.1693C43.0182 28.3273 43.1874 28.4921 43.3419 28.6662C44.5539 30.03 44.5947 31.9219 43.4656 33.3158L43.4654 33.316C43.2114 33.6289 42.9821 33.9531 42.7471 34.2855C42.6581 34.4113 42.5683 34.5382 42.4761 34.6662C42.476 34.6663 42.476 34.6663 42.4759 34.6664L42.2731 34.5202M41.178 34.4747L40.965 34.6056C40.9651 34.6057 40.9651 34.6057 40.9651 34.6058L41.178 34.4747ZM41.178 34.4747C41.5245 35.0385 41.8806 35.0658 42.2731 34.5202M42.2731 34.5202C42.3624 34.3963 42.4505 34.2718 42.5385 34.1473C42.7752 33.8126 43.0117 33.4783 43.2713 33.1585L42.2731 34.5202ZM46.4873 20.6096L46.4863 20.6096C46.1754 20.6096 45.964 20.6143 45.8134 20.6821C45.7484 20.7114 45.6984 20.752 45.6586 20.814C45.6167 20.8792 45.578 20.9812 45.5597 21.1442L46.4873 20.6096ZM46.4873 20.6096C47.7752 20.6045 49.062 20.5917 50.3475 20.5789C50.7699 20.5747 51.1921 20.5705 51.6142 20.5665C51.755 20.5833 51.8922 20.6199 51.9966 20.673C52.1074 20.7294 52.1481 20.7863 52.1593 20.8266C52.3294 21.4413 52.7004 21.7857 53.1405 22.0036C53.4484 22.1561 53.8083 22.2526 54.1412 22.3419C54.2562 22.3728 54.3679 22.4027 54.4732 22.4339C54.8437 22.5437 55.1963 22.6816 55.5602 22.8239C55.6632 22.8642 55.7672 22.9048 55.8727 22.9453C55.8316 23.066 55.7902 23.1869 55.7488 23.3081C55.6247 23.6708 55.5001 24.0352 55.3822 24.3994C54.7592 26.3138 54.9373 28.0114 55.6991 29.3443C56.4498 30.6576 57.7519 31.5899 59.3465 32.0286L59.3495 32.0314M46.4873 20.6096L59.3495 32.0314M25.4744 26.7147L25.4737 26.7145C25.0333 26.6181 24.6816 26.5387 24.4101 26.4475C24.138 26.356 23.914 26.2427 23.7525 26.0588C23.5879 25.8715 23.5142 25.6414 23.479 25.372C23.4444 25.1071 23.4438 24.775 23.448 24.3649L23.448 24.3645C23.4514 24.0847 23.4115 23.8831 23.326 23.7311C23.2486 23.5937 23.1203 23.473 22.8948 23.3742C22.0828 23.3742 21.1235 23.1658 20.1978 22.9647L20.1393 22.952C19.1906 22.7459 18.2796 22.5519 17.524 22.5555C17.1505 22.8447 16.8367 23.1981 16.5071 23.5692C16.393 23.6977 16.2771 23.8282 16.1561 23.959C15.6787 24.4751 15.1366 24.9745 14.3769 25.2025C14.1656 25.2661 13.9546 25.3278 13.7446 25.3893C12.2146 25.8367 10.7384 26.2684 9.59992 27.2906L9.59985 27.2907C8.83464 27.9771 8.302 28.8333 7.86342 29.7623C7.57287 30.3777 7.33006 31.0092 7.08674 31.6421C6.95913 31.974 6.83138 32.3063 6.69652 32.6368L6.69635 32.6373C6.53967 33.0192 6.37761 33.3989 6.20536 33.774C6.94138 33.4316 7.70506 33.131 8.46554 32.8316C8.66226 32.7542 8.85876 32.6768 9.05451 32.5989C10.8915 31.8664 12.6805 31.5763 14.5019 32.4177C16.4873 33.3331 18.1279 34.5902 18.9765 36.7734C19.6261 38.4412 19.7747 40.1159 19.7857 41.7719C19.79 42.4212 19.7731 43.0719 19.7563 43.7179C19.7517 43.8943 19.7471 44.0704 19.743 44.246C19.7236 45.0673 19.7138 45.8815 19.7563 46.6922L19.7563 46.6924C19.8214 47.9593 19.9364 49.1606 20.4075 50.4404L20.4076 50.4406C20.5331 50.7826 20.6774 51.1277 20.8265 51.4838C20.8791 51.6095 20.9322 51.7366 20.9854 51.8655C21.1871 52.3548 21.3854 52.8627 21.532 53.3843C21.8155 54.393 21.9099 55.4671 21.4656 56.5903L22.3491 57.8917C22.3554 57.4439 22.3599 56.9952 22.3645 56.546C22.3811 54.9226 22.3977 53.2923 22.4939 51.6691L22.4939 51.669C22.6304 49.3728 23.9656 47.5794 25.6034 46.0863L25.6036 46.0862C26.8544 44.9477 28.4072 44.249 30.1079 43.8918C30.259 43.8597 30.4098 43.8212 30.5177 43.7629C30.6237 43.7057 30.6236 43.669 30.6223 43.6483L30.6222 43.6469C30.6082 43.4184 30.6499 43.2258 30.7461 43.0657C30.841 42.9077 30.9753 42.8042 31.1064 42.7294C31.2152 42.6674 31.3359 42.6178 31.4388 42.5755C31.4557 42.5686 31.472 42.5619 31.4878 42.5553C31.5668 42.5225 31.6343 42.4926 31.6922 42.461C31.7507 41.9812 31.6559 41.6034 31.4531 41.2769C31.2296 40.9171 30.8636 40.6014 30.3732 40.2866C29.016 39.4155 28.5927 37.9693 28.2737 36.6334C28.2481 36.5263 28.2503 36.4026 28.2711 36.2951C28.2899 36.1975 28.3357 36.0525 28.451 35.9586L28.4518 35.958C28.5329 35.8925 28.6258 35.8511 28.7276 35.8424C28.8274 35.8338 28.9155 35.8585 28.9864 35.8917C29.1143 35.9517 29.2193 36.0576 29.2809 36.1196L29.2849 36.1236C29.9984 36.8384 30.886 37.0782 31.6746 36.9123C32.4619 36.7467 33.1775 36.1711 33.5372 35.1974C33.5924 35.048 33.6622 34.9258 33.7531 34.8325C33.8471 34.736 33.9535 34.6812 34.0628 34.6533C34.1662 34.627 34.2673 34.6263 34.3478 34.6284C34.3799 34.6293 34.4076 34.6305 34.4332 34.6316C34.4807 34.6336 34.5206 34.6353 34.5665 34.634L34.5737 34.8839M25.4744 26.7147L40.1968 37.039M25.4744 26.7147C26.0956 26.8487 26.6261 27.0199 27.0275 27.3998L25.4744 26.7147ZM34.5737 34.8839L34.5659 34.634C34.5837 34.6335 34.6042 34.6326 34.6262 34.6316C34.6772 34.6294 34.7361 34.6269 34.7872 34.6274C34.8666 34.6282 34.9605 34.6357 35.056 34.6687C35.2691 34.7423 35.4135 34.9142 35.5071 35.1803C35.7625 35.9035 36.212 36.4077 36.7868 36.6872C37.3642 36.968 38.0914 37.0331 38.9167 36.8325L38.9169 36.8325C38.9948 36.8136 39.0744 36.7898 39.1618 36.7637C39.1865 36.7563 39.2119 36.7488 39.2379 36.7411C39.3513 36.7076 39.4766 36.6726 39.6008 36.652C39.8455 36.6115 40.1552 36.6164 40.3835 36.8728M34.5737 34.8839C34.5984 34.8832 34.6229 34.8821 34.647 34.881C34.9083 34.8695 35.1294 34.8598 35.2714 35.2636L30.5083 40.0762C29.2436 39.2646 28.8366 37.9143 28.5168 36.5753C28.4853 36.4434 28.5168 36.2275 28.6089 36.1524C28.8003 35.9979 28.9747 36.1661 29.108 36.3002C30.6464 37.8415 32.9965 37.3823 33.7717 35.284C33.9282 34.8606 34.1577 34.8703 34.4121 34.881C34.465 34.8832 34.519 34.8855 34.5737 34.8839ZM40.3835 36.8728L40.1968 37.039M40.3835 36.8728C40.3835 36.8727 40.3834 36.8727 40.3834 36.8726L40.1968 37.039M40.3835 36.8728C40.6319 37.1513 40.6608 37.4829 40.5909 37.778C40.523 38.0651 40.3604 38.3335 40.1965 38.5402L40.196 38.5407C40.0658 38.7041 39.9477 38.882 39.8255 39.0706C39.8103 39.0942 39.7949 39.1179 39.7795 39.1418C39.6732 39.3063 39.5621 39.4783 39.4417 39.6424C39.1631 40.0222 38.8177 40.3844 38.2925 40.5987L38.2923 40.5988C37.7915 40.8025 37.5617 41.0766 37.4592 41.3801C37.3603 41.673 37.3686 42.0251 37.4349 42.435M40.1968 37.039C40.5578 37.4437 40.3034 38.0029 40.0006 38.3849C39.8443 38.5808 39.7069 38.7936 39.5692 39.0066C39.2183 39.5497 38.8663 40.0945 38.1981 40.3672C37.086 40.8196 37.0376 41.6585 37.2096 42.5996M37.4349 42.435C37.3969 42.4139 37.3581 42.3938 37.3186 42.3746L37.2096 42.5996M37.4349 42.435C37.4412 42.4744 37.4481 42.5143 37.4555 42.5547L37.2096 42.5996M37.4349 42.435C37.6372 42.5478 37.8153 42.6907 37.9533 42.884C38.1156 43.1113 38.2094 43.3894 38.2401 43.7302M37.2096 42.5996C37.6602 42.8179 37.9388 43.139 37.9921 43.7642M37.9921 43.7642L38.2413 43.7434L38.2412 43.743M37.9921 43.7642C38.0115 43.9961 38.4403 44.1318 38.8377 44.1705C39.955 44.2791 40.9223 44.757 41.8884 45.2342C41.9986 45.2886 42.1089 45.3431 42.2193 45.397C42.2432 45.3159 42.2678 45.2351 42.2931 45.1547M37.9921 43.7642L42.2931 45.1547M38.2401 43.7302C38.232 43.7211 38.2397 43.7254 38.2412 43.743M38.2401 43.7302C38.2418 43.732 38.2441 43.7345 38.2473 43.7375C38.2675 43.7564 38.3067 43.7824 38.371 43.8098C38.4992 43.8643 38.6786 43.9038 38.8619 43.9217C40.0289 44.0352 41.0437 44.5371 42.0093 45.0147C42.1044 45.0618 42.1989 45.1085 42.2931 45.1547M38.2401 43.7302C38.2405 43.7344 38.2409 43.7387 38.2412 43.743M38.2412 43.743L42.2931 45.1547M42.2931 45.1547C42.3692 45.1919 42.4449 45.2288 42.5205 45.265M42.2931 45.1547C42.7236 43.7883 43.3745 42.524 44.5589 41.499L44.559 41.4989C45.6487 40.5573 46.9195 40.1141 48.3427 40.0764L48.3493 40.3263L42.5205 45.265M42.5205 45.265C42.9424 43.9122 43.5745 42.6816 44.7225 41.688L42.5205 45.265ZM59.3495 32.0314L59.4108 32.0476M59.3495 32.0314L59.4108 32.0476M59.4108 32.0476C59.8869 32.1732 60.1116 32.3212 60.2247 32.4818C60.3255 32.6248 60.3672 32.819 60.3556 33.1273M59.4108 32.0476L59.6019 35.007C59.5554 34.6211 59.5904 34.2542 59.7314 33.9187C59.8586 33.6158 60.0669 33.3515 60.3556 33.1273M30.9859 36.7025L30.9859 36.7025C30.3989 36.6919 29.7769 36.3526 29.3142 35.9223C28.8561 35.4965 28.4852 34.9161 28.497 34.3629C28.497 34.3627 28.497 34.3626 28.497 34.3625L28.747 34.3679L30.9859 36.7025ZM30.9859 36.7025H30.9904H30.9859ZM37.7421 36.6839V36.7016L37.9889 36.7048C38.59 36.7126 39.1656 36.4334 39.589 36.0195C40.0126 35.6055 40.3062 35.0353 40.316 34.4311C40.316 34.4311 40.316 34.431 40.316 34.431L40.066 34.427L37.7421 36.6839ZM37.7421 36.6839C37.2297 36.6134 36.7575 36.3494 36.4014 35.9858C35.9888 35.5645 35.7136 34.9907 35.7192 34.386L35.7192 34.3858C35.7323 33.109 36.5582 32.0977 37.7341 32.138L37.7421 36.6839ZM60.3556 33.1273C60.3543 33.1635 60.3522 33.2012 60.3493 33.2407L60.5987 33.2585L60.4551 33.0539C60.4209 33.0778 60.3878 33.1023 60.3556 33.1273ZM30.9905 36.7025C31.5915 36.7135 32.1716 36.4336 32.5981 36.0217C33.025 35.6092 33.3236 35.0394 33.3264 34.4395L30.9905 36.7025Z" fill="#3048EA" stroke="#3048EA" stroke-width="0.5"/>
<path d="M57.2463 20.1878C57.4425 20.2339 57.429 20.3822 57.416 20.5234C57.4117 20.5706 57.4074 20.6169 57.4111 20.6584C57.5201 21.9906 57.7745 23.2614 58.6564 24.3844C59.4801 25.4324 60.0373 25.4506 60.8538 24.3049L57.2463 20.1878ZM57.2463 20.1878C57.1909 20.1751 57.1398 20.1726 57.093 20.1786L57.2463 20.1878ZM57.2221 19.9302C57.2485 19.9333 57.2753 19.938 57.3025 19.9442L57.3034 19.9445C57.4094 19.9693 57.5074 20.0204 57.5775 20.1101C57.6455 20.1972 57.6653 20.293 57.6707 20.3653C57.6756 20.4311 57.6695 20.4971 57.6655 20.54C57.6653 20.5421 57.6651 20.5443 57.665 20.5463C57.6601 20.5991 57.6588 20.6218 57.6601 20.6366L57.6603 20.638L57.6602 20.638C57.7679 21.9537 58.0166 23.1649 58.8529 24.2299C59.0525 24.4839 59.2253 24.6612 59.3792 24.7729C59.5311 24.8831 59.651 24.9196 59.7522 24.9174C59.8536 24.9151 59.9743 24.8731 60.1263 24.7523C60.2801 24.63 60.4523 24.4375 60.6502 24.1598L60.7949 23.9567L60.9984 24.1009C61.2863 24.305 61.5736 24.5092 61.8609 24.7133C62.4352 25.1214 63.009 25.5291 63.5852 25.935C64.1501 26.3325 64.811 26.1838 65.1177 25.6104C65.1577 25.5352 65.1922 25.4495 65.2317 25.3487C65.2343 25.3423 65.2368 25.3357 65.2394 25.3291C65.2752 25.2376 65.3159 25.1337 65.3648 25.0359C65.472 24.8216 65.6404 24.5926 65.9588 24.5068L57.2221 19.9302ZM57.2221 19.9302C58.0228 18.4942 59.583 17.4145 61.4122 16.7016C63.3441 15.9487 65.5565 16.1097 67.2708 17.183" fill="#EFF5FF" stroke="#3048EA" stroke-width="0.5"/>
<path d="M58.5165 62.9699C58.4366 63.0251 58.357 63.0818 58.2777 63.1401M58.5165 62.9699C58.5201 63.0077 58.5222 63.0434 58.5241 63.0733L58.5245 63.0796C58.5304 63.1765 58.5342 63.2309 58.5406 63.2585C61.0646 61.4596 63.8968 61.2337 66.8922 62.3584C64.1712 81.7959 72.366 85.3086 73.945 81.7959C74.5722 80.4007 77.6294 48.1742 69.2009 36.4366M58.5165 62.9699C58.5108 62.9094 58.5017 62.8437 58.485 62.7877C58.4725 62.7456 58.4416 62.6566 58.3588 62.5942C58.315 62.5613 58.2613 62.5395 58.2019 62.5352C56.5055 61.5142 54.6576 60.9975 52.6426 61.0696C52.643 60.9763 52.6442 60.8813 52.6455 60.7851C52.6508 60.3625 52.6565 59.9161 52.5958 59.4915L52.5957 59.4908C52.509 58.895 52.6127 58.4764 52.848 58.1773C53.0745 57.8892 53.4522 57.6742 54.008 57.5407C54.1998 57.6589 54.4244 57.7747 54.6604 57.8134C54.9572 57.862 55.2591 57.786 55.5167 57.5073L55.5171 57.5069C56.7548 56.1619 57.7485 54.6209 57.0294 52.6112L57.0292 52.6106C56.9769 52.4658 56.9414 52.3456 56.9395 52.2444C56.9379 52.1583 56.9599 52.099 57.0253 52.0453L57.0257 52.0449C57.5768 51.5906 57.775 51.1015 57.721 50.5894C57.6737 50.1409 57.4342 49.7091 57.1789 49.3141C57.4984 47.4721 56.9277 45.7546 56.354 44.1195L56.1181 44.2023L56.354 44.1195C55.7631 42.4358 54.3331 41.4319 52.9675 40.5095C54.4191 38.4259 56.4247 37.0586 59.0344 36.469L59.0344 36.469C59.4437 36.3765 59.7476 36.1946 59.9287 35.9097C60.1067 35.6295 60.1384 35.2923 60.0974 34.9454L60.0973 34.945C60.0589 34.6261 60.0906 34.3496 60.1913 34.11C60.2838 33.89 60.44 33.6875 60.6791 33.5062M58.5165 62.9699C61.0859 61.1953 63.9641 60.9919 66.9801 62.1244L67.1676 62.1947L67.1398 62.3931C65.783 72.086 67.1576 77.7504 69.0143 80.5452C69.9435 81.9437 70.9764 82.6015 71.8305 82.7268C72.6682 82.8497 73.3682 82.4692 73.717 81.6934C73.726 81.6735 73.7435 81.6201 73.7671 81.5194C73.7895 81.4236 73.8144 81.2979 73.8414 81.1428C73.8952 80.8328 73.9555 80.4139 74.0188 79.8973C74.1453 78.8648 74.2829 77.4499 74.4042 75.7527C74.6469 72.3583 74.8241 67.8403 74.7189 63.0001C74.6136 58.159 74.2259 53.0015 73.3405 48.3261C72.4647 43.7013 71.1062 39.5724 69.0717 36.6863M58.2777 63.1401L60.6003 33.2562C62.0819 33.2562 63.5613 33.2562 65.0426 33.2543L65.1528 33.4029C65.1792 33.4385 65.2035 33.4722 65.2256 33.5041M58.2777 63.1401C58.2771 63.1304 58.2765 63.1207 58.2759 63.1109C58.265 62.9312 58.2533 62.7397 58.1459 62.7936L58.2777 63.1401ZM69.2009 36.4366C69.0943 36.4366 68.9877 36.436 68.8811 36.4354C68.7745 36.4349 68.6679 36.4343 68.5613 36.4343M69.2009 36.4366V36.6866C69.1578 36.6866 69.1147 36.6865 69.0717 36.6863M69.2009 36.4366L68.9978 36.5824C69.0225 36.6169 69.0472 36.6515 69.0717 36.6863M68.5613 36.4343C67.8574 36.9851 67.3354 37.6779 66.8127 38.3716C66.3279 39.0151 65.8425 39.6594 65.2106 40.1921C64.806 40.5331 64.3626 40.931 64.1712 41.472C64.0937 41.6857 63.9362 41.9039 63.6673 41.8767C63.4154 41.8517 63.2773 41.6471 63.2264 41.4129C63.1972 41.2765 63.1572 41.1429 63.1172 41.0091C63.0311 40.7214 62.9449 40.4329 62.9647 40.1148M68.5613 36.4343L68.7153 36.6312C68.6928 36.6488 68.6705 36.6665 68.6484 36.6844M68.5613 36.4343V36.6843C68.5903 36.6843 68.6194 36.6843 68.6484 36.6844M62.9647 40.1148C62.9714 40.0045 62.9767 39.8917 62.9821 39.7775C63.03 38.7685 63.0829 37.6518 64.084 37.2413C64.9207 36.8986 64.8293 36.31 64.742 35.7471C64.6637 35.2423 64.5886 34.7582 65.1888 34.4906C65.2314 34.4727 65.2633 34.4363 65.2954 34.3999C65.3162 34.3762 65.337 34.3525 65.3608 34.3337C65.8293 33.9712 65.6214 33.6154 65.3562 33.2574L65.3563 33.5039C65.3128 33.504 65.2692 33.504 65.2256 33.5041M62.9647 40.1148L62.7152 40.0998C62.7152 40.0997 62.7152 40.0996 62.7152 40.0996M62.9647 40.1148L62.7152 40.0993C62.7152 40.0994 62.7152 40.0995 62.7152 40.0996M65.2256 33.5041C63.7094 33.5061 62.1952 33.5062 60.6791 33.5062M65.2256 33.5041C65.3184 33.638 65.3728 33.7412 65.3862 33.8296C65.3931 33.8751 65.3884 33.9146 65.369 33.9562C65.348 34.001 65.3033 34.0621 65.2078 34.136L65.2078 34.136L65.2061 34.1374C65.176 34.1611 65.1518 34.186 65.1344 34.2049C65.1255 34.2145 65.1172 34.2239 65.1105 34.2315L65.0928 34.2516C65.0865 34.2585 65.0821 34.263 65.0793 34.2657M60.6791 33.5062L63.6421 42.1254C63.2345 42.0847 63.0437 41.7495 62.9821 41.466L62.9819 41.4653C62.9544 41.3366 62.9197 41.2211 62.882 41.0957C62.8585 41.0172 62.8337 40.9348 62.8088 40.8428C62.7485 40.62 62.6982 40.3723 62.7152 40.0996M60.6791 33.5062L68.6484 36.6844M65.0793 34.2657C64.895 34.3491 64.7506 34.4565 64.6455 34.59C64.5385 34.7259 64.4824 34.8759 64.4572 35.0265C64.4151 35.2777 64.4586 35.5544 64.4949 35.7858C64.4995 35.8152 64.504 35.8439 64.5082 35.8717C64.5493 36.1436 64.5682 36.3588 64.5097 36.5401C64.4582 36.6995 64.3334 36.869 63.9893 37.01L63.9892 37.01C63.3335 37.2788 63.0326 37.8097 62.8886 38.3818C62.7764 38.8274 62.7528 39.3293 62.7317 39.7785C62.7264 39.8893 62.7214 39.9968 62.7152 40.0996M65.0793 34.2657C65.0769 34.2681 65.0758 34.269 65.0758 34.2691C65.0758 34.2691 65.0799 34.2659 65.087 34.2624C65.0885 34.2616 65.0901 34.2609 65.0919 34.2602L65.0918 34.2601L65.087 34.2623C65.0844 34.2634 65.0819 34.2646 65.0793 34.2657ZM69.0717 36.6863C69.0077 36.6861 68.9437 36.6858 68.8801 36.6854L68.8797 36.6854C68.8023 36.685 68.7253 36.6846 68.6484 36.6844M58.5403 63.2587C58.488 63.2959 58.4359 63.3338 58.384 63.3724C58.3197 63.4206 58.2972 63.3492 58.2857 63.2414C58.2856 63.2409 58.2856 63.2403 58.2855 63.2397C58.2826 63.2115 58.2803 63.1809 58.2783 63.1494C58.288 63.1459 58.2992 63.1429 58.3118 63.1407C58.3646 63.1318 58.4219 63.1429 58.4695 63.1748C58.51 63.202 58.5284 63.2341 58.5343 63.2455C58.5372 63.2511 58.5391 63.2557 58.5403 63.2587ZM58.9793 36.2252C59.7134 36.0592 59.9242 35.6091 59.8491 34.9748L58.9793 36.2252Z" fill="#B9BCFF" stroke="#3048EA" stroke-width="0.5"/>
<path d="M41.682 49.5263L41.7079 49.461C41.9753 48.788 41.9444 48.0941 41.9111 47.3434C41.9061 47.2315 41.9011 47.1184 41.897 47.0038C41.897 47.0038 41.897 47.0038 41.897 47.0037L42.1469 46.9948C42.1295 46.5137 42.1989 46.0817 42.4713 45.6933L41.682 49.5263ZM41.682 49.5263L41.6938 49.5955M41.682 49.5263L41.6938 49.5955M41.6938 49.5955C41.7957 50.1913 41.8927 50.7902 41.9898 51.3903C42.2071 52.733 42.4255 54.0821 42.7031 55.4179L42.7031 55.418M41.6938 49.5955L42.7031 55.418M42.7031 55.418C42.8823 56.2795 43.2817 56.9456 43.8381 57.3487C44.3845 57.7446 45.0597 57.8699 45.7663 57.7011C46.2756 57.7903 46.5831 57.9631 46.7564 58.1857C46.9334 58.4131 47.0073 58.7402 46.9447 59.2115L46.9447 59.2119M42.7031 55.418L46.9447 59.2119M46.9447 59.2119C46.8822 59.6876 46.8885 60.1827 46.8945 60.656C46.896 60.7782 46.8976 60.899 46.8979 61.0176C46.5842 61.0342 46.2709 61.0317 45.9489 61.029C45.7541 61.0274 45.5562 61.0258 45.353 61.0284C44.7472 61.0362 44.121 61.0829 43.5064 61.3029L43.5064 61.3029M46.9447 59.2119L43.5064 61.3029M22.4667 66.3312C22.4381 65.1365 22.3294 63.9343 22.2216 62.7418L22.2211 62.7368C22.0953 61.3462 21.9707 59.9688 21.9692 58.609C21.9842 57.8932 21.9918 57.1798 21.9995 56.4678C22.0168 54.8585 22.0341 53.257 22.1346 51.6547L22.4667 66.3312ZM22.4667 66.3312C22.5376 66.2849 22.6041 66.2497 22.6649 66.2175C22.6745 66.2124 22.684 66.2073 22.6934 66.2023C22.7773 66.1576 22.8338 66.1237 22.8864 66.073C22.9347 66.0263 22.9892 65.9557 23.0474 65.8316C23.616 62.902 24.8466 61.1575 26.0472 60.1307C27.2471 59.1045 28.402 58.8075 28.7994 58.7463C30.7446 58.4448 32.4981 58.4118 34.3666 58.3765C34.6911 58.3704 35.019 58.3642 35.352 58.3566L22.4667 66.3312ZM43.5064 61.3029C43.3392 61.3627 43.1768 61.5161 43.0419 61.6645M43.5064 61.3029L43.0419 61.6645M29.7424 44.3738L29.742 44.3739C28.019 44.7159 26.4724 45.3794 25.2369 46.4422C23.5511 47.8946 22.266 49.5655 22.1346 51.6547L29.7424 44.3738ZM29.7424 44.3738C29.8995 44.3423 30.1241 44.293 30.3091 44.1987M29.7424 44.3738L30.3091 44.1987M43.0419 61.6645C42.8971 61.8239 42.7463 62.0217 42.6047 62.2212M43.0419 61.6645L42.6047 62.2212M42.6047 62.2212C42.4336 62.4621 42.2689 62.7157 42.139 62.9196M42.6047 62.2212L42.139 62.9196M42.139 62.9196C41.9446 62.6295 41.7786 62.3644 41.6233 62.1162C41.041 61.1859 40.6082 60.4945 39.386 59.6212C39.22 59.5024 38.928 59.3659 38.5958 59.2318C38.2559 59.0947 37.8504 58.9511 37.441 58.8211C37.0316 58.6912 36.6147 58.5737 36.2519 58.4896C35.8972 58.4074 35.5703 58.3513 35.3524 58.3566L42.139 62.9196ZM30.3091 44.1987C30.4921 44.1053 30.7149 43.9232 30.6927 43.6089M30.3091 44.1987L30.6927 43.6089M30.6927 43.6089L30.4433 43.6264M30.6927 43.6089L30.4433 43.6264M30.4433 43.6264L30.6928 43.6103C30.6703 43.2616 30.73 43.1568 30.7805 43.1008M30.4433 43.6264C30.4663 43.9522 30.0097 44.0653 29.6934 44.1286L30.7805 43.1008M30.7805 43.1008C30.8138 43.0637 30.8612 43.0286 30.9421 42.9788M30.7805 43.1008L30.9421 42.9788M30.9421 42.9788C30.9617 42.9667 30.984 42.9534 31.0081 42.9389M30.9421 42.9788L31.0081 42.9389M31.0081 42.9389C31.0567 42.9098 31.1131 42.8761 31.1718 42.8382M31.0081 42.9389L31.1718 42.8382M31.1718 42.8382C31.5516 42.8389 31.974 42.845 32.413 42.8513C33.414 42.8656 34.5017 42.8812 35.3688 42.8378L31.1718 42.8382ZM41.6666 45.2819C41.8496 45.382 42.0401 45.4843 42.2428 45.5843L37.6452 42.0801C38.0616 42.2707 38.1022 42.8055 38.1439 43.3541C38.1497 43.4306 38.1555 43.5073 38.1623 43.5835L37.9133 43.6055C37.9133 43.6056 37.9133 43.6058 37.9134 43.6059C37.9278 43.7676 38.0396 43.8829 38.1219 43.9505C38.2142 44.0264 38.3304 44.0917 38.4488 44.1455C38.6855 44.2529 38.977 44.3348 39.2176 44.357L39.2405 44.1084L39.2176 44.357C39.8779 44.4176 40.3904 44.6132 40.894 44.866C41.0938 44.9663 41.2893 45.0741 41.4942 45.187C41.5509 45.2183 41.6082 45.2499 41.6666 45.2819ZM36.5351 42.7841C36.9136 42.7376 37.329 42.6366 37.6607 42.3935L35.3689 42.8378C35.4489 42.8338 35.548 42.8322 35.6592 42.8305C35.9139 42.8264 36.2328 42.8213 36.5351 42.7841Z" fill="#EFF5FF" stroke="#3048EA" stroke-width="0.5"/>
<path d="M4.18709 40.833C5.07138 40.8413 5.66954 40.4846 6.19771 39.989C6.44756 39.7546 6.67761 39.4929 6.91708 39.2206C6.94034 39.1942 6.96369 39.1676 6.98715 39.141C7.24843 38.8443 7.52285 38.5385 7.83215 38.2721C7.93722 38.1803 8.01907 38.0775 8.11503 37.9571C8.1586 37.9023 8.20509 37.844 8.25798 37.7813L8.25882 37.7803C8.40491 37.6091 8.54432 37.4622 8.68061 37.36C8.81583 37.2587 8.98056 37.1769 9.16858 37.1964C9.35875 37.2161 9.50607 37.3322 9.62223 37.4733C9.73849 37.6146 9.84794 37.8102 9.95976 38.0509C10.8394 39.9434 12.0716 41.5935 14.0577 42.61L14.0581 42.6102C14.7352 42.9585 15.4479 43.0453 16.2235 43.008C16.2235 43.008 16.2236 43.008 16.2236 43.0079L16.2357 43.2577C16.6064 43.2395 16.9843 43.2531 17.1321 43.6441L4.18709 40.833ZM4.18709 40.833L4.17938 40.8294L4.1227 40.8298C3.52578 40.8339 3.09849 40.624 2.77879 40.3161C2.45256 40.0018 2.22921 39.5759 2.06971 39.1411C1.90652 38.6943 1.96564 38.2583 2.16205 37.824C2.3612 37.3836 2.69587 36.9585 3.06215 36.553C4.54256 34.9156 6.54423 34.127 8.64652 33.2988C8.84333 33.2212 9.04103 33.1434 9.23926 33.0644L9.23934 33.0644C11.0171 32.3555 12.6489 32.1137 14.292 32.8727L14.2922 32.8728C16.2121 33.7579 17.7259 34.9378 18.5102 36.9556L18.5103 36.9558C19.1278 38.5411 19.2746 40.1457 19.2855 41.7763C19.2897 42.4166 19.2731 43.0566 19.2563 43.7014C19.2517 43.879 19.247 44.0569 19.2428 44.2353C19.2234 45.0587 19.2132 45.8886 19.2567 46.7191L4.18709 40.833ZM16.1553 53.3825C16.1062 53.3714 16.0583 53.3611 16.0115 53.351C15.7914 53.3036 15.5978 53.2619 15.4441 53.171C15.3603 53.1214 15.3014 53.0632 15.2639 52.9895C15.2261 52.9154 15.1996 52.8053 15.2151 52.6351L15.2152 52.6348C15.229 52.4804 15.1943 52.3429 15.1167 52.2271C15.0431 52.117 14.9417 52.0429 14.8484 51.99C14.7556 51.9374 14.654 51.8967 14.5688 51.8633C14.5591 51.8596 14.5497 51.8559 14.5405 51.8523C14.5191 51.8439 14.4988 51.836 14.4794 51.8283L16.1 53.6263M16.1553 53.3825L16.1 53.6263M16.1553 53.3825C16.1552 53.3825 16.1551 53.3825 16.1551 53.3825L16.1 53.6263M16.1553 53.3825C18.1499 53.8329 19.6977 54.9006 21.0819 56.1816M16.1 53.6263C18.0718 54.0715 19.6014 55.139 20.9888 56.4365C21.0232 56.3513 21.0542 56.2663 21.0819 56.1816M21.0819 56.1816C21.3785 55.2737 21.2956 54.3931 21.0504 53.5206C20.912 53.0283 20.723 52.5425 20.5229 52.0571C20.4721 51.934 20.4203 51.8104 20.3686 51.6867C20.2183 51.3274 20.0676 50.9673 19.9379 50.6139M21.0819 56.1816C21.1489 56.2437 21.2156 56.3062 21.2819 56.3692C21.8891 54.673 21.2243 53.0842 20.5974 51.5858C20.4477 51.228 20.3002 50.8754 20.1726 50.5278M19.9379 50.6139L20.1726 50.5278M19.9379 50.6139C19.938 50.614 19.938 50.6141 19.938 50.6141L20.1726 50.5278M19.9379 50.6139L20.1726 50.5278" fill="#EFF5FF" stroke="#3048EA" stroke-width="0.5"/>
<path d="M3.36153 44.6427C3.37098 43.5613 3.7124 42.4572 4.27472 41.3295C5.27333 41.3116 5.96431 40.886 6.53625 40.3499C6.80575 40.0973 7.05255 39.8166 7.28994 39.5466C7.31303 39.5203 7.33603 39.4942 7.35895 39.4682C7.62102 39.1707 7.87482 38.8889 8.15456 38.6475C8.29845 38.5237 8.42486 38.3643 8.53126 38.23C8.56839 38.1832 8.60309 38.1394 8.63525 38.1013C8.77548 37.9369 8.88505 37.8254 8.97484 37.758C9.06576 37.6898 9.10435 37.6909 9.11118 37.6916C9.11587 37.6921 9.15475 37.6969 9.23074 37.7888C9.3066 37.8806 9.39525 38.0303 9.50199 38.2588C10.4103 40.2128 11.7074 41.968 13.8255 43.0521L13.8256 43.0521C14.6066 43.4514 15.4149 43.542 16.2426 43.5044L16.2434 43.5044C16.4309 43.4952 16.5771 43.4978 16.689 43.5329C16.7824 43.5623 16.8498 43.613 16.8938 43.7295C16.9358 43.8407 16.9162 43.9148 16.8617 43.9933C16.7942 44.0906 16.6814 44.1795 16.5363 44.2894C16.5196 44.3019 16.5032 44.3143 16.4868 44.3265C16.2138 44.5315 15.9785 44.7082 15.7294 44.7632C15.5912 44.7935 15.444 44.8057 15.2789 44.8178C15.2695 44.8185 15.2601 44.8192 15.2506 44.8198C15.0988 44.8309 14.9305 44.8431 14.7679 44.8748C14.592 44.9092 14.4099 44.9683 14.2409 45.0825C14.0699 45.1979 13.9247 45.3611 13.8109 45.5854L13.8108 45.5857C13.3988 46.4001 13.3224 47.3419 13.6252 48.0904C14.0296 49.0922 14.0083 50.0755 13.9856 51.122C13.9812 51.3236 13.9767 51.5276 13.9753 51.7345C13.4116 51.7286 12.8444 51.7452 12.2831 51.7616C11.9661 51.7709 11.6509 51.7801 11.3393 51.7852C10.4545 51.7996 9.58283 51.7813 8.71993 51.6439C8.72279 51.5666 8.72777 51.4869 8.73298 51.4034C8.73642 51.3483 8.73997 51.2915 8.74308 51.2327C8.75446 51.0173 8.75929 50.7782 8.70993 50.5542C8.65889 50.3226 8.54816 50.099 8.32707 49.9274C8.11133 49.7599 7.81501 49.6612 7.42808 49.6257L7.42795 49.6256C6.34037 49.5264 5.61663 48.8982 4.82081 48.2074C4.72826 48.127 4.63473 48.0458 4.53954 47.9645C3.69322 46.862 3.35181 45.7555 3.36153 44.6427Z" fill="#FCF0F0" stroke="#3048EA" stroke-width="0.5"/>
<path d="M63.4521 78.2045C63.0793 78.2058 62.7069 78.2072 62.3353 78.2074C62.3422 77.8341 62.2534 77.5217 62.0359 77.2629C61.7789 76.9571 61.3731 76.7658 60.8714 76.6031L60.8709 76.6029C59.281 76.091 58.1902 75.1551 57.6233 73.946C57.0552 72.7342 56.9984 71.2157 57.5412 69.515L57.5413 69.5147C57.7265 68.9325 57.8967 68.339 58.0658 67.7497C58.1649 67.4044 58.2635 67.0605 58.3645 66.7211C58.3888 66.7253 58.4109 66.7293 58.4294 66.7329C58.5188 66.7504 58.5832 66.7689 58.632 66.7942L58.632 66.7942L58.633 66.7947C58.9998 66.9828 59.3666 67.1705 59.7334 67.3583C61.8289 68.4309 63.9216 69.5021 65.9916 70.6095C66.1359 70.687 66.2828 70.7347 66.4325 70.7288C66.5885 70.7226 66.7169 70.6595 66.8223 70.5711C66.9225 70.4871 67.0062 70.3768 67.081 70.2645C67.1409 70.1747 67.2031 70.0711 67.2675 69.9639C67.2838 69.9368 67.3002 69.9094 67.3168 69.882L67.3171 69.8815C67.4059 69.7337 67.4925 69.682 67.5654 69.663C67.6467 69.6419 67.754 69.6505 67.8983 69.7016C68.042 69.7525 68.1985 69.8368 68.3682 69.9382C68.4292 69.9746 68.4947 70.0151 68.5614 70.0563C68.636 70.1023 68.7122 70.1494 68.7855 70.1929C68.5576 70.6884 68.2188 71.0788 67.7183 71.3352L67.7181 71.3353C67.3283 71.5354 67.0613 71.8014 66.8811 72.1228C66.7037 72.4391 66.6174 72.7967 66.567 73.1702C66.4162 74.2839 67.0906 74.9834 67.6788 75.5935C67.6936 75.6089 67.7084 75.6242 67.7231 75.6395C67.518 75.968 67.4813 76.3114 67.495 76.632C67.5018 76.7916 67.5216 76.9526 67.5399 77.1013C67.5429 77.1254 67.5458 77.1491 67.5486 77.1724C67.5695 77.3454 67.5855 77.502 67.5824 77.6512C67.575 77.9637 67.5322 78.0819 67.4807 78.1363C67.4365 78.1831 67.3276 78.24 66.9893 78.2301L66.9892 78.2301C65.8099 78.1957 64.6286 78.2001 63.4521 78.2045Z" fill="#FFFEFE" stroke="#3048EA" stroke-width="0.5"/>
<path d="M69.2466 69.9868L69.2213 69.8377L69.0775 69.7908C69.0046 69.7671 68.9319 69.7425 68.8608 69.7186C68.737 69.6768 68.6181 69.6367 68.5115 69.6052C68.3402 69.5545 68.1665 69.5147 67.9955 69.5165C67.8167 69.5185 67.6457 69.5657 67.4842 69.6784C67.3283 69.7872 67.1941 69.948 67.0684 70.1562L67.068 70.1568C66.9138 70.4139 66.7642 70.545 66.6315 70.5971C66.5098 70.6448 66.3633 70.6413 66.1687 70.5368L66.1684 70.5366C65.1792 70.0074 64.1774 69.4502 63.1706 68.8901C61.7154 68.0807 60.2496 67.2653 58.7956 66.5201L58.7953 66.5199C58.7271 66.485 58.6452 66.4757 58.5971 66.4713C58.5367 66.4657 58.466 66.4636 58.3923 66.4634C58.2443 66.463 58.064 66.4702 57.8888 66.4783C57.8417 66.4805 57.7951 66.4827 57.7493 66.4849C57.6218 66.491 57.5012 66.4968 57.3972 66.5C57.3267 66.5022 57.2676 66.503 57.222 66.5022C57.2139 66.502 57.2068 66.5018 57.2005 66.5016C56.9093 66.2676 56.7693 66.0559 56.7156 65.8608C56.6592 65.6559 56.6867 65.4284 56.8057 65.1487C56.9262 64.8656 57.1313 64.5503 57.4021 64.1814C57.553 63.9758 57.7159 63.7645 57.8908 63.5377C58.0246 63.3642 58.1654 63.1816 58.3131 62.9856C58.4482 62.8992 58.5506 62.7666 58.6213 62.6743C58.632 62.6603 58.6422 62.6469 58.6519 62.6342C58.7324 62.5286 58.7821 62.4633 58.8317 62.4261L58.8525 62.4105L58.8697 62.3909C60.1231 60.9593 61.8339 60.728 63.4348 60.6987L63.4348 60.6987C66.187 60.6479 68.7664 61.9794 70.2859 64.1303L70.286 64.1304C70.4759 64.3988 70.6564 64.663 70.8203 64.9073L70.8204 64.9074C71.5812 66.0401 71.8505 67.4084 71.49 68.6848C71.345 69.1948 71.11 69.6772 70.7374 70.0495C70.2551 70.5312 69.8375 70.9454 69.4774 71.2995C69.4795 71.2881 69.4812 71.2747 69.4816 71.26C69.4825 71.2316 69.4793 71.1686 69.4364 71.1073L69.2466 69.9868Z" fill="#FCF0F0" stroke="#3048EA" stroke-width="0.5"/>
<path d="M4.36113 48.1406C4.46021 48.225 4.55848 48.3105 4.65671 48.396C5.44721 49.0835 6.23448 49.7683 7.40894 49.8775C8.57513 49.9845 8.5313 50.6847 8.48771 51.381C8.4776 51.5426 8.4675 51.7039 8.47252 51.8575L3.12796 56.893C1.27214 54.1672 1.747 50.5822 4.18912 48.302C4.24724 48.2498 4.30295 48.1952 4.35865 48.1407L4.35871 48.1406M4.36113 48.1406H4.35871M4.36113 48.1406L4.36001 48.1419L4.35871 48.1406M4.36113 48.1406V48.1431L4.35871 48.1435V48.1406M7.38579 50.1264L7.38609 50.1264C7.7175 50.1568 7.90998 50.2365 8.02418 50.3252C8.13303 50.4097 8.19341 50.5198 8.22535 50.6647C8.25897 50.8173 8.25866 50.9975 8.24747 51.2092C8.24498 51.2563 8.24189 51.3056 8.23871 51.3563C8.23147 51.4717 8.22377 51.5944 8.22174 51.7151C7.92746 51.8888 7.55176 52.1343 7.49253 52.6424L7.49243 52.6433C7.46577 52.8793 7.34171 53.0457 7.16568 53.1666C6.98381 53.2915 6.75156 53.3624 6.54314 53.3897C6.15487 53.4399 5.82407 53.7241 5.54684 54.0486C5.26263 54.3812 4.99201 54.8083 4.7358 55.2264C4.69323 55.2959 4.65107 55.3651 4.60925 55.4337C4.39491 55.7854 4.18954 56.1224 3.98446 56.4054C3.79776 56.663 3.63054 56.8474 3.48165 56.9555C3.43655 56.8981 3.3874 56.8304 3.33513 56.753L3.33461 56.7523C1.55218 54.1343 2.00284 50.6868 4.35807 48.4863C4.36155 48.4832 4.36501 48.48 4.36847 48.4769C4.40923 48.5123 4.45012 48.548 4.49119 48.5838C5.27594 49.2681 6.12597 50.0092 7.38579 50.1264Z" fill="#EFF5FF" stroke="#3048EA" stroke-width="0.5"/>
<path d="M67.0605 73.2358L67.0605 73.2358C67.1071 72.8906 67.1813 72.6037 67.3144 72.366C67.4445 72.1335 67.6376 71.9359 67.9442 71.779L67.9443 71.779C68.4022 71.5445 68.7469 71.2162 69.0035 70.8248C69.1127 71.0472 69.2407 71.2495 69.365 71.4381C69.3958 71.4848 69.4262 71.5305 69.456 71.5753C69.6429 71.8562 69.8081 72.1045 69.9152 72.3751C70.0337 72.6745 70.0771 72.9953 69.9648 73.3944C69.85 73.8029 69.5677 74.309 69.0007 74.9616C68.8413 75.1448 68.7109 75.2584 68.5777 75.3219C68.4678 75.3742 68.3405 75.3996 68.1672 75.3809C68.1251 75.3365 68.0834 75.2928 68.0422 75.2496C67.438 74.6166 66.9439 74.0989 67.0605 73.2358Z" fill="#FCF0F0" stroke="#3048EA" stroke-width="0.5"/>
<path d="M28.4879 74.0533L28.488 74.0534C29.1611 74.4916 29.5928 74.9621 29.83 75.5069C30.0663 76.0498 30.0967 76.6372 30.0217 77.2842C30.0102 77.3883 30.0104 77.4975 30.0146 77.6178C30.016 77.6562 30.0179 77.6975 30.0199 77.7402C30.0202 77.747 30.0205 77.7538 30.0208 77.7606C31.8533 77.8317 33.6768 77.8693 35.495 77.7437C35.4965 77.6402 35.4989 77.5387 35.5013 77.4385C35.51 77.0784 35.5182 76.7365 35.479 76.3889L35.7274 76.3609M28.4879 74.0533L38.6608 67.1516L38.5932 67.3922C38.5934 67.3923 38.5935 67.3923 38.5937 67.3924C38.6483 67.4077 38.7137 67.4232 38.7724 67.437C38.8056 67.4449 38.8366 67.4522 38.8624 67.4587C38.9458 67.4799 39.0147 67.5014 39.0738 67.5299C39.1764 67.5794 39.2617 67.6538 39.3086 67.8326L39.3086 67.8328C40.0009 70.4614 38.9876 73.0759 36.5429 74.5437L36.5428 74.5438C36.1843 74.7593 35.8877 74.995 35.6966 75.2974C35.5003 75.6079 35.4301 75.9643 35.4791 76.3895L35.7274 76.3609M28.4879 74.0533C25.9998 72.4369 26.1223 69.9009 26.2546 67.2817L26.0049 67.2691L26.2546 67.282C26.2594 67.1891 26.2776 67.146 26.2881 67.1291C26.2949 67.1181 26.3007 67.1128 26.3168 67.1075C26.3395 67.0999 26.3817 67.094 26.4537 67.1004C26.5244 67.1066 26.6094 67.1233 26.7105 67.1489L26.711 67.149M28.4879 74.0533L26.711 67.149M35.7274 76.3609C35.7685 76.7254 35.7598 77.0957 35.751 77.4656C35.747 77.6361 35.7429 77.8065 35.7438 77.9762C33.7573 78.1287 31.768 78.0812 29.7788 78.0012L35.7274 76.3609ZM26.711 67.149C29.656 67.8864 32.145 66.8461 34.4298 65.4183L26.711 67.149Z" fill="#B9BCFF" stroke="#3048EA" stroke-width="0.5"/>
<path d="M47.0249 59.3573C47.0934 58.8111 47.0249 58.3314 46.7514 57.9592C46.4915 57.6056 46.0782 57.3922 45.5422 57.2884C45.5108 57.252 45.4807 57.2157 45.4489 57.1773C45.4163 57.1379 45.3819 57.0964 45.3426 57.0506C45.2515 56.9447 45.1458 56.8315 45.0167 56.7364C44.3316 56.2234 43.9711 55.5082 43.6014 54.7254C43.4987 54.5072 43.444 54.3522 43.425 54.2409C43.4067 54.1339 43.426 54.0974 43.4362 54.0829C43.4515 54.061 43.4956 54.0204 43.6267 53.9782C43.7557 53.9367 43.9357 53.9038 44.1817 53.8729L44.1819 53.8729C44.2595 53.8631 44.341 53.8569 44.4324 53.85C44.4647 53.8476 44.4983 53.8451 44.5335 53.8422C44.6623 53.8319 44.8046 53.818 44.9459 53.7895C45.2294 53.7323 45.5371 53.6106 45.75 53.3102L45.7501 53.3101C46.1337 52.7683 46.6386 52.325 47.1695 51.8589C47.2532 51.7854 47.3375 51.7113 47.4222 51.6362C48.0044 51.1196 48.5923 50.5583 48.976 49.8197C49.7766 49.6369 50.588 49.5968 51.415 49.6044C51.8056 49.6079 52.1968 49.622 52.592 49.6362C52.635 49.6378 52.6779 49.6393 52.7209 49.6409C53.1199 49.6551 53.5226 49.6683 53.9262 49.6693C54.0367 49.813 54.1207 49.9825 54.1971 50.175C54.2427 50.2899 54.284 50.4086 54.3274 50.5334L54.3277 50.5342C54.3706 50.6575 54.4156 50.787 54.4664 50.9141C54.5678 51.1685 54.698 51.4304 54.9042 51.6554C55.0996 51.8687 55.3543 52.0395 55.6956 52.1474C55.6965 52.1502 55.6975 52.1532 55.6984 52.1564C55.7061 52.1815 55.7122 52.2098 55.7155 52.2366C55.719 52.2647 55.7186 52.2829 55.7178 52.2898L55.7178 52.2903C55.6923 52.5217 55.6856 52.7534 55.6792 52.974C55.6776 53.0274 55.6761 53.0801 55.6743 53.1321C55.665 53.4042 55.6491 53.6643 55.5954 53.9271L55.5954 53.9271C55.345 55.1512 55.0128 56.0191 54.4912 57.0699C53.8883 57.2079 53.3097 57.4004 52.8936 57.729C52.6677 57.9073 52.4857 58.1288 52.3761 58.4049C52.2665 58.6809 52.2355 58.9959 52.2873 59.3519L52.2873 59.3523C52.3251 59.6091 52.2925 59.9303 52.2438 60.2902C52.237 60.3404 52.2299 60.3914 52.2227 60.4431C52.1893 60.682 52.1542 60.933 52.1434 61.1653C50.4158 61.8122 48.701 61.8762 46.9846 61.1834C46.9851 61.0184 46.9831 60.8566 46.9811 60.6972C46.9754 60.2389 46.97 59.7996 47.0249 59.3573Z" fill="#FCF0F0" stroke="#3048EA" stroke-width="0.5"/>
<path d="M55.0223 13.6634C55.0054 13.286 55.032 12.9087 55.0175 12.5313C54.9957 11.9311 55.1023 11.2809 54.8842 10.749C54.6105 10.0829 53.7819 10.5762 53.261 10.3443C52.8297 10.1534 52.2871 10.0147 52.023 9.68961C51.3567 8.86212 50.6226 8.66207 49.6051 9.03717C48.8952 9.2986 48.1636 9.29633 47.3834 9.08945C46.4022 8.83029 46.0243 9.87375 45.2781 10.192C44.9268 10.3421 44.6603 10.6853 44.2169 10.6194C43.1679 10.4648 42.8771 10.9354 42.974 11.8379C43.0976 12.9928 42.7875 14.1726 43.1945 15.3161C43.6573 16.6165 44.481 17.644 45.7214 18.3715C45.8571 18.451 46.0243 18.5079 46.1212 18.6193C46.3756 18.9148 46.0533 19.3195 45.9831 19.6309C46.2108 19.8673 45.6706 20.1356 45.845 20.4107C47.3931 20.4038 50.0848 20.3288 51.6329 20.3152C51.6353 20.2652 51.6402 20.2151 51.6475 20.1651C51.1774 19.4149 51.3228 18.8921 52.1635 18.4192C54.0508 17.3553 55.1168 15.8072 55.0247 13.6634H55.0223Z" fill="#FCF0F0"/>
<path d="M22.5348 5.82831V5.82923L22.74 5.8666C24.0213 6.09995 25.247 6.56385 26.3141 7.25787L26.3142 7.25794C26.5569 7.41564 26.7751 7.58272 26.9544 7.78951L26.9546 7.78973C26.9687 7.80598 26.9828 7.82213 26.9967 7.83818C27.3397 8.23238 27.6359 8.57286 27.8159 9.00799L27.8161 9.00844C28.0599 9.59444 28.101 9.89277 28.0002 10.1331C27.9481 10.2574 27.8485 10.3891 27.6694 10.5446C27.4976 10.6938 27.2638 10.8555 26.9526 11.0478C26.9043 11.0539 26.8584 11.0577 26.8082 11.0619C26.7611 11.0658 26.7103 11.0701 26.6498 11.0768C26.5229 11.091 26.3723 11.1155 26.232 11.1837L26.2317 11.1839C25.4886 11.5463 24.753 11.9148 24.0187 12.2826C22.8735 12.8562 21.7313 13.4282 20.5684 13.9739C20.2887 14.1051 20.0215 14.2968 19.7767 14.4724C19.7674 14.479 19.7581 14.4857 19.7489 14.4923C19.4875 14.6797 19.25 14.847 19.0102 14.9535C18.7765 15.0572 18.5586 15.0947 18.3343 15.0385C18.1065 14.9815 17.8359 14.8188 17.518 14.4506L17.5175 14.45C17.4352 14.3553 17.3134 14.2957 17.2069 14.2586C17.0927 14.2189 16.9611 14.1928 16.828 14.1846C16.5808 14.1692 16.2417 14.2118 16.0359 14.4509L16.0353 14.4515C15.8657 14.65 15.8654 14.8811 15.9115 15.0701C15.9543 15.2455 16.0456 15.4222 16.1176 15.5615L16.1225 15.571C16.1225 15.5712 16.1226 15.5714 16.1227 15.5716C16.3756 16.0666 16.7873 16.3372 17.1825 16.597L17.1914 16.6029L17.1919 16.6032C17.7796 16.9876 18.0816 17.469 18.1414 17.9601C18.2015 18.4528 18.0235 19.0009 17.5602 19.5274C17.4243 19.6814 17.2903 19.8402 17.1588 19.996C17.1204 20.0415 17.0823 20.0868 17.0443 20.1316C15.432 20.1934 14.6108 19.9583 14.0333 19.3638C13.7293 19.0509 13.4774 18.6232 13.223 18.0409C12.9703 17.4626 12.7233 16.7516 12.419 15.8758L12.4117 15.855L12.3243 15.6034L12.0788 15.7065C11.2617 16.0497 10.5994 16.0585 10.1116 15.8033C9.62563 15.549 9.24425 14.9966 9.06819 14.0629L9.06817 14.0628C8.78509 12.5651 8.79457 11.0822 9.83924 9.7731C10.3681 9.11072 10.9548 8.66899 11.5759 8.4763C12.1913 8.28535 12.8644 8.33124 13.5894 8.68677C13.786 8.78339 13.9545 8.85033 14.103 8.87768C14.2601 8.90661 14.4074 8.89335 14.5425 8.81668C14.6657 8.74672 14.7518 8.63789 14.82 8.54054C14.8537 8.49246 14.8881 8.43941 14.9224 8.3865L14.9276 8.37853C14.9644 8.32171 15.0029 8.26262 15.0463 8.19973L15.0465 8.19945C15.9596 6.8736 17.4569 6.3047 19.1303 5.87648C20.2894 5.57984 21.4093 5.6384 22.5348 5.82831Z" fill="#FCF0F0" stroke="#3048EA" stroke-width="0.5"/>
<path d="M31.9412 23.4628C29.9985 24.1124 28.432 25.3414 27.4701 27.1161H27.7559M31.9412 23.4628L24.3023 30.9943C25.4804 30.0319 26.4237 28.8851 27.1962 27.6161H27.3404H27.3453V27.3685L27.3726 27.382L27.5644 27.4772C27.6254 27.3543 27.6892 27.2339 27.7559 27.1161M31.9412 23.4628C34.691 22.5398 37.5038 22.2124 40.0138 24.1993M31.9412 23.4628L40.0138 24.1993M27.7559 27.1161C28.6897 25.4662 30.1761 24.3166 32.0205 23.6999L32.0208 23.6998C34.7404 22.7869 37.4409 22.4897 39.8465 24.3857M27.7559 27.1161H27.7809L27.5612 27.4922C26.7493 28.8819 25.7424 30.1407 24.4605 31.1879L24.4601 31.1883C24.2978 31.3202 24.1812 31.4331 24.1065 31.5311C24.0311 31.6299 24.0145 31.6923 24.0142 31.7279C24.0139 31.7556 24.0228 31.8028 24.0951 31.8768C24.1714 31.9549 24.3042 32.0472 24.5186 32.1518M39.8465 24.3857L24.4089 32.3765M39.8465 24.3857C40.5518 25.1048 41.0932 25.8385 41.3005 26.8047M39.8465 24.3857C39.8505 24.3889 39.8546 24.3921 39.8586 24.3953L40.0138 24.1993M39.8465 24.3857C39.8428 24.382 39.8392 24.3783 39.8355 24.3746L40.0138 24.1993M39.8465 24.3857L40.0138 24.1993M24.5186 32.1518C24.5186 32.1518 24.5186 32.1518 24.5186 32.1518L24.4089 32.3765M24.5186 32.1518L24.4089 32.3765M24.5186 32.1518C25.4073 32.5855 26.1129 33.2393 26.7617 33.9099M24.4089 32.3765C25.2569 32.7903 25.9377 33.4177 26.5821 34.0838M26.7617 33.9099L26.5821 34.0838M26.7617 33.9099C27.1042 34.2635 27.4995 34.5542 27.9899 34.7459M26.7617 33.9099C26.7617 33.9099 26.7618 33.9099 26.7618 33.9099L26.5821 34.0838M26.5821 34.0838L27.9899 34.7459M27.9899 34.7459C27.994 34.6821 27.9962 34.6273 27.9943 34.5694L27.9942 34.5685C27.9651 33.576 28.2188 32.7376 28.7929 32.1708C29.3689 31.6019 30.224 31.3494 31.305 31.4385M27.9899 34.7459L31.2847 31.6877M31.305 31.4385C31.3051 31.4385 31.3052 31.4385 31.3052 31.4385L31.2847 31.6877M31.305 31.4385C31.305 31.4385 31.3049 31.4385 31.3049 31.4385L31.2847 31.6877M31.305 31.4385C31.3831 31.4448 31.4666 31.4415 31.5618 31.4339C31.5925 31.4315 31.6269 31.4283 31.6631 31.425C31.7065 31.421 31.7525 31.4167 31.7975 31.4133M31.2847 31.6877C31.4196 31.6986 31.5569 31.6859 31.694 31.6732C31.7563 31.6675 31.8186 31.6617 31.8807 31.6581M31.7975 31.4133C31.7776 31.4259 31.7578 31.4391 31.7382 31.4527L31.8807 31.6581M31.7975 31.4133C32.2656 31.1152 32.8176 31.0651 33.2882 31.1226C33.7721 31.1817 34.222 31.361 34.4572 31.5645L34.4809 31.585L34.4988 31.6107C34.5735 31.7178 34.7378 31.8081 35.0082 31.9003C35.1043 31.9331 35.2031 31.9629 35.3067 31.9941C35.3429 32.0051 35.3797 32.0162 35.4172 32.0277C35.5374 32.0644 35.6624 32.1044 35.7814 32.1511M31.7975 31.4133C31.8209 31.4114 31.844 31.4098 31.8664 31.4085L31.8807 31.6581M31.8807 31.6581L35.7814 32.1511M35.7814 32.1511C35.761 32.1526 35.7352 32.1548 35.7087 32.1587L35.7449 32.4061M35.7814 32.1511L34.2937 31.7536C34.4668 32.0019 34.8525 32.1182 35.238 32.2346C35.4137 32.2876 35.5894 32.3406 35.7449 32.4061M35.7814 32.1511C35.8018 32.1591 35.822 32.1672 35.8419 32.1757L35.7449 32.4061M35.7814 32.1511C35.7832 32.1509 35.7849 32.1508 35.7866 32.1507C35.8104 32.1489 35.8254 32.148 35.841 32.1463C35.8543 32.1449 35.8618 32.1435 35.8653 32.1428M35.7449 32.4061C35.7681 32.4027 35.7926 32.4009 35.8172 32.3991C35.8751 32.3949 35.9341 32.3906 35.9799 32.3651C36.546 32.5652 37.1723 32.54 37.7917 32.515C38.9945 32.4665 40.1714 32.4191 40.8302 34.0247C40.8688 34.1202 40.9447 34.201 41.0214 34.2826C41.0798 34.3447 41.1386 34.4073 41.1815 34.4771C41.528 35.0409 41.8841 35.0681 42.2766 34.5225C42.3659 34.3987 42.454 34.2741 42.542 34.1497C42.7788 33.8149 43.0152 33.4806 43.2748 33.1608M35.8653 32.1428L35.8584 32.1466C35.864 32.1436 35.8676 32.1424 35.8676 32.1423C35.8676 32.1423 35.8669 32.1425 35.8653 32.1428ZM35.8653 32.1428L35.957 32.0919L36.0632 32.1294C36.4368 32.2615 36.8496 32.2875 37.2961 32.2807C37.4459 32.2785 37.6038 32.2722 37.765 32.2657C38.0645 32.2538 38.3753 32.2414 38.6658 32.2537C39.1256 32.2732 39.5922 32.3536 40.0144 32.6078C40.4406 32.8644 40.7959 33.2823 41.0615 33.9298L41.0621 33.9312C41.0767 33.9675 41.109 34.01 41.1771 34.0831C41.1845 34.0911 41.1926 34.0996 41.2012 34.1087C41.2582 34.1691 41.3369 34.2525 41.3945 34.346L41.3945 34.3462C41.5604 34.6161 41.6757 34.6637 41.7243 34.6661C41.7697 34.6684 41.8868 34.6364 42.0737 34.3765L42.0738 34.3763C42.1602 34.2565 42.2465 34.1345 42.3335 34.0115C42.5717 33.6746 42.8153 33.3302 43.0805 33.0034M43.0805 33.0034L43.2748 33.1608M43.0805 33.0034C43.0806 33.0034 43.0806 33.0033 43.0807 33.0033L43.2748 33.1608M43.0805 33.0034C44.0544 31.8012 44.0224 30.1831 42.9716 29.0007L42.9715 29.0005C42.8316 28.8428 42.6753 28.6903 42.5108 28.5317C42.4958 28.5173 42.4808 28.5029 42.4658 28.4884C42.317 28.3452 42.1623 28.1963 42.018 28.0415C41.7004 27.7008 41.4079 27.3058 41.3005 26.8047M43.2748 33.1608C44.3263 31.8627 44.2899 30.1077 43.1585 28.8347C42.998 28.6537 42.8189 28.4813 42.6396 28.3087C42.1611 27.8481 41.6806 27.3856 41.545 26.7523M41.3005 26.8047L41.545 26.7523M41.3005 26.8047C41.3005 26.8047 41.3005 26.8047 41.3005 26.8047L41.545 26.7523M41.545 26.7523C41.3221 25.7134 40.7382 24.9359 40.0138 24.1993" fill="#B9BCFF" stroke="#3048EA" stroke-width="0.5"/>
<path d="M54.0429 49.1683L54.0442 49.1683C54.0444 49.1683 54.0445 49.1683 54.0446 49.1683M54.0429 49.1683L56.9176 49.3683C56.4391 49.3762 55.9606 49.3847 55.4821 49.3933C55.0037 49.4018 54.5252 49.4103 54.0467 49.4183V49.1683H54.0446M54.0429 49.1683C53.6112 49.1705 53.178 49.1568 52.7403 49.1413C52.6924 49.1396 52.6444 49.1378 52.5964 49.1361C52.2071 49.1222 51.814 49.1081 51.4213 49.1044C50.5743 49.0964 49.7153 49.1364 48.8564 49.3336C48.4708 49.0864 48.0629 49.0297 47.6769 49.0345C47.4696 49.037 47.263 49.0575 47.0697 49.0772L47.0481 49.0794C46.8591 49.0986 46.6835 49.1165 46.5132 49.1206L46.5131 49.1206C46.038 49.1323 45.574 49.1111 45.1 49.0895C44.7899 49.0753 44.4754 49.061 44.1507 49.0555C43.4946 49.0444 42.8259 49.072 42.158 49.2261C42.3042 48.5865 42.2759 47.939 42.2494 47.3343C42.2446 47.2236 42.2398 47.1144 42.2361 47.0069L42.2361 47.0068C42.218 46.4736 42.3069 46.0463 42.6368 45.6709L42.6735 45.6291L42.6891 45.5757C43.103 44.1538 43.7209 42.8832 44.8874 41.8759L44.8874 41.8758C45.8813 41.017 47.0381 40.6099 48.3574 40.5749L48.3576 40.5749C48.4003 40.5737 48.4429 40.5725 48.4856 40.5714C49.8608 40.5338 51.2051 40.4971 52.5196 40.8097C53.9655 41.7863 55.3329 42.7159 55.8847 44.2861C56.4504 45.8985 56.9609 47.4657 56.7064 49.1218M54.0429 49.1683L56.7064 49.1218M54.0446 49.1683C54.5222 49.1603 54.9999 49.1518 55.4777 49.1433C55.8872 49.136 56.2968 49.1287 56.7064 49.1218M54.0446 49.1683L56.7064 49.1218" fill="#FFFEFE" stroke="#3048EA" stroke-width="0.5"/>
<path d="M26.3411 11.4095L26.4504 11.6344C26.5105 11.6052 26.5911 11.5881 26.7052 11.5757C26.7358 11.5723 26.7721 11.5692 26.8114 11.5658C26.8286 11.5643 26.8464 11.5627 26.8646 11.5611C26.9114 11.7039 26.9584 11.8463 27.0053 11.9882C27.5635 13.6778 28.1024 15.3088 28.0247 17.0842L28.0246 17.0844C27.9771 18.191 27.6342 19.1149 26.9809 19.851C26.3252 20.5897 25.3394 21.1588 23.973 21.5206L23.973 21.5207C23.5465 21.6337 23.1704 21.7825 22.9303 22.0504C22.7301 22.2736 22.6483 22.5496 22.663 22.8773C22.2502 22.882 21.8371 22.8859 21.4237 22.8897C20.2637 22.9006 19.1019 22.9115 17.9401 22.94L17.94 22.94C17.644 22.9475 17.5285 22.8893 17.4795 22.8376C17.4299 22.7855 17.3841 22.6731 17.4011 22.4058C17.4321 21.9305 17.4247 21.4457 17.4175 20.9727C17.4149 20.8041 17.4123 20.637 17.4116 20.4723C17.4566 20.4192 17.5011 20.3664 17.5455 20.3139C17.6749 20.1604 17.8027 20.009 17.935 19.859L17.9353 19.8587C18.4691 19.2518 18.7167 18.5666 18.6357 17.9015C18.5545 17.235 18.1487 16.6336 17.4655 16.1859C17.3471 16.1082 17.2131 16.0445 17.086 15.9883C17.0349 15.9656 16.9863 15.9448 16.939 15.9244C16.8612 15.891 16.7869 15.8591 16.7103 15.8232C16.4632 15.7073 16.3068 15.5983 16.2369 15.4626C16.1806 15.3515 16.1392 15.1886 16.1346 15.0295C16.1297 14.8619 16.1664 14.7543 16.205 14.7092L16.2052 14.7089C16.2685 14.6346 16.426 14.5615 16.6292 14.5563C16.8292 14.5511 16.9932 14.614 17.0763 14.7101C17.4359 15.1267 17.7923 15.3692 18.1558 15.4661C18.5224 15.5638 18.8634 15.5048 19.1727 15.381C19.4763 15.2595 19.7631 15.0697 20.0245 14.8929C20.0447 14.8793 20.0646 14.8657 20.0845 14.8523C20.3309 14.6852 20.5552 14.5332 20.7805 14.4275L20.7806 14.4275C21.943 13.8814 23.0956 13.3044 24.2448 12.7291C24.981 12.3606 25.7157 11.9928 26.4507 11.6342L26.3411 11.4095ZM26.3411 11.4095C25.6008 11.7706 24.8643 12.1394 24.1277 12.5081C22.9814 13.082 21.835 13.6559 20.6743 14.2012L28.2744 17.0952C28.3543 15.2709 27.7999 13.5946 27.243 11.9103C27.1746 11.7034 27.1061 11.4964 27.0388 11.2891C26.9633 11.3016 26.8844 11.3084 26.8055 11.3152C26.6414 11.3294 26.4769 11.3435 26.3411 11.4095Z" fill="#B9BCFF" stroke="#3048EA" stroke-width="0.5"/>
<path d="M65.1447 33.003C63.7138 33.003 62.2846 33.0031 60.8536 33.0049C60.851 32.7044 60.7967 32.4278 60.6296 32.1906C60.4145 31.8852 60.0493 31.6967 59.5346 31.5609C58.0199 31.1581 56.8154 30.2912 56.1317 29.0952C55.4496 27.9018 55.2704 26.3532 55.8562 24.553L55.8564 24.5526C55.9732 24.1917 56.0953 23.8347 56.2184 23.4749C56.2864 23.2763 56.3546 23.0768 56.4224 22.8754L56.426 22.8647L56.4286 22.8538C56.5263 22.4449 56.4938 22.0978 56.4652 21.7914C56.4643 21.7828 56.4635 21.7741 56.4627 21.7655C56.4337 21.4538 56.412 21.1812 56.4954 20.8604C56.4963 20.8588 56.4973 20.8568 56.4987 20.8543C56.5061 20.8413 56.5181 20.8222 56.5357 20.7969C56.5707 20.7463 56.6208 20.681 56.6834 20.6049C56.8081 20.4533 56.9738 20.2694 57.1471 20.0935C57.3212 19.9167 57.4974 19.7537 57.6432 19.641C57.6987 19.5981 57.7456 19.5657 57.7834 19.5432C57.7934 19.5611 57.8044 19.5829 57.8163 19.6088C57.8692 19.7235 57.9219 19.8815 57.9698 20.0526C58.0662 20.3971 58.129 20.744 58.1347 20.8062C58.1598 21.1143 58.1374 21.4159 58.0999 21.7206C58.086 21.8331 58.0693 21.951 58.0523 22.0704C58.0253 22.2611 57.9976 22.4557 57.9803 22.6385C57.9211 23.2614 57.9603 23.9035 58.4576 24.5369L58.4577 24.5369C58.6699 24.807 58.8757 25.0249 59.0835 25.1756C59.2932 25.3278 59.5182 25.4207 59.7612 25.4153C60.0042 25.4099 60.2273 25.3071 60.4353 25.1418C60.5923 25.0169 60.7479 24.8508 60.9062 24.6481C61.1268 24.8047 61.3474 24.9614 61.568 25.1182C62.1428 25.5266 62.7181 25.9354 63.2951 26.3418L63.2952 26.3419C64.087 26.8991 65.0977 26.7024 65.5566 25.8438L65.5567 25.8436C65.6124 25.7391 65.6566 25.6273 65.6951 25.5292L65.7004 25.5156C65.7385 25.4185 65.7714 25.3344 65.8099 25.2576C65.888 25.1013 65.9668 25.0199 66.0868 24.9876L66.0874 24.9874C66.3293 24.9216 66.5706 24.8569 66.7868 24.86C66.988 24.8629 67.1333 24.9227 67.2339 25.0849L67.2344 25.0857C67.3653 25.2949 67.3682 25.5003 67.2947 25.6864C67.218 25.8805 67.0535 26.061 66.8423 26.182L66.8421 26.1821C66.0885 26.6148 65.6977 27.2102 65.3377 27.8626L65.3374 27.8631C65.2203 28.0765 65.1347 28.323 65.1015 28.5489C65.0849 28.662 65.0802 28.7782 65.0959 28.8868C65.1113 28.9935 65.1492 29.1117 65.2344 29.207C65.4195 29.4144 65.5168 29.6005 65.5615 29.7684C65.6059 29.9355 65.6021 30.0993 65.5633 30.2686C65.4957 30.5642 65.3321 30.8497 65.1434 31.179C65.1035 31.2485 65.0625 31.32 65.0211 31.394L65.0208 31.3944C64.797 31.796 64.9217 32.1821 65.0159 32.4623L65.0196 32.4735C65.0944 32.6959 65.1485 32.8569 65.1447 33.003ZM57.7441 19.4841C57.7424 19.4826 57.7416 19.4817 57.7416 19.4816C57.7416 19.4815 57.7424 19.4823 57.7441 19.4841Z" fill="#FCF0F0" stroke="#3048EA" stroke-width="0.5"/>
<path d="M35.2694 35.2632C35.1274 34.8594 34.9062 34.8692 34.6449 34.8807C34.6208 34.8817 34.5964 34.8828 34.5716 34.8836C34.517 34.8851 34.463 34.8828 34.4101 34.8806C34.1556 34.8699 33.9261 34.8602 33.7697 35.2837C32.9944 37.382 30.6444 37.8412 29.1059 36.2998C28.9727 36.1657 28.7982 35.9975 28.6068 36.1521M35.2694 35.2632L31.951 42.3606C32.0248 41.3315 31.4383 40.6744 30.5063 40.0759C29.2416 39.2643 28.8346 37.9139 28.5148 36.5749C28.4833 36.4431 28.5148 36.2271 28.6068 36.1521M35.2694 35.2632C35.8193 36.8204 37.2342 37.4979 38.9737 37.0751L35.2694 35.2632ZM28.6068 36.1521L28.7639 36.3466C28.7659 36.345 28.7676 36.3437 28.769 36.3427L28.7748 36.339C28.7754 36.3387 28.7757 36.3386 28.7757 36.3386C28.7757 36.3386 28.7754 36.3387 28.7748 36.3389C28.7751 36.3384 28.7753 36.3379 28.7755 36.3374C28.7775 36.3333 28.7786 36.3315 28.7786 36.3315C28.7787 36.3316 28.7766 36.3348 28.7717 36.3397C28.7707 36.3399 28.7695 36.3401 28.7681 36.3402C28.7639 36.3405 28.7616 36.3401 28.7616 36.34C28.7616 36.34 28.7638 36.3404 28.7687 36.3425C28.7675 36.3436 28.7662 36.3447 28.7648 36.3459L28.6068 36.1521ZM32.2015 42.3608C32.2352 41.8449 32.1181 41.4027 31.8758 41.0127C31.5948 40.5603 31.1565 40.1963 30.6414 39.8655L30.6413 39.8654C29.4693 39.1133 29.0785 37.8589 28.7579 36.5168L28.7579 36.5168C28.752 36.4921 28.7498 36.4418 28.7599 36.3897C28.7637 36.3701 28.7684 36.3548 28.7726 36.3443C28.7872 36.3513 28.8084 36.365 28.8372 36.3893C28.8661 36.4138 28.8951 36.4424 28.9286 36.476L28.929 36.4765C29.7539 37.3029 30.8106 37.6042 31.7755 37.4013C32.7416 37.198 33.5887 36.4949 34.0042 35.3703L34.0042 35.3703C34.0435 35.264 34.0815 35.2094 34.1091 35.1811C34.1336 35.1561 34.1564 35.1446 34.1842 35.1375C34.218 35.1289 34.2622 35.126 34.3323 35.1279C34.3484 35.1283 34.3676 35.1291 34.3887 35.13C34.4448 35.1324 34.5149 35.1353 34.5788 35.1335L34.5794 35.1334C34.6122 35.1324 34.64 35.1312 34.6652 35.13C34.7072 35.1282 34.7418 35.1266 34.7799 35.127C34.8345 35.1276 34.8677 35.1329 34.8906 35.1409C34.9142 35.149 34.9721 35.1714 35.0335 35.3461L35.0336 35.3465C35.3282 36.1805 35.8612 36.7937 36.5661 37.1365C37.2685 37.478 38.1185 37.5402 39.0327 37.318L32.2015 42.3608ZM32.2015 42.3608C32.4702 42.3616 32.7378 42.3639 33.0046 42.3662C33.8493 42.3736 34.6859 42.381 35.5231 42.3382L35.5238 42.3382C35.7092 42.3292 35.8835 42.373 36.032 42.42C36.0924 42.4392 36.1533 42.4605 36.2099 42.4803C36.223 42.4849 36.2358 42.4893 36.2483 42.4937C36.3175 42.5178 36.3808 42.5391 36.4422 42.5561C36.5658 42.5904 36.6636 42.6019 36.75 42.587C36.8065 42.5773 36.8688 42.5544 36.9375 42.5036C36.8677 42.0679 36.8473 41.623 36.9834 41.2198C37.1402 40.7555 37.4906 40.3839 38.1018 40.1353C38.5069 39.9699 38.7853 39.6888 39.0365 39.3463C39.1475 39.195 39.2499 39.0365 39.357 38.8709C39.3725 38.8469 39.3881 38.8227 39.4039 38.7984C39.5262 38.6095 39.6559 38.4133 39.8029 38.2289C39.9417 38.0537 40.0576 37.8517 40.1023 37.6626C40.1452 37.4815 40.1207 37.3312 40.0082 37.2051L40.0081 37.205C39.953 37.1431 39.8678 37.1139 39.6806 37.1449C39.5889 37.1601 39.489 37.1874 39.3773 37.2203C39.3555 37.2267 39.333 37.2334 39.31 37.2403C39.2209 37.2669 39.1247 37.2957 39.0328 37.318L32.2015 42.3608Z" fill="#FFFEFE" stroke="#3048EA" stroke-width="0.5"/>
<path d="M32.3744 33.0888C32.643 33.3563 32.8077 33.7569 32.8269 34.3089L32.8263 34.4371C32.8242 34.8738 32.6031 35.3213 32.2505 35.6619C31.8981 36.0024 31.4399 36.2111 30.9976 36.2024L30.9972 36.2024C30.5788 36.1949 30.0694 35.9397 29.6569 35.5561C29.2398 35.1682 28.9918 34.7155 28.9992 34.3732L28.9992 34.3728C29.0178 33.4499 29.9075 32.633 31.0147 32.6309C31.6393 32.6309 32.0852 32.8007 32.3744 33.0888Z" fill="#FFFEFE" stroke="#3048EA" stroke-width="0.5"/>
<path d="M37.7192 32.6376L37.7192 32.6376C38.4953 32.664 39.0184 32.8356 39.3435 33.1185C39.6592 33.3932 39.8282 33.8086 39.8181 34.4228L39.8181 34.4229C39.8109 34.8712 39.5897 35.3216 39.2417 35.6618C38.8935 36.0021 38.4406 36.2105 37.9975 36.2047L37.9975 36.2047C37.5451 36.1989 37.0973 35.9818 36.7607 35.6381C36.4241 35.2944 36.2171 34.843 36.2213 34.3928L36.2213 34.3928V34.3905V34.3896C36.2329 33.3073 36.904 32.6096 37.7192 32.6376Z" fill="#FFFEFE" stroke="#3048EA" stroke-width="0.5"/>
<path d="M32.3573 31.6342C32.6366 31.4544 32.8817 31.3279 33.1163 31.2977C33.2659 31.2784 33.411 31.2994 33.5624 31.3815C33.7183 31.4662 33.8937 31.6228 34.0854 31.8958L34.0856 31.8961C34.2639 32.1494 34.5759 32.2806 34.844 32.3721C34.9492 32.408 35.0602 32.4415 35.166 32.4735C35.2005 32.4839 35.2344 32.4942 35.2675 32.5043C35.3469 32.5286 35.4225 32.5526 35.4935 32.5775C35.477 32.6499 35.4331 32.7226 35.3597 32.8154C35.3334 32.8487 35.3057 32.8817 35.2749 32.9183C35.2717 32.9221 35.2684 32.926 35.2651 32.93C35.2315 32.97 35.1947 33.0141 35.1593 33.0602C35.0886 33.1522 35.0147 33.2633 34.9676 33.3966L35.2034 33.4799M32.3573 31.6342L33.8394 33.4958C34.2052 34.1846 34.9538 34.1778 35.2034 33.4799M32.3573 31.6342C33.0733 32.0586 33.6528 32.6161 34.0599 33.378L34.0602 33.3786C34.211 33.6625 34.4143 33.7595 34.5623 33.7579C34.7016 33.7564 34.8711 33.6665 34.968 33.3957L35.2034 33.4799M32.3573 31.6342L35.7412 32.4046C35.7932 32.6901 35.6314 32.8826 35.4666 33.0788C35.3623 33.2029 35.2569 33.3284 35.2034 33.4799" fill="#FFFEFE" stroke="#3048EA" stroke-width="0.5"/>
<path d="M51.8754 20.0581L51.885 20.0885L52.1711 20.9941C52.2265 20.9621 52.2792 20.9137 52.3317 20.8465C52.4416 20.7057 52.5339 20.5015 52.6204 20.2534C52.6745 20.0985 52.7207 19.9441 52.7678 19.7872C52.7974 19.6884 52.8273 19.5885 52.8597 19.4869C52.9378 19.2417 53.0298 18.9874 53.1595 18.802C53.6502 18.1007 54.1865 17.538 55.2159 17.239L55.216 17.2389C55.8054 17.0681 56.2344 16.9323 56.5524 16.7905C56.8679 16.6498 57.0506 16.513 57.1669 16.3529C57.2831 16.1929 57.3531 15.982 57.3885 15.653C57.4244 15.3206 57.4227 14.8958 57.4148 14.3203L57.4148 14.3199C57.4044 13.4802 57.6102 12.7809 58.2294 12.1083C58.8759 11.405 58.9357 10.4754 58.3813 9.84956L58.3812 9.84941C57.3314 8.66253 57.0901 7.39405 57.1802 5.99402L57.1803 5.99373C57.2267 5.28562 56.7021 4.64677 55.9208 4.51763L55.9206 4.51759C54.8406 4.33808 53.8977 3.93572 53.319 2.81231L53.3188 2.81194C53.01 2.20995 52.6383 1.86425 52.2109 1.71267C51.7799 1.55983 51.2472 1.58827 50.5859 1.82802C49.333 2.28323 48.1867 2.40974 46.9008 1.6809C46.285 1.3333 45.5199 1.53703 44.9807 2.17097L44.9805 2.1712C44.7208 2.47592 44.4928 2.80473 44.2575 3.1442C44.2122 3.20948 44.1667 3.27515 44.1207 3.34111M51.8754 20.0581L43.9157 3.19796M51.8754 20.0581L51.8585 20.0311C51.6398 19.682 51.5996 19.4408 51.6532 19.2569C51.7085 19.0672 51.8854 18.8608 52.2853 18.6358L52.2855 18.6357C53.2563 18.0884 54.0296 17.4088 54.5478 16.5772C55.0673 15.7433 55.3217 14.7698 55.2737 13.6514L55.2737 13.6509C55.2656 13.4707 55.2679 13.2892 55.2706 13.0997L55.2709 13.0812C55.2735 12.8998 55.2762 12.7108 55.2689 12.5209C55.2638 12.379 55.2662 12.2324 55.2697 12.0789C55.2701 12.0587 55.2706 12.0384 55.2711 12.018C55.2743 11.8851 55.2775 11.747 55.2761 11.6105C55.2726 11.2968 55.2444 10.9632 55.1172 10.6529L55.1171 10.6527C55.0244 10.4272 54.8739 10.2824 54.6849 10.2048C54.5094 10.1327 54.3195 10.1269 54.1579 10.1327C54.0828 10.1354 54.0063 10.1412 53.9352 10.1465C53.9282 10.147 53.9213 10.1475 53.9144 10.148C53.8353 10.1539 53.7624 10.159 53.6923 10.1605C53.5494 10.1635 53.4441 10.1502 53.3643 10.1147L53.3638 10.1145C53.2529 10.0653 53.1358 10.0199 53.0243 9.97653L53.0149 9.97287C52.8984 9.92762 52.7875 9.88435 52.6827 9.83763C52.4684 9.74217 52.3124 9.64587 52.219 9.53113C51.8643 9.09066 51.4727 8.79422 51.0127 8.6698C50.5531 8.5455 50.06 8.60234 49.5202 8.80131C48.868 9.04151 48.1901 9.04302 47.4491 8.84652L47.4489 8.84646C47.1553 8.76892 46.896 8.78738 46.6627 8.87102C46.4353 8.95256 46.2454 9.09153 46.0808 9.23376C45.9981 9.30519 45.9184 9.38057 45.8428 9.45253C45.8364 9.45858 45.8301 9.4646 45.8238 9.4706C45.7538 9.53719 45.6872 9.60054 45.6193 9.66097C45.4709 9.79299 45.3312 9.89696 45.1816 9.96078L45.1815 9.96083C45.0738 10.0068 44.9771 10.0657 44.8929 10.1198C44.8654 10.1374 44.84 10.1541 44.8157 10.17C44.7605 10.2061 44.7113 10.2383 44.6581 10.2692C44.5153 10.3521 44.3972 10.3919 44.2553 10.3708L44.255 10.3708C43.7052 10.2898 43.2601 10.357 42.9823 10.6629C42.7139 10.9586 42.6773 11.3991 42.7271 11.8632C42.7716 12.2792 42.7575 12.6931 42.7427 13.1273C42.7377 13.274 42.7326 13.423 42.7297 13.5752C42.7183 14.165 42.7415 14.783 42.9606 15.3986C43.4426 16.7531 44.3042 17.8279 45.5966 18.5858C45.6415 18.6122 45.7053 18.6444 45.756 18.67C45.7818 18.6831 45.8043 18.6944 45.8191 18.7024C45.8827 18.7365 45.9156 18.7611 45.9335 18.7813C45.9421 18.7916 45.9609 18.823 45.9755 18.8936C45.9899 18.963 45.9968 19.0538 45.9943 19.1643C45.9893 19.3852 45.9477 19.6556 45.8834 19.9321C45.8194 20.2072 45.735 20.4791 45.6492 20.7006C45.6324 20.7441 45.6159 20.7845 45.6 20.8218C45.5942 20.7825 45.5884 20.7405 45.5824 20.6958C45.5784 20.666 45.5744 20.6353 45.5703 20.604C45.5465 20.4228 45.52 20.2211 45.483 20.0472C45.4612 19.9446 45.4337 19.8415 45.3967 19.7513C45.362 19.6668 45.3067 19.5624 45.2117 19.4911C45.0086 19.3386 44.8374 19.1081 44.6945 18.8594L44.694 18.8585C44.1251 17.8787 43.3086 17.3063 42.1191 17.0658L42.119 17.0657C41.4113 16.9231 40.9703 16.6789 40.7049 16.3331C40.4384 15.9859 40.3156 15.4931 40.34 14.7801M51.8754 20.0581L40.34 14.7801M44.1207 3.34111L43.9157 3.19796M44.1207 3.34111C44.1208 3.34095 44.1209 3.34078 44.121 3.34061L43.9157 3.19796M44.1207 3.34111C43.7368 3.89342 43.233 4.30036 42.5257 4.3298L42.5252 4.32982C41.8882 4.3549 41.2801 4.60363 40.8599 5.03244M43.9157 3.19796C43.5571 3.71401 43.1162 4.05501 42.5154 4.08001C41.8225 4.1073 41.1514 4.37782 40.6813 4.8575M40.8599 5.03244L40.6813 4.8575M40.8599 5.03244C40.8599 5.03245 40.8599 5.03245 40.8599 5.03246L40.6813 4.8575M40.8599 5.03244C40.3984 5.50363 40.1879 6.12395 40.3203 6.97417L40.3203 6.97451C40.4709 7.95121 40.1199 8.73146 39.4227 9.43645M40.6813 4.8575C40.158 5.39173 39.9303 6.09419 40.0732 7.01262C40.2089 7.8924 39.9012 8.59713 39.2447 9.26094C38.3555 10.1635 38.2756 11.1114 39.1453 11.9958M39.4227 9.43645C39.4227 9.43643 39.4227 9.43641 39.4227 9.4364L39.2447 9.261L39.4224 9.43675C39.4225 9.43665 39.4226 9.43655 39.4227 9.43645ZM39.4227 9.43645C39.0037 9.86172 38.8035 10.2695 38.7851 10.6473C38.767 11.0197 38.9231 11.4133 39.3235 11.8204M39.3235 11.8204L39.1453 11.9958M39.3235 11.8204C39.3235 11.8204 39.3235 11.8204 39.3236 11.8205L39.1453 11.9958M39.3235 11.8204C40.2111 12.722 40.3777 13.6901 40.34 14.7801L40.0902 14.7715M39.1453 11.9958C39.9666 12.8301 40.1265 13.719 40.0902 14.7715M40.0902 14.7715L40.34 14.7801M40.0902 14.7715C40.0393 16.2537 40.5917 17.013 42.0696 17.3108C43.1937 17.5382 43.9472 18.0701 44.4778 18.984L40.34 14.7801M45.4284 21.1339C45.4284 21.1339 45.4293 21.1329 45.4312 21.1313C45.4293 21.1333 45.4284 21.134 45.4284 21.1339Z" fill="#B9BCFF" stroke="#3048EA" stroke-width="0.5"/>
<mask id="path-36-inside-5_450_4256" fill="white">
<path d="M65.9608 0C66.0408 0.0341 66.0699 0.0863867 66.0456 0.159133C66.0456 0.159133 65.9948 0.154587 65.9948 0.152313C65.9487 0.106847 65.939 0.0568333 65.9608 0Z"/>
</mask>
<path d="M65.9608 0C66.0408 0.0341 66.0699 0.0863867 66.0456 0.159133C66.0456 0.159133 65.9948 0.154587 65.9948 0.152313C65.9487 0.106847 65.939 0.0568333 65.9608 0Z" fill="#FCF0F0"/>
<path d="M65.9608 0L66.157 -0.459914L65.6798 -0.663432L65.494 -0.179101L65.9608 0ZM66.0456 0.159133L66.0011 0.657149L66.395 0.692353L66.52 0.317121L66.0456 0.159133ZM65.9948 0.152313H66.4948V-0.0566055L66.3461 -0.203418L65.9948 0.152313ZM65.7647 0.459914C65.748 0.452804 65.6619 0.413145 65.6021 0.302173C65.5347 0.177116 65.552 0.0590873 65.5712 0.00114568L66.52 0.317121C66.5635 0.186433 66.5783 0.00588719 66.4825 -0.172024C66.3943 -0.335851 66.2536 -0.418704 66.157 -0.459914L65.7647 0.459914ZM66.0456 0.159133C66.0901 -0.338882 66.0901 -0.338881 66.0902 -0.33888C66.0902 -0.33888 66.0902 -0.338879 66.0902 -0.338878C66.0902 -0.338877 66.0902 -0.338876 66.0902 -0.338875C66.0902 -0.338873 66.0903 -0.338871 66.0903 -0.338869C66.0903 -0.338866 66.0903 -0.338864 66.0903 -0.338863C66.0904 -0.338861 66.0904 -0.338862 66.0903 -0.338867C66.0902 -0.338877 66.0899 -0.338902 66.0895 -0.338938C66.0887 -0.339013 66.0874 -0.339132 66.0859 -0.339286C66.0825 -0.339614 66.0787 -0.339993 66.0757 -0.340333C66.071 -0.340858 66.0735 -0.340666 66.08 -0.339657C66.081 -0.339496 66.0962 -0.33723 66.1163 -0.332292C66.1229 -0.33066 66.1535 -0.323274 66.1907 -0.307484C66.2066 -0.30074 66.2526 -0.280669 66.3029 -0.241341C66.329 -0.220964 66.3717 -0.183502 66.4106 -0.125323C66.4512 -0.0644272 66.4948 0.0306533 66.4948 0.152313H65.4948C65.4948 0.392399 65.6554 0.521803 65.6869 0.546407C65.7374 0.585886 65.7837 0.606111 65.8 0.613013C65.8379 0.62912 65.8696 0.636836 65.8776 0.63881C65.9005 0.644432 65.9196 0.647426 65.9254 0.648333C65.9414 0.650834 65.9567 0.652589 65.9647 0.653485C65.9744 0.654566 65.9834 0.655466 65.9895 0.65606C65.9927 0.656369 65.9954 0.656622 65.9974 0.656805C65.9984 0.656897 65.9992 0.656973 65.9998 0.657031C66.0001 0.657059 66.0004 0.657084 66.0006 0.657103C66.0007 0.657113 66.0008 0.657122 66.0009 0.65713C66.001 0.657133 66.001 0.657137 66.001 0.65714C66.001 0.657142 66.0011 0.657143 66.0011 0.657144C66.0011 0.657145 66.0011 0.657146 66.0011 0.657147C66.0011 0.657148 66.0011 0.657149 66.0456 0.159133ZM66.3461 -0.203418C66.3768 -0.173107 66.4219 -0.113925 66.4411 -0.0249474C66.4603 0.0640575 66.4437 0.137284 66.4277 0.179101L65.494 -0.179101C65.4562 -0.0804511 65.4335 0.0461992 65.4636 0.185786C65.4937 0.325345 65.5667 0.432267 65.6434 0.508044L66.3461 -0.203418Z" fill="#3048EA" mask="url(#path-36-inside-5_450_4256)"/>
<path d="M54.5176 49.6612C54.5748 49.7688 54.6231 49.8786 54.6663 49.987C54.7161 50.1123 54.7606 50.2399 54.8031 50.3617L54.8047 50.3664C54.8483 50.4915 54.8899 50.6105 54.9359 50.7257C55.0279 50.9561 55.1312 51.1544 55.2783 51.3153C55.4221 51.4725 55.6172 51.6042 55.9094 51.6859L55.9105 51.6862C56.0237 51.7184 56.0853 51.8063 56.1106 51.8473C56.1425 51.8989 56.165 51.9562 56.1808 52.0078C56.2113 52.1073 56.2311 52.2343 56.219 52.343M54.5176 49.6612L55.9705 52.3154M54.5176 49.6612C54.8399 49.6556 55.1621 49.6498 55.4842 49.6441L55.4844 49.6441C55.9167 49.6364 56.3488 49.6287 56.781 49.6214M54.5176 49.6612L56.781 49.6214M56.219 52.343C56.219 52.3431 56.219 52.3432 56.219 52.3432L55.9705 52.3154M56.219 52.343C56.219 52.3429 56.219 52.3428 56.219 52.3427L55.9705 52.3154M56.219 52.343C56.196 52.5523 56.1899 52.7588 56.1835 52.9776C56.1819 53.0334 56.1802 53.09 56.1783 53.1477C56.1688 53.4259 56.152 53.7205 56.0895 54.025M55.9705 52.3154C55.9463 52.5357 55.9399 52.755 55.9335 52.975C55.9239 53.3044 55.9142 53.6356 55.8445 53.9749M56.0895 54.025L55.8445 53.9749M56.0895 54.025C55.9477 54.7181 55.6187 55.297 55.2691 55.8291C55.1693 55.981 55.0691 56.1276 54.9705 56.2717C54.7611 56.5778 54.5592 56.8729 54.3853 57.1848M56.0895 54.025C56.0894 54.0251 56.0894 54.0251 56.0894 54.0252L55.8445 53.9749M55.8445 53.9749L54.3853 57.1848M54.3853 57.1848C54.3227 57.1501 54.2579 57.1103 54.1908 57.0665L54.0541 57.2758L54.2775 57.388C54.312 57.3193 54.348 57.2517 54.3853 57.1848ZM54.3853 57.1848C54.5132 57.2555 54.6317 57.3048 54.7411 57.3226C54.8813 57.3453 55.0121 57.3187 55.1497 57.1698M54.3853 57.1848L56.7942 52.6973M55.1497 57.1698L55.3321 57.3383L55.1497 57.1698C55.1497 57.1698 55.1497 57.1698 55.1497 57.1698ZM55.1497 57.1698C56.3658 55.8531 57.1793 54.5095 56.559 52.782M56.559 52.782C56.559 52.782 56.5591 52.7821 56.5591 52.7822L56.7942 52.6973M56.559 52.782C56.559 52.7819 56.559 52.7819 56.559 52.7818L56.7942 52.6973M56.559 52.782C56.5071 52.6381 56.4434 52.448 56.4398 52.2555C56.436 52.0479 56.5023 51.83 56.7079 51.661M56.7942 52.6973C56.6901 52.4086 56.5956 52.0767 56.8669 51.8539M56.7079 51.661C56.7078 51.6611 56.7077 51.6611 56.7076 51.6612L56.8669 51.8539M56.7079 51.661C57.1548 51.2915 57.2565 50.9571 57.2231 50.6422C57.1897 50.3277 57.0189 49.9946 56.781 49.6214M56.7079 51.661C56.708 51.6609 56.7082 51.6608 56.7083 51.6607L56.8669 51.8539M56.8669 51.8539L56.781 49.6214" fill="#3048EA" stroke="#3048EA" stroke-width="0.5"/>
<path d="M45.3437 53.0192L45.3438 53.019C45.7647 52.4261 46.3183 51.9406 46.8456 51.4781C46.9288 51.4051 47.0114 51.3327 47.0928 51.2604C47.6412 50.7735 48.1404 50.2912 48.4778 49.6911C48.2338 49.5661 47.9704 49.5299 47.6831 49.5334C47.5013 49.5357 47.3158 49.5537 47.1203 49.5736C47.1109 49.5746 47.1015 49.5755 47.0921 49.5765C46.9087 49.5952 46.7155 49.6149 46.5253 49.6195L45.3437 53.0192ZM45.3437 53.0192C45.2344 53.1734 45.0697 53.2529 44.8487 53.2975M45.3437 53.0192L44.8487 53.2975M42.0714 49.7625C42.1516 50.2678 42.2287 50.7724 42.3058 51.2762C42.5158 52.6504 42.725 54.0187 42.9923 55.3797L42.0714 49.7625ZM42.0714 49.7625C42.7445 49.5781 43.4328 49.5425 44.1413 49.5544C44.4337 49.5594 44.7366 49.573 45.0436 49.5868C45.5359 49.6088 46.0387 49.6314 46.5253 49.6195L42.0714 49.7625ZM44.8487 53.2975C44.7377 53.3199 44.6197 53.332 44.495 53.342M44.8487 53.2975L44.495 53.342M44.495 53.342C44.4663 53.3443 44.4368 53.3465 44.4067 53.3488M44.495 53.342L44.4067 53.3488M44.4067 53.3488C44.3118 53.3559 44.2123 53.3634 44.1211 53.3749M44.4067 53.3488L44.1211 53.3749M44.1211 53.3749C43.8692 53.4065 43.6507 53.4438 43.4751 53.5004C43.3016 53.5563 43.1351 53.6417 43.0283 53.7941C42.9164 53.9538 42.9023 54.1396 42.9338 54.3234C42.9645 54.5028 43.0427 54.707 43.1507 54.9366C43.5153 55.7137 43.9225 56.5388 44.7191 57.1351C44.7935 57.1913 44.8629 57.261 44.9357 57.3431C44.5438 57.3621 44.1865 57.247 43.8848 57.0158C43.4749 56.7018 43.145 56.1552 42.9923 55.3798L44.1211 53.3749Z" fill="#3048EA" stroke="#3048EA" stroke-width="0.5"/>
<path d="M28.9238 37.425C28.2864 36.0398 27.9831 34.5383 28.1567 33.3338L28.183 33.1865C28.2527 32.7964 28.3708 32.4358 28.6006 32.1623C28.8857 31.8241 29.3265 31.6239 29.8214 31.4103C30.4976 31.1195 31.1435 30.8535 31.8036 30.9048L31.8038 30.9048C31.8688 30.9098 31.9336 30.9147 31.9982 30.9196C32.8244 30.982 33.6125 31.0415 34.3605 31.2822L34.3608 31.2823C35.5545 31.6648 36.7332 31.9586 38.0259 31.9421C38.6326 31.9344 39.2714 32.0081 39.8226 32.2027C40.3737 32.3972 40.8184 32.7052 41.0737 33.1546L41.0738 33.1549C41.3016 33.5547 41.3484 34.0083 41.2899 34.497C41.2311 34.9888 41.0682 35.4964 40.8951 35.9928C40.3384 37.5828 39.7254 39.1866 38.3576 40.088L38.3573 40.0882C38.293 40.1307 38.2209 40.1758 38.1453 40.2231C37.9732 40.3309 37.7827 40.4501 37.623 40.5769C37.3845 40.766 37.1572 41.0124 37.0809 41.3566L37.0808 41.3572C37.0452 41.52 37.0483 41.685 37.0595 41.8314C37.065 41.9044 37.073 41.977 37.0804 42.0445L37.0807 42.0471C37.0883 42.1168 37.0953 42.1809 37.0999 42.2428C37.1193 42.5023 37.0866 42.6221 36.9831 42.7001L36.9823 42.7007C36.9324 42.7386 36.864 42.7636 36.7452 42.8024C35.6141 43.1537 34.4047 43.282 33.2166 43.1758C33.0871 43.1642 32.8517 43.0684 32.611 42.9159C32.4958 42.8429 32.3894 42.7631 32.3044 42.6856C32.2164 42.6055 32.1645 42.5398 32.1423 42.4969C32.1202 42.4534 32.1244 42.4333 32.1336 42.4096C32.1503 42.3665 32.1861 42.3183 32.2559 42.2325C32.259 42.2287 32.2622 42.2247 32.2655 42.2207C32.3238 42.1492 32.4084 42.0454 32.4585 41.9243C32.5187 41.779 32.53 41.611 32.4482 41.4306C32.3695 41.2554 32.2392 41.1293 32.1114 41.0337C32.0039 40.9533 31.8826 40.8839 31.7797 40.8249C31.7626 40.8151 31.746 40.8056 31.7301 40.7964C30.5923 40.1383 29.5872 38.8666 28.9238 37.425Z" fill="#FCF0F0" stroke="#3048EA" stroke-width="0.5"/>
</svg>
