<svg width="175" height="175" viewBox="0 0 175 175" fill="none" xmlns="http://www.w3.org/2000/svg">
<path d="M135.93 28H39C36.7909 28 35 29.7909 35 32V143C35 145.209 36.7909 147 39 147H135.93C138.139 147 139.93 145.209 139.93 143V32C139.93 29.7909 138.139 28 135.93 28Z" fill="#FFFEFE"/>
<path d="M127.717 42.3928C129.84 42.4905 131.486 44.2409 131.466 46.366C131.33 61.1685 130.882 109.832 130.717 127.822C130.697 130.059 128.885 131.836 126.648 131.821C111.984 131.724 63.5335 131.629 48.6172 131.691C46.3783 131.7 44.571 129.912 44.5626 127.673C44.5008 111.255 44.3162 61.8173 44.2577 46.4636C44.2492 44.2383 46.0537 42.46 48.2789 42.4717C57.9086 42.5228 78.3215 42.6004 90.0206 42.4277C102.521 42.241 115.199 41.8169 127.717 42.3928Z" fill="#FCF0F0" stroke="#3048EA" stroke-miterlimit="10"/>
<path opacity="0.45" d="M44.9133 39.4063C44.9133 39.407 44.9126 39.4074 44.912 39.4071C44.2871 39.1177 43.7712 38.5837 43.5505 37.917C43.2348 36.9723 43.5505 35.8771 44.2133 35.145C44.8732 34.4129 45.8229 33.7841 46.7898 33.8786C49.0249 34.0941 49.5959 36.6417 48.8241 38.0292C48.5659 38.4926 48.1814 38.8734 47.7395 39.148C47.028 39.5937 46.1471 39.7709 45.338 39.5583C45.1921 39.5201 45.052 39.4701 44.9147 39.4054C44.9141 39.4051 44.9133 39.4056 44.9133 39.4063Z" fill="#3048EA"/>
<path d="M51.4922 36.7188L87.4033 36.7926" stroke="#3048EA" stroke-miterlimit="10" stroke-linecap="round"/>
<path d="M47.9486 136.567C48.2643 136.287 48.6057 136.036 48.9672 135.82C49.2857 135.631 49.653 135.463 50.0116 135.552C50.4506 135.661 50.7318 136.142 50.7461 136.608C50.7633 137.075 50.5682 137.521 50.3416 137.922C49.835 138.819 49.1397 139.598 48.321 140.198C48.0259 140.415 47.6267 140.421 47.3295 140.207C46.3442 139.499 45.5639 138.485 45.1397 137.326C45.022 137.004 44.9302 136.659 44.9962 136.322C45.0651 135.986 45.3348 135.673 45.6705 135.67C45.8656 135.67 46.0464 135.77 46.2128 135.876C46.5221 136.073 46.8125 136.3 47.081 136.551C47.3221 136.777 47.7031 136.782 47.9515 136.564L47.9486 136.567Z" fill="#B9BCFF"/>
<path d="M54.4421 136.5C55.1078 135.738 56.1866 135.384 57.1679 135.585C57.8967 135.735 58.5882 136.196 58.9066 136.889C59.2008 137.537 59.1821 138.711 58.7006 139.24C58.6534 139.292 58.6264 139.362 58.6406 139.43C58.7155 139.794 58.8285 139.998 59.0221 140.239C59.1254 140.368 59.0457 140.558 58.8824 140.535C58.602 140.495 58.3825 140.379 58.1131 140.195C58.0311 140.139 57.9205 140.149 57.8455 140.214C57.6184 140.411 57.326 140.589 57.1535 140.68C56.1866 141.191 54.9127 140.739 54.2614 139.842C53.6101 138.944 53.6388 137.61 54.2786 136.706C54.3302 136.636 54.3847 136.565 54.4421 136.5Z" stroke="#3048EA" stroke-miterlimit="10"/>
<path d="M63.9047 136.077C63.4315 136.084 62.9582 136.088 62.485 136.093C62.2884 136.096 62.2121 136.352 62.3742 136.463C63.01 136.899 63.6353 137.351 64.2488 137.82C64.2807 137.844 64.3045 137.878 64.3171 137.916C64.6121 138.806 64.9453 139.684 65.3153 140.544C65.3898 140.717 65.6397 140.697 65.6897 140.515C66.0813 139.094 66.5393 137.69 67.0636 136.315C67.114 136.183 67.0157 136.041 66.8741 136.042C65.8853 136.054 64.8962 136.067 63.9047 136.077Z" stroke="#3048EA" stroke-miterlimit="10"/>
<path d="M64.312 137.82C65.1785 137.28 66.0479 136.739 66.9144 136.199" stroke="#3048EA" stroke-miterlimit="10"/>
<path d="M126.395 134.798C126.394 134.798 126.394 134.799 126.394 134.799C126.435 136.225 126.262 137.856 126.345 139.315C126.355 139.487 126.564 139.559 126.683 139.435C127.232 138.867 127.913 138.192 128.432 137.651C128.507 137.573 128.63 137.568 128.708 137.643C129.238 138.151 129.769 138.846 130.299 139.399C130.425 139.531 130.634 139.427 130.618 139.246C130.473 137.636 130.373 135.787 130.32 134.204C130.316 134.094 130.223 134.007 130.112 134.011C128.932 134.055 127.752 134.108 126.574 134.168C126.467 134.174 126.383 134.263 126.386 134.371C126.389 134.513 126.392 134.655 126.396 134.797C126.396 134.797 126.396 134.798 126.395 134.798V134.798Z" stroke="#3048EA" stroke-miterlimit="10"/>
<path d="M130.761 34.4201C130.762 34.421 130.764 34.4201 130.764 34.4185C130.769 34.3726 130.768 34.3267 130.757 34.2808C130.745 34.251 130.733 34.2213 130.721 34.1915C130.69 34.1355 130.647 34.0915 130.593 34.0594C130.591 34.0582 130.59 34.058 130.588 34.057C130.587 34.0564 130.585 34.0548 130.584 34.0542C130.57 34.0471 130.551 34.04 130.54 34.0353C130.531 34.0306 130.511 34.0216 130.497 34.0164C130.495 34.0158 130.494 34.0155 130.492 34.0155C130.491 34.0155 130.489 34.0153 130.487 34.0151C130.454 34.0078 130.421 34.003 130.388 34.0006C130.346 33.997 130.288 34.0102 130.241 34.03C130.208 34.0437 130.178 34.0665 130.15 34.089C130.138 34.0991 130.126 34.1086 130.121 34.1127C130.119 34.114 130.117 34.1155 130.116 34.1171C130.094 34.1419 130.072 34.1692 130.055 34.1989C130.039 34.2274 130.028 34.2604 130.016 34.2914C130.015 34.2942 130.015 34.2972 130.014 34.3001C130.014 34.3004 130.014 34.3007 130.014 34.3009C130.013 34.3041 130.012 34.3073 130.012 34.3105C130.012 34.3279 130 34.3973 130 34.4122C130 34.4147 130 34.4196 130 34.4221C130 34.4246 130 34.4295 130 34.432C130.002 34.4659 130.006 34.4978 130.013 34.5314C130.014 34.5378 130.014 34.5444 130.014 34.551C130.014 34.551 130.015 34.5575 130.016 34.5606C130.022 34.5776 130.039 34.6177 130.047 34.6369C130.049 34.6424 130.051 34.6484 130.055 34.6527C130.06 34.6572 130.101 34.7122 130.111 34.7267C130.112 34.728 130.115 34.7309 130.116 34.732C130.12 34.737 130.183 34.7866 130.19 34.7915C130.218 34.8082 130.248 34.818 130.276 34.8298C130.278 34.8307 130.28 34.8312 130.283 34.8312C130.283 34.8312 130.285 34.8313 130.286 34.8314C130.294 34.8326 130.301 34.8337 130.308 34.8349C130.324 34.8375 130.341 34.8383 130.357 34.8414C130.373 34.8446 130.389 34.8463 130.405 34.8456C130.433 34.8445 130.461 34.8408 130.487 34.8312C130.517 34.8216 130.547 34.8074 130.575 34.793C130.577 34.792 130.578 34.7919 130.58 34.791C130.582 34.7904 130.584 34.7887 130.585 34.788C130.612 34.7738 130.636 34.7556 130.655 34.7335C130.677 34.7082 130.696 34.6801 130.714 34.6513C130.73 34.6249 130.742 34.5964 130.749 34.5659C130.763 34.518 130.766 34.4701 130.758 34.4222C130.757 34.4204 130.759 34.419 130.761 34.4201Z" fill="#3048EA" stroke="#3048EA"/>
<path d="M130.761 36.7111C130.762 36.712 130.764 36.7111 130.764 36.7095C130.769 36.6636 130.768 36.6177 130.757 36.5718L130.721 36.4825C130.69 36.4265 130.647 36.3825 130.593 36.3504C130.591 36.3492 130.59 36.349 130.588 36.348C130.587 36.3474 130.585 36.3458 130.584 36.3452C130.57 36.3381 130.551 36.3311 130.54 36.3263C130.531 36.3217 130.511 36.3126 130.497 36.3074C130.495 36.3068 130.494 36.3065 130.492 36.3065C130.491 36.3065 130.489 36.3063 130.487 36.3061C130.454 36.2989 130.421 36.294 130.388 36.2916C130.346 36.288 130.288 36.3012 130.241 36.321C130.208 36.3347 130.178 36.3575 130.15 36.38C130.138 36.3901 130.126 36.3996 130.121 36.4037C130.119 36.405 130.117 36.4065 130.116 36.4081C130.094 36.4329 130.072 36.4602 130.055 36.49C130.039 36.5184 130.028 36.5514 130.016 36.5824C130.015 36.5852 130.015 36.5882 130.014 36.5912C130.014 36.5914 130.014 36.5917 130.014 36.592C130.013 36.5951 130.012 36.5983 130.012 36.6015C130.012 36.6164 130 36.6858 130 36.7007C130 36.7032 130 36.7081 130 36.7106C130 36.7131 130 36.7181 130 36.7205C130.002 36.7545 130.006 36.7863 130.013 36.8199C130.014 36.8264 130.014 36.833 130.014 36.8396C130.014 36.8396 130.015 36.8461 130.016 36.8492C130.022 36.8662 130.039 36.9065 130.047 36.9256C130.05 36.931 130.051 36.937 130.055 36.9412C130.06 36.9456 130.098 36.9967 130.11 37.0135C130.112 37.0165 130.113 37.0204 130.116 37.023C130.12 37.028 130.183 37.0776 130.19 37.0825C130.218 37.0992 130.248 37.1091 130.276 37.1208C130.278 37.1217 130.28 37.1222 130.283 37.1222C130.283 37.1222 130.285 37.1223 130.286 37.1224C130.294 37.1236 130.301 37.1248 130.308 37.1259C130.324 37.1285 130.341 37.1293 130.357 37.1324C130.373 37.1356 130.389 37.1373 130.405 37.1366C130.433 37.1355 130.461 37.1318 130.487 37.1222C130.517 37.1126 130.547 37.0984 130.575 37.084C130.577 37.0831 130.578 37.0829 130.58 37.082C130.582 37.0814 130.584 37.0797 130.585 37.079C130.612 37.0648 130.636 37.0466 130.655 37.0245C130.677 36.9992 130.696 36.9711 130.714 36.9423C130.73 36.9159 130.742 36.8875 130.749 36.8569C130.763 36.809 130.766 36.7611 130.758 36.7132C130.757 36.7114 130.759 36.71 130.761 36.7111Z" fill="#3048EA" stroke="#3048EA"/>
<path d="M130.761 39.0021C130.762 39.003 130.764 39.0022 130.764 39.0006C130.769 38.9546 130.768 38.9087 130.757 38.8628L130.721 38.7735C130.69 38.7175 130.647 38.6735 130.593 38.6414C130.591 38.6402 130.59 38.64 130.588 38.639C130.587 38.6385 130.585 38.6368 130.584 38.6362C130.57 38.6291 130.551 38.6221 130.54 38.6173C130.531 38.6127 130.511 38.6037 130.497 38.5985C130.495 38.5978 130.494 38.5975 130.492 38.5975C130.491 38.5975 130.489 38.5974 130.487 38.5971C130.454 38.5899 130.421 38.5851 130.388 38.5826C130.35 38.5793 130.298 38.5902 130.253 38.6072C130.212 38.6229 130.174 38.6514 130.14 38.6792C130.132 38.686 130.125 38.6918 130.121 38.6947C130.119 38.6961 130.117 38.6975 130.116 38.6992C130.094 38.7239 130.072 38.7512 130.055 38.781C130.039 38.8094 130.028 38.8424 130.016 38.8734C130.015 38.8762 130.015 38.8793 130.014 38.8822C130.014 38.8824 130.014 38.8827 130.014 38.883C130.013 38.8861 130.012 38.8893 130.012 38.8925C130.012 38.9099 130 38.9793 130 38.9942C130 38.9967 130 39.0016 130 39.0041C130 39.0066 130 39.0116 130 39.014C130.002 39.048 130.006 39.0798 130.013 39.1134C130.014 39.1199 130.014 39.1265 130.014 39.1331C130.014 39.1331 130.015 39.1396 130.016 39.1427C130.022 39.1596 130.039 39.1997 130.047 39.2189C130.049 39.2244 130.051 39.2304 130.055 39.2347C130.06 39.2393 130.101 39.2942 130.111 39.3088C130.112 39.3101 130.115 39.3129 130.116 39.314C130.12 39.319 130.183 39.3686 130.19 39.3736C130.218 39.3903 130.248 39.4001 130.276 39.4118C130.278 39.4127 130.28 39.4132 130.283 39.4132C130.283 39.4132 130.285 39.4133 130.286 39.4134C130.294 39.4146 130.301 39.4158 130.308 39.4169C130.324 39.4195 130.341 39.4203 130.357 39.4235C130.373 39.4266 130.389 39.4283 130.405 39.4276C130.433 39.4265 130.461 39.4228 130.487 39.4132C130.517 39.4036 130.547 39.3894 130.575 39.3751C130.577 39.3741 130.578 39.3739 130.58 39.373C130.582 39.3724 130.584 39.3707 130.585 39.37C130.612 39.3558 130.636 39.3376 130.655 39.3155C130.677 39.2903 130.696 39.2621 130.714 39.2333C130.73 39.2069 130.742 39.1785 130.749 39.1479C130.763 39.1 130.766 39.0522 130.758 39.0043C130.757 39.0024 130.759 39.001 130.761 39.0021Z" fill="#3048EA" stroke="#3048EA"/>
<path d="M102.755 101.169C105.205 101.127 107.069 102.833 107.099 105.145C107.13 107.441 105.272 109.411 102.926 109.425C100.54 109.439 98.5838 107.773 98.5517 105.291C98.5198 102.823 100.439 101.023 102.756 101.17L102.755 101.169Z" fill="#BBC1FB" fill-opacity="0.6"/>
<path d="M72.5956 102.974C75.0463 102.932 76.9098 104.637 76.9403 106.949C76.9706 109.246 75.1126 111.216 72.7666 111.23C70.3803 111.243 68.4246 109.578 68.3925 107.096C68.3606 104.627 70.2795 102.828 72.5967 102.975L72.5956 102.974Z" fill="#BBC1FB" fill-opacity="0.6"/>
<path d="M110.017 98.288C110.254 113.006 102.808 123.414 87.9408 123.723C76.1139 123.968 65.296 113.83 65.059 99.1117C64.822 84.3937 74.6934 72.2785 87.1087 72.0511C99.524 71.8236 109.78 83.57 110.017 98.288Z" stroke="#3048EA" stroke-miterlimit="10" stroke-linejoin="round"/>
<path d="M83.1997 108.578C84.0631 108.965 85.9353 109.757 87.6999 109.821C90.4854 109.922 92.0886 108.599 92.9978 108.081" stroke="#3048EA" stroke-width="1.02111" stroke-miterlimit="10" stroke-linecap="round" stroke-linejoin="round"/>
<path d="M71.7149 64.7998C68.9034 65.1626 64.3975 69.7287 62.5822 71.7912C57.8225 77.1984 56.3749 83.6002 56.2773 87.3428C56.3286 90.6839 57.3337 92.8573 58.8258 94.8329C60.0671 96.4193 63.4321 98.4044 65.0628 99.1035C66.3931 89.5318 72.7892 84.2592 80.1001 79.0015C74.7574 75.1622 72.2786 67.23 71.7149 64.7985L71.7149 64.7998Z" fill="#FCF0F0" stroke="#3048EA" stroke-miterlimit="10" stroke-linejoin="round"/>
<path d="M82.5076 99.3377C82.5591 100.161 82.409 100.912 82.1313 101.46C81.852 102.012 81.4574 102.336 81.0263 102.363C80.5952 102.391 80.1632 102.119 79.8174 101.607C79.4735 101.097 79.2309 100.371 79.1794 99.5478C79.1279 98.7248 79.278 97.9735 79.5558 97.4251C79.835 96.8735 80.2297 96.5493 80.6608 96.5221C81.0919 96.4949 81.5238 96.7669 81.8697 97.279C82.2136 97.7882 82.4561 98.5147 82.5076 99.3377Z" fill="#3048EA" stroke="#3048EA" stroke-width="0.255277" stroke-linejoin="round"/>
<path d="M96.3714 98.4861C96.4229 99.3092 96.2728 100.06 95.9951 100.609C95.7158 101.16 95.3211 101.485 94.8901 101.512C94.459 101.539 94.027 101.267 93.6812 100.755C93.3373 100.246 93.0947 99.5193 93.0432 98.6963C92.9917 97.8732 93.1418 97.1219 93.4195 96.5735C93.6988 96.022 94.0935 95.6977 94.5246 95.6705C94.9556 95.6433 95.3876 95.9154 95.7334 96.4274C96.0773 96.9366 96.3199 97.6631 96.3714 98.4861Z" fill="#3048EA" stroke="#3048EA" stroke-width="0.255277" stroke-linejoin="round"/>
<path d="M78.4671 94.3246C79.7048 93.5279 80.3653 92.3536 79.9422 91.7016C79.5191 91.0496 78.1728 91.167 76.935 91.9637C75.6973 92.7604 75.0368 93.9348 75.4599 94.5867C75.883 95.2387 77.2293 95.1214 78.4671 94.3246Z" fill="#3048EA"/>
<path d="M98.2407 92.7162C98.5587 92.0052 97.7286 90.9427 96.3866 90.3431C95.0446 89.7434 93.699 89.8337 93.381 90.5447C93.063 91.2557 93.8931 92.3181 95.235 92.9178C96.577 93.5174 97.9227 93.4272 98.2407 92.7162Z" fill="#3048EA"/>
<path d="M79.9877 56.2282C78.6743 56.081 74.5655 57.0213 71.593 59.4397C68.3529 62.0766 68.7936 65.3362 69.0258 67.0345C70.2524 75.992 87.9585 84.3179 95.195 83.5156C102.432 82.7133 110.149 92.451 109.944 94.7786C121.722 87.105 117.866 74.1724 111.246 70.3286C106.755 67.722 108.091 64.8862 102.037 57.9731C101.508 57.3703 97.9213 53.2833 90.516 51.6989C88.4776 51.2625 86.2854 51.1589 84.155 52.2817C82.3502 53.2336 80.4625 54.9657 79.9864 56.227L79.9877 56.2282Z" fill="#FCF0F0" stroke="#3048EA" stroke-miterlimit="10" stroke-linejoin="round"/>
<path d="M80.0347 56.2148L80.4496 58.5754C80.4523 58.5904 80.4552 58.6066 80.4579 58.6215C80.8721 60.9346 82.2545 62.9698 84.2475 64.2625L85.7015 65.2061" stroke="#3048EA" stroke-miterlimit="10" stroke-linecap="round" stroke-linejoin="round"/>
<path d="M91.6676 51.9432C91.3636 54.0864 91.7971 56.2662 92.945 58.1515C94.0968 60.0443 95.7571 61.7328 97.8006 63.2692C97.8006 63.2692 100.872 65.9351 103.123 67.1827C105.853 68.6962 110.613 69.9173 110.613 69.9173" stroke="#3048EA" stroke-miterlimit="10" stroke-linecap="round" stroke-linejoin="round"/>
<path d="M18.5 66C19.8813 66 21 64.8813 21 63.5C21 62.1187 19.8813 61 18.5 61C17.1187 61 16 62.1187 16 63.5C16 64.8813 17.1198 66 18.5 66Z" fill="#3048EA"/>
<path d="M162.5 89C163.881 89 165 87.8813 165 86.5C165 85.1187 163.881 84 162.5 84C161.119 84 160 85.1187 160 86.5C160 87.8813 161.12 89 162.5 89Z" fill="#B9BCFF"/>
<path d="M139.422 108.804C139.181 108.963 139.016 109.214 138.964 109.497L138.017 114.761C137.914 115.333 138.295 115.88 138.867 115.983C138.93 115.995 138.993 116 139.055 116C139.555 116 139.998 115.643 140.089 115.134L140.841 110.96L145.656 112.078C145.939 112.143 146.234 112.091 146.475 111.931C146.716 111.771 146.881 111.519 146.932 111.235L147.984 105.235C148.084 104.662 147.701 104.117 147.129 104.016C146.559 103.915 146.012 104.298 145.911 104.871L145.051 109.776L140.241 108.658C139.957 108.594 139.662 108.647 139.422 108.804Z" fill="#3048EA"/>
<path d="M31 81L32.8906 86.1094L38 88L32.8906 89.8906L31 95L29.1094 89.8906L24 88L29.1094 86.1094L31 81Z" fill="#B9BCFF"/>
<path d="M148 52L149.35 55.6495L153 57L149.35 58.3505L148 62L146.65 58.3505L143 57L146.65 55.6495L148 52Z" fill="#3048EA"/>
<path d="M19 108L20.3505 111.65L24 113L20.3505 114.35L19 118L17.6495 114.35L14 113L17.6495 111.65L19 108Z" fill="#3048EA"/>
</svg>
