<svg width="115" height="104" viewBox="0 0 115 104" fill="none" xmlns="http://www.w3.org/2000/svg">
<path d="M111.336 13.015C111.019 15.3999 109.681 17.685 108.091 19.8587C102.334 27.7249 94.4607 33.4251 86.8769 39.3868C79.8596 44.9021 72.6585 50.1784 64.8758 54.6827C60.1565 57.412 55.8446 57.6059 51.0085 55.0455C39.8464 49.1371 29.9856 41.4772 20.0168 33.9447C15.1619 30.2786 10.61 26.303 6.87651 21.5064C5.60733 19.8754 4.54911 18.1315 3.86783 16.1954C3.23696 14.4038 3.21669 12.6082 4.65953 11.1354C6.11221 9.65114 7.96056 9.62916 9.81153 10.2013C13.2605 11.2674 16.2401 13.1814 18.9679 15.4079C20.7647 16.875 22.4226 16.9929 24.6975 16.3892C39.6154 12.4281 54.8628 12.1846 70.1259 12.7437C77.3665 13.0081 84.6118 13.6127 91.5986 15.6673C93.3283 16.1769 94.3967 15.2784 95.561 14.368C98.4583 12.1028 101.393 9.85873 104.954 8.68147C108.657 7.45847 111.407 9.24622 111.335 13.0194L111.336 13.015Z" fill="#3048EA"/>
<path d="M109.549 89.9661C109.507 92.8947 107.351 94.4257 104.09 93.9514C100.849 93.4813 98.0385 91.9615 95.5939 90.0385C93.7551 88.5922 92.1147 88.5993 89.8789 89.093C75.8868 92.1869 61.7108 93.1444 47.3976 92.4323C39.6612 92.048 31.9498 91.6071 24.4307 89.7583C23.0337 89.4143 22.1104 90.0133 21.1174 90.7899C18.6327 92.741 15.9417 94.4076 12.8155 95.2663C10.9972 95.7654 9.11703 95.8633 7.61657 94.4885C6.06249 93.0652 6.38081 91.3223 6.97644 89.6155C8.23389 86.0125 10.4059 82.9065 13.1723 80.191C21.4807 72.0456 29.872 63.9749 38.1486 55.7996C39.7798 54.1869 41.2415 53.6535 43.2203 55.0669C43.9951 55.6198 44.9395 55.9601 45.7422 56.4852C53.7539 61.7339 61.6115 61.4428 69.6952 56.1885C74.8358 52.8467 74.9837 53.0998 79.5571 57.3435C87.1478 64.3872 94.7986 71.3727 102.361 78.4442C105.882 81.7373 108.692 85.479 109.549 89.962L109.549 89.9661Z" fill="#3048EA"/>
<path d="M9.83065 65.4705C9.26756 56.9947 9.39909 48.4793 10.1172 40.0081C10.1935 39.0948 10.2767 38.183 10.3663 37.2705C10.7303 33.5453 11.5836 33.2735 14.3819 35.5159C20.6858 40.5662 26.9589 45.659 33.3336 50.6066C35.2145 52.066 35.8562 53.311 33.8578 55.1094C26.9337 61.3406 21.4449 69.0268 14.8311 75.569C14.0642 76.3283 13.4604 77.7209 12.211 77.3456C10.9275 76.9613 11.2382 75.422 10.9972 74.3625C10.3287 71.4297 10.0263 68.4555 9.82826 65.4686L9.83065 65.4705Z" fill="#3048EA"/>
<path d="M105.781 45.2147C106.074 51.3027 106.098 57.4036 105.792 63.4945C105.621 66.9156 105.346 70.3306 104.684 73.7145C104.205 76.1555 103.52 76.7653 101.67 74.9122C94.7794 68.0009 88.7262 60.184 81.5798 53.5479C79.8218 51.914 80.3017 50.6233 82.0623 49.144C88.4624 43.7637 94.8026 38.296 101.051 32.711C103.579 30.4517 104.338 31.6598 104.794 34.3359C105.407 37.9347 105.607 41.5734 105.781 45.2127L105.781 45.2147Z" fill="#3048EA"/>
</svg>
