<svg width="161" height="124" viewBox="0 0 161 124" fill="none" xmlns="http://www.w3.org/2000/svg">
<path d="M160.977 66.975C160.817 63.3487 157.655 59.7269 153.458 59.2887C149.917 58.9208 148.897 57.3813 148.623 54.25C148.258 50.081 148.021 45.7666 146.713 41.8406C144.415 34.9354 141.804 28.0506 136.673 22.4783C134.824 20.4687 134.308 17.8778 135.365 15.6048C136.769 12.5939 136.397 9.60334 136.343 6.56968C136.295 3.98789 133.451 1.40836 130.865 1.10636C125.883 0.522786 122.588 2.58459 120.597 6.93526C119.972 8.29996 119.038 8.9403 117.377 8.81087C114.802 8.61331 112.219 8.78135 109.674 9.34902C104.879 10.4231 100.253 11.7378 95.9473 14.3173C94.2442 15.3391 92.3296 17.8006 89.7715 16.3473C83.9953 13.0639 77.8496 11.5879 71.1998 12.0943C70.4005 12.1556 69.7197 11.9853 69.2225 11.3768C67.6983 9.51479 65.6374 8.32494 63.7019 6.94662C57.5842 2.58232 50.9227 -0.115282 43.0624 0.0482089C39.9721 -0.17432 36.8099 0.363837 33.9636 1.86477C25.1715 6.49702 20.9939 14.5739 17.576 23.1958C17.109 24.3743 17.0184 25.9002 15.2758 26.2726C11.3839 27.1037 9.63898 29.1678 9.83183 32.928C10.0154 36.4999 13.0336 39.3292 16.5351 39.4631C20.8545 39.6266 24.4791 34.538 22.6575 30.6528C21.7885 28.8022 22.0046 27.8462 24.0934 27.3716C26.0126 26.9334 39.2193 35.578 39.2193 35.8777C38.8917 36.6475 36.9353 36.5793 35.6644 36.7678C33.8172 37.0448 32.0095 37.7011 30.246 38.346C24.9996 40.267 20.6895 43.6231 16.7349 47.3516C15.6615 48.3643 14.6856 48.4483 13.9188 47.9329C10.2617 45.4737 6.81827 46.6136 3.419 48.3166C-0.598308 50.3285 -1.14665 55.6714 2.1527 58.612C5.13839 61.2733 9.07438 61.2438 12.5991 62.3337C13.7399 62.6857 14.2465 62.7061 14.2906 64.0435C14.5276 71.1736 15.5453 78.1514 17.4645 85.1066C19.7601 93.4333 23.6566 100.666 29.7581 106.799C30.9245 107.97 31.1754 108.979 30.7967 110.627C30.081 113.733 28.5963 116.694 30.3761 120.191C32.4115 124.192 35.5203 125.232 39.1519 122.394C40.5507 121.297 42.1492 120.421 43.9221 119.926C49.1081 118.481 54.6055 118.288 59.6335 116.127C60.6372 115.695 61.8896 115.782 62.1429 117.596C62.3938 119.378 63.6717 119.967 65.6908 119.953C69.8406 119.921 73.6581 118.459 77.1642 116.887C82.7127 114.399 88.2101 111.722 93.5239 108.677C101.87 103.899 109.99 98.8353 117.849 93.3379C119.661 92.0731 121.276 90.4087 123.778 90.3406C132.082 90.1135 139.371 87.4886 145.156 81.4689C146.137 80.4471 147.457 80.0543 148.644 79.4253C150.554 78.408 152.808 78.1514 154.725 77.3839C159.174 75.5992 161.244 72.9856 160.977 66.975ZM16.1145 37.2469C14.1744 37.3128 11.5094 34.5334 11.4838 32.4126C11.456 30.1237 13.4983 28.5161 16.4027 28.541C19.2977 28.5683 21.0427 30.2736 20.9799 33.0098C20.9218 35.6211 19.1792 37.1379 16.1145 37.2469ZM20.7731 26.6881C20.255 26.9947 19.7136 26.9061 19.2513 26.486C18.761 26.041 18.9236 25.6822 19.1583 25.0941C22.1417 17.5849 25.6478 10.5003 32.4905 5.4207C36.6937 2.30075 41.3523 1.78757 46.2386 2.26442C50.7624 2.70721 55.1213 3.88343 59.1014 6.94208C56.218 8.04564 53.2811 8.8086 50.6857 10.037C45.0466 12.7074 36.782 22.6281 34.9023 29.0588C34.5282 30.3463 25.5038 23.8974 20.7731 26.6881ZM38.0297 32.2582C36.7611 31.4998 36.0152 30.948 36.6867 29.2313C38.8708 23.6363 46.6824 14.5353 51.8986 12.142C54.7542 10.8318 57.7003 9.63967 61.4969 9.83495C61.5899 9.89626 62.3194 9.85085 63.042 9.92124C63.9296 10.0075 65.0217 10.1347 65.175 11.1724C65.3934 12.6484 55 12.5 49.9608 18.6907C47.7047 20.7162 42.5651 29.027 40.6274 31.3113C39.9861 32.072 39.4586 33.1142 38.0297 32.2582ZM58.1743 87.945C55.2955 81.0057 51.1876 74.7772 47.4166 68.3238C43.3296 61.3255 40.2904 53.839 40.6599 45.4987C41.1339 34.7855 45.1977 25.6663 54.2267 19.3651C60.0099 15.3301 66.8363 13.786 74.0391 14.4536C78.6861 14.6784 82.9683 15.9273 87.2644 17.8029C92.7084 20.178 96.8535 24.0587 101.012 27.8666C103.743 30.3667 105.643 33.7637 107.772 36.8541C111.677 42.5218 116.401 47.4719 121.631 51.9498C126.176 55.8417 130.939 59.4817 136.234 62.3859C136.557 62.5653 137.017 62.613 136.883 63.0762C136.546 64.2343 135.389 63.8891 134.585 64.2002C124.731 68.1512 115.337 73.0741 106.38 78.5897C91.8928 87.5068 77.8311 97.0914 66.0672 109.469C65.6955 109.862 65.2703 110.209 64.7335 110.704C63.0583 108.529 63.5718 105.983 63.0653 103.724C61.8547 98.3289 60.305 93.0836 58.1743 87.945ZM100.731 101.519C95.2386 105.132 89.3741 108.111 83.5654 111.197C80.2219 112.975 76.6414 114.156 73.2538 115.761C70.8466 116.903 68.2931 116.751 65.8581 117.398C64.6522 117.355 64.3409 116.713 65.0704 115.334C66.267 113.084 67.9098 111.093 69.7197 109.328C74.7664 104.414 80.1243 99.8344 85.9191 95.7653C86.3652 95.452 86.823 95.1454 87.2319 94.7889C89.7273 92.5999 89.8133 92.6522 91.8161 95.1386C93.9398 97.7749 96.5653 99.6505 100.204 99.646C100.871 99.646 101.677 99.5892 101.891 100.275C102.13 101.049 101.229 101.192 100.731 101.519ZM111.152 88.0381C111.161 92.6136 107.532 96.0582 103.413 97.3435C100.236 98.3335 95.2386 95.8266 93.2822 92.7453C92.5271 91.5554 92.7664 90.7402 93.8283 90.0431C97.8247 87.4205 101.798 84.7637 105.859 82.241C108.38 80.6765 110.66 82.5135 111.143 86.4032C111.208 86.9391 111.152 87.4931 111.152 88.0381ZM140.828 70.2426C139.517 72.8403 137.126 74.5115 135.1 76.4643C128.804 82.5339 121.58 87.5045 114.551 92.6999C114.226 92.9405 113.608 93.1131 113.278 92.9746C112.456 92.6249 113.143 92.1049 113.285 91.6553C114.549 87.6929 113.929 84.0666 111.292 80.7832C110.471 79.7614 110.89 78.9961 111.938 78.4285C120.067 74.0233 128.176 69.575 137.066 66.7252C139.027 65.3628 141.241 65.7193 143.734 65.7965C142.749 67.411 142.236 69.0777 140.828 70.2426Z" fill="#3048EA"/>
<path d="M50.2795 19.3949C46.4995 23.0005 42.5656 29.0295 40.6278 31.3138C39.9865 32.0745 39.459 33.1168 38.0301 32.2607C36.7615 31.5023 36.0156 30.9505 36.6871 29.2339C38.8712 23.6388 46.6828 14.5379 51.899 12.1445C54.7546 10.8343 57.7008 9.64221 61.4973 9.83749C61.5903 9.8988 62.3199 9.85338 63.0425 9.92377C63.93 10.0101 65.0221 10.1372 65.1754 11.1749C65.3938 12.6509 57.9995 13.0005 50.2795 19.3949Z" fill="#FFFEFE"/>
<path d="M59.1012 6.94155C56.2178 8.04512 53.2809 8.80808 50.6855 10.0365C45.0464 12.7069 36.7818 22.6276 34.9021 29.0582C34.528 30.3457 25.5036 23.8969 20.773 26.6876C20.2548 26.9942 19.7134 26.9056 19.2511 26.4855C18.7608 26.0405 18.9235 25.6817 19.1581 25.0936C22.1415 17.5844 25.6476 10.4998 32.4903 5.42018C36.6935 2.30023 41.3521 1.78705 46.2384 2.2639C50.7622 2.70668 55.1211 3.88291 59.1012 6.94155Z" fill="#FFFEFE"/>
<path d="M134.585 64.1994C124.731 68.1504 115.337 73.0756 106.377 78.5911C91.8904 87.5082 77.8287 97.0906 66.0672 109.468C65.6931 109.861 65.2702 110.208 64.7335 110.703C63.0583 108.53 63.5718 105.985 63.0652 103.723C61.8547 98.3281 60.3049 93.0828 58.1743 87.9464C55.2955 81.0049 51.1876 74.7763 47.4165 68.323C43.3272 61.3269 40.2904 53.8404 40.6598 45.5001C41.1338 34.7847 45.1976 25.6632 54.2267 19.3643C60.0075 15.3292 66.8339 13.7874 74.0391 14.455C74.297 14.8478 74.6083 15.0999 75.1265 15.1953C82.8056 16.6167 89.2138 20.3838 94.9133 25.4611C100.536 30.468 104.337 36.91 109.04 42.6368C116.22 51.3812 124.673 58.5907 134.585 64.1994Z" fill="#B9BCFF"/>
<path d="M65.8589 117.399C64.653 117.358 64.3416 116.715 65.0712 115.337C66.2655 113.084 67.9105 111.095 69.7205 109.331C74.7648 104.417 80.1251 99.8371 85.9199 95.768C86.366 95.4547 86.8237 95.1481 87.2303 94.7916C89.7258 92.6027 89.8117 92.6549 91.8169 95.1413C93.9406 97.7776 96.5638 99.6555 100.205 99.6487C100.872 99.6487 101.678 99.5919 101.889 100.278C102.129 101.05 101.229 101.193 100.732 101.52C95.2371 105.132 89.3749 108.114 83.5662 111.2C80.2227 112.975 76.6422 114.158 73.2545 115.764C70.8474 116.906 68.2939 116.754 65.8589 117.399Z" fill="#B9BCFF"/>
<path d="M140.827 70.2443C139.517 72.842 137.128 74.5132 135.1 76.466C128.803 82.5356 121.582 87.5062 114.551 92.7016C114.226 92.9423 113.608 93.1148 113.28 92.9763C112.455 92.6289 113.143 92.1089 113.287 91.657C114.549 87.6947 113.931 84.0706 111.291 80.7849C110.473 79.7654 110.889 78.9978 111.937 78.4302C120.067 74.025 128.176 69.5767 137.066 66.727C139.975 66.2092 140.065 68.5708 140.827 70.2443Z" fill="#B9BCFF"/>
<path d="M134.584 64.2034C124.674 58.5947 116.219 51.3829 109.041 42.6407C104.339 36.9117 100.537 30.472 94.9146 25.4651C89.2151 20.3878 82.8046 16.6207 75.1255 15.1992C74.6097 15.1039 74.296 14.8518 74.0381 14.459C78.6851 14.6838 82.9673 15.9327 87.2634 17.806C92.7073 20.1812 96.8501 24.0618 101.011 27.8698C103.742 30.3698 105.642 33.7668 107.77 36.8572C111.676 42.5249 116.4 47.4751 121.63 51.9529C126.175 55.8449 130.938 59.4848 136.236 62.3891C136.559 62.5662 137.019 62.6139 136.884 63.0771C136.547 64.2352 135.39 63.8923 134.586 64.2011L134.584 64.2034Z" fill="#FFFEFE"/>
<path d="M111.152 88.04C111.161 92.6177 107.532 96.0624 103.413 97.3454C100.234 98.3354 95.2386 95.8263 93.2822 92.7472C92.5271 91.5573 92.7664 90.7421 93.8283 90.045C97.8247 87.4224 101.798 84.7656 105.859 82.2429C108.38 80.6784 110.657 82.5154 111.141 86.4051C111.208 86.9433 111.15 87.495 111.152 88.04Z" fill="#FFFEFE"/>
<path d="M140.827 70.2452C140.065 68.5716 139.977 66.2101 137.065 66.7278C139.026 65.3654 141.241 65.7219 143.734 65.7968C142.746 67.4136 142.235 69.0826 140.825 70.2452H140.827Z" fill="#FFFEFE"/>
</svg>
