<svg width="115" height="109" viewBox="0 0 115 109" fill="none" xmlns="http://www.w3.org/2000/svg">
<path fill-rule="evenodd" clip-rule="evenodd" d="M44.7919 48.1366C44.9887 48.6397 45.1855 49.1428 45.3708 49.6345C44.7687 46.3872 44.3288 42.6026 44.5024 41.3449C49.2378 33.1696 56.8561 25.3831 65.6668 18.82C65.7363 19.8033 65.4005 23.7824 65.5974 25.5089C65.5395 23.3021 67.5309 18.134 67.7856 17.2764C83.161 6.56284 102.16 -0.857785 115 0.0797974C109.107 5.39658 104.406 10.7477 100.204 15.3327C99.6248 15.2641 92.9675 15.7329 92.2844 16.1673C93.3496 16.1445 98.6291 16.0073 99.4395 16.4075C92.817 24.6742 88.7763 31.9233 84.2493 38.9666C84.0988 39.2067 76.1332 41.0133 74.0029 41.928C76.0985 41.9623 80.1855 41.505 82.4432 41.6879C76.3185 51.3038 77.4879 56.5291 65.7942 60.5082C69.2212 59.7993 70.4832 59.2847 73.0883 58.4729C71.4789 59.9479 61.9619 63.0694 60.5841 63.3323C62.7955 63.0694 65.4816 62.3605 68.4687 61.2971C64.8564 64.3843 58.8822 65.3904 52.9659 65.3333C51.1134 69.095 47.9642 77.5219 46.4475 81.4437C50.5924 58.2442 63.467 30.5284 83.9367 16.1788C66.4888 25.6575 55.3857 45.7355 49.1568 64.4186C44.3982 62.3948 40.8786 58.2671 39.686 53.2933C40.8091 55.7402 42.4532 57.9355 44.4909 59.7192C42.511 57.0894 41.1217 54.0709 40.4154 50.8808C41.1101 52.2414 41.8279 53.5906 42.5574 54.917C41.4806 50.9265 41.6543 46.7074 43.0784 42.8199C44.2246 46.3872 44.7919 48.1595 44.7919 48.1595V48.1366Z" fill="#B9BCFF"/>
<path fill-rule="evenodd" clip-rule="evenodd" d="M32.9014 79.4775C31.2457 79.4775 30.0995 80.8267 29.8911 82.4503L29.1964 88.0186C29.8679 88.2473 30.5279 88.4645 31.1994 88.6818C36.6294 90.4312 42.1521 91.9519 47.7095 93.2668C47.8368 93.2782 47.9526 93.3125 48.0684 93.3468C53.6026 94.6503 59.1947 95.7708 64.8216 96.6284C66.4309 96.8799 68.0634 97.1086 69.6843 97.303L67.8434 82.4389C67.6466 80.8152 66.4888 79.466 64.8332 79.466H61.6956V78.7C62.3902 78.6314 62.946 78.0482 62.946 77.3508V70.5247C62.946 69.7815 62.3324 69.1641 61.5682 69.1641H36.1432C35.3906 69.1641 34.7654 69.7701 34.7654 70.5247V77.3508C34.7654 78.0597 35.3096 78.6314 36.0158 78.7V79.466H32.8782L32.9014 79.4775ZM28.5249 93.5298C34.0128 95.0962 40.1028 94.5588 45.6602 95.8737C45.776 95.9195 45.8917 95.9423 46.0191 95.9538C51.8428 97.3258 60.2831 100.973 66.1994 101.888C67.8319 102.14 69.1865 102.723 70.46 103.409L70.7842 106.027C70.981 107.651 69.4296 109 67.774 109H29.9837C28.3281 109 26.7766 107.651 26.9735 106.027L28.5249 93.5298Z" fill="#3048EA"/>
<path opacity="0.2" fill-rule="evenodd" clip-rule="evenodd" d="M41.2025 106.531L42.5803 95.3144C38.748 94.7999 34.7652 94.7885 30.9792 94.091L29.4741 106.28C29.5552 106.417 29.8446 106.531 29.9951 106.531H41.2141H41.2025ZM42.9739 92.0786L44.2128 81.9367H39.4427C39.4658 81.7995 41.3878 81.4565 41.3878 79.4784V78.7124C41.3878 77.7977 40.8899 77.0087 40.1374 76.5742H44.9075L45.5327 71.6348H37.3008V76.5742C38.0533 76.9973 38.5512 77.7977 38.5512 78.7124V79.4784C38.5512 80.8391 37.4281 81.9367 36.0619 81.9367H32.9243C32.5886 81.9367 32.4265 82.4856 32.3918 82.7371L31.6392 88.7971C35.3788 89.9977 39.1764 91.0839 42.9855 92.0672L42.9739 92.0786Z" fill="#FFFEFE"/>
<path fill-rule="evenodd" clip-rule="evenodd" d="M69.6146 83.2042C74.57 84.8279 78.9811 86.5086 82.6629 88.1551C91.5316 92.1113 96.568 96.4333 95.6649 100.149C94.7618 103.877 88.3013 105.466 78.5759 105.032C70.0662 104.654 58.604 102.951 46.2389 100.024H46.2041C33.8274 97.0965 22.8515 93.4948 15.1059 90.0303C6.23723 86.0742 1.20085 81.7521 2.10393 78.0361C3.007 74.3086 9.46747 72.7193 19.1929 73.1538C23.2567 73.3367 27.9805 73.817 33.1558 74.5945V77.3729C33.1558 77.5444 33.1674 77.7045 33.2021 77.8646H32.9127C31.5349 77.8646 30.3656 78.4592 29.5435 79.3853C25.6649 78.8708 22.1105 78.5506 18.9613 78.402C5.22996 77.7845 4.39635 79.4425 17.3057 85.2166C24.8082 88.5668 35.4598 92.0655 47.4777 94.9012H47.5124C59.5303 97.7368 70.6103 99.3947 78.819 99.7606C92.5273 100.378 93.5577 98.7887 80.4863 92.946C77.5571 91.631 74.1416 90.3047 70.344 89.0012L69.6262 83.1928L69.6146 83.2042Z" fill="#B9BCFF"/>
<path opacity="0.2" fill-rule="evenodd" clip-rule="evenodd" d="M42.6618 94.6621C38.5401 93.5987 34.4531 92.4325 30.4124 91.1176C25.8507 89.6426 21.289 87.9961 16.9242 86.0409C15.5116 85.4121 14.0991 84.7603 12.7098 84.0628C11.7025 83.5597 10.6837 83.0224 9.7227 82.4164C8.727 81.7875 6.88612 80.6098 7.23345 79.2034C7.58079 77.797 9.79217 77.5684 10.9731 77.4655C12.1077 77.3626 13.254 77.3397 14.3886 77.3397C15.9285 77.3397 17.4683 77.3969 18.9966 77.4655C22.4005 77.6141 25.8044 77.9571 29.1851 78.3916C30.0187 77.6027 31.0723 77.0996 32.2185 76.9624V75.3502C27.8884 74.7213 23.5004 74.2411 19.1471 74.0353C16.982 73.9438 14.7822 73.9324 12.6172 74.0925C10.9384 74.2182 9.21327 74.4469 7.59237 74.8928C5.89042 75.3616 3.47064 76.3106 3.00752 78.2201C2.54441 80.1296 4.25794 82.0619 5.56624 83.2396C6.80507 84.3601 8.24073 85.332 9.68797 86.201C11.552 87.3101 13.5087 88.282 15.4885 89.1738C19.9344 91.1633 24.5771 92.8327 29.2083 94.3305C33.5037 95.714 37.857 96.9603 42.245 98.0809L42.6618 94.6507V94.6621Z" fill="#FFFEFE"/>
<path opacity="0.26" fill-rule="evenodd" clip-rule="evenodd" d="M30.759 95.8049C29.937 95.5533 29.1381 95.2903 28.3393 95.0273L28.1309 96.6967C28.2119 96.7196 28.3045 96.7539 28.3856 96.7767C29.1034 97.0054 29.8212 97.2341 30.5506 97.4628C34.3019 98.629 38.0994 99.6924 41.9201 100.664C43.1474 100.973 44.3746 101.282 45.6135 101.568C45.7293 101.613 45.845 101.636 45.9724 101.648C51.7961 103.02 57.6776 104.197 63.5939 105.101C65.979 105.467 68.3756 105.787 70.7838 106.061C70.7838 106.05 70.7838 106.027 70.7838 106.015L70.5754 104.369C63.4203 103.568 55.061 102.105 46.2271 100.013H46.1924C44.8146 99.6924 43.46 99.3494 42.117 99.0063C38.1342 97.9887 34.325 96.9139 30.7475 95.7934L30.759 95.8049Z" fill="#1D1819"/>
<path fill-rule="evenodd" clip-rule="evenodd" d="M86.5 71C87.3883 67.7487 86.7487 68.3706 90 67.5C86.7487 66.6117 87.3706 67.2513 86.5 64C85.6117 67.2513 86.2513 66.6294 83 67.5C86.2513 68.3883 85.6294 67.7487 86.5 71Z" fill="#B9BCFF"/>
<path fill-rule="evenodd" clip-rule="evenodd" d="M15 105C16 100.827 15.2909 101.625 19 100.5C15.2909 99.375 16 100.173 15 96C14 100.173 14.7091 99.375 11 100.5C14.7091 101.625 14 100.827 15 105Z" fill="#3048EA"/>
<path d="M97.734 74.7443C97.4401 74.9344 97.2386 75.2339 97.1757 75.5724L96.0206 81.8663C95.8948 82.5497 96.3594 83.2041 97.0576 83.3274C97.1346 83.3413 97.2104 83.3476 97.2861 83.3476C97.8957 83.3476 98.4361 82.9209 98.5478 82.3118L99.4642 77.3218L105.336 78.6583C105.681 78.7364 106.041 78.6734 106.335 78.4821C106.629 78.2908 106.83 77.9901 106.892 77.6503L108.175 70.4767C108.297 69.7921 107.83 69.1401 107.133 69.0193C106.437 68.8985 105.77 69.3566 105.647 70.0412L104.598 75.9059L98.7326 74.5694C98.386 74.4926 98.0267 74.5556 97.734 74.7443Z" fill="#3048EA"/>
<path d="M22.0804 44.0409C23.7823 44.0409 25.1608 42.6892 25.1608 41.0204C25.1608 39.3516 23.7823 38 22.0804 38C20.3785 38 19 39.3516 19 41.0204C19 42.6892 20.3798 44.0409 22.0804 44.0409Z" fill="#B9BCFF"/>
<path d="M5.5 52L6.9855 56.0145L11 57.5L6.9855 58.9855L5.5 63L4.0145 58.9855L0 57.5L4.0145 56.0145L5.5 52Z" fill="#3048EA"/>
<path d="M100.5 48L101.715 51.2846L105 52.5L101.715 53.7154L100.5 57L99.2846 53.7154L96 52.5L99.2846 51.2846L100.5 48Z" fill="#3048EA"/>
</svg>
