<svg width="247" height="354" viewBox="0 0 247 354" fill="none" xmlns="http://www.w3.org/2000/svg">
<path d="M0.00315094 28.6424C0.2491 37.2515 5.34154 43.7023 12.0768 49.1938C15.599 52.0655 19.6004 54.318 23.9928 55.7265C26.301 56.4672 27.6443 57.6694 28.6627 59.8429C31.3903 65.6592 35.9088 69.7604 42.3761 71.6425C43.8423 72.0705 45.359 72.3893 46.4185 70.9079C47.3708 69.5752 46.6014 68.4338 45.8257 67.2985C44.1955 64.9124 41.5153 62.0923 42.9027 59.6183C44.2649 57.1837 48.1212 58.7045 50.8551 58.6104C61.9323 58.231 72.5618 56.279 82.2328 50.7906C100.039 40.6818 100.676 19.1954 83.5413 7.96349C76.4403 3.30983 68.3176 1.55826 60.0089 0.717378C46.5667 -0.648668 33.1908 -0.396709 20.3666 4.4391C11.5534 7.76314 3.95412 12.4775 0.980644 21.8911C0.324776 23.9705 0.0378418 26.0894 0 28.6424H0.00315094ZM38.176 64.0351C34.7705 60.9448 32.6453 58.1369 31.0087 55.1103C29.8074 52.8882 28.174 51.7438 25.8658 50.8665C19.736 48.5442 14.6656 44.7496 10.5254 39.8288C3.78072 31.8116 4.28206 23.3087 11.7993 16.0778C15.2237 12.7841 19.3229 10.6531 23.8446 9.18686C35.521 5.39533 47.5348 5.52283 59.5769 6.56406C66.2743 7.14083 72.8046 8.53116 78.7484 11.8613C93.5307 20.1456 93.6663 37.6583 78.9692 46.061C68.4563 52.0716 56.9156 53.6441 44.9333 53.4225C38.3274 53.301 36.9053 54.9464 37.7535 61.3213C37.8291 61.892 37.93 62.4627 38.1792 64.0351H38.176Z" fill="#B9BCFF"/>
<path d="M38.176 64.0351C34.7705 60.9448 32.6453 58.1369 31.0087 55.1103C29.8074 52.8882 28.174 51.7438 25.8658 50.8665C19.736 48.5442 14.6656 44.7496 10.5254 39.8288C3.78072 31.8116 4.28206 23.3087 11.7993 16.0778C15.2237 12.7841 19.3229 10.6531 23.8446 9.18686C35.521 5.39533 47.5348 5.52283 59.5769 6.56406C66.2743 7.14083 72.8046 8.53116 78.7484 11.8613C93.5307 20.1456 93.6663 37.6583 78.9692 46.061C68.4563 52.0716 56.9156 53.6441 44.9333 53.4225C38.3274 53.301 36.9053 54.9464 37.7535 61.3213C37.8291 61.892 37.93 62.4627 38.1792 64.0351H38.176Z" fill="#FFFEFE"/>
<path d="M46.8836 18.265C44.0409 18.2342 41.7357 18.9526 39.9713 20.4171C39.0273 21.2009 38.3137 22.077 37.8284 23.0483C37.1699 24.3673 38.0403 25.9224 39.5507 26.118C40.7681 26.2766 41.9565 25.6774 42.515 24.6274C42.8408 24.0143 43.2476 23.5138 43.7342 23.1261C44.6314 22.4119 45.7417 22.0617 47.0651 22.0755C48.4377 22.0894 49.5252 22.4489 50.327 23.1514C51.1289 23.854 51.5257 24.6922 51.5148 25.6652C51.5077 26.3661 51.2724 27.0036 50.8078 27.5804C50.5072 27.9449 49.5899 28.7131 48.0566 29.8824C46.5236 31.0529 45.4989 32.1103 44.9812 33.0547C44.4636 33.9991 44.198 35.206 44.1823 36.6781C44.1749 37.337 44.7266 37.8762 45.4117 37.884L46.5622 37.8961C47.7727 37.9092 48.8423 37.0897 49.0423 35.9439C49.106 35.576 49.195 35.2807 49.3083 35.0595C49.58 34.5286 50.2698 33.8295 51.3807 32.9629C53.5245 31.2889 54.9267 29.9624 55.5863 28.9849C56.2458 28.0074 56.5813 26.9658 56.5932 25.8626C56.614 23.8696 55.7498 22.1122 53.9971 20.5934C52.2457 19.0744 49.8741 18.2988 46.8825 18.2664L46.8836 18.265Z" fill="#3048EA"/>
<path d="M46.7751 39.6233C45.3359 39.6081 44.1575 40.7157 44.1427 42.0972C44.1279 43.4786 45.2826 44.6105 46.7218 44.6258C48.161 44.641 49.3394 43.5334 49.3542 42.1519C49.369 40.7704 48.2143 39.6385 46.7751 39.6233Z" fill="#3048EA"/>
<path d="M149.498 275.098C166.035 275.098 179.441 266.645 179.441 256.218C179.441 245.791 166.035 237.338 149.498 237.338C132.962 237.338 119.556 245.791 119.556 256.218C119.556 266.645 132.962 275.098 149.498 275.098Z" stroke="#3048EA" stroke-width="2" stroke-miterlimit="10"/>
<path d="M165.972 213.169C165.972 214.734 164.938 215.133 164.187 215.538C161.224 217.15 158.244 218.9 155.021 219.739C150.522 220.906 145.896 220.804 141.351 219.567C138.082 218.674 135.004 217.388 132.324 215.204C132.076 215.002 131.816 214.817 131.608 214.579C131.406 214.347 131.169 214.056 131.441 213.728C131.666 213.461 131.932 213.669 132.157 213.764C133.803 214.466 135.42 215.258 137.089 215.883C142.939 218.061 148.917 219.09 155.068 217.519C157.909 216.793 160.612 215.621 163.257 214.323C164.089 213.913 164.961 213.597 165.972 213.169Z" fill="#3048EA"/>
<path d="M102.662 202.38C109.771 202.389 115.094 207.496 115.075 214.286C115.055 221.031 109.576 226.713 102.773 226.629C95.8527 226.541 90.2596 221.545 90.2823 214.257C90.305 207.007 95.9533 201.826 102.666 202.383L102.662 202.38Z" fill="#B9BCFF"/>
<path d="M195.281 202.773C202.389 202.783 207.713 207.889 207.693 214.679C207.674 221.424 202.194 227.107 195.391 227.022C188.471 226.934 182.878 221.939 182.9 214.65C182.923 207.401 188.571 202.219 195.284 202.776L195.281 202.773Z" fill="#B9BCFF"/>
<path d="M124.955 197.86C128.225 197.711 130.666 193.015 130.407 187.371C130.149 181.727 127.29 177.272 124.02 177.421C120.751 177.569 118.31 182.265 118.569 187.909C118.827 193.553 121.686 198.008 124.955 197.86Z" fill="#3048EA"/>
<path d="M172.826 196.908C176.095 196.759 178.536 192.063 178.278 186.419C178.02 180.775 175.16 176.32 171.891 176.468C168.622 176.617 166.181 181.313 166.439 186.957C166.697 192.601 169.557 197.056 172.826 196.908Z" fill="#3048EA"/>
<path d="M117.123 168.668C121.41 166.411 124.194 163.277 123.341 161.668C122.488 160.059 118.321 160.584 114.035 162.84C109.748 165.097 106.964 168.23 107.817 169.839C108.67 171.449 112.836 170.924 117.123 168.668Z" fill="#3048EA"/>
<path d="M186.177 168.772C186.795 167.194 183.635 164.501 179.121 162.759C174.606 161.016 170.445 160.883 169.827 162.461C169.209 164.04 172.368 166.732 176.883 168.475C181.398 170.218 185.559 170.351 186.177 168.772Z" fill="#3048EA"/>
<path d="M229.341 196.91C228.005 193.124 226.16 191.444 226.098 187.32C226.031 182.917 225.785 176.576 225.847 172.179C225.863 170.57 229.109 167.855 230.898 166.835C233.688 165.247 244.229 153.593 246.44 140.083C247.62 132.957 246.999 125.81 243.975 119.253C240.849 112.466 232.341 102.492 219.896 95.7818C216.911 94.1723 215.184 92.2191 215.021 88.9348C215.01 88.6892 211.684 75.5845 208.9 69.3649C207.608 66.4897 206.054 63.1726 204.321 60.4938C202.426 57.5531 200.246 54.8634 197.808 52.3811C193.073 47.5636 187.617 43.6354 181.775 40.1601C174.859 36.041 167.335 33.6186 159.435 32.3038C154.504 31.4854 144.151 32.1729 135.458 36.1938C131.477 38.0324 128.973 41.0767 126.306 44.3556C125.831 44.9339 125.389 45.1249 124.69 45.2012C120.011 45.7086 91.9581 46.216 86.3117 75.6336C85.9316 77.6195 83.6842 80.451 83.6003 80.511C59.4942 98.0241 51.6116 122.384 50.1748 126.7C48.4865 131.752 44.7473 149.233 54.1266 165.381C59.0757 173.902 67.727 180.024 72.9008 184.112C73.2363 185.902 72.1517 189.572 71.3802 191.023C43.6011 243.186 54.2734 264.354 57.0015 264.534C59.1986 264.676 59.9645 263.771 60.8478 262.15C62.7373 258.697 63.0448 254.785 64.2356 251.13C64.912 249.04 64.0735 246.901 64.4592 244.801C64.5207 244.468 64.4648 244.037 64.8953 243.944C65.3313 243.846 68.121 247.376 69.6807 246.334C71.7716 244.937 73.1133 243.039 72.9512 240.403C72.7723 237.49 72.5822 234.577 72.4145 231.663C72.3865 231.178 72.325 230.599 73.0518 230.523C73.5549 230.469 73.8177 230.834 73.8177 231.26C73.8344 233.158 74.5836 234.899 74.8016 236.792C77.2782 258.233 90.4724 273.094 91.8868 275.32C94.5814 279.57 93.5982 286.368 94.2131 291.131C97.3773 315.535 110.549 319.436 115.804 321.536C121.819 323.942 128.164 324.45 134.604 324.788C140.15 325.083 145.685 324.837 151.242 324.859C155.591 324.881 159.745 325.492 163.686 327.401C165.945 328.498 167.532 330.358 167.415 332.579C166.828 343.419 153.539 349.857 149.257 352.045C148.676 352.34 147.803 352.52 147.921 353.256C148.044 353.993 149.883 354.009 150.034 353.998C188.771 351.276 211.468 327.025 213.721 322.213C215.968 317.412 215.61 312.774 212.284 308.552C208.511 303.775 203.331 299.711 202.126 293.543C201.204 288.764 199.516 282.162 202.557 278.419C211.48 267.431 222.604 250.049 224.058 235.182C224.091 234.844 224.533 233.491 224.952 233.502C225.466 233.513 225.612 233.884 225.629 234.32C225.64 234.719 225.908 244.523 228.977 246.307C230.582 247.24 231.756 246.989 232.645 245.423C232.93 244.91 233.371 244.484 233.813 243.922C234.344 244.49 235.166 259.411 238.056 262.396C239.605 263.994 240.74 264.589 242.288 264.333C245.967 263.727 245.984 252.03 246.207 249.607C246.878 242.264 232.074 204.646 229.341 196.91ZM168.581 36.5429C172.467 38.2179 187.483 44.9175 194.107 52.1083C211.293 70.7616 211.566 85.9232 212.003 89.1639C212.058 89.5567 212.271 89.9604 211.812 90.2223C211.376 90.4678 211.097 90.1187 210.739 89.9168C183.407 74.5588 173.445 60.5483 171.773 58.1696C162.812 45.4086 162.672 33.9951 168.581 36.5429ZM73.3145 195.082C73.0574 199.027 72.7778 213.681 72.7611 224.838C72.7611 226.093 73.1245 227.337 71.7101 228.253C71.056 228.684 71.1734 229.705 71.1622 230.496C71.1119 233.606 71.1007 236.715 71.0057 239.82C70.9553 241.386 70.5193 242.869 69.3117 243.993C68.1154 245.101 67.3383 244.926 66.6898 243.448C66.3264 242.624 66.0078 241.767 65.1692 241.287C64.3921 240.835 63.8778 240.807 63.2181 241.751C61.8708 243.682 62.1 245.756 62.1056 247.845C62.1168 249.99 60.5147 262.099 57.5661 262.223C46.227 247.845 69.5066 199.97 70.9554 197.281C71.4026 196.452 71.7548 195.573 72.1238 194.711C72.2859 194.324 72.4256 193.855 72.9008 193.953C73.5046 194.078 73.3369 194.673 73.3145 195.082ZM75.5556 180.024C74.4711 182.076 73.5542 181.29 71.6311 180.024C69.2831 178.486 36.6067 159.331 57.4145 115.586C59.0861 112.067 61.339 108.892 63.4858 105.646C66.0798 101.745 68.8918 98.0132 71.9106 94.4233C74.622 91.2044 77.6912 88.3292 81.0455 85.7431C82.3481 84.7393 83.8575 84.1882 85.3222 83.5063C86.2055 83.0971 86.3732 83.2717 86.5689 84.1391C91.8519 107.932 116.953 122.668 118.994 123.83C119.855 124.321 119.648 125.03 118.703 125.614C87.7485 144.851 77.5794 176.194 75.5556 180.019V180.024ZM208.975 307.913C212.826 311.945 214.151 316.888 211.39 321.695C208.907 326.016 191.046 345.476 155.144 351.783C154.495 351.898 154.171 351.036 154.747 350.719C156.122 349.972 164.536 344.134 166.582 340.752C170.076 334.974 170.853 328.323 162.613 324.701C155.429 321.542 131.809 325.137 117.38 320.292C107.753 317.063 101.375 310.221 98.2998 300.673C96.2001 294.128 96.414 286.691 95.6219 279.92C95.4989 278.861 95.9518 278.867 96.6841 279.047C96.9748 279.118 97.2935 279.21 97.5115 279.385C99.8092 281.251 102.454 282.533 105.204 283.575C154.042 302.136 181.324 288.403 186.987 286.123C190.867 284.557 193.601 282.931 197.469 281.338C197.799 281.202 198.14 281.098 198.47 280.978C199.521 280.591 199.711 281.027 199.588 281.977C197.665 297.002 205.71 304.493 208.975 307.913ZM222.582 232.76C219.16 252.652 208.047 275.138 190.151 283.049C144.097 303.415 99.5619 278.854 95.6709 275.515C75.6625 256.866 75.9868 227.304 75.6625 222.912C75.2768 217.62 75.165 209.405 74.9134 203.666C73.0518 177.33 93.4851 146.215 121.375 126.41C122.667 125.494 123.762 126.323 124.579 126.88C134.155 133.454 214.508 166.325 223.425 169.457C224.229 176.846 223.82 225.583 222.582 232.76ZM228.511 165.567C226.706 166.554 224.861 166.189 223.033 165.812C218.638 164.906 214.524 163.221 210.376 161.589C204.12 159.134 130.56 127.638 120.911 122.466C113.906 118.712 107.399 112.962 101.864 107.163C98.1244 103.245 95.0217 99.0389 92.8973 94.0359C90.7617 89.0002 89.2803 83.9373 89.202 78.4378C89.0734 68.8411 93.3949 61.4595 100.841 55.6382C106.818 50.9571 113.817 48.8784 121.426 48.7039C123.992 48.6438 123.846 48.7202 124.12 51.1371C124.886 57.9896 129.42 67.679 138.504 77.1612C139.432 78.1323 142.608 79.6763 143.379 79.4744C143.089 78.6506 142.407 78.1814 141.887 77.6304C128.14 63.0635 127.53 56.8221 126.876 53.2703C125.663 46.7016 129.912 42.577 134.966 39.1726C144.587 32.6857 158.597 34.5352 161.157 34.9171C162.001 35.0426 162.555 35.4027 162.426 36.2374C157.73 66.1405 214.569 94.636 222.859 99.9391C230.239 104.664 237.159 110.823 241.262 118.44C247.423 129.853 245.607 141.288 239.843 152.658C238.065 156.166 235.824 159.314 233.045 162.086C231.709 163.417 230.211 164.634 228.511 165.567ZM243.613 259.755C243.429 260.906 243.267 262.047 241.5 262.292C239.806 262.532 239.163 261.626 238.783 260.541C237.782 257.693 236.675 254.85 236.39 251.812C236.167 249.444 236.049 247.07 235.882 244.703C235.831 244.059 235.831 243.404 235.691 242.782C235.535 242.089 235.568 241.113 234.657 240.976C233.74 240.845 233.07 241.522 232.578 242.253C232.388 242.537 232.287 242.886 232.153 243.202C231.342 245.057 230.431 245.221 229.061 243.677C228.172 242.673 227.798 241.418 227.731 240.114C226.657 231.102 223.63 210.272 226.657 196.343C227.3 197.805 228.111 199.212 228.552 200.729C230.028 205.743 232.561 210.375 234.009 215.378C235.669 221.09 238.403 226.382 240.505 231.92C241.651 234.937 242.344 238.09 243.199 241.2C244.899 247.381 244.608 253.552 243.613 259.755Z" fill="#3048EA"/>
<path d="M168.581 36.5429C172.467 38.2179 187.483 44.9175 194.107 52.1083C211.293 70.7616 211.566 85.9232 212.003 89.1639C212.058 89.5567 212.271 89.9604 211.812 90.2223C211.376 90.4678 211.097 90.1187 210.739 89.9168C183.407 74.5588 173.445 60.5483 171.773 58.1696C162.812 45.4086 162.672 33.9951 168.581 36.5429Z" fill="#B9BCFF"/>
<path d="M228.511 165.567C226.706 166.554 224.861 166.189 223.033 165.812C218.638 164.906 214.524 163.221 210.376 161.589C204.12 159.134 130.56 127.638 120.911 122.466C113.906 118.712 107.399 112.962 101.864 107.163C98.1244 103.245 95.0217 99.0389 92.8973 94.0359C90.7617 89.0002 89.2803 83.9373 89.202 78.4378C89.0734 68.8411 93.3949 61.4595 100.841 55.6382C106.818 50.9571 113.817 48.8784 121.426 48.7039C123.992 48.6438 123.846 48.7202 124.12 51.1371C124.886 57.9896 129.42 67.679 138.504 77.1612C139.432 78.1323 142.608 79.6763 143.379 79.4744C143.089 78.6506 142.407 78.1814 141.887 77.6304C128.14 63.0635 127.53 56.8221 126.876 53.2703C125.663 46.7016 129.912 42.577 134.966 39.1726C144.587 32.6857 158.597 34.5352 161.157 34.9171C162.001 35.0426 162.555 35.4027 162.426 36.2374C157.73 66.1405 214.569 94.636 222.859 99.9391C230.239 104.664 237.159 110.823 241.262 118.44C247.423 129.853 245.607 141.288 239.843 152.658C238.065 156.166 235.824 159.314 233.045 162.086C231.709 163.417 230.211 164.634 228.511 165.567Z" fill="#B9BCFF"/>
<path d="M75.5556 180.024C74.4711 182.076 73.5542 181.29 71.6311 180.024C69.2831 178.486 36.6067 159.331 57.4145 115.586C59.0861 112.067 61.339 108.892 63.4858 105.646C66.0798 101.745 68.8918 98.0132 71.9106 94.4233C74.622 91.2044 77.6912 88.3292 81.0455 85.7431C82.3481 84.7393 83.8575 84.1882 85.3222 83.5063C86.2055 83.0971 86.3732 83.2717 86.5689 84.1391C91.8519 107.932 116.953 122.668 118.994 123.83C119.855 124.321 119.648 125.03 118.703 125.614C87.7485 144.851 77.5794 176.194 75.5556 180.019V180.024Z" fill="#B9BCFF"/>
<path d="M208.975 307.913C212.826 311.945 214.151 316.888 211.39 321.695C208.907 326.016 191.046 345.476 155.144 351.783C154.495 351.898 154.171 351.036 154.747 350.719C156.122 349.972 164.536 344.134 166.582 340.752C170.076 334.974 170.853 328.323 162.613 324.701C155.429 321.542 131.809 325.137 117.38 320.292C107.753 317.063 101.375 310.221 98.2998 300.673C96.2001 294.128 96.414 286.691 95.6219 279.92C95.4989 278.861 95.9518 278.867 96.6841 279.047C96.9748 279.118 97.2935 279.21 97.5115 279.385C99.8092 281.251 102.454 282.533 105.204 283.575C154.042 302.136 181.324 288.403 186.987 286.123C190.867 284.557 193.601 282.931 197.469 281.338C197.799 281.202 198.14 281.098 198.47 280.978C199.521 280.591 199.711 281.027 199.588 281.977C197.665 297.002 205.71 304.493 208.975 307.913Z" fill="#B9BCFF"/>
<path d="M222.995 237.16C222.995 237.16 212.675 245.785 202.369 250.069C190.856 254.855 180.058 255.999 180.058 255.999" stroke="#3048EA" stroke-width="2"/>
<path d="M76.3833 237.327C76.3833 237.327 87.1772 245.908 97.0231 250.154C108.022 254.897 118.95 256 118.95 256" stroke="#3048EA" stroke-width="2"/>
<path d="M150.666 262.776C150.506 262.392 150.33 261.952 150.138 261.456C149.962 260.944 149.77 260.408 149.562 259.848C149.082 259.864 148.578 259.88 148.05 259.896C147.522 259.896 146.986 259.896 146.442 259.896C145.754 259.896 145.13 259.896 144.57 259.896C144.01 259.896 143.498 259.888 143.034 259.872C142.842 260.432 142.658 260.96 142.482 261.456C142.306 261.952 142.138 262.392 141.978 262.776C141.658 263.592 141.194 264 140.586 264C140.362 264 140.146 263.928 139.938 263.784C139.746 263.64 139.65 263.432 139.65 263.16C139.65 262.888 139.698 262.536 139.794 262.104C139.89 261.656 140.01 261.184 140.154 260.688C140.314 260.176 140.482 259.656 140.658 259.128C140.834 258.584 141.002 258.08 141.162 257.616C141.322 257.104 141.546 256.456 141.834 255.672C142.138 254.872 142.458 254.04 142.794 253.176C143.13 252.312 143.466 251.464 143.802 250.632C144.138 249.784 144.442 249.048 144.714 248.424C144.778 248.264 144.858 248.088 144.954 247.896C145.05 247.688 145.162 247.496 145.29 247.32C145.434 247.144 145.586 246.992 145.746 246.864C145.922 246.736 146.114 246.672 146.322 246.672C146.53 246.672 146.722 246.744 146.898 246.888C147.074 247.016 147.226 247.176 147.354 247.368C147.498 247.56 147.618 247.76 147.714 247.968C147.826 248.176 147.914 248.36 147.978 248.52C148.234 249.16 148.522 249.896 148.842 250.728C149.178 251.56 149.506 252.4 149.826 253.248C150.162 254.096 150.474 254.904 150.762 255.672C151.05 256.44 151.282 257.088 151.458 257.616C151.602 258.08 151.762 258.576 151.938 259.104C152.13 259.632 152.306 260.152 152.466 260.664C152.626 261.176 152.754 261.656 152.85 262.104C152.962 262.536 153.018 262.888 153.018 263.16C153.018 263.432 152.914 263.64 152.706 263.784C152.514 263.928 152.306 264 152.082 264C151.794 264 151.53 263.904 151.29 263.712C151.05 263.504 150.842 263.192 150.666 262.776ZM146.418 257.496C146.802 257.496 147.186 257.504 147.57 257.52C147.954 257.52 148.338 257.528 148.722 257.544C148.53 256.984 148.338 256.424 148.146 255.864C147.954 255.304 147.77 254.768 147.594 254.256C147.434 253.744 147.282 253.272 147.138 252.84C147.01 252.392 146.898 252 146.802 251.664C146.738 251.456 146.666 251.288 146.586 251.16C146.506 251.032 146.402 250.968 146.274 250.968C146.146 250.968 146.042 251.04 145.962 251.184C145.882 251.312 145.81 251.48 145.746 251.688C145.554 252.344 145.282 253.2 144.93 254.256C144.594 255.296 144.234 256.392 143.85 257.544C144.282 257.528 144.714 257.52 145.146 257.52C145.578 257.504 146.002 257.496 146.418 257.496ZM155.77 262.512C155.738 261.936 155.714 261.336 155.698 260.712C155.698 260.088 155.69 259.416 155.674 258.696C155.658 257.976 155.65 257.2 155.65 256.368C155.65 255.52 155.65 254.576 155.65 253.536C155.65 252.4 155.658 251.432 155.674 250.632C155.69 249.816 155.738 249.152 155.818 248.64C155.898 248.128 156.018 247.752 156.178 247.512C156.354 247.272 156.586 247.152 156.874 247.152C157.018 247.152 157.154 247.168 157.282 247.2C157.41 247.232 157.522 247.304 157.618 247.416C157.714 247.512 157.794 247.664 157.858 247.872C157.938 248.064 157.986 248.32 158.002 248.64C158.034 249.216 158.058 249.728 158.074 250.176C158.09 250.624 158.106 251.072 158.122 251.52C158.138 251.952 158.146 252.408 158.146 252.888C158.146 253.352 158.146 253.88 158.146 254.472C158.146 255.192 158.146 255.88 158.146 256.536C158.146 257.192 158.138 257.84 158.122 258.48C158.106 259.12 158.09 259.768 158.074 260.424C158.058 261.08 158.034 261.768 158.002 262.488C157.986 262.872 157.946 263.168 157.882 263.376C157.818 263.584 157.738 263.744 157.642 263.856C157.546 263.968 157.434 264.032 157.306 264.048C157.178 264.08 157.034 264.096 156.874 264.096C156.586 264.096 156.338 264 156.13 263.808C155.922 263.6 155.802 263.168 155.77 262.512Z" fill="#3048EA"/>
</svg>
