<svg width="279" height="234" viewBox="0 0 279 234" fill="none" xmlns="http://www.w3.org/2000/svg">
<path d="M16.835 121.366L16.9001 121.39C16.9672 121.414 17.0664 121.448 17.1931 121.492C17.4466 121.579 17.8102 121.701 18.2486 121.84C19.1269 122.117 20.2994 122.459 21.4866 122.721C21.6664 122.761 21.8105 122.895 21.8618 123.072C22.045 123.702 22.3535 124.104 22.7011 124.319C22.7191 124.329 22.7421 124.343 22.7669 124.362C22.8412 124.415 22.9092 124.456 22.9744 124.487C23.4729 124.721 24.2934 124.921 25.3122 125.053C25.318 125.054 25.3237 125.055 25.3295 125.056C27.5146 125.417 30.4179 125.504 32.5665 124.763C32.7433 124.702 32.9399 124.745 33.076 124.874C33.2122 125.003 33.2651 125.197 33.2132 125.376L33.2112 125.384L33.2068 125.398C33.0542 125.872 32.9443 126.328 32.8757 126.767C32.8748 126.777 32.8736 126.788 32.872 126.798C32.3365 130.331 34.3507 132.799 37.1487 133.143C37.2989 133.161 37.4331 133.246 37.5137 133.374C37.5944 133.502 37.6128 133.66 37.5639 133.802C37.3332 134.475 37.1416 135.159 37.0045 135.842L37.0029 135.85L37.0029 135.85C36.7551 136.991 36.5727 138.611 37.0331 139.968C37.0383 139.983 37.0428 139.999 37.0465 140.015C37.0803 140.132 37.1144 140.246 37.1515 140.355C37.6635 141.833 38.9625 143.541 40.7098 145.259C42.4463 146.965 44.5807 148.637 46.6973 150.046C46.6997 150.048 46.7021 150.049 46.7046 150.051C46.7071 150.053 46.7097 150.054 46.7122 150.056C47.9574 150.952 49.2868 151.716 50.6363 152.37L50.6441 152.374L50.644 152.374C51.2253 152.668 51.7744 152.924 52.2817 153.132L52.2829 153.132C55.8678 154.607 59.7558 155.687 63.447 155.875L63.4475 155.876L63.4491 155.876L63.4579 155.876L63.4734 155.877L63.4756 155.877C63.7178 155.892 63.9866 155.901 64.278 155.901L64.2845 155.901L64.2845 155.901C66.5231 155.932 68.663 155.615 70.5979 154.847L70.6118 154.842C71.7581 154.426 72.7839 153.881 73.5503 153.188C73.5547 153.184 73.5592 153.18 73.5637 153.176C73.5693 153.171 73.5751 153.167 73.5809 153.162C74.1511 152.724 74.6915 152.229 75.2009 151.667C75.5059 151.218 75.7731 150.76 76.0079 150.295C76.0103 150.291 76.0128 150.286 76.0153 150.281C76.0169 150.278 76.0186 150.275 76.0203 150.272C76.1973 149.964 76.3035 149.725 76.364 149.57C76.3943 149.492 76.4131 149.435 76.4237 149.4C76.429 149.383 76.4321 149.371 76.4335 149.366L76.4336 149.366C76.4392 149.341 76.4466 149.317 76.456 149.293C77.5572 146.489 77.5089 143.451 76.6916 140.39C76.6868 140.372 76.683 140.354 76.6803 140.336C76.5722 139.945 76.4562 139.555 76.3285 139.169C76.3263 139.162 76.3242 139.155 76.3223 139.149C75.2001 135.771 73.2162 132.434 70.9327 129.463L70.9326 129.463C69.3169 127.36 66.4344 124.627 63.3267 122.371C61.7754 121.246 60.1791 120.247 58.6684 119.509C57.1513 118.767 55.7518 118.304 54.5868 118.216C53.1946 118.111 51.7624 118.458 50.3663 119.081C50.3598 119.083 50.3532 119.086 50.3465 119.089C50.3388 119.093 50.3311 119.097 50.3232 119.1C49.94 119.272 49.5618 119.465 49.1871 119.673C49.1808 119.677 49.1746 119.68 49.1682 119.683C48.8439 119.865 48.5239 120.057 48.2128 120.259C48.0865 120.341 47.9296 120.361 47.7858 120.314C47.6421 120.267 47.5268 120.158 47.4722 120.017C46.4924 117.495 43.71 116.188 40.506 117.36C40.4989 117.363 40.4918 117.365 40.4846 117.367C40.0182 117.54 39.5426 117.766 39.0612 118.049C39.0114 118.078 38.9567 118.098 38.8997 118.109L38.8981 118.109C38.7475 118.137 38.592 118.094 38.4762 117.993C38.3604 117.893 38.297 117.745 38.3042 117.592C38.3758 116.073 38.0454 114.117 37.5241 112.335C36.9983 110.537 36.3075 109.016 35.7161 108.321L35.716 108.321C35.2842 107.813 34.3353 107.515 32.9095 107.802C31.5089 108.085 29.7607 108.919 27.9202 110.483C27.7199 110.653 27.4209 110.639 27.2365 110.449C26.1725 109.358 25.1107 108.366 24.3141 107.647C23.916 107.288 23.5848 106.998 23.3535 106.797C23.2379 106.697 23.1472 106.619 23.0857 106.566L23.0489 106.535C22.9624 106.501 22.8802 106.48 22.8019 106.468C22.653 106.447 22.5215 106.359 22.4435 106.231C22.2595 105.927 21.9223 105.781 21.535 105.843C21.1478 105.905 20.7051 106.185 20.4254 106.764L16.835 121.366ZM16.835 121.366C16.8349 121.366 16.8348 121.366 16.8347 121.366C16.813 121.348 16.7816 121.319 16.7466 121.279C16.6762 121.2 16.5828 121.146 16.4797 121.123C16.2153 121.064 16.0196 120.862 15.9572 120.565C15.8949 120.269 15.9692 119.86 16.3255 119.465L16.835 121.366ZM63.4467 156.375C63.4419 156.375 63.4363 156.375 63.431 156.375C63.4286 156.375 63.4263 156.374 63.4242 156.374L63.4467 156.375ZM63.4467 156.375C63.6996 156.391 63.9788 156.401 64.2804 156.401L63.4467 156.375ZM20.6865 108.789C20.8103 108.867 20.8937 108.996 20.9149 109.14C20.9311 109.251 20.9595 109.339 20.9951 109.409C21.0041 109.427 21.012 109.445 21.0188 109.464C21.038 109.499 21.0848 109.571 21.1754 109.686C21.2733 109.812 21.4046 109.965 21.5665 110.144C21.89 110.502 22.3206 110.944 22.8167 111.432L22.8247 111.44L22.8247 111.44C23.3716 112.002 24.0044 112.632 24.6802 113.266C24.8628 113.438 24.8914 113.717 24.7472 113.92C24.6885 114.002 24.6324 114.085 24.5728 114.173C24.4203 114.398 24.1143 114.459 23.8852 114.309C23.1883 113.854 22.5423 113.466 22.0393 113.181C21.7875 113.039 21.5739 112.924 21.4091 112.841C21.3265 112.799 21.2586 112.766 21.2057 112.743C21.1793 112.731 21.1582 112.722 21.142 112.715C21.134 112.712 21.1278 112.709 21.1233 112.708C21.1192 112.706 21.1172 112.706 21.1172 112.706L21.1173 112.706C21.0852 112.696 20.9763 112.676 20.7767 112.671C20.5898 112.666 20.3562 112.675 20.0964 112.7C19.9121 112.717 19.7325 112.632 19.6296 112.478C19.4776 112.25 19.1928 112.085 18.7969 112.049C18.4023 112.013 17.9323 112.112 17.4927 112.377L20.6865 108.789ZM20.6865 108.789C20.2412 108.506 19.9878 107.674 20.4254 106.764L20.6865 108.789ZM17.3196 114.447C17.4345 114.468 17.5408 114.528 17.6178 114.621C17.6164 114.619 17.6184 114.621 17.6249 114.627C17.644 114.644 17.702 114.696 17.8219 114.792C17.9636 114.904 18.1601 115.054 18.4056 115.233C18.896 115.591 19.5721 116.063 20.3754 116.592L20.381 116.596L20.381 116.596C20.9364 116.973 21.5405 117.368 22.1672 117.753C22.3707 117.878 22.4584 118.128 22.3768 118.351C22.2161 118.791 22.0871 119.21 21.9849 119.611C21.9519 119.74 21.8682 119.85 21.7525 119.917C21.6369 119.984 21.499 120.002 21.3696 119.966C20.7319 119.791 20.1455 119.654 19.6933 119.561C19.467 119.515 19.277 119.48 19.1326 119.457C19.0603 119.446 19.0021 119.438 18.9581 119.433C18.9153 119.428 18.8971 119.427 18.8957 119.427C18.8955 119.427 18.8956 119.427 18.896 119.427L18.8931 119.427C18.8931 119.427 18.8834 119.428 18.8607 119.432C18.8331 119.436 18.7963 119.444 18.7489 119.456C18.4887 119.52 18.2228 119.368 18.1462 119.111C18.143 119.101 18.1404 119.095 18.1391 119.092L18.1385 119.091L18.1386 119.091C17.9777 118.911 17.7151 118.817 17.372 118.868C17.0272 118.92 16.639 119.117 16.3256 119.465L17.3196 114.447ZM17.3196 114.447C16.9042 114.332 16.6909 114.016 16.6803 113.642C16.6691 113.248 16.8905 112.74 17.4924 112.377L17.3196 114.447ZM21.0477 109.562C21.047 109.558 21.0462 109.554 21.0454 109.551C21.0479 109.562 21.0487 109.567 21.0477 109.562Z" fill="#B9BCFF" stroke="#3048EA" stroke-linejoin="round"/>
<mask id="path-2-inside-1_651_24759" fill="white">
<path d="M223.5 153.5C221.574 146.744 221.573 145.29 216.281 142.775C216.281 142.775 211.729 139.877 202.112 139.188C201.105 139.117 199.262 139.058 196.768 139.015C195.163 138.987 194.932 136.721 196.5 136.379C202.744 135.017 217.155 135.226 221.059 129.004C227.259 119.375 223.335 98.9513 222.009 88.7951C220.195 74.1638 211.991 61.4699 199.239 54.1697L199.161 54.123C191.188 49.5629 180.427 45.9014 165.872 43.9223V43.914L165.344 43.8506C165.344 43.8506 164.995 43.8006 164.816 43.7789V43.7872C150.141 42.0065 138.738 42.8452 129.817 45.2695C129.804 45.2612 129.797 45.2578 129.795 45.2562C113.835 50.2661 103.329 60.4275 97.6584 76.0667C94.9562 83.5215 82.4992 108.5 92.0279 115.327C94.6662 117.22 111.754 124.186 112.265 131.475C112.677 137.35 107.262 138.957 102.899 139.552C100.154 139.907 96.4358 140.572 93.6383 141.776H93.6366C89.3192 143.643 87.6997 146.841 86.8716 151.345C86.2342 154.812 81.5059 155.394 82.2233 159.71C82.2233 159.71 82.2284 159.705 82.2385 159.697C82.3147 160.912 82.5941 163.338 83.5187 167.846C84.638 173.312 85.6033 176.89 86.2518 178.654C86.2518 178.654 86.6667 179.816 87.1154 180.663C87.1188 180.67 87.1222 180.675 87.1256 180.682C88.7021 184.233 93.7365 184.653 93.7365 184.653C93.7365 184.653 93.7602 184.635 93.8009 184.593C94.1192 185.588 94.4494 186.587 94.7881 187.584C94.783 187.588 93.5638 188.48 93.8009 189.293C94.6526 191.439 95.5806 194.554 96.9488 198.153L96.9539 198.165C101.106 209.083 109.312 224.467 131.761 230.935C143.495 234.493 154.097 233.974 154.097 233.974C154.097 233.974 156.693 234.101 160.735 233.799C163.891 233.582 166.87 233.176 169.683 232.609C169.683 232.609 169.679 232.61 169.677 232.612L169.762 232.594C170.023 232.54 170.282 232.487 170.541 232.43C171.44 232.244 172.358 232.035 173.289 231.803L173.303 231.8C173.694 231.702 174.087 231.6 174.482 231.495C174.112 231.605 173.821 231.682 173.621 231.73C174.224 231.588 175.652 231.228 177.591 230.575C184.374 228.372 191.429 224.771 196.954 218.897C203.574 212.778 207.937 205.775 210.757 199.864C211.167 199.06 211.368 198.61 211.368 198.61C211.368 198.61 211.353 198.624 211.322 198.649C211.338 198.635 211.353 198.624 211.368 198.612L212.061 196.966C212.061 196.966 212.064 196.96 212.068 196.948C212.84 195.119 213.453 193.448 213.934 192.009C213.934 192.009 213.934 192.006 213.935 192.004C214.867 189.395 215.4 186.911 215.4 186.911C215.4 186.911 215.4 185.6 214.167 185.312C214.167 185.312 214.166 185.313 214.162 185.317C214.162 185.317 214.161 185.318 214.159 185.32C214.159 185.32 214.159 185.32 214.157 185.322L214.154 185.325C214.154 185.325 214.15 185.327 214.149 185.328C214.149 185.328 214.147 185.328 214.145 185.33C214.144 185.332 214.14 185.333 214.139 185.335C214.139 185.335 214.137 185.337 214.135 185.338C214.133 185.34 214.13 185.342 214.127 185.345L214.122 185.348C214.118 185.35 214.117 185.352 214.113 185.355C214.113 185.355 214.11 185.358 214.106 185.36C214.103 185.363 214.098 185.365 214.095 185.368C214.095 185.368 214.091 185.37 214.089 185.372C214.084 185.375 214.079 185.378 214.074 185.382C214.074 185.382 214.071 185.383 214.069 185.385C214.064 185.388 214.057 185.393 214.052 185.397L214.049 185.4C214.042 185.403 214.035 185.408 214.029 185.413C214.029 185.413 214.025 185.415 214.023 185.417C214.017 185.422 214.008 185.427 214.001 185.432L213.998 185.435C213.761 185.583 213.244 185.86 212.25 186.217C212.25 186.217 212.245 186.219 212.244 186.22C212.206 186.234 212.169 186.247 212.13 186.26C212.127 186.26 212.122 186.264 212.118 186.264C212.081 186.277 212.042 186.29 212.003 186.304C212 186.304 211.998 186.305 211.995 186.307C211.954 186.32 211.913 186.335 211.873 186.349C211.868 186.349 211.864 186.352 211.859 186.354C211.819 186.367 211.778 186.38 211.737 186.394C211.732 186.395 211.727 186.397 211.722 186.399C211.682 186.412 211.639 186.425 211.597 186.439C211.592 186.44 211.585 186.442 211.58 186.444C211.538 186.457 211.495 186.47 211.451 186.485C211.446 186.487 211.441 186.489 211.434 186.49C211.39 186.504 211.346 186.519 211.3 186.532C211.294 186.534 211.287 186.537 211.28 186.539C211.236 186.552 211.19 186.566 211.146 186.581C211.138 186.582 211.131 186.586 211.123 186.587C211.079 186.601 211.033 186.614 210.987 186.627C210.977 186.631 210.969 186.632 210.958 186.636C210.914 186.649 210.869 186.662 210.823 186.676C210.813 186.679 210.801 186.682 210.791 186.686C210.745 186.699 210.698 186.712 210.65 186.726C210.64 186.729 210.628 186.732 210.618 186.734C210.572 186.747 210.525 186.761 210.477 186.774C210.464 186.777 210.45 186.782 210.437 186.786C210.389 186.799 210.342 186.812 210.295 186.826C210.283 186.829 210.269 186.832 210.257 186.836C210.208 186.849 210.159 186.862 210.108 186.876C210.095 186.879 210.081 186.882 210.068 186.887C210.017 186.901 209.966 186.914 209.915 186.927C209.902 186.931 209.888 186.934 209.875 186.937C209.822 186.951 209.77 186.966 209.715 186.979C209.702 186.982 209.688 186.986 209.675 186.989C209.621 187.002 209.568 187.017 209.512 187.031C209.497 187.034 209.483 187.039 209.468 187.042C209.412 187.056 209.356 187.071 209.301 187.084C209.287 187.087 209.272 187.091 209.257 187.094C209.199 187.107 209.141 187.122 209.084 187.136C209.069 187.139 209.053 187.142 209.038 187.147C208.981 187.161 208.923 187.176 208.864 187.189C208.847 187.192 208.83 187.197 208.813 187.201C208.754 187.214 208.694 187.229 208.635 187.242C208.618 187.246 208.601 187.251 208.584 187.254C208.523 187.267 208.462 187.282 208.401 187.296C208.384 187.299 208.366 187.304 208.349 187.307C208.286 187.322 208.222 187.336 208.159 187.351C208.142 187.354 208.125 187.359 208.108 187.362C208.044 187.377 207.98 187.391 207.915 187.406C207.897 187.409 207.878 187.414 207.86 187.417C207.792 187.432 207.724 187.448 207.656 187.463C207.641 187.466 207.624 187.469 207.609 187.473C207.538 187.488 207.465 187.503 207.392 187.519C207.377 187.523 207.362 187.526 207.346 187.529C207.272 187.544 207.197 187.561 207.123 187.576C207.109 187.579 207.094 187.583 207.081 187.584C207.006 187.599 206.928 187.616 206.852 187.631C206.837 187.634 206.82 187.638 206.805 187.641C206.727 187.658 206.645 187.673 206.566 187.689C206.552 187.693 206.539 187.694 206.525 187.698C206.441 187.714 206.356 187.731 206.269 187.748C206.259 187.749 206.249 187.751 206.239 187.753C206.149 187.769 206.059 187.788 205.968 187.804C205.96 187.804 205.951 187.808 205.944 187.809C205.855 187.826 205.763 187.844 205.67 187.861C205.66 187.863 205.65 187.864 205.641 187.866C204.519 188.074 203.255 188.288 201.831 188.498H201.826C201.699 188.516 201.572 188.535 201.442 188.555C201.43 188.556 201.416 188.558 201.404 188.56C201.286 188.576 201.167 188.593 201.047 188.611C201.023 188.615 201 188.618 200.976 188.621C200.864 188.636 200.752 188.653 200.641 188.668C200.615 188.671 200.588 188.675 200.563 188.678C200.453 188.693 200.343 188.708 200.231 188.723C200.195 188.728 200.158 188.733 200.123 188.738C200.019 188.751 199.916 188.766 199.809 188.78C199.77 188.785 199.73 188.79 199.691 188.795C199.587 188.808 199.484 188.821 199.381 188.835C199.339 188.84 199.296 188.846 199.254 188.851C199.151 188.865 199.047 188.878 198.944 188.891C198.898 188.898 198.851 188.903 198.803 188.91C198.703 188.923 198.604 188.935 198.502 188.948C198.448 188.955 198.394 188.961 198.341 188.968C198.243 188.98 198.146 188.991 198.046 189.005C197.992 189.011 197.938 189.018 197.886 189.025C197.786 189.036 197.686 189.048 197.584 189.061C197.53 189.068 197.474 189.075 197.418 189.081C197.317 189.093 197.217 189.105 197.115 189.117C197.056 189.123 196.997 189.13 196.937 189.137C196.837 189.148 196.737 189.16 196.638 189.17C196.573 189.177 196.509 189.185 196.445 189.192C196.348 189.203 196.25 189.213 196.152 189.225C196.086 189.232 196.02 189.24 195.953 189.247C195.854 189.258 195.754 189.268 195.652 189.28C195.586 189.287 195.52 189.293 195.454 189.302C195.351 189.313 195.247 189.323 195.144 189.335C195.076 189.342 195.009 189.348 194.943 189.357C194.839 189.367 194.736 189.378 194.633 189.388C194.563 189.395 194.492 189.403 194.423 189.41C194.319 189.42 194.214 189.432 194.109 189.442C194.037 189.448 193.964 189.457 193.891 189.463C193.789 189.473 193.686 189.483 193.583 189.493C193.505 189.502 193.427 189.508 193.349 189.517C193.247 189.527 193.146 189.537 193.044 189.547C192.965 189.555 192.883 189.562 192.802 189.57C192.699 189.58 192.597 189.59 192.494 189.598C192.411 189.607 192.33 189.613 192.247 189.622C192.142 189.632 192.038 189.64 191.932 189.65C191.85 189.657 191.767 189.665 191.684 189.672C191.576 189.682 191.468 189.692 191.359 189.7C191.278 189.707 191.195 189.715 191.114 189.722C191.004 189.732 190.894 189.74 190.782 189.75C190.696 189.757 190.609 189.765 190.523 189.772C190.416 189.78 190.309 189.79 190.201 189.798C190.11 189.807 190.018 189.813 189.927 189.822C189.82 189.83 189.712 189.84 189.603 189.848C189.512 189.857 189.419 189.863 189.326 189.872C189.216 189.88 189.105 189.89 188.994 189.898C188.901 189.905 188.809 189.913 188.716 189.92C188.601 189.928 188.486 189.939 188.371 189.947C188.281 189.954 188.189 189.96 188.098 189.969C187.981 189.977 187.864 189.987 187.747 189.995C187.653 190.002 187.558 190.01 187.461 190.017C187.348 190.025 187.233 190.034 187.117 190.042C187.018 190.049 186.918 190.057 186.818 190.064C186.704 190.072 186.589 190.08 186.474 190.089C186.372 190.095 186.272 190.104 186.171 190.11C186.052 190.119 185.932 190.127 185.812 190.135C185.712 190.142 185.61 190.149 185.51 190.155C185.39 190.164 185.27 190.172 185.148 190.18C185.045 190.187 184.941 190.194 184.838 190.2C184.715 190.209 184.589 190.217 184.464 190.225C184.362 190.232 184.262 190.239 184.161 190.245C184.032 190.254 183.903 190.262 183.773 190.27C183.671 190.277 183.57 190.284 183.467 190.289C183.34 190.297 183.211 190.304 183.082 190.312C182.975 190.319 182.867 190.325 182.759 190.332C182.635 190.339 182.51 190.347 182.384 190.354C182.271 190.36 182.159 190.367 182.046 190.374C181.917 190.38 181.788 190.389 181.66 190.395C181.548 190.402 181.438 190.409 181.324 190.414C181.192 190.42 181.06 190.429 180.926 190.435C180.815 190.442 180.703 190.447 180.59 190.454C180.454 190.46 180.319 190.469 180.183 190.475C180.071 190.482 179.96 190.487 179.846 190.494C179.714 190.5 179.58 190.507 179.448 190.514C179.328 190.52 179.208 190.525 179.087 190.532C179.028 190.535 178.969 190.539 178.91 190.54C178.767 190.547 178.62 190.554 178.476 190.562C178.493 190.477 178.502 190.43 178.502 190.43C178.502 190.43 178.49 190.477 178.464 190.562C177.772 190.595 177.069 190.629 176.349 190.66C176.344 190.66 176.341 190.66 176.336 190.66C176.293 190.662 176.251 190.664 176.209 190.665C175.804 190.684 175.396 190.7 174.983 190.717C174.915 190.72 174.846 190.722 174.776 190.725C174.355 190.742 173.931 190.759 173.501 190.775C173.445 190.961 173.384 191.144 173.325 191.327C173.245 191.566 173.162 191.803 173.074 192.036C173.073 192.041 173.071 192.046 173.069 192.051C172.986 192.271 172.898 192.49 172.808 192.705C172.805 192.713 172.802 192.72 172.798 192.728C172.715 192.921 172.575 193.236 172.487 193.428C172.482 193.44 172.477 193.452 172.471 193.462C172.372 193.673 172.268 193.882 172.16 194.09C172.15 194.108 172.141 194.128 172.131 194.147C172.026 194.35 171.916 194.55 171.803 194.749C171.789 194.772 171.777 194.794 171.764 194.817C171.652 195.01 171.538 195.202 171.42 195.392C171.403 195.419 171.388 195.446 171.371 195.472C171.256 195.657 171.135 195.839 171.014 196.021C170.993 196.051 170.973 196.081 170.953 196.111C170.832 196.288 170.709 196.461 170.583 196.633C170.56 196.666 170.536 196.7 170.511 196.731C170.475 196.78 170.438 196.826 170.401 196.875C171.337 195.349 172.085 193.845 172.59 192.75C170.937 196.109 166.248 203.391 156.366 204.226C143.794 205.29 138.277 196.451 136.87 193.688C136.603 193.14 136.357 192.58 136.142 192.004C136.127 191.964 136.11 191.926 136.096 191.886C136.008 191.646 135.925 191.402 135.846 191.157C135.415 191.151 134.99 191.144 134.57 191.137C134.504 191.137 134.438 191.136 134.372 191.134C133.961 191.127 133.553 191.119 133.15 191.112C133.097 191.112 133.043 191.111 132.991 191.109C132.12 191.092 131.27 191.074 130.437 191.054C99.7446 190.32 94.7966 187.593 94.7966 187.593L93.8093 184.601C93.8093 184.601 93.8093 184.6 93.811 184.598C93.9431 184.645 99.7852 186.697 118.959 187.723H118.956L118.991 187.724C122.18 187.894 125.738 188.036 129.699 188.134H129.741C130.208 188.146 130.682 188.158 131.162 188.168C131.185 188.168 131.209 188.168 131.231 188.168C131.627 188.176 132.025 188.184 132.428 188.193C132.555 188.194 132.684 188.198 132.811 188.199C133.124 188.204 133.436 188.211 133.754 188.216C134.217 188.224 134.682 188.231 135.155 188.238C134.972 187.054 134.899 185.834 134.945 184.59C135.319 174.479 143.657 166.287 153.927 165.944C165.109 165.571 174.292 174.384 174.292 185.31C174.292 186.079 174.244 186.836 174.156 187.581C174.634 187.559 175.103 187.536 175.569 187.513C175.873 187.498 176.172 187.483 176.471 187.468C176.612 187.461 176.756 187.453 176.896 187.446C177.287 187.426 177.675 187.404 178.06 187.384C178.092 187.383 178.126 187.381 178.158 187.379C178.576 187.356 178.989 187.332 179.399 187.309C179.399 187.309 181.907 187.196 185.614 186.909H185.61C209.104 185.213 215.028 182.589 215.028 182.589C215.028 182.589 220.062 182.169 221.639 178.617C221.642 178.611 221.645 178.606 221.649 178.599C222.096 177.752 222.512 176.59 222.512 176.59C223.161 174.826 224.126 171.246 225.245 165.782C226.168 161.274 226.448 158.848 226.526 157.632C226.534 157.641 226.541 157.646 226.541 157.646C226.977 155.022 225.516 154.707 223.5 153.5ZM153.651 121.475C153.472 121.461 153.111 121.495 152.933 121.475C151.575 121.325 149.647 121.078 147.361 120.848C123.619 115.142 110.724 100.598 108.239 96.995C108.198 96.935 108.156 96.8733 108.113 96.8099C108.1 96.7899 108.084 96.7666 108.071 96.7466C108.042 96.7032 108.013 96.6582 107.983 96.6115C107.966 96.5848 107.949 96.5582 107.932 96.5315C107.905 96.4898 107.878 96.4464 107.851 96.4031C107.832 96.3731 107.812 96.3414 107.793 96.3097C107.768 96.268 107.741 96.2264 107.715 96.183C107.695 96.1497 107.675 96.1163 107.654 96.0813C107.629 96.0379 107.602 95.9946 107.576 95.9496C107.556 95.9146 107.534 95.8779 107.514 95.8412C107.488 95.7962 107.463 95.7528 107.438 95.7061C107.416 95.6678 107.395 95.6311 107.373 95.5928C107.348 95.5461 107.322 95.4994 107.295 95.4527C107.273 95.4127 107.251 95.3744 107.231 95.3327C107.206 95.286 107.18 95.2376 107.155 95.1893C107.133 95.1476 107.111 95.1076 107.089 95.0659C107.063 95.0159 107.036 94.9659 107.011 94.9142C106.989 94.8725 106.969 94.8308 106.947 94.7875C106.919 94.7341 106.892 94.6791 106.865 94.6257C106.845 94.584 106.825 94.544 106.804 94.5007C106.775 94.4423 106.747 94.3806 106.718 94.3206C106.699 94.2823 106.681 94.2439 106.662 94.2039C106.616 94.1055 106.571 94.0071 106.527 93.9071C106.51 93.8688 106.493 93.8287 106.476 93.7904C106.447 93.7254 106.418 93.6603 106.389 93.5953C106.369 93.547 106.349 93.4986 106.328 93.4503C106.305 93.3919 106.279 93.3352 106.256 93.2769C106.234 93.2252 106.213 93.1718 106.191 93.1185C106.169 93.0634 106.146 93.0068 106.124 92.9501C106.102 92.895 106.081 92.84 106.061 92.785C106.039 92.7283 106.017 92.6716 105.997 92.6149C105.976 92.5582 105.956 92.5032 105.934 92.4465C105.914 92.3898 105.893 92.3331 105.873 92.2765C105.853 92.2181 105.832 92.1597 105.812 92.0997C105.793 92.043 105.773 91.9863 105.754 91.9297C105.734 91.8696 105.714 91.8096 105.695 91.7479C105.676 91.6912 105.66 91.6345 105.641 91.5779C105.622 91.5162 105.602 91.4545 105.583 91.3911C105.566 91.3344 105.549 91.2777 105.533 91.221C105.514 91.1577 105.495 91.0943 105.477 91.0293C105.461 90.9726 105.446 90.9159 105.429 90.8576C105.412 90.7925 105.394 90.7275 105.377 90.6625C105.362 90.6058 105.348 90.5491 105.334 90.4908C105.317 90.4241 105.301 90.3574 105.285 90.2907C105.273 90.2373 105.262 90.184 105.25 90.1323C105.209 89.9555 105.172 89.7771 105.136 89.5971C105.133 89.5837 105.131 89.5687 105.128 89.5554C105.114 89.482 105.101 89.4087 105.089 89.337C105.079 89.2819 105.069 89.2286 105.06 89.1736C105.048 89.1019 105.038 89.0302 105.026 88.9601C105.018 88.9035 105.008 88.8451 105.001 88.7884C104.991 88.7167 104.982 88.645 104.972 88.5733C104.965 88.515 104.957 88.4583 104.95 88.3999C104.942 88.3282 104.935 88.2565 104.928 88.1832C104.923 88.1248 104.916 88.0665 104.911 88.0081C104.904 87.9347 104.899 87.863 104.894 87.7897C104.889 87.7313 104.886 87.673 104.882 87.6146C104.877 87.5413 104.874 87.4679 104.87 87.3945C104.867 87.3362 104.865 87.2778 104.864 87.2195C104.862 87.1461 104.859 87.0711 104.859 86.9977C104.859 86.9393 104.859 86.881 104.859 86.8226C104.859 86.7476 104.859 86.6726 104.859 86.5975C104.859 86.5408 104.862 86.4842 104.862 86.4275C104.864 86.3508 104.865 86.2741 104.87 86.1974C104.872 86.1424 104.877 86.0873 104.881 86.0323C104.886 85.954 104.889 85.8756 104.896 85.7956C104.899 85.7455 104.906 85.6955 104.909 85.6455C104.916 85.5621 104.925 85.4788 104.933 85.3954C104.936 85.3687 104.94 85.342 104.943 85.3137C104.969 85.1053 104.999 84.8969 105.035 84.6885C105.038 84.6651 105.041 84.6418 105.047 84.6201C105.062 84.5367 105.079 84.4534 105.097 84.37C105.108 84.32 105.118 84.27 105.128 84.2199C105.145 84.1416 105.165 84.0632 105.184 83.9848C105.197 83.9298 105.209 83.8765 105.224 83.8214C105.245 83.7447 105.267 83.6681 105.289 83.5914C105.304 83.5363 105.321 83.4796 105.336 83.4246C105.358 83.3496 105.384 83.2729 105.407 83.1979C105.426 83.1412 105.444 83.0845 105.463 83.0295C105.489 82.9544 105.516 82.8811 105.544 82.806C105.565 82.7493 105.587 82.6927 105.609 82.636C105.638 82.5609 105.668 82.4876 105.698 82.4126C105.722 82.3559 105.746 82.3008 105.77 82.2458C105.802 82.1708 105.836 82.0974 105.87 82.0241C105.895 81.969 105.922 81.914 105.949 81.8607C105.985 81.7856 106.022 81.7123 106.061 81.6372C106.088 81.5839 106.118 81.5305 106.147 81.4772C106.188 81.4022 106.229 81.3271 106.271 81.2538C106.3 81.2021 106.332 81.1521 106.361 81.102C106.406 81.0253 106.45 80.9503 106.499 80.8736C106.527 80.8303 106.557 80.7852 106.586 80.7419C106.772 80.4551 106.977 80.1717 107.199 79.8932C107.229 79.8565 107.256 79.8182 107.287 79.7815C107.346 79.7082 107.41 79.6365 107.473 79.5631C107.514 79.5147 107.554 79.4664 107.597 79.4197C107.658 79.3513 107.722 79.283 107.786 79.2129C107.834 79.1629 107.88 79.1112 107.929 79.0612C107.993 78.9945 108.061 78.9278 108.127 78.8628C108.178 78.8111 108.23 78.7611 108.283 78.7111C108.35 78.6461 108.42 78.5827 108.491 78.5177C108.547 78.4677 108.603 78.416 108.659 78.3659C108.73 78.3026 108.804 78.2392 108.879 78.1775C108.938 78.1275 108.999 78.0775 109.06 78.0275C109.136 77.9658 109.212 77.9041 109.29 77.8424C109.353 77.7924 109.417 77.744 109.483 77.6957C109.563 77.6357 109.644 77.574 109.727 77.5139C109.793 77.4656 109.862 77.4189 109.93 77.3706C110.015 77.3105 110.101 77.2522 110.188 77.1938C110.257 77.1471 110.33 77.1021 110.401 77.0554C110.492 76.9971 110.582 76.9387 110.675 76.8804C110.746 76.8353 110.821 76.792 110.894 76.7486C110.99 76.6903 111.087 76.6319 111.187 76.5752C111.256 76.5352 111.329 76.4969 111.398 76.4585C111.674 76.3051 111.957 76.1551 112.254 76.0084C112.257 76.0067 112.26 76.005 112.265 76.0033C121.308 71.6383 141.43 71.4866 162.189 73.7891H162.193C165.378 74.1976 177.47 75.8883 189.045 79.3347C195.408 81.3371 200.089 83.3829 202.95 84.8018C203.084 84.8735 203.218 84.9469 203.35 85.0203C203.381 85.0369 203.413 85.0553 203.443 85.0719C203.591 85.1536 203.736 85.2353 203.88 85.3187C203.884 85.3204 203.887 85.3237 203.892 85.3254C204.039 85.4104 204.185 85.4954 204.331 85.5805C204.366 85.6021 204.402 85.6222 204.437 85.6438C204.547 85.7089 204.656 85.7739 204.764 85.8406C204.803 85.8656 204.844 85.8889 204.883 85.9139C205.021 85.999 205.159 86.084 205.296 86.1707C219.603 95.246 210.352 106.514 206.669 109.658C203.404 112.444 187.82 122.805 164.335 122.83C160.04 122.185 156.185 121.673 153.651 121.476V121.475Z"/>
</mask>
<path d="M223.5 153.5C221.574 146.744 221.573 145.29 216.281 142.775C216.281 142.775 211.729 139.877 202.112 139.188C201.105 139.117 199.262 139.058 196.768 139.015C195.163 138.987 194.932 136.721 196.5 136.379C202.744 135.017 217.155 135.226 221.059 129.004C227.259 119.375 223.335 98.9513 222.009 88.7951C220.195 74.1638 211.991 61.4699 199.239 54.1697L199.161 54.123C191.188 49.5629 180.427 45.9014 165.872 43.9223V43.914L165.344 43.8506C165.344 43.8506 164.995 43.8006 164.816 43.7789V43.7872C150.141 42.0065 138.738 42.8452 129.817 45.2695C129.804 45.2612 129.797 45.2578 129.795 45.2562C113.835 50.2661 103.329 60.4275 97.6584 76.0667C94.9562 83.5215 82.4992 108.5 92.0279 115.327C94.6662 117.22 111.754 124.186 112.265 131.475C112.677 137.35 107.262 138.957 102.899 139.552C100.154 139.907 96.4358 140.572 93.6383 141.776H93.6366C89.3192 143.643 87.6997 146.841 86.8716 151.345C86.2342 154.812 81.5059 155.394 82.2233 159.71C82.2233 159.71 82.2284 159.705 82.2385 159.697C82.3147 160.912 82.5941 163.338 83.5187 167.846C84.638 173.312 85.6033 176.89 86.2518 178.654C86.2518 178.654 86.6667 179.816 87.1154 180.663C87.1188 180.67 87.1222 180.675 87.1256 180.682C88.7021 184.233 93.7365 184.653 93.7365 184.653C93.7365 184.653 93.7602 184.635 93.8009 184.593C94.1192 185.588 94.4494 186.587 94.7881 187.584C94.783 187.588 93.5638 188.48 93.8009 189.293C94.6526 191.439 95.5806 194.554 96.9488 198.153L96.9539 198.165C101.106 209.083 109.312 224.467 131.761 230.935C143.495 234.493 154.097 233.974 154.097 233.974C154.097 233.974 156.693 234.101 160.735 233.799C163.891 233.582 166.87 233.176 169.683 232.609C169.683 232.609 169.679 232.61 169.677 232.612L169.762 232.594C170.023 232.54 170.282 232.487 170.541 232.43C171.44 232.244 172.358 232.035 173.289 231.803L173.303 231.8C173.694 231.702 174.087 231.6 174.482 231.495C174.112 231.605 173.821 231.682 173.621 231.73C174.224 231.588 175.652 231.228 177.591 230.575C184.374 228.372 191.429 224.771 196.954 218.897C203.574 212.778 207.937 205.775 210.757 199.864C211.167 199.06 211.368 198.61 211.368 198.61C211.368 198.61 211.353 198.624 211.322 198.649C211.338 198.635 211.353 198.624 211.368 198.612L212.061 196.966C212.061 196.966 212.064 196.96 212.068 196.948C212.84 195.119 213.453 193.448 213.934 192.009C213.934 192.009 213.934 192.006 213.935 192.004C214.867 189.395 215.4 186.911 215.4 186.911C215.4 186.911 215.4 185.6 214.167 185.312C214.167 185.312 214.166 185.313 214.162 185.317C214.162 185.317 214.161 185.318 214.159 185.32C214.159 185.32 214.159 185.32 214.157 185.322L214.154 185.325C214.154 185.325 214.15 185.327 214.149 185.328C214.149 185.328 214.147 185.328 214.145 185.33C214.144 185.332 214.14 185.333 214.139 185.335C214.139 185.335 214.137 185.337 214.135 185.338C214.133 185.34 214.13 185.342 214.127 185.345L214.122 185.348C214.118 185.35 214.117 185.352 214.113 185.355C214.113 185.355 214.11 185.358 214.106 185.36C214.103 185.363 214.098 185.365 214.095 185.368C214.095 185.368 214.091 185.37 214.089 185.372C214.084 185.375 214.079 185.378 214.074 185.382C214.074 185.382 214.071 185.383 214.069 185.385C214.064 185.388 214.057 185.393 214.052 185.397L214.049 185.4C214.042 185.403 214.035 185.408 214.029 185.413C214.029 185.413 214.025 185.415 214.023 185.417C214.017 185.422 214.008 185.427 214.001 185.432L213.998 185.435C213.761 185.583 213.244 185.86 212.25 186.217C212.25 186.217 212.245 186.219 212.244 186.22C212.206 186.234 212.169 186.247 212.13 186.26C212.127 186.26 212.122 186.264 212.118 186.264C212.081 186.277 212.042 186.29 212.003 186.304C212 186.304 211.998 186.305 211.995 186.307C211.954 186.32 211.913 186.335 211.873 186.349C211.868 186.349 211.864 186.352 211.859 186.354C211.819 186.367 211.778 186.38 211.737 186.394C211.732 186.395 211.727 186.397 211.722 186.399C211.682 186.412 211.639 186.425 211.597 186.439C211.592 186.44 211.585 186.442 211.58 186.444C211.538 186.457 211.495 186.47 211.451 186.485C211.446 186.487 211.441 186.489 211.434 186.49C211.39 186.504 211.346 186.519 211.3 186.532C211.294 186.534 211.287 186.537 211.28 186.539C211.236 186.552 211.19 186.566 211.146 186.581C211.138 186.582 211.131 186.586 211.123 186.587C211.079 186.601 211.033 186.614 210.987 186.627C210.977 186.631 210.969 186.632 210.958 186.636C210.914 186.649 210.869 186.662 210.823 186.676C210.813 186.679 210.801 186.682 210.791 186.686C210.745 186.699 210.698 186.712 210.65 186.726C210.64 186.729 210.628 186.732 210.618 186.734C210.572 186.747 210.525 186.761 210.477 186.774C210.464 186.777 210.45 186.782 210.437 186.786C210.389 186.799 210.342 186.812 210.295 186.826C210.283 186.829 210.269 186.832 210.257 186.836C210.208 186.849 210.159 186.862 210.108 186.876C210.095 186.879 210.081 186.882 210.068 186.887C210.017 186.901 209.966 186.914 209.915 186.927C209.902 186.931 209.888 186.934 209.875 186.937C209.822 186.951 209.77 186.966 209.715 186.979C209.702 186.982 209.688 186.986 209.675 186.989C209.621 187.002 209.568 187.017 209.512 187.031C209.497 187.034 209.483 187.039 209.468 187.042C209.412 187.056 209.356 187.071 209.301 187.084C209.287 187.087 209.272 187.091 209.257 187.094C209.199 187.107 209.141 187.122 209.084 187.136C209.069 187.139 209.053 187.142 209.038 187.147C208.981 187.161 208.923 187.176 208.864 187.189C208.847 187.192 208.83 187.197 208.813 187.201C208.754 187.214 208.694 187.229 208.635 187.242C208.618 187.246 208.601 187.251 208.584 187.254C208.523 187.267 208.462 187.282 208.401 187.296C208.384 187.299 208.366 187.304 208.349 187.307C208.286 187.322 208.222 187.336 208.159 187.351C208.142 187.354 208.125 187.359 208.108 187.362C208.044 187.377 207.98 187.391 207.915 187.406C207.897 187.409 207.878 187.414 207.86 187.417C207.792 187.432 207.724 187.448 207.656 187.463C207.641 187.466 207.624 187.469 207.609 187.473C207.538 187.488 207.465 187.503 207.392 187.519C207.377 187.523 207.362 187.526 207.346 187.529C207.272 187.544 207.197 187.561 207.123 187.576C207.109 187.579 207.094 187.583 207.081 187.584C207.006 187.599 206.928 187.616 206.852 187.631C206.837 187.634 206.82 187.638 206.805 187.641C206.727 187.658 206.645 187.673 206.566 187.689C206.552 187.693 206.539 187.694 206.525 187.698C206.441 187.714 206.356 187.731 206.269 187.748C206.259 187.749 206.249 187.751 206.239 187.753C206.149 187.769 206.059 187.788 205.968 187.804C205.96 187.804 205.951 187.808 205.944 187.809C205.855 187.826 205.763 187.844 205.67 187.861C205.66 187.863 205.65 187.864 205.641 187.866C204.519 188.074 203.255 188.288 201.831 188.498H201.826C201.699 188.516 201.572 188.535 201.442 188.555C201.43 188.556 201.416 188.558 201.404 188.56C201.286 188.576 201.167 188.593 201.047 188.611C201.023 188.615 201 188.618 200.976 188.621C200.864 188.636 200.752 188.653 200.641 188.668C200.615 188.671 200.588 188.675 200.563 188.678C200.453 188.693 200.343 188.708 200.231 188.723C200.195 188.728 200.158 188.733 200.123 188.738C200.019 188.751 199.916 188.766 199.809 188.78C199.77 188.785 199.73 188.79 199.691 188.795C199.587 188.808 199.484 188.821 199.381 188.835C199.339 188.84 199.296 188.846 199.254 188.851C199.151 188.865 199.047 188.878 198.944 188.891C198.898 188.898 198.851 188.903 198.803 188.91C198.703 188.923 198.604 188.935 198.502 188.948C198.448 188.955 198.394 188.961 198.341 188.968C198.243 188.98 198.146 188.991 198.046 189.005C197.992 189.011 197.938 189.018 197.886 189.025C197.786 189.036 197.686 189.048 197.584 189.061C197.53 189.068 197.474 189.075 197.418 189.081C197.317 189.093 197.217 189.105 197.115 189.117C197.056 189.123 196.997 189.13 196.937 189.137C196.837 189.148 196.737 189.16 196.638 189.17C196.573 189.177 196.509 189.185 196.445 189.192C196.348 189.203 196.25 189.213 196.152 189.225C196.086 189.232 196.02 189.24 195.953 189.247C195.854 189.258 195.754 189.268 195.652 189.28C195.586 189.287 195.52 189.293 195.454 189.302C195.351 189.313 195.247 189.323 195.144 189.335C195.076 189.342 195.009 189.348 194.943 189.357C194.839 189.367 194.736 189.378 194.633 189.388C194.563 189.395 194.492 189.403 194.423 189.41C194.319 189.42 194.214 189.432 194.109 189.442C194.037 189.448 193.964 189.457 193.891 189.463C193.789 189.473 193.686 189.483 193.583 189.493C193.505 189.502 193.427 189.508 193.349 189.517C193.247 189.527 193.146 189.537 193.044 189.547C192.965 189.555 192.883 189.562 192.802 189.57C192.699 189.58 192.597 189.59 192.494 189.598C192.411 189.607 192.33 189.613 192.247 189.622C192.142 189.632 192.038 189.64 191.932 189.65C191.85 189.657 191.767 189.665 191.684 189.672C191.576 189.682 191.468 189.692 191.359 189.7C191.278 189.707 191.195 189.715 191.114 189.722C191.004 189.732 190.894 189.74 190.782 189.75C190.696 189.757 190.609 189.765 190.523 189.772C190.416 189.78 190.309 189.79 190.201 189.798C190.11 189.807 190.018 189.813 189.927 189.822C189.82 189.83 189.712 189.84 189.603 189.848C189.512 189.857 189.419 189.863 189.326 189.872C189.216 189.88 189.105 189.89 188.994 189.898C188.901 189.905 188.809 189.913 188.716 189.92C188.601 189.928 188.486 189.939 188.371 189.947C188.281 189.954 188.189 189.96 188.098 189.969C187.981 189.977 187.864 189.987 187.747 189.995C187.653 190.002 187.558 190.01 187.461 190.017C187.348 190.025 187.233 190.034 187.117 190.042C187.018 190.049 186.918 190.057 186.818 190.064C186.704 190.072 186.589 190.08 186.474 190.089C186.372 190.095 186.272 190.104 186.171 190.11C186.052 190.119 185.932 190.127 185.812 190.135C185.712 190.142 185.61 190.149 185.51 190.155C185.39 190.164 185.27 190.172 185.148 190.18C185.045 190.187 184.941 190.194 184.838 190.2C184.715 190.209 184.589 190.217 184.464 190.225C184.362 190.232 184.262 190.239 184.161 190.245C184.032 190.254 183.903 190.262 183.773 190.27C183.671 190.277 183.57 190.284 183.467 190.289C183.34 190.297 183.211 190.304 183.082 190.312C182.975 190.319 182.867 190.325 182.759 190.332C182.635 190.339 182.51 190.347 182.384 190.354C182.271 190.36 182.159 190.367 182.046 190.374C181.917 190.38 181.788 190.389 181.66 190.395C181.548 190.402 181.438 190.409 181.324 190.414C181.192 190.42 181.06 190.429 180.926 190.435C180.815 190.442 180.703 190.447 180.59 190.454C180.454 190.46 180.319 190.469 180.183 190.475C180.071 190.482 179.96 190.487 179.846 190.494C179.714 190.5 179.58 190.507 179.448 190.514C179.328 190.52 179.208 190.525 179.087 190.532C179.028 190.535 178.969 190.539 178.91 190.54C178.767 190.547 178.62 190.554 178.476 190.562C178.493 190.477 178.502 190.43 178.502 190.43C178.502 190.43 178.49 190.477 178.464 190.562C177.772 190.595 177.069 190.629 176.349 190.66C176.344 190.66 176.341 190.66 176.336 190.66C176.293 190.662 176.251 190.664 176.209 190.665C175.804 190.684 175.396 190.7 174.983 190.717C174.915 190.72 174.846 190.722 174.776 190.725C174.355 190.742 173.931 190.759 173.501 190.775C173.445 190.961 173.384 191.144 173.325 191.327C173.245 191.566 173.162 191.803 173.074 192.036C173.073 192.041 173.071 192.046 173.069 192.051C172.986 192.271 172.898 192.49 172.808 192.705C172.805 192.713 172.802 192.72 172.798 192.728C172.715 192.921 172.575 193.236 172.487 193.428C172.482 193.44 172.477 193.452 172.471 193.462C172.372 193.673 172.268 193.882 172.16 194.09C172.15 194.108 172.141 194.128 172.131 194.147C172.026 194.35 171.916 194.55 171.803 194.749C171.789 194.772 171.777 194.794 171.764 194.817C171.652 195.01 171.538 195.202 171.42 195.392C171.403 195.419 171.388 195.446 171.371 195.472C171.256 195.657 171.135 195.839 171.014 196.021C170.993 196.051 170.973 196.081 170.953 196.111C170.832 196.288 170.709 196.461 170.583 196.633C170.56 196.666 170.536 196.7 170.511 196.731C170.475 196.78 170.438 196.826 170.401 196.875C171.337 195.349 172.085 193.845 172.59 192.75C170.937 196.109 166.248 203.391 156.366 204.226C143.794 205.29 138.277 196.451 136.87 193.688C136.603 193.14 136.357 192.58 136.142 192.004C136.127 191.964 136.11 191.926 136.096 191.886C136.008 191.646 135.925 191.402 135.846 191.157C135.415 191.151 134.99 191.144 134.57 191.137C134.504 191.137 134.438 191.136 134.372 191.134C133.961 191.127 133.553 191.119 133.15 191.112C133.097 191.112 133.043 191.111 132.991 191.109C132.12 191.092 131.27 191.074 130.437 191.054C99.7446 190.32 94.7966 187.593 94.7966 187.593L93.8093 184.601C93.8093 184.601 93.8093 184.6 93.811 184.598C93.9431 184.645 99.7852 186.697 118.959 187.723H118.956L118.991 187.724C122.18 187.894 125.738 188.036 129.699 188.134H129.741C130.208 188.146 130.682 188.158 131.162 188.168C131.185 188.168 131.209 188.168 131.231 188.168C131.627 188.176 132.025 188.184 132.428 188.193C132.555 188.194 132.684 188.198 132.811 188.199C133.124 188.204 133.436 188.211 133.754 188.216C134.217 188.224 134.682 188.231 135.155 188.238C134.972 187.054 134.899 185.834 134.945 184.59C135.319 174.479 143.657 166.287 153.927 165.944C165.109 165.571 174.292 174.384 174.292 185.31C174.292 186.079 174.244 186.836 174.156 187.581C174.634 187.559 175.103 187.536 175.569 187.513C175.873 187.498 176.172 187.483 176.471 187.468C176.612 187.461 176.756 187.453 176.896 187.446C177.287 187.426 177.675 187.404 178.06 187.384C178.092 187.383 178.126 187.381 178.158 187.379C178.576 187.356 178.989 187.332 179.399 187.309C179.399 187.309 181.907 187.196 185.614 186.909H185.61C209.104 185.213 215.028 182.589 215.028 182.589C215.028 182.589 220.062 182.169 221.639 178.617C221.642 178.611 221.645 178.606 221.649 178.599C222.096 177.752 222.512 176.59 222.512 176.59C223.161 174.826 224.126 171.246 225.245 165.782C226.168 161.274 226.448 158.848 226.526 157.632C226.534 157.641 226.541 157.646 226.541 157.646C226.977 155.022 225.516 154.707 223.5 153.5ZM153.651 121.475C153.472 121.461 153.111 121.495 152.933 121.475C151.575 121.325 149.647 121.078 147.361 120.848C123.619 115.142 110.724 100.598 108.239 96.995C108.198 96.935 108.156 96.8733 108.113 96.8099C108.1 96.7899 108.084 96.7666 108.071 96.7466C108.042 96.7032 108.013 96.6582 107.983 96.6115C107.966 96.5848 107.949 96.5582 107.932 96.5315C107.905 96.4898 107.878 96.4464 107.851 96.4031C107.832 96.3731 107.812 96.3414 107.793 96.3097C107.768 96.268 107.741 96.2264 107.715 96.183C107.695 96.1497 107.675 96.1163 107.654 96.0813C107.629 96.0379 107.602 95.9946 107.576 95.9496C107.556 95.9146 107.534 95.8779 107.514 95.8412C107.488 95.7962 107.463 95.7528 107.438 95.7061C107.416 95.6678 107.395 95.6311 107.373 95.5928C107.348 95.5461 107.322 95.4994 107.295 95.4527C107.273 95.4127 107.251 95.3744 107.231 95.3327C107.206 95.286 107.18 95.2376 107.155 95.1893C107.133 95.1476 107.111 95.1076 107.089 95.0659C107.063 95.0159 107.036 94.9659 107.011 94.9142C106.989 94.8725 106.969 94.8308 106.947 94.7875C106.919 94.7341 106.892 94.6791 106.865 94.6257C106.845 94.584 106.825 94.544 106.804 94.5007C106.775 94.4423 106.747 94.3806 106.718 94.3206C106.699 94.2823 106.681 94.2439 106.662 94.2039C106.616 94.1055 106.571 94.0071 106.527 93.9071C106.51 93.8688 106.493 93.8287 106.476 93.7904C106.447 93.7254 106.418 93.6603 106.389 93.5953C106.369 93.547 106.349 93.4986 106.328 93.4503C106.305 93.3919 106.279 93.3352 106.256 93.2769C106.234 93.2252 106.213 93.1718 106.191 93.1185C106.169 93.0634 106.146 93.0068 106.124 92.9501C106.102 92.895 106.081 92.84 106.061 92.785C106.039 92.7283 106.017 92.6716 105.997 92.6149C105.976 92.5582 105.956 92.5032 105.934 92.4465C105.914 92.3898 105.893 92.3331 105.873 92.2765C105.853 92.2181 105.832 92.1597 105.812 92.0997C105.793 92.043 105.773 91.9863 105.754 91.9297C105.734 91.8696 105.714 91.8096 105.695 91.7479C105.676 91.6912 105.66 91.6345 105.641 91.5779C105.622 91.5162 105.602 91.4545 105.583 91.3911C105.566 91.3344 105.549 91.2777 105.533 91.221C105.514 91.1577 105.495 91.0943 105.477 91.0293C105.461 90.9726 105.446 90.9159 105.429 90.8576C105.412 90.7925 105.394 90.7275 105.377 90.6625C105.362 90.6058 105.348 90.5491 105.334 90.4908C105.317 90.4241 105.301 90.3574 105.285 90.2907C105.273 90.2373 105.262 90.184 105.25 90.1323C105.209 89.9555 105.172 89.7771 105.136 89.5971C105.133 89.5837 105.131 89.5687 105.128 89.5554C105.114 89.482 105.101 89.4087 105.089 89.337C105.079 89.2819 105.069 89.2286 105.06 89.1736C105.048 89.1019 105.038 89.0302 105.026 88.9601C105.018 88.9035 105.008 88.8451 105.001 88.7884C104.991 88.7167 104.982 88.645 104.972 88.5733C104.965 88.515 104.957 88.4583 104.95 88.3999C104.942 88.3282 104.935 88.2565 104.928 88.1832C104.923 88.1248 104.916 88.0665 104.911 88.0081C104.904 87.9347 104.899 87.863 104.894 87.7897C104.889 87.7313 104.886 87.673 104.882 87.6146C104.877 87.5413 104.874 87.4679 104.87 87.3945C104.867 87.3362 104.865 87.2778 104.864 87.2195C104.862 87.1461 104.859 87.0711 104.859 86.9977C104.859 86.9393 104.859 86.881 104.859 86.8226C104.859 86.7476 104.859 86.6726 104.859 86.5975C104.859 86.5408 104.862 86.4842 104.862 86.4275C104.864 86.3508 104.865 86.2741 104.87 86.1974C104.872 86.1424 104.877 86.0873 104.881 86.0323C104.886 85.954 104.889 85.8756 104.896 85.7956C104.899 85.7455 104.906 85.6955 104.909 85.6455C104.916 85.5621 104.925 85.4788 104.933 85.3954C104.936 85.3687 104.94 85.342 104.943 85.3137C104.969 85.1053 104.999 84.8969 105.035 84.6885C105.038 84.6651 105.041 84.6418 105.047 84.6201C105.062 84.5367 105.079 84.4534 105.097 84.37C105.108 84.32 105.118 84.27 105.128 84.2199C105.145 84.1416 105.165 84.0632 105.184 83.9848C105.197 83.9298 105.209 83.8765 105.224 83.8214C105.245 83.7447 105.267 83.6681 105.289 83.5914C105.304 83.5363 105.321 83.4796 105.336 83.4246C105.358 83.3496 105.384 83.2729 105.407 83.1979C105.426 83.1412 105.444 83.0845 105.463 83.0295C105.489 82.9544 105.516 82.8811 105.544 82.806C105.565 82.7493 105.587 82.6927 105.609 82.636C105.638 82.5609 105.668 82.4876 105.698 82.4126C105.722 82.3559 105.746 82.3008 105.77 82.2458C105.802 82.1708 105.836 82.0974 105.87 82.0241C105.895 81.969 105.922 81.914 105.949 81.8607C105.985 81.7856 106.022 81.7123 106.061 81.6372C106.088 81.5839 106.118 81.5305 106.147 81.4772C106.188 81.4022 106.229 81.3271 106.271 81.2538C106.3 81.2021 106.332 81.1521 106.361 81.102C106.406 81.0253 106.45 80.9503 106.499 80.8736C106.527 80.8303 106.557 80.7852 106.586 80.7419C106.772 80.4551 106.977 80.1717 107.199 79.8932C107.229 79.8565 107.256 79.8182 107.287 79.7815C107.346 79.7082 107.41 79.6365 107.473 79.5631C107.514 79.5147 107.554 79.4664 107.597 79.4197C107.658 79.3513 107.722 79.283 107.786 79.2129C107.834 79.1629 107.88 79.1112 107.929 79.0612C107.993 78.9945 108.061 78.9278 108.127 78.8628C108.178 78.8111 108.23 78.7611 108.283 78.7111C108.35 78.6461 108.42 78.5827 108.491 78.5177C108.547 78.4677 108.603 78.416 108.659 78.3659C108.73 78.3026 108.804 78.2392 108.879 78.1775C108.938 78.1275 108.999 78.0775 109.06 78.0275C109.136 77.9658 109.212 77.9041 109.29 77.8424C109.353 77.7924 109.417 77.744 109.483 77.6957C109.563 77.6357 109.644 77.574 109.727 77.5139C109.793 77.4656 109.862 77.4189 109.93 77.3706C110.015 77.3105 110.101 77.2522 110.188 77.1938C110.257 77.1471 110.33 77.1021 110.401 77.0554C110.492 76.9971 110.582 76.9387 110.675 76.8804C110.746 76.8353 110.821 76.792 110.894 76.7486C110.99 76.6903 111.087 76.6319 111.187 76.5752C111.256 76.5352 111.329 76.4969 111.398 76.4585C111.674 76.3051 111.957 76.1551 112.254 76.0084C112.257 76.0067 112.26 76.005 112.265 76.0033C121.308 71.6383 141.43 71.4866 162.189 73.7891H162.193C165.378 74.1976 177.47 75.8883 189.045 79.3347C195.408 81.3371 200.089 83.3829 202.95 84.8018C203.084 84.8735 203.218 84.9469 203.35 85.0203C203.381 85.0369 203.413 85.0553 203.443 85.0719C203.591 85.1536 203.736 85.2353 203.88 85.3187C203.884 85.3204 203.887 85.3237 203.892 85.3254C204.039 85.4104 204.185 85.4954 204.331 85.5805C204.366 85.6021 204.402 85.6222 204.437 85.6438C204.547 85.7089 204.656 85.7739 204.764 85.8406C204.803 85.8656 204.844 85.8889 204.883 85.9139C205.021 85.999 205.159 86.084 205.296 86.1707C219.603 95.246 210.352 106.514 206.669 109.658C203.404 112.444 187.82 122.805 164.335 122.83C160.04 122.185 156.185 121.673 153.651 121.476V121.475Z" fill="#B9BCFF" stroke="#3048EA" stroke-width="2" stroke-linejoin="round" mask="url(#path-2-inside-1_651_24759)"/>
<path d="M173.724 92.5572C172.934 91.5211 172.115 91.4186 170.937 91.9646C168.82 92.951 168.054 94.6956 167.797 96.6511C167.247 99.1195 167.337 101.372 168.628 103.479C169.889 105.539 171.698 105.723 173.312 103.949C175.596 101.439 175.797 95.2753 173.724 92.5546L173.724 92.5572Z" fill="#3048EA"/>
<path d="M141.324 90.3812C139.173 92.8526 139.112 98.7031 141.211 101.234C142.292 102.534 143.626 102.634 144.975 101.571C146.425 100.433 146.639 98.7678 146.882 97.7882C147.448 95.2279 147.522 93.2935 146.853 91.3967C145.863 88.583 143.286 88.1221 141.321 90.3807L141.324 90.3812Z" fill="#3048EA"/>
<path d="M166.887 112.797C166.61 112.906 166.341 113.034 166.064 113.146C160.019 115.561 154.096 115.249 148.268 112.418C147.737 112.161 147.082 111.206 146.631 111.896C146.067 112.756 147.238 113.078 147.789 113.54C147.876 113.615 148.003 113.647 148.113 113.696C153.853 116.226 159.677 116.754 165.613 114.387C166.294 114.115 167.101 113.903 167.274 112.868C167.005 112.817 166.936 112.781 166.89 112.798L166.887 112.797Z" fill="#3048EA" stroke="#3048EA"/>
<path d="M189.727 105.086C193.001 105.712 195.001 108.48 194.391 111.538C193.784 114.579 190.756 116.662 187.628 116.027C184.448 115.382 182.313 112.641 182.97 109.356C183.625 106.088 186.685 104.247 189.728 105.084L189.727 105.086Z" fill="#B9BCFF"/>
<path d="M127.227 98.3313C130.501 98.9568 132.501 101.725 131.891 104.783C131.284 107.824 128.256 109.907 125.128 109.272C121.948 108.627 119.813 105.886 120.47 102.601C121.125 99.333 124.185 97.4923 127.228 98.329L127.227 98.3313Z" fill="#B9BCFF"/>
<path d="M138.271 81.596C141.065 80.2482 142.851 78.1981 142.26 77.0169C141.67 75.8357 138.926 75.9707 136.132 77.3185C133.338 78.6662 131.552 80.7163 132.142 81.8976C132.733 83.0788 135.477 82.9437 138.271 81.596Z" fill="#3048EA"/>
<path d="M187.16 87.904C188.019 86.7503 186.653 84.3339 184.109 82.5069C181.566 80.6799 178.807 80.1341 177.948 81.2879C177.09 82.4416 178.456 84.858 180.999 86.685C183.543 88.512 186.301 89.0578 187.16 87.904Z" fill="#3048EA"/>
<path d="M172.578 192.745C173.083 191.719 173.305 191.061 173.305 191.061C173.305 191.061 173.047 191.727 172.578 192.745Z" fill="#B9BCFF"/>
<path d="M38.7323 107.461C38.7249 107.585 38.6717 107.701 38.5831 107.787C38.42 107.946 38.2252 108.323 38.1798 108.857C38.1359 109.374 38.2377 109.997 38.6071 110.617L38.7323 107.461ZM38.7323 107.461C38.8016 106.305 39.3969 104.103 40.4148 102.234C40.9218 101.303 41.5166 100.486 42.1742 99.9274C42.7224 99.4614 43.292 99.1912 43.8829 99.1546C43.8802 99.2133 43.8754 99.2809 43.8682 99.3578C43.8295 99.7695 43.7331 100.332 43.6155 100.92C43.3933 102.032 43.1078 103.178 43.0437 103.436C43.0403 103.449 43.0375 103.46 43.0354 103.469L43.0353 103.469M38.7323 107.461L43.0353 103.469M43.0353 103.469L43.0338 103.475M43.0353 103.469L43.0338 103.475M43.0338 103.475C43.0273 103.503 43.0199 103.535 43.0118 103.57M43.0338 103.475L43.0118 103.57M43.0118 103.57C42.8193 104.396 42.1782 107.147 41.2762 109.223M43.0118 103.57L41.2762 109.223M41.2762 109.223C41.0424 109.761 40.7966 110.24 40.544 110.623M41.2762 109.223L40.544 110.623M40.544 110.623C40.2868 111.012 40.0462 111.265 39.8362 111.393M40.544 110.623L39.8362 111.393M39.8362 111.393C39.6492 111.506 39.5097 111.512 39.3647 111.448M39.8362 111.393L39.3647 111.448M39.3647 111.448C39.1825 111.367 38.9201 111.142 38.6072 110.617L39.3647 111.448Z" fill="#B9BCFF" stroke="#3048EA" stroke-linejoin="round"/>
<path d="M26.3111 93.6238C26.3249 93.6235 26.3387 93.6226 26.3524 93.6212C26.5663 93.6064 26.868 93.7115 27.2573 94.0525C27.6434 94.3906 28.053 94.9077 28.4589 95.5669C29.2687 96.8822 30.0111 98.6768 30.5026 100.477C30.9967 102.286 31.2205 104.04 31.0427 105.286C30.9538 105.91 30.7721 106.349 30.5308 106.614C30.3104 106.856 30.0025 106.997 29.5224 106.954C28.94 106.902 28.4029 106.53 27.9036 105.847C27.4052 105.164 26.9919 104.232 26.6535 103.205C26.0075 101.245 25.6723 99.0612 25.4947 97.9038C25.4865 97.8505 25.4787 97.7994 25.4712 97.7506C25.2492 96.3107 25.2662 95.2255 25.4626 94.5213C25.5597 94.1728 25.6918 93.9502 25.8288 93.8178C25.9562 93.6946 26.1085 93.6282 26.3111 93.6238Z" fill="#B9BCFF" stroke="#3048EA" stroke-linejoin="round"/>
<path d="M173.616 231.731C173.41 231.78 173.298 231.804 173.298 231.804C173.298 231.804 173.41 231.782 173.616 231.731Z" fill="#B9BCFF"/>
<path d="M278.497 213.355L278.493 213.404C278.487 213.485 278.478 213.606 278.466 213.76C278.441 214.068 278.402 214.51 278.346 215.043C278.234 216.111 278.055 217.54 277.785 218.994C277.514 220.454 277.156 221.915 276.693 223.057C276.461 223.628 276.211 224.1 275.946 224.447C275.679 224.797 275.425 224.985 275.194 225.055C275.058 225.097 274.946 225.194 274.886 225.324C274.635 225.866 274.369 226.285 274.095 226.562C273.826 226.836 273.578 226.945 273.345 226.949C273.335 226.949 273.324 226.95 273.313 226.951C273.112 226.967 272.953 226.916 272.814 226.807C272.664 226.689 272.509 226.481 272.376 226.145C272.107 225.465 271.976 224.388 272.046 222.933L272.046 222.933C272.049 222.875 272.052 222.814 272.054 222.751C272.109 221.576 272.203 219.564 272.576 217.675C272.773 216.679 273.043 215.743 273.411 214.992C273.782 214.236 274.226 213.726 274.738 213.492C274.871 213.431 274.971 213.315 275.011 213.175C275.108 212.834 275.343 212.449 275.67 212.126C275.997 211.803 276.378 211.58 276.741 211.51L278.497 213.355ZM278.497 213.355C278.485 213.301 278.474 213.247 278.463 213.195C278.409 212.937 278.36 212.701 278.297 212.478C278.218 212.194 278.13 211.977 278.019 211.817C277.915 211.668 277.792 211.568 277.621 211.512C277.439 211.453 277.164 211.429 276.741 211.51L278.497 213.355Z" fill="#B9BCFF" stroke="#3048EA" stroke-linejoin="round"/>
<path d="M261.492 205.98C261.488 205.987 261.484 205.993 261.48 205.999C261.426 206.081 261.319 206.321 261.171 206.744C261.03 207.147 260.869 207.668 260.696 208.267C260.35 209.466 259.966 210.962 259.624 212.427C259.282 213.892 258.985 215.317 258.812 216.373C258.725 216.904 258.673 217.327 258.659 217.61C258.658 217.636 258.657 217.66 258.656 217.682C258.856 217.7 259.106 217.636 259.422 217.45C259.852 217.197 260.314 216.769 260.762 216.254C261.657 215.224 262.394 213.971 262.605 213.493L262.605 213.493C263.361 211.786 263.683 210.281 263.705 209.238C263.708 209.111 263.759 208.989 263.848 208.898C264.21 208.53 264.59 207.393 263.839 206.16L261.492 205.98ZM261.492 205.98C261.928 205.258 262.321 205.059 262.593 205.067M261.492 205.98L262.593 205.067M262.593 205.067C262.878 205.074 263.321 205.311 263.839 206.16L262.593 205.067ZM258.663 217.872C258.663 217.872 258.663 217.871 258.662 217.868C258.663 217.871 258.663 217.872 258.663 217.872Z" fill="#B9BCFF" stroke="#3048EA" stroke-linejoin="round"/>
<path d="M276.321 209.435C275.43 210.445 274.329 211.312 273.132 211.826C273.12 211.83 273.108 211.835 273.096 211.84C272.277 212.203 271.259 212.416 270.301 212.301L270.301 212.301L270.291 212.3C270.052 212.276 269.812 212.233 269.568 212.172C269.291 212.102 268.99 211.939 268.671 211.676C268.665 211.672 268.659 211.667 268.653 211.662C268.397 211.47 268.158 211.23 267.948 210.933C267.946 210.929 267.944 210.926 267.942 210.923C267.941 210.922 267.94 210.92 267.939 210.919C267.932 210.91 267.925 210.9 267.918 210.891C267.636 210.536 267.365 210.122 267.106 209.66L267.097 209.646C266.304 208.335 265.759 206.974 265.411 204.719L265.411 204.719L265.41 204.713C265.366 204.451 265.33 204.19 265.302 203.932C265.302 203.925 265.301 203.919 265.3 203.912C265.299 203.907 265.299 203.902 265.298 203.897C265.166 202.814 265.127 201.886 265.204 201.114C265.223 200.93 265.138 200.751 264.984 200.648C264.83 200.545 264.632 200.536 264.469 200.625C263.896 200.935 263.338 201.182 262.796 201.373C262.787 201.377 262.777 201.38 262.767 201.384C262.288 201.55 261.826 201.674 261.382 201.756C261.374 201.757 261.366 201.758 261.358 201.759C257.773 202.408 255.204 200.493 254.764 197.763C254.741 197.616 254.652 197.487 254.523 197.411C254.394 197.336 254.238 197.322 254.098 197.374C253.422 197.623 252.733 197.835 252.044 197.993L252.044 197.993L252.036 197.994C250.89 198.276 249.254 198.509 247.858 198.104C247.839 198.098 247.819 198.092 247.796 198.088C247.675 198.059 247.56 198.029 247.449 197.996C245.926 197.54 244.147 196.316 242.347 194.654C240.557 193.001 238.79 190.956 237.291 188.92C237.289 188.918 237.288 188.915 237.286 188.913C237.284 188.911 237.282 188.908 237.28 188.905C236.33 187.71 235.511 186.427 234.803 185.121L234.803 185.121L234.798 185.113C234.48 184.553 234.204 184.02 233.975 183.527L233.522 183.737L233.975 183.527C232.36 180.049 231.138 176.261 230.826 172.637C230.826 172.635 230.826 172.632 230.826 172.63C230.825 172.622 230.825 172.615 230.824 172.607C230.8 172.371 230.782 172.107 230.772 171.822L230.772 171.822L230.772 171.816C230.667 169.617 230.918 167.504 231.633 165.576L231.638 165.561C232.022 164.422 232.54 163.397 233.218 162.619C233.227 162.609 233.235 162.599 233.243 162.589C233.669 162.014 234.155 161.464 234.708 160.945C235.155 160.629 235.61 160.351 236.075 160.104C236.082 160.1 236.09 160.096 236.098 160.091C236.405 159.907 236.644 159.794 236.801 159.729C236.879 159.696 236.937 159.676 236.972 159.664C236.99 159.658 237.002 159.654 237.008 159.652L237.013 159.651C237.035 159.645 237.057 159.638 237.078 159.629C239.891 158.45 242.982 158.398 246.119 159.102L246.14 159.107C246.14 159.107 246.14 159.107 246.14 159.107C246.55 159.2 246.961 159.304 247.369 159.422C247.379 159.424 247.389 159.427 247.399 159.429C250.866 160.423 254.317 162.264 257.404 164.41L257.404 164.41C259.593 165.932 262.463 168.678 264.854 171.661C266.047 173.151 267.113 174.688 267.912 176.149C268.714 177.617 269.229 178.977 269.356 180.116L269.356 180.116C269.508 181.48 269.203 182.896 268.618 184.289C268.617 184.292 268.616 184.295 268.614 184.299L268.609 184.309C268.605 184.317 268.602 184.325 268.598 184.333C268.437 184.714 268.254 185.092 268.055 185.471C267.879 185.8 267.69 186.127 267.492 186.447C267.412 186.577 267.395 186.736 267.447 186.879C267.498 187.023 267.612 187.135 267.757 187.184C270.362 188.068 271.765 190.761 270.687 193.937C270.683 193.948 270.68 193.958 270.677 193.968C270.52 194.429 270.309 194.9 270.039 195.378C270.034 195.386 270.03 195.395 270.026 195.403C269.616 196.126 269.072 196.865 268.38 197.6C268.253 197.735 268.211 197.93 268.271 198.105C268.331 198.28 268.483 198.408 268.666 198.437C270.207 198.68 272.539 199.567 274.567 200.728C275.576 201.306 276.49 201.942 277.182 202.582C277.885 203.233 278.303 203.84 278.42 204.352L278.42 204.352C278.553 204.935 278.442 205.746 278.069 206.67C277.702 207.579 277.104 208.545 276.336 209.419C276.331 209.425 276.326 209.43 276.321 209.435ZM267.927 210.904C267.927 210.904 267.928 210.905 267.93 210.907L267.928 210.904L267.927 210.904Z" fill="#B9BCFF" stroke="#3048EA" stroke-linejoin="round"/>
<path d="M46.4762 13.0458C42.8053 13.005 39.8285 13.9565 37.5501 15.8962C36.331 16.9343 35.4096 18.0947 34.7829 19.3812C33.9325 21.1281 35.0566 23.1877 37.0069 23.4468C38.579 23.6569 40.1137 22.8633 40.835 21.4725C41.2556 20.6605 41.7809 19.9976 42.4093 19.4841C43.5678 18.5382 45.0016 18.0744 46.7107 18.0926C48.4832 18.111 49.8875 18.5871 50.9229 19.5176C51.9584 20.4481 52.4709 21.5582 52.4567 22.8469C52.4476 23.7752 52.1437 24.6196 51.5439 25.3836C51.1557 25.8664 49.971 26.8839 47.9911 28.4325C46.0114 29.9829 44.6882 31.3833 44.0197 32.6341C43.3513 33.885 43.0083 35.4834 42.988 37.4331C42.9785 38.3058 43.6909 39.02 44.5756 39.0303L46.0614 39.0463C47.6245 39.0637 49.0057 37.9783 49.264 36.4607C49.3462 35.9734 49.4612 35.5823 49.6075 35.2893C49.9583 34.5862 50.8491 33.6602 52.2836 32.5125C55.052 30.2953 56.8628 28.5384 57.7145 27.2437C58.5661 25.9491 58.9994 24.5695 59.0148 23.1084C59.0416 20.4688 57.9256 18.1412 55.6622 16.1296C53.4005 14.1178 50.338 13.0905 46.4748 13.0477L46.4762 13.0458Z" fill="#3048EA"/>
<path d="M46.3364 41.3348C44.4778 41.3147 42.9562 42.7816 42.9371 44.6113C42.9179 46.4411 44.409 47.9402 46.2676 47.9604C48.1261 47.9805 49.6478 46.5136 49.6669 44.6839C49.686 42.8541 48.1949 41.355 46.3364 41.3348Z" fill="#3048EA"/>
<path d="M8.6067 42.8682H6.80566V44.6405H8.6067V42.8682Z" fill="#B9BCFF"/>
<path d="M0.00346375 29.2574C0.249748 38.0514 5.34911 44.6407 12.0935 50.2501C15.6205 53.1835 19.6274 55.4843 24.0258 56.9231C26.3371 57.6797 27.6822 58.9077 28.702 61.1279C31.4333 67.0691 35.958 71.2583 42.434 73.1809C43.9023 73.6181 45.421 73.9437 46.4819 72.4304C47.4355 71.0692 46.6651 69.9033 45.8883 68.7435C44.2559 66.3063 41.572 63.4256 42.9613 60.8984C44.3254 58.4115 48.187 59.9651 50.9246 59.8689C62.0169 59.4813 72.6608 57.4875 82.3449 51.8812C100.175 41.5554 100.813 19.6076 83.6553 8.13449C76.5446 3.3809 68.4108 1.59172 60.0908 0.732782C46.6303 -0.662597 33.2362 -0.405227 20.3946 4.53441C11.5694 7.92984 3.95982 12.7454 0.982285 22.3612C0.325523 24.4852 0.0381927 26.6496 0.000305176 29.2574H0.00346375ZM38.2282 65.4101C34.8181 62.2535 32.69 59.3852 31.0512 56.2937C29.8482 54.0238 28.2126 52.8548 25.9013 51.9587C19.7631 49.5865 14.6859 45.7105 10.5401 40.684C3.78616 32.4947 4.28819 23.8092 11.8157 16.423C15.2447 13.0586 19.3495 10.8818 23.8774 9.38413C35.5696 5.51118 47.5997 5.64141 59.6582 6.705C66.3648 7.29416 72.9039 8.71435 78.8558 12.116C93.6582 20.5782 93.794 38.4669 79.0769 47.0501C68.5497 53.1897 56.9933 54.796 44.9948 54.5696C38.3798 54.4456 36.9557 56.1262 37.8051 62.638C37.8809 63.221 37.9819 63.8039 38.2314 65.4101H38.2282Z" fill="#B9BCFF"/>
<path d="M152.815 187.468H148.367L147.631 189.596H145.279L149.295 178.412H151.903L155.919 189.596H153.551L152.815 187.468ZM152.207 185.676L150.591 181.004L148.975 185.676H152.207ZM159.66 178.428V189.596H157.42V178.428H159.66Z" fill="#3048EA"/>
</svg>
